<svg xmlns="http://www.w3.org/2000/svg" width="83" height="80" viewBox="0 0 83 80">
  <g id="Grupo_71697" data-name="Grupo 71697" transform="translate(-1179 -2192)">
    <rect id="Rectángulo_32120" data-name="Rectángulo 32120" width="83" height="80" transform="translate(1179 2192)" fill="none"/>
    <g id="Grupo_71696" data-name="Grupo 71696" transform="translate(133.819 2146.846)">
      <path id="Trazado_106003" data-name="Trazado 106003" d="M1107.453,50.37a1.793,1.793,0,0,0-1.213-.035c-.576.2-.577.785-.577,1.321q.013,16.416.019,32.832v.837h-13.463v-.778q0-3.35,0-6.7a4.934,4.934,0,0,0-4.787-5.109c-1.444-.015-2.887-.018-4.332-.03-.264,0-.528-.024-.8-.036V66.792h.87q5.111,0,10.221,0c.914,0,1.3-.361,1.3-1.254q.012-7.04,0-14.08c0-.938-.339-1.279-1.255-1.288-1.354-.013-2.708-.017-4.061,0-1.074.015-1.443.413-1.444,1.5q0,3.892,0,7.785v.729h-5.409a6.162,6.162,0,0,0-8.936-8.425c-1.956,1.674-2.986,5.1-.557,8.49-1.059,0-2.041.016-3.023,0a3.708,3.708,0,0,0-2.592.969c-2.852,2.462-5.718,4.908-8.572,7.369-2.022,1.744-1.9,4.127.285,5.691q2.393,1.714,4.788,3.424c1.574,1.125,1.734,1.1,2.955-.417q.979-1.219,1.963-2.436l.14.067v.725c0,6.611-.014,13.223.019,19.834a1.389,1.389,0,0,1-.86,1.443,6.242,6.242,0,0,0-2.406,8.329c.264.48.582.93.934,1.488h-.826c-2.459,0-4.92-.026-7.378.013a6.3,6.3,0,0,0-2.872,11.882,16.485,16.485,0,0,0,2.536.848h37.915c.22-.243.537-.449.641-.734.3-.826-.115-1.335-1.075-1.423a4.242,4.242,0,0,1-4-3.815,4.2,4.2,0,0,1,3.637-4.592c1.728-.131,3.465-.148,5.2-.166,2.5-.026,5.007-.006,7.511-.008a4.67,4.67,0,0,0,.674-.038,1.04,1.04,0,0,0-.059-2.071,4.592,4.592,0,0,1-2.8-1.038,4.24,4.24,0,0,1-1.3-4.531,3.993,3.993,0,0,1,3.707-2.869c3.945-.08,7.892-.079,11.838-.085a1.544,1.544,0,0,0,1.486-.7v-.677a1.641,1.641,0,0,0-1.46-.786,4.176,4.176,0,0,1-3.852-4.206,4.277,4.277,0,0,1,3.893-4.206,1.478,1.478,0,0,0,1.419-.823v-.541a1.42,1.42,0,0,0-1.49-.8c-3.768.016-7.536.008-11.3.008h-.89v-.779c0-6.543.009-13.088-.015-19.63a.972.972,0,0,1,.7-1.036q5.954-2.663,11.882-5.382a6.767,6.767,0,0,0,1.115-.815V57.05a5.166,5.166,0,0,0-.978-.776Q1114,53.29,1107.453,50.37ZM1077.746,52.3a4.018,4.018,0,0,1-.028,8.036,3.97,3.97,0,0,1-4.034-4.015A4.054,4.054,0,0,1,1077.746,52.3Zm-8.817,21.092-3.054-2.118,3.054-2.512Zm-5.23-3.1a1.159,1.159,0,0,0,.172,1.98c.907.629,1.824,1.244,2.818,1.92l-1.318,1.76c-1.781-1.266-3.517-2.48-5.228-3.728a1.11,1.11,0,0,1-.154-1.62,3.108,3.108,0,0,1,.387-.376c2.806-2.412,5.62-4.816,8.414-7.243a2.454,2.454,0,0,1,1.718-.633q9.037.022,18.073.008c1.464,0,1.694-.227,1.7-1.675q0-3.758,0-7.515v-.828h2.255V64.663h-.778q-5.01,0-10.02,0c-1.28,0-1.615.329-1.617,1.6q-.007,3.52,0,7.041c0,1.23.288,1.508,1.52,1.51,1.738,0,3.475-.006,5.213,0a2.933,2.933,0,0,1,3.232,3.231c0,2.366,0,4.731,0,7.147h-2.191V82.63c0-1.264.01-2.528,0-3.791-.009-.883-.342-1.26-1.224-1.265q-6.126-.028-12.254,0c-.935,0-1.233.4-1.234,1.469q-.005,7.955,0,15.91v.929h-1.956v-.823q0-14.048,0-28.1a5.124,5.124,0,0,0-.02-.743,1.113,1.113,0,0,0-1.827-.758Q1066.512,67.848,1063.7,70.289Zm14.4,25.16c.089.129.181.254.269.384.01.014,0,.041,0,.113h-2.9V79.726h10.248V85.37c-.754,0-1.512,0-2.269,0a6.348,6.348,0,0,0-6.317,4.743A6.115,6.115,0,0,0,1078.1,95.449Zm12.671,21.761a3.051,3.051,0,0,1-.444.068q-15.767,0-31.533,0a4.237,4.237,0,0,1-4.377-3.708,4.164,4.164,0,0,1,3.648-4.627c.336-.029.676-.029,1.014-.029q15.462,0,30.924,0h.772A6.614,6.614,0,0,0,1090.767,117.21Zm12.147-10.634q-15.594,0-31.189,0c-2.92,0-4.783-1.969-4.538-4.744a4.136,4.136,0,0,1,3.571-3.609c.4-.04.81-.059,1.215-.059q15.424.015,30.85.039c.215,0,.431.02.764.037a6.433,6.433,0,0,0,.055,8.3C1103.328,106.554,1103.121,106.576,1102.914,106.576Zm12.035-19.071h.617c-2.046,3.773-2.05,4.82-.031,8.424-.271.018-.5.046-.729.046q-15.562,0-31.125,0c-2.559,0-4.352-1.46-4.612-3.723a4.263,4.263,0,0,1,3.809-4.722,6.726,6.726,0,0,1,.676-.025Z" transform="translate(0 0)" fill="#fb8c00"/>
      <path id="Trazado_106004" data-name="Trazado 106004" d="M1066.721,114.747H1064.7v2.05h2.021Z" transform="translate(-6.083 -31.387)" fill="#fb8c00"/>
      <path id="Trazado_106005" data-name="Trazado 106005" d="M1066.722,126.1H1064.7v2.055h2.026Z" transform="translate(-6.081 -36.902)" fill="#fb8c00"/>
      <path id="Trazado_106006" data-name="Trazado 106006" d="M1064.7,139.549h2V137.5h-2Z" transform="translate(-6.084 -42.444)" fill="#fb8c00"/>
      <path id="Trazado_106007" data-name="Trazado 106007" d="M1148.495,78.69h-2.01v2.055h2.01Z" transform="translate(-45.826 -13.866)" fill="#fb8c00"/>
      <path id="Trazado_106008" data-name="Trazado 106008" d="M1148.491,90.085h-1.97v2.039h1.97Z" transform="translate(-45.843 -19.403)" fill="#fb8c00"/>
      <path id="Trazado_106009" data-name="Trazado 106009" d="M1148.228,101.436c-.57-.042-1.144-.019-1.7-.019v2.045h2.031c0-.6.023-1.117-.016-1.63C1148.529,101.688,1148.346,101.445,1148.228,101.436Z" transform="translate(-45.845 -24.907)" fill="#fb8c00"/>
    </g>
  </g>
</svg>
