<svg xmlns="http://www.w3.org/2000/svg" width="83" height="80" viewBox="0 0 83 80">
  <g id="Grupo_71692" data-name="Grupo 71692" transform="translate(-759 -1714)">
    <rect id="Rectángulo_32115" data-name="Rectángulo 32115" width="83" height="80" transform="translate(759 1714)" fill="none"/>
    <g id="Grupo_71692-2" data-name="Grupo 71692" transform="translate(377.94 1675.676)">
      <path id="Trazado_105955" data-name="Trazado 105955" d="M472.346,71.824a3.729,3.729,0,0,0-3.582-3.744c-.592-.028-.591-.255-.591-.691q.014-9.6.006-19.2a5.508,5.508,0,0,0-5.837-5.866q-7.119,0-14.239,0a5.506,5.506,0,0,0-5.836,5.8c-.015,2.838-.006,5.677,0,8.516,0,.956.161,1.166,1.054,1.462.9-.31,1.035-.484,1.037-1.461,0-1.619,0-3.238.007-4.858,0-.217-.1-.461.094-.655h0c.2-.175.445-.083.667-.084,6.746,0,13.493.005,20.239-.014.561,0,.741.106.738.708-.026,5.56-.019,11.12-.009,16.68a1.318,1.318,0,0,1-.351,1,3.767,3.767,0,0,0-.907,2.287c-.2,1.942-.466,3.879-.614,5.824a.948.948,0,0,1-1.008,1.018c-.253.024-.506.045-.759.067-.7,0-1.393,0-2.088.014a.781.781,0,0,1-.6-.275,3.23,3.23,0,0,0-4.674-.016.942.942,0,0,1-.735.279c-.813-.011-1.626-.018-2.44,0a2.66,2.66,0,0,1-2.236-.608,2.822,2.822,0,0,0-1.428-.5c-.448-.107-.594-.311-.317-.731.165-.251.3-.525.45-.784a2.325,2.325,0,0,0,.307-1.061c.1-1.632-2.13-3.7-3.75-3.434-.5.081-.6-.013-.6-.512.024-2.881.016-5.763.01-8.644,0-1.1-.351-1.4-1.451-1.315h0a1.366,1.366,0,0,0-.647,1.361c.013,2.443.007,4.885,0,7.328,0,.215-.025.43-.047.776a2.471,2.471,0,0,0-1.722-1.174,12.574,12.574,0,0,0-1.6-.033,2.4,2.4,0,0,0-2.541,1.936c-.356,1.251-.356,1.251-1.508.624a2.4,2.4,0,0,0-3.164.433c-.2.195-.394.395-.592.593a2.442,2.442,0,0,0-.483,3.433c.578,1.027.578,1.027-.589,1.347a2.424,2.424,0,0,0-2.055,2.654c0,.233,0,.465,0,.7a2.473,2.473,0,0,0,2.171,2.842c1.05.294,1.05.294.515,1.239-.023.04-.042.083-.065.124a2.412,2.412,0,0,0,.44,3.328c.293.3.584.6.9.876a2.327,2.327,0,0,0,2.659.356c.457-.2.892-.773,1.34-.584s.351.9.531,1.373a2.433,2.433,0,0,0,2.488,1.63c1.415.037,2.8.047,3.411-1.6a8.559,8.559,0,0,0,.287-1c.1-.439.3-.613.727-.322.133.092.279.167.42.247a2.466,2.466,0,0,0,3.5-.455c.231-.229.466-.455.688-.693a2.367,2.367,0,0,0,.391-2.943c-.141-.266-.281-.536-.447-.787-.244-.369-.094-.55.273-.651l.6-.165a2.385,2.385,0,0,0,2.058-2.64c.006-.418.146-.5.519-.482.72.026,1.444.035,2.163,0,.466-.024.611.1.51.576a13.858,13.858,0,0,0-.35,2.13,5.533,5.533,0,0,1-1.99,3.858c-.582.536-1.172,1.062-1.756,1.6a10.721,10.721,0,0,0-2.838,12.088,9.134,9.134,0,0,1,.6,3.467c0,.355-.044.531-.479.542-.959.024-1.254.372-1.255,1.349,0,2.047.019,4.095-.012,6.141a1.439,1.439,0,0,0,.716,1.386h4.748c.175-.251.48-.394.585-.7.047-1.03-.288-1.386-1.319-1.39-.742,0-1.484-.011-2.226,0-.287.006-.411-.056-.4-.378.032-1.411.039-2.823.055-4.235.169-.192.392-.091.586-.091,5.571-.006,11.142,0,16.714-.015.54,0,.712.124.69.682-.046,1.159-.039,2.322,0,3.481.015.474-.142.592-.582.56-.554-.041-1.113-.024-1.669-.031-2.577.007-5.153.028-7.73.015a1.2,1.2,0,0,0-1.369.989,1.388,1.388,0,0,0,.721,1.113h12.01a1.319,1.319,0,0,0,.705-1.109c-.011-2.234,0-4.467-.008-6.7,0-.6-.34-1.064-.908-1.034-.848.045-.89-.376-.82-1,.028-.253,0-.512.005-.767.075-4.316-.625-4.091,2.806-8.632a14.694,14.694,0,0,0,3.069-8.732C472.41,81.178,472.373,76.5,472.346,71.824Zm-23.585,9.608a.357.357,0,0,1-.258.291,3.135,3.135,0,0,1-.4.12,2.532,2.532,0,0,0-1.759,4.249c.5.648-.027.928-.369,1.31s-.658.7-1.214.275a3.138,3.138,0,0,0-1.38-.637,2.429,2.429,0,0,0-2.565,1.4c-.1.233-.15.487-.236.727-.106.3-.048.785-.357.856a4.871,4.871,0,0,1-1.589.03c-.291-.031-.275-.4-.334-.633a2.917,2.917,0,0,0-1.156-1.99,2.525,2.525,0,0,0-2.39-.183c-.549.209-1.041,1.185-1.768.286-.262-.323-.837-.494-.706-1.012a7.1,7.1,0,0,1,.606-1.168,2.388,2.388,0,0,0-.949-3.089,3.32,3.32,0,0,0-1.18-.4c-.578-.086-.746-.366-.719-.94.064-1.361-.167-1,1.1-1.415.066-.022.138-.024.2-.044a2.39,2.39,0,0,0,1.471-3.508c-.032-.062-.072-.12-.106-.18-.564-1.013-.438-1.46.55-2.117.256-.171.427-.043.632.064,2.547,1.327,3.582.9,4.446-1.848.116-.37.287-.553.688-.5a2.145,2.145,0,0,0,.626,0c.564-.091.8.179.876.7a2.561,2.561,0,0,0,4.243,1.743c.215-.161.493-.451.8-.137a4.811,4.811,0,0,1,1.057,1.177c-.175.309-.334.591-.493.873A2.4,2.4,0,0,0,447.7,79.51C448.735,79.805,449.045,80.37,448.761,81.432Zm17.328-32.784c-.05.251-.174.295-.377.29l-1.6-.035c-.208.014-.415.04-.623.04-6.136,0-12.272-.006-18.407.014-.567,0-.755-.131-.746-.726.041-2.422,1.4-3.809,3.815-3.807q7.216.008,14.431.024h0A3.516,3.516,0,0,1,466.089,48.647Zm-4.982,32.059a11.137,11.137,0,0,0,2.432-.092c.269-.056.326.058.289.3-.209,1.352-.22,2.733-.538,4.069a4.738,4.738,0,0,1-2.617,3.25c0-2.374.006-4.733-.007-7.092C460.663,80.793,460.78,80.7,461.107,80.706Zm9.115,5.252a12.848,12.848,0,0,1-2.707,7.479,34.115,34.115,0,0,0-1.983,2.861,7.808,7.808,0,0,0-1.179,4.233c.027,1.278-.015,2.558.016,3.835.011.475-.15.611-.6.576-.531-.041-1.066-.032-1.6-.045-1.929.012-3.859.031-5.789.037-2,.007-4-.009-6,.01-.434,0-.632-.077-.6-.571a10.339,10.339,0,0,0-.768-4.339,8.425,8.425,0,0,1,1.954-9.267,23.488,23.488,0,0,1,1.721-1.633,8.53,8.53,0,0,0,3.205-6.19,20.107,20.107,0,0,1,.4-2.546,1.033,1.033,0,0,1,1.176-.934,1.087,1.087,0,0,1,1.091,1.125q.023,3.769-.01,7.538a2.443,2.443,0,0,1-.847,1.705c-.74.741-1.486,1.475-2.218,2.224a1.056,1.056,0,1,0,1.467,1.484q.455-.434.885-.891a8.552,8.552,0,0,1,3.236-2.262,6.861,6.861,0,0,0,4.448-6c.488-4.133.933-8.27,1.406-12.4a1.664,1.664,0,0,1,.687-1.308h0a1.534,1.534,0,0,1,1.8-.282,1.482,1.482,0,0,1,.843,1.487C470.259,76.569,470.313,81.265,470.222,85.959Z" transform="translate(-16.392 0)" fill="#fb8c00"/>
      <path id="Trazado_105956" data-name="Trazado 105956" d="M416.458,126.06c0-1.071-.255-1.35-1.323-1.432-.22-.017-.406.006-.417-.311a6.705,6.705,0,0,1,.387-3.145,10.727,10.727,0,0,0,.709-7.073c-.219-.953-.469-1.128-1.45-1.118h0a1.271,1.271,0,0,0-.6,1.589,8.407,8.407,0,0,1-.528,5.63,7.867,7.867,0,0,0-.6,3.8c.022.472-.093.679-.6.633-.528-.049-1.062-.035-1.593-.048-2.161.014-4.321.031-6.482.04-1.721.006-3.442-.032-5.161.018-.645.019-.777-.192-.75-.784.048-1.044-.036-2.095.024-3.137a8.552,8.552,0,0,0-1.7-5.546q-.742-1.054-1.5-2.1a13.732,13.732,0,0,1-2.715-8.325q0-6.451,0-12.9a1.64,1.64,0,0,1,.682-1.635h0a1.724,1.724,0,0,1,2.642,1.389c.267,2.118.478,4.242.72,6.362.255,2.235.484,4.474.789,6.7a7.341,7.341,0,0,0,2.344,4.243,7.983,7.983,0,0,0,3.27,1.62,1.116,1.116,0,0,1,.565.382c.751.76,1.5,1.524,2.259,2.276.584.578,1.184.62,1.647.138.436-.455.389-1.038-.15-1.6q-1.184-1.23-2.386-2.444a2.1,2.1,0,0,1-.672-1.485c-.009-2.462,0-4.923.01-7.385.016-.771.344-1.185.994-1.26.7-.081,1.135.257,1.275,1.059q.353,2.023.656,4.056a5.224,5.224,0,0,0,1.486,3c1,1,2.013,2,3,3.014a1.158,1.158,0,0,0,1.669.21c.456-.765.423-1.08-.208-1.715q-1.426-1.437-2.863-2.863a3.369,3.369,0,0,1-1.007-1.942c-.2-1.332-.424-2.661-.646-3.991a3.222,3.222,0,0,0-3.566-2.949,3.261,3.261,0,0,0-2.919,3.468c-.01,2.3,0,4.608-.008,6.911,0,.165.111.36-.1.532a5.157,5.157,0,0,1-2.657-4.019c-.488-4.25-.952-8.5-1.42-12.755a3.4,3.4,0,0,0-2.158-3,3.762,3.762,0,0,0-5.346,3.544q-.019,6.6,0,13.194a15.627,15.627,0,0,0,3.171,9.477c.568.765,1.145,1.526,1.666,2.323a5.605,5.605,0,0,1,1.054,3.052c.008,1.466,0,2.932.019,4.4.006.371-.115.459-.473.474-.961.041-1.26.38-1.262,1.349,0,2.047.018,4.1-.012,6.143a1.445,1.445,0,0,0,.713,1.389h20.808a1.463,1.463,0,0,0,.716-1.456C416.437,130.06,416.46,128.06,416.458,126.06Zm-2.081,4.812c.016.479-.15.587-.585.556-.554-.039-1.113-.023-1.669-.031q-7.691.012-15.381.028c-.282,0-.415-.048-.408-.374.031-1.413.038-2.826.053-4.239h0c.169-.192.392-.091.586-.092,5.572-.005,11.145.005,16.716-.015.543,0,.71.129.689.684C414.332,128.55,414.338,129.712,414.376,130.872Z" transform="translate(0 -19.688)" fill="#fb8c00"/>
      <path id="Trazado_105957" data-name="Trazado 105957" d="M408.6,63.944q7.224.016,14.448,0a3.347,3.347,0,0,0,3.585-3.51q.037-7.294,0-14.588a3.328,3.328,0,0,0-3.566-3.518q-7.224-.008-14.448,0A3.336,3.336,0,0,0,405.04,45.9c-.007,2.4,0,4.793,0,7.189,0,2.42,0,4.839,0,7.259A3.353,3.353,0,0,0,408.6,63.944Zm15.926-3.313a1.228,1.228,0,0,1-1.265,1.214c-.523.031-1.049.006-1.736.006l3.01-3.193C424.533,59.446,424.567,60.041,424.524,60.63ZM407.135,45.92c0-.95.432-1.489,1.271-1.491,4.375-.007,8.75.008,13.124.016.464-.008.927-.023,1.391-.023,1.2,0,1.619.422,1.624,1.641.006,1.74,0,3.481,0,5.222,0,1.253-.016,2.507.009,3.759a1.238,1.238,0,0,1-.4.981c-.788.783-1.553,1.59-2.327,2.388-1,1.07-2,2.134-2.992,3.213a.815.815,0,0,1-.693.226c-3.165,0-6.331,0-9.5,0-1.072,0-1.512-.46-1.513-1.546Q407.13,53.112,407.135,45.92Z" transform="translate(-6.478)" fill="#fb8c00"/>
      <path id="Trazado_105958" data-name="Trazado 105958" d="M465.695,77.265c-1.3-.015-2.606-.013-3.909,0a1.029,1.029,0,0,0-1.17,1.151q-.026,1.954,0,3.909c.009.758.352,1.15,1.09,1.167q2.023.048,4.048,0a1,1,0,0,0,1.065-1.12c.018-.675,0-1.349,0-2.024,0-.651.014-1.3,0-1.954A1.019,1.019,0,0,0,465.695,77.265Zm-2.067,4.149c-1.07,0-.9.117-.916-1.076,0-.984,0-.984,1.067-.983.948,0,.955,0,.946,1.169C464.718,81.567,464.853,81.411,463.628,81.414Z" transform="translate(-30.513 -15.108)" fill="#fb8c00"/>
      <path id="Trazado_105959" data-name="Trazado 105959" d="M460.616,67.042c.018.766.344,1.151,1.086,1.17q2.022.049,4.047,0a.991.991,0,0,0,1.07-1.109q.026-1.988,0-3.978A1.009,1.009,0,0,0,465.7,62q-1.989-.021-3.978,0a1.01,1.01,0,0,0-1.108,1.137c-.017.651,0,1.3,0,1.954S460.6,66.391,460.616,67.042Zm2.1-2.055c-.009-.9,0-.909,1.147-.9,1.007.01.85-.153.867,1.039-.019,1.16.16,1.013-1.042,1.013C462.536,66.141,462.728,66.284,462.715,64.987Z" transform="translate(-30.515 -8.504)" fill="#fb8c00"/>
      <path id="Trazado_105960" data-name="Trazado 105960" d="M476.319,79.356c1.07.007,2.141,0,3.211,0,1.094,0,2.187,0,3.281,0,.821,0,1.285-.385,1.289-1.04s-.452-1.05-1.271-1.052q-3.246-.007-6.492,0c-.815,0-1.3.392-1.306,1.032S475.517,79.351,476.319,79.356Z" transform="translate(-36.753 -15.111)" fill="#fb8c00"/>
      <path id="Trazado_105961" data-name="Trazado 105961" d="M476.24,67.733q3.349.02,6.7,0A1.035,1.035,0,0,0,484.1,66.7c.012-.661-.4-1.048-1.187-1.057-1.116-.014-2.233,0-3.35,0-1.093,0-2.186-.008-3.279,0-.769.007-1.234.4-1.249,1.014A1.084,1.084,0,0,0,476.24,67.733Z" transform="translate(-36.755 -10.084)" fill="#fb8c00"/>
      <path id="Trazado_105962" data-name="Trazado 105962" d="M479.942,84.578c-.627-.022-1.255,0-1.883-.005s-1.256-.014-1.883,0a1.043,1.043,0,1,0-.04,2.079c1.278.029,2.558.031,3.836,0a1,1,0,0,0,1.054-1.057A.987.987,0,0,0,479.942,84.578Z" transform="translate(-36.754 -18.271)" fill="#fb8c00"/>
      <path id="Trazado_105963" data-name="Trazado 105963" d="M444.365,101.311a4.94,4.94,0,1,0,4.946,4.968A4.923,4.923,0,0,0,444.365,101.311Zm-.274,7.726a2.8,2.8,0,0,1,0-5.58h0a2.808,2.808,0,1,1,0,5.58Z" transform="translate(-21.353 -25.514)" fill="#fb8c00"/>
      <path id="Trazado_105964" data-name="Trazado 105964" d="M415.571,54.324c1.416.007,2.832,0,4.247,0,1.439,0,2.878.006,4.317,0,.765-.005,1.229-.395,1.245-1.01.017-.645-.464-1.076-1.261-1.079q-4.282-.013-8.565,0c-.8,0-1.287.425-1.281,1.062S414.75,54.32,415.571,54.324Z" transform="translate(-10.473 -4.284)" fill="#fb8c00"/>
      <path id="Trazado_105965" data-name="Trazado 105965" d="M415.425,63.109q2.854.022,5.709,0a1.048,1.048,0,1,0-.012-2.085c-.928-.012-1.857,0-2.785,0-.951,0-1.9-.007-2.854,0-.749.006-1.218.418-1.214,1.043A1.067,1.067,0,0,0,415.425,63.109Z" transform="translate(-10.471 -8.085)" fill="#fb8c00"/>
    </g>
  </g>
</svg>
