<svg xmlns="http://www.w3.org/2000/svg" width="83" height="80" viewBox="0 0 83 80">
  <g id="Grupo_71694" data-name="Grupo 71694" transform="translate(-337 -2192)">
    <rect id="Rectángulo_32119" data-name="Rectángulo 32119" width="83" height="80" transform="translate(337 2192)" fill="none"/>
    <g id="Grupo_71694-2" data-name="Grupo 71694" transform="translate(-275.302 1948.751)">
      <path id="Trazado_105978" data-name="Trazado 105978" d="M781.879,335c0-4.188.021-8.377-.007-12.565a4.893,4.893,0,1,0-9.778.084q-.012,8.255,0,16.509v.82c-.158-.12-.228-.17-.295-.224a5.032,5.032,0,0,0-6.278-.361c-2.172,1.429-4.389,2.8-6.428,4.421a20.629,20.629,0,0,0-7.315,10.971c-1.1,4.081-1.792,8.259-2.7,12.387-.27,1.232-.1,1.662.94,2.293h.877a2.394,2.394,0,0,0,1.035-1.461.778.778,0,0,1,.185-.126c.741-3.449,1.474-6.9,2.171-10.357a18.45,18.45,0,0,1,5.971-10.622,65.1,65.1,0,0,1,7.248-5.042,1.629,1.629,0,0,1,1.2-.2,1.947,1.947,0,0,1,1.621,1.308,2.193,2.193,0,0,1-.437,2.318c-1.414,1.608-2.916,3.135-4.382,4.7-.833.886-1.673,1.767-2.481,2.676a1.628,1.628,0,0,0,.037,2.411,1.707,1.707,0,0,0,2.464-.252c2.1-2.195,4.146-4.45,6.269-6.627a11.309,11.309,0,0,0,3.427-8.333c-.062-5.575-.017-11.15-.017-16.726a3.835,3.835,0,0,1,.121-1.23,1.647,1.647,0,0,1,1.865-1.181,1.715,1.715,0,0,1,1.531,1.437,5.722,5.722,0,0,1,.032.948c0,7.036-.023,14.072.012,21.108a12.618,12.618,0,0,1-2.306,7.613c-3.462,4.886-6.945,9.758-10.392,14.654a2.753,2.753,0,0,0-.6,1.5.741.741,0,0,1,.157.434c.122.506.575.726.907,1.051h.877a3.122,3.122,0,0,0,.971-.844q5.415-7.652,10.845-15.294a14.324,14.324,0,0,0,2.655-8.555C781.867,341.432,781.879,338.217,781.879,335Z" transform="translate(-89.744 -48.939)" fill="#fb8c00"/>
      <path id="Trazado_105979" data-name="Trazado 105979" d="M648.019,356.92a21.614,21.614,0,0,0-7.114-12.567,59.81,59.81,0,0,0-7.847-5.426,4.415,4.415,0,0,0-3.174-.478,5.525,5.525,0,0,0-2.763,1.421v-.828q0-7.23,0-14.461c0-.876.047-1.758-.03-2.628a4.61,4.61,0,0,0-3.1-4.207,4.722,4.722,0,0,0-5.235,1.117,8.775,8.775,0,0,0-1.418,2.4v25.428a15.533,15.533,0,0,1,.564,2.21,15.314,15.314,0,0,0,2.208,4.477c.747,1.048,1.486,2.1,2.234,3.148a1.557,1.557,0,0,0,2.292.677c.033.025.062.052.093.078l.026-.013a1.57,1.57,0,0,0,.284-2.281c-.806-1.306-1.753-2.517-2.613-3.787a11.5,11.5,0,0,1-1.962-6.619q-.007-10.74,0-21.48a8.015,8.015,0,0,1,.02-.949,1.7,1.7,0,0,1,1.645-1.56,1.656,1.656,0,0,1,1.827,1.425,5.078,5.078,0,0,1,.052,1.02q0,8.621,0,17.243a10.1,10.1,0,0,0,2.48,6.708c1.8,2.112,3.8,4.041,5.661,6.1.538.6,1.122,1.15,1.672,1.736a1.643,1.643,0,0,0,2.527-2.1,2.611,2.611,0,0,0-.369-.452c-1.082-1.02-2.042-2.156-3.053-3.242-1.21-1.3-2.5-2.526-3.626-3.9a2.263,2.263,0,0,1-.009-2.948,2.049,2.049,0,0,1,2.778-.228c1.386.907,2.76,1.83,4.135,2.754a25.081,25.081,0,0,1,2.8,2.1,18.816,18.816,0,0,1,5.933,10.653c.688,3.436,1.421,6.864,2.159,10.291a.72.72,0,0,1,.186.13,2.394,2.394,0,0,0,1.035,1.461h.877c1.035-.631,1.2-1.059.942-2.292C649.423,363.674,648.7,360.3,648.019,356.92Z" transform="translate(-0.022 -48.941)" fill="#fb8c00"/>
      <path id="Trazado_105981" data-name="Trazado 105981" d="M622.494,419.7c.6.813,1.2.824,2.23.307-.031-.026-.061-.053-.093-.078a1.557,1.557,0,0,1-2.292-.677c-.748-1.047-1.486-2.1-2.234-3.148a15.314,15.314,0,0,1-2.208-4.477,15.535,15.535,0,0,0-.564-2.21,13.116,13.116,0,0,0,.84,3.578A30.667,30.667,0,0,0,622.494,419.7Z" transform="translate(-0.022 -111.666)" fill="#fb8c00"/>
      <path id="Trazado_105983" data-name="Trazado 105983" d="M710.991,475.69a.728.728,0,0,0-.186-.13l.016.076c.194.67.407,1.324,1.2,1.515A2.393,2.393,0,0,1,710.991,475.69Z" transform="translate(-63.732 -156.751)" fill="#fb8c00"/>
      <path id="Trazado_105985" data-name="Trazado 105985" d="M756.232,475.649l.017-.078a.773.773,0,0,0-.185.126,2.394,2.394,0,0,1-1.035,1.461C755.824,476.97,756.037,476.315,756.232,475.649Z" transform="translate(-93.875 -156.759)" fill="#fb8c00"/>
      <path id="Trazado_105986" data-name="Trazado 105986" d="M800.955,476.328a.74.74,0,0,0-.157-.434,1.921,1.921,0,0,0,.025.391,1.363,1.363,0,0,0,1.039,1.094C801.529,477.054,801.076,476.834,800.955,476.328Z" transform="translate(-125.07 -156.979)" fill="#fb8c00"/>
      <path id="Trazado_105987" data-name="Trazado 105987" d="M658.227,465.871a2.086,2.086,0,0,0-.508-1.472c-.493-.66-.948-1.35-1.426-2.022a3.584,3.584,0,0,0-.9-.945,1.269,1.269,0,0,0-1.718.139c0,.021.012.041.016.062a2.015,2.015,0,0,0,.3,2.578c.806.953,1.3,2.156,2.332,2.928a.17.17,0,0,1,.031.2h.877c.15-.536.691-.815.875-1.331A.785.785,0,0,1,658.227,465.871Z" transform="translate(-24.573 -146.938)" fill="#fb8c00"/>
      <path id="Trazado_105988" data-name="Trazado 105988" d="M655.776,468.012c-1.035-.773-1.527-1.976-2.332-2.928a2.014,2.014,0,0,1-.3-2.578c0-.022-.012-.041-.016-.062-.024.025-.05.046-.073.074a1.556,1.556,0,0,0-.069,2.23c.568.818,1.162,1.617,1.722,2.441a2.931,2.931,0,0,0,1.095,1.023A.17.17,0,0,0,655.776,468.012Z" transform="translate(-24.027 -147.811)" fill="#fb8c00"/>
      <path id="Trazado_105989" data-name="Trazado 105989" d="M666.434,476.365a1.756,1.756,0,0,0,.091-.416.78.78,0,0,0-.122.136c-.184.516-.726.795-.875,1.331C665.859,477.092,666.312,476.871,666.434,476.365Z" transform="translate(-32.87 -157.017)" fill="#fb8c00"/>
      <path id="Trazado_105990" data-name="Trazado 105990" d="M697.608,308.657c1.353,0,1.9-.556,1.908-1.9.006-1.583.028-3.166-.015-4.748-.014-.534.148-.633.643-.626,1.948.029,3.9.021,5.844.008a1.524,1.524,0,0,0,1.7-1.656c.027-.827.035-1.657,0-2.484a6.815,6.815,0,0,0-4.024-6.273,19.659,19.659,0,0,0-3.281-.952c-.207-.059-.519.045-.565-.326-.039-.309.2-.42.378-.57a6.2,6.2,0,0,0,2.3-4.013,22.82,22.82,0,0,0,.05-4.955,6.488,6.488,0,0,0-10.341-4.7c-.592.441-.566-.147-.694-.382a8.246,8.246,0,0,0-7.626-4.643,8.142,8.142,0,0,0-7.538,4.645c-.308.577-.459.582-.958.225a6.493,6.493,0,0,0-9.786,3.271,16.865,16.865,0,0,0-.277,6.514,5.776,5.776,0,0,0,1.9,3.681c.174.169.377.309.548.481.338.339.409.617-.183.746-.617.134-1.229.291-1.843.437a6.913,6.913,0,0,0-5.172,4.373,12.654,12.654,0,0,0-.447,4.765c.006,1.276.561,1.81,1.836,1.814,1.924,0,3.848.015,5.771-.009.436-.005.574.081.564.553-.037,1.655-.027,3.311-.011,4.967a1.536,1.536,0,0,0,1.684,1.749c2.776.025,5.552.021,8.328,0,1.042-.007,1.47-.4,1.705-1.431a1.323,1.323,0,0,0-1.014-1.575,2.9,2.9,0,0,0-.725-.073c-1.03-.026-1.029-.026-1.032-1.078,0-.511.017-1.023-.009-1.534a1.669,1.669,0,1,0-3.312.022c-.015.292,0,.584-.008.876-.031,1.9.318,1.7-1.869,1.713-.469,0-.654-.209-.649-.665.011-1-.045-2,.018-2.994a5.98,5.98,0,0,1,4.956-5.8c.832-.186,1.659-.39,2.487-.591.882-.215.911-.192,1.273.608.743,1.641,1.445,3.3,2.185,4.943a1.649,1.649,0,0,0,1.5,1.095,1.674,1.674,0,0,0,1.651-.986c.1-.193.186-.4.271-.6.639-1.527,1.357-3.02,1.988-4.55.181-.439.418-.7.934-.57a37.417,37.417,0,0,1,3.951,1.046,5.467,5.467,0,0,1,3.281,3.131,10.274,10.274,0,0,1,.526,4.241c-.021,1.875.27,1.672-1.735,1.7-.554.007-.809-.19-.786-.765s.019-1.169,0-1.753a1.68,1.68,0,1,0-3.316-.029c-.018.462-.005.925-.006,1.388,0,1.135,0,1.135-1.106,1.154a3.107,3.107,0,0,0-.8.073,1.323,1.323,0,0,0-1.014,1.575c.235,1.064.692,1.432,1.85,1.435Q693.554,308.669,697.608,308.657Zm-4.594-29.907a3.7,3.7,0,0,1,3.865-1.574,3.54,3.54,0,0,1,2.745,3.275,13.509,13.509,0,0,1-6.334-.935C692.864,279.321,692.736,279.185,693.014,278.751Zm.589,4.009a15.459,15.459,0,0,0,5.335.622c.592-.024.793.106.756.74a3.646,3.646,0,0,1-3.546,3.552,3.558,3.558,0,0,1-3.666-3.391c-.021-.242-.025-.486-.036-.728C692.464,282.391,692.462,282.4,693.6,282.76Zm-15.266-4.091a5.585,5.585,0,0,1,10.551-2.284,7.471,7.471,0,0,1,.373.869,6.521,6.521,0,0,1,.162.772c-.8-.469-1.526-.91-2.267-1.323a1.409,1.409,0,0,0-2.027.271c-1.739,1.957-3.976,2.363-6.43,2.217C678.269,279.165,678.33,278.944,678.338,278.668Zm-9.945.751a3.415,3.415,0,0,1,2.8-2.273,3.487,3.487,0,0,1,3.507,1.475c.324.431.371.675-.232.933a12.347,12.347,0,0,1-4.909.918h-.438C668,280.472,667.989,280.467,668.393,279.419Zm-.279,4.368c.027-.493.316-.393.585-.39a16.97,16.97,0,0,0,5.2-.553c.459-.14.915-.294,1.466-.472a13.373,13.373,0,0,1-.048,2.185,3.584,3.584,0,0,1-4.056,3.094A3.727,3.727,0,0,1,668.114,283.788Zm6.744,9.5a8.762,8.762,0,0,0-5.634,4.72.724.724,0,0,1-.777.473c-1.582-.024-3.165-.027-4.747,0-.482.008-.668-.086-.669-.626-.006-2.614,1.073-4.022,3.618-4.627.969-.231,1.941-.445,2.906-.693s1.252-.561,1.351-1.543c.03-.3.092-.445.421-.411a3.993,3.993,0,0,0,.8,0c.308-.031.432.058.438.388a1.556,1.556,0,0,0,1.427,1.578c.562.125,1.118.272,1.7.415A1.616,1.616,0,0,1,674.858,293.287Zm.962-3.3c-.417-.1-.42-.33-.21-.633a.784.784,0,0,1,.109-.1c.958-.926.954-.922,1.843.054a11.6,11.6,0,0,0,.826.817c.261.235.545.443.819.663C678.073,290.493,676.945,290.245,675.82,289.985Zm9.815,2.483a2.444,2.444,0,0,1-.127.856c-.518,1.149-1.021,2.3-1.606,3.631-.6-1.385-1.174-2.588-1.653-3.826-.325-.84-.083-1.064.809-.984a6.473,6.473,0,0,0,2.108-.069C685.513,291.992,685.665,292.091,685.635,292.468Zm1.551-4.287a5.579,5.579,0,0,1-8.821-3.984c-.069-.65-.266-1.484.04-1.923.332-.476,1.215-.151,1.854-.161a9.1,9.1,0,0,0,5.8-2.042.706.706,0,0,1,1.007-.045,10.614,10.614,0,0,0,1.637.951,1.217,1.217,0,0,1,.829,1.474,4.4,4.4,0,0,0,0,.607A5.594,5.594,0,0,1,687.186,288.181Zm1.471,2.649a11.149,11.149,0,0,0,2.2-2.231c.075-.107.191-.326.316-.165.351.45,1.011.629,1.152,1.237.067.29-.249.282-.455.337C690.8,290.29,689.708,290.465,688.657,290.83Zm3.6,2.254c-.042-.01-.074-.057-.151-.119.676-.168,1.287-.322,1.9-.471a1.451,1.451,0,0,0,1.236-1.421c.019-.427.156-.552.557-.485a2.167,2.167,0,0,0,.582,0c.338-.036.531.006.527.44a1.424,1.424,0,0,0,1.243,1.479c1.179.284,2.365.543,3.535.861,2.414.655,3.233,2.564,3.088,4.8-.018.28-.172.3-.383.3-1.751,0-3.5,0-5.252,0a.436.436,0,0,1-.461-.266A9.084,9.084,0,0,0,692.26,293.083Z" transform="translate(-29.176 -16.941)" fill="#fb8c00"/>
      <path id="Trazado_105991" data-name="Trazado 105991" d="M731.649,250.679a1.477,1.477,0,0,0,1.467-1.339,10.211,10.211,0,0,0,.008-1.162h0a12.027,12.027,0,0,0-.007-1.234,1.468,1.468,0,0,0-1.449-1.358,1.424,1.424,0,0,0-1.419,1.3,16.637,16.637,0,0,0,0,2.468A1.438,1.438,0,0,0,731.649,250.679Z" transform="translate(-76.954 0)" fill="#fb8c00"/>
      <path id="Trazado_105992" data-name="Trazado 105992" d="M707.509,258.552a1.429,1.429,0,0,0,2.232-1.129c.038-.92-2.08-3.067-2.962-3.046a1.506,1.506,0,0,0-1.277.784,1.3,1.3,0,0,0,.059,1.443A8.94,8.94,0,0,0,707.509,258.552Z" transform="translate(-59.988 -5.992)" fill="#fb8c00"/>
      <path id="Trazado_105993" data-name="Trazado 105993" d="M750.836,258.636a1.289,1.289,0,0,0,1.675.1,9.211,9.211,0,0,0,1.989-2,1.253,1.253,0,0,0,.009-1.441,1.4,1.4,0,0,0-1.3-.714,1.171,1.171,0,0,0-.462.089,6.838,6.838,0,0,0-2.354,2.412A1.239,1.239,0,0,0,750.836,258.636Z" transform="translate(-90.631 -6.127)" fill="#fb8c00"/>
      <path id="Trazado_105994" data-name="Trazado 105994" d="M731.629,381.35c-.777.017-1.209.456-1.443,1.464.266.962.742,1.417,1.479,1.417s1.2-.449,1.48-1.417C732.9,381.779,732.434,381.332,731.629,381.35Z" transform="translate(-76.942 -92.537)" fill="#fb8c00"/>
      <path id="Trazado_105995" data-name="Trazado 105995" d="M645.829,448.664a1.614,1.614,0,0,0-1.729-.148l.011.023c-.015.256-.2.432-.3.651a1.186,1.186,0,0,0,.089,1.3,1.206,1.206,0,0,0,1.271.5,1.168,1.168,0,0,1,.639-.059l.013.013C646.536,450.044,646.541,449.263,645.829,448.664Z" transform="translate(-17.967 -138.196)" fill="#fb8c00"/>
      <path id="Trazado_105996" data-name="Trazado 105996" d="M644.729,451.367a1.206,1.206,0,0,1-1.271-.5,1.186,1.186,0,0,1-.089-1.3c.1-.22.285-.4.3-.651l-.011-.023-.028.01a3.7,3.7,0,0,0-.437.567,1.389,1.389,0,0,0,.231,1.674,1.5,1.5,0,0,0,1.925.218c.013-.016.021-.03.033-.046l-.013-.013A1.169,1.169,0,0,0,644.729,451.367Z" transform="translate(-17.523 -138.579)" fill="#fb8c00"/>
      <path id="Trazado_105997" data-name="Trazado 105997" d="M710.454,328.123c-.889-.977-.885-.98-1.843-.054a.779.779,0,0,0-.109.1c-.21.3-.207.537.211.633,1.125.26,2.253.508,3.387.806-.274-.22-.559-.428-.819-.663C710.993,328.681,710.715,328.409,710.454,328.123Z" transform="translate(-62.069 -55.753)" fill="#fb8c00"/>
      <path id="Trazado_105998" data-name="Trazado 105998" d="M753.443,328.067c-.141-.608-.8-.786-1.152-1.237-.125-.161-.241.058-.316.165a11.149,11.149,0,0,1-2.2,2.231c1.051-.364,2.147-.54,3.215-.822C753.194,328.349,753.51,328.357,753.443,328.067Z" transform="translate(-90.292 -55.338)" fill="#fb8c00"/>
    </g>
  </g>
</svg>
