<svg xmlns="http://www.w3.org/2000/svg" width="83" height="80" viewBox="0 0 83 80">
  <g id="Grupo_71691" data-name="Grupo 71691" transform="translate(-337 -1714)">
    <g id="Grupo_71690" data-name="Grupo 71690" transform="translate(122.834 1673.819)">
      <path id="Trazado_105952" data-name="Trazado 105952" d="M223.166,96.122c.29-.622.825-.71,1.438-.709q7.061.014,14.122,0h.785V93.232c-.96,0-1.911,0-2.862,0-.426,0-.852,0-1.278-.018a.931.931,0,0,1-.031-1.861c1.02-.05,2.043-.03,3.065-.037.357,0,.714,0,1.105,0V89.131h-.623c-2.407,0-4.814.011-7.221-.01a.8.8,0,0,0-.83.5,2.943,2.943,0,0,1-3.365,1.466,3,3,0,0,1-.046-5.8,2.939,2.939,0,0,1,3.386,1.414.853.853,0,0,0,.885.52c2.385-.019,4.771-.008,7.157-.01.208,0,.415-.018.694-.031,0-.624-.018-1.215.005-1.8a8.9,8.9,0,0,1,.143-1.4.95.95,0,1,1,1.884.247q-.065,11.562-.111,23.125a3.149,3.149,0,0,0,2.233,3.274,4.624,4.624,0,0,0,1.259.166q10.9.014,21.79,0c.4,0,.8-.077,1.207-.1.672-.039,1.091.264,1.158.821a.957.957,0,0,1-.942,1.071c-.822.091-1.655.092-2.484.131l-.6.027c0,1.114-.057,2.2.029,3.268a2.1,2.1,0,0,0,.628,1.143c1.951,1.994,3.945,3.948,5.9,5.94.3.309.541.2.85.116a2.991,2.991,0,1,1,1.586,5.768,2.919,2.919,0,0,1-3.651-2.128,3.78,3.78,0,0,1,.035-1.626.8.8,0,0,0-.243-.878c-1.88-1.856-3.725-3.746-5.616-5.59a4.529,4.529,0,0,1-1.48-3.593c.032-.783.006-1.569.006-2.4H260.95c0,1.193,0,2.359,0,3.524,0,1.041-.3,1.518-.949,1.531s-.967-.469-.968-1.5c0-1.168,0-2.337,0-3.554h-2.186v.834q0,6.966,0,13.931a4.84,4.84,0,0,1-.045.763.861.861,0,0,1-.933.782.849.849,0,0,1-.887-.761,5.126,5.126,0,0,1-.05-.826q0-6.933,0-13.867v-.863h-2.186c0,.261,0,.525,0,.79,0,1.065.012,2.13-.009,3.195a.955.955,0,1,1-1.9.011c-.029-1.064-.011-2.13-.012-3.195,0-.252,0-.5,0-.8H248.64v1.489c0,2.109.009,4.218-.008,6.327a.8.8,0,0,0,.478.842,2.94,2.94,0,0,1,1.491,3.354,3,3,0,0,1-5.8.086,2.95,2.95,0,0,1,1.443-3.43.763.763,0,0,0,.484-.776c-.019-2.45-.009-4.9-.011-7.349,0-.167-.017-.334-.034-.636-.815,0-1.618.037-2.416-.007a5.068,5.068,0,0,1-4.723-5.291c0-.573,0-1.146,0-1.734-1.193,0-2.353-.05-3.5.03a1.914,1.914,0,0,0-1,.632q-2.936,2.893-5.824,5.834a.857.857,0,0,0-.2.692,3.025,3.025,0,0,1-1.9,3.812,2.994,2.994,0,0,1-3.822-1.961,2.512,2.512,0,0,0-.138-.275v-1.278a.97.97,0,0,0,.133-.195,3.014,3.014,0,0,1,3.88-1.969.859.859,0,0,0,.682-.223c1.808-1.776,3.634-3.535,5.374-5.377a5.03,5.03,0,0,1,4.257-1.741c.668.051,1.343.008,2.015.008v-2.183h-.727c-1.044,0-2.087.011-3.131,0-.76-.011-1.2-.374-1.2-.951s.433-.941,1.186-.959c.489-.012.979,0,1.469,0h2.408V97.338h-.787q-7.059,0-14.118,0c-.613,0-1.148-.087-1.437-.709Zm3,16.6a1.091,1.091,0,0,0-1.068,1.048,1.079,1.079,0,1,0,2.159.041A1.084,1.084,0,0,0,226.162,112.727Zm47.152,12.285a1.08,1.08,0,0,0-.017,2.16,1.08,1.08,0,1,0,.017-2.16ZM228.205,89.246a1.071,1.071,0,0,0,1.094-1.079,1.1,1.1,0,0,0-1.058-1.062,1.108,1.108,0,0,0-1.1,1.09A1.083,1.083,0,0,0,228.205,89.246Zm20.55,34.787a1.07,1.07,0,0,0-1.042-1.067,1.1,1.1,0,0,0-1.1,1.084,1.117,1.117,0,0,0,1.055,1.073A1.081,1.081,0,0,0,248.755,124.034Z" transform="translate(0 -16.476)" fill="#fb8c00"/>
      <path id="Trazado_105953" data-name="Trazado 105953" d="M266.544,47.181a1.363,1.363,0,0,1,.709,1.437q-.015,7.062-.005,14.123v.784h2.186c0-.96,0-1.911,0-2.862,0-.426,0-.852.018-1.277a.931.931,0,0,1,1.861-.032c.05,1.02.03,2.044.038,3.066,0,.356,0,.712,0,1.1h2.183V62.9c0-2.407-.01-4.814.01-7.221a.8.8,0,0,0-.5-.83,2.94,2.94,0,0,1-1.464-3.365,3,3,0,0,1,5.8-.047,2.936,2.936,0,0,1-1.413,3.386.853.853,0,0,0-.52.885c.018,2.386.008,4.771.01,7.157,0,.208.018.416.031.7,2.038-.052,4.05-.091,5.631,1.483s1.57,3.582,1.5,5.628c1.178,0,2.3.054,3.412-.03a2.007,2.007,0,0,0,1.07-.637c1.975-1.94,3.919-3.912,5.887-5.86a.654.654,0,0,0,.166-.782,2.954,2.954,0,0,1,1.335-3.471,3,3,0,0,1,4.087,4.129,2.939,2.939,0,0,1-3.484,1.291.685.685,0,0,0-.818.244c-1.863,1.872-3.75,3.721-5.6,5.61a4.533,4.533,0,0,1-3.588,1.491c-.784-.033-1.57-.006-2.408-.006v2.183c1.154,0,2.3,0,3.44,0a5.388,5.388,0,0,1,.826.053.855.855,0,0,1,.768.944.838.838,0,0,1-.834.885c-1,.035-2,.027-3,.034-.4,0-.8,0-1.218,0v2.186h.775q7,0,13.994,0c.3,0,.664-.061.873.085.293.205.648.58.645.879s-.365.666-.661.867c-.213.144-.577.082-.874.082q-6.933.006-13.867,0h-.872v2.186h3.266c.277,0,.555-.009.83.015a.958.958,0,0,1,.958.92.932.932,0,0,1-.923.952c-1,.045-2,.025-3,.031-.36,0-.72,0-1.128,0v2.148c.2.013.391.034.578.034,2.428,0,4.857-.006,7.285.01a.751.751,0,0,0,.785-.468,2.948,2.948,0,0,1,3.349-1.506,3,3,0,0,1,.11,5.8,2.943,2.943,0,0,1-3.435-1.429.809.809,0,0,0-.834-.5c-2.6.02-5.193.01-7.885.01,0,.565.017,1.089,0,1.611a12.727,12.727,0,0,1-.136,1.588.964.964,0,0,1-1.073.871.974.974,0,0,1-.815-1.11q.059-11.594.1-23.189a3.156,3.156,0,0,0-3.385-3.352q-11.023-.018-22.046,0c-.36,0-.718.081-1.079.1a.952.952,0,1,1-.228-1.884c.864-.1,1.74-.1,2.61-.139l.456-.021c0-1.172.05-2.332-.03-3.483a1.911,1.911,0,0,0-.632-1q-2.892-2.937-5.832-5.826a.858.858,0,0,0-.694-.2,3,3,0,1,1-1.787-5.729,1.244,1.244,0,0,0,.211-.124h1.15a.843.843,0,0,0,.163.1,3,3,0,0,1,2.129,3.941.862.862,0,0,0,.237.676q2.822,2.866,5.684,5.694a4.406,4.406,0,0,1,1.416,3.423c-.026.824,0,1.65,0,2.506h2.183c0-.3,0-.548,0-.8,0-1.065-.017-2.129.012-3.193a.955.955,0,1,1,1.9,0c.022.936.008,1.873.009,2.81q0,.591,0,1.182h2.186v-.792q0-7.056-.006-14.112a1.364,1.364,0,0,1,.71-1.436Zm-17.65,4.085a1.082,1.082,0,0,0,1.042-1.133,1.094,1.094,0,0,0-1.091-1.027,1.14,1.14,0,0,0-1.062,1.075A1.116,1.116,0,0,0,248.893,51.266ZM297.081,62.5a1.08,1.08,0,1,0-2.159-.04,1.08,1.08,0,0,0,2.159.04Zm-22.623-9.191a1.1,1.1,0,0,0,1.106-1.08,1.121,1.121,0,0,0-1.053-1.077,1.079,1.079,0,0,0-.054,2.157Zm20.574,34.778a1.078,1.078,0,0,0-2.156.017,1.09,1.09,0,0,0,1.115,1.066A1.107,1.107,0,0,0,295.033,88.091Z" transform="translate(-10.401)" fill="#fb8c00"/>
      <path id="Trazado_105954" data-name="Trazado 105954" d="M274.965,107.766a4.844,4.844,0,0,1-3.137,1.492,4.286,4.286,0,0,1-4.709-3.617.894.894,0,0,0-.32-.574,4.775,4.775,0,0,1-1.213-6.532.6.6,0,0,0-.008-.545,4.371,4.371,0,0,1,2.292-6.654c.137-.052.27-.112.435-.179a3.378,3.378,0,0,1,1.979-3.831,3.939,3.939,0,0,1,4.48.57,15.059,15.059,0,0,1,2.682-.933,3.559,3.559,0,0,1,4.165,3.851c-.069.4.206.432.463.54a4.464,4.464,0,0,1,3.027,3.91,3.858,3.858,0,0,1-.941,2.894c-.26.307-.318.5-.034.854a4.17,4.17,0,0,1-.692,6.05,1.923,1.923,0,0,0-.762,1.156,4.347,4.347,0,0,1-4.484,3.056A4.809,4.809,0,0,1,274.965,107.766Zm7.4-4.32a2.331,2.331,0,0,0-.416-3.848c-.964-.671-.979-1.325-.016-1.975a2.383,2.383,0,0,0,1.229-2.406,2.58,2.58,0,0,0-1.892-2.116,3.949,3.949,0,0,0-2.565.077.932.932,0,0,1-1.186-.587.942.942,0,0,1,.581-1.2,5.251,5.251,0,0,1,.85-.268c.845-.2,1.073-.852.494-1.561a1.956,1.956,0,0,0-2.121-.684,1.657,1.657,0,0,0-1.4,1.456c-.068.562-.314.987-.952.994-.677.008-.921-.444-.988-1.027a1.576,1.576,0,0,0-.953-1.264,2.167,2.167,0,0,0-2.432.349c-.528.515-.539,1.066-.04,2.021a.947.947,0,0,1-.722,1.473,6.965,6.965,0,0,0-1.764.488,2.291,2.291,0,0,0-.858,3.527c.583-.206,1.15-.444,1.739-.6a.785.785,0,0,1,1.047.487,1.6,1.6,0,0,1-.157,1.048c-.1.2-.451.293-.708.375a3.627,3.627,0,0,0-1.973,1.436,2.642,2.642,0,0,0,.531,3.553,4.647,4.647,0,0,1,.449-.52c.17-.148.4-.373.57-.348a1.751,1.751,0,0,1,.977.406.825.825,0,0,1-.1,1.157,1.921,1.921,0,0,0-.484,1.946,2.5,2.5,0,0,0,2.619,1.52,2.227,2.227,0,0,0,2.247-2.027,20.624,20.624,0,0,0-.011-2.233,1.956,1.956,0,0,0-1.14-1.654c-.186-.1-.389-.175-.572-.282a.937.937,0,0,1-.442-1.247.916.916,0,0,1,1.182-.487c.316.1.618.241,1.01.4v-.7c0-1.448-.01-2.9.007-4.345.008-.717.37-1.137.928-1.152.581-.016.953.422.981,1.167.011.287,0,.575,0,.947a4.226,4.226,0,0,1,.631-.26,14.269,14.269,0,0,1,1.929-.348.8.8,0,0,1,.864.839.862.862,0,0,1-.718.981,4.934,4.934,0,0,1-.5.087,2.238,2.238,0,0,0-2.2,2.47q-.011,2.684,0,5.368a2.312,2.312,0,0,0,2.387,2.5,2.234,2.234,0,0,0,2.527-2.53,2.344,2.344,0,0,0-1.547-1.568.95.95,0,0,1-.575-1.3,1,1,0,0,1,1.36-.432A4.559,4.559,0,0,1,282.368,103.445Z" transform="translate(-19.067 -18.187)" fill="#fb8c00"/>
    </g>
    <rect id="Rectángulo_32114" data-name="Rectángulo 32114" width="83" height="80" transform="translate(337 1714)" fill="none"/>
  </g>
</svg>
