<svg xmlns="http://www.w3.org/2000/svg" xmlns:xlink="http://www.w3.org/1999/xlink" width="505" height="316" viewBox="0 0 505 316">
  <defs>
    <linearGradient id="linear-gradient" x1="0.56" y1="-0.029" x2="0.467" y2="0.786" gradientUnits="objectBoundingBox">
      <stop offset="0" stop-color="#fff"/>
      <stop offset="1" stop-color="#edfdfc"/>
    </linearGradient>
    <linearGradient id="linear-gradient-2" x1="0.531" y1="-0.099" x2="0.463" y2="1.188" gradientUnits="objectBoundingBox">
      <stop offset="0" stop-color="#1565c0"/>
      <stop offset="0.998" stop-color="#1545c0"/>
    </linearGradient>
    <linearGradient id="linear-gradient-3" y1="0.5" x2="1" y2="0.5" gradientUnits="objectBoundingBox">
      <stop offset="0" stop-color="#84eeeb"/>
      <stop offset="1" stop-color="#3ae4df"/>
    </linearGradient>
    <filter id="Rectángulo_32182" x="36.425" y="233.543" width="148.802" height="45.073" filterUnits="userSpaceOnUse">
      <feOffset dx="-0.5" dy="0.5" input="SourceAlpha"/>
      <feGaussianBlur stdDeviation="0.4" result="blur"/>
      <feFlood flood-opacity="0.302"/>
      <feComposite operator="in" in2="blur"/>
      <feComposite in="SourceGraphic"/>
    </filter>
    <linearGradient id="linear-gradient-4" x1="0" y1="0.5" x2="1" y2="0.5" xlink:href="#linear-gradient"/>
    <filter id="Elipse_4647" x="29.125" y="85.989" width="33.648" height="33.648" filterUnits="userSpaceOnUse">
      <feOffset dy="3" input="SourceAlpha"/>
      <feGaussianBlur stdDeviation="3" result="blur-2"/>
      <feFlood flood-opacity="0.161"/>
      <feComposite operator="in" in2="blur-2"/>
      <feComposite in="SourceGraphic"/>
    </filter>
    <filter id="Trazado_106898" x="55.527" y="89.542" width="139.576" height="26.541" filterUnits="userSpaceOnUse">
      <feOffset dy="3" input="SourceAlpha"/>
      <feGaussianBlur stdDeviation="3" result="blur-3"/>
      <feFlood flood-opacity="0.161"/>
      <feComposite operator="in" in2="blur-3"/>
      <feComposite in="SourceGraphic"/>
    </filter>
    <filter id="Elipse_4648" x="29.125" y="121.133" width="33.648" height="33.648" filterUnits="userSpaceOnUse">
      <feOffset dy="3" input="SourceAlpha"/>
      <feGaussianBlur stdDeviation="3" result="blur-4"/>
      <feFlood flood-opacity="0.161"/>
      <feComposite operator="in" in2="blur-4"/>
      <feComposite in="SourceGraphic"/>
    </filter>
    <filter id="Trazado_106899" x="55.527" y="124.686" width="139.576" height="26.541" filterUnits="userSpaceOnUse">
      <feOffset dy="3" input="SourceAlpha"/>
      <feGaussianBlur stdDeviation="3" result="blur-5"/>
      <feFlood flood-opacity="0.161"/>
      <feComposite operator="in" in2="blur-5"/>
      <feComposite in="SourceGraphic"/>
    </filter>
    <filter id="Elipse_4649" x="29.125" y="156.276" width="33.648" height="33.648" filterUnits="userSpaceOnUse">
      <feOffset dy="3" input="SourceAlpha"/>
      <feGaussianBlur stdDeviation="3" result="blur-6"/>
      <feFlood flood-opacity="0.161"/>
      <feComposite operator="in" in2="blur-6"/>
      <feComposite in="SourceGraphic"/>
    </filter>
    <linearGradient id="linear-gradient-9" x1="0" y1="0.5" x2="1" y2="0.5" xlink:href="#linear-gradient"/>
    <filter id="Trazado_106900" x="55.527" y="159.83" width="139.576" height="26.541" filterUnits="userSpaceOnUse">
      <feOffset dy="3" input="SourceAlpha"/>
      <feGaussianBlur stdDeviation="3" result="blur-7"/>
      <feFlood flood-opacity="0.161"/>
      <feComposite operator="in" in2="blur-7"/>
      <feComposite in="SourceGraphic"/>
    </filter>
    <filter id="Elipse_4650" x="29.125" y="191.42" width="33.648" height="33.648" filterUnits="userSpaceOnUse">
      <feOffset dy="3" input="SourceAlpha"/>
      <feGaussianBlur stdDeviation="3" result="blur-8"/>
      <feFlood flood-opacity="0.161"/>
      <feComposite operator="in" in2="blur-8"/>
      <feComposite in="SourceGraphic"/>
    </filter>
    <filter id="Trazado_106901" x="55.527" y="194.974" width="139.576" height="26.541" filterUnits="userSpaceOnUse">
      <feOffset dy="3" input="SourceAlpha"/>
      <feGaussianBlur stdDeviation="3" result="blur-9"/>
      <feFlood flood-opacity="0.161"/>
      <feComposite operator="in" in2="blur-9"/>
      <feComposite in="SourceGraphic"/>
    </filter>
    <linearGradient id="linear-gradient-12" x1="0.532" y1="-0.158" x2="0.462" y2="1.29" xlink:href="#linear-gradient-3"/>
    <filter id="Trazado_106906" x="300.41" y="144.026" width="100.975" height="100.973" filterUnits="userSpaceOnUse">
      <feOffset dy="3" input="SourceAlpha"/>
      <feGaussianBlur stdDeviation="3" result="blur-10"/>
      <feFlood flood-opacity="0.161"/>
      <feComposite operator="in" in2="blur-10"/>
      <feComposite in="SourceGraphic"/>
    </filter>
  </defs>
  <g id="Grupo_72206" data-name="Grupo 72206" transform="translate(-915 -1237)">
    <rect id="Rectángulo_32187" data-name="Rectángulo 32187" width="494" height="245" transform="translate(915 1237)" fill="#1565c0" opacity="0.208"/>
    <g id="Grupo_72205" data-name="Grupo 72205">
      <rect id="Rectángulo_31976" data-name="Rectángulo 31976" width="505" height="316" transform="translate(915 1237)" fill="none"/>
      <g id="Grupo_72204" data-name="Grupo 72204" transform="translate(360.747 991.304)">
        <g id="Grupo_72198" data-name="Grupo 72198" transform="translate(572.283 255.414)">
          <rect id="Rectángulo_32179" data-name="Rectángulo 32179" width="460.439" height="296.565" rx="5" fill="url(#linear-gradient)"/>
          <path id="Trazado_106896" data-name="Trazado 106896" d="M572.283,285.942V518.8a7.334,7.334,0,0,0,7.333,7.333h445.772a7.334,7.334,0,0,0,7.333-7.333V285.942Z" transform="translate(-572.282 -229.563)" fill="url(#linear-gradient-2)"/>
          <rect id="Rectángulo_32180" data-name="Rectángulo 32180" width="16.281" height="420.247" rx="4.408" transform="translate(440.343 27.868) rotate(90)" fill="#cfdcff"/>
          <circle id="Elipse_4645" data-name="Elipse 4645" cx="3.701" cy="3.701" r="3.701" transform="translate(19.339 10.745)" fill="#ffc3d0"/>
          <path id="Trazado_106897" data-name="Trazado 106897" d="M598.156,264.933a3.7,3.7,0,1,1-3.7-3.7A3.7,3.7,0,0,1,598.156,264.933Z" transform="translate(-556.642 -250.487)" fill="#f5d79b"/>
          <circle id="Elipse_4646" data-name="Elipse 4646" cx="3.701" cy="3.701" r="3.701" transform="translate(48.886 10.745)" fill="#6aebe7"/>
          <g transform="matrix(1, 0, 0, 1, -18.03, -9.72)" filter="url(#Rectángulo_32182)">
            <rect id="Rectángulo_32182-2" data-name="Rectángulo 32182" width="146.402" height="42.673" rx="3" transform="translate(38.13 234.24)" fill="url(#linear-gradient-3)"/>
          </g>
          <g id="Grupo_72208" data-name="Grupo 72208" transform="translate(20.096 82.271)">
            <g transform="matrix(1, 0, 0, 1, -38.13, -91.99)" filter="url(#Elipse_4647)">
              <circle id="Elipse_4647-2" data-name="Elipse 4647" cx="7.824" cy="7.824" r="7.824" transform="translate(38.13 91.99)" fill="url(#linear-gradient-4)"/>
            </g>
            <g transform="matrix(1, 0, 0, 1, -38.13, -91.99)" filter="url(#Trazado_106898)">
              <path id="Trazado_106898-2" data-name="Trazado 106898" d="M714.766,310.427H601.731a4.27,4.27,0,0,1-4.27-4.272h0a4.269,4.269,0,0,1,4.27-4.27H714.766a4.27,4.27,0,0,1,4.272,4.27h0A4.27,4.27,0,0,1,714.766,310.427Z" transform="translate(-532.93 -206.34)" fill="url(#linear-gradient-4)"/>
            </g>
            <g transform="matrix(1, 0, 0, 1, -38.13, -91.99)" filter="url(#Elipse_4648)">
              <circle id="Elipse_4648-2" data-name="Elipse 4648" cx="7.824" cy="7.824" r="7.824" transform="translate(38.13 127.13)" fill="url(#linear-gradient-4)"/>
            </g>
            <g transform="matrix(1, 0, 0, 1, -38.13, -91.99)" filter="url(#Trazado_106899)">
              <path id="Trazado_106899-2" data-name="Trazado 106899" d="M714.766,329.457H601.731a4.27,4.27,0,0,1-4.27-4.272h0a4.27,4.27,0,0,1,4.27-4.27H714.766a4.27,4.27,0,0,1,4.272,4.27h0A4.27,4.27,0,0,1,714.766,329.457Z" transform="translate(-532.93 -190.23)" fill="url(#linear-gradient-4)"/>
            </g>
            <g transform="matrix(1, 0, 0, 1, -38.13, -91.99)" filter="url(#Elipse_4649)">
              <circle id="Elipse_4649-2" data-name="Elipse 4649" cx="7.824" cy="7.824" r="7.824" transform="translate(38.13 162.28)" fill="url(#linear-gradient-4)"/>
            </g>
            <g transform="matrix(1, 0, 0, 1, -38.13, -91.99)" filter="url(#Trazado_106900)">
              <path id="Trazado_106900-2" data-name="Trazado 106900" d="M714.766,348.487H601.731a4.271,4.271,0,0,1-4.27-4.272h0a4.269,4.269,0,0,1,4.27-4.27H714.766a4.27,4.27,0,0,1,4.272,4.27h0A4.271,4.271,0,0,1,714.766,348.487Z" transform="translate(-532.93 -174.12)" fill="url(#linear-gradient-9)"/>
            </g>
            <g transform="matrix(1, 0, 0, 1, -38.13, -91.99)" filter="url(#Elipse_4650)">
              <circle id="Elipse_4650-2" data-name="Elipse 4650" cx="7.824" cy="7.824" r="7.824" transform="translate(38.13 197.42)" fill="url(#linear-gradient-4)"/>
            </g>
            <g transform="matrix(1, 0, 0, 1, -38.13, -91.99)" filter="url(#Trazado_106901)">
              <path id="Trazado_106901-2" data-name="Trazado 106901" d="M714.766,367.517H601.731a4.271,4.271,0,0,1-4.27-4.272h0a4.269,4.269,0,0,1,4.27-4.27H714.766a4.27,4.27,0,0,1,4.272,4.27h0A4.271,4.271,0,0,1,714.766,367.517Z" transform="translate(-532.93 -158)" fill="url(#linear-gradient-9)"/>
            </g>
          </g>
        </g>
        <g id="Grupo_72203" data-name="Grupo 72203" transform="translate(788.74 312.279)">
          <g id="Grupo_72200" data-name="Grupo 72200">
            <g id="Grupo_72207" data-name="Grupo 72207">
              <rect id="Rectángulo_32183" data-name="Rectángulo 32183" width="143.257" height="201.11" rx="3" transform="translate(36.276 20.984)" fill="#1d133b" opacity="0.3" style="mix-blend-mode: multiply;isolation: isolate"/>
            </g>
          </g>
          <rect id="Rectángulo_32184" data-name="Rectángulo 32184" width="143.257" height="201.11" rx="3" transform="translate(44.782 9.709)" fill="#fff"/>
          <rect id="Rectángulo_32185" data-name="Rectángulo 32185" width="154.176" height="125.656" transform="translate(179.239 47.843) rotate(90)" fill="url(#linear-gradient-12)"/>
          <path id="Trazado_106903" data-name="Trazado 106903" d="M726.539,292.606a3.7,3.7,0,1,1-3.7-3.7A3.7,3.7,0,0,1,726.539,292.606Z" transform="translate(-665.389 -262.919)" fill="#ffc3d0"/>
          <path id="Trazado_106904" data-name="Trazado 106904" d="M734.539,292.606a3.7,3.7,0,1,1-3.7-3.7A3.7,3.7,0,0,1,734.539,292.606Z" transform="translate(-658.615 -262.919)" fill="#f5d79b"/>
          <path id="Trazado_106905" data-name="Trazado 106905" d="M742.539,292.606a3.7,3.7,0,1,1-3.7-3.7A3.7,3.7,0,0,1,742.539,292.606Z" transform="translate(-651.841 -262.919)" fill="#6aebe7"/>
          <g id="Grupo_72202" data-name="Grupo 72202" transform="translate(69.377 78.979)">
            <g id="Grupo_72201" data-name="Grupo 72201" transform="translate(5.546 4.465)">
              <g transform="matrix(1, 0, 0, 1, -309.41, -150.03)" filter="url(#Trazado_106906)">
                <path id="Trazado_106906-2" data-name="Trazado 106906" d="M813.578,369.343V353.666l-8.25-.521a34.114,34.114,0,0,0-3.826-9.23l5.466-6.2-11.084-11.086-6.205,5.466a34.093,34.093,0,0,0-9.228-3.825l-.523-8.249H764.251l-.521,8.249a34.094,34.094,0,0,0-9.228,3.825l-6.205-5.466-11.084,11.086,5.466,6.2a34.05,34.05,0,0,0-3.826,9.23l-8.25.521v15.677l8.25.523a34.038,34.038,0,0,0,3.826,9.228l-5.466,6.2L748.3,396.383l6.205-5.466a34.009,34.009,0,0,0,9.228,3.825l.521,8.249h15.677l.523-8.249a34.033,34.033,0,0,0,9.228-3.825l6.205,5.466L806.969,385.3l-5.466-6.2a34.1,34.1,0,0,0,3.826-9.228Zm-41.488,7.673A15.511,15.511,0,1,1,787.6,361.506,15.511,15.511,0,0,1,772.091,377.016Z" transform="translate(-421.19 -169.99)" fill="#fff"/>
              </g>
            </g>
          </g>
        </g>
      </g>
    </g>
  </g>
</svg>
