<svg xmlns="http://www.w3.org/2000/svg" width="306" height="364" viewBox="0 0 306 364">
  <g id="Grupo_73113" data-name="Grupo 73113" transform="translate(-274 -7259)">
    <rect id="Rectángulo_31425" data-name="Rectángulo 31425" width="306" height="364" transform="translate(274 7259)" fill="none"/>
    <g id="Grupo_73112" data-name="Grupo 73112" transform="translate(262.757 7248.582)">
      <path id="Trazado_107856" data-name="Trazado 107856" d="M37.308,340.494c4.553-2.629,11.91-2.629,16.433,0s4.5,6.89-.053,9.519-11.91,2.628-16.434,0S32.755,343.122,37.308,340.494Z" transform="translate(-5.965 -97.476)" fill="#e0e0e0" opacity="0.475"/>
      <path id="Trazado_107857" data-name="Trazado 107857" d="M367.032,396.088c-15.847-9.15-41.459-9.15-57.2,0s-15.663,23.985.186,33.135,41.46,9.15,57.206,0S382.881,405.238,367.032,396.088Z" transform="translate(-90.209 -73.676)" fill="#e0e0e0" opacity="0.52"/>
      <path id="Trazado_107859" data-name="Trazado 107859" d="M250.989,245.365l-10.65-6.139a10.768,10.768,0,0,0-10.764.005l-59.084,34.241-5.213-3-42.77,25.023,4.937,2.844-69.939,40.38a3.589,3.589,0,0,0,0,6.217l10.763,6.214a10.768,10.768,0,0,0,10.774,0l69.9-40.424,8.169,4.705a21.535,21.535,0,0,0,21.515-.011l25.126-14.507a4.786,4.786,0,0,0,0-8.292l-11.778-6.781,9.919-5.756,3.439-2,45.667-26.5A3.589,3.589,0,0,0,250.989,245.365Z" transform="translate(-21.39 -56.571)" fill="#e0e0e0" opacity="0.311"/>
      <g id="Grupo_73039" data-name="Grupo 73039" transform="translate(202.421 17.673)">
        <g id="Grupo_73038" data-name="Grupo 73038" transform="translate(46 24)">
          <g id="Grupo_73027" data-name="Grupo 73027">
            <g id="Grupo_73025" data-name="Grupo 73025">
              <g id="Grupo_73024" data-name="Grupo 73024">
                <g id="Grupo_73023" data-name="Grupo 73023" style="isolation: isolate">
                  <g id="Grupo_73018" data-name="Grupo 73018" transform="translate(2.4 4.13)">
                    <path id="Trazado_107874" data-name="Trazado 107874" d="M288.108,24.814l2.079-1.208-.122,74.162-2.079,1.208Z" transform="translate(-287.986 -23.606)" fill="#f0f0f0"/>
                  </g>
                  <g id="Grupo_73019" data-name="Grupo 73019" transform="translate(2.4 78.293)">
                    <path id="Trazado_107875" data-name="Trazado 107875" d="M287.986,131.34l2.079-1.208L314,143.873l-2.08,1.209Z" transform="translate(-287.986 -130.132)" fill="#f5f5f5"/>
                  </g>
                  <g id="Grupo_73020" data-name="Grupo 73020" transform="translate(0 1.208)">
                    <path id="Trazado_107876" data-name="Trazado 107876" d="M284.676,19.409l28.724,16.5-.137,79.661-28.724-16.5Zm26.2,92.034L311,37.281,287.06,23.54,286.938,97.7l23.939,13.741" transform="translate(-284.538 -19.409)" fill="#e0e0e0"/>
                  </g>
                  <g id="Grupo_73021" data-name="Grupo 73021" transform="translate(0.138)">
                    <path id="Trazado_107877" data-name="Trazado 107877" d="M284.736,18.882l2.079-1.208,28.724,16.5-2.079,1.208Z" transform="translate(-284.736 -17.673)" fill="#f5f5f5"/>
                  </g>
                  <g id="Grupo_73022" data-name="Grupo 73022" transform="translate(28.724 16.504)">
                    <path id="Trazado_107878" data-name="Trazado 107878" d="M325.934,42.588l2.079-1.208-.137,79.66-2.079,1.208Z" transform="translate(-325.797 -41.379)" fill="#f0f0f0"/>
                  </g>
                </g>
              </g>
            </g>
            <g id="Grupo_73026" data-name="Grupo 73026" transform="translate(2.4 27.228)">
              <path id="Trazado_107879" data-name="Trazado 107879" d="M287.992,57.992l2.08-1.209,21.977,12.641v2.4Z" transform="translate(-287.988 -56.784)" fill="#f5f5f5"/>
              <path id="Trazado_107880" data-name="Trazado 107880" d="M287.99,58.519h0l24.056,13.837V75.1L287.986,61.278Z" transform="translate(-287.986 -57.311)" fill="#e0e0e0"/>
              <rect id="Rectángulo_32266" data-name="Rectángulo 32266" height="27.752" transform="translate(0.004 1.209) rotate(-60.093)" fill="#e0e0e0"/>
            </g>
          </g>
          <g id="Grupo_73037" data-name="Grupo 73037" transform="translate(26.339 15.136)">
            <g id="Grupo_73035" data-name="Grupo 73035">
              <g id="Grupo_73034" data-name="Grupo 73034">
                <g id="Grupo_73033" data-name="Grupo 73033" style="isolation: isolate">
                  <g id="Grupo_73028" data-name="Grupo 73028" transform="translate(2.4 4.13)">
                    <path id="Trazado_107881" data-name="Trazado 107881" d="M325.941,46.556l2.079-1.209-.122,74.162-2.08,1.208Z" transform="translate(-325.819 -45.347)" fill="#f0f0f0"/>
                  </g>
                  <g id="Grupo_73029" data-name="Grupo 73029" transform="translate(2.4 78.293)">
                    <path id="Trazado_107882" data-name="Trazado 107882" d="M325.819,153.081l2.08-1.208,23.939,13.741-2.079,1.208Z" transform="translate(-325.819 -151.873)" fill="#f5f5f5"/>
                  </g>
                  <g id="Grupo_73030" data-name="Grupo 73030" transform="translate(0 1.208)">
                    <path id="Trazado_107883" data-name="Trazado 107883" d="M322.509,41.15l28.724,16.5-.137,79.661-28.724-16.5Zm26.2,92.034.122-74.162L324.893,45.281l-.122,74.162,23.939,13.741" transform="translate(-322.371 -41.15)" fill="#e0e0e0"/>
                  </g>
                  <g id="Grupo_73031" data-name="Grupo 73031" transform="translate(0.138)">
                    <path id="Trazado_107884" data-name="Trazado 107884" d="M322.569,40.623l2.079-1.209,28.724,16.5-2.079,1.208Z" transform="translate(-322.569 -39.414)" fill="#f5f5f5"/>
                  </g>
                  <g id="Grupo_73032" data-name="Grupo 73032" transform="translate(28.724 16.504)">
                    <path id="Trazado_107885" data-name="Trazado 107885" d="M363.767,64.329l2.079-1.208-.137,79.66-2.079,1.208Z" transform="translate(-363.63 -63.12)" fill="#f0f0f0"/>
                  </g>
                </g>
              </g>
            </g>
            <g id="Grupo_73036" data-name="Grupo 73036" transform="translate(2.4 27.228)">
              <path id="Trazado_107886" data-name="Trazado 107886" d="M325.825,79.733l2.079-1.208,21.977,12.641v2.4Z" transform="translate(-325.821 -78.525)" fill="#f5f5f5"/>
              <path id="Trazado_107887" data-name="Trazado 107887" d="M325.823,80.26h0L349.88,94.1v2.746L325.819,83.019Z" transform="translate(-325.819 -79.052)" fill="#e0e0e0"/>
              <rect id="Rectángulo_32267" data-name="Rectángulo 32267" height="27.752" transform="translate(0.005 1.209) rotate(-60.093)" fill="#e0e0e0"/>
            </g>
          </g>
        </g>
      </g>
      <g id="Grupo_73047" data-name="Grupo 73047" transform="translate(14.243 180.856)">
        <g id="Grupo_73043" data-name="Grupo 73043" transform="translate(14.177 40.652)">
          <path id="Trazado_107888" data-name="Trazado 107888" d="M34.7,319.629l11.023.321,11.023-.321c.475,7.444-.979,15.03-2.982,18.735h-.008a5.017,5.017,0,0,1-2.182,2.22,12.938,12.938,0,0,1-11.74,0,4.887,4.887,0,0,1-2.181-2.278C35.661,334.58,34.224,327.036,34.7,319.629Z" transform="translate(-34.606 -313.244)" fill="#fff"/>
          <g id="Grupo_73040" data-name="Grupo 73040" transform="translate(0.09)">
            <path id="Trazado_107889" data-name="Trazado 107889" d="M37.99,312.328c-4.319,2.493-4.341,6.536-.051,9.03s11.27,2.493,15.588,0,4.341-6.536.051-9.03S42.308,309.834,37.99,312.328Z" transform="translate(-34.736 -310.458)" fill="#ebebeb"/>
          </g>
          <g id="Grupo_73041" data-name="Grupo 73041" transform="translate(2.514 1.403)">
            <path id="Trazado_107890" data-name="Trazado 107890" d="M40.755,313.932c-3.37,1.946-3.387,5.1-.04,7.045a13.4,13.4,0,0,0,12.162,0c3.369-1.945,3.387-5.1.04-7.045A13.4,13.4,0,0,0,40.755,313.932Z" transform="translate(-38.216 -312.474)" fill="#e0e0e0"/>
          </g>
          <g id="Grupo_73042" data-name="Grupo 73042" transform="translate(2.514 1.403)" opacity="0.15">
            <path id="Trazado_107891" data-name="Trazado 107891" d="M40.755,313.932c-3.37,1.946-3.387,5.1-.04,7.045a13.4,13.4,0,0,0,12.162,0c3.369-1.945,3.387-5.1.04-7.045A13.4,13.4,0,0,0,40.755,313.932Z" transform="translate(-38.216 -312.474)"/>
          </g>
        </g>
        <g id="Grupo_73044" data-name="Grupo 73044" transform="translate(7.167)">
          <path id="Trazado_107892" data-name="Trazado 107892" d="M24.537,252.066C49.378,260.2,49.6,276.818,44,288.652c-1.413,2.4-5.687,3.681-9.407-11.036l6.525.836-7.6-3.853-1.974-5.9,6.34.471-8.047-3.385A119.017,119.017,0,0,0,24.537,252.066Z" transform="translate(-24.537 -252.066)" fill="#1565c0"/>
          <path id="Trazado_107893" data-name="Trazado 107893" d="M24.537,252.066C49.378,260.2,49.6,276.818,44,288.652c-1.413,2.4-5.687,3.681-9.407-11.036l6.525.836-7.6-3.853-1.974-5.9,6.34.471-8.047-3.385A119.017,119.017,0,0,0,24.537,252.066Z" transform="translate(-24.537 -252.066)" opacity="0.2"/>
          <path id="Trazado_107894" data-name="Trazado 107894" d="M24.537,252.066C49.378,260.2,49.6,276.818,44,288.652c-1.413,2.4-5.687,3.681-9.407-11.036l6.525.836-7.6-3.853-1.974-5.9,6.34.471-8.047-3.385A119.017,119.017,0,0,0,24.537,252.066Z" transform="translate(-24.537 -252.066)" fill="#fff" opacity="0.2"/>
          <path id="Trazado_107895" data-name="Trazado 107895" d="M34.629,258.035c13.1,9.942,14.282,21.341,10.581,33.241C46.519,280.8,47.934,270.2,34.629,258.035Z" transform="translate(-27.603 -253.879)" fill="#fff"/>
        </g>
        <g id="Grupo_73045" data-name="Grupo 73045" transform="translate(23.95 16.881)">
          <path id="Trazado_107896" data-name="Trazado 107896" d="M73.935,276.314c-24.486,3.448-27.456,18.887-24.207,30.839.917,2.466,4.684,4.374,10.594-8.715l-6.215-.3,7.721-2.326,2.82-5.17-5.983-.615,8.057-1.815A112.5,112.5,0,0,1,73.935,276.314Z" transform="translate(-48.645 -276.314)" fill="#1565c0"/>
          <path id="Trazado_107897" data-name="Trazado 107897" d="M73.935,276.314c-24.486,3.448-27.456,18.887-24.207,30.839.917,2.466,4.684,4.374,10.594-8.715l-6.215-.3,7.721-2.326,2.82-5.17-5.983-.615,8.057-1.815A112.5,112.5,0,0,1,73.935,276.314Z" transform="translate(-48.645 -276.314)" fill="#fff" opacity="0.2"/>
          <path id="Trazado_107898" data-name="Trazado 107898" d="M73.935,276.314c-24.486,3.448-27.456,18.887-24.207,30.839.917,2.466,4.684,4.374,10.594-8.715l-6.215-.3,7.721-2.326,2.82-5.17-5.983-.615,8.057-1.815A112.5,112.5,0,0,1,73.935,276.314Z" transform="translate(-48.645 -276.314)" opacity="0.1"/>
          <path id="Trazado_107899" data-name="Trazado 107899" d="M67.723,280.2c-13.852,7.083-16.847,17.5-15.378,29.2C52.867,299.419,53.309,289.318,67.723,280.2Z" transform="translate(-49.666 -277.493)" fill="#fff"/>
        </g>
        <g id="Grupo_73046" data-name="Grupo 73046" transform="translate(0 22.667)">
          <path id="Trazado_107900" data-name="Trazado 107900" d="M14.243,284.624c22.455.367,26.861,13.95,25.27,25.087-.551,2.325-3.732,4.466-10.524-6.669l5.567-.97-7.22-1.232-3.121-4.344,5.324-1.224-7.465-.734A102.3,102.3,0,0,0,14.243,284.624Z" transform="translate(-14.243 -284.624)" fill="#1565c0"/>
          <path id="Trazado_107901" data-name="Trazado 107901" d="M24.043,286.961c13.277,4.834,17.143,13.889,17.128,24.6C39.584,302.625,38.055,293.569,24.043,286.961Z" transform="translate(-17.22 -285.334)" fill="#fff"/>
          <path id="Trazado_107902" data-name="Trazado 107902" d="M14.243,284.624c22.455.367,26.861,13.95,25.27,25.087-.551,2.325-3.732,4.466-10.524-6.669l5.567-.97-7.22-1.232-3.121-4.344,5.324-1.224-7.465-.734A102.3,102.3,0,0,0,14.243,284.624Z" transform="translate(-14.243 -284.624)" fill="#fff" opacity="0.2"/>
        </g>
      </g>
      <g id="Grupo_73055" data-name="Grupo 73055" transform="translate(283.646 160.719)">
        <g id="Grupo_73051" data-name="Grupo 73051" transform="translate(0 33.224)">
          <path id="Trazado_107903" data-name="Trazado 107903" d="M427.283,294.354l11.56.337,11.56-.337c.5,7.806-1.026,15.763-3.127,19.648h-.008a5.263,5.263,0,0,1-2.288,2.328,13.565,13.565,0,0,1-12.311,0,5.124,5.124,0,0,1-2.287-2.389C428.294,310.034,426.787,302.122,427.283,294.354Z" transform="translate(-427.188 -287.659)" fill="#fff"/>
          <g id="Grupo_73048" data-name="Grupo 73048" transform="translate(0.095)">
            <path id="Trazado_107904" data-name="Trazado 107904" d="M430.737,286.7c-4.529,2.615-4.553,6.855-.054,9.47s11.819,2.615,16.348,0,4.552-6.854.053-9.47S435.265,284.083,430.737,286.7Z" transform="translate(-427.324 -284.737)" fill="#ebebeb"/>
          </g>
          <g id="Grupo_73049" data-name="Grupo 73049" transform="translate(2.636 1.472)">
            <path id="Trazado_107905" data-name="Trazado 107905" d="M433.636,288.38c-3.533,2.041-3.552,5.347-.042,7.388a14.056,14.056,0,0,0,12.754,0c3.533-2.04,3.552-5.347.042-7.388A14.056,14.056,0,0,0,433.636,288.38Z" transform="translate(-430.974 -286.85)" fill="#e0e0e0"/>
          </g>
          <g id="Grupo_73050" data-name="Grupo 73050" transform="translate(2.636 1.472)" opacity="0.15">
            <path id="Trazado_107906" data-name="Trazado 107906" d="M433.636,288.38c-3.533,2.041-3.552,5.347-.042,7.388a14.056,14.056,0,0,0,12.754,0c3.533-2.04,3.552-5.347.042-7.388A14.056,14.056,0,0,0,433.636,288.38Z" transform="translate(-430.974 -286.85)"/>
          </g>
        </g>
        <g id="Grupo_73054" data-name="Grupo 73054" transform="translate(2.636)">
          <path id="Trazado_107907" data-name="Trazado 107907" d="M445.889,253.277c1.88-2.337,4.064-4.431,5.787-6.885,1.176-1.675,2.159-3.725,1.665-5.711a5.108,5.108,0,0,0-4.047-3.562,7.764,7.764,0,0,0-5.432,1.211,16.735,16.735,0,0,0-4.105,3.908,40.8,40.8,0,0,0-8.59,29.129,6.1,6.1,0,0,0,1.073,3.348,3.353,3.353,0,0,0,3.455,1.056c3.149-.935,2.731-5.189,3.246-7.692a35.128,35.128,0,0,1,3.617-9.82A34.387,34.387,0,0,1,445.889,253.277Z" transform="translate(-430.974 -237.015)" fill="#1565c0"/>
          <path id="Trazado_107908" data-name="Trazado 107908" d="M445.889,253.277c1.88-2.337,4.064-4.431,5.787-6.885,1.176-1.675,2.159-3.725,1.665-5.711a5.108,5.108,0,0,0-4.047-3.562,7.764,7.764,0,0,0-5.432,1.211,16.735,16.735,0,0,0-4.105,3.908,40.8,40.8,0,0,0-8.59,29.129,6.1,6.1,0,0,0,1.073,3.348,3.353,3.353,0,0,0,3.455,1.056c3.149-.935,2.731-5.189,3.246-7.692a35.128,35.128,0,0,1,3.617-9.82A34.387,34.387,0,0,1,445.889,253.277Z" transform="translate(-430.974 -237.015)" fill="#fff" opacity="0.2"/>
          <g id="Grupo_73052" data-name="Grupo 73052" transform="translate(4.194 2.742)">
            <path id="Trazado_107909" data-name="Trazado 107909" d="M437.328,273.8a.277.277,0,0,0,.222-.258c.22-5.055,1.864-22.309,13.754-32.1a.275.275,0,1,0-.35-.425c-12.066,9.935-13.732,27.388-13.955,32.5a.277.277,0,0,0,.264.288A.341.341,0,0,0,437.328,273.8Z" transform="translate(-436.999 -240.953)" fill="#f0f0f0"/>
          </g>
          <g id="Grupo_73053" data-name="Grupo 73053" transform="translate(2.397 16.385)">
            <path id="Trazado_107910" data-name="Trazado 107910" d="M434.806,280.3a8.446,8.446,0,0,0,3.861,5.354,10.859,10.859,0,0,0,5.842.977,25.563,25.563,0,0,0,5.931-1.406c.953-.321,2.013-.754,2.114-1.935a2.108,2.108,0,0,0-.674-1.663,6.881,6.881,0,0,0-.615-.53.609.609,0,0,1,.325-1.094,14.2,14.2,0,0,0,1.69-.209,7.455,7.455,0,0,0,3.549-1.605,5.9,5.9,0,0,0,1.639-2.428,2.282,2.282,0,0,0-.234-2.384,2.588,2.588,0,0,0-1.314-.571c-.423-.092-.847-.169-1.271-.235a.564.564,0,0,1-.131-1.078l1.793-.747a3.377,3.377,0,0,0,1.361-.845,2.969,2.969,0,0,0,.345-2.47c-.219-1.123-.606-2.206-.871-3.319a7.114,7.114,0,0,1-.118-3.4,28.537,28.537,0,0,0-10.045.671,7.214,7.214,0,0,0-2.742,1.2,4.024,4.024,0,0,0-1.291,3.693.26.26,0,0,1-.489.137l-1.146-2.114a1.36,1.36,0,0,0-1.782-.569,8.247,8.247,0,0,0-2.62,2.061,4.544,4.544,0,0,0-1.121,3.354,29.311,29.311,0,0,0,.835,4.924.456.456,0,0,1-.714.482l-.054-.039a1.545,1.545,0,0,0-1.081-.315c-1.013.126-1.272,1.152-1.339,2.026A16.932,16.932,0,0,0,434.806,280.3Z" transform="translate(-434.417 -260.549)" fill="#1565c0"/>
            <path id="Trazado_107911" data-name="Trazado 107911" d="M434.806,280.3a8.446,8.446,0,0,0,3.861,5.354,10.859,10.859,0,0,0,5.842.977,25.563,25.563,0,0,0,5.931-1.406c.953-.321,2.013-.754,2.114-1.935a2.108,2.108,0,0,0-.674-1.663,6.881,6.881,0,0,0-.615-.53.609.609,0,0,1,.325-1.094,14.2,14.2,0,0,0,1.69-.209,7.455,7.455,0,0,0,3.549-1.605,5.9,5.9,0,0,0,1.639-2.428,2.282,2.282,0,0,0-.234-2.384,2.588,2.588,0,0,0-1.314-.571c-.423-.092-.847-.169-1.271-.235a.564.564,0,0,1-.131-1.078l1.793-.747a3.377,3.377,0,0,0,1.361-.845,2.969,2.969,0,0,0,.345-2.47c-.219-1.123-.606-2.206-.871-3.319a7.114,7.114,0,0,1-.118-3.4,28.537,28.537,0,0,0-10.045.671,7.214,7.214,0,0,0-2.742,1.2,4.024,4.024,0,0,0-1.291,3.693.26.26,0,0,1-.489.137l-1.146-2.114a1.36,1.36,0,0,0-1.782-.569,8.247,8.247,0,0,0-2.62,2.061,4.544,4.544,0,0,0-1.121,3.354,29.311,29.311,0,0,0,.835,4.924.456.456,0,0,1-.714.482l-.054-.039a1.545,1.545,0,0,0-1.081-.315c-1.013.126-1.272,1.152-1.339,2.026A16.932,16.932,0,0,0,434.806,280.3Z" transform="translate(-434.417 -260.549)" opacity="0.2"/>
            <path id="Trazado_107912" data-name="Trazado 107912" d="M434.806,280.3a8.446,8.446,0,0,0,3.861,5.354,10.859,10.859,0,0,0,5.842.977,25.563,25.563,0,0,0,5.931-1.406c.953-.321,2.013-.754,2.114-1.935a2.108,2.108,0,0,0-.674-1.663,6.881,6.881,0,0,0-.615-.53.609.609,0,0,1,.325-1.094,14.2,14.2,0,0,0,1.69-.209,7.455,7.455,0,0,0,3.549-1.605,5.9,5.9,0,0,0,1.639-2.428,2.282,2.282,0,0,0-.234-2.384,2.588,2.588,0,0,0-1.314-.571c-.423-.092-.847-.169-1.271-.235a.564.564,0,0,1-.131-1.078l1.793-.747a3.377,3.377,0,0,0,1.361-.845,2.969,2.969,0,0,0,.345-2.47c-.219-1.123-.606-2.206-.871-3.319a7.114,7.114,0,0,1-.118-3.4,28.537,28.537,0,0,0-10.045.671,7.214,7.214,0,0,0-2.742,1.2,4.024,4.024,0,0,0-1.291,3.693.26.26,0,0,1-.489.137l-1.146-2.114a1.36,1.36,0,0,0-1.782-.569,8.247,8.247,0,0,0-2.62,2.061,4.544,4.544,0,0,0-1.121,3.354,29.311,29.311,0,0,0,.835,4.924.456.456,0,0,1-.714.482l-.054-.039a1.545,1.545,0,0,0-1.081-.315c-1.013.126-1.272,1.152-1.339,2.026A16.932,16.932,0,0,0,434.806,280.3Z" transform="translate(-434.417 -260.549)" fill="#fff" opacity="0.2"/>
            <path id="Trazado_107913" data-name="Trazado 107913" d="M442.626,286.056a40.658,40.658,0,0,1,2.7-7.83.269.269,0,0,1,.095-.206c.063-.136.124-.271.189-.409a25.33,25.33,0,0,0-2.676-8.965.275.275,0,1,1,.477-.275,25.7,25.7,0,0,1,2.639,8.334,36.7,36.7,0,0,1,11.567-13.871.276.276,0,0,1,.315.453,36.453,36.453,0,0,0-11.7,14.3,16.871,16.871,0,0,1,9.576-1.3.275.275,0,0,1,0,.54.279.279,0,0,1-.1,0,16.364,16.364,0,0,0-9.856,1.575,40.2,40.2,0,0,0-2.681,7.757.276.276,0,0,1-.217.217.271.271,0,0,1-.106,0A.276.276,0,0,1,442.626,286.056Z" transform="translate(-436.909 -261.229)" fill="#f0f0f0"/>
          </g>
        </g>
      </g>
      <g id="Grupo_73102" data-name="Grupo 73102" transform="translate(44.182 23.418)">
        <g id="Grupo_73061" data-name="Grupo 73061" transform="translate(0 0)">
          <g id="Grupo_73060" data-name="Grupo 73060">
            <g id="Grupo_73058" data-name="Grupo 73058" transform="translate(69.344 177.961)">
              <g id="Grupo_73056" data-name="Grupo 73056">
                <path id="Trazado_107914" data-name="Trazado 107914" d="M216.335,306.4,195.85,318.124a19.42,19.42,0,0,1-19.342-.031l-15.2-8.76a5.827,5.827,0,0,1-2.917-5.04l-.014-10.369-3.171,1.832v9.013a6.8,6.8,0,0,0,3.4,5.89l18.048,10.4a19.121,19.121,0,0,0,19.044.03l20.634-11.807A7.723,7.723,0,0,0,220.1,301.1,7.652,7.652,0,0,1,216.335,306.4Z" transform="translate(-155.206 -271.963)" fill="#1565c0"/>
                <path id="Trazado_107915" data-name="Trazado 107915" d="M216.335,306.4,195.85,318.124a19.42,19.42,0,0,1-19.342-.031l-15.2-8.76a5.827,5.827,0,0,1-2.917-5.04l-.014-10.369-3.171,1.832v9.013a6.8,6.8,0,0,0,3.4,5.89l18.048,10.4a19.121,19.121,0,0,0,19.044.03l20.634-11.807A7.723,7.723,0,0,0,220.1,301.1,7.652,7.652,0,0,1,216.335,306.4Z" transform="translate(-155.206 -271.963)" opacity="0.1"/>
                <path id="Trazado_107916" data-name="Trazado 107916" d="M162.171,303.354l15.2,8.76a19.42,19.42,0,0,0,19.342.031L217.2,300.424a5.595,5.595,0,0,0,.138-10.523L200.53,279.82a6.8,6.8,0,0,1-3.3-5.829v-8.007L159.24,287.945l.014,10.369A5.827,5.827,0,0,0,162.171,303.354Z" transform="translate(-156.069 -265.984)" fill="#1565c0"/>
              </g>
              <g id="Grupo_73057" data-name="Grupo 73057">
                <path id="Trazado_107917" data-name="Trazado 107917" d="M161.308,309.333a5.827,5.827,0,0,1-2.917-5.04l-.014-10.369-3.171,1.832v9.013a6.8,6.8,0,0,0,3.4,5.89l6.4,3.69v-2.881Z" transform="translate(-155.206 -271.963)" opacity="0.4"/>
                <path id="Trazado_107918" data-name="Trazado 107918" d="M162.171,303.354l3.7,2.135h0l39.66-22.667-5.005-3a6.8,6.8,0,0,1-3.3-5.829v-8.007L159.24,287.945l.014,10.369A5.827,5.827,0,0,0,162.171,303.354Z" transform="translate(-156.069 -265.984)" opacity="0.3"/>
              </g>
            </g>
            <g id="Grupo_73059" data-name="Grupo 73059">
              <path id="Trazado_107919" data-name="Trazado 107919" d="M77.533,346.36v0c-.015-.007-.03-.013-.044-.02Z" transform="translate(-69.231 -105.218)" fill="#ffa8a7"/>
              <path id="Trazado_107920" data-name="Trazado 107920" d="M73.482,276.929,73.19,147.007a12.775,12.775,0,0,1,5.8-10.039l161.5-93a4.122,4.122,0,0,1,4.1-.424L238.5,40.019v0c-1.063-.674-2.562-.619-4.224.341l-161.5,93a12.774,12.774,0,0,0-5.8,10.04l.292,129.922a4.165,4.165,0,0,0,1.547,3.624h0l.006,0a2.791,2.791,0,0,0,.325.188l6,3.492A4.087,4.087,0,0,1,73.482,276.929Z" transform="translate(-66.983 -39.573)" fill="#1565c0"/>
              <path id="Trazado_107921" data-name="Trazado 107921" d="M238.867,40.019v0c-1.063-.674-2.562-.619-4.224.341l-161.5,93a12.181,12.181,0,0,0-4.441,4.949l6.213,3.592a12.158,12.158,0,0,1,4.435-4.94l161.5-93a4.122,4.122,0,0,1,4.1-.424Z" transform="translate(-67.352 -39.573)" fill="#fff" opacity="0.3"/>
              <path id="Trazado_107922" data-name="Trazado 107922" d="M66.983,170.289l.292,129.922a4.165,4.165,0,0,0,1.547,3.624h0l.006,0a2.791,2.791,0,0,0,.325.188l6,3.492a4.087,4.087,0,0,1-1.668-3.708L73.19,173.89a11.411,11.411,0,0,1,1.361-5.1L68.338,165.2A11.414,11.414,0,0,0,66.983,170.289Z" transform="translate(-66.983 -66.456)" opacity="0.2"/>
              <path id="Trazado_107923" data-name="Trazado 107923" d="M293.01,44.669l-.03-.017.028.019Z" transform="translate(-115.345 -40.66)" fill="#ffa8a7"/>
              <path id="Trazado_107924" data-name="Trazado 107924" d="M248.005,48.27a4.083,4.083,0,0,0-1.669-3.707l-.027-.019-.039-.022a4.122,4.122,0,0,0-4.1.424l-161.5,93a12.775,12.775,0,0,0-5.8,10.039l.292,129.922a4.087,4.087,0,0,0,1.668,3.708c.031.019.06.037.091.053.014.008.029.013.044.02a4.161,4.161,0,0,0,4.031-.457l161.5-93a12.786,12.786,0,0,0,5.8-10.04Zm-8.373,134.992L80.9,274.667l-.283-126.7a7.222,7.222,0,0,1,2.926-5.052L242.276,51.512l.283,126.7A7.222,7.222,0,0,1,239.632,183.262Z" transform="translate(-68.673 -40.552)" fill="#1565c0"/>
              <path id="Trazado_107925" data-name="Trazado 107925" d="M243.913,53.516l-4.108,2.37.274,122.322a7.219,7.219,0,0,1-2.927,5.053L82.529,272.3l.009,4.374,158.73-91.4a7.222,7.222,0,0,0,2.927-5.053Z" transform="translate(-70.31 -42.557)" fill="#1565c0"/>
              <path id="Trazado_107926" data-name="Trazado 107926" d="M243.913,53.516l-4.108,2.37.274,122.322a7.219,7.219,0,0,1-2.927,5.053L82.529,272.3l.009,4.374,158.73-91.4a7.222,7.222,0,0,0,2.927-5.053Z" transform="translate(-70.31 -42.557)" opacity="0.3"/>
              <path id="Trazado_107927" data-name="Trazado 107927" d="M240,178.853,239.73,56.531,85.107,145.567a7.222,7.222,0,0,0-2.926,5.052l.274,122.323,154.622-89.036A7.219,7.219,0,0,0,240,178.853Z" transform="translate(-70.235 -43.202)" fill="#263238"/>
            </g>
          </g>
        </g>
        <g id="Grupo_73101" data-name="Grupo 73101" transform="translate(24.826 19.579)">
          <g id="Grupo_73063" data-name="Grupo 73063">
            <g id="Grupo_73062" data-name="Grupo 73062" transform="translate(0)">
              <path id="Trazado_107928" data-name="Trazado 107928" d="M104.711,288.826l-.276-122.8a12.078,12.078,0,0,1,5.478-9.489l152.642-87.9a3.9,3.9,0,0,1,3.873-.4L260.68,64.9v0c-1.006-.638-2.422-.585-3.993.322l-152.642,87.9a12.074,12.074,0,0,0-5.478,9.489l.276,122.8a3.936,3.936,0,0,0,1.462,3.425h0l.006,0a2.589,2.589,0,0,0,.307.177l5.669,3.3A3.863,3.863,0,0,1,104.711,288.826Z" transform="translate(-98.568 -64.482)" fill="#455a64"/>
              <path id="Trazado_107929" data-name="Trazado 107929" d="M261.029,64.9v0c-1.006-.638-2.422-.585-3.993.322L104.4,153.133a11.508,11.508,0,0,0-4.2,4.678l5.872,3.395a11.5,11.5,0,0,1,4.192-4.669L262.9,68.634a3.9,3.9,0,0,1,3.873-.4Z" transform="translate(-98.917 -64.482)" fill="#fff" opacity="0.2"/>
            </g>
            <path id="Trazado_107930" data-name="Trazado 107930" d="M98.568,188.032l.276,122.8a3.936,3.936,0,0,0,1.462,3.425h0l.006,0a2.591,2.591,0,0,0,.307.177l5.669,3.3a3.863,3.863,0,0,1-1.577-3.5l-.276-122.8a10.8,10.8,0,0,1,1.287-4.82l-5.872-3.395A10.785,10.785,0,0,0,98.568,188.032Z" transform="translate(-98.568 -89.891)" fill="#fff" opacity="0.1"/>
          </g>
          <path id="Trazado_107931" data-name="Trazado 107931" d="M106.052,177.017l.26,115.681a3.863,3.863,0,0,0,1.577,3.5l.086.05c.013.007.028.012.042.019a3.933,3.933,0,0,0,3.811-.431l152.642-87.9a12.086,12.086,0,0,0,5.478-9.489l-.261-115.873Z" transform="translate(-100.169 -68.354)" fill="#455a64"/>
          <path id="Trazado_107932" data-name="Trazado 107932" d="M116.066,185.252,264,99.87l.23,102.3a4.75,4.75,0,0,1-1.554,2.668L116.3,289.13Z" transform="translate(-102.312 -72.055)" fill="#455a64"/>
          <path id="Trazado_107933" data-name="Trazado 107933" d="M106.052,177.017l.26,115.681a3.863,3.863,0,0,0,1.577,3.5l.086.05c.013.007.028.012.042.019a3.933,3.933,0,0,0,3.811-.431l152.642-87.9a12.086,12.086,0,0,0,5.478-9.489l-.261-115.873Z" transform="translate(-100.169 -68.354)" fill="#fff" opacity="0.2"/>
          <g id="Grupo_73076" data-name="Grupo 73076" transform="translate(11.641 21.57)">
            <g id="Grupo_73066" data-name="Grupo 73066" transform="translate(18.143)">
              <g id="Grupo_73064" data-name="Grupo 73064">
                <path id="Trazado_107934" data-name="Trazado 107934" d="M269.862,92.275c1.414-.816,2.569-.163,2.573,1.467a5.637,5.637,0,0,1-2.557,4.428L139.034,173.808c-1.414.817-2.569.163-2.573-1.466a5.637,5.637,0,0,1,2.556-4.428Z" transform="translate(-136.461 -91.924)" fill="#455a64"/>
              </g>
              <g id="Grupo_73065" data-name="Grupo 73065" opacity="0.8">
                <path id="Trazado_107935" data-name="Trazado 107935" d="M269.862,92.275c1.414-.816,2.569-.163,2.573,1.467a5.637,5.637,0,0,1-2.557,4.428L139.034,173.808c-1.414.817-2.569.163-2.573-1.466a5.637,5.637,0,0,1,2.556-4.428Z" transform="translate(-136.461 -91.924)" fill="#fff"/>
              </g>
            </g>
            <g id="Grupo_73075" data-name="Grupo 73075" transform="translate(0 80.726)">
              <g id="Grupo_73070" data-name="Grupo 73070">
                <g id="Grupo_73067" data-name="Grupo 73067" transform="translate(0 7.654)">
                  <path id="Trazado_107936" data-name="Trazado 107936" d="M114.857,204.4a.192.192,0,0,1,.174-.023c.105.05.114.233.017.41l-.827,1.519,2.79-1.611c.142-.082.259-.016.259.148a.572.572,0,0,1-.257.446l-2.79,1.611.832.562c.1.064.09.257-.014.428a.521.521,0,0,1-.173.178.174.174,0,0,1-.19.014l-1.232-.829a.156.156,0,0,1-.05-.064.262.262,0,0,1-.019-.1.441.441,0,0,1,.016-.108.554.554,0,0,1,.049-.123l1.225-2.254A.525.525,0,0,1,114.857,204.4Z" transform="translate(-113.378 -204.367)" fill="#455a64"/>
                </g>
                <g id="Grupo_73068" data-name="Grupo 73068" transform="translate(6.123 3.586)">
                  <path id="Trazado_107937" data-name="Trazado 107937" d="M123.57,199.226a.182.182,0,0,1,.19-.015l1.231.829a.208.208,0,0,1,.05.064.327.327,0,0,1,.017.1.446.446,0,0,1-.016.108.607.607,0,0,1-.047.121l-1.225,2.255a.527.527,0,0,1-.19.205.191.191,0,0,1-.174.023c-.1-.05-.112-.233-.017-.41l.828-1.52-2.79,1.611c-.141.082-.258.016-.259-.148a.567.567,0,0,1,.257-.445l2.79-1.611-.834-.56c-.1-.065-.089-.258.014-.428A.513.513,0,0,1,123.57,199.226Z" transform="translate(-121.168 -199.191)" fill="#455a64"/>
                </g>
                <g id="Grupo_73069" data-name="Grupo 73069" transform="translate(12.088)">
                  <path id="Trazado_107938" data-name="Trazado 107938" d="M130.348,195.273a1.329,1.329,0,0,1,.857-.207.571.571,0,0,1,.253-.4l.013-.006c.141-.075.252,0,.246.165l-.021.659a.568.568,0,0,1-.246.425l-.563.353-.011.006c-.138.079-.25.022-.257-.134a.561.561,0,0,1,.2-.413,1,1,0,0,0-.464.146,2.378,2.378,0,0,0-1.078,1.866c0,.685.489.96,1.085.616a2.365,2.365,0,0,0,.949-1.2.56.56,0,0,1,.226-.286.232.232,0,0,1,.123-.035c.125.006.172.158.1.341a3.493,3.493,0,0,1-1.4,1.769c-.881.509-1.6.1-1.6-.912A3.514,3.514,0,0,1,130.348,195.273Z" transform="translate(-128.757 -194.628)" fill="#455a64"/>
                </g>
              </g>
              <g id="Grupo_73074" data-name="Grupo 73074" opacity="0.7">
                <g id="Grupo_73071" data-name="Grupo 73071" transform="translate(0 7.654)">
                  <path id="Trazado_107939" data-name="Trazado 107939" d="M114.857,204.4a.192.192,0,0,1,.174-.023c.105.05.114.233.017.41l-.827,1.519,2.79-1.611c.142-.082.259-.016.259.148a.572.572,0,0,1-.257.446l-2.79,1.611.832.562c.1.064.09.257-.014.428a.521.521,0,0,1-.173.178.174.174,0,0,1-.19.014l-1.232-.829a.156.156,0,0,1-.05-.064.262.262,0,0,1-.019-.1.441.441,0,0,1,.016-.108.554.554,0,0,1,.049-.123l1.225-2.254A.525.525,0,0,1,114.857,204.4Z" transform="translate(-113.378 -204.367)" fill="#fff"/>
                </g>
                <g id="Grupo_73072" data-name="Grupo 73072" transform="translate(6.123 3.586)">
                  <path id="Trazado_107940" data-name="Trazado 107940" d="M123.57,199.226a.182.182,0,0,1,.19-.015l1.231.829a.208.208,0,0,1,.05.064.327.327,0,0,1,.017.1.446.446,0,0,1-.016.108.607.607,0,0,1-.047.121l-1.225,2.255a.527.527,0,0,1-.19.205.191.191,0,0,1-.174.023c-.1-.05-.112-.233-.017-.41l.828-1.52-2.79,1.611c-.141.082-.258.016-.259-.148a.567.567,0,0,1,.257-.445l2.79-1.611-.834-.56c-.1-.065-.089-.258.014-.428A.513.513,0,0,1,123.57,199.226Z" transform="translate(-121.168 -199.191)" fill="#fff"/>
                </g>
                <g id="Grupo_73073" data-name="Grupo 73073" transform="translate(12.088)">
                  <path id="Trazado_107941" data-name="Trazado 107941" d="M130.348,195.273a1.329,1.329,0,0,1,.857-.207.571.571,0,0,1,.253-.4l.013-.006c.141-.075.252,0,.246.165l-.021.659a.568.568,0,0,1-.246.425l-.563.353-.011.006c-.138.079-.25.022-.257-.134a.561.561,0,0,1,.2-.413,1,1,0,0,0-.464.146,2.378,2.378,0,0,0-1.078,1.866c0,.685.489.96,1.085.616a2.365,2.365,0,0,0,.949-1.2.56.56,0,0,1,.226-.286.232.232,0,0,1,.123-.035c.125.006.172.158.1.341a3.493,3.493,0,0,1-1.4,1.769c-.881.509-1.6.1-1.6-.912A3.514,3.514,0,0,1,130.348,195.273Z" transform="translate(-128.757 -194.628)" fill="#fff"/>
                </g>
              </g>
            </g>
          </g>
          <path id="Trazado_107942" data-name="Trazado 107942" d="M269.667,72.7a3.86,3.86,0,0,0-1.578-3.5c-.009-.005-.017-.013-.027-.018l-.036-.021a3.9,3.9,0,0,0-3.873.4l-152.642,87.9a12.078,12.078,0,0,0-5.478,9.489l.016,7.119L269.682,79.629Z" transform="translate(-100.165 -65.408)" fill="#455a64"/>
          <path id="Trazado_107943" data-name="Trazado 107943" d="M269.667,72.7a3.86,3.86,0,0,0-1.578-3.5c-.009-.005-.017-.013-.027-.018l-.036-.021a3.9,3.9,0,0,0-3.873.4l-152.642,87.9a12.078,12.078,0,0,0-5.478,9.489l.016,7.119L269.682,79.629Z" transform="translate(-100.165 -65.408)" opacity="0.3"/>
          <g id="Grupo_73080" data-name="Grupo 73080" transform="translate(11.641 92.099)" opacity="0.5">
            <g id="Grupo_73077" data-name="Grupo 73077" transform="translate(0 4.727)">
              <path id="Trazado_107944" data-name="Trazado 107944" d="M114.872,187.875c.828-.478,1.5-.094,1.5.858a3.294,3.294,0,0,1-1.494,2.588c-.828.478-1.5.094-1.5-.858A3.294,3.294,0,0,1,114.872,187.875Z" transform="translate(-113.378 -187.669)" fill="#fff"/>
            </g>
            <g id="Grupo_73078" data-name="Grupo 73078" transform="translate(4.094 2.364)">
              <path id="Trazado_107945" data-name="Trazado 107945" d="M120.08,184.868c.828-.478,1.5-.094,1.5.858a3.291,3.291,0,0,1-1.493,2.588c-.828.478-1.5.094-1.5-.858A3.294,3.294,0,0,1,120.08,184.868Z" transform="translate(-118.586 -184.663)" fill="#fff"/>
            </g>
            <g id="Grupo_73079" data-name="Grupo 73079" transform="translate(8.188)">
              <path id="Trazado_107946" data-name="Trazado 107946" d="M125.288,181.861c.828-.478,1.5-.094,1.5.858a3.291,3.291,0,0,1-1.493,2.588c-.828.478-1.5.094-1.5-.858A3.291,3.291,0,0,1,125.288,181.861Z" transform="translate(-123.795 -181.656)" fill="#fff"/>
            </g>
          </g>
          <g id="Grupo_73084" data-name="Grupo 73084" transform="translate(11.641 92.099)">
            <g id="Grupo_73081" data-name="Grupo 73081" transform="translate(0 4.727)">
              <path id="Trazado_107947" data-name="Trazado 107947" d="M114.872,187.875c.828-.478,1.5-.094,1.5.858a3.294,3.294,0,0,1-1.494,2.588c-.828.478-1.5.094-1.5-.858A3.294,3.294,0,0,1,114.872,187.875Z" transform="translate(-113.378 -187.669)" fill="#455a64"/>
            </g>
            <g id="Grupo_73082" data-name="Grupo 73082" transform="translate(4.094 2.364)">
              <path id="Trazado_107948" data-name="Trazado 107948" d="M120.08,184.868c.828-.478,1.5-.094,1.5.858a3.291,3.291,0,0,1-1.493,2.588c-.828.478-1.5.094-1.5-.858A3.294,3.294,0,0,1,120.08,184.868Z" transform="translate(-118.586 -184.663)" fill="#455a64"/>
            </g>
            <g id="Grupo_73083" data-name="Grupo 73083" transform="translate(8.188)">
              <path id="Trazado_107949" data-name="Trazado 107949" d="M125.288,181.861c.828-.478,1.5-.094,1.5.858a3.291,3.291,0,0,1-1.493,2.588c-.828.478-1.5.094-1.5-.858A3.291,3.291,0,0,1,125.288,181.861Z" transform="translate(-123.795 -181.656)" fill="#455a64"/>
            </g>
          </g>
          <g id="Grupo_73085" data-name="Grupo 73085" transform="translate(13.772 35.246)">
            <path id="Trazado_107950" data-name="Trazado 107950" d="M285.839,152.748l-.094-41.854a1.572,1.572,0,0,0-2.356-1.359L219.556,146.3a3.931,3.931,0,0,0-1.969,3.406v41.914a1.572,1.572,0,0,0,2.356,1.362l63.927-36.814A3.929,3.929,0,0,0,285.839,152.748Z" transform="translate(-137.81 -109.324)" fill="#37474f"/>
            <path id="Trazado_107951" data-name="Trazado 107951" d="M189.158,162.662l-71.1,40.945a3.929,3.929,0,0,0-1.968,3.414l.094,41.853a1.572,1.572,0,0,0,2.356,1.359l71.006-40.89a3.93,3.93,0,0,0,1.969-3.406V164.024A1.572,1.572,0,0,0,189.158,162.662Z" transform="translate(-116.09 -120.692)" fill="#37474f"/>
            <path id="Trazado_107952" data-name="Trazado 107952" d="M189.158,162.662l-71.1,40.945a3.929,3.929,0,0,0-1.968,3.414l.094,41.853a1.572,1.572,0,0,0,2.356,1.359l71.006-40.89a3.93,3.93,0,0,0,1.969-3.406V164.024A1.572,1.572,0,0,0,189.158,162.662Z" transform="translate(-116.09 -120.692)" fill="#fff" opacity="0.1"/>
            <path id="Trazado_107953" data-name="Trazado 107953" d="M217.587,213.684v43.094a1.572,1.572,0,0,0,2.356,1.362L284.4,221.022a4.75,4.75,0,0,0,1.554-2.668l-.093-41.272a1.572,1.572,0,0,0-2.356-1.359Z" transform="translate(-137.81 -123.487)" fill="#37474f"/>
            <path id="Trazado_107954" data-name="Trazado 107954" d="M217.587,213.684v43.094a1.572,1.572,0,0,0,2.356,1.362L284.4,221.022a4.75,4.75,0,0,0,1.554-2.668l-.093-41.272a1.572,1.572,0,0,0-2.356-1.359Z" transform="translate(-137.81 -123.487)" fill="#fff" opacity="0.1"/>
            <path id="Trazado_107955" data-name="Trazado 107955" d="M116.238,273.227l.092,40.765a1.572,1.572,0,0,0,2.356,1.359l70.891-40.824a3.931,3.931,0,0,0,1.969-3.406V230.3a1.572,1.572,0,0,0-2.356-1.362l-70.983,40.877A3.931,3.931,0,0,0,116.238,273.227Z" transform="translate(-116.122 -134.874)" fill="#37474f"/>
          </g>
          <g id="Grupo_73088" data-name="Grupo 73088" transform="translate(29.784 101.223)">
            <path id="Trazado_107956" data-name="Trazado 107956" d="M152.224,226.642l-7.6,5.721a18.867,18.867,0,0,0-7.466,13.68l-.7,9.452,41.83-24.089-2.267-3.364a10.218,10.218,0,0,0-10.737-4.252l-4.275.971Z" transform="translate(-136.461 -199.741)" fill="#fff"/>
            <g id="Grupo_73087" data-name="Grupo 73087" transform="translate(10.866)">
              <path id="Trazado_107957" data-name="Trazado 107957" d="M150.594,212.923a2.481,2.481,0,0,1,1.223-1.279,1.811,1.811,0,0,1,.364-.137,2.288,2.288,0,0,1,2.034.68,3.958,3.958,0,0,1,.991,1.971,15.773,15.773,0,0,1,.247,2.22,26.783,26.783,0,0,0,.612,3.912,4.982,4.982,0,0,0,2.533,3.31l.087.046a15.362,15.362,0,0,0,5.915,1.572l-.009,1.754v.49c1.632,2.221,2.087,6.464-2.212,5.2s-7.1-4.129-7.1-6.94c-.024-1.186-.057-2.712-.087-4.075-.041-1.835-.076-3.371-.076-3.371a2.394,2.394,0,0,1-1.57.821,2.116,2.116,0,0,1-.824-.042,3.1,3.1,0,0,1-1.836-1.569,5.739,5.739,0,0,1-.587-2.392A4.8,4.8,0,0,1,150.594,212.923Z" transform="translate(-150.285 -197.158)" fill="#8c5c5b"/>
              <path id="Trazado_107958" data-name="Trazado 107958" d="M152.295,202.954a5.314,5.314,0,0,1,3.381-1.794l17.66,1.639c2.036,4.315.41,7.168.41,7.168.275,6.582.5,10.766-2.391,12.152a13.529,13.529,0,0,1-6.449.894,15.361,15.361,0,0,1-5.916-1.572l-.094-.05a4.991,4.991,0,0,1-2.532-3.324,26.827,26.827,0,0,1-.607-3.894,15.77,15.77,0,0,0-.247-2.22,3.958,3.958,0,0,0-.991-1.971,2.288,2.288,0,0,0-2.034-.68,1.813,1.813,0,0,0-.364.137C151.619,206.514,151.471,203.98,152.295,202.954Z" transform="translate(-150.59 -194.953)" fill="#263238"/>
              <path id="Trazado_107959" data-name="Trazado 107959" d="M160.288,204.024a6.1,6.1,0,0,1-.233,3.7,26.494,26.494,0,0,0-1.122,3.593,5.845,5.845,0,0,0,.486,3.627,4.26,4.26,0,0,0,2.815,2.246c1.9.4,3.751-.7,5.654-1.073a7.908,7.908,0,0,1,5.315.94.921.921,0,0,0,1.389-.735c.226-3.788.223-9.724-.338-12.512Z" transform="translate(-152.115 -195.52)" fill="#8c5c5b"/>
              <path id="Trazado_107960" data-name="Trazado 107960" d="M173.456,198.337l2.2-1.525a4.648,4.648,0,0,1-.839,4.321,6.969,6.969,0,0,1-3.87,2.279,14.722,14.722,0,0,1-4.551.208,33.624,33.624,0,0,1-6.571-1.2,5.262,5.262,0,0,1-2.581-1.355,3.415,3.415,0,0,1-.135-4.024,5.123,5.123,0,0,1,3.63-2.1,13.884,13.884,0,0,1,4.369.344,13.3,13.3,0,0,0,4.37.314A4.567,4.567,0,0,0,173,193.263C174.235,195.269,173.456,198.337,173.456,198.337Z" transform="translate(-151.618 -193.263)" fill="#263238"/>
              <g id="Grupo_73086" data-name="Grupo 73086" transform="translate(10.433 11.538)">
                <path id="Trazado_107961" data-name="Trazado 107961" d="M171.02,212.628l3.221,3.9-2.955,1.044Z" transform="translate(-165.155 -208.945)" fill="#f28f8f"/>
                <path id="Trazado_107962" data-name="Trazado 107962" d="M171.02,212.628l3.221,3.9-2.955,1.044Z" transform="translate(-165.155 -208.945)" fill="#7d4b4a"/>
                <path id="Trazado_107963" data-name="Trazado 107963" d="M167.915,221.383l2.488.766a1.532,1.532,0,0,1-1.677.771A1.381,1.381,0,0,1,167.915,221.383Z" transform="translate(-164.488 -210.819)" fill="#f28f8f"/>
                <path id="Trazado_107964" data-name="Trazado 107964" d="M167.915,221.383l2.488.766a1.532,1.532,0,0,1-1.677.771A1.381,1.381,0,0,1,167.915,221.383Z" transform="translate(-164.488 -210.819)" fill="#7d4b4a"/>
                <path id="Trazado_107965" data-name="Trazado 107965" d="M169.545,222.978a1.406,1.406,0,0,1-.815.049,1.246,1.246,0,0,1-.808-1.123,1.419,1.419,0,0,1,1.623,1.074Z" transform="translate(-164.492 -210.927)" fill="#f28f8f"/>
                <path id="Trazado_107966" data-name="Trazado 107966" d="M165.446,213.463a.885.885,0,1,0,.836-.931A.884.884,0,0,0,165.446,213.463Z" transform="translate(-163.962 -208.925)" fill="#263238"/>
                <path id="Trazado_107967" data-name="Trazado 107967" d="M174.862,212.592a.885.885,0,1,0,.836-.931A.884.884,0,0,0,174.862,212.592Z" transform="translate(-165.977 -208.738)" fill="#263238"/>
                <path id="Trazado_107968" data-name="Trazado 107968" d="M175.715,208.235l2.031,1.249a1.261,1.261,0,0,0-.457-1.365A1.5,1.5,0,0,0,175.715,208.235Z" transform="translate(-166.16 -207.943)" fill="#263238"/>
                <path id="Trazado_107969" data-name="Trazado 107969" d="M165.544,208.642l-1.886,1.46a1.262,1.262,0,0,1,.308-1.407A1.5,1.5,0,0,1,165.544,208.642Z" transform="translate(-163.558 -208.05)" fill="#263238"/>
              </g>
              <path id="Trazado_107970" data-name="Trazado 107970" d="M159.177,226.227a5.62,5.62,0,0,1-1.03-2.139,4.967,4.967,0,0,0,2.133,2.213l.087.046a15.362,15.362,0,0,0,5.916,1.572l-.008,1.513a15.053,15.053,0,0,1-3.5-.733A7.893,7.893,0,0,1,159.177,226.227Z" transform="translate(-151.967 -199.859)" fill="#7d4b4a"/>
            </g>
          </g>
          <g id="Grupo_73094" data-name="Grupo 73094" transform="translate(112.265 106.128)">
            <g id="Grupo_73089" data-name="Grupo 73089" transform="translate(0 24.227)">
              <path id="Trazado_107971" data-name="Trazado 107971" d="M254.615,233.05l-7.894,5.943a11.791,11.791,0,0,0-4.683,8.822l-.641,12.635,38.385-22.1-5.632-5.538a8.646,8.646,0,0,0-7.977-2.266l-2.77.629Z" transform="translate(-241.397 -230.326)" fill="#1565c0"/>
              <path id="Trazado_107972" data-name="Trazado 107972" d="M254.615,233.05l-7.894,5.943a11.791,11.791,0,0,0-4.683,8.822l-.641,12.635,38.385-22.1-5.632-5.538a8.646,8.646,0,0,0-7.977-2.266l-2.77.629Z" transform="translate(-241.397 -230.326)" opacity="0.2"/>
            </g>
            <g id="Grupo_73093" data-name="Grupo 73093" transform="translate(7.113)">
              <path id="Trazado_107973" data-name="Trazado 107973" d="M273.317,216.8a6.606,6.606,0,0,0,1.84-8.714,3.591,3.591,0,0,0,1.739-1.64,1.921,1.921,0,0,0-2.495-2.561,2.7,2.7,0,0,0-1.076-3.15,2.546,2.546,0,0,0-3.166.586,1.723,1.723,0,0,0-1.177-1.694,3.487,3.487,0,0,0-2.194.138c-.706.242-1.372.593-2.082.818a16.084,16.084,0,0,1-3.74.476,7.558,7.558,0,0,0-3.612.964,3.24,3.24,0,0,0-1.421,3.663,2.072,2.072,0,0,0-1.5-.8,2.011,2.011,0,0,0-1.539.653c.787.487,1.548,1.012,2.334,1.5a2.127,2.127,0,0,0-2.4.957,4.811,4.811,0,0,0-.424,2.535,33.956,33.956,0,0,0,1.739,9.7c.538,1.618,1.316,3.332,2.848,4.078Z" transform="translate(-250.864 -199.503)" fill="#263238"/>
              <g id="Grupo_73090" data-name="Grupo 73090" transform="translate(5.017 19.32)">
                <path id="Trazado_107974" data-name="Trazado 107974" d="M265.923,229.847l-.346,3.868a1.462,1.462,0,0,0,.219.853,2.188,2.188,0,0,1-.341,2.527,2.911,2.911,0,0,1-1.728.586,8.364,8.364,0,0,1-6.391-2.466,1.826,1.826,0,0,1-.506-1.324l.254-9.808Z" transform="translate(-256.829 -224.083)" fill="#ffa8a7"/>
                <path id="Trazado_107975" data-name="Trazado 107975" d="M258.123,224.729l8.061,5.256-.307,3.43a12.69,12.69,0,0,1-5.243-2.187A7.185,7.185,0,0,1,258.123,224.729Z" transform="translate(-257.091 -224.221)" fill="#f28f8f"/>
              </g>
              <g id="Grupo_73092" data-name="Grupo 73092" transform="translate(0 8.686)">
                <path id="Trazado_107976" data-name="Trazado 107976" d="M273.346,211.195a34.589,34.589,0,0,1-.868,13.414,10.527,10.527,0,0,1-1.065,2.755,4.461,4.461,0,0,1-2.174,1.932,6.907,6.907,0,0,1-3.6.009,18.1,18.1,0,0,1-6.334-1.943,6.149,6.149,0,0,1-3.225-5.444,3.8,3.8,0,0,1-3.634.2,3.858,3.858,0,0,1-1.993-3.08,2.379,2.379,0,0,1,3.969-2.248,7.931,7.931,0,0,1,1.477,1.724,2.619,2.619,0,0,0,.736.787.9.9,0,0,0,1.016-.012,1.334,1.334,0,0,0,.288-1.107l-.128-2.807a1.12,1.12,0,0,1,.623-1.045,2.752,2.752,0,0,0,1.258-1.446,5.717,5.717,0,0,0,.355-1.69.691.691,0,0,1,.946-.589A20.688,20.688,0,0,0,273.346,211.195Z" transform="translate(-250.446 -210.554)" fill="#ffa8a7"/>
                <g id="Grupo_73091" data-name="Grupo 73091" transform="translate(11.36 3.552)">
                  <path id="Trazado_107977" data-name="Trazado 107977" d="M271.591,220.031l2.525,4.25-3.01.565Z" transform="translate(-266.227 -216.135)" fill="#f28f8f"/>
                  <path id="Trazado_107978" data-name="Trazado 107978" d="M267.4,228.02l2.288,1.112a1.5,1.5,0,0,1-1.735.494A1.35,1.35,0,0,1,267.4,228.02Z" transform="translate(-265.42 -217.844)" fill="#f28f8f"/>
                  <path id="Trazado_107979" data-name="Trazado 107979" d="M267.4,228.02l2.288,1.112a1.5,1.5,0,0,1-1.735.494A1.35,1.35,0,0,1,267.4,228.02Z" transform="translate(-265.42 -217.844)" opacity="0.3"/>
                  <path id="Trazado_107980" data-name="Trazado 107980" d="M268.745,229.809a1.379,1.379,0,0,1-.794-.075,1.217,1.217,0,0,1-.612-1.206,1.386,1.386,0,0,1,1.405,1.28Z" transform="translate(-265.421 -217.953)" fill="#f28f8f"/>
                  <path id="Trazado_107981" data-name="Trazado 107981" d="M266.176,220.034a.865.865,0,1,0,.947-.773A.865.865,0,0,0,266.176,220.034Z" transform="translate(-265.171 -215.969)" fill="#263238"/>
                  <path id="Trazado_107982" data-name="Trazado 107982" d="M275.4,220.606a.865.865,0,1,0,.947-.773A.865.865,0,0,0,275.4,220.606Z" transform="translate(-267.145 -216.091)" fill="#263238"/>
                  <path id="Trazado_107983" data-name="Trazado 107983" d="M276.9,216.527l1.774,1.511a1.233,1.233,0,0,0-.237-1.387A1.46,1.46,0,0,0,276.9,216.527Z" transform="translate(-267.468 -215.351)" fill="#263238"/>
                  <path id="Trazado_107984" data-name="Trazado 107984" d="M266.98,215.4l-2.04,1.126a1.233,1.233,0,0,1,.509-1.313A1.459,1.459,0,0,1,266.98,215.4Z" transform="translate(-264.899 -215.074)" fill="#263238"/>
                </g>
              </g>
            </g>
          </g>
          <g id="Grupo_73096" data-name="Grupo 73096" transform="translate(34.43 150.091)">
            <path id="Trazado_107985" data-name="Trazado 107985" d="M176.223,269.6c-.337.788-1.264,1.164-1.71,1.9a1.832,1.832,0,1,0,3.209,1.758,5.167,5.167,0,0,1,.01,2.1,2.038,2.038,0,0,1-1.309,1.533,3.715,3.715,0,0,1-2.344,6.307,5.775,5.775,0,0,1-2.556,5.1,8.278,8.278,0,0,1-5.531,1.287,18.112,18.112,0,0,1-5.541-1.626,19.972,19.972,0,0,1-8.417,1.256,7.745,7.745,0,0,1-4.972-1.982c-1.257-1.321-1.55-3.673-.207-4.905a2.79,2.79,0,0,1-2.859.029,2.43,2.43,0,0,1,.423-4.463,2.121,2.121,0,0,1-.97-1.919A1.983,1.983,0,0,1,144.8,274.4a1.728,1.728,0,0,0,.469,1.776,1.613,1.613,0,0,0,1.768.082,2.164,2.164,0,0,0,.907-1.527,7.376,7.376,0,0,0-.034-1.828,13.538,13.538,0,0,1,.605-6.243,6.33,6.33,0,0,1,4.517-4.039,10.406,10.406,0,0,1,12.14-6.944,6.9,6.9,0,0,1,4.974,3.691,11.325,11.325,0,0,1,2.751-.233,3.641,3.641,0,0,1,2.476.917,2.222,2.222,0,0,1,.543,2.472c-.275.567-.863,1.076-.722,1.69.12.528.722.786,1.011,1.243a1.605,1.605,0,0,1,.031,1.469,4.987,4.987,0,0,1-.882,1.241c-.307.354-.631.817-.459,1.253C175.081,269.877,175.982,270.031,176.223,269.6Z" transform="translate(-142.445 -255.436)" fill="#263238"/>
            <path id="Trazado_107986" data-name="Trazado 107986" d="M171.353,297.173a3.833,3.833,0,0,1-2.474.659,13.872,13.872,0,0,1-11.049-5.481l2.455-.213v-7.9l8.534,3.294V292.1H171a6.292,6.292,0,0,1,1.047,1.853A3,3,0,0,1,171.353,297.173Z" transform="translate(-145.68 -261.6)" fill="#f28f8f"/>
            <path id="Trazado_107987" data-name="Trazado 107987" d="M161.715,284.534c2.557,4.962,4.148,5.069,7.936,5.512V287.6Z" transform="translate(-146.511 -261.663)" fill="#d96e6e"/>
            <path id="Trazado_107988" data-name="Trazado 107988" d="M175.84,269.32a30.927,30.927,0,0,1,.135,11.348,6.039,6.039,0,0,1-1.775,3.811c-1.379,1.107-3.349.942-5.1.719a20.365,20.365,0,0,1-5.618-1.262,6.863,6.863,0,0,1-3.943-3.982,2.476,2.476,0,0,1-2.994-.484,4.4,4.4,0,0,1-1.1-3.009,2.889,2.889,0,0,1,1.085-2.626,2.26,2.26,0,0,1,1.958-.083,4.829,4.829,0,0,1,1.633,1.18,3.363,3.363,0,0,0,.779.667.96.96,0,0,0,.978.006,1.424,1.424,0,0,0,.417-1.151,10.7,10.7,0,0,1,1.141-5,4.109,4.109,0,0,1,4.329-2.117,10.144,10.144,0,0,0,2.243.733,3.59,3.59,0,0,0,1.78-.584l.031-.017A2.6,2.6,0,0,1,175.84,269.32Z" transform="translate(-145.168 -257.921)" fill="#f28f8f"/>
            <g id="Grupo_73095" data-name="Grupo 73095" transform="translate(20.472 12.546)">
              <path id="Trazado_107989" data-name="Trazado 107989" d="M174.434,275.855l2.27,3.821-2.706.508Z" transform="translate(-169.612 -272.352)" fill="#f28f8f"/>
              <path id="Trazado_107990" data-name="Trazado 107990" d="M174.434,275.855l2.27,3.821-2.706.508Z" transform="translate(-169.612 -272.352)" fill="#d96e6e"/>
              <path id="Trazado_107991" data-name="Trazado 107991" d="M170.663,283.038l2.056,1a1.346,1.346,0,0,1-1.559.443A1.212,1.212,0,0,1,170.663,283.038Z" transform="translate(-168.886 -273.889)" fill="#f28f8f"/>
              <path id="Trazado_107992" data-name="Trazado 107992" d="M170.663,283.038l2.056,1a1.346,1.346,0,0,1-1.559.443A1.212,1.212,0,0,1,170.663,283.038Z" transform="translate(-168.886 -273.889)" fill="#d96e6e"/>
              <path id="Trazado_107993" data-name="Trazado 107993" d="M171.875,284.647a1.236,1.236,0,0,1-.714-.067,1.1,1.1,0,0,1-.55-1.084,1.246,1.246,0,0,1,1.265,1.151Z" transform="translate(-168.887 -273.987)" fill="#f28f8f"/>
              <path id="Trazado_107994" data-name="Trazado 107994" d="M171.875,284.647a1.236,1.236,0,0,1-.714-.067,1.1,1.1,0,0,1-.55-1.084,1.246,1.246,0,0,1,1.265,1.151Z" transform="translate(-168.887 -273.987)" fill="#c75555"/>
              <path id="Trazado_107995" data-name="Trazado 107995" d="M169.565,275.858a.777.777,0,1,0,.851-.695A.777.777,0,0,0,169.565,275.858Z" transform="translate(-168.662 -272.203)" fill="#263238"/>
              <path id="Trazado_107996" data-name="Trazado 107996" d="M177.858,276.372a.777.777,0,1,0,.852-.7A.777.777,0,0,0,177.858,276.372Z" transform="translate(-170.437 -272.313)" fill="#263238"/>
              <path id="Trazado_107997" data-name="Trazado 107997" d="M179.212,272.7l1.595,1.358a1.107,1.107,0,0,0-.213-1.247A1.31,1.31,0,0,0,179.212,272.7Z" transform="translate(-170.727 -271.647)" fill="#263238"/>
              <path id="Trazado_107998" data-name="Trazado 107998" d="M170.289,271.694l-1.834,1.013a1.108,1.108,0,0,1,.457-1.18A1.314,1.314,0,0,1,170.289,271.694Z" transform="translate(-168.417 -271.398)" fill="#263238"/>
            </g>
            <path id="Trazado_107999" data-name="Trazado 107999" d="M177.291,294.234l.68,8.519,5.783-3.33C182.535,296.329,180.639,294.234,177.291,294.234Z" transform="translate(-149.844 -263.739)" fill="#f28f8f"/>
            <path id="Trazado_108000" data-name="Trazado 108000" d="M171.141,294.234h-2.124a6.291,6.291,0,0,1,1.047,1.853,3,3,0,0,1-.7,3.225,3.833,3.833,0,0,1-2.474.659,13.872,13.872,0,0,1-11.049-5.481l-7.291.631s.163,15.371.122,17.592a15.226,15.226,0,0,0,.243,3.229l27-15.55A22.385,22.385,0,0,0,171.141,294.234Z" transform="translate(-143.695 -263.739)" fill="#1565c0"/>
            <path id="Trazado_108001" data-name="Trazado 108001" d="M171.141,294.234h-2.124a6.291,6.291,0,0,1,1.047,1.853,3,3,0,0,1-.7,3.225,3.833,3.833,0,0,1-2.474.659,13.872,13.872,0,0,1-11.049-5.481l-7.291.631s.163,15.371.122,17.592a15.226,15.226,0,0,0,.243,3.229l27-15.55A22.385,22.385,0,0,0,171.141,294.234Z" transform="translate(-143.695 -263.739)" fill="#fff" opacity="0.6"/>
            <path id="Trazado_108002" data-name="Trazado 108002" d="M147.231,295.362c-7,2.37-5.361,8.323-1.8,14.7.89,1.592,1.96,3.554,3.066,5.6l7.531-4.337C153.328,304.7,149.618,296.572,147.231,295.362Z" transform="translate(-142.372 -263.98)" fill="#f28f8f"/>
          </g>
          <g id="Grupo_73100" data-name="Grupo 73100" transform="translate(111.78 58.926)">
            <path id="Trazado_108003" data-name="Trazado 108003" d="M274.888,175.033a33.212,33.212,0,0,1,2.3,4.718l2.793-1.609-2.551-4.976a4.715,4.715,0,0,0-5.186-2.46l-.883.189A16.068,16.068,0,0,1,274.888,175.033Z" transform="translate(-247.325 -146.116)" fill="#455a64"/>
            <path id="Trazado_108004" data-name="Trazado 108004" d="M249.292,185.967a3.732,3.732,0,0,0-2.1-2.132,3.637,3.637,0,0,0-3.084.529,6.059,6.059,0,0,0-.95.791,11.788,11.788,0,0,0-1.76,6.2v8.116l9.217-5.308q-.33-2.6-.659-5.2A11.059,11.059,0,0,0,249.292,185.967Z" transform="translate(-240.914 -148.916)" fill="#455a64"/>
            <path id="Trazado_108005" data-name="Trazado 108005" d="M268.956,175.113a16.068,16.068,0,0,0-3.526-4.138l-6.13,1.315-6.264,2.606-5.893,3.917a11.781,11.781,0,0,0-3.5,3.622,6.059,6.059,0,0,1,.95-.791,3.637,3.637,0,0,1,3.084-.529,3.732,3.732,0,0,1,2.1,2.132,11.059,11.059,0,0,1,.667,3q.329,2.6.659,5.2l20.159-11.609A33.2,33.2,0,0,0,268.956,175.113Z" transform="translate(-241.393 -146.197)" fill="#455a64"/>
            <path id="Trazado_108006" data-name="Trazado 108006" d="M274.888,175.033a33.212,33.212,0,0,1,2.3,4.718l2.793-1.609-2.551-4.976a4.715,4.715,0,0,0-5.186-2.46l-.883.189A16.068,16.068,0,0,1,274.888,175.033Z" transform="translate(-247.325 -146.116)" fill="#fff" opacity="0.3"/>
            <path id="Trazado_108007" data-name="Trazado 108007" d="M249.292,185.967a3.732,3.732,0,0,0-2.1-2.132,3.637,3.637,0,0,0-3.084.529,6.059,6.059,0,0,0-.95.791,11.788,11.788,0,0,0-1.76,6.2v8.116l9.217-5.308q-.33-2.6-.659-5.2A11.059,11.059,0,0,0,249.292,185.967Z" transform="translate(-240.914 -148.916)" fill="#fff" opacity="0.3"/>
            <path id="Trazado_108008" data-name="Trazado 108008" d="M268.956,175.113a16.068,16.068,0,0,0-3.526-4.138l-6.13,1.315-6.264,2.606-5.893,3.917a11.781,11.781,0,0,0-3.5,3.622,6.059,6.059,0,0,1,.95-.791,3.637,3.637,0,0,1,3.084-.529,3.732,3.732,0,0,1,2.1,2.132,11.059,11.059,0,0,1,.667,3q.329,2.6.659,5.2l20.159-11.609A33.2,33.2,0,0,0,268.956,175.113Z" transform="translate(-241.393 -146.197)" fill="#fff" opacity="0.4"/>
            <g id="Grupo_73099" data-name="Grupo 73099">
              <path id="Trazado_108009" data-name="Trazado 108009" d="M268.045,154.612a7.79,7.79,0,0,0,.939-9.782,2.63,2.63,0,0,0-.472-5.036,7.489,7.489,0,0,0-2.835.4,13.774,13.774,0,0,1-4.876,0c-1.618-.234-3.22-.584-4.85-.7a9.876,9.876,0,0,0-4.8.682,5.373,5.373,0,0,0-3.105,3.566,3.744,3.744,0,0,0-3.558,1.489,6.262,6.262,0,0,0-1.17,3.654c-.053,1.3.128,2.6.194,3.894a8.814,8.814,0,0,1-.49,3.837c-.585,1.4-1.747,2.549-2.119,4.024a4.044,4.044,0,0,0,4.954,4.9,10.749,10.749,0,0,1-.376-3.158c.123,1.43,1.55,2.547,2.9,3.028a11.346,11.346,0,0,0,4.262.373l5.05-.2,5.882-.231a8.018,8.018,0,0,0,3.076-.53,5.253,5.253,0,0,0,2.739-4.52A13.675,13.675,0,0,0,268.045,154.612Z" transform="translate(-240.781 -139.45)" fill="#263238"/>
              <g id="Grupo_73097" data-name="Grupo 73097" transform="translate(11.643 19.762)">
                <path id="Trazado_108010" data-name="Trazado 108010" d="M264.011,168.19v5.37s4.39,2.806,2.541,4.291c-3.486,2.8-10.958-4.321-10.958-4.321v-8.937Z" transform="translate(-255.594 -164.593)" fill="#ffa8a7"/>
                <path id="Trazado_108011" data-name="Trazado 108011" d="M255.594,164.593c1.291,3.847,6,6.764,8.417,7.347v-3.75Z" transform="translate(-255.594 -164.593)" fill="#f28f8f"/>
              </g>
              <path id="Trazado_108012" data-name="Trazado 108012" d="M254.922,154.106a8.093,8.093,0,0,1,.094,2.023,2.382,2.382,0,0,1-.67,1.351,1.505,1.505,0,0,1-1.362.4,2.638,2.638,0,0,0-5.12-1.252,3.309,3.309,0,0,0,.552,2.746,6.211,6.211,0,0,0,2.2,1.837,2.234,2.234,0,0,0,2.661-1.044c2.566,3.252,7.04,5.693,11.231,5.342a6,6,0,0,0,3.188-1.124c1.585-1.228,1.7-3.079,1.9-4.906a25.974,25.974,0,0,0-.053-6.971,13.708,13.708,0,0,0-4.406-8.389C263.706,151.048,257.353,153.6,254.922,154.106Z" transform="translate(-242.274 -140.45)" fill="#ffa8a7"/>
              <g id="Grupo_73098" data-name="Grupo 73098" transform="translate(16.11 9.588)">
                <path id="Trazado_108013" data-name="Trazado 108013" d="M267.977,155.823l2.87,3.538-2.669.918Z" transform="translate(-262.711 -152.542)" fill="#f28f8f"/>
                <path id="Trazado_108014" data-name="Trazado 108014" d="M265.113,163.683l2.234.709a1.379,1.379,0,0,1-1.515.681A1.243,1.243,0,0,1,265.113,163.683Z" transform="translate(-262.095 -154.224)" fill="#f28f8f"/>
                <path id="Trazado_108015" data-name="Trazado 108015" d="M265.113,163.683l2.234.709a1.379,1.379,0,0,1-1.515.681A1.243,1.243,0,0,1,265.113,163.683Z" transform="translate(-262.095 -154.224)" opacity="0.3"/>
                <path id="Trazado_108016" data-name="Trazado 108016" d="M266.568,165.133a1.273,1.273,0,0,1-.734.038,1.123,1.123,0,0,1-.719-1.018,1.278,1.278,0,0,1,1.453.98Z" transform="translate(-262.099 -154.322)" fill="#f28f8f"/>
                <path id="Trazado_108017" data-name="Trazado 108017" d="M262.949,156.533a.8.8,0,1,0,.76-.832A.8.8,0,0,0,262.949,156.533Z" transform="translate(-261.635 -152.516)" fill="#263238"/>
                <path id="Trazado_108018" data-name="Trazado 108018" d="M271.436,155.821a.8.8,0,1,0,.76-.832A.8.8,0,0,0,271.436,155.821Z" transform="translate(-263.451 -152.364)" fill="#263238"/>
                <path id="Trazado_108019" data-name="Trazado 108019" d="M272.24,151.9l1.82,1.14a1.136,1.136,0,0,0-.4-1.233A1.346,1.346,0,0,0,272.24,151.9Z" transform="translate(-263.623 -151.649)" fill="#263238"/>
                <path id="Trazado_108020" data-name="Trazado 108020" d="M263.074,152.193l-1.71,1.3a1.137,1.137,0,0,1,.288-1.265A1.346,1.346,0,0,1,263.074,152.193Z" transform="translate(-261.277 -151.726)" fill="#263238"/>
              </g>
            </g>
          </g>
        </g>
      </g>
      <g id="Grupo_73104" data-name="Grupo 73104" transform="translate(248.421 102.891)">
        <g id="Grupo_73103" data-name="Grupo 73103">
          <path id="Trazado_108021" data-name="Trazado 108021" d="M341.631,159.781l0,0Z" transform="translate(-337.247 -143.064)" fill="none"/>
          <path id="Trazado_108022" data-name="Trazado 108022" d="M335.744,151.765a3.13,3.13,0,0,1,1.172-1.189l25.642-14.542c1.413-.81,4.756.289,4.756,2.559v18.441a3.147,3.147,0,0,1-1.586,2.733l-11.943,6.825,1.651-.943-1.032,2.925a.173.173,0,0,1-.214.106l0,.012c-.182-.094-.993-.529-1.454-.835l-.008,0-.031-.02,0-.006a.159.159,0,0,1-.041-.037l-.253-.411-12.318,6.892a3.109,3.109,0,0,1-4.754-2.56v-18.4A3.135,3.135,0,0,1,335.744,151.765Z" transform="translate(-335.335 -135.769)" fill="#1565c0"/>
          <path id="Trazado_108023" data-name="Trazado 108023" d="M360.111,181.365a.159.159,0,0,0,.041.037l0,.006.031.02.008,0c.461.306,1.272.741,1.454.835l0-.012a.166.166,0,0,1-.1-.072l-1-1.619.2-.113h0l-.879.5Z" transform="translate(-342.785 -149.344)" fill="#fff" opacity="0.2"/>
          <path id="Trazado_108024" data-name="Trazado 108024" d="M339.052,153.544a3.2,3.2,0,0,1,.843-1.055l0,0a2.907,2.907,0,0,1,.382-.261l25.642-14.541a1.049,1.049,0,0,1,1.571.91c0-2.27-3.343-3.369-4.756-2.559l-25.642,14.541a3.13,3.13,0,0,0-1.172,1.189Z" transform="translate(-335.513 -135.769)" fill="#fff" opacity="0.4"/>
          <path id="Trazado_108025" data-name="Trazado 108025" d="M338.519,180.341V161.935a2.745,2.745,0,0,1,.025-.372,3.257,3.257,0,0,1,.329-1.039l-3.13-1.778a3.135,3.135,0,0,0-.409,1.541v18.4a3.109,3.109,0,0,0,4.754,2.56A1.049,1.049,0,0,1,338.519,180.341Z" transform="translate(-335.335 -142.749)" fill="#fff" opacity="0.2"/>
        </g>
      </g>
      <g id="Grupo_73111" data-name="Grupo 73111" transform="translate(217.602 158.003)">
        <path id="Trazado_108026" data-name="Trazado 108026" d="M370.349,269.637l5.806,11.213-5.272,8.83,5.829,9.222,8.8-13.667a7.679,7.679,0,0,0,.9-6.312,107.615,107.615,0,0,0-5.72-15.568Z" transform="translate(-315.565 -217.147)" fill="#ffa8a7"/>
        <path id="Trazado_108027" data-name="Trazado 108027" d="M375.049,267.306l-4.7,2.854,4.41,8.517q.131-5.01.262-10.019Q375.039,267.984,375.049,267.306Z" transform="translate(-315.565 -217.67)" opacity="0.2"/>
        <path id="Trazado_108028" data-name="Trazado 108028" d="M365.034,245.587c6.679-1.243,10.5.984,16.143,16.094-2.306,5.169-12.088,7.078-12.088,7.078Z" transform="translate(-314.862 -214.758)" fill="#1565c0"/>
        <path id="Trazado_108029" data-name="Trazado 108029" d="M373.667,258.037c-1.341-4.109-4.728-7.11-8.176-9.794l3.659,20.906a30.782,30.782,0,0,0,5.191-1.606l.036-1.407A24.024,24.024,0,0,0,373.667,258.037Z" transform="translate(-314.922 -215.148)" opacity="0.2"/>
        <g id="Grupo_73106" data-name="Grupo 73106" transform="translate(9.191 176.286)">
          <path id="Trazado_108030" data-name="Trazado 108030" d="M348.49,427.722c-.546,1.145-2.278,2.2-4.174,2.516a19.158,19.158,0,0,1-5.727-.364,37.95,37.95,0,0,0-8.547-.219,44.813,44.813,0,0,1-5.318.38,8.43,8.43,0,0,1-5-1.584,5.093,5.093,0,0,1-1.877-3.19,4.819,4.819,0,0,0,1.877,4.3,8.43,8.43,0,0,0,5,1.584,44.64,44.64,0,0,0,5.318-.38,37.954,37.954,0,0,1,8.547.219c1.9.266,3.967.811,5.862.5s3.627-1.371,4.174-2.517Z" transform="translate(-317.804 -414.855)" fill="#263238"/>
          <g id="Grupo_73105" data-name="Grupo 73105" transform="translate(0 2.456)">
            <path id="Trazado_108031" data-name="Trazado 108031" d="M329.163,423.6c1.6,0,1.009-2.36,2.527-3.941-.618.036-1.237.046-1.858.044C328.469,421.667,328.086,423.6,329.163,423.6Z" transform="translate(-319.224 -416.569)" fill="#fff"/>
            <path id="Trazado_108032" data-name="Trazado 108032" d="M332.981,423.379c1.6,0,1.184-2.813,2.759-4.454a10.579,10.579,0,0,1-1.092.315c-.314.07-.631.124-.948.171C332.3,421.4,331.891,423.379,332.981,423.379Z" transform="translate(-319.729 -416.472)" fill="#fff"/>
            <path id="Trazado_108033" data-name="Trazado 108033" d="M347.621,417.612a2.167,2.167,0,0,0-.829-1.3l-8.619-.215a7.4,7.4,0,0,1-3.577,2.453c-1.576,1.641-1.155,4.454-2.759,4.454-1.09,0-.685-1.979.719-3.968-.5.073-1,.122-1.505.15-1.518,1.581-.931,3.941-2.527,3.941-1.077,0-.694-1.932.669-3.9-.4,0-.805-.006-1.207-.012-.365-.005-.733-.03-1.1-.06-3.169,2.506-3.44,5.225-3.03,9.492a11.425,11.425,0,0,0,1.651.173,44.8,44.8,0,0,0,5.318-.38,37.954,37.954,0,0,1,8.547.219,19.155,19.155,0,0,0,5.727.364c1.9-.312,3.628-1.371,4.174-2.516Z" transform="translate(-318.584 -416.098)" fill="#455a64"/>
            <path id="Trazado_108034" data-name="Trazado 108034" d="M326.1,419.6a13.567,13.567,0,0,0-4.309,0,5.131,5.131,0,0,0-3.878,3.375,3.821,3.821,0,0,0-.068,1.517,5.093,5.093,0,0,0,1.877,3.19,7.438,7.438,0,0,0,3.348,1.411C322.663,424.823,322.934,422.1,326.1,419.6Z" transform="translate(-317.803 -416.537)" fill="#fff"/>
          </g>
          <path id="Trazado_108035" data-name="Trazado 108035" d="M340.1,413.268v4.153a1.706,1.706,0,0,0,1.706,1.706h4.344a2.8,2.8,0,0,0,2.8-2.708l.1-3.151Z" transform="translate(-320.753 -413.268)" fill="#ffa8a7"/>
        </g>
        <g id="Grupo_73108" data-name="Grupo 73108" transform="translate(40.728 158.204)">
          <path id="Trazado_108036" data-name="Trazado 108036" d="M370.674,409.348a3.194,3.194,0,0,1-2.614,1.831,5.5,5.5,0,0,1-3.309-.814c-1.5-.949-2.078-2.443-3.1-3.789a22.707,22.707,0,0,0-3.6-3.519,11.9,11.9,0,0,1-3.444-3.993,5.318,5.318,0,0,1-.409-1.464,5.206,5.206,0,0,0,.409,2.81,11.906,11.906,0,0,0,3.444,3.993,22.67,22.67,0,0,1,3.6,3.519c1.02,1.346,1.6,2.84,3.1,3.789a5.5,5.5,0,0,0,3.309.813,3.193,3.193,0,0,0,2.614-1.83,7.174,7.174,0,0,0,.157-2.315A2.877,2.877,0,0,1,370.674,409.348Z" transform="translate(-354.15 -393.113)" fill="#263238"/>
          <g id="Grupo_73107" data-name="Grupo 73107">
            <path id="Trazado_108037" data-name="Trazado 108037" d="M361.876,400.225a1.076,1.076,0,0,0-.21.71.735.735,0,0,0,.47.536,1.035,1.035,0,0,0,.969-.251,5.053,5.053,0,0,0,.672-.8,5.009,5.009,0,0,1,3.543-1.911l-1.078-.983a5.313,5.313,0,0,0-4.367,2.7Z" transform="translate(-355.143 -393.104)" fill="#fff"/>
            <path id="Trazado_108038" data-name="Trazado 108038" d="M361.774,396.614a5.446,5.446,0,0,0-2.4,2.216,1.081,1.081,0,0,0-.21.71.737.737,0,0,0,.471.536,1.033,1.033,0,0,0,.968-.251,5.048,5.048,0,0,0,.672-.8,5,5,0,0,1,4.4-1.905l-1.066-.972A5.437,5.437,0,0,0,361.774,396.614Z" transform="translate(-354.812 -392.917)" fill="#fff"/>
            <path id="Trazado_108039" data-name="Trazado 108039" d="M363.262,395.047a11.242,11.242,0,0,0-3.383-2.26,4.493,4.493,0,0,0-4.65.642,4.025,4.025,0,0,0-1.031,3.487,5.321,5.321,0,0,0,.409,1.464,7.607,7.607,0,0,0,1.068,1.694C356.088,396.361,359.311,394.624,363.262,395.047Z" transform="translate(-354.15 -392.429)" fill="#fff"/>
            <path id="Trazado_108040" data-name="Trazado 108040" d="M370.994,405.414a7.754,7.754,0,0,0-.843-3.629l-2.1-2.2-1.494-1.362a5.009,5.009,0,0,0-3.543,1.911,5.058,5.058,0,0,1-.672.8,1.035,1.035,0,0,1-.969.251.736.736,0,0,1-.47-.536,1.077,1.077,0,0,1,.21-.71,5.313,5.313,0,0,1,4.367-2.7l-.243-.221a5,5,0,0,0-4.4,1.905,5.051,5.051,0,0,1-.672.8,1.033,1.033,0,0,1-.968.251.737.737,0,0,1-.471-.536,1.081,1.081,0,0,1,.21-.71,5.35,5.35,0,0,1,5.232-2.682l-.04-.036q-.318-.29-.64-.577c-3.951-.423-7.173,1.315-7.587,5.027a17.832,17.832,0,0,0,2.376,2.3,22.7,22.7,0,0,1,3.6,3.519c1.02,1.346,1.6,2.84,3.1,3.789a5.5,5.5,0,0,0,3.308.814,3.194,3.194,0,0,0,2.614-1.831,2.871,2.871,0,0,0,.157-.969A25.926,25.926,0,0,0,370.994,405.414Z" transform="translate(-354.383 -392.819)" fill="#455a64"/>
          </g>
          <path id="Trazado_108041" data-name="Trazado 108041" d="M364.579,399.381l.246,4.456c2.813,1.622,5.77.739,6.755-.288l.185-4.167Z" transform="translate(-355.53 -393.349)" fill="#ffa8a7"/>
        </g>
        <path id="Trazado_108042" data-name="Trazado 108042" d="M366.542,287.562a4.024,4.024,0,0,1-.426-1.534l-.24-3.824-27.251,1.75c-.36,1.912-.725,4.253-1.081,6.9A40.534,40.534,0,0,0,366.542,287.562Z" transform="translate(-311.225 -219.641)" fill="#ffa8a7"/>
        <path id="Trazado_108043" data-name="Trazado 108043" d="M348.4,247.41l-7.291,1.433c-1.612,2.949-3.255,5.719-4.866,8.668-1.214,2.221-2.463,4.583-2.371,7.114a7.269,7.269,0,0,0,2.875,5.423,3.22,3.22,0,0,1,1.328,2.822l-.677,7.995c11.452,3.5,25.448.424,28.523-2.227.9-4.174,1.7-8.61,2.609-12.784.963-4.446,1.934-8.948.546-13.6a9.617,9.617,0,0,0-1.1-2.369h0a9.11,9.11,0,0,0-9.136-4.137Z" transform="translate(-310.738 -214.803)" fill="#1565c0"/>
        <path id="Trazado_108044" data-name="Trazado 108044" d="M336.434,258.926c-.063.115-.128.228-.191.344-1.214,2.221-2.463,4.583-2.371,7.114a7.269,7.269,0,0,0,2.875,5.423,3.22,3.22,0,0,1,1.328,2.822l-.226,2.669c2.282-4.5,5.368-11.028,6.67-15.845Z" transform="translate(-310.738 -216.561)" opacity="0.2"/>
        <path id="Trazado_108045" data-name="Trazado 108045" d="M366.5,289.077a4.373,4.373,0,0,1-.423-.7,40.534,40.534,0,0,1-29,3.3c-2.056,15.288-3.82,41.174-2.736,58.253.9,19.881,4.56,48.033,4.56,48.033,4.771,1.431,8.35.556,9.7-.477,1.591-19.723,5.089-33.241,2.385-46.283,1.8-9.119,2.969-20.57,2.969-20.57l1.379,20.146L360,386.191a8.364,8.364,0,0,0,8.377-.423c3.394-20.253,4.666-33.975,1.7-44.027C374.605,308.508,374.836,300.005,366.5,289.077Z" transform="translate(-310.757 -220.458)" fill="#455a64"/>
        <path id="Trazado_108046" data-name="Trazado 108046" d="M359.006,329.91l2.5-10.492c2.915-.476,7.475-2.385,9.871-6.386a20.068,20.068,0,0,1-12.1,4.266L357,333.892l.485,7.092.2-2.581A54.332,54.332,0,0,1,359.006,329.91Z" transform="translate(-313.799 -223.72)" opacity="0.3"/>
        <g id="Grupo_73109" data-name="Grupo 73109" transform="translate(25.822 0)">
          <path id="Trazado_108047" data-name="Trazado 108047" d="M340.155,223.108a12.657,12.657,0,0,1-1.429-6.716,7.246,7.246,0,0,1,3.521-5.677,5.129,5.129,0,0,1,6.3,1.1,11.713,11.713,0,0,1,17.3,11.214c-.159,2.413-1.043,4.789-.77,7.191.161,1.413.718,2.844.346,4.217a4.372,4.372,0,0,1-2.293,2.6c-1.053.549-3.518.406-4.681.648-3.553,3.23-8.02,2.021-10.858-.864S340.155,223.108,340.155,223.108Z" transform="translate(-337.196 -210.101)" fill="#37474f"/>
          <path id="Trazado_108048" data-name="Trazado 108048" d="M339.19,228.789l-2.22,3.859,2.432.9Z" transform="translate(-336.97 -212.573)" fill="#ff9192"/>
          <path id="Trazado_108049" data-name="Trazado 108049" d="M339.215,225.556c.357-3.386,1.348-6.577,3.551-8.2a18.285,18.285,0,0,0,2.538,12.114,5.306,5.306,0,0,1,1.641-2.9,3.058,3.058,0,0,1,3.154-.673,3.111,3.111,0,0,1,1.586,1.728,4.111,4.111,0,0,1-5.138,5.431,7.9,7.9,0,0,0,6.07,6.148,10.178,10.178,0,0,0,5.885-.56l.918,4.562c-3.715,3.962-10.06,1.3-10.06,1.3l-.836-4.489c-7.305.434-7.986.31-8.791-3.715A39.364,39.364,0,0,1,339.215,225.556Z" transform="translate(-337.245 -211.061)" fill="#ffa8a7"/>
          <path id="Trazado_108050" data-name="Trazado 108050" d="M357.742,220.084a12.825,12.825,0,0,1,5.814-6.946,12.266,12.266,0,0,1,4.694,10.3c-.159,2.413-1.043,4.789-.771,7.191.161,1.413.718,2.844.346,4.217a4.372,4.372,0,0,1-2.293,2.6c-1.053.548-3.518.406-4.68.648-.154.139-.311.259-.467.383a35.544,35.544,0,0,1-2.891-7.418A19.016,19.016,0,0,1,357.742,220.084Z" transform="translate(-339.595 -210.503)" opacity="0.3"/>
          <path id="Trazado_108051" data-name="Trazado 108051" d="M360.046,217.212a9.309,9.309,0,0,1,17.749-.22c2.2,6.671-3.441,13.762-2.207,20.678.444,2.49,1.762,4.759,2.214,7.249a10.74,10.74,0,0,1-9.269,12.581c1.587-1.748,1.616-4.449.712-6.63s-2.515-3.976-3.906-5.884C359.731,237.294,357.285,226.321,360.046,217.212Z" transform="translate(-339.873 -210.167)" fill="#37474f"/>
        </g>
        <g id="Grupo_73110" data-name="Grupo 73110" transform="translate(0 20.041)">
          <path id="Trazado_108052" data-name="Trazado 108052" d="M337.582,247.2C329.79,248.774,321.9,268.7,321.9,268.7l-7.44-20.832,1.6-7.8a2.49,2.49,0,0,0-.1-1.349l-1.768-4.85a1.029,1.029,0,0,0-1.193-.651h0a1.029,1.029,0,0,0-.759,1.3l1.322,4.447-2.105-3.995a1.377,1.377,0,0,0-1.888-.562l-1.645.914a1.378,1.378,0,0,0-.548,1.85l1.847,3.485c-2.085,5.974-.226,7.721-.226,7.721l3.53,22.135a10.138,10.138,0,0,0,8.338,8.4h0a10.15,10.15,0,0,0,10.2-4.516C342.537,256.587,348.908,245.148,337.582,247.2Z" transform="translate(-307.211 -233.198)" fill="#ffa8a7"/>
          <path id="Trazado_108053" data-name="Trazado 108053" d="M322.67,277.923a22.319,22.319,0,0,1,1.183-4.191l-.9-2.536A7.316,7.316,0,0,0,322.67,277.923Z" transform="translate(-309.165 -238.226)" opacity="0.2"/>
          <path id="Trazado_108054" data-name="Trazado 108054" d="M340.291,249.281c-3.453.956-7.242,2.765-12.6,13.292.6,7.59,11.8,5.679,11.8,5.679,2.959-5.636,6.145-11.515,6.771-14.28C347.3,249.363,345.208,248.3,340.291,249.281Z" transform="translate(-309.92 -235.282)" fill="#1565c0"/>
        </g>
      </g>
    </g>
  </g>
</svg>
