<svg xmlns="http://www.w3.org/2000/svg" xmlns:xlink="http://www.w3.org/1999/xlink" width="306" height="364" viewBox="0 0 306 364">
  <defs>
    <filter id="Trazado_107799" x="12" y="12.404" width="178.708" height="225.169" filterUnits="userSpaceOnUse">
      <feOffset dy="3" input="SourceAlpha"/>
      <feGaussianBlur stdDeviation="3" result="blur"/>
      <feFlood flood-opacity="0.161"/>
      <feComposite operator="in" in2="blur"/>
      <feComposite in="SourceGraphic"/>
    </filter>
    <filter id="Trazado_107800" x="138.419" y="12.408" width="52.289" height="52.21" filterUnits="userSpaceOnUse">
      <feOffset dy="3" input="SourceAlpha"/>
      <feGaussianBlur stdDeviation="3" result="blur-2"/>
      <feFlood flood-opacity="0.251"/>
      <feComposite operator="in" in2="blur-2"/>
      <feComposite in="SourceGraphic"/>
    </filter>
    <filter id="Rectángulo_32218" x="25.941" y="28.835" width="63.436" height="23.622" filterUnits="userSpaceOnUse">
      <feOffset dy="3" input="SourceAlpha"/>
      <feGaussianBlur stdDeviation="3" result="blur-3"/>
      <feFlood flood-opacity="0.161"/>
      <feComposite operator="in" in2="blur-3"/>
      <feComposite in="SourceGraphic"/>
    </filter>
    <filter id="Rectángulo_32219" x="25.941" y="46.003" width="63.436" height="23.622" filterUnits="userSpaceOnUse">
      <feOffset dy="3" input="SourceAlpha"/>
      <feGaussianBlur stdDeviation="3" result="blur-4"/>
      <feFlood flood-opacity="0.161"/>
      <feComposite operator="in" in2="blur-4"/>
      <feComposite in="SourceGraphic"/>
    </filter>
    <filter id="Rectángulo_32220" x="25.941" y="61.899" width="148.642" height="23.622" filterUnits="userSpaceOnUse">
      <feOffset dy="3" input="SourceAlpha"/>
      <feGaussianBlur stdDeviation="3" result="blur-5"/>
      <feFlood flood-opacity="0.161"/>
      <feComposite operator="in" in2="blur-5"/>
      <feComposite in="SourceGraphic"/>
    </filter>
    <filter id="Rectángulo_32221" x="25.941" y="83.519" width="148.642" height="23.622" filterUnits="userSpaceOnUse">
      <feOffset dy="3" input="SourceAlpha"/>
      <feGaussianBlur stdDeviation="3" result="blur-6"/>
      <feFlood flood-opacity="0.161"/>
      <feComposite operator="in" in2="blur-6"/>
      <feComposite in="SourceGraphic"/>
    </filter>
    <filter id="Rectángulo_32222" x="25.941" y="110.225" width="148.642" height="23.622" filterUnits="userSpaceOnUse">
      <feOffset dy="3" input="SourceAlpha"/>
      <feGaussianBlur stdDeviation="3" result="blur-7"/>
      <feFlood flood-opacity="0.161"/>
      <feComposite operator="in" in2="blur-7"/>
      <feComposite in="SourceGraphic"/>
    </filter>
    <filter id="Rectángulo_32223" x="25.941" y="136.932" width="148.642" height="23.622" filterUnits="userSpaceOnUse">
      <feOffset dy="3" input="SourceAlpha"/>
      <feGaussianBlur stdDeviation="3" result="blur-8"/>
      <feFlood flood-opacity="0.161"/>
      <feComposite operator="in" in2="blur-8"/>
      <feComposite in="SourceGraphic"/>
    </filter>
    <filter id="Rectángulo_32224" x="25.941" y="163.638" width="148.642" height="23.622" filterUnits="userSpaceOnUse">
      <feOffset dy="3" input="SourceAlpha"/>
      <feGaussianBlur stdDeviation="3" result="blur-9"/>
      <feFlood flood-opacity="0.161"/>
      <feComposite operator="in" in2="blur-9"/>
      <feComposite in="SourceGraphic"/>
    </filter>
    <filter id="Rectángulo_32225" x="25.941" y="196.703" width="148.642" height="23.622" filterUnits="userSpaceOnUse">
      <feOffset dy="3" input="SourceAlpha"/>
      <feGaussianBlur stdDeviation="3" result="blur-10"/>
      <feFlood flood-opacity="0.161"/>
      <feComposite operator="in" in2="blur-10"/>
      <feComposite in="SourceGraphic"/>
    </filter>
    <filter id="Trazado_107799-2" x="119.292" y="63.5" width="178.708" height="225.169" filterUnits="userSpaceOnUse">
      <feOffset dy="3" input="SourceAlpha"/>
      <feGaussianBlur stdDeviation="3" result="blur-11"/>
      <feFlood flood-opacity="0.161"/>
      <feComposite operator="in" in2="blur-11"/>
      <feComposite in="SourceGraphic"/>
    </filter>
    <filter id="Trazado_107800-2" x="245.711" y="63.505" width="52.289" height="52.209" filterUnits="userSpaceOnUse">
      <feOffset dy="3" input="SourceAlpha"/>
      <feGaussianBlur stdDeviation="3" result="blur-12"/>
      <feFlood flood-opacity="0.251"/>
      <feComposite operator="in" in2="blur-12"/>
      <feComposite in="SourceGraphic"/>
    </filter>
    <filter id="Rectángulo_32218-2" x="133.233" y="79.931" width="63.436" height="23.622" filterUnits="userSpaceOnUse">
      <feOffset dy="3" input="SourceAlpha"/>
      <feGaussianBlur stdDeviation="3" result="blur-13"/>
      <feFlood flood-opacity="0.161"/>
      <feComposite operator="in" in2="blur-13"/>
      <feComposite in="SourceGraphic"/>
    </filter>
    <filter id="Rectángulo_32219-2" x="133.233" y="97.099" width="63.436" height="23.622" filterUnits="userSpaceOnUse">
      <feOffset dy="3" input="SourceAlpha"/>
      <feGaussianBlur stdDeviation="3" result="blur-14"/>
      <feFlood flood-opacity="0.161"/>
      <feComposite operator="in" in2="blur-14"/>
      <feComposite in="SourceGraphic"/>
    </filter>
    <filter id="Rectángulo_32220-2" x="133.233" y="112.996" width="148.642" height="23.622" filterUnits="userSpaceOnUse">
      <feOffset dy="3" input="SourceAlpha"/>
      <feGaussianBlur stdDeviation="3" result="blur-15"/>
      <feFlood flood-opacity="0.161"/>
      <feComposite operator="in" in2="blur-15"/>
      <feComposite in="SourceGraphic"/>
    </filter>
    <filter id="Rectángulo_32221-2" x="133.233" y="134.615" width="148.642" height="23.622" filterUnits="userSpaceOnUse">
      <feOffset dy="3" input="SourceAlpha"/>
      <feGaussianBlur stdDeviation="3" result="blur-16"/>
      <feFlood flood-opacity="0.161"/>
      <feComposite operator="in" in2="blur-16"/>
      <feComposite in="SourceGraphic"/>
    </filter>
    <filter id="Rectángulo_32222-2" x="133.233" y="161.321" width="148.642" height="23.622" filterUnits="userSpaceOnUse">
      <feOffset dy="3" input="SourceAlpha"/>
      <feGaussianBlur stdDeviation="3" result="blur-17"/>
      <feFlood flood-opacity="0.161"/>
      <feComposite operator="in" in2="blur-17"/>
      <feComposite in="SourceGraphic"/>
    </filter>
    <filter id="Rectángulo_32223-2" x="133.233" y="188.028" width="148.642" height="23.622" filterUnits="userSpaceOnUse">
      <feOffset dy="3" input="SourceAlpha"/>
      <feGaussianBlur stdDeviation="3" result="blur-18"/>
      <feFlood flood-opacity="0.161"/>
      <feComposite operator="in" in2="blur-18"/>
      <feComposite in="SourceGraphic"/>
    </filter>
    <filter id="Rectángulo_32224-2" x="133.233" y="214.734" width="148.642" height="23.622" filterUnits="userSpaceOnUse">
      <feOffset dy="3" input="SourceAlpha"/>
      <feGaussianBlur stdDeviation="3" result="blur-19"/>
      <feFlood flood-opacity="0.161"/>
      <feComposite operator="in" in2="blur-19"/>
      <feComposite in="SourceGraphic"/>
    </filter>
    <filter id="Rectángulo_32225-2" x="133.233" y="247.799" width="148.642" height="23.622" filterUnits="userSpaceOnUse">
      <feOffset dy="3" input="SourceAlpha"/>
      <feGaussianBlur stdDeviation="3" result="blur-20"/>
      <feFlood flood-opacity="0.161"/>
      <feComposite operator="in" in2="blur-20"/>
      <feComposite in="SourceGraphic"/>
    </filter>
    <filter id="Trazado_107799-3" x="42.292" y="115.988" width="178.708" height="225.169" filterUnits="userSpaceOnUse">
      <feOffset dy="3" input="SourceAlpha"/>
      <feGaussianBlur stdDeviation="3" result="blur-21"/>
      <feFlood flood-opacity="0.161"/>
      <feComposite operator="in" in2="blur-21"/>
      <feComposite in="SourceGraphic"/>
    </filter>
    <filter id="Trazado_107800-3" x="168.711" y="115.993" width="52.289" height="52.209" filterUnits="userSpaceOnUse">
      <feOffset dy="3" input="SourceAlpha"/>
      <feGaussianBlur stdDeviation="3" result="blur-22"/>
      <feFlood flood-opacity="0.251"/>
      <feComposite operator="in" in2="blur-22"/>
      <feComposite in="SourceGraphic"/>
    </filter>
    <filter id="Rectángulo_32218-3" x="56.233" y="132.419" width="63.436" height="23.622" filterUnits="userSpaceOnUse">
      <feOffset dy="3" input="SourceAlpha"/>
      <feGaussianBlur stdDeviation="3" result="blur-23"/>
      <feFlood flood-opacity="0.161"/>
      <feComposite operator="in" in2="blur-23"/>
      <feComposite in="SourceGraphic"/>
    </filter>
    <filter id="Rectángulo_32219-3" x="56.233" y="149.587" width="63.436" height="23.622" filterUnits="userSpaceOnUse">
      <feOffset dy="3" input="SourceAlpha"/>
      <feGaussianBlur stdDeviation="3" result="blur-24"/>
      <feFlood flood-opacity="0.161"/>
      <feComposite operator="in" in2="blur-24"/>
      <feComposite in="SourceGraphic"/>
    </filter>
    <filter id="Rectángulo_32220-3" x="56.233" y="165.484" width="148.642" height="23.622" filterUnits="userSpaceOnUse">
      <feOffset dy="3" input="SourceAlpha"/>
      <feGaussianBlur stdDeviation="3" result="blur-25"/>
      <feFlood flood-opacity="0.161"/>
      <feComposite operator="in" in2="blur-25"/>
      <feComposite in="SourceGraphic"/>
    </filter>
    <filter id="Rectángulo_32221-3" x="56.233" y="187.104" width="148.642" height="23.622" filterUnits="userSpaceOnUse">
      <feOffset dy="3" input="SourceAlpha"/>
      <feGaussianBlur stdDeviation="3" result="blur-26"/>
      <feFlood flood-opacity="0.161"/>
      <feComposite operator="in" in2="blur-26"/>
      <feComposite in="SourceGraphic"/>
    </filter>
    <filter id="Rectángulo_32222-3" x="56.233" y="213.81" width="148.642" height="23.622" filterUnits="userSpaceOnUse">
      <feOffset dy="3" input="SourceAlpha"/>
      <feGaussianBlur stdDeviation="3" result="blur-27"/>
      <feFlood flood-opacity="0.161"/>
      <feComposite operator="in" in2="blur-27"/>
      <feComposite in="SourceGraphic"/>
    </filter>
    <filter id="Rectángulo_32223-3" x="56.233" y="240.516" width="148.642" height="23.622" filterUnits="userSpaceOnUse">
      <feOffset dy="3" input="SourceAlpha"/>
      <feGaussianBlur stdDeviation="3" result="blur-28"/>
      <feFlood flood-opacity="0.161"/>
      <feComposite operator="in" in2="blur-28"/>
      <feComposite in="SourceGraphic"/>
    </filter>
    <filter id="Rectángulo_32224-3" x="56.233" y="267.222" width="148.642" height="23.622" filterUnits="userSpaceOnUse">
      <feOffset dy="3" input="SourceAlpha"/>
      <feGaussianBlur stdDeviation="3" result="blur-29"/>
      <feFlood flood-opacity="0.161"/>
      <feComposite operator="in" in2="blur-29"/>
      <feComposite in="SourceGraphic"/>
    </filter>
    <filter id="Rectángulo_32225-3" x="56.233" y="300.287" width="148.642" height="23.622" filterUnits="userSpaceOnUse">
      <feOffset dy="3" input="SourceAlpha"/>
      <feGaussianBlur stdDeviation="3" result="blur-30"/>
      <feFlood flood-opacity="0.161"/>
      <feComposite operator="in" in2="blur-30"/>
      <feComposite in="SourceGraphic"/>
    </filter>
  </defs>
  <g id="Grupo_72904" data-name="Grupo 72904" transform="translate(-274 -7890)">
    <rect id="Rectángulo_31430" data-name="Rectángulo 31430" width="306" height="364" transform="translate(274 7890)" fill="none"/>
    <g id="Grupo_72901" data-name="Grupo 72901" transform="translate(897.38 6877.211)">
      <g transform="matrix(1, 0, 0, 1, -623.38, 1012.79)" filter="url(#Trazado_107799)">
        <path id="Trazado_107799-4" data-name="Trazado 107799" d="M-475.881,1031.193H-600.472a1.908,1.908,0,0,0-1.908,1.908v203.354a1.908,1.908,0,0,0,1.908,1.908h156.893a1.907,1.907,0,0,0,1.908-1.908V1064.016Z" transform="translate(623.38 -1012.79)" fill="#1565c0"/>
      </g>
      <g transform="matrix(1, 0, 0, 1, -623.38, 1012.79)" filter="url(#Trazado_107800)">
        <path id="Trazado_107800-4" data-name="Trazado 107800" d="M-401.657,1065.409a1.907,1.907,0,0,1-1.908-1.907v-32.3l34.289,32.818Z" transform="translate(550.98 -1012.79)" fill="#1565c0"/>
      </g>
      <g transform="matrix(1, 0, 0, 1, -623.38, 1012.79)" filter="url(#Rectángulo_32218)">
        <rect id="Rectángulo_32218-4" data-name="Rectángulo 32218" width="45.436" height="5.622" rx="2.811" transform="translate(34.94 34.83)" fill="#b2ebf2"/>
      </g>
      <g transform="matrix(1, 0, 0, 1, -623.38, 1012.79)" filter="url(#Rectángulo_32219)">
        <rect id="Rectángulo_32219-4" data-name="Rectángulo 32219" width="45.436" height="5.622" rx="2.811" transform="translate(34.94 52)" fill="#b2ebf2"/>
      </g>
      <g transform="matrix(1, 0, 0, 1, -623.38, 1012.79)" filter="url(#Rectángulo_32220)">
        <rect id="Rectángulo_32220-4" data-name="Rectángulo 32220" width="130.642" height="5.622" rx="2.811" transform="translate(34.94 67.9)" fill="#b2ebf2"/>
      </g>
      <g transform="matrix(1, 0, 0, 1, -623.38, 1012.79)" filter="url(#Rectángulo_32221)">
        <rect id="Rectángulo_32221-4" data-name="Rectángulo 32221" width="130.642" height="5.622" rx="2.811" transform="translate(34.94 89.52)" fill="#b2ebf2"/>
      </g>
      <g transform="matrix(1, 0, 0, 1, -623.38, 1012.79)" filter="url(#Rectángulo_32222)">
        <rect id="Rectángulo_32222-4" data-name="Rectángulo 32222" width="130.642" height="5.622" rx="2.811" transform="translate(34.94 116.22)" fill="#b2ebf2"/>
      </g>
      <g transform="matrix(1, 0, 0, 1, -623.38, 1012.79)" filter="url(#Rectángulo_32223)">
        <rect id="Rectángulo_32223-4" data-name="Rectángulo 32223" width="130.642" height="5.622" rx="2.811" transform="translate(34.94 142.93)" fill="#b2ebf2"/>
      </g>
      <g transform="matrix(1, 0, 0, 1, -623.38, 1012.79)" filter="url(#Rectángulo_32224)">
        <rect id="Rectángulo_32224-4" data-name="Rectángulo 32224" width="130.642" height="5.622" rx="2.811" transform="translate(34.94 169.64)" fill="#b2ebf2"/>
      </g>
      <g transform="matrix(1, 0, 0, 1, -623.38, 1012.79)" filter="url(#Rectángulo_32225)">
        <rect id="Rectángulo_32225-4" data-name="Rectángulo 32225" width="130.642" height="5.622" rx="2.811" transform="translate(34.94 202.7)" fill="#b2ebf2"/>
      </g>
    </g>
    <g id="Grupo_72903" data-name="Grupo 72903" transform="translate(1004.672 6928.307)">
      <g transform="matrix(1, 0, 0, 1, -730.67, 961.69)" filter="url(#Trazado_107799-2)">
        <path id="Trazado_107799-5" data-name="Trazado 107799" d="M-475.881,1031.193H-600.472a1.908,1.908,0,0,0-1.908,1.908v203.354a1.908,1.908,0,0,0,1.908,1.908h156.893a1.907,1.907,0,0,0,1.908-1.908V1064.016Z" transform="translate(730.67 -961.69)" fill="#b2ebf2"/>
      </g>
      <g transform="matrix(1, 0, 0, 1, -730.67, 961.69)" filter="url(#Trazado_107800-2)">
        <path id="Trazado_107800-5" data-name="Trazado 107800" d="M-401.657,1065.409a1.907,1.907,0,0,1-1.908-1.907v-32.3l34.289,32.818Z" transform="translate(658.28 -961.7)" fill="#b2ebf2"/>
      </g>
      <g transform="matrix(1, 0, 0, 1, -730.67, 961.69)" filter="url(#Rectángulo_32218-2)">
        <rect id="Rectángulo_32218-5" data-name="Rectángulo 32218" width="45.436" height="5.622" rx="2.811" transform="translate(142.23 85.93)" fill="#1565c0"/>
      </g>
      <g transform="matrix(1, 0, 0, 1, -730.67, 961.69)" filter="url(#Rectángulo_32219-2)">
        <rect id="Rectángulo_32219-5" data-name="Rectángulo 32219" width="45.436" height="5.622" rx="2.811" transform="translate(142.23 103.1)" fill="#1565c0"/>
      </g>
      <g transform="matrix(1, 0, 0, 1, -730.67, 961.69)" filter="url(#Rectángulo_32220-2)">
        <rect id="Rectángulo_32220-5" data-name="Rectángulo 32220" width="130.642" height="5.622" rx="2.811" transform="translate(142.23 119)" fill="#1565c0"/>
      </g>
      <g transform="matrix(1, 0, 0, 1, -730.67, 961.69)" filter="url(#Rectángulo_32221-2)">
        <rect id="Rectángulo_32221-5" data-name="Rectángulo 32221" width="130.642" height="5.622" rx="2.811" transform="translate(142.23 140.61)" fill="#1565c0"/>
      </g>
      <g transform="matrix(1, 0, 0, 1, -730.67, 961.69)" filter="url(#Rectángulo_32222-2)">
        <rect id="Rectángulo_32222-5" data-name="Rectángulo 32222" width="130.642" height="5.622" rx="2.811" transform="translate(142.23 167.32)" fill="#1565c0"/>
      </g>
      <g transform="matrix(1, 0, 0, 1, -730.67, 961.69)" filter="url(#Rectángulo_32223-2)">
        <rect id="Rectángulo_32223-5" data-name="Rectángulo 32223" width="130.642" height="5.622" rx="2.811" transform="translate(142.23 194.03)" fill="#1565c0"/>
      </g>
      <g transform="matrix(1, 0, 0, 1, -730.67, 961.69)" filter="url(#Rectángulo_32224-2)">
        <rect id="Rectángulo_32224-5" data-name="Rectángulo 32224" width="130.642" height="5.622" rx="2.811" transform="translate(142.23 220.73)" fill="#1565c0"/>
      </g>
      <g transform="matrix(1, 0, 0, 1, -730.67, 961.69)" filter="url(#Rectángulo_32225-2)">
        <rect id="Rectángulo_32225-5" data-name="Rectángulo 32225" width="130.642" height="5.622" rx="2.811" transform="translate(142.23 253.8)" fill="#1565c0"/>
      </g>
    </g>
    <g id="Grupo_72902" data-name="Grupo 72902" transform="translate(927.672 6980.795)">
      <g transform="matrix(1, 0, 0, 1, -653.67, 909.2)" filter="url(#Trazado_107799-3)">
        <path id="Trazado_107799-6" data-name="Trazado 107799" d="M-475.881,1031.193H-600.472a1.908,1.908,0,0,0-1.908,1.908v203.354a1.908,1.908,0,0,0,1.908,1.908h156.893a1.907,1.907,0,0,0,1.908-1.908V1064.016Z" transform="translate(653.67 -909.2)" fill="#e8e8e8"/>
      </g>
      <g transform="matrix(1, 0, 0, 1, -653.67, 909.2)" filter="url(#Trazado_107800-3)">
        <path id="Trazado_107800-6" data-name="Trazado 107800" d="M-401.657,1065.409a1.907,1.907,0,0,1-1.908-1.907v-32.3l34.289,32.818Z" transform="translate(581.28 -909.21)" fill="#e8e8e8"/>
      </g>
      <g transform="matrix(1, 0, 0, 1, -653.67, 909.2)" filter="url(#Rectángulo_32218-3)">
        <rect id="Rectángulo_32218-6" data-name="Rectángulo 32218" width="45.436" height="5.622" rx="2.811" transform="translate(65.23 138.42)" fill="#fb8c00"/>
      </g>
      <g transform="matrix(1, 0, 0, 1, -653.67, 909.2)" filter="url(#Rectángulo_32219-3)">
        <rect id="Rectángulo_32219-6" data-name="Rectángulo 32219" width="45.436" height="5.622" rx="2.811" transform="translate(65.23 155.59)" fill="#fb8c00"/>
      </g>
      <g transform="matrix(1, 0, 0, 1, -653.67, 909.2)" filter="url(#Rectángulo_32220-3)">
        <rect id="Rectángulo_32220-6" data-name="Rectángulo 32220" width="130.642" height="5.622" rx="2.811" transform="translate(65.23 171.48)" fill="#fb8c00"/>
      </g>
      <g transform="matrix(1, 0, 0, 1, -653.67, 909.2)" filter="url(#Rectángulo_32221-3)">
        <rect id="Rectángulo_32221-6" data-name="Rectángulo 32221" width="130.642" height="5.622" rx="2.811" transform="translate(65.23 193.1)" fill="#fb8c00"/>
      </g>
      <g transform="matrix(1, 0, 0, 1, -653.67, 909.2)" filter="url(#Rectángulo_32222-3)">
        <rect id="Rectángulo_32222-6" data-name="Rectángulo 32222" width="130.642" height="5.622" rx="2.811" transform="translate(65.23 219.81)" fill="#fb8c00"/>
      </g>
      <g transform="matrix(1, 0, 0, 1, -653.67, 909.2)" filter="url(#Rectángulo_32223-3)">
        <rect id="Rectángulo_32223-6" data-name="Rectángulo 32223" width="130.642" height="5.622" rx="2.811" transform="translate(65.23 246.52)" fill="#fb8c00"/>
      </g>
      <g transform="matrix(1, 0, 0, 1, -653.67, 909.2)" filter="url(#Rectángulo_32224-3)">
        <rect id="Rectángulo_32224-6" data-name="Rectángulo 32224" width="130.642" height="5.622" rx="2.811" transform="translate(65.23 273.22)" fill="#fb8c00"/>
      </g>
      <g transform="matrix(1, 0, 0, 1, -653.67, 909.2)" filter="url(#Rectángulo_32225-3)">
        <rect id="Rectángulo_32225-6" data-name="Rectángulo 32225" width="130.642" height="5.622" rx="2.811" transform="translate(65.23 306.29)" fill="#fb8c00"/>
      </g>
    </g>
  </g>
</svg>
