<svg xmlns="http://www.w3.org/2000/svg" width="47" height="46" viewBox="0 0 47 46">
  <g id="Grupo_71681" data-name="Grupo 71681" transform="translate(-912 -988)">
    <rect id="Rectángulo_32112" data-name="Rectángulo 32112" width="47" height="46" transform="translate(912 988)" fill="none"/>
    <g id="Grupo_71680" data-name="Grupo 71680" transform="translate(-534.409 758.805)">
      <path id="Trazado_105912" data-name="Trazado 105912" d="M1904.391,231.441a.409.409,0,0,1,.364.307c.06.188.113.378.173.566a1.482,1.482,0,0,0,1.026,1.041c.23.069.436.164.447.439s-.186.393-.417.46a1.591,1.591,0,0,0-1.106,1.181c-.032.108-.061.218-.09.327-.062.238-.177.424-.458.412-.255-.01-.37-.172-.41-.407a1.8,1.8,0,0,0-1.318-1.554.394.394,0,0,1-.3-.412.39.39,0,0,1,.315-.4,1.732,1.732,0,0,0,1.277-1.482C1903.948,231.672,1904.036,231.449,1904.391,231.441Z" transform="translate(-415.041)" fill="#fb8c00"/>
      <path id="Trazado_105914" data-name="Trazado 105914" d="M1747.234,499.721c-.3-.017-.41-.1-.365-.389a1.161,1.161,0,0,0,0-.3,2.565,2.565,0,0,1,.779-2.222,3.4,3.4,0,0,0-.535-5.056c-.362-.272-.739-.525-1.116-.775s-.634-.159-.773.267a1.69,1.69,0,0,1-1.767,1.3c-1.093,0-2.185,0-3.278,0-.965,0-1.93,0-2.894,0a3.2,3.2,0,0,0-3.438,3.457c0,1.107-.009,2.214.006,3.32,0,.274-.041.384-.356.4a2.164,2.164,0,0,0,.073,4.318c.367.007.49.128.587.462a6.5,6.5,0,0,0,12.413,0c.1-.34.215-.457.581-.464a2.164,2.164,0,0,0,.084-4.32Zm-13.651,3.485a1.354,1.354,0,0,1-1.227-1.245,1.339,1.339,0,0,1,1.1-1.395c.28-.043.42.016.391.341s-.006.649-.006.975h.018c0,.339-.021.68.007,1.017C1733.889,503.139,1733.837,503.224,1733.583,503.205ZM1744.873,506a5.673,5.673,0,0,1-10.184-3.34,3.472,3.472,0,0,1,.807-2.738,14.9,14.9,0,0,0,1.262-1.759.506.506,0,0,1,.487-.249c1.049.011,2.1,0,3.148,0,1.021,0,2.042.007,3.063-.005a.549.549,0,0,1,.523.265c.611.886,1.241,1.759,1.863,2.638a.642.642,0,0,1,.172.335A6.954,6.954,0,0,1,1744.873,506Zm-10.193-7.777c-.01-.247.088-.322.321-.308.264.015.53,0,.891,0l-1.119,1.578-.089-.048C1734.684,499.039,1734.7,498.63,1734.68,498.222ZM1744.9,498c.045-.04.063-.07.082-.071,1.034-.053,1.034-.053,1.034.979v.5l-.1.031Zm1.467-1.024c-.128.132-.292.089-.443.089q-2.7,0-5.4,0c-1.8,0-3.6-.009-5.4.008-.338,0-.455-.095-.429-.431.031-.395-.007-.792.044-1.189A2.281,2.281,0,0,1,1737,493.4c2.142-.015,4.284-.008,6.426-.005a2.6,2.6,0,0,0,2.33-1.234c.064-.1.087-.235.279-.128a2.743,2.743,0,0,1,1.31,3.776A5.227,5.227,0,0,1,1746.362,496.976Zm.744,6.23c-.2.007-.271-.042-.257-.257.022-.352.006-.707.006-1.06h.016c0-.34.018-.68-.006-1.018-.02-.282.094-.336.345-.311a1.329,1.329,0,0,1-.1,2.646Z" transform="translate(-258.79 -237.311)" fill="#fb8c00"/>
      <path id="Trazado_105915" data-name="Trazado 105915" d="M1453.66,272.64c.88,0,1.76.01,2.64,0a.41.41,0,0,1,.458.31,5.61,5.61,0,0,0,10.431,0,.408.408,0,0,1,.455-.314c.88.015,1.76.009,2.64,0,.524,0,.615-.1.618-.63,0-.582.005-1.164,0-1.746a39.452,39.452,0,0,0-.053-4.085,8.9,8.9,0,0,0-9.923-7.893,9.047,9.047,0,0,0-7.6,6.743.516.516,0,0,0,.265.673c.412.025.509-.255.6-.58a8.048,8.048,0,0,1,15.823,1.311c.07,1.672.02,3.348.037,5.022,0,.275-.109.333-.353.327-.582-.013-1.165-.026-1.745,0-.361.019-.416-.117-.392-.44.107-1.459.03-2.921.051-4.382.005-.387-.107-.636-.564-.683-.915-.1-1.825-.244-2.737-.367-1.783-.24-3.563-.5-5.35-.709a2.193,2.193,0,0,0-2.62,2.376c.007,1.29-.068,2.583.056,3.871.027.279-.079.338-.33.332-.582-.013-1.164-.023-1.745,0-.34.016-.437-.1-.428-.431.022-.822.01-1.646.005-2.469,0-.331-.05-.64-.491-.64-.336.053-.372.3-.372.571,0,1.064,0,2.129,0,3.193C1453.038,272.531,1453.143,272.637,1453.66,272.64Zm3.544-5.278a1.284,1.284,0,0,1,1.519-1.322c1.856.222,3.707.485,5.559.732.716.1,1.43.207,2.148.282.266.027.323.134.319.375-.013.652,0,1.3,0,2.085a12.691,12.691,0,0,1-.115,2.372,4.761,4.761,0,0,1-9.4-.612C1457.131,269.971,1457.187,268.665,1457.2,267.362Z" transform="translate(-4.034 -24.509)" fill="#fb8c00"/>
      <path id="Trazado_105916" data-name="Trazado 105916" d="M1693.459,270.936q1.456.74,2.92,1.466a1.5,1.5,0,0,1,.744.6c.112.212.316.211.52.2.322-.206.325-.456.128-.759a2.168,2.168,0,0,0-.9-.749c-.84-.419-1.678-.843-2.575-1.3.83-.42,1.586-.838,2.371-1.189a2.531,2.531,0,0,0,1.422-1.578,7.986,7.986,0,1,1,8.212,10.726,7.843,7.843,0,0,1-6.728-2.691c-.222-.247-.436-.407-.765-.214-.219.26-.144.485.064.714a8.552,8.552,0,0,0,8.307,2.906,8.738,8.738,0,0,0,7.179-9.695,8.835,8.835,0,0,0-17.137-1.854,1.374,1.374,0,0,1-.739.822c-1.019.492-2.025,1.01-3.034,1.519-.237.119-.535.2-.529.538S1693.226,270.817,1693.459,270.936Z" transform="translate(-223.487 -27.555)" fill="#fb8c00"/>
      <path id="Trazado_105917" data-name="Trazado 105917" d="M1479.511,502.743c-1.023-.516-2.045-1.033-3.073-1.538a1.323,1.323,0,0,1-.7-.8,8.829,8.829,0,0,0-17.091,4.119c.052.339.188.561.568.544a.532.532,0,0,0,.284-.639,8.2,8.2,0,0,1,.071-2.751,7.984,7.984,0,0,1,9.163-6.273,7.826,7.826,0,0,1,6.21,5.314,2.071,2.071,0,0,0,1.1,1.23c.741.354,1.471.732,2.2,1.109.112.058.28.062.319.247-.725.364-1.431.761-2.171,1.078a2.8,2.8,0,0,0-1.585,1.758,7.961,7.961,0,0,1-14,1.61c-.181-.258-.357-.491-.723-.337a.473.473,0,0,0-.055.713,8.839,8.839,0,0,0,15.7-1.99,1.394,1.394,0,0,1,.729-.828c1.03-.5,2.05-1.022,3.073-1.539.223-.113.491-.193.485-.521S1479.732,502.855,1479.511,502.743Z" transform="translate(-9.077 -240.611)" fill="#fb8c00"/>
      <path id="Trazado_105918" data-name="Trazado 105918" d="M1452.461,678.938a1.821,1.821,0,0,1-1.349-1.577c-.054-.231-.163-.393-.42-.4-.282-.007-.4.179-.451.419a1.783,1.783,0,0,1-1.32,1.548.385.385,0,0,0-.3.374.369.369,0,0,0,.255.4,1.869,1.869,0,0,1,1.384,1.647.391.391,0,0,0,.422.345.4.4,0,0,0,.4-.316c.023-.082.053-.161.073-.244a1.666,1.666,0,0,1,1.217-1.383.4.4,0,0,0,.347-.407A.366.366,0,0,0,1452.461,678.938Zm-1.3.518c-.154.165-.3.334-.471.521-.2-.222-.533-.423-.56-.658-.021-.182.334-.408.548-.644l.538.579C1451.3,679.35,1451.216,679.4,1451.16,679.456Z" transform="translate(0 -407.58)" fill="#fb8c00"/>
      <path id="Trazado_105919" data-name="Trazado 105919" d="M1647,446.346c-.226.066-.436.151-.456.43-.021.31.209.413.44.491a1.6,1.6,0,0,1,1.118,1.27c.014.069.043.135.056.2.047.247.159.427.44.426.256,0,.376-.157.425-.391.02-.1.053-.191.08-.286a1.634,1.634,0,0,1,1.145-1.25c.217-.061.392-.169.395-.431,0-.285-.193-.389-.422-.455a1.5,1.5,0,0,1-1.052-1.068q-.082-.262-.16-.526a.432.432,0,0,0-.4-.327c-.294.014-.4.2-.464.462A1.723,1.723,0,0,1,1647,446.346Zm1.545-.169c.1-.046.116,0,.131.037.106.254.508.386.443.641-.054.212-.349.375-.514.644a3.454,3.454,0,0,0-.63-.683A3.356,3.356,0,0,0,1648.544,446.178Z" transform="translate(-181.063 -194.854)" fill="#fb8c00"/>
      <path id="Trazado_105920" data-name="Trazado 105920" d="M1706.925,486.3a1.722,1.722,0,0,1,1.262-1.449.43.43,0,0,0,.329-.5c-.022-.192-.188-.3-.409-.361a1.594,1.594,0,0,1-1.111-1.178c-.042-.135-.068-.275-.111-.409a.42.42,0,0,0-.429-.341.415.415,0,0,0-.41.361c-.026.11-.058.219-.089.327a1.629,1.629,0,0,1-1.149,1.247c-.221.062-.387.171-.389.433s.17.371.384.441a1.7,1.7,0,0,1,1.2,1.4c.049.262.127.523.449.528S1706.859,486.569,1706.925,486.3Zm-.466-1.265a2.056,2.056,0,0,1-.542-.518c-.088-.092,0-.143.058-.2.163-.172.322-.349.5-.545a2.735,2.735,0,0,0,.346.413c.227.181.256.327,0,.5C1706.673,484.781,1706.59,485.095,1706.458,485.037Z" transform="translate(-234.009 -229.283)" fill="#fb8c00"/>
      <path id="Trazado_105921" data-name="Trazado 105921" d="M1453.627,355.834c.27-.033.5-.115.524-.441s-.157-.462-.447-.507a.44.44,0,0,0-.438.414A.492.492,0,0,0,1453.627,355.834Z" transform="translate(-4.243 -112.933)" fill="#fb8c00"/>
      <path id="Trazado_105922" data-name="Trazado 105922" d="M1465.905,629.05c.139-.152.3-.293.206-.537a.474.474,0,0,0-.532-.3.458.458,0,0,0-.247.6C1465.436,629.072,1465.671,629.074,1465.905,629.05Z" transform="translate(-15.249 -362.985)" fill="#fb8c00"/>
      <path id="Trazado_105923" data-name="Trazado 105923" d="M1749.541,407a.431.431,0,0,0-.151.581.424.424,0,0,0,.532.2c.183-.144.338-.3.217-.562A.427.427,0,0,0,1749.541,407Z" transform="translate(-275.098 -160.569)" fill="#fb8c00"/>
      <path id="Trazado_105924" data-name="Trazado 105924" d="M1795.2,328.844c-.286.02-.466-.4-.721-.6a2.179,2.179,0,0,0-1.373-.489,2.138,2.138,0,0,0-2.022,1.3,2.055,2.055,0,0,0,.388,2.368c1.1,1.147,2.238,2.254,3.359,3.379a.437.437,0,0,0,.7.017c1.142-1.144,2.316-2.259,3.414-3.443a2.166,2.166,0,0,0-1.02-3.526,2.117,2.117,0,0,0-2.036.413C1795.654,328.456,1795.445,328.827,1795.2,328.844Zm1.131.166a1.346,1.346,0,1,1,1.882,1.922c-.925.94-1.866,1.863-2.793,2.8-.154.156-.252.213-.437.023-.942-.962-1.9-1.905-2.85-2.864a1.279,1.279,0,0,1-.269-1.491,1.254,1.254,0,0,1,1.2-.79,1.3,1.3,0,0,1,.995.407c.255.246.507.5.753.751a.462.462,0,0,0,.764-.008C1795.825,329.5,1796.074,329.251,1796.333,329.01Z" transform="translate(-313.107 -88.105)" fill="#fb8c00"/>
      <path id="Trazado_105925" data-name="Trazado 105925" d="M1854.714,297.237a6.362,6.362,0,0,1-1.968,1.151c-.234.087-.389.265-.3.526a.4.4,0,0,0,.578.26c.066-.025.135-.042.2-.068a6.812,6.812,0,0,0,4.416-6.117,7.014,7.014,0,0,0-2.416-5.5,6.93,6.93,0,0,0-2.96-1.516c-.3-.072-.56-.045-.629.3-.063.318.151.457.428.523.083.02.163.047.245.07a5.99,5.99,0,0,1,2.565,1.445,5.864,5.864,0,0,1,1.837,5.276A5.777,5.777,0,0,1,1854.714,297.237Z" transform="translate(-368.684 -49.861)" fill="#b2ebf2"/>
      <path id="Trazado_105926" data-name="Trazado 105926" d="M1837.372,435.866c-.328-.036-.657-.007-.649.426.006.326.261.426.566.419s.635-.04.656-.425C1837.966,435.93,1837.715,435.808,1837.372,435.866Z" transform="translate(-355.047 -187.004)" fill="#fb8c00"/>
      <path id="Trazado_105927" data-name="Trazado 105927" d="M1516.7,539.367a2.075,2.075,0,0,0-2.142,2.192c0,.85-.012,1.7,0,2.551a2.032,2.032,0,0,0,2.026,2.038c1.686.021,3.373,0,5.059.009.272,0,.491-.079.532-.369s-.128-.446-.4-.5c-1.715,0-3.43.016-5.145.009a1.193,1.193,0,0,1-1.169-.877c-.068-.233-.017-.3.223-.295.482.013.964,0,1.446,0a.4.4,0,0,0,.459-.393.41.41,0,0,0-.449-.454c-.34-.011-.68,0-1.021,0-.737,0-.724,0-.719-.747,0-.257.1-.3.321-.295.411.015.822,0,1.233.007.328.009.637-.036.631-.439,0-.371-.3-.429-.611-.418s-.652.013-.978,0c-.189-.008-.476.1-.545-.063-.089-.215.08-.459.234-.649a1.05,1.05,0,0,1,.717-.414c.281-.028.565-.03.848-.04a.8.8,0,0,0,.868-.876c.008-.3.007-.6,0-.893s.019-.607.4-.629.43.278.457.582a1.967,1.967,0,0,0,1.911,1.813c.3.012.594.016.891.023.27-.057.447-.208.4-.5-.048-.321-.3-.367-.576-.375-1.473-.044-1.473-.046-1.846-1.451a1.245,1.245,0,0,0-1.329-.95,1.279,1.279,0,0,0-1.151,1.17c-.016.212-.008.425-.009.638C1517.266,539.351,1517.267,539.351,1516.7,539.367Z" transform="translate(-60.31 -279.5)" fill="#fb8c00"/>
      <path id="Trazado_105928" data-name="Trazado 105928" d="M1484.288,536.269a6.634,6.634,0,0,0-2.231,6.075,6.778,6.778,0,0,0,6.719,5.855c.17,0,.341.01.511,0a6.55,6.55,0,0,0,1.938-.422c.252-.1.426-.276.3-.556a.406.406,0,0,0-.591-.24,2.155,2.155,0,0,1-.241.081,5.858,5.858,0,0,1-3.506.065,5.972,5.972,0,0,1-3.334-9.081,8.8,8.8,0,0,1,1.032-1.182.392.392,0,0,0-.014-.6C1484.676,536.052,1484.493,536.082,1484.288,536.269Z" transform="translate(-30.518 -278.729)" fill="#b2ebf2"/>
      <path id="Trazado_105929" data-name="Trazado 105929" d="M1602.516,651.154c.3.019.848-.5.839-.771a.36.36,0,0,0-.352-.391c-.343,0-.89.482-.875.743A.4.4,0,0,0,1602.516,651.154Z" transform="translate(-140.43 -382.907)" fill="#fb8c00"/>
      <path id="Trazado_105930" data-name="Trazado 105930" d="M1556.436,282.815a6.555,6.555,0,0,1,1.456,1.16.4.4,0,0,0,.63.046c.215-.21.172-.422-.021-.632a6.975,6.975,0,0,0-4.971-2.255c-.278,0-.527.1-.543.41s.192.422.5.441A6.567,6.567,0,0,1,1556.436,282.815Z" transform="translate(-95.473 -45.462)" fill="#fb8c00"/>
      <path id="Trazado_105931" data-name="Trazado 105931" d="M1622.21,324.436a.45.45,0,0,0,.266-.477,3.357,3.357,0,0,0-.349-.778.388.388,0,0,0-.534-.206.376.376,0,0,0-.217.5,4.494,4.494,0,0,0,.358.808A.349.349,0,0,0,1622.21,324.436Z" transform="translate(-158.017 -83.703)" fill="#fb8c00"/>
      <path id="Trazado_105935" data-name="Trazado 105935" d="M1813.848,646.646c-.295-.155-.5-.013-.643.278a1.466,1.466,0,0,1-2.685-.007c-.129-.275-.33-.413-.609-.286-.32.146-.284.419-.149.686a2.313,2.313,0,0,0,4.207-.006C1814.095,647.061,1814.133,646.8,1813.848,646.646Z" transform="translate(-330.292 -379.788)" fill="#fb8c00"/>
      <path id="Trazado_105936" data-name="Trazado 105936" d="M1830.511,606.858a.4.4,0,0,0,.43.424.391.391,0,0,0,.41-.4c.015-.564.016-1.13,0-1.694a.371.371,0,0,0-.428-.371.375.375,0,0,0-.409.391c-.012.268,0,.536,0,.8S1830.5,606.576,1830.511,606.858Z" transform="translate(-349.36 -341.578)" fill="#fb8c00"/>
      <path id="Trazado_105937" data-name="Trazado 105937" d="M1797.687,600.591c-.373.011-.427.3-.4.611-.026.321.061.59.434.578s.422-.3.42-.609S1798.054,600.58,1797.687,600.591Z" transform="translate(-318.962 -337.713)" fill="#fb8c00"/>
      <path id="Trazado_105938" data-name="Trazado 105938" d="M1864.112,600.6c-.365-.018-.459.249-.457.57,0,.416.158.654.451.624.34-.035.433-.268.4-.573C1864.533,600.906,1864.484,600.613,1864.112,600.6Z" transform="translate(-379.686 -337.716)" fill="#fb8c00"/>
      <path id="Trazado_105939" data-name="Trazado 105939" d="M1534.161,422.9a2.4,2.4,0,0,0,2.332-1.363c.112-.26.144-.51-.152-.655s-.484,0-.61.268a1.471,1.471,0,0,1-2.7.015c-.124-.265-.312-.424-.6-.287-.322.151-.285.417-.152.685A2.213,2.213,0,0,0,1534.161,422.9Z" transform="translate(-76.435 -173.255)" fill="#fb8c00"/>
      <path id="Trazado_105940" data-name="Trazado 105940" d="M1553.392,381.462a.4.4,0,0,0,.418-.433c.01-.254,0-.508,0-.763,0-.283.006-.565,0-.848a.389.389,0,0,0-.417-.43.375.375,0,0,0-.416.387c-.016.564-.017,1.13,0,1.694A.38.38,0,0,0,1553.392,381.462Z" transform="translate(-95.454 -134.983)" fill="#fb8c00"/>
      <path id="Trazado_105941" data-name="Trazado 105941" d="M1586.806,376.042c.363,0,.442-.279.438-.594s-.042-.588-.431-.591-.439.276-.422.609C1586.363,375.757,1586.437,376.041,1586.806,376.042Z" transform="translate(-126.029 -131.202)" fill="#fb8c00"/>
      <path id="Trazado_105942" data-name="Trazado 105942" d="M1519.979,376.04c.365.011.458-.262.436-.584.014-.3-.013-.592-.408-.6s-.443.26-.447.574S1519.615,376.028,1519.979,376.04Z" transform="translate(-64.894 -131.2)" fill="#fb8c00"/>
    </g>
  </g>
</svg>
