<svg xmlns="http://www.w3.org/2000/svg" width="47" height="46" viewBox="0 0 47 46">
  <g id="Grupo_71683" data-name="Grupo 71683" transform="translate(-1225 -988)">
    <rect id="Rectángulo_32113" data-name="Rectángulo 32113" width="47" height="46" transform="translate(1225 988)" fill="none"/>
    <g id="Grupo_71682" data-name="Grupo 71682" transform="translate(1193.679 948.362)">
      <path id="Trazado_105943" data-name="Trazado 105943" d="M59.228,128.156H43.068c-.66,0-1.321-.026-1.98-.008a1.726,1.726,0,0,0-1.65,2.014c.067.412.158.819.237,1.229a14.591,14.591,0,0,0,.282,1.5.365.365,0,0,0,.017.063c.234,1.569.543,3.124.838,4.682a3,3,0,0,0,.391,1.38,1.52,1.52,0,0,0,1.356.8c1.171.022,2.344,0,3.515,0H68c.255,0,.511.021.766.008a1.713,1.713,0,0,0,1.575-1.287c.108-.456.165-.924.245-1.386.181-.964.367-1.927.54-2.892.24-1.335.47-2.672.7-4.008a1.421,1.421,0,0,0-.234-1.311,1.567,1.567,0,0,0-1.408-.8c-.648-.019-1.3-.012-1.946,0-.2,0-.254-.054-.248-.249.011-.378,0-.756-.009-1.134,0-.214.01-.428.013-.642s.029-.41-.2-.524c-.244-.122-.4.026-.559.177-1.111.732-2.223,1.461-3.33,2.2a.952.952,0,0,1-.56.173c-1.374,0-2.748,0-4.122.009Zm1.949,3.87h1.544c.568.031.569.031.653-.517a.944.944,0,0,0,0-.117l.463-1.894.007-.029.007-.028h.022l1.427-.012h.016c.241-.011.374.05.425.339.118.677.307,1.342.442,2.017.04.2.11.264.31.259.662-.015,1.325-.013,1.988-.018a.26.26,0,0,1,.081.013c.115.04.079.168.081.27.006.32.009.64.013.96v.071a.564.564,0,0,1-.251.51c-.394.327-.767.681-1.159,1.011a.286.286,0,0,0-.087.41c.3.619.563,1.252.86,1.871a.308.308,0,0,1-.073.42c-.361.345-.717.7-1.06,1.06-.146.155-.23.156-.381,0-.489-.5-.995-.987-1.494-1.478-.01-.019-.02-.036-.029-.052-.152-.251-.3-.2-.507.021-.468.5-.975.968-1.445,1.469-.187.2-.3.195-.467-.006a3.167,3.167,0,0,0-.351-.335l-.057-.051a.15.15,0,0,0-.016-.037c-.23-.291-.7-.473-.7-.83a2.833,2.833,0,0,1,.424-1.027c.154-.342.3-.69.469-1.023a.281.281,0,0,0-.079-.411c-.414-.341-.816-.7-1.222-1.046a.578.578,0,0,1-.054-.055.591.591,0,0,1-.132-.437c.013-.292,0-.584-.007-.876,0-.028,0-.056,0-.084h0C60.81,132.112,60.922,132,61.177,132.026ZM49.545,134.47c-.713.505-.669.569-.3,1.37.077.17.167.335.251.5l.008.019c.051.127.11.251.148.382.062.208.243.38.244.606a.427.427,0,0,1-.017.124,16.707,16.707,0,0,0-1.289,1.289.708.708,0,0,1-.08-.029c-.32-.137-.47-.478-.744-.67-.018-.012-.036-.024-.055-.035h0c-.318-.329-.644-.651-.951-.99-.145-.159-.234-.157-.384,0-.515.535-1.051,1.05-1.566,1.585-.149.155-.236.158-.381,0a7.5,7.5,0,0,0-.774-.771c-.348-.286-.542-.578-.248-1.007l.023-.047c.25-.526.509-1.048.743-1.581.136-.31-.15-.379-.317-.514a.389.389,0,0,1-.05-.046,3.362,3.362,0,0,0-.567-.515c-.857-.482-.5-1.291-.562-1.985-.015-.175.151-.113.242-.114.635-.005,1.27-.009,1.905,0,.194,0,.272-.049.312-.254.137-.7.312-1.394.452-2.095.04-.2.121-.264.32-.258q.668.02,1.338,0c.189-.006.258.065.294.242.072.356.167.707.253,1.06l0,.014a4.9,4.9,0,0,0,.292,1.211c.008.017.015.035.023.052.673.007,1.347.025,2.02.017.246,0,.313.048.348.319A2.041,2.041,0,0,1,49.545,134.47Zm10.007-1.251c.008.121.009.241.013.362h0l-.005,0c-.464.422-.926.847-1.393,1.266-.114.1-.222.183-.126.366.164.316.313.638.467.96l.057.119c.12.283.225.574.366.847a.3.3,0,0,1-.076.419c-.36.344-.715.695-1.057,1.057-.142.15-.233.171-.38.006-.187-.209-.4-.392-.606-.586l-.055-.055-.795-.8-.053-.054c-.151-.276-.295-.261-.508-.035-.489.521-1.01,1.011-1.5,1.526-.15.157-.236.151-.38,0-.332-.354-.674-.7-1.029-1.029a.347.347,0,0,1-.091-.484c.258-.517.485-1.048.725-1.574s.24-.525-.244-.891l-.066-.064a8.107,8.107,0,0,0-.827-.727c-.02-.014-.038-.03-.058-.044a.565.565,0,0,1-.17-.544c.027-.4-.17-.931.076-1.16.211-.2.739-.051,1.127-.067s.922.168,1.173-.072.215-.75.3-1.143a7.079,7.079,0,0,0,.2-.946c.033-.394.225-.47.579-.444.415.03.835,0,1.252-.006l.023.02c.219.2.156.489.238.733.037.111.068.223.1.336.014.051.028.1.043.153a.636.636,0,0,0,0,.12c.091.4.065.926.313,1.177s.767.055,1.167.071.9-.128,1.127.066S59.529,132.835,59.552,133.219Z" transform="translate(-2.996 -57.414)" fill="#b2ebf2"/>
      <path id="Trazado_105944" data-name="Trazado 105944" d="M74.993,60.846a1.984,1.984,0,0,0,.315-1.8L75.279,59c-.1-.165-.189-.334-.3-.491a.166.166,0,0,1,0-.241,2.414,2.414,0,0,0,.417-.935c0-.008,0-.015,0-.022a2.053,2.053,0,0,0-.408-1.385c-.086-.107-.059-.172,0-.279a1.935,1.935,0,0,0-.671-2.912l-.029-.011a3.268,3.268,0,0,0-1.244-.193l-.095,0c-1.129,0-2.258.016-3.387.009a.635.635,0,0,1-.67-.694c-.008-.362.006-.725.011-1.088V49.21h0c0-.5-.033-1-.009-1.5a2.762,2.762,0,0,0-1.465-2.724l-.038-.013a3.575,3.575,0,0,0-1.18-.236h-.082a1.421,1.421,0,0,0-1.147,1.147v.086l0,1.458a14.483,14.483,0,0,1-.144,3.342,4.908,4.908,0,0,1-4.278,3.684c-.151.014-.25,0-.319-.154a2.136,2.136,0,0,0-1.094-1.021,6.424,6.424,0,0,0-1.367-.1l-.091,0c-.712,0-1.424,0-2.136.02-.256.008-.309-.069-.307-.313a21.241,21.241,0,0,0-.091-3.018l-.011-.042-.3-1.144-.008-.032a8.753,8.753,0,0,0-2.269-3.316l-.054-.04-.892-.663-.046-.034a8.388,8.388,0,0,0-4.521-1.157h-.01a14.319,14.319,0,0,0-1.805.313l-.131.029a9.539,9.539,0,0,0-2.378,1.266,8.148,8.148,0,0,0-2.748,3.92c-.01.041-.018.082-.027.122a14.413,14.413,0,0,0-.3,1.746v.015a14.278,14.278,0,0,1-.372,4.308,27.861,27.861,0,0,0-.906,2.744c0,.029,0,.058,0,.087a7.606,7.606,0,0,0,.061,1.354l0,.017a4.614,4.614,0,0,0,2.06,2.892c.162.1.129.16.012.262a9.11,9.11,0,0,0-1.906,2.448c-.028.061-.054.122-.08.184a12.188,12.188,0,0,0-.7,2.176l0,.02a11.486,11.486,0,0,0-.1,1.838c.017.241-.075.3-.3.357a3,3,0,0,0-2.246,3.479c.124.717.241,1.435.361,2.152h0c.011.039.021.078.031.117a14.119,14.119,0,0,1,.258,1.39l.009.061.832,4.618c.014.041.029.082.044.123a4.611,4.611,0,0,0,.475,1l.02.03a3.238,3.238,0,0,0,2.8,1.218c.562-.025,1.127,0,1.691.009H65.163c.108,0,.216-.012.324-.013a3.023,3.023,0,0,0,3.185-2.628c.072-.37.154-.739.231-1.108,0-.033.009-.065.014-.1.085-.64.2-1.276.346-1.9.011-.045.02-.09.031-.135h0c.153-.886.327-1.77.454-2.66a9.843,9.843,0,0,0,.36-3.543c-.017-.044-.035-.088-.053-.131a4.635,4.635,0,0,0-.532-.974l-.043-.058a3.737,3.737,0,0,0-1.176-.827,3.549,3.549,0,0,0-1.624-.217c-.331.024-.409-.094-.384-.4s0-.591,0-.887c-.015-.048-.032-.095-.05-.141a2.1,2.1,0,0,0-.683-.931,1.816,1.816,0,0,0-2.045.17c-.985.685-1.994,1.335-2.989,2.007a.919.919,0,0,1-.56.177c-.783-.016-1.566-.013-2.349-.018-.323.083-.452-.026-.414-.372a8.019,8.019,0,0,0,.01-.834,9.363,9.363,0,0,0-.967-3.328c.739,0,1.421-.007,2.1,0a1.964,1.964,0,0,0,1.906-1.117c.193-.371.525-.155.787-.158a1.715,1.715,0,0,1,.56.2l1.5.4.062.016,5.334.023h1.544c1.092,0,2.183-.016,3.275-.011a1.932,1.932,0,0,0,1.838-1.024,1.841,1.841,0,0,0-.128-2.056C74.947,61.05,74.889,60.979,74.993,60.846ZM39.738,57.977a2.976,2.976,0,0,1,.314-1.062c.164-.443.324-.888.486-1.333a.054.054,0,0,1,0-.012.166.166,0,0,1,.017-.036,17.8,17.8,0,0,0,.425-4.606,4.441,4.441,0,0,1,.393-1.879,6.471,6.471,0,0,1,9.175-3.5,3.522,3.522,0,0,1,1.069.728,5.948,5.948,0,0,1,2.1,3.319.285.285,0,0,1,.04.126,4.353,4.353,0,0,1,.182,1.435c.005.672.045,1.346.007,2.016a6.693,6.693,0,0,0,.578,2.932,9.4,9.4,0,0,1,.554,1.383,3.134,3.134,0,0,1-1.9,3.937.365.365,0,0,1-.3-.013c-.421-.208-.848-.4-1.273-.6l-1.415-.384c-.153-.006-.224-.116-.338-.253a5.222,5.222,0,0,0,1.326-.665l.661-.658a4.625,4.625,0,0,0,.829-2.966c-.034-1.17,0-2.342,0-3.514a7.669,7.669,0,0,0-.1-1.456,2.534,2.534,0,0,0-1.159-1.343c-.27-.135-.121-.325-.085-.482.073-.32.063-.539-.358-.453a.139.139,0,0,1-.04,0c-.51-.057-.853-.017-1.047.633a1.874,1.874,0,0,1-1.769,1.315c0,.338.024.677,0,1.012-.024.284.1.309.326.273a3.27,3.27,0,0,0,1.963-1.035c.206-.227.353-.177.544-.029a1.434,1.434,0,0,1,.408,1.4q0,.772,0,1.544c0,.945.034,1.891,0,2.836a2.56,2.56,0,0,1-2.43,2.429c-.917.032-1.836,0-2.754,0a2.1,2.1,0,0,1-1.325-.381,2.374,2.374,0,0,1-1.261-2.061c-.041-.8,0-1.611,0-2.417V52.619a.364.364,0,0,1-.007-.04c-.027-.694-.029-.7.585-.977a7.448,7.448,0,0,0,.849-.532l.257-.251c.146-.128.152-.357.333-.459a3.216,3.216,0,0,0,.556-1.416c.035-.21,0-.346-.255-.3a.633.633,0,0,1-.162,0c-.5-.045-.848-.023-1.055.63a1.847,1.847,0,0,1-1.973,1.31c-.383-.019-.457.107-.45.462.02.986,0,1.972-.005,2.959q0,.772,0,1.544a9.759,9.759,0,0,0,.118,1.806,4.159,4.159,0,0,0,1.516,2.265l1.118.6a.443.443,0,0,1-.369.268,10.256,10.256,0,0,0-2.289.742.7.7,0,0,1-.905.078A3.106,3.106,0,0,1,39.738,57.977ZM46,62.122c-.31-.474-.3-.65.051-1.085.025-.032.063-.061.072-.1.159-.659.652-.663,1.177-.6a.366.366,0,0,0,.041,0c1.175,0,1.173,0,1.783.966a.359.359,0,0,1,.016.307,1.8,1.8,0,0,1-1.805,1.323A1.683,1.683,0,0,1,46,62.122Zm.023,1.76a1.236,1.236,0,0,1-1.586.123,2,2,0,0,1-.878-1.646c-.022-.28.181-.285.352-.342.546-.184.546-.184.752.32A3.228,3.228,0,0,0,46.026,63.882Zm4.336-1.844c.048-.164.122-.186.258-.144l.039.012c.728.163.82.322.6,1.045A1.526,1.526,0,0,1,49.007,64a1.2,1.2,0,0,1-.137-.122A3.067,3.067,0,0,0,50.362,62.039Zm-8.17.82a.429.429,0,0,1,.1-.031,3.075,3.075,0,0,0,2.973,2.716,2.676,2.676,0,0,0,1.877-.879c.292-.344.457-.292.643.055,1.9,1.706,4.3.522,4.784-1.7.014-.062.023-.125.044-.247A6.082,6.082,0,0,1,54.036,64a3.7,3.7,0,0,1,.735.964,7.059,7.059,0,0,1,1.14,4.265c0,.162-.056.2-.21.2-.73-.007-1.461-.01-2.191,0-.209,0-.2-.106-.2-.252,0-.649-.025-1.3.012-1.947.02-.351-.1-.452-.414-.417-.288.015-.682-.076-.834.076s-.06.546-.076.833c0,.486,0,.973.017,1.459.007.2-.054.255-.248.248-.486-.017-.973-.013-1.459-.017H43c-.189-.27-.049-.572-.079-.857a5.6,5.6,0,0,1,.008-.674c0-.04-.01-.08-.013-.121-.026-.3.136-.768-.067-.878-.283-.153-.706-.046-1.069-.056-.238-.007-.16.169-.162.283-.006.676-.011,1.351,0,2.026,0,.225-.056.3-.289.294-.689-.015-1.378-.007-2.067,0-.145,0-.248.007-.252-.2A7.14,7.14,0,0,1,42.192,62.859Zm18.161,7.874a.952.952,0,0,0,.56-.173c1.106-.739,2.219-1.467,3.33-2.2.157-.152.315-.3.559-.177.228.114.2.324.2.524s-.008.428-.013.642c0,.378.02.757.009,1.134-.006.195.052.252.248.249.649-.011,1.3-.018,1.946,0a1.567,1.567,0,0,1,1.408.8,1.421,1.421,0,0,1,.234,1.311c-.234,1.336-.464,2.673-.7,4.008-.173.965-.36,1.928-.54,2.892-.08.463-.138.93-.245,1.386a1.713,1.713,0,0,1-1.575,1.287c-.255.012-.511,0-.766-.008H43.078c-1.172,0-2.344.026-3.515,0a1.52,1.52,0,0,1-1.356-.8,3,3,0,0,1-.391-1.38c-.295-1.558-.6-3.113-.838-4.682a.366.366,0,0,1-.017-.063,14.593,14.593,0,0,1-.282-1.5c-.08-.409-.17-.817-.237-1.229a1.726,1.726,0,0,1,1.65-2.014c.659-.018,1.32,0,1.98.008h16.16C57.606,70.737,58.979,70.729,60.353,70.732ZM59.141,60.581c0,.771.017,1.542.009,2.313a.635.635,0,0,1-.686.685c-.771.008-1.542-.005-2.313-.01-.477.078-.9.029-1.132-.477-.233-.223-.622-.423-.659-.674-.041-.282.427-.389.658-.593a4.459,4.459,0,0,0,1.272-4.86c-.081-.228-.164-.455-.246-.682a7.037,7.037,0,0,1-.461-1.145,1.808,1.808,0,0,1-.227-.636h2.5a.3.3,0,0,1,.04-.007c1.143-.043,1.261.067,1.259,1.194s-.009,2.231-.014,3.347Zm12.341.729c-.014.227.04.36.32.331a7.079,7.079,0,0,1,.83.006c.268,0,.537-.02.8-.009a.645.645,0,1,1-.007,1.29c-.671.011-1.342,0-2.014-.008H64.11a3.1,3.1,0,0,1-1.573-.219c-.243-.073-.489-.137-.728-.22a2.345,2.345,0,0,0-1.1-.2c-.218.03-.267-.063-.263-.268.014-.94.013-1.88.017-2.82q0-.773,0-1.545c0-.554,0-1.108-.017-1.662,0-.168.044-.248.218-.258a6.037,6.037,0,0,0,4.98-3.359,7.7,7.7,0,0,0,.657-3.627c-.029-.81,0-1.623-.011-2.434,0-.253.075-.3.3-.237a1.3,1.3,0,0,1,1,1.231c.011,1.1,0,2.19-.008,3.286l.008,1.543a2.015,2.015,0,0,0,2.285,1.7c.566,0,1.131.009,1.7.013h1.545a3.013,3.013,0,0,1,.361-.008.646.646,0,0,1,.612.629.631.631,0,0,1-.62.658c-.522.017-1.045,0-1.568-.006q-.5-.076-.421.421c.057.288-.126.687.08.842s.567.045.862.048c.337,0,.674-.009,1.011,0a.646.646,0,1,1-.01,1.292c-.539.013-1.079.015-1.618,0-.236-.007-.319.039-.319.3,0,1-.011,1,.988,1,.323,0,.646.008.97.013.432.068.661.3.646.662a.651.651,0,0,1-.7.622c-.307.007-.615-.007-.922-.011-.314.015-.745-.086-.91.079S71.5,61,71.483,61.31Z" fill="#fb8c00"/>
      <path id="Trazado_105945" data-name="Trazado 105945" d="M69.7,62.651c-.09.023-.076.1-.09.163,0,0,0,.01,0,.014a7.278,7.278,0,0,1,.006.83c-.024.241.069.313.238.315a.8.8,0,0,0,.094,0,3.793,3.793,0,0,0,2.212-1.3l.013-.019a4.161,4.161,0,0,0,.7-1.606.805.805,0,0,0,0-.095c0-.169-.075-.261-.315-.237a5.614,5.614,0,0,1-.742,0l-.087,0-.151.018c-.011.083-.026.164-.045.243a2.113,2.113,0,0,1-1.8,1.68Z" transform="translate(-24.104 -12.075)" fill="#fb8c00"/>
      <path id="Trazado_105946" data-name="Trazado 105946" d="M57.637,141.062c-.673.009-1.347-.009-2.02-.017-.008-.017-.015-.035-.023-.052a4.9,4.9,0,0,1-.292-1.211l0-.014c-.086-.353-.181-.7-.253-1.06-.036-.177-.105-.248-.294-.242q-.668.02-1.338,0c-.2-.006-.28.056-.32.258-.14.7-.316,1.394-.452,2.095-.04.2-.118.257-.312.254-.635-.011-1.27-.007-1.905,0-.091,0-.258-.062-.242.114.059.694-.3,1.5.562,1.985a3.36,3.36,0,0,1,.567.515.391.391,0,0,0,.05.046c.168.135.454.2.317.514-.234.533-.493,1.055-.743,1.581l-.023.047c-.294.429-.1.721.248,1.007a7.5,7.5,0,0,1,.774.771c.144.159.232.155.381,0,.515-.535,1.051-1.05,1.566-1.585.15-.156.24-.158.384,0,.307.339.633.661.951.99h0c.019.011.037.023.055.035.274.192.424.533.744.67a.713.713,0,0,0,.08.029,16.714,16.714,0,0,1,1.289-1.289.427.427,0,0,0,.017-.124c0-.227-.183-.4-.244-.606-.039-.131-.1-.255-.148-.382L57,145.37c-.084-.167-.173-.332-.251-.5-.365-.8-.408-.865.3-1.37a2.041,2.041,0,0,0,.928-2.117C57.951,141.11,57.883,141.059,57.637,141.062Zm-2.508,2.361c-.311.228-.3.428-.142.732a5.661,5.661,0,0,1,.5,1.291c-.372-.371-.768-.722-1.108-1.119-.248-.289-.393-.238-.617.014a7.555,7.555,0,0,1-1.2,1.094c.222-.484.435-.973.671-1.45a.323.323,0,0,0-.071-.449,6.577,6.577,0,0,1-.871-.765l-.475-.39h.872l.04-.007c.3-.052.7.132.886-.088s.155-.584.221-.885a3.54,3.54,0,0,1,.281-.874l.351,1.68c.049.211.219.159.359.16.469,0,.938,0,1.5,0C55.889,142.762,55.534,143.127,55.129,143.423Z" transform="translate(-10.508 -66.442)" fill="#fb8c00"/>
      <path id="Trazado_105947" data-name="Trazado 105947" d="M110.617,141.37h0c0,.028,0,.056,0,.084.006.292.02.585.007.876a.591.591,0,0,0,.132.437.576.576,0,0,0,.054.055c.407.35.808.7,1.222,1.046a.281.281,0,0,1,.079.411c-.171.333-.315.681-.469,1.023a2.833,2.833,0,0,0-.424,1.027c.006.356.473.539.7.83a.149.149,0,0,1,.016.037l.057.051a3.162,3.162,0,0,1,.351.335c.165.2.281.205.468.006.47-.5.977-.967,1.445-1.469.207-.221.355-.271.507-.021.01.016.02.033.029.052.5.491,1.005.977,1.494,1.478.15.154.235.153.381,0,.342-.364.7-.715,1.06-1.06a.308.308,0,0,0,.073-.42c-.3-.619-.563-1.252-.86-1.871a.286.286,0,0,1,.087-.41c.392-.33.765-.684,1.159-1.011a.564.564,0,0,0,.251-.51v-.071c0-.32-.007-.64-.013-.96,0-.1.034-.23-.081-.27a.26.26,0,0,0-.081-.013c-.663,0-1.326,0-1.988.018-.2,0-.27-.058-.31-.259-.135-.675-.324-1.34-.442-2.017-.051-.29-.184-.35-.425-.339h-.016l-1.427.012h-.022l-.007.028-.007.029-.463,1.894a.944.944,0,0,1,0,.117c-.085.548-.085.548-.653.517h-1.544c-.255-.028-.366.086-.339.339Zm3.163.975c.221.007.33-.035.372-.287a8.723,8.723,0,0,1,.412-1.546c.119.508.261,1.012.346,1.526.045.27.159.318.4.31.458-.016.916,0,1.481,0-.477.423-.88.8-1.308,1.15a.348.348,0,0,0-.133.471l.674,1.4-1.181-1.067c-.238-.309-.421-.214-.648.041a7.684,7.684,0,0,1-1.175,1.071c.221-.48.43-.965.667-1.436a.322.322,0,0,0-.1-.472c-.426-.349-.832-.724-1.328-1.16C112.828,142.341,113.3,142.331,113.78,142.345Z" transform="translate(-52.776 -66.419)" fill="#fb8c00"/>
      <path id="Trazado_105948" data-name="Trazado 105948" d="M71.383,85.1l-.1,0c-.454,0-.909.007-1.363.016-.087,0-.242-.045-.246.061-.018.4,0,.8.015,1.2,0,.019.122.032.2.047,0,.01-.005.02-.008.029l.024-.026H71.45c.3-.005.592,0,.888-.017a1.97,1.97,0,0,0,1.768-1.316c.2-.588.176-.623-.426-.63-.067,0-.134-.008-.2-.013h-.014c-.315-.01-.6-.008-.709.4-.051.188-.294.258-.508.257C71.96,85.109,71.672,85.1,71.383,85.1Z" transform="translate(-24.149 -28.675)" fill="#fb8c00"/>
      <path id="Trazado_105949" data-name="Trazado 105949" d="M80.8,77.1c.681.168,1.056-.215.878-.9l0-.01c-.373-.378-.744-.426-1.038-.132s-.248.662.132,1.038Z" transform="translate(-31.683 -22.677)" fill="#fb8c00"/>
      <path id="Trazado_105950" data-name="Trazado 105950" d="M68.789,76.5a.648.648,0,1,0-.622.664A.652.652,0,0,0,68.789,76.5Z" transform="translate(-22.628 -22.678)" fill="#fb8c00"/>
      <path id="Trazado_105951" data-name="Trazado 105951" d="M86.923,141.044c-.4-.016-.927.172-1.167-.071s-.221-.773-.313-1.177a.636.636,0,0,1,0-.12c-.015-.051-.029-.1-.043-.153-.031-.113-.062-.225-.1-.336-.082-.243-.019-.537-.238-.733l-.023-.02c-.417,0-.837.035-1.252.006-.354-.026-.546.051-.579.444a7.081,7.081,0,0,1-.2.946c-.088.393-.06.91-.3,1.143s-.771.056-1.173.072-.915-.131-1.127.067c-.245.229-.049.761-.076,1.16a.565.565,0,0,0,.17.544c.02.014.038.03.058.044a8.108,8.108,0,0,1,.827.727l.066.064c.484.366.483.366.244.891s-.467,1.057-.725,1.574a.347.347,0,0,0,.091.484c.355.33.7.675,1.029,1.029.144.154.23.159.38,0,.494-.516,1.015-1.006,1.5-1.526.213-.227.356-.242.508.035l.053.054.795.8.055.055c.2.194.42.377.606.586.147.165.238.144.38-.006.342-.362.7-.712,1.057-1.057a.3.3,0,0,0,.076-.419c-.14-.273-.245-.564-.366-.847l-.057-.119c-.153-.321-.3-.644-.467-.96-.1-.184.012-.264.126-.366.467-.419.929-.844,1.393-1.266l.005,0h0c0-.121-.006-.242-.013-.362-.023-.384.169-.912-.073-1.114S87.309,141.06,86.923,141.044ZM85.3,143.388c-.328.237-.311.449-.149.763a4.087,4.087,0,0,1,.48,1.288c-.364-.371-.749-.724-1.084-1.12-.254-.3-.412-.248-.645.014a7.209,7.209,0,0,1-1.184,1.079c.2-.441.395-.889.617-1.321.141-.275.155-.464-.132-.667a9.242,9.242,0,0,1-.841-.755l-.384-.312H82.6a4.9,4.9,0,0,1,.769-.008c.354.05.463-.107.516-.424a6.931,6.931,0,0,1,.38-1.4c.119.517.257,1.03.35,1.552.042.233.14.277.347.271.472-.013.944,0,1.516,0A15.7,15.7,0,0,1,85.3,143.388Z" transform="translate(-31.567 -66.42)" fill="#fb8c00"/>
    </g>
  </g>
</svg>
