<svg xmlns="http://www.w3.org/2000/svg" width="400" height="236" viewBox="0 0 400 236">
  <g id="Grupo_71674" data-name="Grupo 71674" transform="translate(-915 -2939)">
    <rect id="Rectángulo_5942" data-name="Rectángulo 5942" width="400" height="236" transform="translate(915 2939)" fill="none"/>
    <g id="Grupo_71673" data-name="Grupo 71673" transform="translate(771.94 2930.045)">
      <g id="Grupo_71637" data-name="Grupo 71637" transform="translate(313.617 8.955)">
        <g id="Grupo_71635" data-name="Grupo 71635" transform="translate(2.167)">
          <path id="Trazado_105767" data-name="Trazado 105767" d="M264.565,60.539a18.1,18.1,0,0,1-.569,2.69,7.347,7.347,0,0,0,.095,3.293,1.979,1.979,0,0,0,1.571,1.1,4.947,4.947,0,0,0,2.146-.052,15.937,15.937,0,0,0,2.692,2.489,12.471,12.471,0,0,0,5.806,1.778c1.478-.224,2.269-1.377,2.155-2.118s-1.853-2.8-3.28-3.689a29.165,29.165,0,0,1-3.668-3.215,17.664,17.664,0,0,1-1.821-2.371Z" transform="translate(-242.487 50.512)" fill="#261822"/>
          <path id="Trazado_105768" data-name="Trazado 105768" d="M256.825,64.217a20.4,20.4,0,0,0-.722,4.836,3.584,3.584,0,0,0,1.062,2.793,1.06,1.06,0,0,0,1.164.34s.248,3.655,1.98,5.133a7.4,7.4,0,0,0,6.319,1.082c1.444-.537.5-3.155-.918-5.722s-3.213-5.327-3.664-7.648C258.59,64.555,256.825,64.217,256.825,64.217Z" transform="translate(-251.429 54.875)" fill="#261822"/>
          <path id="Trazado_105769" data-name="Trazado 105769" d="M277.319,75.787c.95-5.584,2.056-5.207,2.032-10.4-.013-2.549-.924-8.381-2.769-20.488-.959-6.288-2.455-7.344-4.433-11.308-.2-.409-6.571,2.853-9.474,4.392-.263.138-2.8,6.842-1.687,12.077.427,2.006,5.444,15.743,7.711,18.26-2.146,5.207-4.185,10.226-2.47,24.106,1.446,1.942,5.539,2.112,8.166.58C274.4,90.157,276.684,79.536,277.319,75.787Z" transform="translate(-246.097 19.464)" fill="#292954"/>
          <path id="Trazado_105770" data-name="Trazado 105770" d="M272.688,49.055c3.56-4.355,2.827-7.659,1.118-12.84-.095-.284-14.891-2.265-15.072-1.948-5.614,9.838-4.123,25.945-.03,35.576-.912,4.043-2.894,22.376-2.586,29.007,2.748,2.009,7.321,3.269,9.025,0,1.508-9.3,3.476-17.865,2.763-25.932C268.973,70.121,272.406,56.117,272.688,49.055Z" transform="translate(-252.624 20.242)" fill="#261822"/>
          <path id="Trazado_105771" data-name="Trazado 105771" d="M289.882,41.257c-2.327-2.748-9-6.153-10.851-6.681,0,0-2.144-3.56-3.067-5.633-.707-1.582-1.448-5.808-2.912-8.42-1.638-2.918-3.485-3.722-6.123-4.584a1.751,1.751,0,0,0-2,.416c-.748.864-.595,2.362-.6,3.379-.017,1.726.006,3.455.019,5.181.013,2.086,3.252,7.058,3.838,7.939.711,1.069,2.3,5,2.832,6.172.289.638,1.069,1.909,3.584,2.931.965.392,9.105,4.608,13.392,5.284C288.169,46.408,289.52,43.229,289.882,41.257Z" transform="translate(-241.932 -1.047)" fill="#261822"/>
          <path id="Trazado_105772" data-name="Trazado 105772" d="M276.6,17.41c-3.592-1.5-7.868.44-7.711.263.108-.121-4.985,2.827-4.991,2.845-3.636,1.356-7.366,2.338-9.5,7.224-1.043,2.379,2.707,7.472,4.269,14.368.7,3.1.778,7.528-.368,9.588-.8,1.44-2.573,3.6,2.616,5.23,1.511.474,8.523,3.185,12.611,2.427,1.89-.351,10.984-5.39,8.211-7.316a1.922,1.922,0,0,1-.808-2.457,5.412,5.412,0,0,0,.9-3.754c-.83-3.8-.155-5.3.405-8.278,2.631-2.756.308-6.909-1.306-11.349C279.83,23.19,280.28,18.951,276.6,17.41Z" transform="translate(-253.603 0.146)" fill="#fff"/>
          <path id="Trazado_105773" data-name="Trazado 105773" d="M269.3,17.994c0-.052,0-.112,0-.166-2.131.325-4.942-.9-6.786-2.185a30.349,30.349,0,0,1-2.733,5.786c.8.039,2.388,2.246,3.7,4.567.558.985,2.97,3.532,4.485,2.944,2.338-.905,1.168-2.778,1.237-5.409C269.256,21.688,269.3,19.837,269.3,17.994Z" transform="translate(-247.165 -1.231)" fill="#ffb9a4"/>
          <path id="Trazado_105774" data-name="Trazado 105774" d="M267.325,30.4a40.4,40.4,0,0,0-1.433-5.366v0a16.756,16.756,0,0,1,.709-2.73l-2.3-.909-1.343,1.616a5.689,5.689,0,0,0,1.651,2.267h0c-.047,2.351-.134,6.653-.183,10.555-.082,6.23,0,10.713,0,10.713a14.078,14.078,0,0,0,2.955,3.054,15.353,15.353,0,0,0,1.437-4.209S267.993,33.972,267.325,30.4Z" transform="translate(-243.501 5.413)" fill="#ff9201"/>
          <path id="Trazado_105775" data-name="Trazado 105775" d="M258.947,18.349A30.7,30.7,0,0,1,264.4,21.34c2.157,1.784,3.187,2.265,4.261,3.3.1-.256.394-5.107.394-5.107s1.8.226,1.782.259a6.4,6.4,0,0,1,1.437,2.92,9.942,9.942,0,0,1-.319,4.263l-2.991-1.825L266.921,28.8a76.472,76.472,0,0,1-5.817-5.5A10.253,10.253,0,0,1,258.947,18.349Z" transform="translate(-248.133 1.895)" fill="#fff"/>
          <path id="Trazado_105776" data-name="Trazado 105776" d="M265.892,17.1a5.511,5.511,0,0,1,5.133,3.564,37.207,37.207,0,0,1,2.961,14.575c.039,4.276-.9,9.859-.177,12.9.623,2.618,4.092,12.254,4.092,12.254s-.265,3.955-1.545,5.517a4.3,4.3,0,0,1-3.45,1.843S270.756,55.8,270.539,53.92s-.925-11.833-.728-14.786-1.5-12.79-2.166-14.975-4.687-6.659-4.687-6.659Z" transform="translate(-243.501 0.445)" fill="#3a2934"/>
          <path id="Trazado_105777" data-name="Trazado 105777" d="M264.058,19.836a17.965,17.965,0,0,1,2.129,3.8c.948,2.284,1.252,7.3,1.524,10.232a57.138,57.138,0,0,0,.9,5.873,29.36,29.36,0,0,0,1.31-5.351c.2-2.164.481-3.83.481-3.83l-1.513-1.183,1.4-3.386s-3.7-8.049-5.256-8.515S264.058,19.836,264.058,19.836Z" transform="translate(-242.353 0.822)" fill="#261822"/>
          <path id="Trazado_105778" data-name="Trazado 105778" d="M266.374,17.885a34.145,34.145,0,0,1,5.7,13.8c1.3,8.008.476,16.258,0,21.979-.6,7.217-1.138,17.486-1.138,17.486s-7.172,1.183-11.2.332a8.509,8.509,0,0,1-5.81-5.118,66.425,66.425,0,0,1,3.651-19.426c1.2-3.5.438-11.088-.983-15.456-.845-2.6.384-7.782,2.567-10.148C260.653,19.723,264.288,19.029,266.374,17.885Z" transform="translate(-253.929 1.359)" fill="#3a2934"/>
          <path id="Trazado_105779" data-name="Trazado 105779" d="M262.2,17.347s-2.515.155-3.47,2.069a15.908,15.908,0,0,1,1.976,4.773,24.36,24.36,0,0,1,.308,5.224l2.836,1.269L262.189,33.6l4.916,6.364s.737-8.383-1.2-14.439S262.2,17.347,262.2,17.347Z" transform="translate(-248.388 0.737)" fill="#261822"/>
          <path id="Trazado_105780" data-name="Trazado 105780" d="M272.685,13.763c-1.959-2.405-6.243-2.955-8.95-1.315a4.539,4.539,0,0,0-1.733.914c-1.765,1.569-1.571,4.377-1.043,6.45.8,3.125,5.241,10.31,9.353,7.625,2.185-1.429,3.605-4.978,3.959-7.463A7.95,7.95,0,0,0,272.685,13.763Z" transform="translate(-246.236 -6.006)" fill="#ffc9b6"/>
          <path id="Trazado_105781" data-name="Trazado 105781" d="M276.329,12.105c-1.371-1.843-4.875-4.052-7.176-2.767a2.39,2.39,0,0,0-1.19,2.166c-2.226-.407-6.241,1.041-7.239,2.955-1.692,3.254-.513,8.823.972,10.5,1.552-1.353,3.948-4.228,4.579-6.985a9.65,9.65,0,0,0,8.571-.086C276.954,16.672,277.842,14.142,276.329,12.105Z" transform="translate(-247.04 -8.955)" fill="#261822"/>
          <path id="Trazado_105782" data-name="Trazado 105782" d="M264.128,15.244s-1.246-2.071-2.4-.558a2.1,2.1,0,0,0,.81,3.42Z" transform="translate(-245.62 -2.976)" fill="#ffc9b6"/>
        </g>
        <g id="Grupo_71636" data-name="Grupo 71636" transform="translate(0 22.595)">
          <path id="Trazado_105783" data-name="Trazado 105783" d="M267.15,51.479c-.631-1.666-3.286-4.855-4.989-6.84.608-3.377,1.608-8.665,2.235-10.842,1.125-3.9-1.455-13.7-3.974-14.357-3.263,1.043-5.209,1.955-6.741,7.7-1.437,5.385-.528,14.891.256,20.234.159,1.082-.972,1.215,3.636,6.946,2.95,3.672,5.791,4.45,5.791,4.45l4.487-3.855S268.6,55.317,267.15,51.479Z" transform="translate(-252.923 -19.44)" fill="#261822"/>
          <path id="Trazado_105784" data-name="Trazado 105784" d="M262.3,36.152s-1.308-1.254-3.146.338a3.587,3.587,0,0,0-1.34,3.517,5.991,5.991,0,0,1,2.442,2.327c1.2,2.319,2.123,6.088,3.381,7.726,1.821,2.371,3.23,1.146,4.148-.183s.265-3.039-.39-4.414c-.713-1.5-1.052-2.595-.515-2.642.356-.032,1.414,1.228,2.549,1.274,1.179.047,1.121-.849-.414-1.761-.778-.463-.873-1.2-2.306-2.166-1.121-.752-1.776-.332-2.056-.715A35.383,35.383,0,0,1,262.3,36.152Z" transform="translate(-247.375 -0.679)" fill="#ffc9b6"/>
        </g>
      </g>
      <g id="Grupo_71638" data-name="Grupo 71638" transform="translate(287.847 37.168)">
        <path id="Trazado_105785" data-name="Trazado 105785" d="M407.9,49.749l-1.58-.912c-27.147-31.3-79.619-21.663-111.792-3.088l-53.562,40.06,19.339,11.165,55.277-31.916c20.079-11.592,50.734-12.864,68.124-2.823l.985.569c17.389,10.04,15.189,27.738-4.89,39.33L324.522,134.05l19.34,11.165,56.2-32.447C432.234,94.195,435.762,65.834,407.9,49.749Z" transform="translate(-240.965 -14.582)" fill="#ff9201"/>
        <path id="Trazado_105786" data-name="Trazado 105786" d="M288.712,108.886v23.4l82.833-68.1L371.522,39.7Z" transform="translate(-185.816 -1.656)" fill="#ff9201"/>
        <path id="Trazado_105787" data-name="Trazado 105787" d="M407.9,33.809l-1.58-.912c-27.863-16.085-76.981-14.049-109.154,4.526l-56.2,32.447,19.339,11.165,55.277-31.914c20.079-11.594,50.734-12.864,68.124-2.825l.985.569C402.08,56.905,399.88,74.6,379.8,86.2l-55.279,31.914,19.34,11.168,56.2-32.449C432.234,78.255,435.762,49.9,407.9,33.809Z" transform="translate(-240.965 -22.047)" fill="#ffaf04"/>
        <path id="Trazado_105788" data-name="Trazado 105788" d="M279.738,66.623v23.4l19.339,11.166v-23.4Z" transform="translate(-196.181 29.441)" fill="#efe8eb"/>
        <path id="Trazado_105789" data-name="Trazado 105789" d="M240.966,44.238v23.4l19.34,11.166V55.4Z" transform="translate(-240.966 3.585)" fill="#efe8eb"/>
        <path id="Trazado_105790" data-name="Trazado 105790" d="M240.966,50.806l21.227-12.255L281.5,49.717l-21.2,12.255Z" transform="translate(-240.966 -2.983)" fill="#fff"/>
        <path id="Trazado_105791" data-name="Trazado 105791" d="M271.135,43.732l-21.2,12.255v23.4l21.2-12.255Z" transform="translate(-230.6 3.001)" fill="#e0d1db"/>
        <path id="Trazado_105792" data-name="Trazado 105792" d="M279.738,73.2l21.227-12.255,19.308,11.166-21.2,12.255Z" transform="translate(-196.181 22.878)" fill="#fff"/>
        <path id="Trazado_105793" data-name="Trazado 105793" d="M309.908,66.122l-21.2,12.255v23.4l21.2-12.255Z" transform="translate(-185.816 28.862)" fill="#e0d1db"/>
      </g>
      <g id="Grupo_71639" data-name="Grupo 71639" transform="translate(264.859 95.066)">
        <path id="Trazado_105794" data-name="Trazado 105794" d="M256.752,50.2l-20.6,5.416,5.238,3.024-11.1,6.406,19.885-5.46-5.214-3.011Z" transform="translate(-230.298 -47.428)" fill="#ff9201"/>
        <path id="Trazado_105795" data-name="Trazado 105795" d="M248.889,48.913v2.77l-11.783,6.376v-2.77Z" transform="translate(-222.435 -48.913)" fill="#ff9201"/>
        <path id="Trazado_105796" data-name="Trazado 105796" d="M250.184,53.269v2.77L230.3,61.5v-2.77Z" transform="translate(-230.298 -43.882)" fill="#ff9201"/>
        <path id="Trazado_105797" data-name="Trazado 105797" d="M233.017,51.426V54.2l5.239,3.024V54.45Z" transform="translate(-227.159 -46.01)" fill="#ff9201"/>
        <path id="Trazado_105798" data-name="Trazado 105798" d="M256.752,48.913l-20.6,5.416,5.238,3.024-11.1,6.406,19.885-5.46-5.214-3.011Z" transform="translate(-230.298 -48.913)" fill="#ffaf04"/>
      </g>
      <g id="Grupo_71640" data-name="Grupo 71640" transform="translate(278.086 102.489)">
        <path id="Trazado_105799" data-name="Trazado 105799" d="M262.89,53.643l-20.6,5.416,5.239,3.024-11.1,6.406,19.885-5.46-5.214-3.011Z" transform="translate(-236.436 -50.873)" fill="#ff9201"/>
        <path id="Trazado_105800" data-name="Trazado 105800" d="M255.027,52.357v2.77L243.244,61.5v-2.77Z" transform="translate(-228.573 -52.357)" fill="#ff9201"/>
        <path id="Trazado_105801" data-name="Trazado 105801" d="M256.321,56.713v2.77l-19.885,5.46v-2.77Z" transform="translate(-236.436 -47.326)" fill="#ff9201"/>
        <path id="Trazado_105802" data-name="Trazado 105802" d="M239.154,54.87v2.77l5.239,3.024v-2.77Z" transform="translate(-233.297 -49.455)" fill="#ff9201"/>
        <path id="Trazado_105803" data-name="Trazado 105803" d="M262.89,52.357l-20.6,5.416,5.239,3.024-11.1,6.406,19.885-5.46-5.214-3.011Z" transform="translate(-236.436 -52.357)" fill="#ffaf04"/>
      </g>
      <g id="Grupo_71641" data-name="Grupo 71641" transform="translate(348.351 143.272)">
        <path id="Trazado_105804" data-name="Trazado 105804" d="M295.495,72.567l-20.6,5.416,5.239,3.024-11.1,6.406,19.885-5.46-5.214-3.01Z" transform="translate(-269.041 -69.797)" fill="#ff9201"/>
        <path id="Trazado_105805" data-name="Trazado 105805" d="M287.632,71.282v2.77l-11.783,6.376v-2.77Z" transform="translate(-261.178 -71.282)" fill="#ff9201"/>
        <path id="Trazado_105806" data-name="Trazado 105806" d="M288.926,75.637v2.77l-19.885,5.46V81.1Z" transform="translate(-269.041 -66.251)" fill="#ff9201"/>
        <path id="Trazado_105807" data-name="Trazado 105807" d="M271.759,73.795v2.77L277,79.589v-2.77Z" transform="translate(-265.902 -68.379)" fill="#ff9201"/>
        <path id="Trazado_105808" data-name="Trazado 105808" d="M295.495,71.282,274.9,76.7l5.239,3.025-11.1,6.406,19.885-5.46-5.214-3.011Z" transform="translate(-269.041 -71.282)" fill="#ffaf04"/>
      </g>
      <g id="Grupo_71642" data-name="Grupo 71642" transform="translate(361.578 150.695)">
        <path id="Trazado_105809" data-name="Trazado 105809" d="M301.632,76.012l-20.6,5.416,5.238,3.024-11.1,6.406,19.885-5.46-5.214-3.01Z" transform="translate(-275.179 -73.241)" fill="#ff9201"/>
        <path id="Trazado_105810" data-name="Trazado 105810" d="M293.769,74.726V77.5l-11.783,6.376V81.1Z" transform="translate(-267.315 -74.726)" fill="#ff9201"/>
        <path id="Trazado_105811" data-name="Trazado 105811" d="M295.064,79.082v2.77l-19.885,5.46v-2.77Z" transform="translate(-275.179 -69.695)" fill="#ff9201"/>
        <path id="Trazado_105812" data-name="Trazado 105812" d="M277.9,77.239v2.77l5.238,3.024v-2.77Z" transform="translate(-272.039 -71.824)" fill="#ff9201"/>
        <path id="Trazado_105813" data-name="Trazado 105813" d="M301.632,74.726l-20.6,5.416,5.238,3.025-11.1,6.406,19.885-5.46L289.85,81.1Z" transform="translate(-275.179 -74.726)" fill="#ffaf04"/>
      </g>
      <g id="Grupo_71645" data-name="Grupo 71645" transform="translate(436.49 79.215)">
        <g id="Grupo_71643" data-name="Grupo 71643" transform="translate(27 45.02)">
          <path id="Trazado_105814" data-name="Trazado 105814" d="M334.951,122.66a68.127,68.127,0,0,1,1.017-8.7c1.06-5.476,2.265-13.467-1.345-17.081,4.054-10.316,2.625-16.023,2.024-19.18,6.041-6.407.287-13.174-2.625-15.251-1.534,1.9-10.689,5.651-10.743,5.883-1.105,4.707-.095,9.631,1.3,14.189.866,2.838,1.618,7.635,3.638,15.413-.942,3.868.125,9.728.515,14.107.274,3.052.181,6.519.728,9.788C330.341,122.831,332.014,123.779,334.951,122.66Z" transform="translate(-322.075 -62.448)" fill="#157eb5"/>
          <path id="Trazado_105815" data-name="Trazado 105815" d="M324.771,90.377c-2.071.821-2.662,1.567-2.105,2.894a6.611,6.611,0,0,0,4.752,3.549c2.786.58,4.353,3.825,7.327.761.763-.787.612-2.254.349-3.34.054-.759.194-2.565.25-3.407-2.937,1.118-4.61.17-5.491-.832a19.958,19.958,0,0,0,.448,2.1C329.239,91.776,326.159,89.83,324.771,90.377Z" transform="translate(-322.468 -30.622)" fill="#157eb5"/>
        </g>
        <path id="Trazado_105816" data-name="Trazado 105816" d="M336.581,94.3s-1.741.627-2.862.983a6.183,6.183,0,0,1-5.868-1.493c-1.6-1.549.86-2.616.86-2.616s-3.9-2.327-6.491-1.243c-1.2.5-1.259,2.532-.569,3.78a9.7,9.7,0,0,0,4.452,3.243,25.606,25.606,0,0,1,4.67,1.315c1.618.976,3.666,2.345,5.515.56S336.581,94.3,336.581,94.3Z" transform="translate(-296.927 13.977)" fill="#261822"/>
        <g id="Grupo_71644" data-name="Grupo 71644" transform="translate(17.026 49.296)">
          <path id="Trazado_105817" data-name="Trazado 105817" d="M328.834,126.612a68.088,68.088,0,0,1,1.017-8.7c1.058-5.478,2.265-13.467-1.345-17.081,4.054-10.316,4.465-18.292,3.862-21.449,7.017-5.461,4.478-12.872,1.569-14.95-1.537,1.9-11.683-1.155-12.706,1.965-1.98,6.026-1.888,8.157-1.616,16.213a94.52,94.52,0,0,0,2.483,19.275c-.94,3.868.127,9.726.517,14.1.274,3.052.181,6.519.728,9.79C324.224,126.782,325.9,127.73,328.834,126.612Z" transform="translate(-315.958 -64.432)" fill="#2199d8"/>
          <path id="Trazado_105818" data-name="Trazado 105818" d="M320.143,93.274c-2.071.821-2.661,1.567-2.105,2.894a6.616,6.616,0,0,0,4.752,3.549c2.786.578,4.34,3.564,7.314.5.765-.784.625-2,.362-3.082.054-.756.194-2.562.25-3.4-2.937,1.118-4.61.17-5.491-.832a20.043,20.043,0,0,0,.448,2.1C324.611,94.673,321.531,92.724,320.143,93.274Z" transform="translate(-317.84 -31.551)" fill="#2199d8"/>
        </g>
        <path id="Trazado_105819" data-name="Trazado 105819" d="M331.95,97.193s-1.739.625-2.86.981a6.177,6.177,0,0,1-5.868-1.493c-1.6-1.549.86-2.614.86-2.614s-3.9-2.327-6.491-1.246c-1.2.5-1.259,2.534-.569,3.782a9.717,9.717,0,0,0,4.45,3.241,25.752,25.752,0,0,1,4.672,1.317c1.618.976,3.666,2.343,5.515.56S331.95,97.193,331.95,97.193Z" transform="translate(-302.272 17.323)" fill="#261822"/>
        <path id="Trazado_105820" data-name="Trazado 105820" d="M332.892,49.828c-2.7-.965-5.974.571-6.107,3.336-1.485,2.515-.028,6.2,2.289,7.89,2.7,1.959,6.86-.024,7.756-3.052A6.9,6.9,0,0,0,332.892,49.828Z" transform="translate(-291.178 -32.339)" fill="#efe8eb"/>
        <path id="Trazado_105821" data-name="Trazado 105821" d="M336.711,55.222a.656.656,0,0,0-.461-.461c-3.179-.875-3.918-2.593-4.472-5.472a.652.652,0,0,0-.953-.386,20.029,20.029,0,0,1-5.323,2.315c1.782,5.321-1.444,6.457-2.847,8.571-.353.534,3.325,3.211,5.293,2.933a12.182,12.182,0,0,0,4.842-1.7C334.4,59.995,337.176,57.407,336.711,55.222Z" transform="translate(-295.279 -33.172)" fill="#ffc9b6"/>
        <path id="Trazado_105822" data-name="Trazado 105822" d="M333.092,49.432c-.3-2.739-2.541-6.385-5.612-6.155-3.129.237-5.258,4.883-5.5,7.045-.414,3.677-.09,10.607,5.711,8.381C332.209,56.971,333.536,53.516,333.092,49.432Z" transform="translate(-296.178 -39.583)" fill="#ffc9b6"/>
        <path id="Trazado_105823" data-name="Trazado 105823" d="M338.892,45.985c-1.407-3.024-4.741-5.864-9.452-3.623-3.032-1.116-7.48.651-8.431,4.116.978,2.78,2.741,5.825,4.75,4.756-.14,3.366,4.4,8.215,7.355,8.215,1.09-2.3,3.491-2.332,5.1-5.551C339.107,52.123,339.762,47.856,338.892,45.985Z" transform="translate(-297.154 -41.558)" fill="#261822"/>
        <path id="Trazado_105824" data-name="Trazado 105824" d="M323.213,47.386s2.323-1.593,2.689.67a2.807,2.807,0,0,1-1.838,3.043Z" transform="translate(-294.608 -35.455)" fill="#ffc9b6"/>
        <path id="Trazado_105825" data-name="Trazado 105825" d="M331.873,42.577c-1.924-.84-3.168-.965-4.814.265-1.7,1.276-1.08,6.556,1.672,7.183,1.765.4,4.045-.073,4.987-1.636A3.8,3.8,0,0,0,331.873,42.577Z" transform="translate(-291.258 -41.125)" fill="#ffaf04"/>
        <path id="Trazado_105826" data-name="Trazado 105826" d="M341.5,64.336c2.011-6.217.782-10.351-1-12.385-.731-.836-2.463-2.56-4.36-.853.616,2.832-4.271,3.739-7.816,3.739-2.683,2-5.09,3.4-6.623,6.112-1.623,2.868-2.4,5.782,1.062,7.872-1.062,3.146-1.013,7.577-2.754,15.669,3.233,2.569,9.588,2.823,13.284,1.233,4-1.72,7.278-4.071,7.142-6.034-.892-1.914-3.3-3.739-3.2-6.116C337.367,70.571,340.583,67.187,341.5,64.336Z" transform="translate(-298.297 -31.378)" fill="#fff"/>
        <path id="Trazado_105827" data-name="Trazado 105827" d="M310.826,87.132s-.519.25-.808-.03.183-1.065,2.047-2.287,2.707-2.069,2.6-2.789-1.414-.832-2.024-1.881c-.466-.8-.121-1.33.655-.815a4.94,4.94,0,0,0,3.22.72c1.336-.05,2.246.082,5.163-3.114,2.062-2.261,4.978-4.763,6.739-6.668.424-2.028,2.226-6.39,2.424-7.855a16.933,16.933,0,0,1,1.877-5.1c.884-1.683,7.215-1.679,7.256,2.2.037,3.532.278,3.467-1.537,6.332-2.825,4.457-4.661,6.127-6.034,8.038a21.632,21.632,0,0,1-3.539,3.642c-2.668,2.129-7.385,3.991-8.48,4.98s-2.616,2.8-5.17,4.847a5.119,5.119,0,0,1-2.478,1.058,7.1,7.1,0,0,0-.828.134c-.64.131-.222-.659-.222-.659a1.647,1.647,0,0,1-1.112.043C310.184,87.735,310.826,87.132,310.826,87.132Z" transform="translate(-309.94 -24.591)" fill="#ffc9b6"/>
        <path id="Trazado_105828" data-name="Trazado 105828" d="M323.511,54.25c-3.853,2-4.713,8.446-3.739,11.937-.647,1.5,3.437,5.049,7.2,3.687,3.931-.358,6.452-6.308,4.692-11.234C330.316,54.854,326.388,52.759,323.511,54.25Z" transform="translate(-299.009 -27.456)" fill="#efe8eb"/>
        <path id="Trazado_105829" data-name="Trazado 105829" d="M319.752,59.53,319.42,61.3s.056,1.364,2.379,2.526a7.463,7.463,0,0,0,4.6.629l.554-1.241a11.914,11.914,0,0,1-4.375-.916A7.017,7.017,0,0,1,319.752,59.53Z" transform="translate(-298.989 -20.798)" fill="#fff"/>
        <path id="Trazado_105830" data-name="Trazado 105830" d="M328.009,43.3c-1.56,1.888-.864,4.077-.082,5.909.4.944,5.375,2.5,4.368,6.088-.649,2.321-2.692,5.8-2.371,10.172s4.45,2.817,4.45,2.817a2.575,2.575,0,0,1-1.073-3.739c1.487-2.418,5.657-9.068,4.491-15.253S330.9,39.8,328.009,43.3Z" transform="translate(-290.148 -41.194)" fill="#352322"/>
      </g>
      <g id="Grupo_71672" data-name="Grupo 71672" transform="translate(200.378 105.624)">
        <g id="Grupo_71646" data-name="Grupo 71646" transform="translate(130.261 58.806)">
          <path id="Trazado_105831" data-name="Trazado 105831" d="M263.125,81.191l0,.011a1.614,1.614,0,0,1,1.465.183,4.969,4.969,0,0,1,1.821,2.134,1.482,1.482,0,0,1,1.821-.03,5.876,5.876,0,0,1,2.452,4.687,2.241,2.241,0,0,1-.771,1.931l0,0-3.5,2.455-1.871,1.028L261.3,82.2Z" transform="translate(-260.272 -81.099)" fill="#f24a1d"/>
          <path id="Trazado_105832" data-name="Trazado 105832" d="M260.822,83.722c0-1.806,1.1-2.638,2.452-1.856A4.977,4.977,0,0,1,265.1,84a1.476,1.476,0,0,1,1.819-.032,5.875,5.875,0,0,1,2.455,4.687,2.248,2.248,0,0,1-.772,1.933h0l-3.5,2.455L261.678,86.7h0A6.136,6.136,0,0,1,260.822,83.722Z" transform="translate(-260.822 -80.553)" fill="#ff6029"/>
        </g>
        <g id="Grupo_71647" data-name="Grupo 71647" transform="translate(50.496 2.39)">
          <path id="Trazado_105833" data-name="Trazado 105833" d="M226.112,55.012l0,.011a1.622,1.622,0,0,1,1.465.185,4.983,4.983,0,0,1,1.821,2.134,1.476,1.476,0,0,1,1.819-.032A5.875,5.875,0,0,1,233.677,62a2.245,2.245,0,0,1-.771,1.933v0l-3.5,2.455-1.868,1.028-3.256-11.389Z" transform="translate(-223.259 -54.921)" fill="#f24a1d"/>
          <path id="Trazado_105834" data-name="Trazado 105834" d="M223.809,57.544c0-1.808,1.1-2.638,2.455-1.856a4.979,4.979,0,0,1,1.819,2.134,1.482,1.482,0,0,1,1.821-.032,5.874,5.874,0,0,1,2.452,4.689,2.244,2.244,0,0,1-.771,1.931l0,0-3.5,2.455-3.424-6.347h0A6.151,6.151,0,0,1,223.809,57.544Z" transform="translate(-223.809 -54.374)" fill="#ff6029"/>
        </g>
        <g id="Grupo_71648" data-name="Grupo 71648" transform="translate(100.308 60.715)">
          <path id="Trazado_105835" data-name="Trazado 105835" d="M249.226,82.077l0,.011a1.614,1.614,0,0,1,1.465.183,4.983,4.983,0,0,1,1.821,2.134,1.482,1.482,0,0,1,1.819-.032,5.876,5.876,0,0,1,2.455,4.689,2.241,2.241,0,0,1-.771,1.931v0l-3.5,2.455-1.868,1.028L247.4,83.088Z" transform="translate(-246.373 -81.985)" fill="#f24a1d"/>
          <path id="Trazado_105836" data-name="Trazado 105836" d="M246.923,84.608c0-1.808,1.1-2.638,2.455-1.855a4.979,4.979,0,0,1,1.819,2.133,1.485,1.485,0,0,1,1.821-.032,5.881,5.881,0,0,1,2.452,4.689,2.241,2.241,0,0,1-.772,1.931l0,0-3.5,2.455-3.424-6.347h0A6.145,6.145,0,0,1,246.923,84.608Z" transform="translate(-246.923 -81.439)" fill="#ff6029"/>
        </g>
        <g id="Grupo_71649" data-name="Grupo 71649" transform="translate(23.079 101.37)">
          <path id="Trazado_105837" data-name="Trazado 105837" d="M213.39,100.942l0,.011a1.614,1.614,0,0,1,1.465.183,4.969,4.969,0,0,1,1.821,2.134,1.485,1.485,0,0,1,1.821-.032,5.88,5.88,0,0,1,2.452,4.689,2.241,2.241,0,0,1-.771,1.931l0,0-3.5,2.455-1.871,1.028-3.254-11.389Z" transform="translate(-210.537 -100.85)" fill="#f24a1d"/>
          <path id="Trazado_105838" data-name="Trazado 105838" d="M211.087,103.473c0-1.808,1.1-2.638,2.452-1.855a4.984,4.984,0,0,1,1.821,2.133,1.482,1.482,0,0,1,1.819-.032,5.876,5.876,0,0,1,2.455,4.689,2.241,2.241,0,0,1-.771,1.931v0l-3.5,2.455-3.424-6.344,0,0A6.128,6.128,0,0,1,211.087,103.473Z" transform="translate(-211.087 -100.304)" fill="#ff6029"/>
        </g>
        <g id="Grupo_71650" data-name="Grupo 71650" transform="translate(113.104 85.919)">
          <path id="Trazado_105839" data-name="Trazado 105839" d="M256.767,93.837l.006.017a2.74,2.74,0,0,1,2.485.312,8.424,8.424,0,0,1,3.086,3.618,2.51,2.51,0,0,1,3.088-.054c2.3,1.325,4.159,4.886,4.159,7.95a3.806,3.806,0,0,1-1.308,3.276l0,0-5.928,4.161-3.168,1.743L253.668,95.55Z" transform="translate(-251.929 -93.68)" fill="#f24a1d"/>
          <path id="Trazado_105840" data-name="Trazado 105840" d="M252.861,98.127c0-3.062,1.862-4.472,4.159-3.144a8.424,8.424,0,0,1,3.086,3.618,2.51,2.51,0,0,1,3.088-.054c2.3,1.325,4.159,4.885,4.159,7.948a3.808,3.808,0,0,1-1.308,3.278l0,0-5.926,4.164-5.808-10.762h0A10.413,10.413,0,0,1,252.861,98.127Z" transform="translate(-252.861 -92.753)" fill="#ff6029"/>
        </g>
        <g id="Grupo_71651" data-name="Grupo 71651" transform="translate(18.125 60.377)">
          <path id="Trazado_105841" data-name="Trazado 105841" d="M212.694,81.983,212.7,82a2.74,2.74,0,0,1,2.485.312,8.442,8.442,0,0,1,3.088,3.618,2.507,2.507,0,0,1,3.086-.054c2.3,1.325,4.159,4.886,4.159,7.948a3.81,3.81,0,0,1-1.308,3.278l0,0-5.926,4.164-3.17,1.743L209.595,83.7Z" transform="translate(-207.856 -81.828)" fill="#f24a1d"/>
          <path id="Trazado_105842" data-name="Trazado 105842" d="M208.788,86.275c0-3.064,1.862-4.472,4.161-3.144a8.438,8.438,0,0,1,3.086,3.618,2.51,2.51,0,0,1,3.086-.056c2.3,1.328,4.161,4.888,4.161,7.95a3.811,3.811,0,0,1-1.31,3.278l0,0-5.926,4.164-5.808-10.762h0A10.414,10.414,0,0,1,208.788,86.275Z" transform="translate(-208.788 -80.901)" fill="#ff6029"/>
        </g>
        <g id="Grupo_71656" data-name="Grupo 71656" transform="translate(58.566 61.654)">
          <path id="Trazado_105843" data-name="Trazado 105843" d="M230.039,92.343l4,2.312v-8.6l-1.756-1.142-.427-.636,2.771-1.649c.015-.013.032-.019.047-.03l.073-.043,0,0a1.283,1.283,0,0,1,1.31.095,4.871,4.871,0,0,1,2.026,3.868v6.855l7.474,4.314a4.03,4.03,0,0,1,1.677,3.2,1.5,1.5,0,0,1-.47,1.222l.017.019-.373.222a4.242,4.242,0,0,1,.825,2.353,1.386,1.386,0,0,1-.567,1.274l.022.024-.522.312a4.165,4.165,0,0,1,1.067,2.627,1.494,1.494,0,0,1-.466,1.218l.013.013-.67.4a4.14,4.14,0,0,1,1.123,2.679,1.6,1.6,0,0,1-.461,1.252l.009.009-.026.015c-.017.013-.039.022-.058.034l-3.179,1.875-1.552-1.784,1.586-1.289-13.521-7.808Z" transform="translate(-224.684 -82.421)" fill="#e0d1db"/>
          <path id="Trazado_105844" data-name="Trazado 105844" d="M228.924,100.961l3.814,2.2V87.406l-3.814-2.2Z" transform="translate(-225.971 -79.206)" fill="#157eb5"/>
          <path id="Trazado_105845" data-name="Trazado 105845" d="M227.554,86.957l2.953-1.753,3.814,2.2-2.953,1.753Z" transform="translate(-227.554 -79.206)" fill="#1780b7"/>
          <path id="Trazado_105846" data-name="Trazado 105846" d="M229.324,89.155l2.953-1.753,3.814,2.2-2.953,1.754Z" transform="translate(-225.51 -76.667)" fill="#e0d1db"/>
          <g id="Grupo_71655" data-name="Grupo 71655" transform="translate(0 1.746)">
            <path id="Trazado_105847" data-name="Trazado 105847" d="M232.672,95.471V85c0-1.485.912-2.172,2.024-1.53a4.865,4.865,0,0,1,2.026,3.868v6.853l7.474,4.314a4.037,4.037,0,0,1,1.677,3.2c0,.828-.356,1.317-.86,1.414a4.246,4.246,0,0,1,.86,2.405c0,1.026-.534,1.547-1.243,1.4a4.183,4.183,0,0,1,1.243,2.836c0,1.086-.6,1.61-1.373,1.362a4.131,4.131,0,0,1,1.373,2.946c0,1.228-.754,1.8-1.677,1.267l-15.527-8.963V93.161Z" transform="translate(-226.267 -83.231)" fill="#fff"/>
            <path id="Trazado_105848" data-name="Trazado 105848" d="M227.554,101.775l3.814,2.2V88.22l-3.814-2.2Z" transform="translate(-227.554 -80.013)" fill="#2199d8"/>
            <g id="Grupo_71652" data-name="Grupo 71652" transform="translate(10.661 14.781)">
              <path id="Trazado_105849" data-name="Trazado 105849" d="M238.609,94.3a.482.482,0,0,0,.241-.9l-5.627-3.248a.475.475,0,0,0-.657.177.48.48,0,0,0,.177.657l5.625,3.248A.472.472,0,0,0,238.609,94.3Z" transform="translate(-232.501 -90.09)" fill="#e0d1db"/>
            </g>
            <g id="Grupo_71653" data-name="Grupo 71653" transform="translate(10.661 19.102)">
              <path id="Trazado_105850" data-name="Trazado 105850" d="M238.609,96.308a.482.482,0,0,0,.241-.9l-5.627-3.248a.481.481,0,1,0-.481.834l5.625,3.248A.472.472,0,0,0,238.609,96.308Z" transform="translate(-232.501 -92.095)" fill="#e0d1db"/>
            </g>
            <g id="Grupo_71654" data-name="Grupo 71654" transform="translate(10.661 23.424)">
              <path id="Trazado_105851" data-name="Trazado 105851" d="M238.609,98.312a.482.482,0,0,0,.241-.9l-5.627-3.248a.481.481,0,1,0-.481.834l5.625,3.248A.472.472,0,0,0,238.609,98.312Z" transform="translate(-232.501 -94.101)" fill="#e0d1db"/>
            </g>
          </g>
        </g>
        <g id="Grupo_71661" data-name="Grupo 71661" transform="translate(61.405 105.273)">
          <path id="Trazado_105852" data-name="Trazado 105852" d="M231.356,112.585l4,2.31v-8.6l-1.756-1.14-.427-.638,2.771-1.649a.272.272,0,0,1,.047-.028l.075-.045,0,0a1.278,1.278,0,0,1,1.312.095,4.869,4.869,0,0,1,2.024,3.868v6.853l7.474,4.314a4.033,4.033,0,0,1,1.677,3.2,1.5,1.5,0,0,1-.47,1.224l.017.017-.373.222a4.226,4.226,0,0,1,.825,2.355,1.391,1.391,0,0,1-.567,1.274l.022.024-.522.31a4.171,4.171,0,0,1,1.067,2.629,1.486,1.486,0,0,1-.466,1.215l.013.013-.67.4a4.125,4.125,0,0,1,1.123,2.679,1.58,1.58,0,0,1-.461,1.25l.009.009-.026.015a.511.511,0,0,1-.058.035l-3.179,1.875-1.552-1.782,1.586-1.291L231.356,125.8Z" transform="translate(-226.001 -102.661)" fill="#e0d1db"/>
          <path id="Trazado_105853" data-name="Trazado 105853" d="M230.242,121.2l3.814,2.2V107.646l-3.814-2.2Z" transform="translate(-227.289 -99.447)" fill="#157eb5"/>
          <path id="Trazado_105854" data-name="Trazado 105854" d="M228.871,107.2l2.953-1.754,3.814,2.2-2.953,1.753Z" transform="translate(-228.871 -99.447)" fill="#1780b7"/>
          <path id="Trazado_105855" data-name="Trazado 105855" d="M230.641,109.4l2.953-1.753,3.814,2.2-2.953,1.753Z" transform="translate(-226.827 -96.908)" fill="#e0d1db"/>
          <g id="Grupo_71660" data-name="Grupo 71660" transform="translate(0 1.746)">
            <path id="Trazado_105856" data-name="Trazado 105856" d="M233.989,115.713V105.244c0-1.485.912-2.174,2.026-1.532a4.875,4.875,0,0,1,2.024,3.868v6.855l7.474,4.314a4.03,4.03,0,0,1,1.677,3.2c0,.825-.356,1.317-.858,1.414a4.247,4.247,0,0,1,.858,2.4c0,1.026-.534,1.549-1.243,1.4a4.192,4.192,0,0,1,1.243,2.836c0,1.086-.6,1.61-1.373,1.362a4.131,4.131,0,0,1,1.373,2.946c0,1.231-.754,1.8-1.677,1.267l-15.527-8.963V113.4Z" transform="translate(-227.585 -103.471)" fill="#fff"/>
            <path id="Trazado_105857" data-name="Trazado 105857" d="M228.871,122.015l3.814,2.2V108.46l-3.814-2.2Z" transform="translate(-228.871 -100.253)" fill="#2199d8"/>
            <g id="Grupo_71657" data-name="Grupo 71657" transform="translate(10.66 14.782)">
              <path id="Trazado_105858" data-name="Trazado 105858" d="M239.925,114.545a.483.483,0,0,0,.241-.9l-5.625-3.248a.482.482,0,1,0-.483.834l5.625,3.248A.475.475,0,0,0,239.925,114.545Z" transform="translate(-233.818 -110.33)" fill="#e0d1db"/>
            </g>
            <g id="Grupo_71658" data-name="Grupo 71658" transform="translate(10.66 19.102)">
              <path id="Trazado_105859" data-name="Trazado 105859" d="M239.925,116.55a.482.482,0,0,0,.241-.9l-5.625-3.25a.482.482,0,1,0-.483.834l5.625,3.25A.5.5,0,0,0,239.925,116.55Z" transform="translate(-233.818 -112.335)" fill="#e0d1db"/>
            </g>
            <g id="Grupo_71659" data-name="Grupo 71659" transform="translate(10.66 23.424)">
              <path id="Trazado_105860" data-name="Trazado 105860" d="M239.925,118.552a.481.481,0,0,0,.241-.9l-5.625-3.248a.482.482,0,1,0-.483.834l5.625,3.248A.472.472,0,0,0,239.925,118.552Z" transform="translate(-233.818 -114.341)" fill="#e0d1db"/>
            </g>
          </g>
        </g>
        <g id="Grupo_71666" data-name="Grupo 71666" transform="translate(15.429)">
          <path id="Trazado_105861" data-name="Trazado 105861" d="M211.087,67.986l5.717,3.3V59l-2.511-1.629-.608-.909,3.959-2.355a.726.726,0,0,1,.069-.041l.1-.062.006,0a1.827,1.827,0,0,1,1.873.136,6.952,6.952,0,0,1,2.892,5.526v9.79l10.676,6.166a5.753,5.753,0,0,1,2.4,4.577,2.136,2.136,0,0,1-.672,1.746l.024.026-.532.319a6.043,6.043,0,0,1,1.181,3.362,1.987,1.987,0,0,1-.81,1.821l.03.032-.743.444a5.96,5.96,0,0,1,1.524,3.756A2.128,2.128,0,0,1,235,93.448l.015.017-.955.573a5.9,5.9,0,0,1,1.6,3.825A2.276,2.276,0,0,1,235,99.652l.011.013-.034.019c-.026.022-.056.03-.084.05l-4.541,2.679-2.218-2.547,2.267-1.843L211.087,86.871Z" transform="translate(-203.437 -53.812)" fill="#ff9201"/>
          <path id="Trazado_105862" data-name="Trazado 105862" d="M209.495,80.3l5.448,3.146V60.933l-5.448-3.146Z" transform="translate(-205.276 -49.22)" fill="#157eb5"/>
          <path id="Trazado_105863" data-name="Trazado 105863" d="M207.537,60.292l4.219-2.5,5.448,3.146-4.219,2.5Z" transform="translate(-207.537 -49.22)" fill="#1780b7"/>
          <path id="Trazado_105864" data-name="Trazado 105864" d="M210.065,63.432l4.219-2.5,5.448,3.145-4.218,2.5Z" transform="translate(-204.617 -45.593)" fill="#ffbe4a"/>
          <g id="Grupo_71665" data-name="Grupo 71665" transform="translate(0 2.494)">
            <path id="Trazado_105865" data-name="Trazado 105865" d="M214.849,72.455V57.5c0-2.123,1.3-3.105,2.892-2.187a6.952,6.952,0,0,1,2.892,5.526v9.79L231.309,76.8a5.762,5.762,0,0,1,2.4,4.577c0,1.179-.509,1.879-1.226,2.019a6.072,6.072,0,0,1,1.226,3.435c0,1.463-.765,2.211-1.776,2a5.993,5.993,0,0,1,1.776,4.052c0,1.552-.858,2.3-1.961,1.946a5.909,5.909,0,0,1,1.961,4.209c0,1.756-1.08,2.571-2.4,1.81l-22.18-12.805V69.153Z" transform="translate(-205.699 -54.969)" fill="#ffaf04"/>
            <path id="Trazado_105866" data-name="Trazado 105866" d="M207.537,81.46l5.448,3.146V62.1l-5.448-3.145Z" transform="translate(-207.537 -50.371)" fill="#2199d8"/>
            <g id="Grupo_71662" data-name="Grupo 71662" transform="translate(15.229 21.115)">
              <path id="Trazado_105867" data-name="Trazado 105867" d="M223.33,70.786a.687.687,0,0,0,.343-1.282l-8.036-4.642a.688.688,0,0,0-.687,1.192l8.036,4.64A.669.669,0,0,0,223.33,70.786Z" transform="translate(-214.604 -64.767)" fill="#ff9201"/>
            </g>
            <g id="Grupo_71663" data-name="Grupo 71663" transform="translate(15.229 27.288)">
              <path id="Trazado_105868" data-name="Trazado 105868" d="M223.33,73.651a.688.688,0,0,0,.343-1.284l-8.036-4.642a.688.688,0,1,0-.687,1.192l8.036,4.642A.691.691,0,0,0,223.33,73.651Z" transform="translate(-214.604 -67.632)" fill="#ff9201"/>
            </g>
            <g id="Grupo_71664" data-name="Grupo 71664" transform="translate(15.229 33.462)">
              <path id="Trazado_105869" data-name="Trazado 105869" d="M223.33,76.514a.688.688,0,0,0,.343-1.284l-8.036-4.64a.687.687,0,1,0-.687,1.19l8.036,4.642A.691.691,0,0,0,223.33,76.514Z" transform="translate(-214.604 -70.497)" fill="#ff9201"/>
            </g>
          </g>
        </g>
        <g id="Grupo_71671" data-name="Grupo 71671" transform="translate(65.397 20.223)">
          <path id="Trazado_105870" data-name="Trazado 105870" d="M233.185,73.027l3.967,2.289V66.8l-1.741-1.129-.422-.631,2.746-1.634a.542.542,0,0,1,.047-.028l.073-.045,0,0a1.26,1.26,0,0,1,1.3.095,4.82,4.82,0,0,1,2.006,3.832v6.791l7.4,4.276a4,4,0,0,1,1.662,3.174,1.482,1.482,0,0,1-.465,1.211l.017.019-.371.22a4.184,4.184,0,0,1,.819,2.332,1.376,1.376,0,0,1-.562,1.263l.022.024-.515.308a4.131,4.131,0,0,1,1.056,2.6,1.47,1.47,0,0,1-.461,1.2l.013.013-.664.4a4.1,4.1,0,0,1,1.112,2.653,1.576,1.576,0,0,1-.457,1.241l.009.009-.026.015c-.017.013-.039.019-.056.032l-3.151,1.86-1.537-1.767,1.571-1.278-13.4-7.737Z" transform="translate(-227.881 -63.196)" fill="#ff9201"/>
          <path id="Trazado_105871" data-name="Trazado 105871" d="M232.081,81.566l3.779,2.182V68.135l-3.779-2.182Z" transform="translate(-229.155 -60.011)" fill="#157eb5"/>
          <path id="Trazado_105872" data-name="Trazado 105872" d="M230.724,67.691l2.926-1.737,3.779,2.182L234.5,69.872Z" transform="translate(-230.724 -60.011)" fill="#1780b7"/>
          <path id="Trazado_105873" data-name="Trazado 105873" d="M232.477,69.868l2.926-1.737,3.779,2.182-2.926,1.737Z" transform="translate(-228.698 -57.495)" fill="#ffbe4a"/>
          <g id="Grupo_71670" data-name="Grupo 71670" transform="translate(0 1.731)">
            <path id="Trazado_105874" data-name="Trazado 105874" d="M235.793,76.128V65.753c0-1.47.9-2.153,2.006-1.515a4.82,4.82,0,0,1,2.006,3.832V74.86l7.4,4.276a4,4,0,0,1,1.662,3.174c0,.819-.353,1.3-.851,1.4a4.217,4.217,0,0,1,.851,2.381c0,1.015-.53,1.534-1.233,1.388a4.152,4.152,0,0,1,1.233,2.81c0,1.078-.595,1.595-1.36,1.349a4.1,4.1,0,0,1,1.36,2.92c0,1.218-.748,1.782-1.662,1.254l-15.383-8.881v-13.1Z" transform="translate(-229.448 -63.999)" fill="#ffaf04"/>
            <path id="Trazado_105875" data-name="Trazado 105875" d="M230.724,82.372l3.779,2.182V68.941l-3.779-2.182Z" transform="translate(-230.724 -60.81)" fill="#2199d8"/>
            <g id="Grupo_71667" data-name="Grupo 71667" transform="translate(10.563 14.645)">
              <path id="Trazado_105876" data-name="Trazado 105876" d="M241.677,74.97a.478.478,0,0,0,.239-.892l-5.575-3.218a.476.476,0,0,0-.476.825l5.573,3.22A.481.481,0,0,0,241.677,74.97Z" transform="translate(-235.625 -70.794)" fill="#ff9201"/>
            </g>
            <g id="Grupo_71668" data-name="Grupo 71668" transform="translate(10.563 18.925)">
              <path id="Trazado_105877" data-name="Trazado 105877" d="M241.677,76.955a.477.477,0,0,0,.239-.89l-5.575-3.22a.477.477,0,0,0-.476.828l5.573,3.22A.478.478,0,0,0,241.677,76.955Z" transform="translate(-235.625 -72.781)" fill="#ff9201"/>
            </g>
            <g id="Grupo_71669" data-name="Grupo 71669" transform="translate(10.563 23.207)">
              <path id="Trazado_105878" data-name="Trazado 105878" d="M241.677,78.941a.477.477,0,0,0,.239-.89l-5.575-3.218a.476.476,0,0,0-.476.825l5.573,3.22A.478.478,0,0,0,241.677,78.941Z" transform="translate(-235.625 -74.768)" fill="#ff9201"/>
            </g>
          </g>
        </g>
        <path id="Trazado_105879" data-name="Trazado 105879" d="M219.971,73.5c-2.9,1.519-13.144,7.263-17.35,10.327-.7.515-.116,1.032.412.776a192.905,192.905,0,0,0,17.344-10.512C220.762,73.815,220.367,73.29,219.971,73.5Z" transform="translate(-198.161 -31.128)" fill="#261822"/>
        <path id="Trazado_105880" data-name="Trazado 105880" d="M218.049,89.767a124.51,124.51,0,0,0-16.807,8.4c-.192.114-.065.459.157.373A124.153,124.153,0,0,0,218.4,90.612C218.842,90.36,218.546,89.569,218.049,89.767Z" transform="translate(-199.489 -12.318)" fill="#261822"/>
        <path id="Trazado_105881" data-name="Trazado 105881" d="M239.074,96.791a124.385,124.385,0,0,0-16.807,8.4c-.192.112-.065.459.157.373a124.148,124.148,0,0,0,17.006-7.926C239.869,97.384,239.571,96.593,239.074,96.791Z" transform="translate(-175.204 -4.205)" fill="#261822"/>
        <path id="Trazado_105882" data-name="Trazado 105882" d="M215.255,88.07a104.185,104.185,0,0,0-13.771,6.668c-.14.078-.045.325.11.265a104.269,104.269,0,0,0,13.956-6.235C215.917,88.559,215.671,87.915,215.255,88.07Z" transform="translate(-199.178 -14.27)" fill="#261822"/>
        <path id="Trazado_105883" data-name="Trazado 105883" d="M234.12,111.139a104.493,104.493,0,0,0-13.773,6.67c-.14.078-.043.325.112.265a104.273,104.273,0,0,0,13.956-6.235C234.782,111.631,234.536,110.986,234.12,111.139Z" transform="translate(-177.39 12.378)" fill="#261822"/>
        <path id="Trazado_105884" data-name="Trazado 105884" d="M234.12,109.376a103.957,103.957,0,0,0-13.773,6.67c-.14.075-.043.323.112.263a104,104,0,0,0,13.956-6.235C234.782,109.867,234.536,109.221,234.12,109.376Z" transform="translate(-177.39 10.34)" fill="#261822"/>
        <path id="Trazado_105885" data-name="Trazado 105885" d="M253.082,84.939a104.211,104.211,0,0,0-13.773,6.668c-.14.078-.045.325.112.265a104.268,104.268,0,0,0,13.956-6.235C253.744,85.428,253.5,84.784,253.082,84.939Z" transform="translate(-155.488 -17.886)" fill="#261822"/>
        <path id="Trazado_105886" data-name="Trazado 105886" d="M253.706,86.555a104.353,104.353,0,0,0-13.773,6.67c-.14.075-.043.323.112.265A104.28,104.28,0,0,0,254,87.253C254.368,87.046,254.122,86.4,253.706,86.555Z" transform="translate(-154.767 -16.02)" fill="#261822"/>
        <path id="Trazado_105887" data-name="Trazado 105887" d="M235.769,95.846A104.5,104.5,0,0,0,222,102.516c-.14.078-.045.325.112.265a104.129,104.129,0,0,0,13.954-6.237C236.43,96.337,236.182,95.691,235.769,95.846Z" transform="translate(-175.487 -5.288)" fill="#261822"/>
        <path id="Trazado_105888" data-name="Trazado 105888" d="M262.572,102.133a153.151,153.151,0,0,0-16.84,10.269.2.2,0,0,0,.2.351,153.279,153.279,0,0,0,16.835-10.28A.2.2,0,0,0,262.572,102.133Z" transform="translate(-148.099 1.969)" fill="#261822"/>
        <path id="Trazado_105889" data-name="Trazado 105889" d="M241.019,75.58A153.981,153.981,0,0,0,223.275,84.2a.2.2,0,0,0,.172.371,153.383,153.383,0,0,0,17.738-8.627A.2.2,0,0,0,241.019,75.58Z" transform="translate(-174.057 -28.69)" fill="#261822"/>
        <path id="Trazado_105890" data-name="Trazado 105890" d="M261.435,100.17a177.63,177.63,0,0,0-17.26,9.426.237.237,0,0,0,.239.409,178.069,178.069,0,0,0,17.206-9.517A.185.185,0,0,0,261.435,100.17Z" transform="translate(-149.923 -0.291)" fill="#261822"/>
        <path id="Trazado_105891" data-name="Trazado 105891" d="M242.218,77.559a177.639,177.639,0,0,0-17.26,9.426.237.237,0,0,0,.239.409A177.572,177.572,0,0,0,242.4,77.878.185.185,0,0,0,242.218,77.559Z" transform="translate(-172.12 -26.408)" fill="#261822"/>
        <path id="Trazado_105892" data-name="Trazado 105892" d="M217.752,72.166a177.42,177.42,0,0,0-17.26,9.426.238.238,0,0,0,.241.409,177.627,177.627,0,0,0,17.206-9.519A.184.184,0,0,0,217.752,72.166Z" transform="translate(-200.378 -32.637)" fill="#261822"/>
      </g>
    </g>
  </g>
</svg>
