<svg xmlns="http://www.w3.org/2000/svg" xmlns:xlink="http://www.w3.org/1999/xlink" width="229" height="117" viewBox="0 0 229 117">
  <defs>
    <clipPath id="clip-path">
      <path id="Rectángulo_32175" data-name="Rectángulo 32175" d="M0,0H204a25,25,0,0,1,25,25V92a25,25,0,0,1-25,25H0a0,0,0,0,1,0,0V0A0,0,0,0,1,0,0Z" fill="#fff"/>
    </clipPath>
    <filter id="Rectángulo_32163" x="79.337" y="5.477" width="98.583" height="112.046" filterUnits="userSpaceOnUse">
      <feOffset dy="3" input="SourceAlpha"/>
      <feGaussianBlur stdDeviation="3" result="blur"/>
      <feFlood flood-opacity="0.161"/>
      <feComposite operator="in" in2="blur"/>
      <feComposite in="SourceGraphic"/>
    </filter>
  </defs>
  <g id="Enmascarar_grupo_58" data-name="Enmascarar grupo 58" clip-path="url(#clip-path)">
    <g id="Grupo_72194" data-name="Grupo 72194" transform="translate(88.336 11.478)">
      <g id="Grupo_71781" data-name="Grupo 71781" transform="translate(0 0)">
        <g transform="matrix(1, 0, 0, 1, -88.34, -11.48)" filter="url(#Rectángulo_32163)">
          <rect id="Rectángulo_32163-2" data-name="Rectángulo 32163" width="80.583" height="94.046" rx="3" transform="translate(88.34 11.48)" fill="#fff"/>
        </g>
        <rect id="Rectángulo_32164" data-name="Rectángulo 32164" width="85.691" height="72.353" transform="translate(76.468 4.239) rotate(90)" fill="#fb8c00"/>
        <rect id="Rectángulo_32165" data-name="Rectángulo 32165" width="33.256" height="6.372" rx="3.059" transform="translate(39.681 11.508)" fill="#f1f0fd"/>
        <rect id="Rectángulo_32166" data-name="Rectángulo 32166" width="33.256" height="6.372" rx="3.059" transform="translate(39.681 26.528)" fill="#f1f0fd"/>
        <rect id="Rectángulo_32167" data-name="Rectángulo 32167" width="33.256" height="6.372" rx="3.059" transform="translate(39.681 58.813)" fill="#f1f0fd"/>
        <rect id="Rectángulo_32168" data-name="Rectángulo 32168" width="33.256" height="6.372" rx="3.059" transform="translate(39.681 74.191)" fill="#f1f0fd"/>
        <rect id="Rectángulo_32169" data-name="Rectángulo 32169" width="33.256" height="6.372" rx="3.059" transform="translate(39.681 42.598)" fill="#f1f0fd"/>
      </g>
      <path id="Trazado_106235" data-name="Trazado 106235" d="M736.069-518.766l6.294-6.3a1.777,1.777,0,0,1,2.516,0l.025.025a1.778,1.778,0,0,1,0,2.512l-8.85,8.85-5.012-5.01a1.777,1.777,0,0,1,0-2.514l.045-.045a1.778,1.778,0,0,1,2.516,0Z" transform="translate(-717.736 533.656)" fill="#f1f0fd"/>
      <path id="Trazado_106236" data-name="Trazado 106236" d="M736.069-497.126l6.294-6.3a1.778,1.778,0,0,1,2.516,0l.025.025a1.777,1.777,0,0,1,0,2.512l-8.85,8.85-5.012-5.01a1.778,1.778,0,0,1,0-2.515l.045-.045a1.778,1.778,0,0,1,2.516,0Z" transform="translate(-717.736 526.119)" fill="#f1f0fd"/>
      <path id="Trazado_106237" data-name="Trazado 106237" d="M736.069-471.159l6.294-6.3a1.778,1.778,0,0,1,2.516,0l.025.025a1.778,1.778,0,0,1,0,2.512l-8.85,8.849-5.012-5.01a1.778,1.778,0,0,1,0-2.515l.045-.044a1.778,1.778,0,0,1,2.516,0Z" transform="translate(-717.736 517.075)" fill="#f1f0fd"/>
      <path id="Trazado_106238" data-name="Trazado 106238" d="M736.069-447.844l6.294-6.3a1.778,1.778,0,0,1,2.516,0l.025.025a1.777,1.777,0,0,1,0,2.512l-8.85,8.85-5.012-5.01a1.778,1.778,0,0,1,0-2.515l.045-.044a1.778,1.778,0,0,1,2.516,0Z" transform="translate(-717.736 508.955)" fill="#f1f0fd"/>
      <path id="Trazado_106239" data-name="Trazado 106239" d="M736.069-424.529l6.294-6.3a1.778,1.778,0,0,1,2.516,0l.025.025a1.777,1.777,0,0,1,0,2.512l-8.85,8.85-5.012-5.01a1.778,1.778,0,0,1,0-2.515l.045-.045a1.778,1.778,0,0,1,2.516,0Z" transform="translate(-717.736 500.835)" fill="#f1f0fd"/>
    </g>
  </g>
</svg>
