<svg xmlns="http://www.w3.org/2000/svg" width="60" height="60" viewBox="0 0 60 60">
  <g id="Grupo_70248" data-name="Grupo 70248" transform="translate(-310 -10881)">
    <circle id="Elipse_3975" data-name="Elipse 3975" cx="30" cy="30" r="30" transform="translate(310 10881)" fill="#fb8c00"/>
    <path id="Trazado_108726" data-name="Trazado 108726" d="M-1444.838-474.688l.62-.125a2.707,2.707,0,0,0,1.6-1.66h0l.073-.36h0a7.19,7.19,0,0,1,.045-1.238h0q0-.829,0-1.658h0a6.757,6.757,0,0,1,0-1.73h0q0-.795,0-1.59a7.6,7.6,0,0,1,0-1.8h0q0-.8,0-1.593h0a.109.109,0,0,1,0-.06h0a6.534,6.534,0,0,1,0-1.666h0q0-.83,0-1.659a6.775,6.775,0,0,1,0-1.727h0v-1.659a6.938,6.938,0,0,1,0-1.73h0c0-.262,0-.524,0-.786h0a7.416,7.416,0,0,0-.166-.875h0a2.55,2.55,0,0,0-2.229-1.67h0q-3.8,0-7.594.007-5.457,0-10.915,0a2.524,2.524,0,0,0-2.546,1.545h0a.243.243,0,0,1-.057.2c-.026.137-.054.274-.08.411h0a6.915,6.915,0,0,1-.045,1.239h0q0,.8,0,1.59a7.642,7.642,0,0,1,0,1.8h0q0,.8,0,1.595h0a6.827,6.827,0,0,1,0,1.729h0q0,.83,0,1.659a6.825,6.825,0,0,1,0,1.727h0v1.66h0a6.819,6.819,0,0,1,0,1.726h0q0,.8,0,1.591a7.616,7.616,0,0,1,0,1.8h0q0,.422,0,.843h0c.084.265.061.553.17.812a2.585,2.585,0,0,0,1.7,1.562c.157.048.331,0,.474.1h0l1.039.009h16.871l1.037-.011Zm-5.4-12.5c-.2.215-.422.413-.634.618h0a.21.21,0,0,1-.122.122h0l-.062.061h0q-.706.773-1.48,1.479a.4.4,0,0,1-.183.183h0c-.491.536-1.006,1.048-1.54,1.542h0a.208.208,0,0,1-.122.122h0c-.493.534-1.005,1.049-1.542,1.54a.4.4,0,0,1-.183.183h0a9.577,9.577,0,0,1-1.28,1.24.447.447,0,0,1-.318.048h0l-1.664.184h0c-.312.04-.623.082-.934.119a.619.619,0,0,1-.733-.651c.007-.273.05-.544.076-.817h0a.3.3,0,0,1,.043-.246,13.938,13.938,0,0,1,.187-1.73h0a.5.5,0,0,1,.189-.452c.376-.354.74-.72,1.109-1.081h0l.123-.124h0l.063-.06h0q.708-.769,1.477-1.477a.448.448,0,0,1,.186-.185h0q.708-.769,1.477-1.477l.061-.062h0l.123-.124h0q.741-.8,1.539-1.539l.124-.124h0l.062-.061h0c.2-.205.39-.416.595-.614a.319.319,0,0,1,.508.015c.146.156.295.31.442.464l.254.254h0q.732.677,1.409,1.409h0l.746.725A.332.332,0,0,1-1450.234-487.187Zm2.51-2.643h0a1.378,1.378,0,0,1-.417.55,7.887,7.887,0,0,1-1.125,1.049c-.138.1-.249.043-.353-.062l-1.315-1.335h0l-.2-.2h0l-1.353-1.337c-.14-.138-.192-.287-.043-.453h0a10.466,10.466,0,0,1,1.477-1.417h0a.135.135,0,0,1,.123-.062h0a1.147,1.147,0,0,1,1.307.168,3.46,3.46,0,0,1,.361.372h0a4.641,4.641,0,0,1,.869.925h0A1.349,1.349,0,0,1-1447.724-489.83Z" transform="translate(1794.77 11397.91)" fill="#fff"/>
  </g>
</svg>
