<svg xmlns="http://www.w3.org/2000/svg" xmlns:xlink="http://www.w3.org/1999/xlink" width="794.831" height="410.67" viewBox="0 0 794.831 410.67">
  <defs>
    <linearGradient id="linear-gradient" x1="0.553" y1="0.178" x2="0.442" y2="0.854" gradientUnits="objectBoundingBox">
      <stop offset="0.379" stop-color="#add2fd"/>
      <stop offset="0.501" stop-color="#a3c5fd"/>
      <stop offset="0.639" stop-color="#81b0fc"/>
    </linearGradient>
    <linearGradient id="linear-gradient-2" x1="0.674" y1="0.218" x2="0.31" y2="0.81" xlink:href="#linear-gradient"/>
    <linearGradient id="linear-gradient-4" x1="0.5" x2="0.5" y2="1" gradientUnits="objectBoundingBox">
      <stop offset="0.001" stop-color="#80f2ff"/>
      <stop offset="0.429" stop-color="#47c0dd"/>
      <stop offset="1" stop-color="#0081b3"/>
    </linearGradient>
  </defs>
  <g id="Grupo_71329" data-name="Grupo 71329" transform="translate(-82.108 -65.542)">
    <g id="Grupo_71303" data-name="Grupo 71303">
      <path id="Trazado_104760" data-name="Trazado 104760" d="M170.655,148.808h-80.5a8.045,8.045,0,0,1-8.045-8.045V77.107a7.966,7.966,0,0,1,7.6-8.045h80.5a8.152,8.152,0,0,1,8.486,8.045v63.656A8.045,8.045,0,0,1,170.655,148.808Z" fill="url(#linear-gradient)"/>
      <rect id="Rectángulo_32048" data-name="Rectángulo 32048" width="78.136" height="94.982" rx="9" transform="translate(177.895 69.867) rotate(90)" fill="#1565c0"/>
    </g>
    <g id="Grupo_71304" data-name="Grupo 71304">
      <path id="Trazado_104761" data-name="Trazado 104761" d="M170.655,475.712h-80.5a8.045,8.045,0,0,1-8.045-8.045V184.351a7.966,7.966,0,0,1,7.6-8.045h80.5a8.152,8.152,0,0,1,8.486,8.045V467.667A8.045,8.045,0,0,1,170.655,475.712Z" fill="url(#linear-gradient-2)"/>
      <rect id="Rectángulo_32049" data-name="Rectángulo 32049" width="297.796" height="94.982" rx="8" transform="translate(177.895 177.111) rotate(90)" fill="#1565c0"/>
    </g>
    <path id="Trazado_108751" data-name="Trazado 108751" d="M-19-5.32A7.037,7.037,0,0,1-19.562-2.4,4.261,4.261,0,0,1-21.156-.5a4.385,4.385,0,0,1-2.406.656A4.347,4.347,0,0,1-25.945-.5a4.363,4.363,0,0,1-1.613-1.883,6.752,6.752,0,0,1-.59-2.832v-.82a6.953,6.953,0,0,1,.57-2.9,4.347,4.347,0,0,1,1.613-1.926,4.329,4.329,0,0,1,2.387-.668,4.41,4.41,0,0,1,2.41.66,4.253,4.253,0,0,1,1.605,1.914A7.071,7.071,0,0,1-19-6.039Zm-1.492-.734A5.1,5.1,0,0,0-21.3-9.16a2.68,2.68,0,0,0-2.273-1.082A2.651,2.651,0,0,0-25.816-9.16a5,5,0,0,0-.84,3v.836a5.107,5.107,0,0,0,.824,3.082,2.662,2.662,0,0,0,2.27,1.121,2.652,2.652,0,0,0,2.25-1.059,5.079,5.079,0,0,0,.82-3.035ZM-9.82-4.133a5.026,5.026,0,0,1-.891,3.113A2.846,2.846,0,0,1-13.1.156,2.947,2.947,0,0,1-15.578-.977l-.07.977h-1.328V-12h1.445v4.477a2.93,2.93,0,0,1,2.414-1.086A2.863,2.863,0,0,1-10.7-7.445,5.177,5.177,0,0,1-9.82-4.258ZM-11.266-4.3a3.906,3.906,0,0,0-.57-2.281,1.888,1.888,0,0,0-1.641-.8,2.122,2.122,0,0,0-2.055,1.328V-2.4a2.181,2.181,0,0,0,2.07,1.328,1.878,1.878,0,0,0,1.617-.8A4.153,4.153,0,0,0-11.266-4.3Zm4.758-4.156V.977q0,2.437-2.211,2.438a2.7,2.7,0,0,1-.883-.14V2.125a2.794,2.794,0,0,0,.656.063.982.982,0,0,0,.738-.262,1.3,1.3,0,0,0,.254-.911V-8.453ZM-8.1-10.7a.867.867,0,0,1,.215-.59.79.79,0,0,1,.629-.246.819.819,0,0,1,.641.242A.854.854,0,0,1-6.4-10.7a.826.826,0,0,1-.219.586.834.834,0,0,1-.641.234.808.808,0,0,1-.633-.234A.843.843,0,0,1-8.1-10.7ZM-.672.156a3.693,3.693,0,0,1-2.8-1.129,4.19,4.19,0,0,1-1.078-3.02v-.266A5.073,5.073,0,0,1-4.066-6.5,3.748,3.748,0,0,1-2.723-8.051,3.378,3.378,0,0,1-.852-8.609,3.166,3.166,0,0,1,1.711-7.523a4.7,4.7,0,0,1,.914,3.109v.6H-3.1a3,3,0,0,0,.73,2.02,2.3,2.3,0,0,0,1.777.77A2.517,2.517,0,0,0,.7-1.336a3.259,3.259,0,0,0,.93-.828l.883.688A3.55,3.55,0,0,1-.672.156Zm-.18-7.578a1.928,1.928,0,0,0-1.469.637A3.1,3.1,0,0,0-3.055-5H1.18v-.109A2.753,2.753,0,0,0,.586-6.816,1.815,1.815,0,0,0-.852-7.422ZM6.258-10.5v2.047H7.836v1.117H6.258v5.249a1.173,1.173,0,0,0,.211.763.888.888,0,0,0,.719.254,3.5,3.5,0,0,0,.688-.094V0A4.215,4.215,0,0,1,6.766.156,1.8,1.8,0,0,1,5.3-.43a2.517,2.517,0,0,1-.492-1.664V-7.336H3.273V-8.453H4.813V-10.5ZM11.094,0H9.648V-8.453h1.445ZM9.531-10.7a.863.863,0,0,1,.215-.594.807.807,0,0,1,.637-.242.819.819,0,0,1,.641.242.854.854,0,0,1,.219.594.826.826,0,0,1-.219.586.834.834,0,0,1-.641.234.821.821,0,0,1-.637-.234A.834.834,0,0,1,9.531-10.7ZM16.2-1.961l2.094-6.492h1.477L16.734,0h-1.1L12.57-8.453h1.477ZM20.656-4.3a4.993,4.993,0,0,1,.488-2.234A3.643,3.643,0,0,1,22.5-8.07a3.7,3.7,0,0,1,1.988-.539,3.565,3.565,0,0,1,2.793,1.2,4.6,4.6,0,0,1,1.066,3.18v.1a5.036,5.036,0,0,1-.473,2.215A3.589,3.589,0,0,1,26.527-.391a3.743,3.743,0,0,1-2.02.547,3.556,3.556,0,0,1-2.785-1.2A4.575,4.575,0,0,1,20.656-4.2Zm1.453.172a3.616,3.616,0,0,0,.652,2.258,2.088,2.088,0,0,0,1.746.852,2.075,2.075,0,0,0,1.75-.863A3.955,3.955,0,0,0,26.906-4.3a3.61,3.61,0,0,0-.66-2.254,2.1,2.1,0,0,0-1.754-.863,2.075,2.075,0,0,0-1.727.852A3.925,3.925,0,0,0,22.109-4.133ZM-17.465,17.708a3.465,3.465,0,0,1-1.613,1.238,6.517,6.517,0,0,1-2.41.41,4.674,4.674,0,0,1-2.469-.652,4.346,4.346,0,0,1-1.668-1.855,6.408,6.408,0,0,1-.605-2.789v-.992a5.982,5.982,0,0,1,1.2-3.984A4.179,4.179,0,0,1-21.66,7.669a4.316,4.316,0,0,1,2.867.91,3.965,3.965,0,0,1,1.328,2.582h-1.5A2.48,2.48,0,0,0-21.652,8.9a2.655,2.655,0,0,0-2.285,1.06,5.173,5.173,0,0,0-.785,3.069v.93A4.848,4.848,0,0,0-23.848,17a2.836,2.836,0,0,0,2.367,1.13A5.228,5.228,0,0,0-20,17.943a2.283,2.283,0,0,0,1.047-.631V14.763H-21.59V13.536h4.125Zm5.781,1.648a3.693,3.693,0,0,1-2.8-1.129,4.19,4.19,0,0,1-1.078-3.02v-.266a5.073,5.073,0,0,1,.48-2.246,3.748,3.748,0,0,1,1.344-1.547,3.378,3.378,0,0,1,1.871-.559A3.166,3.166,0,0,1-9.3,11.677a4.7,4.7,0,0,1,.914,3.109v.6h-5.727a3,3,0,0,0,.73,2.02,2.3,2.3,0,0,0,1.777.77,2.517,2.517,0,0,0,1.3-.312,3.259,3.259,0,0,0,.93-.828l.883.688A3.55,3.55,0,0,1-11.684,19.356Zm-.18-7.578a1.928,1.928,0,0,0-1.469.637,3.1,3.1,0,0,0-.734,1.785h4.234v-.109a2.753,2.753,0,0,0-.594-1.707A1.815,1.815,0,0,0-11.863,11.778Zm6.516-1.031.047,1.063A3.08,3.08,0,0,1-2.77,10.591q2.68,0,2.7,3.023V19.2H-1.512V13.606a1.946,1.946,0,0,0-.418-1.352,1.675,1.675,0,0,0-1.277-.437,2.086,2.086,0,0,0-1.234.375,2.546,2.546,0,0,0-.828.984V19.2H-6.715V10.747ZM5.621,19.356a3.693,3.693,0,0,1-2.8-1.129,4.19,4.19,0,0,1-1.078-3.02v-.266a5.073,5.073,0,0,1,.48-2.246A3.748,3.748,0,0,1,3.57,11.149a3.378,3.378,0,0,1,1.871-.559A3.166,3.166,0,0,1,8,11.677a4.7,4.7,0,0,1,.914,3.109v.6H3.191a3,3,0,0,0,.73,2.02,2.3,2.3,0,0,0,1.777.77A2.517,2.517,0,0,0,7,17.864a3.259,3.259,0,0,0,.93-.828l.883.688A3.55,3.55,0,0,1,5.621,19.356Zm-.18-7.578a1.928,1.928,0,0,0-1.469.637A3.1,3.1,0,0,0,3.238,14.2H7.473v-.109a2.753,2.753,0,0,0-.594-1.707A1.815,1.815,0,0,0,5.441,11.778Zm9.234.266a4.331,4.331,0,0,0-.711-.055,1.9,1.9,0,0,0-1.93,1.211v6H10.59V10.747H12l.023.977a2.251,2.251,0,0,1,2.016-1.133,1.477,1.477,0,0,1,.641.109ZM20.91,19.2a3.036,3.036,0,0,1-.2-.891A3.225,3.225,0,0,1,18.3,19.356a2.984,2.984,0,0,1-2.051-.707,2.287,2.287,0,0,1-.8-1.793,2.39,2.39,0,0,1,1-2.051,4.733,4.733,0,0,1,2.824-.73h1.406v-.664A1.623,1.623,0,0,0,20.23,12.2a1.821,1.821,0,0,0-1.336-.449,2.107,2.107,0,0,0-1.3.391,1.151,1.151,0,0,0-.523.945H15.621a2,2,0,0,1,.449-1.223,3.066,3.066,0,0,1,1.219-.934,4.1,4.1,0,0,1,1.691-.344,3.342,3.342,0,0,1,2.289.73,2.635,2.635,0,0,1,.859,2.012v3.891a4.757,4.757,0,0,0,.3,1.852V19.2Zm-2.4-1.1a2.54,2.54,0,0,0,1.289-.352,2.127,2.127,0,0,0,.883-.914V15.1H19.551q-2.656,0-2.656,1.555a1.316,1.316,0,0,0,.453,1.063A1.742,1.742,0,0,0,18.512,18.1Zm7.453,1.1H24.52V7.2h1.445Z" transform="translate(130.404 104.011)" fill="#fff"/>
    <g id="Grupo_71323" data-name="Grupo 71323">
      <path id="Trazado_104780" data-name="Trazado 104780" d="M286.424,148.808h-80.5a8.045,8.045,0,0,1-8.045-8.045V77.107a7.966,7.966,0,0,1,7.6-8.045h80.5a8.152,8.152,0,0,1,8.486,8.045v63.656A8.045,8.045,0,0,1,286.424,148.808Z" fill="url(#linear-gradient)"/>
      <rect id="Rectángulo_32050" data-name="Rectángulo 32050" width="78.136" height="94.982" rx="9" transform="translate(293.664 69.867) rotate(90)" fill="#1565c0"/>
    </g>
    <g id="Grupo_73618" data-name="Grupo 73618" transform="translate(0.231 107.088)">
      <path id="Trazado_104780-2" data-name="Trazado 104780" d="M286.424,148.808h-80.5a8.045,8.045,0,0,1-8.045-8.045V77.107a7.966,7.966,0,0,1,7.6-8.045h80.5a8.152,8.152,0,0,1,8.486,8.045v63.656A8.045,8.045,0,0,1,286.424,148.808Z" fill="url(#linear-gradient-4)"/>
      <rect id="Rectángulo_32050-2" data-name="Rectángulo 32050" width="78.136" height="94.982" rx="9" transform="translate(293.664 69.867) rotate(90)" fill="#b2ebf2"/>
    </g>
    <g id="Grupo_73623" data-name="Grupo 73623" transform="translate(119.231 107.088)">
      <path id="Trazado_104780-3" data-name="Trazado 104780" d="M286.424,148.808h-80.5a8.045,8.045,0,0,1-8.045-8.045V77.107a7.966,7.966,0,0,1,7.6-8.045h80.5a8.152,8.152,0,0,1,8.486,8.045v63.656A8.045,8.045,0,0,1,286.424,148.808Z" fill="url(#linear-gradient-4)"/>
      <rect id="Rectángulo_32050-3" data-name="Rectángulo 32050" width="78.136" height="94.982" rx="9" transform="translate(293.664 69.867) rotate(90)" fill="#b2ebf2"/>
    </g>
    <g id="Grupo_73626" data-name="Grupo 73626" transform="translate(236.12 107.088)">
      <path id="Trazado_104780-4" data-name="Trazado 104780" d="M286.424,148.808h-80.5a8.045,8.045,0,0,1-8.045-8.045V77.107a7.966,7.966,0,0,1,7.6-8.045h80.5a8.152,8.152,0,0,1,8.486,8.045v63.656A8.045,8.045,0,0,1,286.424,148.808Z" fill="url(#linear-gradient-4)"/>
      <rect id="Rectángulo_32050-4" data-name="Rectángulo 32050" width="78.136" height="94.982" rx="9" transform="translate(293.664 69.867) rotate(90)" fill="#b2ebf2"/>
    </g>
    <g id="Grupo_73629" data-name="Grupo 73629" transform="translate(349.503 107.088)">
      <path id="Trazado_104780-5" data-name="Trazado 104780" d="M286.424,148.808h-80.5a8.045,8.045,0,0,1-8.045-8.045V77.107a7.966,7.966,0,0,1,7.6-8.045h80.5a8.152,8.152,0,0,1,8.486,8.045v63.656A8.045,8.045,0,0,1,286.424,148.808Z" fill="url(#linear-gradient-4)"/>
      <rect id="Rectángulo_32050-5" data-name="Rectángulo 32050" width="78.136" height="94.982" rx="9" transform="translate(293.664 69.867) rotate(90)" fill="#b2ebf2"/>
    </g>
    <g id="Grupo_73632" data-name="Grupo 73632" transform="translate(461.885 107.088)">
      <path id="Trazado_104780-6" data-name="Trazado 104780" d="M286.424,148.808h-80.5a8.045,8.045,0,0,1-8.045-8.045V77.107a7.966,7.966,0,0,1,7.6-8.045h80.5a8.152,8.152,0,0,1,8.486,8.045v63.656A8.045,8.045,0,0,1,286.424,148.808Z" fill="url(#linear-gradient-4)"/>
      <rect id="Rectángulo_32050-6" data-name="Rectángulo 32050" width="78.136" height="94.982" rx="9" transform="translate(293.664 69.867) rotate(90)" fill="#b2ebf2"/>
    </g>
    <g id="Grupo_73635" data-name="Grupo 73635" transform="translate(579.496 107.088)">
      <path id="Trazado_104780-7" data-name="Trazado 104780" d="M286.424,148.808h-80.5a8.045,8.045,0,0,1-8.045-8.045V77.107a7.966,7.966,0,0,1,7.6-8.045h80.5a8.152,8.152,0,0,1,8.486,8.045v63.656A8.045,8.045,0,0,1,286.424,148.808Z" fill="url(#linear-gradient-4)"/>
      <rect id="Rectángulo_32050-7" data-name="Rectángulo 32050" width="78.136" height="94.982" rx="9" transform="translate(293.664 69.867) rotate(90)" fill="#b2ebf2"/>
    </g>
    <g id="Grupo_73619" data-name="Grupo 73619" transform="translate(0 201.815)">
      <path id="Trazado_104780-8" data-name="Trazado 104780" d="M286.424,148.808h-80.5a8.045,8.045,0,0,1-8.045-8.045V77.107a7.966,7.966,0,0,1,7.6-8.045h80.5a8.152,8.152,0,0,1,8.486,8.045v63.656A8.045,8.045,0,0,1,286.424,148.808Z" fill="url(#linear-gradient-4)"/>
      <rect id="Rectángulo_32050-8" data-name="Rectángulo 32050" width="78.136" height="94.982" rx="9" transform="translate(293.664 69.867) rotate(90)" fill="#b2ebf2"/>
    </g>
    <g id="Grupo_73622" data-name="Grupo 73622" transform="translate(119.231 201.815)">
      <path id="Trazado_104780-9" data-name="Trazado 104780" d="M286.424,148.808h-80.5a8.045,8.045,0,0,1-8.045-8.045V77.107a7.966,7.966,0,0,1,7.6-8.045h80.5a8.152,8.152,0,0,1,8.486,8.045v63.656A8.045,8.045,0,0,1,286.424,148.808Z" fill="url(#linear-gradient-4)"/>
      <rect id="Rectángulo_32050-9" data-name="Rectángulo 32050" width="78.136" height="94.982" rx="9" transform="translate(293.664 69.867) rotate(90)" fill="#b2ebf2"/>
    </g>
    <g id="Grupo_73625" data-name="Grupo 73625" transform="translate(236.12 201.815)">
      <path id="Trazado_104780-10" data-name="Trazado 104780" d="M286.424,148.808h-80.5a8.045,8.045,0,0,1-8.045-8.045V77.107a7.966,7.966,0,0,1,7.6-8.045h80.5a8.152,8.152,0,0,1,8.486,8.045v63.656A8.045,8.045,0,0,1,286.424,148.808Z" fill="url(#linear-gradient-4)"/>
      <rect id="Rectángulo_32050-10" data-name="Rectángulo 32050" width="78.136" height="94.982" rx="9" transform="translate(293.664 69.867) rotate(90)" fill="#b2ebf2"/>
    </g>
    <g id="Grupo_73628" data-name="Grupo 73628" transform="translate(349.503 201.815)">
      <path id="Trazado_104780-11" data-name="Trazado 104780" d="M286.424,148.808h-80.5a8.045,8.045,0,0,1-8.045-8.045V77.107a7.966,7.966,0,0,1,7.6-8.045h80.5a8.152,8.152,0,0,1,8.486,8.045v63.656A8.045,8.045,0,0,1,286.424,148.808Z" fill="url(#linear-gradient-4)"/>
      <rect id="Rectángulo_32050-11" data-name="Rectángulo 32050" width="78.136" height="94.982" rx="9" transform="translate(293.664 69.867) rotate(90)" fill="#b2ebf2"/>
    </g>
    <g id="Grupo_73631" data-name="Grupo 73631" transform="translate(461.885 201.815)">
      <path id="Trazado_104780-12" data-name="Trazado 104780" d="M286.424,148.808h-80.5a8.045,8.045,0,0,1-8.045-8.045V77.107a7.966,7.966,0,0,1,7.6-8.045h80.5a8.152,8.152,0,0,1,8.486,8.045v63.656A8.045,8.045,0,0,1,286.424,148.808Z" fill="url(#linear-gradient-4)"/>
      <rect id="Rectángulo_32050-12" data-name="Rectángulo 32050" width="78.136" height="94.982" rx="9" transform="translate(293.664 69.867) rotate(90)" fill="#b2ebf2"/>
    </g>
    <g id="Grupo_73634" data-name="Grupo 73634" transform="translate(579.496 201.815)">
      <path id="Trazado_104780-13" data-name="Trazado 104780" d="M286.424,148.808h-80.5a8.045,8.045,0,0,1-8.045-8.045V77.107a7.966,7.966,0,0,1,7.6-8.045h80.5a8.152,8.152,0,0,1,8.486,8.045v63.656A8.045,8.045,0,0,1,286.424,148.808Z" fill="url(#linear-gradient-4)"/>
      <rect id="Rectángulo_32050-13" data-name="Rectángulo 32050" width="78.136" height="94.982" rx="9" transform="translate(293.664 69.867) rotate(90)" fill="#b2ebf2"/>
    </g>
    <g id="Grupo_73620" data-name="Grupo 73620" transform="translate(0 302.747)">
      <path id="Trazado_104780-14" data-name="Trazado 104780" d="M286.424,148.808h-80.5a8.045,8.045,0,0,1-8.045-8.045V77.107a7.966,7.966,0,0,1,7.6-8.045h80.5a8.152,8.152,0,0,1,8.486,8.045v63.656A8.045,8.045,0,0,1,286.424,148.808Z" fill="url(#linear-gradient-4)"/>
      <rect id="Rectángulo_32050-14" data-name="Rectángulo 32050" width="78.136" height="94.982" rx="9" transform="translate(293.664 69.867) rotate(90)" fill="#b2ebf2"/>
    </g>
    <g id="Grupo_73621" data-name="Grupo 73621" transform="translate(119.231 302.747)">
      <path id="Trazado_104780-15" data-name="Trazado 104780" d="M286.424,148.808h-80.5a8.045,8.045,0,0,1-8.045-8.045V77.107a7.966,7.966,0,0,1,7.6-8.045h80.5a8.152,8.152,0,0,1,8.486,8.045v63.656A8.045,8.045,0,0,1,286.424,148.808Z" fill="url(#linear-gradient-4)"/>
      <rect id="Rectángulo_32050-15" data-name="Rectángulo 32050" width="78.136" height="94.982" rx="9" transform="translate(293.664 69.867) rotate(90)" fill="#b2ebf2"/>
    </g>
    <g id="Grupo_73624" data-name="Grupo 73624" transform="translate(236.12 302.747)">
      <path id="Trazado_104780-16" data-name="Trazado 104780" d="M286.424,148.808h-80.5a8.045,8.045,0,0,1-8.045-8.045V77.107a7.966,7.966,0,0,1,7.6-8.045h80.5a8.152,8.152,0,0,1,8.486,8.045v63.656A8.045,8.045,0,0,1,286.424,148.808Z" fill="url(#linear-gradient-4)"/>
      <rect id="Rectángulo_32050-16" data-name="Rectángulo 32050" width="78.136" height="94.982" rx="9" transform="translate(293.664 69.867) rotate(90)" fill="#b2ebf2"/>
    </g>
    <g id="Grupo_73627" data-name="Grupo 73627" transform="translate(349.503 302.747)">
      <path id="Trazado_104780-17" data-name="Trazado 104780" d="M286.424,148.808h-80.5a8.045,8.045,0,0,1-8.045-8.045V77.107a7.966,7.966,0,0,1,7.6-8.045h80.5a8.152,8.152,0,0,1,8.486,8.045v63.656A8.045,8.045,0,0,1,286.424,148.808Z" fill="url(#linear-gradient-4)"/>
      <rect id="Rectángulo_32050-17" data-name="Rectángulo 32050" width="78.136" height="94.982" rx="9" transform="translate(293.664 69.867) rotate(90)" fill="#b2ebf2"/>
    </g>
    <g id="Grupo_73630" data-name="Grupo 73630" transform="translate(461.885 302.747)">
      <path id="Trazado_104780-18" data-name="Trazado 104780" d="M286.424,148.808h-80.5a8.045,8.045,0,0,1-8.045-8.045V77.107a7.966,7.966,0,0,1,7.6-8.045h80.5a8.152,8.152,0,0,1,8.486,8.045v63.656A8.045,8.045,0,0,1,286.424,148.808Z" fill="url(#linear-gradient-4)"/>
      <rect id="Rectángulo_32050-18" data-name="Rectángulo 32050" width="78.136" height="94.982" rx="9" transform="translate(293.664 69.867) rotate(90)" fill="#b2ebf2"/>
    </g>
    <g id="Grupo_73633" data-name="Grupo 73633" transform="translate(579.496 302.747)">
      <path id="Trazado_104780-19" data-name="Trazado 104780" d="M286.424,148.808h-80.5a8.045,8.045,0,0,1-8.045-8.045V77.107a7.966,7.966,0,0,1,7.6-8.045h80.5a8.152,8.152,0,0,1,8.486,8.045v63.656A8.045,8.045,0,0,1,286.424,148.808Z" fill="url(#linear-gradient-4)"/>
      <rect id="Rectángulo_32050-19" data-name="Rectángulo 32050" width="78.136" height="94.982" rx="9" transform="translate(293.664 69.867) rotate(90)" fill="#b2ebf2"/>
    </g>
    <path id="Trazado_108752" data-name="Trazado 108752" d="M-19-5.32A7.037,7.037,0,0,1-19.562-2.4,4.261,4.261,0,0,1-21.156-.5a4.385,4.385,0,0,1-2.406.656A4.347,4.347,0,0,1-25.945-.5a4.363,4.363,0,0,1-1.613-1.883,6.752,6.752,0,0,1-.59-2.832v-.82a6.953,6.953,0,0,1,.57-2.9,4.347,4.347,0,0,1,1.613-1.926,4.329,4.329,0,0,1,2.387-.668,4.41,4.41,0,0,1,2.41.66,4.253,4.253,0,0,1,1.605,1.914A7.071,7.071,0,0,1-19-6.039Zm-1.492-.734A5.1,5.1,0,0,0-21.3-9.16a2.68,2.68,0,0,0-2.273-1.082A2.651,2.651,0,0,0-25.816-9.16a5,5,0,0,0-.84,3v.836a5.107,5.107,0,0,0,.824,3.082,2.662,2.662,0,0,0,2.27,1.121,2.652,2.652,0,0,0,2.25-1.059,5.079,5.079,0,0,0,.82-3.035ZM-9.82-4.133a5.026,5.026,0,0,1-.891,3.113A2.846,2.846,0,0,1-13.1.156,2.947,2.947,0,0,1-15.578-.977l-.07.977h-1.328V-12h1.445v4.477a2.93,2.93,0,0,1,2.414-1.086A2.863,2.863,0,0,1-10.7-7.445,5.177,5.177,0,0,1-9.82-4.258ZM-11.266-4.3a3.906,3.906,0,0,0-.57-2.281,1.888,1.888,0,0,0-1.641-.8,2.122,2.122,0,0,0-2.055,1.328V-2.4a2.181,2.181,0,0,0,2.07,1.328,1.878,1.878,0,0,0,1.617-.8A4.153,4.153,0,0,0-11.266-4.3Zm4.758-4.156V.977q0,2.437-2.211,2.438a2.7,2.7,0,0,1-.883-.14V2.125a2.794,2.794,0,0,0,.656.063.982.982,0,0,0,.738-.262,1.3,1.3,0,0,0,.254-.911V-8.453ZM-8.1-10.7a.867.867,0,0,1,.215-.59.79.79,0,0,1,.629-.246.819.819,0,0,1,.641.242A.854.854,0,0,1-6.4-10.7a.826.826,0,0,1-.219.586.834.834,0,0,1-.641.234.808.808,0,0,1-.633-.234A.843.843,0,0,1-8.1-10.7ZM-.672.156a3.693,3.693,0,0,1-2.8-1.129,4.19,4.19,0,0,1-1.078-3.02v-.266A5.073,5.073,0,0,1-4.066-6.5,3.748,3.748,0,0,1-2.723-8.051,3.378,3.378,0,0,1-.852-8.609,3.166,3.166,0,0,1,1.711-7.523a4.7,4.7,0,0,1,.914,3.109v.6H-3.1a3,3,0,0,0,.73,2.02,2.3,2.3,0,0,0,1.777.77A2.517,2.517,0,0,0,.7-1.336a3.259,3.259,0,0,0,.93-.828l.883.688A3.55,3.55,0,0,1-.672.156Zm-.18-7.578a1.928,1.928,0,0,0-1.469.637A3.1,3.1,0,0,0-3.055-5H1.18v-.109A2.753,2.753,0,0,0,.586-6.816,1.815,1.815,0,0,0-.852-7.422ZM6.258-10.5v2.047H7.836v1.117H6.258v5.249a1.173,1.173,0,0,0,.211.763.888.888,0,0,0,.719.254,3.5,3.5,0,0,0,.688-.094V0A4.215,4.215,0,0,1,6.766.156,1.8,1.8,0,0,1,5.3-.43a2.517,2.517,0,0,1-.492-1.664V-7.336H3.273V-8.453H4.813V-10.5ZM11.094,0H9.648V-8.453h1.445ZM9.531-10.7a.863.863,0,0,1,.215-.594.807.807,0,0,1,.637-.242.819.819,0,0,1,.641.242.854.854,0,0,1,.219.594.826.826,0,0,1-.219.586.834.834,0,0,1-.641.234.821.821,0,0,1-.637-.234A.834.834,0,0,1,9.531-10.7ZM16.2-1.961l2.094-6.492h1.477L16.734,0h-1.1L12.57-8.453h1.477ZM20.656-4.3a4.993,4.993,0,0,1,.488-2.234A3.643,3.643,0,0,1,22.5-8.07a3.7,3.7,0,0,1,1.988-.539,3.565,3.565,0,0,1,2.793,1.2,4.6,4.6,0,0,1,1.066,3.18v.1a5.036,5.036,0,0,1-.473,2.215A3.589,3.589,0,0,1,26.527-.391a3.743,3.743,0,0,1-2.02.547,3.556,3.556,0,0,1-2.785-1.2A4.575,4.575,0,0,1,20.656-4.2Zm1.453.172a3.616,3.616,0,0,0,.652,2.258,2.088,2.088,0,0,0,1.746.852,2.075,2.075,0,0,0,1.75-.863A3.955,3.955,0,0,0,26.906-4.3a3.61,3.61,0,0,0-.66-2.254,2.1,2.1,0,0,0-1.754-.863,2.075,2.075,0,0,0-1.727.852A3.925,3.925,0,0,0,22.109-4.133ZM-28.957,13.942h-4.93v4.031h5.727V19.2h-7.227V7.825h7.148V9.052h-5.648v3.664h4.93Zm7.359,3.016a1.064,1.064,0,0,0-.441-.91,4.249,4.249,0,0,0-1.539-.559,7.277,7.277,0,0,1-1.742-.562,2.479,2.479,0,0,1-.953-.781,1.869,1.869,0,0,1-.309-1.078,2.193,2.193,0,0,1,.879-1.758,3.432,3.432,0,0,1,2.246-.719,3.532,3.532,0,0,1,2.332.742,2.357,2.357,0,0,1,.895,1.9h-1.453a1.3,1.3,0,0,0-.5-1.023,1.888,1.888,0,0,0-1.27-.43,1.976,1.976,0,0,0-1.234.344,1.082,1.082,0,0,0-.445.9.877.877,0,0,0,.414.789,5.1,5.1,0,0,0,1.5.508,7.8,7.8,0,0,1,1.754.578,2.558,2.558,0,0,1,1,.809,1.988,1.988,0,0,1,.324,1.152,2.163,2.163,0,0,1-.906,1.816,3.8,3.8,0,0,1-2.352.684,4.257,4.257,0,0,1-1.8-.359,2.922,2.922,0,0,1-1.223-1,2.42,2.42,0,0,1-.441-1.395h1.445a1.5,1.5,0,0,0,.582,1.152,2.258,2.258,0,0,0,1.434.426,2.331,2.331,0,0,0,1.316-.332A1.02,1.02,0,0,0-21.6,16.958Zm10.469-1.891a5.062,5.062,0,0,1-.883,3.109,2.829,2.829,0,0,1-2.391,1.18,3.1,3.1,0,0,1-2.422-.977v4.07H-18.27v-11.7h1.32l.07.938a2.977,2.977,0,0,1,2.453-1.094,2.882,2.882,0,0,1,2.41,1.148,5.117,5.117,0,0,1,.887,3.2Zm-1.445-.164a3.735,3.735,0,0,0-.609-2.258,1.963,1.963,0,0,0-1.672-.828,2.125,2.125,0,0,0-1.969,1.164V17.02a2.129,2.129,0,0,0,1.984,1.156,1.954,1.954,0,0,0,1.652-.824A4.077,4.077,0,0,0-12.574,14.9Zm6.789,4.453a3.693,3.693,0,0,1-2.8-1.129,4.19,4.19,0,0,1-1.078-3.02v-.266A5.073,5.073,0,0,1-9.18,12.7a3.748,3.748,0,0,1,1.344-1.547,3.378,3.378,0,0,1,1.871-.559A3.166,3.166,0,0,1-3.4,11.677a4.7,4.7,0,0,1,.914,3.109v.6H-8.215a3,3,0,0,0,.73,2.02,2.3,2.3,0,0,0,1.777.77,2.517,2.517,0,0,0,1.3-.312,3.259,3.259,0,0,0,.93-.828l.883.688A3.55,3.55,0,0,1-5.785,19.356Zm-.18-7.578a1.928,1.928,0,0,0-1.469.637A3.1,3.1,0,0,0-8.168,14.2h4.234v-.109a2.753,2.753,0,0,0-.594-1.707A1.815,1.815,0,0,0-5.965,11.778Zm8.539,6.4a2.082,2.082,0,0,0,1.352-.469,1.649,1.649,0,0,0,.641-1.172H5.934a2.621,2.621,0,0,1-.5,1.383A3.293,3.293,0,0,1,4.2,18.966a3.55,3.55,0,0,1-1.629.391A3.482,3.482,0,0,1-.172,18.2a4.59,4.59,0,0,1-1.02-3.152v-.242a5.089,5.089,0,0,1,.453-2.2,3.451,3.451,0,0,1,1.3-1.492,3.7,3.7,0,0,1,2-.531,3.39,3.39,0,0,1,2.363.852,3.043,3.043,0,0,1,1,2.211H4.566a1.992,1.992,0,0,0-.621-1.348,1.932,1.932,0,0,0-1.379-.527,2.023,2.023,0,0,0-1.707.793,3.724,3.724,0,0,0-.605,2.293v.273a3.65,3.65,0,0,0,.6,2.25A2.033,2.033,0,0,0,2.574,18.177ZM9.129,19.2H7.684V10.747H9.129ZM7.566,8.5a.863.863,0,0,1,.215-.594.807.807,0,0,1,.637-.242.819.819,0,0,1,.641.242.854.854,0,0,1,.219.594.826.826,0,0,1-.219.586.834.834,0,0,1-.641.234.821.821,0,0,1-.637-.234A.834.834,0,0,1,7.566,8.5Zm4.359,10.7V11.864H10.59V10.747h1.336v-.719a2.937,2.937,0,0,1,.809-2.2,3.136,3.136,0,0,1,2.285-.789,6.881,6.881,0,0,1,2.211.477l-.242,1.219a5.008,5.008,0,0,0-1.859-.391,1.819,1.819,0,0,0-1.34.418,1.723,1.723,0,0,0-.41,1.254v.734h1.727v1.117H13.379V19.2Zm6.023,0H16.5V10.747h1.453Zm5.742-1.023a2.082,2.082,0,0,0,1.352-.469,1.649,1.649,0,0,0,.641-1.172h1.367a2.621,2.621,0,0,1-.5,1.383,3.293,3.293,0,0,1-1.23,1.047,3.55,3.55,0,0,1-1.629.391A3.482,3.482,0,0,1,20.945,18.2a4.59,4.59,0,0,1-1.02-3.152v-.242a5.089,5.089,0,0,1,.453-2.2,3.451,3.451,0,0,1,1.3-1.492,3.7,3.7,0,0,1,2-.531,3.39,3.39,0,0,1,2.363.852,3.043,3.043,0,0,1,1,2.211H25.684a1.992,1.992,0,0,0-.621-1.348,1.932,1.932,0,0,0-1.379-.527,2.023,2.023,0,0,0-1.707.793,3.724,3.724,0,0,0-.605,2.293v.273a3.65,3.65,0,0,0,.6,2.25A2.033,2.033,0,0,0,23.691,18.177Zm4.6-3.281a4.993,4.993,0,0,1,.488-2.234,3.643,3.643,0,0,1,1.359-1.531,3.7,3.7,0,0,1,1.988-.539,3.565,3.565,0,0,1,2.793,1.2,4.6,4.6,0,0,1,1.066,3.18v.1a5.036,5.036,0,0,1-.473,2.215,3.589,3.589,0,0,1-1.352,1.527,3.743,3.743,0,0,1-2.02.547,3.556,3.556,0,0,1-2.785-1.2A4.575,4.575,0,0,1,28.293,15Zm1.453.172a3.616,3.616,0,0,0,.652,2.258,2.211,2.211,0,0,0,3.5-.012,3.955,3.955,0,0,0,.648-2.418,3.61,3.61,0,0,0-.66-2.254,2.1,2.1,0,0,0-1.754-.863,2.075,2.075,0,0,0-1.727.852A3.925,3.925,0,0,0,29.746,15.067Z" transform="translate(246.173 104.011)" fill="#fff"/>
    <g id="Grupo_71324" data-name="Grupo 71324">
      <path id="Trazado_104781" data-name="Trazado 104781" d="M405.1,148.808H324.6a8.045,8.045,0,0,1-8.045-8.045V77.107a7.965,7.965,0,0,1,7.6-8.045h80.5a8.152,8.152,0,0,1,8.486,8.045v63.656A8.045,8.045,0,0,1,405.1,148.808Z" fill="url(#linear-gradient)"/>
      <rect id="Rectángulo_32051" data-name="Rectángulo 32051" width="78.136" height="94.982" rx="8" transform="translate(412.339 69.867) rotate(90)" fill="#1565c0"/>
    </g>
    <path id="Trazado_108753" data-name="Trazado 108753" d="M-23.844-1.992l3.25-9.383h1.641L-23.172,0H-24.5l-4.211-11.375h1.633ZM-12.8,0A3.036,3.036,0,0,1-13-.891,3.225,3.225,0,0,1-15.406.156a2.984,2.984,0,0,1-2.051-.707,2.287,2.287,0,0,1-.8-1.793,2.39,2.39,0,0,1,1-2.051,4.733,4.733,0,0,1,2.824-.73h1.406v-.664A1.623,1.623,0,0,0-13.477-7a1.821,1.821,0,0,0-1.336-.449,2.107,2.107,0,0,0-1.3.391,1.151,1.151,0,0,0-.523.945h-1.453a2,2,0,0,1,.449-1.223,3.066,3.066,0,0,1,1.219-.934,4.1,4.1,0,0,1,1.691-.344,3.342,3.342,0,0,1,2.289.73,2.635,2.635,0,0,1,.859,2.012v3.891a4.757,4.757,0,0,0,.3,1.852V0Zm-2.4-1.1a2.54,2.54,0,0,0,1.289-.352,2.127,2.127,0,0,0,.883-.914V-4.1h-1.133q-2.656,0-2.656,1.555a1.316,1.316,0,0,0,.453,1.063A1.742,1.742,0,0,0-15.2-1.1Zm9.969-6.055a4.331,4.331,0,0,0-.711-.055A1.9,1.9,0,0,0-7.867-6V0H-9.312V-8.453h1.406l.023.977A2.251,2.251,0,0,1-5.867-8.609a1.477,1.477,0,0,1,.641.109ZM-2.328,0H-3.773V-8.453h1.445ZM-3.891-10.7a.863.863,0,0,1,.215-.594.807.807,0,0,1,.637-.242.819.819,0,0,1,.641.242.854.854,0,0,1,.219.594.826.826,0,0,1-.219.586.834.834,0,0,1-.641.234.821.821,0,0,1-.637-.234A.834.834,0,0,1-3.891-10.7ZM5.2,0A3.036,3.036,0,0,1,5-.891,3.225,3.225,0,0,1,2.594.156,2.984,2.984,0,0,1,.543-.551a2.287,2.287,0,0,1-.8-1.793,2.39,2.39,0,0,1,1-2.051,4.733,4.733,0,0,1,2.824-.73H4.977v-.664A1.623,1.623,0,0,0,4.523-7a1.821,1.821,0,0,0-1.336-.449,2.107,2.107,0,0,0-1.3.391,1.151,1.151,0,0,0-.523.945H-.086A2,2,0,0,1,.363-7.332a3.066,3.066,0,0,1,1.219-.934,4.1,4.1,0,0,1,1.691-.344,3.342,3.342,0,0,1,2.289.73,2.635,2.635,0,0,1,.859,2.012v3.891a4.757,4.757,0,0,0,.3,1.852V0ZM2.8-1.1a2.54,2.54,0,0,0,1.289-.352,2.127,2.127,0,0,0,.883-.914V-4.1H3.844q-2.656,0-2.656,1.555a1.316,1.316,0,0,0,.453,1.063A1.742,1.742,0,0,0,2.8-1.1ZM15.844-4.133a5.026,5.026,0,0,1-.891,3.113A2.846,2.846,0,0,1,12.563.156,2.947,2.947,0,0,1,10.086-.977L10.016,0H8.688V-12h1.445v4.477a2.93,2.93,0,0,1,2.414-1.086,2.863,2.863,0,0,1,2.418,1.164,5.177,5.177,0,0,1,.879,3.188ZM14.4-4.3a3.906,3.906,0,0,0-.57-2.281,1.888,1.888,0,0,0-1.641-.8,2.122,2.122,0,0,0-2.055,1.328V-2.4A2.181,2.181,0,0,0,12.2-1.07a1.878,1.878,0,0,0,1.617-.8A4.153,4.153,0,0,0,14.4-4.3ZM19.234,0H17.789V-12h1.445Zm5.82.156a3.693,3.693,0,0,1-2.8-1.129,4.19,4.19,0,0,1-1.078-3.02v-.266A5.073,5.073,0,0,1,21.66-6.5,3.748,3.748,0,0,1,23-8.051a3.378,3.378,0,0,1,1.871-.559,3.166,3.166,0,0,1,2.563,1.086,4.7,4.7,0,0,1,.914,3.109v.6H22.625a3,3,0,0,0,.73,2.02,2.3,2.3,0,0,0,1.777.77,2.517,2.517,0,0,0,1.3-.312,3.259,3.259,0,0,0,.93-.828l.883.688A3.55,3.55,0,0,1,25.055.156Zm-.18-7.578a1.928,1.928,0,0,0-1.469.637A3.1,3.1,0,0,0,22.672-5h4.234v-.109a2.753,2.753,0,0,0-.594-1.707A1.815,1.815,0,0,0,24.875-7.422ZM-20.43,19.2a3.036,3.036,0,0,1-.2-.891,3.225,3.225,0,0,1-2.406,1.047,2.984,2.984,0,0,1-2.051-.707,2.287,2.287,0,0,1-.8-1.793,2.39,2.39,0,0,1,1-2.051,4.733,4.733,0,0,1,2.824-.73h1.406v-.664a1.623,1.623,0,0,0-.453-1.207,1.821,1.821,0,0,0-1.336-.449,2.107,2.107,0,0,0-1.3.391,1.151,1.151,0,0,0-.523.945h-1.453a2,2,0,0,1,.449-1.223,3.066,3.066,0,0,1,1.219-.934,4.1,4.1,0,0,1,1.691-.344,3.342,3.342,0,0,1,2.289.73,2.635,2.635,0,0,1,.859,2.012v3.891a4.757,4.757,0,0,0,.3,1.852V19.2Zm-2.4-1.1a2.54,2.54,0,0,0,1.289-.352,2.127,2.127,0,0,0,.883-.914V15.1h-1.133q-2.656,0-2.656,1.555a1.316,1.316,0,0,0,.453,1.063A1.742,1.742,0,0,0-22.828,18.1Zm11.2-7.352.039.938a3.122,3.122,0,0,1,2.508-1.094A2.417,2.417,0,0,1-6.664,11.95a3.2,3.2,0,0,1,1.1-.984,3.242,3.242,0,0,1,1.6-.375q2.781,0,2.828,2.945V19.2H-2.586V13.622A1.941,1.941,0,0,0-3,12.266a1.823,1.823,0,0,0-1.391-.449,1.916,1.916,0,0,0-1.336.48,1.949,1.949,0,0,0-.617,1.293V19.2H-7.8V13.661a1.613,1.613,0,0,0-1.8-1.844,1.934,1.934,0,0,0-1.945,1.211V19.2h-1.445V10.747ZM4.547,19.356a3.693,3.693,0,0,1-2.8-1.129,4.19,4.19,0,0,1-1.078-3.02v-.266a5.073,5.073,0,0,1,.48-2.246A3.748,3.748,0,0,1,2.5,11.149a3.378,3.378,0,0,1,1.871-.559A3.166,3.166,0,0,1,6.93,11.677a4.7,4.7,0,0,1,.914,3.109v.6H2.117a3,3,0,0,0,.73,2.02,2.3,2.3,0,0,0,1.777.77,2.517,2.517,0,0,0,1.3-.312,3.259,3.259,0,0,0,.93-.828l.883.688A3.55,3.55,0,0,1,4.547,19.356Zm-.18-7.578a1.928,1.928,0,0,0-1.469.637A3.1,3.1,0,0,0,2.164,14.2H6.4v-.109A2.753,2.753,0,0,0,5.8,12.384,1.815,1.815,0,0,0,4.367,11.778Zm4.8,3.125a4.952,4.952,0,0,1,.922-3.129A2.915,2.915,0,0,1,12.5,10.591a2.932,2.932,0,0,1,2.352,1.016V7.2H16.3v12H14.969l-.07-.906a2.943,2.943,0,0,1-2.414,1.063,2.887,2.887,0,0,1-2.395-1.2,5.008,5.008,0,0,1-.926-3.141Zm1.445.164a3.749,3.749,0,0,0,.594,2.25,1.92,1.92,0,0,0,1.641.813A2.108,2.108,0,0,0,14.852,16.9V13.013a2.125,2.125,0,0,0-1.992-1.2,1.929,1.929,0,0,0-1.656.82A4.128,4.128,0,0,0,10.609,15.067Zm9.5,4.133H18.664V10.747h1.445ZM18.547,8.5a.863.863,0,0,1,.215-.594.807.807,0,0,1,.637-.242.819.819,0,0,1,.641.242.854.854,0,0,1,.219.594.826.826,0,0,1-.219.586.834.834,0,0,1-.641.234.821.821,0,0,1-.637-.234A.834.834,0,0,1,18.547,8.5Zm7.961,3.539a4.331,4.331,0,0,0-.711-.055,1.9,1.9,0,0,0-1.93,1.211v6H22.422V10.747h1.406l.023.977a2.251,2.251,0,0,1,2.016-1.133,1.477,1.477,0,0,1,.641.109Z" transform="translate(364.847 104.011)" fill="#fff"/>
    <g id="Grupo_71325" data-name="Grupo 71325">
      <path id="Trazado_104782" data-name="Trazado 104782" d="M522.543,148.808h-80.5A8.045,8.045,0,0,1,434,140.763V77.107a7.965,7.965,0,0,1,7.6-8.045h80.5a8.152,8.152,0,0,1,8.486,8.045v63.656A8.045,8.045,0,0,1,522.543,148.808Z" fill="url(#linear-gradient)"/>
      <rect id="Rectángulo_32052" data-name="Rectángulo 32052" width="78.136" height="94.982" rx="9" transform="translate(529.784 69.867) rotate(90)" fill="#1565c0"/>
    </g>
    <path id="Trazado_108754" data-name="Trazado 108754" d="M-34.055,0V-11.375h3.211a5.169,5.169,0,0,1,2.625.656,4.438,4.438,0,0,1,1.762,1.867,6.078,6.078,0,0,1,.629,2.781v.727a6.1,6.1,0,0,1-.621,2.82A4.369,4.369,0,0,1-28.223-.664,5.5,5.5,0,0,1-30.906,0Zm1.5-10.148v8.922h1.578a3.434,3.434,0,0,0,2.7-1.079,4.458,4.458,0,0,0,.965-3.073v-.665a4.529,4.529,0,0,0-.91-3.014A3.239,3.239,0,0,0-30.8-10.148ZM-20.281.156a3.693,3.693,0,0,1-2.8-1.129,4.19,4.19,0,0,1-1.078-3.02v-.266a5.073,5.073,0,0,1,.48-2.246,3.748,3.748,0,0,1,1.344-1.547,3.378,3.378,0,0,1,1.871-.559A3.166,3.166,0,0,1-17.9-7.523a4.7,4.7,0,0,1,.914,3.109v.6h-5.727a3,3,0,0,0,.73,2.02,2.3,2.3,0,0,0,1.777.77,2.517,2.517,0,0,0,1.3-.312,3.259,3.259,0,0,0,.93-.828l.883.688A3.55,3.55,0,0,1-20.281.156Zm-.18-7.578a1.928,1.928,0,0,0-1.469.637A3.1,3.1,0,0,0-22.664-5h4.234v-.109a2.753,2.753,0,0,0-.594-1.707A1.815,1.815,0,0,0-20.461-7.422ZM-14.828,0V-7.336h-1.336V-8.453h1.336v-.719a2.937,2.937,0,0,1,.809-2.2,3.136,3.136,0,0,1,2.285-.789,6.881,6.881,0,0,1,2.211.477l-.242,1.219a5.008,5.008,0,0,0-1.859-.391,1.819,1.819,0,0,0-1.34.418,1.723,1.723,0,0,0-.41,1.254v.734h1.727v1.117h-1.727V0ZM-8.8,0h-1.453V-8.453H-8.8Zm3.719-8.453.047,1.063A3.08,3.08,0,0,1-2.508-8.609q2.68,0,2.7,3.023V0H-1.25V-5.594a1.946,1.946,0,0,0-.418-1.352,1.675,1.675,0,0,0-1.277-.437,2.086,2.086,0,0,0-1.234.375,2.546,2.546,0,0,0-.828.984V0H-6.453V-8.453ZM3.945,0H2.5V-8.453H3.945ZM2.383-10.7a.863.863,0,0,1,.215-.594.807.807,0,0,1,.637-.242.819.819,0,0,1,.641.242.854.854,0,0,1,.219.594.826.826,0,0,1-.219.586.834.834,0,0,1-.641.234.821.821,0,0,1-.637-.234A.834.834,0,0,1,2.383-10.7ZM9.648-1.023A2.082,2.082,0,0,0,11-1.492a1.649,1.649,0,0,0,.641-1.172h1.367a2.621,2.621,0,0,1-.5,1.383,3.293,3.293,0,0,1-1.23,1.047A3.55,3.55,0,0,1,9.648.156,3.482,3.482,0,0,1,6.9-1a4.59,4.59,0,0,1-1.02-3.152v-.242a5.089,5.089,0,0,1,.453-2.2,3.451,3.451,0,0,1,1.3-1.492,3.7,3.7,0,0,1,2-.531A3.39,3.39,0,0,1,12-7.758a3.043,3.043,0,0,1,1,2.211H11.641a1.992,1.992,0,0,0-.621-1.348,1.932,1.932,0,0,0-1.379-.527,2.023,2.023,0,0,0-1.707.793,3.724,3.724,0,0,0-.605,2.293v.273a3.65,3.65,0,0,0,.6,2.25A2.033,2.033,0,0,0,9.648-1.023ZM16.2,0H14.758V-8.453H16.2ZM14.641-10.7a.863.863,0,0,1,.215-.594.807.807,0,0,1,.637-.242.819.819,0,0,1,.641.242.854.854,0,0,1,.219.594.826.826,0,0,1-.219.586.834.834,0,0,1-.641.234.821.821,0,0,1-.637-.234A.834.834,0,0,1,14.641-10.7ZM18.133-4.3a4.993,4.993,0,0,1,.488-2.234A3.643,3.643,0,0,1,19.98-8.07a3.7,3.7,0,0,1,1.988-.539,3.565,3.565,0,0,1,2.793,1.2,4.6,4.6,0,0,1,1.066,3.18v.1a5.036,5.036,0,0,1-.473,2.215A3.589,3.589,0,0,1,24-.391a3.743,3.743,0,0,1-2.02.547,3.556,3.556,0,0,1-2.785-1.2A4.575,4.575,0,0,1,18.133-4.2Zm1.453.172a3.616,3.616,0,0,0,.652,2.258,2.088,2.088,0,0,0,1.746.852,2.075,2.075,0,0,0,1.75-.863A3.955,3.955,0,0,0,24.383-4.3a3.61,3.61,0,0,0-.66-2.254,2.1,2.1,0,0,0-1.754-.863,2.075,2.075,0,0,0-1.727.852A3.925,3.925,0,0,0,19.586-4.133ZM22.625-12h1.75L22.281-9.7l-1.164,0Zm6.383,3.547.047,1.063a3.08,3.08,0,0,1,2.531-1.219q2.68,0,2.7,3.023V0H32.844V-5.594a1.946,1.946,0,0,0-.418-1.352,1.675,1.675,0,0,0-1.277-.437,2.086,2.086,0,0,0-1.234.375,2.546,2.546,0,0,0-.828.984V0H27.641V-8.453ZM-34.91,18.177a2.082,2.082,0,0,0,1.352-.469,1.649,1.649,0,0,0,.641-1.172h1.367a2.621,2.621,0,0,1-.5,1.383,3.293,3.293,0,0,1-1.23,1.047,3.55,3.55,0,0,1-1.629.391A3.482,3.482,0,0,1-37.656,18.2a4.59,4.59,0,0,1-1.02-3.152v-.242a5.089,5.089,0,0,1,.453-2.2,3.451,3.451,0,0,1,1.3-1.492,3.7,3.7,0,0,1,2-.531,3.39,3.39,0,0,1,2.363.852,3.043,3.043,0,0,1,1,2.211h-1.367a1.992,1.992,0,0,0-.621-1.348,1.932,1.932,0,0,0-1.379-.527,2.023,2.023,0,0,0-1.707.793,3.724,3.724,0,0,0-.605,2.293v.273a3.65,3.65,0,0,0,.6,2.25A2.033,2.033,0,0,0-34.91,18.177Zm4.6-3.281a4.993,4.993,0,0,1,.488-2.234,3.643,3.643,0,0,1,1.359-1.531,3.7,3.7,0,0,1,1.988-.539,3.565,3.565,0,0,1,2.793,1.2,4.6,4.6,0,0,1,1.066,3.18v.1a5.036,5.036,0,0,1-.473,2.215,3.589,3.589,0,0,1-1.352,1.527,3.743,3.743,0,0,1-2.02.547,3.556,3.556,0,0,1-2.785-1.2A4.575,4.575,0,0,1-30.309,15Zm1.453.172a3.616,3.616,0,0,0,.652,2.258,2.088,2.088,0,0,0,1.746.852,2.075,2.075,0,0,0,1.75-.863,3.955,3.955,0,0,0,.648-2.418,3.61,3.61,0,0,0-.66-2.254,2.1,2.1,0,0,0-1.754-.863,2.075,2.075,0,0,0-1.727.852A3.925,3.925,0,0,0-28.855,15.067Zm9.422-4.32.047,1.063a3.08,3.08,0,0,1,2.531-1.219q2.68,0,2.7,3.023V19.2H-15.6V13.606a1.946,1.946,0,0,0-.418-1.352,1.675,1.675,0,0,0-1.277-.437,2.086,2.086,0,0,0-1.234.375,2.546,2.546,0,0,0-.828.984V19.2H-20.8V10.747Zm10.852,7.43a2.082,2.082,0,0,0,1.352-.469,1.649,1.649,0,0,0,.641-1.172h1.367a2.621,2.621,0,0,1-.5,1.383,3.293,3.293,0,0,1-1.23,1.047,3.55,3.55,0,0,1-1.629.391A3.482,3.482,0,0,1-11.328,18.2a4.59,4.59,0,0,1-1.02-3.152v-.242a5.089,5.089,0,0,1,.453-2.2,3.451,3.451,0,0,1,1.3-1.492,3.7,3.7,0,0,1,2-.531,3.39,3.39,0,0,1,2.363.852,3.043,3.043,0,0,1,1,2.211H-6.59a1.992,1.992,0,0,0-.621-1.348,1.932,1.932,0,0,0-1.379-.527,2.023,2.023,0,0,0-1.707.793,3.724,3.724,0,0,0-.605,2.293v.273a3.65,3.65,0,0,0,.6,2.25A2.033,2.033,0,0,0-8.582,18.177Zm8.492,1.18a3.693,3.693,0,0,1-2.8-1.129,4.19,4.19,0,0,1-1.078-3.02v-.266a5.073,5.073,0,0,1,.48-2.246,3.748,3.748,0,0,1,1.344-1.547A3.378,3.378,0,0,1-.27,10.591a3.166,3.166,0,0,1,2.563,1.086,4.7,4.7,0,0,1,.914,3.109v.6H-2.52a3,3,0,0,0,.73,2.02,2.3,2.3,0,0,0,1.777.77,2.517,2.517,0,0,0,1.3-.312,3.259,3.259,0,0,0,.93-.828l.883.688A3.55,3.55,0,0,1-.09,19.356Zm-.18-7.578a1.928,1.928,0,0,0-1.469.637A3.1,3.1,0,0,0-2.473,14.2H1.762v-.109a2.753,2.753,0,0,0-.594-1.707A1.815,1.815,0,0,0-.27,11.778ZM12.02,15.067a5.062,5.062,0,0,1-.883,3.109,2.829,2.829,0,0,1-2.391,1.18,3.1,3.1,0,0,1-2.422-.977v4.07H4.879v-11.7H6.2l.07.938a2.977,2.977,0,0,1,2.453-1.094,2.882,2.882,0,0,1,2.41,1.148,5.117,5.117,0,0,1,.887,3.2ZM10.574,14.9a3.735,3.735,0,0,0-.609-2.258,1.963,1.963,0,0,0-1.672-.828,2.125,2.125,0,0,0-1.969,1.164V17.02a2.129,2.129,0,0,0,1.984,1.156,1.954,1.954,0,0,0,1.652-.824A4.077,4.077,0,0,0,10.574,14.9Zm5.242-6.2v2.047h1.578v1.117H15.816v5.249a1.173,1.173,0,0,0,.211.763.888.888,0,0,0,.719.254,3.5,3.5,0,0,0,.688-.094V19.2a4.215,4.215,0,0,1-1.109.155,1.8,1.8,0,0,1-1.461-.586,2.517,2.517,0,0,1-.492-1.664V11.864H12.832V10.747h1.539V8.7ZM24.3,18.364a3.07,3.07,0,0,1-2.477.992,2.628,2.628,0,0,1-2.059-.785,3.4,3.4,0,0,1-.715-2.324v-5.5H20.5v5.461q0,1.922,1.563,1.922a2.163,2.163,0,0,0,2.2-1.234V10.747h1.445V19.2H24.332Zm8.82.836a3.036,3.036,0,0,1-.2-.891,3.225,3.225,0,0,1-2.406,1.047,2.984,2.984,0,0,1-2.051-.707,2.287,2.287,0,0,1-.8-1.793,2.39,2.39,0,0,1,1-2.051,4.733,4.733,0,0,1,2.824-.73h1.406v-.664a1.623,1.623,0,0,0-.453-1.207,1.821,1.821,0,0,0-1.336-.449,2.107,2.107,0,0,0-1.3.391,1.151,1.151,0,0,0-.523.945H27.832a2,2,0,0,1,.449-1.223,3.066,3.066,0,0,1,1.219-.934,4.1,4.1,0,0,1,1.691-.344,3.342,3.342,0,0,1,2.289.73,2.635,2.635,0,0,1,.859,2.012v3.891a4.757,4.757,0,0,0,.3,1.852V19.2Zm-2.4-1.1a2.54,2.54,0,0,0,1.289-.352,2.127,2.127,0,0,0,.883-.914V15.1H31.762q-2.656,0-2.656,1.555a1.316,1.316,0,0,0,.453,1.063A1.742,1.742,0,0,0,30.723,18.1Zm7.453,1.1H36.73V7.2h1.445Z" transform="translate(482.292 104.011)" fill="#fff"/>
    <path id="Trazado_108758" data-name="Trazado 108758" d="M-19-5.32A7.037,7.037,0,0,1-19.562-2.4,4.261,4.261,0,0,1-21.156-.5a4.385,4.385,0,0,1-2.406.656A4.347,4.347,0,0,1-25.945-.5a4.363,4.363,0,0,1-1.613-1.883,6.752,6.752,0,0,1-.59-2.832v-.82a6.953,6.953,0,0,1,.57-2.9,4.347,4.347,0,0,1,1.613-1.926,4.329,4.329,0,0,1,2.387-.668,4.41,4.41,0,0,1,2.41.66,4.253,4.253,0,0,1,1.605,1.914A7.071,7.071,0,0,1-19-6.039Zm-1.492-.734A5.1,5.1,0,0,0-21.3-9.16a2.68,2.68,0,0,0-2.273-1.082A2.651,2.651,0,0,0-25.816-9.16a5,5,0,0,0-.84,3v.836a5.107,5.107,0,0,0,.824,3.082,2.662,2.662,0,0,0,2.27,1.121,2.652,2.652,0,0,0,2.25-1.059,5.079,5.079,0,0,0,.82-3.035ZM-9.82-4.133a5.026,5.026,0,0,1-.891,3.113A2.846,2.846,0,0,1-13.1.156,2.947,2.947,0,0,1-15.578-.977l-.07.977h-1.328V-12h1.445v4.477a2.93,2.93,0,0,1,2.414-1.086A2.863,2.863,0,0,1-10.7-7.445,5.177,5.177,0,0,1-9.82-4.258ZM-11.266-4.3a3.906,3.906,0,0,0-.57-2.281,1.888,1.888,0,0,0-1.641-.8,2.122,2.122,0,0,0-2.055,1.328V-2.4a2.181,2.181,0,0,0,2.07,1.328,1.878,1.878,0,0,0,1.617-.8A4.153,4.153,0,0,0-11.266-4.3Zm4.758-4.156V.977q0,2.437-2.211,2.438a2.7,2.7,0,0,1-.883-.14V2.125a2.794,2.794,0,0,0,.656.063.982.982,0,0,0,.738-.262,1.3,1.3,0,0,0,.254-.911V-8.453ZM-8.1-10.7a.867.867,0,0,1,.215-.59.79.79,0,0,1,.629-.246.819.819,0,0,1,.641.242A.854.854,0,0,1-6.4-10.7a.826.826,0,0,1-.219.586.834.834,0,0,1-.641.234.808.808,0,0,1-.633-.234A.843.843,0,0,1-8.1-10.7ZM-.672.156a3.693,3.693,0,0,1-2.8-1.129,4.19,4.19,0,0,1-1.078-3.02v-.266A5.073,5.073,0,0,1-4.066-6.5,3.748,3.748,0,0,1-2.723-8.051,3.378,3.378,0,0,1-.852-8.609,3.166,3.166,0,0,1,1.711-7.523a4.7,4.7,0,0,1,.914,3.109v.6H-3.1a3,3,0,0,0,.73,2.02,2.3,2.3,0,0,0,1.777.77A2.517,2.517,0,0,0,.7-1.336a3.259,3.259,0,0,0,.93-.828l.883.688A3.55,3.55,0,0,1-.672.156Zm-.18-7.578a1.928,1.928,0,0,0-1.469.637A3.1,3.1,0,0,0-3.055-5H1.18v-.109A2.753,2.753,0,0,0,.586-6.816,1.815,1.815,0,0,0-.852-7.422ZM6.258-10.5v2.047H7.836v1.117H6.258v5.249a1.173,1.173,0,0,0,.211.763.888.888,0,0,0,.719.254,3.5,3.5,0,0,0,.688-.094V0A4.215,4.215,0,0,1,6.766.156,1.8,1.8,0,0,1,5.3-.43a2.517,2.517,0,0,1-.492-1.664V-7.336H3.273V-8.453H4.813V-10.5ZM11.094,0H9.648V-8.453h1.445ZM9.531-10.7a.863.863,0,0,1,.215-.594.807.807,0,0,1,.637-.242.819.819,0,0,1,.641.242.854.854,0,0,1,.219.594.826.826,0,0,1-.219.586.834.834,0,0,1-.641.234.821.821,0,0,1-.637-.234A.834.834,0,0,1,9.531-10.7ZM16.2-1.961l2.094-6.492h1.477L16.734,0h-1.1L12.57-8.453h1.477ZM20.656-4.3a4.993,4.993,0,0,1,.488-2.234A3.643,3.643,0,0,1,22.5-8.07a3.7,3.7,0,0,1,1.988-.539,3.565,3.565,0,0,1,2.793,1.2,4.6,4.6,0,0,1,1.066,3.18v.1a5.036,5.036,0,0,1-.473,2.215A3.589,3.589,0,0,1,26.527-.391a3.743,3.743,0,0,1-2.02.547,3.556,3.556,0,0,1-2.785-1.2A4.575,4.575,0,0,1,20.656-4.2Zm1.453.172a3.616,3.616,0,0,0,.652,2.258,2.088,2.088,0,0,0,1.746.852,2.075,2.075,0,0,0,1.75-.863A3.955,3.955,0,0,0,26.906-4.3a3.61,3.61,0,0,0-.66-2.254,2.1,2.1,0,0,0-1.754-.863,2.075,2.075,0,0,0-1.727.852A3.925,3.925,0,0,0,22.109-4.133ZM-17.465,17.708a3.465,3.465,0,0,1-1.613,1.238,6.517,6.517,0,0,1-2.41.41,4.674,4.674,0,0,1-2.469-.652,4.346,4.346,0,0,1-1.668-1.855,6.408,6.408,0,0,1-.605-2.789v-.992a5.982,5.982,0,0,1,1.2-3.984A4.179,4.179,0,0,1-21.66,7.669a4.316,4.316,0,0,1,2.867.91,3.965,3.965,0,0,1,1.328,2.582h-1.5A2.48,2.48,0,0,0-21.652,8.9a2.655,2.655,0,0,0-2.285,1.06,5.173,5.173,0,0,0-.785,3.069v.93A4.848,4.848,0,0,0-23.848,17a2.836,2.836,0,0,0,2.367,1.13A5.228,5.228,0,0,0-20,17.943a2.283,2.283,0,0,0,1.047-.631V14.763H-21.59V13.536h4.125Zm5.781,1.648a3.693,3.693,0,0,1-2.8-1.129,4.19,4.19,0,0,1-1.078-3.02v-.266a5.073,5.073,0,0,1,.48-2.246,3.748,3.748,0,0,1,1.344-1.547,3.378,3.378,0,0,1,1.871-.559A3.166,3.166,0,0,1-9.3,11.677a4.7,4.7,0,0,1,.914,3.109v.6h-5.727a3,3,0,0,0,.73,2.02,2.3,2.3,0,0,0,1.777.77,2.517,2.517,0,0,0,1.3-.312,3.259,3.259,0,0,0,.93-.828l.883.688A3.55,3.55,0,0,1-11.684,19.356Zm-.18-7.578a1.928,1.928,0,0,0-1.469.637,3.1,3.1,0,0,0-.734,1.785h4.234v-.109a2.753,2.753,0,0,0-.594-1.707A1.815,1.815,0,0,0-11.863,11.778Zm6.516-1.031.047,1.063A3.08,3.08,0,0,1-2.77,10.591q2.68,0,2.7,3.023V19.2H-1.512V13.606a1.946,1.946,0,0,0-.418-1.352,1.675,1.675,0,0,0-1.277-.437,2.086,2.086,0,0,0-1.234.375,2.546,2.546,0,0,0-.828.984V19.2H-6.715V10.747ZM5.621,19.356a3.693,3.693,0,0,1-2.8-1.129,4.19,4.19,0,0,1-1.078-3.02v-.266a5.073,5.073,0,0,1,.48-2.246A3.748,3.748,0,0,1,3.57,11.149a3.378,3.378,0,0,1,1.871-.559A3.166,3.166,0,0,1,8,11.677a4.7,4.7,0,0,1,.914,3.109v.6H3.191a3,3,0,0,0,.73,2.02,2.3,2.3,0,0,0,1.777.77A2.517,2.517,0,0,0,7,17.864a3.259,3.259,0,0,0,.93-.828l.883.688A3.55,3.55,0,0,1,5.621,19.356Zm-.18-7.578a1.928,1.928,0,0,0-1.469.637A3.1,3.1,0,0,0,3.238,14.2H7.473v-.109a2.753,2.753,0,0,0-.594-1.707A1.815,1.815,0,0,0,5.441,11.778Zm9.234.266a4.331,4.331,0,0,0-.711-.055,1.9,1.9,0,0,0-1.93,1.211v6H10.59V10.747H12l.023.977a2.251,2.251,0,0,1,2.016-1.133,1.477,1.477,0,0,1,.641.109ZM20.91,19.2a3.036,3.036,0,0,1-.2-.891A3.225,3.225,0,0,1,18.3,19.356a2.984,2.984,0,0,1-2.051-.707,2.287,2.287,0,0,1-.8-1.793,2.39,2.39,0,0,1,1-2.051,4.733,4.733,0,0,1,2.824-.73h1.406v-.664A1.623,1.623,0,0,0,20.23,12.2a1.821,1.821,0,0,0-1.336-.449,2.107,2.107,0,0,0-1.3.391,1.151,1.151,0,0,0-.523.945H15.621a2,2,0,0,1,.449-1.223,3.066,3.066,0,0,1,1.219-.934,4.1,4.1,0,0,1,1.691-.344,3.342,3.342,0,0,1,2.289.73,2.635,2.635,0,0,1,.859,2.012v3.891a4.757,4.757,0,0,0,.3,1.852V19.2Zm-2.4-1.1a2.54,2.54,0,0,0,1.289-.352,2.127,2.127,0,0,0,.883-.914V15.1H19.551q-2.656,0-2.656,1.555a1.316,1.316,0,0,0,.453,1.063A1.742,1.742,0,0,0,18.512,18.1Zm7.453,1.1H24.52V7.2h1.445Z" transform="translate(130.404 321.085)" fill="#fff"/>
    <path id="Trazado_108759" data-name="Trazado 108759" d="M-19-5.32A7.037,7.037,0,0,1-19.562-2.4,4.261,4.261,0,0,1-21.156-.5a4.385,4.385,0,0,1-2.406.656A4.347,4.347,0,0,1-25.945-.5a4.363,4.363,0,0,1-1.613-1.883,6.752,6.752,0,0,1-.59-2.832v-.82a6.953,6.953,0,0,1,.57-2.9,4.347,4.347,0,0,1,1.613-1.926,4.329,4.329,0,0,1,2.387-.668,4.41,4.41,0,0,1,2.41.66,4.253,4.253,0,0,1,1.605,1.914A7.071,7.071,0,0,1-19-6.039Zm-1.492-.734A5.1,5.1,0,0,0-21.3-9.16a2.68,2.68,0,0,0-2.273-1.082A2.651,2.651,0,0,0-25.816-9.16a5,5,0,0,0-.84,3v.836a5.107,5.107,0,0,0,.824,3.082,2.662,2.662,0,0,0,2.27,1.121,2.652,2.652,0,0,0,2.25-1.059,5.079,5.079,0,0,0,.82-3.035ZM-9.82-4.133a5.026,5.026,0,0,1-.891,3.113A2.846,2.846,0,0,1-13.1.156,2.947,2.947,0,0,1-15.578-.977l-.07.977h-1.328V-12h1.445v4.477a2.93,2.93,0,0,1,2.414-1.086A2.863,2.863,0,0,1-10.7-7.445,5.177,5.177,0,0,1-9.82-4.258ZM-11.266-4.3a3.906,3.906,0,0,0-.57-2.281,1.888,1.888,0,0,0-1.641-.8,2.122,2.122,0,0,0-2.055,1.328V-2.4a2.181,2.181,0,0,0,2.07,1.328,1.878,1.878,0,0,0,1.617-.8A4.153,4.153,0,0,0-11.266-4.3Zm4.758-4.156V.977q0,2.437-2.211,2.438a2.7,2.7,0,0,1-.883-.14V2.125a2.794,2.794,0,0,0,.656.063.982.982,0,0,0,.738-.262,1.3,1.3,0,0,0,.254-.911V-8.453ZM-8.1-10.7a.867.867,0,0,1,.215-.59.79.79,0,0,1,.629-.246.819.819,0,0,1,.641.242A.854.854,0,0,1-6.4-10.7a.826.826,0,0,1-.219.586.834.834,0,0,1-.641.234.808.808,0,0,1-.633-.234A.843.843,0,0,1-8.1-10.7ZM-.672.156a3.693,3.693,0,0,1-2.8-1.129,4.19,4.19,0,0,1-1.078-3.02v-.266A5.073,5.073,0,0,1-4.066-6.5,3.748,3.748,0,0,1-2.723-8.051,3.378,3.378,0,0,1-.852-8.609,3.166,3.166,0,0,1,1.711-7.523a4.7,4.7,0,0,1,.914,3.109v.6H-3.1a3,3,0,0,0,.73,2.02,2.3,2.3,0,0,0,1.777.77A2.517,2.517,0,0,0,.7-1.336a3.259,3.259,0,0,0,.93-.828l.883.688A3.55,3.55,0,0,1-.672.156Zm-.18-7.578a1.928,1.928,0,0,0-1.469.637A3.1,3.1,0,0,0-3.055-5H1.18v-.109A2.753,2.753,0,0,0,.586-6.816,1.815,1.815,0,0,0-.852-7.422ZM6.258-10.5v2.047H7.836v1.117H6.258v5.249a1.173,1.173,0,0,0,.211.763.888.888,0,0,0,.719.254,3.5,3.5,0,0,0,.688-.094V0A4.215,4.215,0,0,1,6.766.156,1.8,1.8,0,0,1,5.3-.43a2.517,2.517,0,0,1-.492-1.664V-7.336H3.273V-8.453H4.813V-10.5ZM11.094,0H9.648V-8.453h1.445ZM9.531-10.7a.863.863,0,0,1,.215-.594.807.807,0,0,1,.637-.242.819.819,0,0,1,.641.242.854.854,0,0,1,.219.594.826.826,0,0,1-.219.586.834.834,0,0,1-.641.234.821.821,0,0,1-.637-.234A.834.834,0,0,1,9.531-10.7ZM16.2-1.961l2.094-6.492h1.477L16.734,0h-1.1L12.57-8.453h1.477ZM20.656-4.3a4.993,4.993,0,0,1,.488-2.234A3.643,3.643,0,0,1,22.5-8.07a3.7,3.7,0,0,1,1.988-.539,3.565,3.565,0,0,1,2.793,1.2,4.6,4.6,0,0,1,1.066,3.18v.1a5.036,5.036,0,0,1-.473,2.215A3.589,3.589,0,0,1,26.527-.391a3.743,3.743,0,0,1-2.02.547,3.556,3.556,0,0,1-2.785-1.2A4.575,4.575,0,0,1,20.656-4.2Zm1.453.172a3.616,3.616,0,0,0,.652,2.258,2.088,2.088,0,0,0,1.746.852,2.075,2.075,0,0,0,1.75-.863A3.955,3.955,0,0,0,26.906-4.3a3.61,3.61,0,0,0-.66-2.254,2.1,2.1,0,0,0-1.754-.863,2.075,2.075,0,0,0-1.727.852A3.925,3.925,0,0,0,22.109-4.133ZM1.2,19.2H-.25V9.567l-2.914,1.07V9.325L.977,7.77H1.2Z" transform="translate(246.108 212.149)" fill="#13273e"/>
    <path id="Trazado_108760" data-name="Trazado 108760" d="M-19-5.32A7.037,7.037,0,0,1-19.562-2.4,4.261,4.261,0,0,1-21.156-.5a4.385,4.385,0,0,1-2.406.656A4.347,4.347,0,0,1-25.945-.5a4.363,4.363,0,0,1-1.613-1.883,6.752,6.752,0,0,1-.59-2.832v-.82a6.953,6.953,0,0,1,.57-2.9,4.347,4.347,0,0,1,1.613-1.926,4.329,4.329,0,0,1,2.387-.668,4.41,4.41,0,0,1,2.41.66,4.253,4.253,0,0,1,1.605,1.914A7.071,7.071,0,0,1-19-6.039Zm-1.492-.734A5.1,5.1,0,0,0-21.3-9.16a2.68,2.68,0,0,0-2.273-1.082A2.651,2.651,0,0,0-25.816-9.16a5,5,0,0,0-.84,3v.836a5.107,5.107,0,0,0,.824,3.082,2.662,2.662,0,0,0,2.27,1.121,2.652,2.652,0,0,0,2.25-1.059,5.079,5.079,0,0,0,.82-3.035ZM-9.82-4.133a5.026,5.026,0,0,1-.891,3.113A2.846,2.846,0,0,1-13.1.156,2.947,2.947,0,0,1-15.578-.977l-.07.977h-1.328V-12h1.445v4.477a2.93,2.93,0,0,1,2.414-1.086A2.863,2.863,0,0,1-10.7-7.445,5.177,5.177,0,0,1-9.82-4.258ZM-11.266-4.3a3.906,3.906,0,0,0-.57-2.281,1.888,1.888,0,0,0-1.641-.8,2.122,2.122,0,0,0-2.055,1.328V-2.4a2.181,2.181,0,0,0,2.07,1.328,1.878,1.878,0,0,0,1.617-.8A4.153,4.153,0,0,0-11.266-4.3Zm4.758-4.156V.977q0,2.437-2.211,2.438a2.7,2.7,0,0,1-.883-.14V2.125a2.794,2.794,0,0,0,.656.063.982.982,0,0,0,.738-.262,1.3,1.3,0,0,0,.254-.911V-8.453ZM-8.1-10.7a.867.867,0,0,1,.215-.59.79.79,0,0,1,.629-.246.819.819,0,0,1,.641.242A.854.854,0,0,1-6.4-10.7a.826.826,0,0,1-.219.586.834.834,0,0,1-.641.234.808.808,0,0,1-.633-.234A.843.843,0,0,1-8.1-10.7ZM-.672.156a3.693,3.693,0,0,1-2.8-1.129,4.19,4.19,0,0,1-1.078-3.02v-.266A5.073,5.073,0,0,1-4.066-6.5,3.748,3.748,0,0,1-2.723-8.051,3.378,3.378,0,0,1-.852-8.609,3.166,3.166,0,0,1,1.711-7.523a4.7,4.7,0,0,1,.914,3.109v.6H-3.1a3,3,0,0,0,.73,2.02,2.3,2.3,0,0,0,1.777.77A2.517,2.517,0,0,0,.7-1.336a3.259,3.259,0,0,0,.93-.828l.883.688A3.55,3.55,0,0,1-.672.156Zm-.18-7.578a1.928,1.928,0,0,0-1.469.637A3.1,3.1,0,0,0-3.055-5H1.18v-.109A2.753,2.753,0,0,0,.586-6.816,1.815,1.815,0,0,0-.852-7.422ZM6.258-10.5v2.047H7.836v1.117H6.258v5.249a1.173,1.173,0,0,0,.211.763.888.888,0,0,0,.719.254,3.5,3.5,0,0,0,.688-.094V0A4.215,4.215,0,0,1,6.766.156,1.8,1.8,0,0,1,5.3-.43a2.517,2.517,0,0,1-.492-1.664V-7.336H3.273V-8.453H4.813V-10.5ZM11.094,0H9.648V-8.453h1.445ZM9.531-10.7a.863.863,0,0,1,.215-.594.807.807,0,0,1,.637-.242.819.819,0,0,1,.641.242.854.854,0,0,1,.219.594.826.826,0,0,1-.219.586.834.834,0,0,1-.641.234.821.821,0,0,1-.637-.234A.834.834,0,0,1,9.531-10.7ZM16.2-1.961l2.094-6.492h1.477L16.734,0h-1.1L12.57-8.453h1.477ZM20.656-4.3a4.993,4.993,0,0,1,.488-2.234A3.643,3.643,0,0,1,22.5-8.07a3.7,3.7,0,0,1,1.988-.539,3.565,3.565,0,0,1,2.793,1.2,4.6,4.6,0,0,1,1.066,3.18v.1a5.036,5.036,0,0,1-.473,2.215A3.589,3.589,0,0,1,26.527-.391a3.743,3.743,0,0,1-2.02.547,3.556,3.556,0,0,1-2.785-1.2A4.575,4.575,0,0,1,20.656-4.2Zm1.453.172a3.616,3.616,0,0,0,.652,2.258,2.088,2.088,0,0,0,1.746.852,2.075,2.075,0,0,0,1.75-.863A3.955,3.955,0,0,0,26.906-4.3a3.61,3.61,0,0,0-.66-2.254,2.1,2.1,0,0,0-1.754-.863,2.075,2.075,0,0,0-1.727.852A3.925,3.925,0,0,0,22.109-4.133ZM3.906,19.2H-3.547V18.161L.391,13.786A9.355,9.355,0,0,0,1.6,12.173a2.693,2.693,0,0,0,.332-1.285,2.041,2.041,0,0,0-.539-1.461,1.885,1.885,0,0,0-1.437-.57,2.232,2.232,0,0,0-1.676.613,2.343,2.343,0,0,0-.6,1.707H-3.766A3.355,3.355,0,0,1-2.754,8.638,3.751,3.751,0,0,1-.047,7.669,3.6,3.6,0,0,1,2.461,8.5a2.838,2.838,0,0,1,.922,2.215q0,1.68-2.141,4L-1.8,18.02H3.906Z" transform="translate(246.173 310.205)" fill="#13273e"/>
    <path id="Trazado_108761" data-name="Trazado 108761" d="M-19-5.32A7.037,7.037,0,0,1-19.562-2.4,4.261,4.261,0,0,1-21.156-.5a4.385,4.385,0,0,1-2.406.656A4.347,4.347,0,0,1-25.945-.5a4.363,4.363,0,0,1-1.613-1.883,6.752,6.752,0,0,1-.59-2.832v-.82a6.953,6.953,0,0,1,.57-2.9,4.347,4.347,0,0,1,1.613-1.926,4.329,4.329,0,0,1,2.387-.668,4.41,4.41,0,0,1,2.41.66,4.253,4.253,0,0,1,1.605,1.914A7.071,7.071,0,0,1-19-6.039Zm-1.492-.734A5.1,5.1,0,0,0-21.3-9.16a2.68,2.68,0,0,0-2.273-1.082A2.651,2.651,0,0,0-25.816-9.16a5,5,0,0,0-.84,3v.836a5.107,5.107,0,0,0,.824,3.082,2.662,2.662,0,0,0,2.27,1.121,2.652,2.652,0,0,0,2.25-1.059,5.079,5.079,0,0,0,.82-3.035ZM-9.82-4.133a5.026,5.026,0,0,1-.891,3.113A2.846,2.846,0,0,1-13.1.156,2.947,2.947,0,0,1-15.578-.977l-.07.977h-1.328V-12h1.445v4.477a2.93,2.93,0,0,1,2.414-1.086A2.863,2.863,0,0,1-10.7-7.445,5.177,5.177,0,0,1-9.82-4.258ZM-11.266-4.3a3.906,3.906,0,0,0-.57-2.281,1.888,1.888,0,0,0-1.641-.8,2.122,2.122,0,0,0-2.055,1.328V-2.4a2.181,2.181,0,0,0,2.07,1.328,1.878,1.878,0,0,0,1.617-.8A4.153,4.153,0,0,0-11.266-4.3Zm4.758-4.156V.977q0,2.437-2.211,2.438a2.7,2.7,0,0,1-.883-.14V2.125a2.794,2.794,0,0,0,.656.063.982.982,0,0,0,.738-.262,1.3,1.3,0,0,0,.254-.911V-8.453ZM-8.1-10.7a.867.867,0,0,1,.215-.59.79.79,0,0,1,.629-.246.819.819,0,0,1,.641.242A.854.854,0,0,1-6.4-10.7a.826.826,0,0,1-.219.586.834.834,0,0,1-.641.234.808.808,0,0,1-.633-.234A.843.843,0,0,1-8.1-10.7ZM-.672.156a3.693,3.693,0,0,1-2.8-1.129,4.19,4.19,0,0,1-1.078-3.02v-.266A5.073,5.073,0,0,1-4.066-6.5,3.748,3.748,0,0,1-2.723-8.051,3.378,3.378,0,0,1-.852-8.609,3.166,3.166,0,0,1,1.711-7.523a4.7,4.7,0,0,1,.914,3.109v.6H-3.1a3,3,0,0,0,.73,2.02,2.3,2.3,0,0,0,1.777.77A2.517,2.517,0,0,0,.7-1.336a3.259,3.259,0,0,0,.93-.828l.883.688A3.55,3.55,0,0,1-.672.156Zm-.18-7.578a1.928,1.928,0,0,0-1.469.637A3.1,3.1,0,0,0-3.055-5H1.18v-.109A2.753,2.753,0,0,0,.586-6.816,1.815,1.815,0,0,0-.852-7.422ZM6.258-10.5v2.047H7.836v1.117H6.258v5.249a1.173,1.173,0,0,0,.211.763.888.888,0,0,0,.719.254,3.5,3.5,0,0,0,.688-.094V0A4.215,4.215,0,0,1,6.766.156,1.8,1.8,0,0,1,5.3-.43a2.517,2.517,0,0,1-.492-1.664V-7.336H3.273V-8.453H4.813V-10.5ZM11.094,0H9.648V-8.453h1.445ZM9.531-10.7a.863.863,0,0,1,.215-.594.807.807,0,0,1,.637-.242.819.819,0,0,1,.641.242.854.854,0,0,1,.219.594.826.826,0,0,1-.219.586.834.834,0,0,1-.641.234.821.821,0,0,1-.637-.234A.834.834,0,0,1,9.531-10.7ZM16.2-1.961l2.094-6.492h1.477L16.734,0h-1.1L12.57-8.453h1.477ZM20.656-4.3a4.993,4.993,0,0,1,.488-2.234A3.643,3.643,0,0,1,22.5-8.07a3.7,3.7,0,0,1,1.988-.539,3.565,3.565,0,0,1,2.793,1.2,4.6,4.6,0,0,1,1.066,3.18v.1a5.036,5.036,0,0,1-.473,2.215A3.589,3.589,0,0,1,26.527-.391a3.743,3.743,0,0,1-2.02.547,3.556,3.556,0,0,1-2.785-1.2A4.575,4.575,0,0,1,20.656-4.2Zm1.453.172a3.616,3.616,0,0,0,.652,2.258,2.088,2.088,0,0,0,1.746.852,2.075,2.075,0,0,0,1.75-.863A3.955,3.955,0,0,0,26.906-4.3a3.61,3.61,0,0,0-.66-2.254,2.1,2.1,0,0,0-1.754-.863,2.075,2.075,0,0,0-1.727.852A3.925,3.925,0,0,0,22.109-4.133ZM-1.445,12.809H-.359A2.387,2.387,0,0,0,1.25,12.27a1.8,1.8,0,0,0,.586-1.414,1.764,1.764,0,0,0-1.992-2,2.072,2.072,0,0,0-1.5.535,1.873,1.873,0,0,0-.559,1.418H-3.656a2.9,2.9,0,0,1,.988-2.246A3.6,3.6,0,0,1-.156,7.669a3.558,3.558,0,0,1,2.523.852,3.076,3.076,0,0,1,.914,2.367,2.5,2.5,0,0,1-.48,1.438,2.9,2.9,0,0,1-1.309,1.039,2.8,2.8,0,0,1,1.449.984,2.734,2.734,0,0,1,.512,1.68,3.1,3.1,0,0,1-1,2.43,3.745,3.745,0,0,1-2.6.9,3.844,3.844,0,0,1-2.605-.867,2.877,2.877,0,0,1-1-2.289H-2.3a1.859,1.859,0,0,0,.586,1.438,2.229,2.229,0,0,0,1.57.539,2.187,2.187,0,0,0,1.6-.547,2.108,2.108,0,0,0,.555-1.57A1.912,1.912,0,0,0,1.4,14.536a2.655,2.655,0,0,0-1.758-.547H-1.445Z" transform="translate(246.173 406.849)" fill="#13273e"/>
    <path id="Trazado_108763" data-name="Trazado 108763" d="M-3.109,0H-4.562V-9.633l-2.914,1.07V-9.875l4.141-1.555h.227ZM1.3-.758a.905.905,0,0,1,.223-.625.848.848,0,0,1,.668-.25.874.874,0,0,1,.676.25.887.887,0,0,1,.23.625.839.839,0,0,1-.23.6A.89.89,0,0,1,2.2.086a.863.863,0,0,1-.668-.242A.855.855,0,0,1,1.3-.758ZM8.492-4.242H4.68v-1.18H8.492ZM-.406,19.2H-7.859V18.161l3.938-4.375a9.355,9.355,0,0,0,1.207-1.613,2.693,2.693,0,0,0,.332-1.285,2.041,2.041,0,0,0-.539-1.461,1.885,1.885,0,0,0-1.437-.57,2.232,2.232,0,0,0-1.676.613,2.343,2.343,0,0,0-.6,1.707H-8.078A3.355,3.355,0,0,1-7.066,8.638a3.751,3.751,0,0,1,2.707-.969A3.6,3.6,0,0,1-1.852,8.5,2.838,2.838,0,0,1-.93,10.716q0,1.68-2.141,4l-3.047,3.3H-.406ZM1.3,18.442a.905.905,0,0,1,.223-.625.848.848,0,0,1,.668-.25.874.874,0,0,1,.676.25.887.887,0,0,1,.23.625.839.839,0,0,1-.23.6.89.89,0,0,1-.676.242.863.863,0,0,1-.668-.242A.855.855,0,0,1,1.3,18.442Zm7.188-3.484H4.68v-1.18H8.492Z" transform="translate(364.847 213.352)" fill="#13273e"/>
    <path id="Trazado_108762" data-name="Trazado 108762" d="M-5.758-6.391h1.086A2.387,2.387,0,0,0-3.062-6.93a1.8,1.8,0,0,0,.586-1.414,1.764,1.764,0,0,0-1.992-2,2.072,2.072,0,0,0-1.5.535,1.873,1.873,0,0,0-.559,1.418H-7.969a2.9,2.9,0,0,1,.988-2.246,3.6,3.6,0,0,1,2.512-.895,3.558,3.558,0,0,1,2.523.852,3.076,3.076,0,0,1,.914,2.367,2.5,2.5,0,0,1-.48,1.438A2.9,2.9,0,0,1-2.82-5.836a2.8,2.8,0,0,1,1.449.984,2.734,2.734,0,0,1,.512,1.68,3.1,3.1,0,0,1-1,2.43,3.745,3.745,0,0,1-2.6.9A3.844,3.844,0,0,1-7.066-.711,2.877,2.877,0,0,1-8.07-3h1.453a1.859,1.859,0,0,0,.586,1.438,2.229,2.229,0,0,0,1.57.539,2.187,2.187,0,0,0,1.6-.547A2.108,2.108,0,0,0-2.3-3.141a1.912,1.912,0,0,0-.609-1.523,2.655,2.655,0,0,0-1.758-.547H-5.758ZM1.3-.758a.905.905,0,0,1,.223-.625.848.848,0,0,1,.668-.25.874.874,0,0,1,.676.25.887.887,0,0,1,.23.625.839.839,0,0,1-.23.6A.89.89,0,0,1,2.2.086a.863.863,0,0,1-.668-.242A.855.855,0,0,1,1.3-.758ZM8.492-4.242H4.68v-1.18H8.492ZM-1.758,15.38H-.18v1.18H-1.758V19.2H-3.211V16.559h-5.18v-.852L-3.3,7.825h1.539Zm-4.992,0h3.539V9.8l-.172.312ZM1.3,18.442a.905.905,0,0,1,.223-.625.848.848,0,0,1,.668-.25.874.874,0,0,1,.676.25.887.887,0,0,1,.23.625.839.839,0,0,1-.23.6.89.89,0,0,1-.676.242.863.863,0,0,1-.668-.242A.855.855,0,0,1,1.3,18.442Zm7.188-3.484H4.68v-1.18H8.492Z" transform="translate(364.847 308.42)" fill="#13273e"/>
    <path id="Trazado_108764" data-name="Trazado 108764" d="M-7.2-5.7l.578-5.672H-.789v1.336h-4.6l-.344,3.1a3.671,3.671,0,0,1,1.9-.492A3.138,3.138,0,0,1-1.367-6.4,4.026,4.026,0,0,1-.453-3.625,3.886,3.886,0,0,1-1.4-.855,3.46,3.46,0,0,1-4.055.156,3.6,3.6,0,0,1-6.516-.68,3.337,3.337,0,0,1-7.6-2.992h1.367a2.3,2.3,0,0,0,.7,1.473,2.162,2.162,0,0,0,1.484.5,1.95,1.95,0,0,0,1.582-.687,2.874,2.874,0,0,0,.574-1.9A2.638,2.638,0,0,0-2.52-5.441a2.113,2.113,0,0,0-1.652-.691,2.383,2.383,0,0,0-1.484.414l-.383.313ZM1.3-.758a.905.905,0,0,1,.223-.625.848.848,0,0,1,.668-.25.874.874,0,0,1,.676.25.887.887,0,0,1,.23.625.839.839,0,0,1-.23.6A.89.89,0,0,1,2.2.086a.863.863,0,0,1-.668-.242A.855.855,0,0,1,1.3-.758ZM8.492-4.242H4.68v-1.18H8.492ZM-2.187,7.817V9.044h-.266a3.805,3.805,0,0,0-2.687,1A4.161,4.161,0,0,0-6.3,12.77a3.085,3.085,0,0,1,2.453-1.031,2.95,2.95,0,0,1,2.371,1.047,4.038,4.038,0,0,1,.887,2.7A4.025,4.025,0,0,1-1.543,18.3a3.3,3.3,0,0,1-2.566,1.055A3.247,3.247,0,0,1-6.758,18.1a4.97,4.97,0,0,1-1.016-3.23v-.555a7.488,7.488,0,0,1,1.34-4.8,4.921,4.921,0,0,1,3.988-1.7Zm-1.9,5.125a2.306,2.306,0,0,0-1.367.445A2.32,2.32,0,0,0-6.32,14.5v.531A3.731,3.731,0,0,0-5.687,17.3a1.9,1.9,0,0,0,1.578.859,1.838,1.838,0,0,0,1.535-.719,2.982,2.982,0,0,0,.559-1.883,2.983,2.983,0,0,0-.566-1.895A1.816,1.816,0,0,0-4.086,12.942Zm5.391,5.5a.905.905,0,0,1,.223-.625.848.848,0,0,1,.668-.25.874.874,0,0,1,.676.25.887.887,0,0,1,.23.625.839.839,0,0,1-.23.6.89.89,0,0,1-.676.242.863.863,0,0,1-.668-.242A.855.855,0,0,1,1.3,18.442Zm7.188-3.484H4.68v-1.18H8.492Z" transform="translate(364.847 407.682)" fill="#13273e"/>
    <path id="Trazado_108767" data-name="Trazado 108767" d="M-3.109,0H-4.562V-9.633l-2.914,1.07V-9.875l4.141-1.555h.227ZM1.3-.758a.905.905,0,0,1,.223-.625.848.848,0,0,1,.668-.25.874.874,0,0,1,.676.25.887.887,0,0,1,.23.625.839.839,0,0,1-.23.6A.89.89,0,0,1,2.2.086a.863.863,0,0,1-.668-.242A.855.855,0,0,1,1.3-.758ZM8.492-4.242H4.68v-1.18H8.492ZM-.406,19.2H-7.859V18.161l3.938-4.375a9.355,9.355,0,0,0,1.207-1.613,2.693,2.693,0,0,0,.332-1.285,2.041,2.041,0,0,0-.539-1.461,1.885,1.885,0,0,0-1.437-.57,2.232,2.232,0,0,0-1.676.613,2.343,2.343,0,0,0-.6,1.707H-8.078A3.355,3.355,0,0,1-7.066,8.638a3.751,3.751,0,0,1,2.707-.969A3.6,3.6,0,0,1-1.852,8.5,2.838,2.838,0,0,1-.93,10.716q0,1.68-2.141,4l-3.047,3.3H-.406ZM1.3,18.442a.905.905,0,0,1,.223-.625.848.848,0,0,1,.668-.25.874.874,0,0,1,.676.25.887.887,0,0,1,.23.625.839.839,0,0,1-.23.6.89.89,0,0,1-.676.242.863.863,0,0,1-.668-.242A.855.855,0,0,1,1.3,18.442Zm7.188-3.484H4.68v-1.18H8.492Z" transform="translate(482.292 213.352)" fill="#13273e"/>
    <rect id="Rectángulo_32053" data-name="Rectángulo 32053" width="409.67" height="102.715" rx="3.32" transform="translate(297.53 66.042) rotate(90)" fill="none" stroke="#a3c5fd" stroke-miterlimit="10" stroke-width="1"/>
    <rect id="Rectángulo_32054" data-name="Rectángulo 32054" width="409.67" height="102.715" rx="3.32" transform="translate(416.205 66.042) rotate(90)" fill="none" stroke="#a3c5fd" stroke-miterlimit="10" stroke-width="1"/>
    <rect id="Rectángulo_32055" data-name="Rectángulo 32055" width="409.67" height="102.715" rx="3.32" transform="translate(533.65 66.042) rotate(90)" fill="none" stroke="#a3c5fd" stroke-miterlimit="10" stroke-width="1"/>
    <g id="Grupo_71326" data-name="Grupo 71326">
      <path id="Trazado_104783" data-name="Trazado 104783" d="M636.283,148.808h-80.5a8.044,8.044,0,0,1-8.044-8.045V77.107a7.965,7.965,0,0,1,7.6-8.045h80.5a8.152,8.152,0,0,1,8.486,8.045v63.656A8.045,8.045,0,0,1,636.283,148.808Z" fill="url(#linear-gradient)"/>
      <rect id="Rectángulo_32056" data-name="Rectángulo 32056" width="78.136" height="94.982" rx="8" transform="translate(643.524 69.867) rotate(90)" fill="#1565c0"/>
    </g>
    <path id="Trazado_108755" data-name="Trazado 108755" d="M-18.367,0h-1.508L-25.6-8.766V0h-1.508V-11.375H-25.6l5.742,8.8v-8.8h1.492Zm4.008,0H-15.8V-8.453h1.445Zm-1.562-10.7a.863.863,0,0,1,.215-.594.807.807,0,0,1,.637-.242.819.819,0,0,1,.641.242.854.854,0,0,1,.219.594.826.826,0,0,1-.219.586.834.834,0,0,1-.641.234.821.821,0,0,1-.637-.234A.834.834,0,0,1-15.922-10.7Zm6.664,8.734,2.094-6.492h1.477L-8.719,0h-1.1l-3.062-8.453h1.477ZM-.789.156a3.693,3.693,0,0,1-2.8-1.129,4.19,4.19,0,0,1-1.078-3.02v-.266A5.073,5.073,0,0,1-4.184-6.5,3.748,3.748,0,0,1-2.84-8.051,3.378,3.378,0,0,1-.969-8.609,3.166,3.166,0,0,1,1.594-7.523a4.7,4.7,0,0,1,.914,3.109v.6H-3.219a3,3,0,0,0,.73,2.02,2.3,2.3,0,0,0,1.777.77,2.517,2.517,0,0,0,1.3-.312,3.259,3.259,0,0,0,.93-.828l.883.688A3.55,3.55,0,0,1-.789.156Zm-.18-7.578a1.928,1.928,0,0,0-1.469.637A3.1,3.1,0,0,0-3.172-5H1.063v-.109A2.753,2.753,0,0,0,.469-6.816,1.815,1.815,0,0,0-.969-7.422ZM5.75,0H4.3V-12H5.75Zm5.922-4.3a4.952,4.952,0,0,1,.922-3.129,2.915,2.915,0,0,1,2.414-1.184,2.932,2.932,0,0,1,2.352,1.016V-12H18.8V0H17.477l-.07-.906A2.943,2.943,0,0,1,14.992.156a2.887,2.887,0,0,1-2.395-1.2,5.008,5.008,0,0,1-.926-3.141Zm1.445.164a3.749,3.749,0,0,0,.594,2.25,1.92,1.92,0,0,0,1.641.813A2.108,2.108,0,0,0,17.359-2.3V-6.187a2.125,2.125,0,0,0-1.992-1.2,1.929,1.929,0,0,0-1.656.82A4.128,4.128,0,0,0,13.117-4.133ZM24.555.156a3.693,3.693,0,0,1-2.8-1.129,4.19,4.19,0,0,1-1.078-3.02v-.266A5.073,5.073,0,0,1,21.16-6.5,3.748,3.748,0,0,1,22.5-8.051a3.378,3.378,0,0,1,1.871-.559,3.166,3.166,0,0,1,2.563,1.086,4.7,4.7,0,0,1,.914,3.109v.6H22.125a3,3,0,0,0,.73,2.02,2.3,2.3,0,0,0,1.777.77,2.517,2.517,0,0,0,1.3-.312,3.259,3.259,0,0,0,.93-.828l.883.688A3.55,3.55,0,0,1,24.555.156Zm-.18-7.578a1.928,1.928,0,0,0-1.469.637A3.1,3.1,0,0,0,22.172-5h4.234v-.109a2.753,2.753,0,0,0-.594-1.707A1.815,1.815,0,0,0,24.375-7.422ZM-33.445,19.2h-1.445V7.2h1.445Zm7.531,0a3.036,3.036,0,0,1-.2-.891,3.225,3.225,0,0,1-2.406,1.047,2.984,2.984,0,0,1-2.051-.707,2.287,2.287,0,0,1-.8-1.793,2.39,2.39,0,0,1,1-2.051,4.733,4.733,0,0,1,2.824-.73h1.406v-.664a1.623,1.623,0,0,0-.453-1.207,1.821,1.821,0,0,0-1.336-.449,2.107,2.107,0,0,0-1.3.391,1.151,1.151,0,0,0-.523.945H-31.2a2,2,0,0,1,.449-1.223,3.066,3.066,0,0,1,1.219-.934,4.1,4.1,0,0,1,1.691-.344,3.342,3.342,0,0,1,2.289.73,2.635,2.635,0,0,1,.859,2.012v3.891a4.757,4.757,0,0,0,.3,1.852V19.2Zm-2.4-1.1a2.54,2.54,0,0,0,1.289-.352,2.127,2.127,0,0,0,.883-.914V15.1h-1.133q-2.656,0-2.656,1.555a1.316,1.316,0,0,0,.453,1.063A1.742,1.742,0,0,0-28.312,18.1Zm12.633-.859,2.094-6.492h1.477L-15.141,19.2h-1.1L-19.3,10.747h1.477ZM-5.617,19.2a3.036,3.036,0,0,1-.2-.891,3.225,3.225,0,0,1-2.406,1.047,2.984,2.984,0,0,1-2.051-.707,2.287,2.287,0,0,1-.8-1.793,2.39,2.39,0,0,1,1-2.051,4.733,4.733,0,0,1,2.824-.73h1.406v-.664A1.623,1.623,0,0,0-6.3,12.2a1.821,1.821,0,0,0-1.336-.449,2.107,2.107,0,0,0-1.3.391,1.151,1.151,0,0,0-.523.945h-1.453a2,2,0,0,1,.449-1.223,3.066,3.066,0,0,1,1.219-.934,4.1,4.1,0,0,1,1.691-.344,3.342,3.342,0,0,1,2.289.73A2.635,2.635,0,0,1-4.4,13.333v3.891a4.757,4.757,0,0,0,.3,1.852V19.2Zm-2.4-1.1a2.54,2.54,0,0,0,1.289-.352,2.127,2.127,0,0,0,.883-.914V15.1H-6.977q-2.656,0-2.656,1.555a1.316,1.316,0,0,0,.453,1.063A1.742,1.742,0,0,0-8.016,18.1Zm9.969-6.055a4.331,4.331,0,0,0-.711-.055A1.9,1.9,0,0,0-.687,13.2v6H-2.133V10.747H-.727l.023.977a2.251,2.251,0,0,1,2.016-1.133,1.477,1.477,0,0,1,.641.109Zm2.9,7.156H3.406V10.747H4.852ZM3.289,8.5A.863.863,0,0,1,3.5,7.911a.807.807,0,0,1,.637-.242.819.819,0,0,1,.641.242A.854.854,0,0,1,5,8.5a.826.826,0,0,1-.219.586.834.834,0,0,1-.641.234A.821.821,0,0,1,3.5,9.091.834.834,0,0,1,3.289,8.5Zm9.094,10.7a3.036,3.036,0,0,1-.2-.891,3.225,3.225,0,0,1-2.406,1.047,2.984,2.984,0,0,1-2.051-.707,2.287,2.287,0,0,1-.8-1.793,2.39,2.39,0,0,1,1-2.051,4.733,4.733,0,0,1,2.824-.73h1.406v-.664A1.623,1.623,0,0,0,11.7,12.2a1.821,1.821,0,0,0-1.336-.449,2.107,2.107,0,0,0-1.3.391,1.151,1.151,0,0,0-.523.945H7.094a2,2,0,0,1,.449-1.223,3.066,3.066,0,0,1,1.219-.934,4.1,4.1,0,0,1,1.691-.344,3.342,3.342,0,0,1,2.289.73,2.635,2.635,0,0,1,.859,2.012v3.891a4.757,4.757,0,0,0,.3,1.852V19.2Zm-2.4-1.1a2.54,2.54,0,0,0,1.289-.352,2.127,2.127,0,0,0,.883-.914V15.1H11.023q-2.656,0-2.656,1.555a1.316,1.316,0,0,0,.453,1.063A1.742,1.742,0,0,0,9.984,18.1Zm13.039-3.031a5.026,5.026,0,0,1-.891,3.113,2.846,2.846,0,0,1-2.391,1.176,2.947,2.947,0,0,1-2.477-1.133l-.07.977H15.867V7.2h1.445v4.477a2.93,2.93,0,0,1,2.414-1.086,2.863,2.863,0,0,1,2.418,1.164,5.177,5.177,0,0,1,.879,3.188ZM21.578,14.9a3.906,3.906,0,0,0-.57-2.281,1.888,1.888,0,0,0-1.641-.8,2.122,2.122,0,0,0-2.055,1.328V16.8a2.181,2.181,0,0,0,2.07,1.328,1.878,1.878,0,0,0,1.617-.8A4.153,4.153,0,0,0,21.578,14.9Zm4.836,4.3H24.969V7.2h1.445Zm5.82.156a3.693,3.693,0,0,1-2.8-1.129,4.19,4.19,0,0,1-1.078-3.02v-.266a5.073,5.073,0,0,1,.48-2.246,3.748,3.748,0,0,1,1.344-1.547,3.378,3.378,0,0,1,1.871-.559,3.166,3.166,0,0,1,2.563,1.086,4.7,4.7,0,0,1,.914,3.109v.6H29.8a3,3,0,0,0,.73,2.02,2.3,2.3,0,0,0,1.777.77,2.517,2.517,0,0,0,1.3-.312,3.259,3.259,0,0,0,.93-.828l.883.688A3.55,3.55,0,0,1,32.234,19.356Zm-.18-7.578a1.928,1.928,0,0,0-1.469.637,3.1,3.1,0,0,0-.734,1.785h4.234v-.109a2.753,2.753,0,0,0-.594-1.707A1.815,1.815,0,0,0,32.055,11.778Z" transform="translate(596.032 104.011)" fill="#fff"/>
    <rect id="Rectángulo_32057" data-name="Rectángulo 32057" width="409.67" height="102.715" rx="3.32" transform="translate(647.39 66.042) rotate(90)" fill="none" stroke="#a3c5fd" stroke-miterlimit="10" stroke-width="1"/>
    <g id="Grupo_71327" data-name="Grupo 71327">
      <path id="Trazado_104784" data-name="Trazado 104784" d="M747.536,148.808h-80.5a8.045,8.045,0,0,1-8.045-8.045V77.107a7.965,7.965,0,0,1,7.6-8.045h80.5a8.152,8.152,0,0,1,8.486,8.045v63.656A8.045,8.045,0,0,1,747.536,148.808Z" fill="url(#linear-gradient)"/>
      <rect id="Rectángulo_32058" data-name="Rectángulo 32058" width="78.136" height="94.982" rx="8" transform="translate(754.777 69.867) rotate(90)" fill="#1565c0"/>
    </g>
    <path id="Trazado_108756" data-name="Trazado 108756" d="M-18.914-10.148H-22.57V0h-1.492V-10.148h-3.648v-1.227h8.8Zm4.969,10.3a3.693,3.693,0,0,1-2.8-1.129,4.19,4.19,0,0,1-1.078-3.02v-.266A5.073,5.073,0,0,1-17.34-6.5,3.748,3.748,0,0,1-16-8.051a3.378,3.378,0,0,1,1.871-.559,3.166,3.166,0,0,1,2.563,1.086,4.7,4.7,0,0,1,.914,3.109v.6h-5.727a3,3,0,0,0,.73,2.02,2.3,2.3,0,0,0,1.777.77,2.517,2.517,0,0,0,1.3-.312,3.259,3.259,0,0,0,.93-.828l.883.688A3.55,3.55,0,0,1-13.945.156Zm-.18-7.578a1.928,1.928,0,0,0-1.469.637A3.1,3.1,0,0,0-16.328-5h4.234v-.109a2.753,2.753,0,0,0-.594-1.707A1.815,1.815,0,0,0-14.125-7.422Zm.7-4.578h1.75l-2.094,2.3-1.164,0ZM-5.586-1.023a2.082,2.082,0,0,0,1.352-.469,1.649,1.649,0,0,0,.641-1.172h1.367a2.621,2.621,0,0,1-.5,1.383A3.293,3.293,0,0,1-3.957-.234,3.55,3.55,0,0,1-5.586.156,3.482,3.482,0,0,1-8.332-1a4.59,4.59,0,0,1-1.02-3.152v-.242a5.089,5.089,0,0,1,.453-2.2A3.451,3.451,0,0,1-7.6-8.078a3.7,3.7,0,0,1,2-.531,3.39,3.39,0,0,1,2.363.852,3.043,3.043,0,0,1,1,2.211H-3.594a1.992,1.992,0,0,0-.621-1.348,1.932,1.932,0,0,0-1.379-.527A2.023,2.023,0,0,0-7.3-6.629a3.724,3.724,0,0,0-.605,2.293v.273a3.65,3.65,0,0,0,.6,2.25A2.033,2.033,0,0,0-5.586-1.023ZM.766-8.453.813-7.391A3.08,3.08,0,0,1,3.344-8.609q2.68,0,2.7,3.023V0H4.6V-5.594a1.946,1.946,0,0,0-.418-1.352,1.675,1.675,0,0,0-1.277-.437,2.086,2.086,0,0,0-1.234.375,2.546,2.546,0,0,0-.828.984V0H-.6V-8.453ZM9.8,0H8.352V-8.453H9.8ZM8.234-10.7a.863.863,0,0,1,.215-.594.807.807,0,0,1,.637-.242.819.819,0,0,1,.641.242.854.854,0,0,1,.219.594.826.826,0,0,1-.219.586.834.834,0,0,1-.641.234.821.821,0,0,1-.637-.234A.834.834,0,0,1,8.234-10.7ZM15.5-1.023a2.082,2.082,0,0,0,1.352-.469,1.649,1.649,0,0,0,.641-1.172h1.367a2.621,2.621,0,0,1-.5,1.383,3.293,3.293,0,0,1-1.23,1.047A3.55,3.55,0,0,1,15.5.156,3.482,3.482,0,0,1,12.754-1a4.59,4.59,0,0,1-1.02-3.152v-.242a5.089,5.089,0,0,1,.453-2.2,3.451,3.451,0,0,1,1.3-1.492,3.7,3.7,0,0,1,2-.531,3.39,3.39,0,0,1,2.363.852,3.043,3.043,0,0,1,1,2.211H17.492a1.992,1.992,0,0,0-.621-1.348,1.932,1.932,0,0,0-1.379-.527,2.023,2.023,0,0,0-1.707.793,3.724,3.724,0,0,0-.605,2.293v.273a3.65,3.65,0,0,0,.6,2.25A2.033,2.033,0,0,0,15.5-1.023ZM25.7,0a3.036,3.036,0,0,1-.2-.891A3.225,3.225,0,0,1,23.094.156a2.984,2.984,0,0,1-2.051-.707,2.287,2.287,0,0,1-.8-1.793,2.39,2.39,0,0,1,1-2.051,4.733,4.733,0,0,1,2.824-.73h1.406v-.664A1.623,1.623,0,0,0,25.023-7a1.821,1.821,0,0,0-1.336-.449,2.108,2.108,0,0,0-1.3.391,1.151,1.151,0,0,0-.523.945H20.414a2,2,0,0,1,.449-1.223,3.066,3.066,0,0,1,1.219-.934,4.1,4.1,0,0,1,1.691-.344,3.342,3.342,0,0,1,2.289.73,2.635,2.635,0,0,1,.859,2.012v3.891a4.757,4.757,0,0,0,.3,1.852V0ZM23.3-1.1a2.54,2.54,0,0,0,1.289-.352,2.127,2.127,0,0,0,.883-.914V-4.1H24.344q-2.656,0-2.656,1.555a1.316,1.316,0,0,0,.453,1.063A1.742,1.742,0,0,0,23.3-1.1Z" transform="translate(707.285 113.611)" fill="#fff"/>
    <path id="Trazado_108765" data-name="Trazado 108765" d="M-6.98-7.016l2.727-4.359h1.766L-6.082-5.734-2.4,0H-4.184l-2.8-4.437L-9.793,0h-1.773l3.688-5.734-3.6-5.641h1.758Zm13.992,0,2.727-4.359H11.5L7.91-5.734,11.59,0H9.809l-2.8-4.437L4.2,0H2.426S6.092-2.891,6.113-5.734s-3.6-5.641-3.6-5.641H4.27Z" transform="translate(707.285 213.352)" fill="#13273e"/>
    <rect id="Rectángulo_32059" data-name="Rectángulo 32059" width="409.67" height="102.715" rx="3.32" transform="translate(758.643 66.042) rotate(90)" fill="none" stroke="#a3c5fd" stroke-miterlimit="10" stroke-width="1"/>
    <g id="Grupo_71328" data-name="Grupo 71328">
      <path id="Trazado_104785" data-name="Trazado 104785" d="M865.333,148.808h-80.5a8.045,8.045,0,0,1-8.045-8.045V77.107a7.966,7.966,0,0,1,7.6-8.045h80.5a8.151,8.151,0,0,1,8.486,8.045v63.656A8.044,8.044,0,0,1,865.333,148.808Z" fill="url(#linear-gradient)"/>
      <rect id="Rectángulo_32060" data-name="Rectángulo 32060" width="78.136" height="94.982" rx="8" transform="translate(872.573 69.867) rotate(90)" fill="#1565c0"/>
    </g>
    <path id="Trazado_108757" data-name="Trazado 108757" d="M-40.277,0h-1.5V-11.375h1.5Zm3.883-8.453.047,1.063a3.08,3.08,0,0,1,2.531-1.219q2.68,0,2.7,3.023V0h-1.445V-5.594a1.946,1.946,0,0,0-.418-1.352,1.675,1.675,0,0,0-1.277-.437,2.086,2.086,0,0,0-1.234.375,2.546,2.546,0,0,0-.828.984V0h-1.445V-8.453Zm12.383,6.211a1.064,1.064,0,0,0-.441-.91,4.249,4.249,0,0,0-1.539-.559,7.277,7.277,0,0,1-1.742-.562,2.479,2.479,0,0,1-.953-.781A1.869,1.869,0,0,1-29-6.133a2.193,2.193,0,0,1,.879-1.758,3.432,3.432,0,0,1,2.246-.719,3.532,3.532,0,0,1,2.332.742,2.357,2.357,0,0,1,.895,1.9H-24.1a1.3,1.3,0,0,0-.5-1.023,1.888,1.888,0,0,0-1.27-.43,1.976,1.976,0,0,0-1.234.344,1.082,1.082,0,0,0-.445.9.877.877,0,0,0,.414.789,5.1,5.1,0,0,0,1.5.508,7.8,7.8,0,0,1,1.754.578,2.558,2.558,0,0,1,1,.809,1.988,1.988,0,0,1,.324,1.152,2.163,2.163,0,0,1-.906,1.816,3.8,3.8,0,0,1-2.352.684,4.257,4.257,0,0,1-1.8-.359,2.922,2.922,0,0,1-1.223-1A2.42,2.42,0,0,1-29.285-2.6h1.445a1.5,1.5,0,0,0,.582,1.152,2.258,2.258,0,0,0,1.434.426,2.331,2.331,0,0,0,1.316-.332A1.02,1.02,0,0,0-24.012-2.242Zm5.289-8.258v2.047h1.578v1.117h-1.578v5.249a1.173,1.173,0,0,0,.211.763.888.888,0,0,0,.719.254,3.5,3.5,0,0,0,.688-.094V0a4.215,4.215,0,0,1-1.109.155A1.8,1.8,0,0,1-19.676-.43a2.517,2.517,0,0,1-.492-1.664V-7.336h-1.539V-8.453h1.539V-10.5Zm7.352,3.344a4.331,4.331,0,0,0-.711-.055A1.9,1.9,0,0,0-14.012-6V0h-1.445V-8.453h1.406l.023.977a2.251,2.251,0,0,1,2.016-1.133,1.477,1.477,0,0,1,.641.109Zm6.547,6.32A3.07,3.07,0,0,1-7.3.156,2.628,2.628,0,0,1-9.359-.629a3.4,3.4,0,0,1-.715-2.324v-5.5h1.445v5.461q0,1.922,1.563,1.922A2.163,2.163,0,0,0-4.863-2.3V-8.453h1.445V0H-4.793ZM.137-8.453l.039.938A3.122,3.122,0,0,1,2.684-8.609,2.417,2.417,0,0,1,5.1-7.25a3.2,3.2,0,0,1,1.1-.984,3.242,3.242,0,0,1,1.6-.375q2.781,0,2.828,2.945V0H9.176V-5.578a1.941,1.941,0,0,0-.414-1.355,1.823,1.823,0,0,0-1.391-.449,1.916,1.916,0,0,0-1.336.48,1.949,1.949,0,0,0-.617,1.293V0H3.965V-5.539a1.613,1.613,0,0,0-1.8-1.844A1.934,1.934,0,0,0,.215-6.172V0H-1.23V-8.453ZM16.309.156a3.693,3.693,0,0,1-2.8-1.129,4.19,4.19,0,0,1-1.078-3.02v-.266a5.073,5.073,0,0,1,.48-2.246,3.748,3.748,0,0,1,1.344-1.547,3.378,3.378,0,0,1,1.871-.559,3.166,3.166,0,0,1,2.563,1.086,4.7,4.7,0,0,1,.914,3.109v.6H13.879a3,3,0,0,0,.73,2.02,2.3,2.3,0,0,0,1.777.77,2.517,2.517,0,0,0,1.3-.312,3.259,3.259,0,0,0,.93-.828l.883.688A3.55,3.55,0,0,1,16.309.156Zm-.18-7.578a1.928,1.928,0,0,0-1.469.637A3.1,3.1,0,0,0,13.926-5H18.16v-.109a2.753,2.753,0,0,0-.594-1.707A1.815,1.815,0,0,0,16.129-7.422Zm6.516-1.031.047,1.063a3.08,3.08,0,0,1,2.531-1.219q2.68,0,2.7,3.023V0H26.48V-5.594a1.946,1.946,0,0,0-.418-1.352,1.675,1.675,0,0,0-1.277-.437,2.086,2.086,0,0,0-1.234.375,2.546,2.546,0,0,0-.828.984V0H21.277V-8.453ZM32.066-10.5v2.047h1.578v1.117H32.066v5.249a1.173,1.173,0,0,0,.211.763A.888.888,0,0,0,33-1.07a3.5,3.5,0,0,0,.688-.094V0a4.215,4.215,0,0,1-1.109.155A1.8,1.8,0,0,1,31.113-.43a2.517,2.517,0,0,1-.492-1.664V-7.336H29.082V-8.453h1.539V-10.5Zm2.727,6.2a4.993,4.993,0,0,1,.488-2.234A3.643,3.643,0,0,1,36.641-8.07a3.7,3.7,0,0,1,1.988-.539,3.565,3.565,0,0,1,2.793,1.2,4.6,4.6,0,0,1,1.066,3.18v.1a5.036,5.036,0,0,1-.473,2.215A3.589,3.589,0,0,1,40.664-.391a3.743,3.743,0,0,1-2.02.547,3.556,3.556,0,0,1-2.785-1.2A4.575,4.575,0,0,1,34.793-4.2Zm1.453.172A3.616,3.616,0,0,0,36.9-1.875a2.088,2.088,0,0,0,1.746.852,2.075,2.075,0,0,0,1.75-.863A3.955,3.955,0,0,0,41.043-4.3a3.61,3.61,0,0,0-.66-2.254,2.1,2.1,0,0,0-1.754-.863A2.075,2.075,0,0,0,36.9-6.57,3.925,3.925,0,0,0,36.246-4.133Z" transform="translate(825.082 113.611)" fill="#fff"/>
    <path id="Trazado_108766" data-name="Trazado 108766" d="M-6.98-7.016l2.727-4.359h1.766L-6.082-5.734-2.4,0H-4.184l-2.8-4.437L-9.793,0h-1.773l3.688-5.734-3.6-5.641h1.758Zm13.992,0,2.727-4.359H11.5L7.91-5.734,11.59,0H9.809l-2.8-4.437L4.2,0H2.426L6.113-5.734l-3.6-5.641H4.27Z" transform="translate(825.082 213.352)" fill="#13273e"/>
    <rect id="Rectángulo_32061" data-name="Rectángulo 32061" width="409.67" height="102.715" rx="3.32" transform="translate(876.439 66.042) rotate(90)" fill="none" stroke="#a3c5fd" stroke-miterlimit="10" stroke-width="1"/>
  </g>
</svg>
