<svg xmlns="http://www.w3.org/2000/svg" xmlns:xlink="http://www.w3.org/1999/xlink" width="82" height="83.358" viewBox="0 0 82 83.358">
  <defs>
    <clipPath id="clip-path">
      <circle id="Elipse_4630" data-name="Elipse 4630" cx="41" cy="41" r="41" transform="translate(0 -0.063)" fill="none"/>
    </clipPath>
  </defs>
  <g id="Grupo_71708" data-name="Grupo 71708" transform="translate(-235.277 -420)">
    <g id="Grupo_71710" data-name="Grupo 71710" transform="translate(235.277 421.421)">
      <g id="Grupo_71709" data-name="Grupo 71709" transform="translate(0 0)" clip-path="url(#clip-path)">
        <path id="Trazado_106100" data-name="Trazado 106100" d="M271.811,432.74c11.811-11.12,26.46-13.2,40.2-11.445l-50.671-33.522L209.3,466.432C234.228,467.787,242.74,460.108,271.811,432.74Z" transform="translate(-228.059 -412.291)" fill="#b2ebf2"/>
        <path id="Trazado_106101" data-name="Trazado 106101" d="M279.5,530.622l53.973-81.586-22.236-14.71c-13.736-1.76-28.385.325-40.2,11.445-29.071,27.368-37.582,35.047-62.513,33.693l-1.935,2.926Z" transform="translate(-227.294 -425.323)" fill="#1565c0"/>
        <g id="Grupo_71708-2" data-name="Grupo 71708" transform="translate(-6.074 55.031)">
          <path id="Trazado_106102" data-name="Trazado 106102" d="M258.454,500.188q0,7.853,0,15.706c-.015.675-.065,1.351-.032,2.025.021.433-.118.618-.849.616q-14.845-.023-29.69,0c-.686,0-.884-.13-.883-.593q.031-9.3,0-18.6c0-.49.267-.574.911-.573q14.78.017,29.56,0c.722,0,1.04.119.95.631A3.533,3.533,0,0,0,258.454,500.188Z" transform="translate(-227 -498.767)" fill="#0092b9"/>
          <path id="Trazado_106103" data-name="Trazado 106103" d="M262.364,519.317c-1.359,0-1.359,0-1.359-1.594,0-1.228,0-1.228,1.638-1.227,1.184,0,1.194,0,1.18,1.682C263.812,519.523,264.017,519.293,262.364,519.317Z" transform="translate(-236.634 -503.789)" fill="#7dcbe5"/>
        </g>
      </g>
    </g>
    <path id="Trazado_106104" data-name="Trazado 106104" d="M325.117,456.806a12.792,12.792,0,0,1,2.451.15,4.226,4.226,0,0,1-1.128,8.328,2.836,2.836,0,0,1-.441,0c-.684-.1-.92.155-.891.867a14.253,14.253,0,0,1-1.254,6.682c-2.43,5.218-6.435,8.485-12.213,9.18a33.794,33.794,0,0,1-10.695-.15c-5.789-1.163-9.641-4.687-11.692-10.205-.092-.246-.189-.492-.282-.737-.73-1.04-.64-2.272-.774-3.441a16.351,16.351,0,0,1-.011-2.272q-.061-4.17,0-8.338a28.334,28.334,0,0,1,.092-4.106c.232-.467.679-.387,1.078-.4a23.556,23.556,0,0,0,3.073-.117,8.138,8.138,0,0,0,6.824-6.175,1.752,1.752,0,0,1,.269-.736.406.406,0,0,1,.411-.006,1.57,1.57,0,0,1,.273.732,8.353,8.353,0,0,0,8.155,6.292c1.439.008,2.878-.021,4.316.012.689.015.95-.246.928-.928a14.683,14.683,0,0,1,.039-2.287c.021-.168.061-.383.269-.409s.281.18.346.333c.185.432.3.889.472,1.327a9.745,9.745,0,0,0,9.025,6.189A2.021,2.021,0,0,1,325.117,456.806Z" transform="translate(-15.122 -7.159)" fill="#f4bd99"/>
    <path id="Trazado_106105" data-name="Trazado 106105" d="M276.837,463.175a22.279,22.279,0,0,0,.541,5.619c-2.731,0-5.463.032-8.195-.009-.682-.01-.831.2-.813.841.047,1.549.015,3.1.015,4.81l-2.792-1.861c-1.661-1.107-3.331-2.2-4.979-3.329a2.415,2.415,0,0,0-1.466-.454c-2.5.025-4.993.019-7.49.008a4.226,4.226,0,0,1-4.429-4.432q-.012-11.1,0-22.206a4.191,4.191,0,0,1,4.116-4.38c9.018-.021,18.035,0,27.053,0,.178.411-.06.744-.222,1.078a11.179,11.179,0,0,0-1.059,4.868c-.017,1.851,0,3.7-.006,5.553a1.708,1.708,0,0,1-.244,1.18l-.029,4.218c-.335.335-.767.238-1.168.247a4.006,4.006,0,1,0,0,8C276.07,462.937,276.5,462.839,276.837,463.175Z" transform="translate(-3.526 -5.035)" fill="#87be40"/>
    <path id="Trazado_106106" data-name="Trazado 106106" d="M288.57,448.229c.049-2.885-.185-5.774.144-8.656a12.186,12.186,0,0,1,1.388-4.024,11.461,11.461,0,0,1,10.366-5.666c4.4.033,8.808,0,13.211.009a11.388,11.388,0,0,1,11.55,11.546c.009,3.67,0,7.339,0,11.009a10.407,10.407,0,0,1-8.058-2.592A9.8,9.8,0,0,1,314.3,445.2a1.47,1.47,0,0,0-.357-.705c0,1.035.006,2.07,0,3.1,0,.264.12.649-.366.629-2.573-.1-5.175.326-7.715-.37a8.368,8.368,0,0,1-5.878-6.81q-.144-.28-.291,0a8.4,8.4,0,0,1-7.95,7.169C290.687,448.25,289.628,448.225,288.57,448.229Z" transform="translate(-15.23 -2.8)" fill="#354f5c"/>
    <path id="Trazado_106107" data-name="Trazado 106107" d="M323.747,421.444c0-1.5,0-1.522,1.312-1.395a18.907,18.907,0,0,1,7.125,2.013,18.476,18.476,0,0,1,9.665,12.511c.115.476.076.789-.515.853-.52.056-1.028.208-1.545.29-.379.061-.6-.006-.725-.5-1.632-6.619-5.863-10.6-12.456-12.133a11.362,11.362,0,0,0-1.56-.216C323.748,422.754,323.747,422.762,323.747,421.444Z" transform="translate(-25.206 0)" fill="#cbdbe4"/>
    <path id="Trazado_106108" data-name="Trazado 106108" d="M347.04,448.529a2.8,2.8,0,0,0-.439,0c-.765.123-1.013-.167-.988-.958.054-1.693.011-1.694,1.653-1.694,1.186,0,1.186,0,1.187,1.175,0,.029,0,.058,0,.087C348.432,448.733,348.655,448.507,347.04,448.529Z" transform="translate(-31.4 -7.332)" fill="#cbdbe4"/>
    <path id="Trazado_106109" data-name="Trazado 106109" d="M297.6,461.385c1.087,0,2.174-.009,3.261,0a2.788,2.788,0,0,1,2.923,2.949c.012,1.527.038,3.056-.013,4.583-.024.707.14,1.054.907.938a2.18,2.18,0,0,1,.789.022,1.324,1.324,0,0,1,1.128,1.286,1.25,1.25,0,0,1-1.036,1.433,5.382,5.382,0,0,1-2.7-.1,2.756,2.756,0,0,1-1.89-2.7c-.015-1.586-.033-3.174.01-4.759.017-.643-.143-.868-.824-.852-1.967.046-3.937.021-5.9.014-1.125,0-1.744-.513-1.744-1.412s.616-1.4,1.744-1.406S296.482,461.385,297.6,461.385Z" transform="translate(-16.355 -11.723)" fill="#a2783b"/>
    <path id="Trazado_106110" data-name="Trazado 106110" d="M286.31,469.859a12.509,12.509,0,0,1-2.445-.157,4.224,4.224,0,0,1,1.127-8.322c.44,0,.879-.009,1.319-.014Z" transform="translate(-12.999 -11.719)" fill="#eb907e"/>
    <path id="Trazado_106111" data-name="Trazado 106111" d="M316.457,461.385c.88,0,1.76-.013,2.64,0a1.409,1.409,0,1,1,.046,2.809q-2.728.03-5.456,0a1.409,1.409,0,1,1,.043-2.809C314.638,461.372,315.547,461.385,316.457,461.385Z" transform="translate(-21.931 -11.723)" fill="#a2783b"/>
    <path id="Trazado_106112" data-name="Trazado 106112" d="M311.064,486.976c.5,0,1-.028,1.494.007a1.364,1.364,0,0,1,1.325,1.372,1.345,1.345,0,0,1-1.275,1.415c-1.023.051-2.053.05-3.077,0a1.345,1.345,0,0,1-1.28-1.412,1.384,1.384,0,0,1,1.318-1.383,1.614,1.614,0,0,1,.176,0h1.319Z" transform="translate(-20.816 -18.971)" fill="#a3783b"/>
    <path id="Trazado_106113" data-name="Trazado 106113" d="M297.8,470.106a1.407,1.407,0,1,1,1.448-1.343A1.393,1.393,0,0,1,297.8,470.106Z" transform="translate(-17.47 -13.398)" fill="#a3783c"/>
    <path id="Trazado_106114" data-name="Trazado 106114" d="M318.935,468.743a1.407,1.407,0,1,1-1.341-1.448A1.4,1.4,0,0,1,318.935,468.743Z" transform="translate(-23.045 -13.398)" fill="#a3783c"/>
    <path id="Trazado_106115" data-name="Trazado 106115" d="M304.091,445.189c-.023-.222-.1-.454.125-.667.3.165.174.434.166.669Z" transform="translate(-19.628 -6.947)" fill="#696d6d"/>
    <path id="Trazado_106116" data-name="Trazado 106116" d="M264.971,456.329c-3.025,0-6.049-.014-9.073.011-.593.005-.817-.143-.818-.781-.006-2.051-.032-2.051,2-2.051,5.608,0,11.217.012,16.825-.014.71,0,.969.158.954.917-.039,1.918,0,1.919-1.963,1.919Z" transform="translate(-5.752 -9.488)" fill="#c4d95d"/>
    <path id="Trazado_106117" data-name="Trazado 106117" d="M262.153,464.2c-2.084,0-4.169-.017-6.252.011-.588.008-.821-.135-.823-.777-.006-2.055-.033-2.055,2-2.055,3.758,0,7.515.013,11.272-.013.631,0,.872.137.868.824-.013,2.011.019,2.011-1.957,2.011Z" transform="translate(-5.751 -11.719)" fill="#c4d95d"/>
    <path id="Trazado_106118" data-name="Trazado 106118" d="M262.092,472.075c-2.084,0-4.168-.017-6.253.011-.571.007-.753-.168-.761-.748-.027-2.084-.049-2.084,2.057-2.084,3.728,0,7.457.017,11.185-.014.688-.006.906.178.9.884-.029,1.951,0,1.952-1.928,1.952Z" transform="translate(-5.75 -13.949)" fill="#c4d95d"/>
    <path id="Trazado_106119" data-name="Trazado 106119" d="M272.542,448.456c-1.614,0-3.229-.023-4.842.011-.6.013-.81-.161-.811-.788-.005-2.045-.03-2.045,2.008-2.045,2.817,0,5.635.018,8.452-.014.646-.007.861.163.856.834-.013,2,.017,2-1.965,2Z" transform="translate(-9.098 -7.258)" fill="#c4d95d"/>
    <path id="Trazado_106120" data-name="Trazado 106120" d="M260.406,448.459c-1.612-.028-1.362.227-1.365-1.6,0-1.449-.215-1.206,1.663-1.211,1.378,0,1.139-.177,1.148,1.642C261.858,448.663,261.982,448.437,260.406,448.459Z" transform="translate(-6.871 -7.261)" fill="#c4d95d"/>
    <path id="Trazado_106121" data-name="Trazado 106121" d="M306.538,511.7c3-1.036,5.84-2.436,8.773-3.622,1.2-.483,2.373-1.011,3.562-1.51a3.743,3.743,0,0,1,5.161,1.884,3.846,3.846,0,0,1-2.335,5.137q-5.584,2.136-11.174,4.256c-3.643,1.387-7.259,2.847-10.935,4.142a22.569,22.569,0,0,1-16.48-.422c-4.127-1.678-8.233-3.4-12.349-5.11a1.338,1.338,0,0,1-.312-1.142q-.016-6.712,0-13.422a1.341,1.341,0,0,1,.311-1.142c1.527,0,3.052.013,4.578,0a31.8,31.8,0,0,1,14.423,3.28,9.327,9.327,0,0,0,4.239.962c3.492-.026,6.985-.011,10.477-.006a3.469,3.469,0,0,1,3.461,2.456,3.421,3.421,0,0,1-1.569,4.085.783.783,0,0,1-.484.3.657.657,0,0,1-.249.062c.137.059.228-.075.349-.083C306.162,511.714,306.365,511.788,306.538,511.7Z" transform="translate(-10.104 -22.875)" fill="#f4bd99"/>
    <path id="Trazado_106122" data-name="Trazado 106122" d="M302.832,517.35c-2.228,0-4.456,0-6.685,0-1.071,0-1.657-.49-1.679-1.37-.023-.924.577-1.447,1.689-1.448q6.685-.005,13.37,0c1.145,0,1.7.47,1.7,1.413s-.554,1.4-1.706,1.4C307.288,517.354,305.06,517.35,302.832,517.35Z" transform="translate(-16.911 -26.78)" fill="#eb907f"/>
  </g>
</svg>
