<svg xmlns="http://www.w3.org/2000/svg" xmlns:xlink="http://www.w3.org/1999/xlink" width="84" height="84" viewBox="0 0 84 84">
  <defs>
    <clipPath id="clip-path">
      <circle id="Elipse_4631" data-name="Elipse 4631" cx="42" cy="42" r="42" transform="translate(0 0)" fill="none"/>
    </clipPath>
  </defs>
  <g id="Grupo_71711" data-name="Grupo 71711" transform="translate(-442.902 -422.668)">
    <g id="Grupo_71712" data-name="Grupo 71712" transform="translate(442.902 422.668)">
      <g id="Grupo_71711-2" data-name="Grupo 71711" transform="translate(0 0)" clip-path="url(#clip-path)">
        <path id="Trazado_106123" data-name="Trazado 106123" d="M480.932,434.615c12.041-11.337,26.975-13.462,40.98-11.668l-51.659-34.175L417.2,468.965C442.617,470.346,451.294,462.516,480.932,434.615Z" transform="translate(-435.98 -413.414)" fill="#b2ebf2"/>
        <path id="Trazado_106124" data-name="Trazado 106124" d="M488.828,533.509l55.025-83.177-22.669-15c-14-1.794-28.939.332-40.979,11.668-29.638,27.9-38.315,35.731-63.732,34.35l-1.973,2.983Z" transform="translate(-435.253 -425.803)" fill="#1565c0"/>
      </g>
    </g>
    <g id="Grupo_71713" data-name="Grupo 71713" transform="translate(445.987 426.113)">
      <path id="Trazado_106125" data-name="Trazado 106125" d="M533.277,484.082v2.128c-.414.483-.274,1.108-.347,1.649a18.274,18.274,0,0,1-2.716,7.187,22.113,22.113,0,0,1-10.672,8.677,38.608,38.608,0,0,1-12.088,2.793,53.031,53.031,0,0,1-5.76.284,7.78,7.78,0,0,1-4.912-1.741,7.48,7.48,0,0,1-2.771-5.538c-.091-1.542-.042-3.091-.009-4.636a.871.871,0,0,1,.26-.762,4.735,4.735,0,0,1,2.1-.219c.76-.012,1.52-.011,2.28.015a.853.853,0,0,1,.932.948c.029.937,0,1.875.023,2.812.023.86.229,1.061,1.1,1.081q.949.022,1.9,0c.9-.021,1.1-.221,1.112-1.147.018-1.039.008-2.078.01-3.117a1.281,1.281,0,0,1,.83-1.289,6.877,6.877,0,0,0,.4-12.281,8.344,8.344,0,0,0-3.5-.9,2.78,2.78,0,0,1-2.356-3.89,2.679,2.679,0,0,1,2.573-1.693c1.849-.023,3.7,0,5.549-.011,1.207-.006,1.36-.159,1.367-1.358,0-.608,0-1.216,0-1.825a.838.838,0,0,0-.941-.935c-.937-.013-1.876.02-2.812-.021-.886-.039-1.052-.2-1.091-1.1-.039-.912.007-1.825-.023-2.736-.026-.775-.237-.983-1.017-1.008-.709-.022-1.419-.026-2.128,0s-.94.249-.962.985c-.034,1.089-.008,2.179-.016,3.268a1.279,1.279,0,0,1-.826,1.294,6.824,6.824,0,0,0-3.762,4.436c-.106.364-.039.93-.685.924-.411-.281-.311-.722-.317-1.109-.026-1.719.034-3.439-.023-5.157a6.882,6.882,0,0,0-4.066-6.426,7.5,7.5,0,0,0-3.247-.652c-2.4-.015-4.8,0-7.207-.009a3.245,3.245,0,0,1-1.272-.129c-.483-.4-.171-.779.074-1.122a26.155,26.155,0,0,1,5.874-5.881,35.139,35.139,0,0,1,5.232-3.059,31.119,31.119,0,0,1,14.448-2.384,28.579,28.579,0,0,1,10.1,2.5c.425.216.875.379,1.291.617.747.465,1.548.832,2.294,1.3a28.819,28.819,0,0,1,9.5,9.83,47.3,47.3,0,0,1,5.816,14.589,39.18,39.18,0,0,1,.4,4.456C533.211,483.847,533.178,483.978,533.277,484.082Z" transform="translate(-455.419 -433.447)" fill="#c49869"/>
      <path id="Trazado_106126" data-name="Trazado 106126" d="M474.161,472.01a31.317,31.317,0,0,1,2.91-4.843c2.939,0,5.878-.013,8.816,0a7.26,7.26,0,0,1,7.334,6.279,20.418,20.418,0,0,1,.112,3.032c.024,1.469.018,2.938.025,4.407.543.46.258,1.134.436,1.688-.3,3.779.075,7.565-.12,11.345.059,1.278.04,2.556.025,3.835a1.126,1.126,0,0,1-.352,1.021,60.139,60.139,0,0,0,.132,6.147,7.249,7.249,0,0,0,5.867,5.894,35.091,35.091,0,0,0,6.887-.139,41.6,41.6,0,0,0,7.557-1.234,27.219,27.219,0,0,0,11.5-5.784,19.175,19.175,0,0,0,5.346-7.826,22.94,22.94,0,0,0,1.342-5.525c.24.051.139.319.284.426V492.1a1.2,1.2,0,0,0,0,.913v1.368a4.81,4.81,0,0,0-.34,1.667c-1.285,7.831-5.681,13.238-12.862,16.454a39.185,39.185,0,0,1-12.458,3.037,58.715,58.715,0,0,1-18.636-1.092c-.246-.056-.49-.124-.734-.186a.467.467,0,0,1-.022-.621,6.631,6.631,0,0,0,.893-4.122c-.018-.377.055-.751.041-1.129-.08-1.581-.061-3.162-.008-4.742q-.088-2.427,0-4.854-.086-2.436,0-4.873c-.056-2.424-.064-4.848,0-7.272-.053-1.6-.07-3.2,0-4.8-.076-1.515-.028-3.032-.044-4.549a4.615,4.615,0,0,0-4.911-4.895c-2.629-.017-5.259.01-7.888-.016C474.9,472.386,474.413,472.513,474.161,472.01Z" transform="translate(-454.406 -437.971)" fill="#b9895a"/>
      <path id="Trazado_106127" data-name="Trazado 106127" d="M514.951,427.212a10.425,10.425,0,0,1,3.383,1.581,7.219,7.219,0,0,1,2.3,8.2c-.649,1.726-1.412,3.408-2.123,5.11a.451.451,0,0,1-.157.6,1.246,1.246,0,0,1-1.087-.139,33.234,33.234,0,0,0-10.739-2.476,33.822,33.822,0,0,0-15.787,2.588,1.331,1.331,0,0,1-.569.191c-.823-1.929-1.714-3.832-2.455-5.792a7.237,7.237,0,0,1,5.252-9.693c.141-.033.313.007.393-.168Z" transform="translate(-457.924 -427.212)" fill="#c49869"/>
      <path id="Trazado_106128" data-name="Trazado 106128" d="M553.626,502.209a.784.784,0,0,1,0-.913Z" transform="translate(-475.768 -447.164)" fill="#c2986c"/>
      <path id="Trazado_106129" data-name="Trazado 106129" d="M500.418,499.67v-4.828c.267-.4.685-.38,1.09-.383,1.721-.012,3.442,0,5.164-.005.278,0,.557,0,.835-.007a2.1,2.1,0,0,0,2.231-2.01,2.072,2.072,0,0,0-2.138-2.1,7.852,7.852,0,0,1-6.312-3.532,5.607,5.607,0,0,1-.8-2.833,1.688,1.688,0,0,0-.058-.6q0-.8,0-1.591a6.925,6.925,0,0,1,3.553-5.286,2.09,2.09,0,0,0,1.31-2.4c-.085-1.006,0-2.025-.025-3.038-.01-.417.113-.583.555-.574,1.241.023,2.482.026,3.723,0,.466-.01.615.14.6.6-.028,1.19.023,2.382-.023,3.571-.022.587.179.73.734.712,1.164-.039,2.33.006,3.495-.02.474-.011.677.1.661.624q-.053,1.784,0,3.571c.015.523-.131.7-.674.691-2.153-.029-4.306-.026-6.458-.007a2.423,2.423,0,0,0-2.438,3.283,2.39,2.39,0,0,0,2.292,1.58,7.635,7.635,0,0,1,4.671,1.751,7.24,7.24,0,0,1-1.524,12.047,1.077,1.077,0,0,0-.76,1.18c.05,1.29,0,2.583.023,3.875.008.446-.107.63-.59.618-1.241-.03-2.483-.024-3.724,0-.425.008-.576-.128-.568-.561.023-1.215-.018-2.432.019-3.647.017-.544-.167-.686-.69-.676C503.2,499.7,501.811,499.676,500.418,499.67Z" transform="translate(-461.477 -438.866)" fill="#fefefe"/>
      <path id="Trazado_106130" data-name="Trazado 106130" d="M491.254,447.453c.015-.414.331-.515.643-.645a32.683,32.683,0,0,1,9.9-2.411,35.318,35.318,0,0,1,16.436,2.3c.375.15.747.307,1.121.461.3.245.2.541.085.821-.407.968-.811,1.937-1.22,2.9-.135.319-.281.658-.713.683a6.51,6.51,0,0,1-1.995-.68,30.025,30.025,0,0,0-9.558-1.769,30.378,30.378,0,0,0-12.292,2.177.919.919,0,0,1-.726.118Z" transform="translate(-459.009 -431.799)" fill="#b9895a"/>
      <path id="Trazado_106131" data-name="Trazado 106131" d="M527.184,452.345l1.849-4.408.237-.472A21.843,21.843,0,0,1,542.7,449.5a2.452,2.452,0,0,1,.855,4.139,2.388,2.388,0,0,1-2.763.336,20.128,20.128,0,0,0-5.923-1.833,12.013,12.013,0,0,0-6.615.805A2.205,2.205,0,0,1,527.184,452.345Z" transform="translate(-468.686 -432.576)" fill="#ffffb9"/>
      <path id="Trazado_106132" data-name="Trazado 106132" d="M466.879,473.8l8.953.022c3.335.008,5.352,2.011,5.356,5.33,0,1.467-.013,2.934-.021,4.4a.87.87,0,0,1-.723.348c-.253.015-.506.024-.758.024q-15.523.005-31.045-.007c-.512,0-1.081.134-1.487-.356-.007-1.643-.058-3.287-.008-4.929a4.84,4.84,0,0,1,5.094-4.806c4.551-.018,9.1,0,13.654-.006C466.223,473.817,466.551,473.8,466.879,473.8Z" transform="translate(-447.124 -439.758)" fill="#feca5a"/>
      <path id="Trazado_106133" data-name="Trazado 106133" d="M481.178,493.661v7.3a.872.872,0,0,1-.723.347c-.253.015-.506.024-.758.024q-15.523.005-31.045-.007c-.512,0-1.081.134-1.487-.356v-7.316a.9.9,0,0,1,.728-.339c.3-.018.607-.023.91-.023q15.371,0,30.741.008C480.1,493.3,480.729,493.122,481.178,493.661Z" transform="translate(-447.135 -445.003)" fill="#feca5a"/>
      <path id="Trazado_106134" data-name="Trazado 106134" d="M481.17,523.627c0,.979.035,1.96-.026,2.935a5.468,5.468,0,0,1-1.19,2.8,6.188,6.188,0,0,1-4.6,1.577c-7.571-.04-15.142-.016-22.713-.018-3.554,0-5.509-1.946-5.509-5.485,0-.607.015-1.214.023-1.822a.9.9,0,0,1,.728-.34c.3-.017.607-.023.91-.023q15.371,0,30.741.009C480.094,523.265,480.72,523.089,481.17,523.627Z" transform="translate(-447.127 -453.073)" fill="#feca5a"/>
      <path id="Trazado_106135" data-name="Trazado 106135" d="M481.178,492.011,447.165,492v-4.848l34.013-.01Z" transform="translate(-447.135 -443.353)" fill="#faa51f"/>
      <path id="Trazado_106136" data-name="Trazado 106136" d="M447.165,503.8l34.013-.009v4.866a.875.875,0,0,1-.723.346c-.3.018-.607.025-.91.025q-15.376,0-30.751-.008c-.557,0-1.184.174-1.629-.373Z" transform="translate(-447.135 -447.837)" fill="#faa51f"/>
      <path id="Trazado_106137" data-name="Trazado 106137" d="M447.165,510.44l34.013.01v4.865a.87.87,0,0,1-.723.347c-.253.015-.506.024-.758.024q-15.523.005-31.045-.007c-.512,0-1.081.135-1.487-.356Z" transform="translate(-447.135 -449.627)" fill="#feca5a"/>
      <path id="Trazado_106138" data-name="Trazado 106138" d="M447.165,517.12l34.013-.009v4.866l-34.013-.009Z" transform="translate(-447.135 -451.424)" fill="#faa51f"/>
      <path id="Trazado_106139" data-name="Trazado 106139" d="M500.428,488.122a7.594,7.594,0,0,0,2.815,5.023,7.89,7.89,0,0,0,4.5,1.571,2.43,2.43,0,1,1-.2,4.856q-3.565.008-7.131.019Q500.423,493.856,500.428,488.122Z" transform="translate(-461.477 -443.616)" fill="#c49869"/>
      <path id="Trazado_106140" data-name="Trazado 106140" d="M502.631,442.064c-.639-.077-1.654.343-2.123-.161s-.112-1.494-.135-2.272c-.018-.631.011-1.264-.008-1.9-.011-.372.088-.549.5-.543q1.933.03,3.867,0c.417-.007.509.172.5.544-.015,1.263-.022,2.527,0,3.791.009.452-.178.558-.584.543C504.028,442.047,503.4,442.064,502.631,442.064Z" transform="translate(-461.437 -429.9)" fill="#fefefe"/>
      <path id="Trazado_106141" data-name="Trazado 106141" d="M518.587,439.7c0,.606-.014,1.214.005,1.819.012.37-.084.552-.5.546q-1.933-.031-3.868,0c-.414.007-.51-.169-.506-.542.015-1.263.022-2.527,0-3.791-.009-.45.174-.552.581-.546,1.239.019,2.478.027,3.716,0,.487-.012.6.18.584.621C518.566,438.439,518.587,439.072,518.587,439.7Z" transform="translate(-465.058 -429.899)" fill="#fefefe"/>
    </g>
  </g>
</svg>
