<svg xmlns="http://www.w3.org/2000/svg" xmlns:xlink="http://www.w3.org/1999/xlink" width="85" height="85" viewBox="0 0 85 85">
  <defs>
    <clipPath id="clip-path">
      <circle id="Elipse_4629" data-name="Elipse 4629" cx="42.5" cy="42.5" r="42.5" fill="none"/>
    </clipPath>
  </defs>
  <g id="Grupo_71705" data-name="Grupo 71705" transform="translate(-738.431 -396.208)">
    <g id="Grupo_71707" data-name="Grupo 71707" transform="translate(738.431 396.208)">
      <g id="Grupo_71706" data-name="Grupo 71706" transform="translate(0 0)" clip-path="url(#clip-path)">
        <g id="Grupo_71705-2" data-name="Grupo 71705" transform="translate(-19.895 -23.879)">
          <path id="Trazado_106057" data-name="Trazado 106057" d="M757.81,383.431c11.915-11.217,26.692-13.32,40.548-11.545L747.242,338.07,694.749,417.42C719.9,418.786,728.484,411.039,757.81,383.431Z" transform="translate(-692.797 -338.07)" fill="#b2ebf2"/>
          <path id="Trazado_106058" data-name="Trazado 106058" d="M763.644,514.968l54.446-82.3-22.43-14.839c-13.856-1.775-28.633.328-40.548,11.545-29.325,27.609-37.912,35.355-63.06,33.989l-1.953,2.952Z" transform="translate(-690.099 -384.013)" fill="#1565c0"/>
          <path id="Trazado_106059" data-name="Trazado 106059" d="M816.944,491l1.249-.937c.549.031.616.522.794.873,1.9,3.777,3.782,7.561,5.682,11.337,1.185,2.414,2.391,4.82,3.689,7.393,1.316-2.569,2.506-4.981,3.7-7.392,1.914-3.77,3.778-7.565,5.684-11.338.178-.352.246-.842.794-.875l1.9,1.424a.413.413,0,0,1,.1.439,17.355,17.355,0,0,0-.488,5.471c.02,3.152.039,6.3,0,9.455a9.808,9.808,0,0,0,1.5,5.59,1.447,1.447,0,0,1,.249.579c-.051.488-.458.687-.787.935-1.941,1.467-3.881,2.936-5.839,4.38a6.421,6.421,0,0,0-2.76,5.507c.019,3.094.008,6.188,0,9.282,0,.388.085.8-.22,1.135h-7.623c-.3-.333-.219-.747-.22-1.135-.007-3.067-.026-6.135,0-9.2a6.5,6.5,0,0,0-2.824-5.635c-1.943-1.42-3.856-2.881-5.776-4.331-.329-.248-.736-.448-.787-.938a.9.9,0,0,1,.13-.372,11.026,11.026,0,0,0,1.619-6.505c-.07-3.78-.034-7.562-.012-11.344-.047-.975-.021-1.949-.014-2.923A1.015,1.015,0,0,1,816.944,491Z" transform="translate(-762.523 -426.239)" fill="#486bdf"/>
          <path id="Trazado_106060" data-name="Trazado 106060" d="M843.439,437.083c.009,4.486.067,8.972,0,13.457a8.587,8.587,0,0,1-1.873,4.869A5.281,5.281,0,0,1,839.3,457.6a8.46,8.46,0,0,1-1.107.585,9.007,9.007,0,0,1-7.234.044,15.7,15.7,0,0,1-2.794-1.914,1.71,1.71,0,0,1-.587-.914,10.035,10.035,0,0,1-1.927-6.3c.061-4.044.021-8.09.023-12.135a5.229,5.229,0,0,1,3.826-2.584,4.608,4.608,0,0,1,3.01,1.593,2.822,2.822,0,0,0,2.9.809,2.263,2.263,0,0,0,1.008-.6,9.2,9.2,0,0,1,.879-.8,3.473,3.473,0,0,1,5.345.62A4.378,4.378,0,0,1,843.439,437.083Z" transform="translate(-768.732 -393.939)" fill="#f4c89c"/>
          <path id="Trazado_106061" data-name="Trazado 106061" d="M794.989,496.2c0,4.44.047,8.88-.009,13.318a8.778,8.778,0,0,1-1.871,4.964c-.424,1.076-1.4,1.586-2.271,2.2a7.845,7.845,0,0,1-1.112.587,8.777,8.777,0,0,1-7.222,0,10.33,10.33,0,0,1-2.741-1.831,1.629,1.629,0,0,1-.644-.959,10.157,10.157,0,0,1-1.925-6.391c.07-3.968.03-7.938.035-11.908a1.534,1.534,0,0,1,.821-.247,5.211,5.211,0,0,0,3.8-2.94c.144-.28.165-.8.736-.559a2.514,2.514,0,0,1,.394.682,4.8,4.8,0,0,0,4.56,2.843c2.133.043,4.268.006,6.4.013A1.4,1.4,0,0,1,794.989,496.2Z" transform="translate(-740.619 -427.581)" fill="#f4c89c"/>
          <path id="Trazado_106062" data-name="Trazado 106062" d="M876.03,514.289a10.283,10.283,0,0,1-1.924-6.625c.082-3.036.035-6.077.044-9.115a1.642,1.642,0,0,1,.88-.326,4.867,4.867,0,0,0,3.955-4.73,4.892,4.892,0,0,1,.078-1.185c.036-.124.086-.269.242-.269.106,0,.178.1.238.191a3.867,3.867,0,0,1,.282.569,4.813,4.813,0,0,0,4.661,2.978c2.119.033,4.238,0,6.357.011a1.508,1.508,0,0,1,1.067.2c0,4.418.044,8.838-.005,13.255a8.8,8.8,0,0,1-1.882,5.041c-.422,1.079-1.4,1.588-2.271,2.2a7.907,7.907,0,0,1-1.112.588,8.75,8.75,0,0,1-7.223,0,10.331,10.331,0,0,1-2.742-1.831A1.631,1.631,0,0,1,876.03,514.289Z" transform="translate(-796.835 -427.385)" fill="#f4c89c"/>
          <path id="Trazado_106063" data-name="Trazado 106063" d="M865.5,545.027a10.589,10.589,0,0,0,3.313,2.556,3.377,3.377,0,0,1,.494,1.628,19.041,19.041,0,0,1,.488,2.694,1.116,1.116,0,0,1-.412.643c-.692.716-.649,1.268.143,1.888.165.129.35.233.421.45a23.715,23.715,0,0,1-.294,3.933c-.172,2-.4,3.987-.586,5.982a2.215,2.215,0,0,1-.383,1.343H855.958c0-3.413.045-6.827-.01-10.239a6.905,6.905,0,0,1,3.091-6.061C861.217,548.272,863.348,546.635,865.5,545.027Z" transform="translate(-786.305 -458.122)" fill="#5489fe"/>
          <path id="Trazado_106064" data-name="Trazado 106064" d="M768.591,545.028a10.581,10.581,0,0,0,3.312,2.556,3.373,3.373,0,0,1,.494,1.628,19.051,19.051,0,0,1,.488,2.694,1.118,1.118,0,0,1-.412.643c-.692.716-.649,1.269.143,1.888.165.129.35.234.421.45a23.768,23.768,0,0,1-.293,3.933c-.172,2-.4,3.987-.586,5.982a2.217,2.217,0,0,1-.383,1.343c-4.052.009-8.1.01-12.157.035-.463,0-.576-.154-.574-.593.017-3.5-.029-6.994.031-10.489a6.009,6.009,0,0,1,2.53-4.821C763.925,548.514,766.262,546.777,768.591,545.028Z" transform="translate(-730.093 -458.123)" fill="#5489fe"/>
          <path id="Trazado_106065" data-name="Trazado 106065" d="M805.57,547.588a10.185,10.185,0,0,0,3.344-2.562c2.339,1.753,4.692,3.488,7.014,5.265a6.07,6.07,0,0,1,2.509,4.9c.05,3.65.017,7.3.018,10.953H805.729c-.6-1-.394-2.143-.538-3.22-.083-.622-.389-1.29.066-1.907a2.038,2.038,0,0,1,1.155-.181c1.874-.007,3.749,0,5.622-.01.349,0,.814.136.985-.3a2,2,0,0,0-.008-1.474c-.142-.349-.545-.261-.85-.263-2.006-.011-4.012,0-6.018-.008a2.332,2.332,0,0,1-1.163-.157,1.152,1.152,0,0,1-.3-.86,13.7,13.7,0,0,1-.215-2.874c.085-.275.342-.376.542-.539a1.059,1.059,0,0,0,.1-1.742c-.2-.207-.439-.377-.492-.687A15.437,15.437,0,0,1,805.57,547.588Z" transform="translate(-756.425 -458.122)" fill="#5489fe"/>
          <path id="Trazado_106066" data-name="Trazado 106066" d="M902.471,547.585a10.13,10.13,0,0,0,3.345-2.564q3.43,2.575,6.86,5.15a6.357,6.357,0,0,1,2.675,5.32c.008,3.337,0,6.675.008,10.013,0,.417-.012.68-.571.676-4.052-.032-8.1-.029-12.157-.038-.571-.814-.364-1.783-.5-2.677-.149-.958-.21-1.935-.3-2.9a.955.955,0,0,1,.172-.82,2.047,2.047,0,0,1,1.156-.179c2.323-.006,4.646,0,6.969,0,1.109,0,1.164-.093,1.168-1.162,0-.649-.259-.889-.895-.884-2.032.014-4.065.007-6.1,0-.581,0-1.162.013-1.742-.01a1.009,1.009,0,0,1-.957-.44,5.214,5.214,0,0,1-.231-2.2c.093-.269.354-.363.551-.525a1.054,1.054,0,0,0,.132-1.683c-.207-.228-.487-.4-.543-.738A15.554,15.554,0,0,1,902.471,547.585Z" transform="translate(-812.63 -458.119)" fill="#5489fe"/>
          <path id="Trazado_106067" data-name="Trazado 106067" d="M891.921,489.165c-2.6,0-5.193.077-7.786-.008a4.823,4.823,0,0,1-4.472-3.028,5.669,5.669,0,0,0-.391-.778,6.483,6.483,0,0,1-1.127,4.4,5.081,5.081,0,0,1-3.984,1.97,14.93,14.93,0,0,1,.595-5.915,9.224,9.224,0,0,1,5.26-4.992A8.889,8.889,0,0,1,891.921,489.165Z" transform="translate(-796.847 -420.56)" fill="#b0792c"/>
          <path id="Trazado_106068" data-name="Trazado 106068" d="M848.32,428.545c-.605-.588-1.179-1.214-1.823-1.757a2.921,2.921,0,0,0-3.917,0c-.367.3-.7.639-1.052.964a2.955,2.955,0,0,1-4.261-.123,4.391,4.391,0,0,0-2.9-1.607,4.931,4.931,0,0,1,.163-3.779,4.133,4.133,0,0,1,4.382-2.563c.92.061,1.86-.055,2.766.078a7.592,7.592,0,0,1,6.682,7.763C848.357,427.861,848.332,428.2,848.32,428.545Z" transform="translate(-773.613 -385.401)" fill="#b0792c"/>
          <path id="Trazado_106069" data-name="Trazado 106069" d="M801.715,490.935q-3.574,0-7.148,0a5.105,5.105,0,0,1-5.39-3.792,1.965,1.965,0,0,1,.165-2.558A2.768,2.768,0,0,1,791.9,483.3c1.878.032,3.755.007,5.633.009a3.864,3.864,0,0,1,4.235,3.772Q801.741,489.005,801.715,490.935Z" transform="translate(-747.346 -422.312)" fill="#b0792c"/>
          <path id="Trazado_106070" data-name="Trazado 106070" d="M893.3,572.849q.3,3.166.6,6.332H886.28q.527-5.235,1.053-10.47c.032-.315.04-.631.059-.947a.926.926,0,0,1,.726-.246q1.973-.033,3.947,0a.926.926,0,0,1,.726.246q.108,1.123.216,2.246A4.432,4.432,0,0,1,893.3,572.849Z" transform="translate(-803.9 -471.159)" fill="#f5ba00"/>
          <path id="Trazado_106071" data-name="Trazado 106071" d="M795.872,567.763l.374,3.811a3.676,3.676,0,0,1,.279,2.546q.23,2.53.459,5.06h-7.622q.527-5.235,1.053-10.47c.031-.315.04-.631.059-.947a.925.925,0,0,1,.725-.246q1.974-.033,3.947,0A.926.926,0,0,1,795.872,567.763Z" transform="translate(-747.68 -471.159)" fill="#f5ba00"/>
          <path id="Trazado_106072" data-name="Trazado 106072" d="M854.294,487a9.435,9.435,0,0,0,3.356-2.548l3.177,2.354c-.3.132-.358.444-.484.7q-2.717,5.418-5.426,10.841c-.128.257-.286.5-.43.749a.519.519,0,0,1-.289-.354,29.41,29.41,0,0,1-.82-4.464c1.019-1.428,1.019-1.428,0-2.78A14.36,14.36,0,0,1,854.294,487Z" transform="translate(-784.814 -422.987)" fill="#e4e6e8"/>
          <path id="Trazado_106073" data-name="Trazado 106073" d="M825.854,484.449a18.656,18.656,0,0,0,3.312,2.711.982.982,0,0,1,.336.689,24.063,24.063,0,0,1,.622,3.63c-1.014,1.418-1.014,1.418-.005,2.78a28.229,28.229,0,0,1-.813,4.478.518.518,0,0,1-.29.355q-1.811-3.563-3.62-7.126c-.751-1.485-1.485-2.978-2.236-4.463-.127-.252-.179-.564-.485-.694Z" transform="translate(-767.003 -422.982)" fill="#e4e6e8"/>
          <path id="Trazado_106074" data-name="Trazado 106074" d="M782.641,486.35a3.582,3.582,0,0,0-.165,2.558c-.326.126-.311.468-.438.714a5.189,5.189,0,0,1-4.785,3.062c-.005-1.263-.031-2.526-.011-3.789a2.509,2.509,0,0,1,2.557-2.549C780.746,486.329,781.694,486.348,782.641,486.35Z" transform="translate(-740.645 -424.079)" fill="#946625"/>
          <path id="Trazado_106075" data-name="Trazado 106075" d="M829.668,425.785a20.873,20.873,0,0,0-.162,3.779,3.906,3.906,0,0,0-2.6,1.317,4.568,4.568,0,0,1-1.209,1.091c0-1.158-.012-2.317,0-3.475a2.541,2.541,0,0,1,2.708-2.723C828.826,425.77,829.247,425.781,829.668,425.785Z" transform="translate(-768.756 -388.945)" fill="#946625"/>
          <path id="Trazado_106076" data-name="Trazado 106076" d="M837.775,512.135l1-4.948a.953.953,0,0,1,.732-.238q2.1-.03,4.194,0a.953.953,0,0,1,.732.238l1,4.95c-1.149,2.6-2.512,5.088-3.825,7.783-.511-1.009-.962-1.863-1.379-2.733C839.423,515.5,838.486,513.871,837.775,512.135Z" transform="translate(-775.764 -436.025)" fill="#f5ba00"/>
          <path id="Trazado_106077" data-name="Trazado 106077" d="M838.984,495.133l-.85-4.449a11.15,11.15,0,0,1,2.246.511,9.024,9.024,0,0,0,5.072-.671l-.815,4.611a.958.958,0,0,1-.732.236q-2.1.03-4.19,0A.951.951,0,0,1,838.984,495.133Z" transform="translate(-775.972 -426.506)" fill="#f5ba00"/>
          <path id="Trazado_106078" data-name="Trazado 106078" d="M844.664,468.151a4.134,4.134,0,0,0,.554,0c.575-.079.668.2.71.723a4.009,4.009,0,0,1-4.5,4.384c-.5-.043-.659-.2-.608-.663a3.518,3.518,0,0,0,0-.4c0-1.377,0-1.377,1.341-1.5a1.248,1.248,0,0,0,1.2-1.313C843.43,468.151,843.43,468.151,844.664,468.151Z" transform="translate(-777.526 -413.518)" fill="#c69269"/>
          <path id="Trazado_106079" data-name="Trazado 106079" d="M854.783,449.96c2.046,0,2.035,0,1.884,2.058-.028.384-.164.5-.524.49-.924-.016-1.849-.029-2.773,0-.755.026-.587-.548-.5-.869.149-.561-.586-1.433.492-1.665A6.959,6.959,0,0,1,854.783,449.96Z" transform="translate(-784.456 -402.957)" fill="#b0792c"/>
          <path id="Trazado_106080" data-name="Trazado 106080" d="M833.634,450c1.973,0,1.958,0,1.894,1.971-.015.453-.157.594-.6.581-.9-.027-1.8-.025-2.693,0-.42.011-.528-.146-.545-.55C831.6,450,831.592,450,833.634,450Z" transform="translate(-772.218 -403)" fill="#b0792c"/>
          <path id="Trazado_106081" data-name="Trazado 106081" d="M855.5,460.382a1.268,1.268,0,1,1-1.23-1.284A1.265,1.265,0,0,1,855.5,460.382Z" transform="translate(-784.573 -408.276)" fill="#956726"/>
          <path id="Trazado_106082" data-name="Trazado 106082" d="M836.054,461.632a1.268,1.268,0,1,1,1.272-1.242A1.262,1.262,0,0,1,836.054,461.632Z" transform="translate(-774.034 -408.276)" fill="#956726"/>
          <path id="Trazado_106083" data-name="Trazado 106083" d="M797,551.119l-.855,4.456c-.178.393-.548.365-.878.371q-1.924.033-3.849,0c-.331-.006-.7.018-.878-.374q-.437-2.229-.874-4.458A9.034,9.034,0,0,0,797,551.119Z" transform="translate(-747.857 -461.653)" fill="#f5ba00"/>
          <path id="Trazado_106084" data-name="Trazado 106084" d="M792.349,532.486a2.842,2.842,0,0,0,0-.4c-.1-.641.136-.954.815-.839a.5.5,0,0,0,.079,0c1.259-.01,1.68-.4,1.637-1.66-.023-.672.133-1.018.862-.885a.907.907,0,0,0,.158,0c1.706,0,1.772.008,1.514,1.7a3.971,3.971,0,0,1-4.721,3.386c-.281-.032-.341-.2-.341-.432C792.351,533.067,792.35,532.777,792.349,532.486Z" transform="translate(-749.399 -448.639)" fill="#c69269"/>
          <path id="Trazado_106085" data-name="Trazado 106085" d="M806.329,510.567c1.92,0,1.906,0,1.875,1.908-.008.462-.107.666-.614.645a25.144,25.144,0,0,1-2.689-.038c-1.092-.165-.345-1.091-.5-1.651-.085-.318-.259-.91.5-.869C805.378,510.589,805.854,510.568,806.329,510.567Z" transform="translate(-756.342 -438.129)" fill="#b0792c"/>
          <path id="Trazado_106086" data-name="Trazado 106086" d="M785.076,513.11c-1.961,0-1.947,0-1.851-2.012.02-.419.156-.547.558-.537.924.021,1.849.019,2.773,0,.382-.008.48.146.5.511C787.189,513.111,787.2,513.11,785.076,513.11Z" transform="translate(-744.101 -438.129)" fill="#b0792c"/>
          <path id="Trazado_106087" data-name="Trazado 106087" d="M788.866,520.911a1.268,1.268,0,1,1-1.276-1.238A1.268,1.268,0,0,1,788.866,520.911Z" transform="translate(-745.922 -443.415)" fill="#956726"/>
          <path id="Trazado_106088" data-name="Trazado 106088" d="M807.038,520.972a1.268,1.268,0,1,1-1.213-1.3A1.267,1.267,0,0,1,807.038,520.972Z" transform="translate(-756.463 -443.413)" fill="#956726"/>
          <path id="Trazado_106089" data-name="Trazado 106089" d="M893.919,551.12q-.427,2.228-.854,4.456c-.177.393-.548.365-.878.371q-1.925.033-3.849,0c-.331-.006-.7.018-.878-.374q-.437-2.229-.874-4.458A9.024,9.024,0,0,0,893.919,551.12Z" transform="translate(-804.078 -461.653)" fill="#f5ba00"/>
          <path id="Trazado_106090" data-name="Trazado 106090" d="M889.269,532.546a3.755,3.755,0,0,0,0-.554c-.092-.621.2-.749.769-.742,1.443.02,1.8-.323,1.762-1.758-.016-.653.214-.862.816-.773a1.113,1.113,0,0,0,.158,0c1.669,0,1.913.309,1.536,1.964a4.082,4.082,0,0,1-4.648,3.125c-.252-.043-.388-.127-.385-.391,0-.291,0-.582,0-.872Z" transform="translate(-805.622 -448.651)" fill="#c69269"/>
          <path id="Trazado_106091" data-name="Trazado 106091" d="M903.266,510.576c1.979,0,1.966,0,1.91,1.953-.013.432-.117.614-.579.6-.9-.03-1.8-.023-2.693,0-.4.009-.543-.107-.564-.532C901.24,510.575,901.226,510.576,903.266,510.576Z" transform="translate(-812.617 -438.138)" fill="#b0792c"/>
          <path id="Trazado_106092" data-name="Trazado 106092" d="M882.041,510.533c2.047,0,2.035,0,1.884,2.058-.028.385-.164.5-.525.49-.924-.016-1.849-.029-2.773,0-.755.026-.587-.548-.5-.869.149-.561-.586-1.433.492-1.665A6.922,6.922,0,0,1,882.041,510.533Z" transform="translate(-800.268 -438.094)" fill="#b0792c"/>
          <path id="Trazado_106093" data-name="Trazado 106093" d="M884.509,522.206a1.268,1.268,0,1,1,1.276-1.239A1.262,1.262,0,0,1,884.509,522.206Z" transform="translate(-802.144 -443.414)" fill="#956726"/>
          <path id="Trazado_106094" data-name="Trazado 106094" d="M903.956,520.911a1.268,1.268,0,1,1-1.276-1.238A1.268,1.268,0,0,1,903.956,520.911Z" transform="translate(-812.683 -443.415)" fill="#956726"/>
          <path id="Trazado_106095" data-name="Trazado 106095" d="M887.289,561.731a2.659,2.659,0,0,0,1.466.129,22.562,22.562,0,0,0,4.139-.126c.068.076.123.184.208.224a1.233,1.233,0,0,1,.793,1.3,1.278,1.278,0,0,1-1.1,1.156h-5.4a1.276,1.276,0,0,1-1.1-1.154,1.232,1.232,0,0,1,.789-1.3C887.172,561.919,887.222,561.809,887.289,561.731Z" transform="translate(-803.907 -467.812)" fill="#dd9300"/>
          <path id="Trazado_106096" data-name="Trazado 106096" d="M790.371,561.731a2.659,2.659,0,0,0,1.466.129,22.563,22.563,0,0,0,4.14-.126c.068.076.122.184.208.224a1.234,1.234,0,0,1,.794,1.3,1.278,1.278,0,0,1-1.1,1.156h-5.4a1.277,1.277,0,0,1-1.1-1.154,1.232,1.232,0,0,1,.789-1.3C790.254,561.919,790.3,561.809,790.371,561.731Z" transform="translate(-747.686 -467.812)" fill="#dd9300"/>
          <path id="Trazado_106097" data-name="Trazado 106097" d="M806.035,579.734q-.139-1.273-.279-2.546c2.537,0,5.073.016,7.61-.01.575-.006.781.138.778.748-.009,1.807.018,1.807-1.768,1.807Z" transform="translate(-757.19 -476.772)" fill="#486bdf"/>
          <path id="Trazado_106098" data-name="Trazado 106098" d="M902.59,576.315q-.146-1.42-.293-2.84c.213.383.58.294.915.294,2.7,0,5.4.019,8.1-.013.626-.007.815.171.807.8-.024,1.754,0,1.754-1.746,1.754Z" transform="translate(-813.192 -474.625)" fill="#486bdf"/>
          <path id="Trazado_106099" data-name="Trazado 106099" d="M838.809,501.5h5.652a1.308,1.308,0,0,1,.006,2.532H838.81a1.31,1.31,0,0,1,0-2.534Z" transform="translate(-775.796 -432.874)" fill="#dd9300"/>
        </g>
      </g>
    </g>
  </g>
</svg>
