<svg xmlns="http://www.w3.org/2000/svg" xmlns:xlink="http://www.w3.org/1999/xlink" width="82" height="82" viewBox="0 0 82 82">
  <defs>
    <clipPath id="clip-path">
      <circle id="Elipse_4632" data-name="Elipse 4632" cx="41" cy="41" r="41" transform="translate(0.032 0.032)" fill="none"/>
    </clipPath>
  </defs>
  <g id="Grupo_71714" data-name="Grupo 71714" transform="translate(-625.855 -422.951)">
    <g id="Grupo_71717" data-name="Grupo 71717" transform="translate(625.822 422.919)">
      <g id="Grupo_71716" data-name="Grupo 71716" transform="translate(0 0)" clip-path="url(#clip-path)">
        <g id="Grupo_71715" data-name="Grupo 71715" transform="translate(-20.113 -24.256)">
          <path id="Trazado_106142" data-name="Trazado 106142" d="M662.229,433.389c11.719-11.033,26.254-13.1,39.884-11.356l-50.278-33.262L600.2,466.821C624.937,468.165,633.383,460.545,662.229,433.389Z" transform="translate(-598.28 -388.771)" fill="#54c7fe"/>
          <path id="Trazado_106143" data-name="Trazado 106143" d="M669.841,530.87,723.4,449.916l-22.063-14.6c-13.63-1.746-28.165.323-39.884,11.356-28.846,27.156-37.291,34.776-62.029,33.432l-1.92,2.9Z" transform="translate(-597.5 -402.058)" fill="#5477cd"/>
          <g id="Grupo_71714-2" data-name="Grupo 71714" transform="translate(21.507 25.053)">
            <path id="Trazado_106144" data-name="Trazado 106144" d="M649.824,424a1.722,1.722,0,0,1,.8,1.658c-.046,1.383,0,2.77-.021,4.155-.008.481.159.642.634.63,1.045-.027,2.091-.009,3.137-.01a2.657,2.657,0,0,1,2.368,0q16.533,0,33.066.006c.329,0,.681-.105.989.117-.292.353-.7.284-1.082.287q-2.293.019-4.586,0c-4.472.028-8.943.01-13.415.012q-13.3,0-26.6-.005c-.481,0-1,.125-1.418-.27a11.973,11.973,0,0,1,3.168-.128c1.388-.043,1.389-.011,1.389-1.43,0-1.121.036-2.244-.013-3.362a1.708,1.708,0,0,1,.8-1.653Z" transform="translate(-632.351 -424)" fill="#f2e9e5"/>
            <path id="Trazado_106145" data-name="Trazado 106145" d="M645.8,479.215q0-15.633.009-31.266a1.317,1.317,0,0,1,1.035-.252q18.821-.01,37.643,0c1.1,0,1.259.184,1.285,1.284,0,.183,0,.366,0,.549q0,28.9,0,57.8a2.734,2.734,0,0,1-.2,1.532,1.5,1.5,0,0,1-1.038.237q-3.351.012-6.7,0a1.586,1.586,0,0,1-.974-.2,1.283,1.283,0,0,1-.193-.895q-.009-7.54,0-15.08a1.894,1.894,0,0,1,.1-.769c.3-.491.914-.166,1.283-.482a.875.875,0,0,0,.325-.836c.013-1.177.02-2.355,0-3.531-.014-.794-.175-.954-.991-.969-1.124-.021-2.249-.019-3.373,0q-7.512.01-15.023,0c-.287,0-.574.01-.86.006a.787.787,0,0,0-.915.894c-.006,1.173,0,2.347,0,3.52,0,.557.2.891.811.906a.811.811,0,0,1,.8.39,3.056,3.056,0,0,1,.119,1.163q0,7.18,0,14.36a2.155,2.155,0,0,1-.2,1.295,1.7,1.7,0,0,1-1.128.228q-5.37.01-10.739,0a1.8,1.8,0,0,1-1.062-.194,1.006,1.006,0,0,1-.229-.726c0-3.51-.06-7.02.025-10.529a1,1,0,0,1,.607-.759c4.09-2.189,5.58-7.481,4.315-11.624a9.023,9.023,0,0,0-4.268-5.563C646.048,479.6,645.807,479.506,645.8,479.215Z" transform="translate(-632.885 -430.844)" fill="#f2e9e5"/>
            <path id="Trazado_106146" data-name="Trazado 106146" d="M684.973,507.032q0-30.05.021-60.1c0-.724-.3-.783-.885-.782q-19.419.019-38.837.011a11.278,11.278,0,0,1-.142-3.078c-.039-1.075-.008-1.073-1.089-1.17a1.387,1.387,0,0,1-.349-.134c.418-.385.94-.262,1.422-.262q14.515-.012,29.03-.006,4.512,0,9.023,0c1.853,0,3.7.3,5.553.2a.76.76,0,0,1,.65.21v18.366a1.05,1.05,0,0,1,.161.254,32.5,32.5,0,0,1,.085,3.913c.021.915,0,1.831.006,2.746s.069.989.974.995c1.909.011,3.818-.009,5.727.013.387,0,.86-.126,1.075.392a1.432,1.432,0,0,1-1.112.247c-1.931.012-3.864-.007-5.8.011-.758.007-.852.145-.877.865-.021.608.239.838.835.835q2.976-.014,5.952,0a1.628,1.628,0,0,1,1.126.22c-.134.537-.594.412-.942.417-1.931.026-3.862.008-5.794.013-1.153,0-1.169.021-1.171,1.19,0,1.122-.01,2.244,0,3.367.009.812.088.9.905.9,2.036.015,4.072-.007,6.107.014.387,0,.858-.123,1.077.389-.318.314-.727.248-1.111.25-1.932.01-3.864,0-5.8.006-1.158,0-1.183.031-1.188,1.181,0,.261,0,.522-.016.783.031,2.023.035,4.046,0,6.069.023.8.025,1.607,0,2.411.031,2.023.034,4.046,0,6.068,0,.208.018.417.018.626,0,1.355,0,1.357,1.4,1.358,1.853,0,3.707,0,5.561,0a1.542,1.542,0,0,1,1.12.235c-.194.535-.671.4-1.052.407-1.981.023-3.962.006-5.943.011-1.052,0-1.082.031-1.083,1.11,0,2.763,0,5.526-.005,8.289a1.938,1.938,0,0,1-.209,1.21,1.747,1.747,0,0,1-1.115.218c-.824.007-1.648.015-2.473-.005A1.012,1.012,0,0,1,684.973,507.032Z" transform="translate(-632.349 -429.054)" fill="#dfd1cd"/>
            <path id="Trazado_106147" data-name="Trazado 106147" d="M689.179,439.538c-14.964-.317-29.93-.081-44.9-.159-.261,0-.522.009-.783.014a.832.832,0,0,1-.469-.893q.016-2.179,0-4.359a.874.874,0,0,1,.474-.9q7.011.009,14.023.017,13.712.007,27.423.009c.49.219.543.654.546,1.111.011,1.326.04,2.653-.013,3.976-.024.6.107.831.755.8,1.115-.055,2.234-.023,3.352-.011.356,0,.738-.052,1.025.252C690.159,439.668,689.654,439.453,689.179,439.538Z" transform="translate(-632.158 -426.67)" fill="#b7abab"/>
            <path id="Trazado_106148" data-name="Trazado 106148" d="M727.156,467.993c.864.187.946.823.945,1.559q-.012,22.029,0,44.059c0,.339.015.678.023,1.018-.038.036-.071.1-.113.105a11.333,11.333,0,0,1-4.487-.052,2.475,2.475,0,0,1-.218-1.522q-.009-18.8-.005-37.608c0-1.462,0-2.925,0-4.387a6.623,6.623,0,0,0-.4-3.138,1.286,1.286,0,0,1,1.178-.231A28.521,28.521,0,0,0,727.156,467.993Z" transform="translate(-655.228 -436.637)" fill="#9c9595"/>
            <path id="Trazado_106149" data-name="Trazado 106149" d="M635.625,510.051a9.237,9.237,0,0,1-5.128-6.723c-.8-4.061.15-7.622,3.409-10.37a5.974,5.974,0,0,1,3.081-1.428,5.8,5.8,0,0,1,3.7,2.14,10.9,10.9,0,0,1,0,14.571A7.317,7.317,0,0,1,637,510.489,1.678,1.678,0,0,1,635.625,510.051Z" transform="translate(-628.461 -443.506)" fill="#80d161"/>
            <path id="Trazado_106150" data-name="Trazado 106150" d="M696.057,533.56l4.577.006c1.124,0,2.249,0,3.372.013.867.009,1.365.44,1.371,1.162s-.491,1.167-1.347,1.189c-.183.005-.366,0-.548,0H629.6c-.21,0-.419.008-.628,0a1.156,1.156,0,0,1-1.232-1.144,1.14,1.14,0,0,1,1.248-1.2c1.7-.018,3.4-.006,5.1-.007.262,0,.523-.011.784-.016.909-.436,1.871-.156,2.808-.213.723-.033,1.445-.016,2.168-.009a1.093,1.093,0,0,1,.8.225l12.922-.006a.931.931,0,0,1,.7-.2c2.335-.046,4.669-.036,7-.009.1,0,.2,0,.3,0,.788-.023,1.575-.018,2.362,0,2.52,0,5.041-.107,7.559.058a1.4,1.4,0,0,1,.27.145l8.606,0,4.388,0a1.562,1.562,0,0,1,1.045-.232q4.608-.007,9.217,0A1.454,1.454,0,0,1,696.057,533.56Z" transform="translate(-627.742 -455.574)" fill="#746e6e"/>
            <path id="Trazado_106151" data-name="Trazado 106151" d="M639.7,510.32a13.8,13.8,0,0,0,2.825-1.614,9.725,9.725,0,0,0,3.31-6.032,10.469,10.469,0,0,0-2.428-8.823,7.566,7.566,0,0,0-2.983-2.094c-.237-.1-.516-.1-.7-.314a6.266,6.266,0,0,1,3.574.108c.272.078.543.16.815.24a9.528,9.528,0,0,1,5.312,8.667c.127,4.191-1.533,7.485-5.356,9.5a4.524,4.524,0,0,1-3.109.7C640.525,510.6,640,510.845,639.7,510.32Z" transform="translate(-631.196 -443.419)" fill="#4fc022"/>
            <path id="Trazado_106152" data-name="Trazado 106152" d="M707.641,439.387c-1.542-.005-3.084-.026-4.625-.007-.531.006-.8,0-.759-.719.094-1.483.016-2.977.037-4.467a1.432,1.432,0,0,0-.318-.933l5.651-.047a.651.651,0,0,1,.489.708c0,1.591,0,3.181,0,4.772C708.116,439.027,708.043,439.323,707.641,439.387Z" transform="translate(-649.185 -426.661)" fill="#9c9595"/>
            <path id="Trazado_106153" data-name="Trazado 106153" d="M639.14,517.93c.413.23.893.038,1.316.211.391.179.36.548.361.874q.03,4.6,0,9.2a1.057,1.057,0,0,1-.242.8h-2.81q.017-5.72.034-11.441Z" transform="translate(-630.638 -451.029)" fill="#d77e49"/>
            <path id="Trazado_106154" data-name="Trazado 106154" d="M707.929,465.222l0-.172c1.072,0,2.145-.024,3.215.01.538.017.734-.146.723-.705-.032-1.62-.023-3.241-.007-4.862.01-1.027.441-1.516,1.272-1.508.76.007,1.072.315,1.075,1.11.008,1.725.029,3.451-.011,5.176-.015.627.181.821.8.792.991-.046,1.986-.011,2.98-.01a.188.188,0,0,1-.093.257,1.883,1.883,0,0,1-.918.145q-3.993.009-7.987,0A1.489,1.489,0,0,1,707.929,465.222Z" transform="translate(-650.903 -433.817)" fill="#f2e9e5"/>
            <path id="Trazado_106155" data-name="Trazado 106155" d="M722.052,465.955v-.136c.267-.26.146-.591.15-.89.014-1.042.006-2.084.006-3.126a1.07,1.07,0,0,1,.949-1.144,1.036,1.036,0,0,1,1.291.841,16.592,16.592,0,0,1,.107,3.265c.03,1.047.007,1.031,1.062,1.055.431.011.884-.137,1.295.119l-4.235.031A.414.414,0,0,1,722.052,465.955Z" transform="translate(-654.984 -434.582)" fill="#f2e9e5"/>
            <path id="Trazado_106156" data-name="Trazado 106156" d="M661.074,431.126l-2.368,0c0-1.117-.016-2.235.015-3.352a1.25,1.25,0,0,1,.888-1.316,1.139,1.139,0,0,1,1.284.5,1.057,1.057,0,0,1,.172.737Q661.071,429.41,661.074,431.126Z" transform="translate(-636.685 -424.696)" fill="#f2e9e5"/>
            <path id="Trazado_106157" data-name="Trazado 106157" d="M682.8,507.516c-.4.26-.852.06-1.272.143a4.5,4.5,0,0,1-2.614.188,46.459,46.459,0,0,0-5.17-.07,14.737,14.737,0,0,0-2.524,0c-2.313-.09-4.628-.019-6.941-.041a2.077,2.077,0,0,1-.922-.085,1.181,1.181,0,0,0-.905-.132c-.66.045-.883-.272-.876-.887.015-1.331.023-2.663,0-3.995-.015-.723.314-.963,1-.954,1.8.022,3.6.005,5.4.008q5.365.008,10.728.019c.509.213.526.664.531,1.113.011,1.221.033,2.443-.01,3.664-.02.581.191.8.763.773.648-.028,1.3-.017,1.948,0C682.241,507.266,682.567,507.236,682.8,507.516Z" transform="translate(-637.513 -446.438)" fill="#b7abab"/>
            <path id="Trazado_106158" data-name="Trazado 106158" d="M664.072,510.016a1.019,1.019,0,0,1,.6-.141q3.361,0,6.722,0a1.036,1.036,0,0,1,.6.142c.333.27.287.656.288,1.013q.014,7.4,0,14.794a1.238,1.238,0,0,1-.247.957h-.159a1.26,1.26,0,0,1-.218-.965q-.006-5.952-.005-11.905c0-.314.068-.622.074-.782a1.974,1.974,0,0,1-.3.773c-2.052,4.053-4,8.157-6.154,12.159a1.5,1.5,0,0,1-.577.72l-.632.006Q664.065,518.4,664.072,510.016Z" transform="translate(-638.232 -448.805)" fill="#6bd8e6"/>
            <path id="Trazado_106159" data-name="Trazado 106159" d="M678.435,510.005c.247-.208.545-.124.824-.133,2.36-.085,4.714.145,7.072.147q0,8.377.006,16.755l-.074.013-.075-.008c-.278-.235-.245-.563-.245-.87q-.01-7.206-.006-14.41c0-.234.052-.46.068-.748a2.141,2.141,0,0,1-.277.767q-3.275,6.549-6.552,13.1a2.03,2.03,0,0,1-.47.714c-.16.132-.28.079-.372-.09a2.794,2.794,0,0,1-.117-1.085q-.005-6.471,0-12.941A1.771,1.771,0,0,1,678.435,510.005Z" transform="translate(-642.32 -448.799)" fill="#6bd8e6"/>
            <path id="Trazado_106160" data-name="Trazado 106160" d="M641.67,529.014q0-4.98,0-9.959a1.5,1.5,0,0,0-.122-.915,11.718,11.718,0,0,0,3.054-.568q.017,5.723.034,11.445Z" transform="translate(-631.73 -451.028)" fill="#c76d35"/>
            <path id="Trazado_106161" data-name="Trazado 106161" d="M695.168,452.7q.026,4.154.05,8.307c0,.373-.168.6-.56.6q-2.43.005-4.861,0a.369.369,0,0,1-.4-.3,15.517,15.517,0,0,1,1.83-3.067c1.056-1.73,2.165-3.428,3.288-5.117C694.66,452.908,694.724,452.488,695.168,452.7Z" transform="translate(-645.552 -432.273)" fill="#00c6dc"/>
            <path id="Trazado_106162" data-name="Trazado 106162" d="M657.281,484.267c-.348-.178-.311-.512-.311-.816-.005-2.453.008-4.907-.01-7.36,0-.656.215-.942.913-.922,1.408.041,2.818.009,4.228.015.226,0,.476-.066.659.145.073.4-.186.688-.374.98C660.674,478.954,658.986,481.616,657.281,484.267Z" transform="translate(-636.182 -438.78)" fill="#6bd8e6"/>
            <path id="Trazado_106163" data-name="Trazado 106163" d="M679.066,452.722q.027,4.154.053,8.307c0,.371-.169.6-.561.6q-2.431,0-4.861,0a.368.368,0,0,1-.4-.3,15.017,15.017,0,0,1,1.7-2.868c1.087-1.708,2.154-3.431,3.281-5.114C678.466,453.068,678.585,452.651,679.066,452.722Z" transform="translate(-640.901 -432.294)" fill="#00c6dc"/>
            <path id="Trazado_106164" data-name="Trazado 106164" d="M673.23,483.979c-.255-.2-.154-.48-.154-.726q-.011-3.514,0-7.028c0-.986.064-1.043,1.077-1.043,1.3,0,2.6-.006,3.9,0,.275,0,.578-.1.814.146.1.292-.1.494-.232.705-1.54,2.456-3.113,4.892-4.683,7.328C673.781,483.63,673.673,484.016,673.23,483.979Z" transform="translate(-640.831 -438.779)" fill="#6bd8e6"/>
            <path id="Trazado_106165" data-name="Trazado 106165" d="M662.961,452.719c.147,2.769.031,5.539.06,8.309a.519.519,0,0,1-.563.6q-2.431,0-4.864,0a.367.367,0,0,1-.4-.3,2.867,2.867,0,0,1,.6-1.163c1.459-2.273,2.907-4.553,4.374-6.821C662.355,453.062,662.48,452.65,662.961,452.719Z" transform="translate(-636.25 -432.293)" fill="#00c6dc"/>
            <path id="Trazado_106166" data-name="Trazado 106166" d="M695.042,475.4c.275.185.174.472.174.717.008,2.458-.008,4.918.014,7.375.006.621-.163.906-.841.888-1.437-.038-2.877-.006-4.315-.018-.256,0-.613.132-.676-.316a23.926,23.926,0,0,1,1.973-3.263c.99-1.591,2.022-3.157,3.026-4.739C694.561,475.788,694.7,475.488,695.042,475.4Z" transform="translate(-645.552 -438.847)" fill="#00c6dc"/>
            <path id="Trazado_106167" data-name="Trazado 106167" d="M694.973,475.335q-2.514,3.933-5.033,7.862c-.178.277-.289.617-.611.785-.249-.2-.148-.483-.149-.729q-.012-3.515,0-7.03c0-.97.069-1.038,1-1.04,1.353,0,2.707-.005,4.061,0C694.489,475.188,694.767,475.1,694.973,475.335Z" transform="translate(-645.483 -438.781)" fill="#6bd8e6"/>
            <path id="Trazado_106168" data-name="Trazado 106168" d="M662.892,452.633a4.58,4.58,0,0,0-1.149,1.549c-1.473,2.278-2.926,4.569-4.389,6.853a1.182,1.182,0,0,1-.228.207c-.228-.174-.156-.426-.157-.651,0-2.4.015-4.8-.013-7.195-.009-.746.252-1.011,1.01-.981,1.38.053,2.763.009,4.145.021C662.377,452.439,662.695,452.32,662.892,452.633Z" transform="translate(-636.181 -432.207)" fill="#6bd8e6"/>
            <path id="Trazado_106169" data-name="Trazado 106169" d="M679,452.636a6.694,6.694,0,0,0-1.41,1.939c-1.379,2.121-2.725,4.265-4.088,6.4a1.771,1.771,0,0,1-.27.272c-.248-.2-.152-.483-.153-.731-.007-2.376.016-4.752-.016-7.127-.01-.7.18-.993.926-.968,1.409.048,2.82.007,4.229.02C678.482,452.439,678.8,452.322,679,452.636Z" transform="translate(-640.832 -432.208)" fill="#6bd8e6"/>
            <path id="Trazado_106170" data-name="Trazado 106170" d="M673.3,484.046a26.678,26.678,0,0,0,2.249-3.339c1.163-1.747,2.261-3.537,3.388-5.309.274.181.181.467.181.711.008,2.446-.016,4.893.018,7.339.009.72-.233.959-.951.935-1.4-.047-2.81-.007-4.216-.02C673.715,484.361,673.359,484.493,673.3,484.046Z" transform="translate(-640.902 -438.846)" fill="#00c6dc"/>
            <path id="Trazado_106171" data-name="Trazado 106171" d="M695.1,452.635a6.451,6.451,0,0,0-1.427,1.978c-1.408,2.15-2.775,4.327-4.162,6.491a.712.712,0,0,1-.181.14c-.245-.2-.149-.484-.149-.732-.007-2.375.016-4.751-.016-7.126-.01-.7.178-.993.925-.968,1.407.048,2.818.007,4.228.02C694.586,452.439,694.9,452.323,695.1,452.635Z" transform="translate(-645.484 -432.208)" fill="#6bd8e6"/>
            <path id="Trazado_106172" data-name="Trazado 106172" d="M657.412,484.332a6.511,6.511,0,0,1,1.374-2.487c1.321-2.179,2.731-4.3,4.1-6.452.279.178.193.464.194.711.007,2.456-.012,4.913.015,7.369.008.677-.217.928-.908.907C660.6,484.331,659.006,484.345,657.412,484.332Z" transform="translate(-636.312 -438.845)" fill="#00c6dc"/>
            <path id="Trazado_106173" data-name="Trazado 106173" d="M689.755,507.516c-1.091-.008-2.183-.021-3.273-.019-.4,0-.607.026-.567-.571.1-1.5.033-3.012.048-4.519,0-.294-.184-.474-.3-.7,1.225-.007,2.449,0,3.673-.026.636-.011.889.284.883.9-.015,1.381-.006,2.762,0,4.143C690.211,507.081,690.2,507.424,689.755,507.516Z" transform="translate(-644.472 -446.438)" fill="#9c9595"/>
            <path id="Trazado_106174" data-name="Trazado 106174" d="M717.967,468.115l.625.014a1.45,1.45,0,0,1,.638,1.257q-.02,22.671-.017,45.343l-11.3,0c0-3.341.023-6.681,0-10.022,0-.609.154-.809.785-.8,2.244.037,4.49.018,6.734.011.276,0,.581.094.815-.154a.77.77,0,0,1,.1-.294c.6-1.1.284-1.652-.987-1.668-2.107-.026-4.215,0-6.322-.011-.382,0-.791.072-1.1-.25l0-6.088a1.5,1.5,0,0,1,1.115-.246c2.008-.006,4.017,0,6.025,0a2.839,2.839,0,0,0,1.006-.106.872.872,0,0,0,0-1.659,2.824,2.824,0,0,0-1.006-.107c-2.008,0-4.017,0-6.025,0a1.5,1.5,0,0,1-1.115-.246l0-6.088c.313-.324.723-.249,1.1-.25,2-.008,4.007,0,6.01,0a3.7,3.7,0,0,0,.856-.052.857.857,0,0,0,.609-1.358,1.449,1.449,0,0,1-.262-.558c-.234-.248-.539-.153-.816-.154-2.246-.007-4.492-.028-6.737.011-.641.011-.8-.2-.78-.8q.057-2.192,0-4.386c-.016-.607.147-.814.783-.8,2.193.038,4.387.018,6.581.011.277,0,.58.092.821-.141a.75.75,0,0,1,.177-.25c.735-.8.7-1.112-.176-1.8a.572.572,0,0,1-.156-.169c-.245-.224-.546-.134-.824-.135-2.141-.007-4.282-.028-6.422.011-.634.011-.793-.194-.785-.8.032-2.4.014-4.8.015-7.206Z" transform="translate(-650.898 -436.743)" fill="#b7abab"/>
            <path id="Trazado_106175" data-name="Trazado 106175" d="M707.929,503.217c2.579,0,5.159,0,7.739.014a1.164,1.164,0,0,1,1.173,1.732,1.246,1.246,0,0,1-1.251.621c-2.554,0-5.107,0-7.661.006Z" transform="translate(-650.904 -446.882)" fill="#f2e9e5"/>
            <path id="Trazado_106176" data-name="Trazado 106176" d="M715.94,479.6a1.057,1.057,0,0,1,1.039,1.041,1.09,1.09,0,0,1-.885,1.18c-2.479,0-4.96-.025-7.439,0-.592.006-.766-.179-.747-.759.057-1.723-.208-1.428,1.454-1.444C711.555,479.6,713.748,479.6,715.94,479.6Z" transform="translate(-650.898 -440.059)" fill="#f2e9e5"/>
            <path id="Trazado_106177" data-name="Trazado 106177" d="M716.212,491.492c.5.333.893.7.661,1.4-.237.715-.78.812-1.419.811-2.52,0-5.04.007-7.56.012.029-.7-.294-1.588.124-2.044.463-.5,1.38-.159,2.1-.169C712.148,491.473,714.179,491.492,716.212,491.492Z" transform="translate(-650.868 -443.467)" fill="#f2e9e5"/>
            <path id="Trazado_106178" data-name="Trazado 106178" d="M707.922,515.114c2.52,0,5.04.014,7.56.011.639,0,1.181.1,1.42.811s-.159,1.067-.661,1.4c-2.527,0-5.054-.016-7.581.012-.582.006-.8-.161-.751-.751C707.954,516.107,707.921,515.609,707.922,515.114Z" transform="translate(-650.896 -450.318)" fill="#f2e9e5"/>
            <path id="Trazado_106179" data-name="Trazado 106179" d="M678.474,525.636a2.207,2.207,0,0,0,.472-.8q3.374-6.726,6.737-13.456a1.68,1.68,0,0,1,.513-.659v16.31l-7.774,0A1.259,1.259,0,0,1,678.474,525.636Z" transform="translate(-642.328 -449.049)" fill="#00c6dc"/>
            <path id="Trazado_106180" data-name="Trazado 106180" d="M664.946,527.975l7.043-13.963.139.017v13.947Z" transform="translate(-638.489 -450)" fill="#00c6dc"/>
            <path id="Trazado_106181" data-name="Trazado 106181" d="M677.6,525.38l-.051,1.39h-2.295q-.02-8.382-.041-16.764a4.2,4.2,0,0,1,2.357-.006Q677.584,517.69,677.6,525.38Z" transform="translate(-641.454 -448.793)" fill="#f2e9e5"/>
          </g>
        </g>
      </g>
    </g>
    <g id="Grupo_71718" data-name="Grupo 71718" transform="translate(628.986 423.716)">
      <path id="Trazado_106182" data-name="Trazado 106182" d="M649.824,424a1.722,1.722,0,0,1,.8,1.658c-.046,1.383,0,2.77-.021,4.155-.008.481.159.642.634.63,1.045-.027,2.091-.009,3.137-.01a2.657,2.657,0,0,1,2.368,0q16.533,0,33.066.006c.329,0,.681-.105.989.117-.292.353-.7.284-1.082.287q-2.293.019-4.586,0c-4.472.028-8.943.01-13.415.012q-13.3,0-26.6-.005c-.481,0-1,.125-1.418-.27a11.973,11.973,0,0,1,3.168-.128c1.388-.043,1.389-.011,1.389-1.43,0-1.121.036-2.244-.013-3.362a1.708,1.708,0,0,1,.8-1.653Z" transform="translate(-634.121 -424)" fill="#f2e9e5"/>
      <path id="Trazado_106183" data-name="Trazado 106183" d="M689.179,439.538c-14.964-.317-29.93-.081-44.9-.159-.261,0-.522.009-.783.014a.832.832,0,0,1-.469-.893q.016-2.179,0-4.359a.874.874,0,0,1,.474-.9q7.011.009,14.023.017,13.712.007,27.423.009c.49.219.543.654.546,1.111.011,1.326.04,2.653-.013,3.976-.024.6.107.831.755.8,1.115-.055,2.234-.023,3.352-.011.356,0,.738-.052,1.025.252C690.159,439.668,689.654,439.453,689.179,439.538Z" transform="translate(-633.928 -426.67)" fill="#b7abab"/>
      <path id="Trazado_106184" data-name="Trazado 106184" d="M707.641,439.387c-1.542-.005-3.084-.026-4.625-.007-.531.006-.8,0-.759-.719.094-1.483.016-2.977.037-4.467a1.432,1.432,0,0,0-.318-.933l5.651-.047a.651.651,0,0,1,.489.708c0,1.591,0,3.181,0,4.772C708.116,439.027,708.043,439.323,707.641,439.387Z" transform="translate(-650.955 -426.661)" fill="#9c9595"/>
      <path id="Trazado_106185" data-name="Trazado 106185" d="M722.052,465.955v-.136c.267-.26.146-.591.15-.89.014-1.042.006-2.084.006-3.126a1.07,1.07,0,0,1,.949-1.144,1.036,1.036,0,0,1,1.291.841,16.592,16.592,0,0,1,.107,3.265c.03,1.047.007,1.031,1.062,1.055.431.011.884-.137,1.295.119l-4.235.031A.414.414,0,0,1,722.052,465.955Z" transform="translate(-656.753 -434.582)" fill="#f2e9e5"/>
      <path id="Trazado_106186" data-name="Trazado 106186" d="M661.074,431.126l-2.368,0c0-1.117-.016-2.235.015-3.352a1.25,1.25,0,0,1,.888-1.316,1.139,1.139,0,0,1,1.284.5,1.057,1.057,0,0,1,.172.737Q661.071,429.41,661.074,431.126Z" transform="translate(-638.455 -424.696)" fill="#f2e9e5"/>
      <path id="Trazado_106187" data-name="Trazado 106187" d="M635.625,510.051a9.237,9.237,0,0,1-5.128-6.723c-.8-4.061.15-7.622,3.409-10.37a5.974,5.974,0,0,1,3.081-1.428,5.8,5.8,0,0,1,3.7,2.14,10.9,10.9,0,0,1,0,14.571A7.317,7.317,0,0,1,637,510.489,1.678,1.678,0,0,1,635.625,510.051Z" transform="translate(-630.231 -443.506)" fill="#80d161"/>
      <path id="Trazado_106188" data-name="Trazado 106188" d="M639.7,510.32a13.8,13.8,0,0,0,2.825-1.614,9.725,9.725,0,0,0,3.31-6.032,10.469,10.469,0,0,0-2.428-8.823,7.566,7.566,0,0,0-2.983-2.094c-.237-.1-.516-.1-.7-.314a6.266,6.266,0,0,1,3.574.108c.272.078.543.16.815.24a9.528,9.528,0,0,1,5.312,8.667c.127,4.191-1.533,7.485-5.356,9.5a4.524,4.524,0,0,1-3.109.7C640.525,510.6,640,510.845,639.7,510.32Z" transform="translate(-632.965 -443.419)" fill="#4fc022"/>
    </g>
  </g>
</svg>
