<svg xmlns="http://www.w3.org/2000/svg" width="325.811" height="326.731" viewBox="0 0 325.811 326.731">
  <g id="Grupo_72192" data-name="Grupo 72192" transform="translate(-45.904 -30.191)">
    <ellipse id="Shadow" cx="55.271" cy="31.911" rx="55.271" ry="31.911" transform="translate(73.777 293.101)" fill="#e0e0e0"/>
    <ellipse id="Shadow-2" data-name="Shadow" cx="78.849" cy="39.236" rx="78.849" ry="39.236" transform="translate(150.141 278.473) rotate(-28.337)" fill="#e0e0e0"/>
    <g id="Plants" transform="translate(288.617 231.026)">
      <g id="Grupo_72172" data-name="Grupo 72172" transform="translate(0.002)">
        <path id="Trazado_106843" data-name="Trazado 106843" d="M370.049,322.081c7.665-9.137,19.671-15.091,33.171-18.6,13.328-3.468,15.718-11.669,6.883-14.33-10.016-3.017-22.513,2.528-30.571,10.237-14.044,13.436-15.8,23.721-15.8,23.721Z" transform="translate(-363.729 -288.311)" fill="#fb8c00"/>
        <path id="Trazado_106844" data-name="Trazado 106844" d="M370.049,322.081c7.665-9.137,19.671-15.091,33.171-18.6,13.328-3.468,15.718-11.669,6.883-14.33-10.016-3.017-22.513,2.528-30.571,10.237-14.044,13.436-15.8,23.721-15.8,23.721Z" transform="translate(-363.729 -288.311)" opacity="0.15"/>
        <g id="Grupo_72171" data-name="Grupo 72171" transform="translate(1.984 4.005)">
          <path id="Trazado_106845" data-name="Trazado 106845" d="M366.668,322.69a.39.39,0,0,1-.35-.559c11.376-23.34,36.549-29.083,42.668-28.65a.389.389,0,0,1,.359.417.4.4,0,0,1-.417.359c-5.975-.458-30.711,5.233-41.911,28.213A.389.389,0,0,1,366.668,322.69Z" transform="translate(-366.278 -293.458)" fill="#fff"/>
        </g>
      </g>
      <g id="Grupo_72174" data-name="Grupo 72174" transform="translate(0 20.893)">
        <path id="Trazado_106846" data-name="Trazado 106846" d="M363.727,330.468a2.126,2.126,0,0,0,3.214,1.82c7.126-4.15,17.524-6.442,34.348-1.655,8.945,2.545,13.348.843,15.235-2.8,2.1-4.046-2.344-7.956-7.4-9.8-17.218-6.291-32.758-2-45.4,10.556Z" transform="translate(-363.727 -315.163)" fill="#fb8c00"/>
        <g id="Grupo_72173" data-name="Grupo 72173" transform="translate(0.591 5.23)">
          <path id="Trazado_106847" data-name="Trazado 106847" d="M364.875,332.294a.389.389,0,0,1-.259-.679c14.865-13.287,37.9-10.7,46.615-5.518a.389.389,0,1,1-.4.668c-8.539-5.077-31.116-7.6-45.7,5.43A.387.387,0,0,1,364.875,332.294Z" transform="translate(-364.486 -321.885)" fill="#fff"/>
        </g>
      </g>
    </g>
    <g id="Plants-2" data-name="Plants" transform="translate(75.822 260.489)">
      <g id="Grupo_72176" data-name="Grupo 72176" transform="translate(4.718)">
        <path id="Trazado_106848" data-name="Trazado 106848" d="M138.017,363.9c-6.534-9.977-17.753-17.307-30.745-22.386-12.826-5.016-14.232-13.442-5.144-15.042,10.3-1.814,22.057,5.166,29.149,13.773,12.361,15,12.895,25.419,12.895,25.419Z" transform="translate(-96.298 -326.179)" fill="#fb8c00"/>
        <path id="Trazado_106849" data-name="Trazado 106849" d="M138.017,363.9c-6.534-9.977-17.753-17.307-30.745-22.386-12.826-5.016-14.232-13.442-5.144-15.042,10.3-1.814,22.057,5.166,29.149,13.773,12.361,15,12.895,25.419,12.895,25.419Z" transform="translate(-96.298 -326.179)" opacity="0.15"/>
        <g id="Grupo_72175" data-name="Grupo 72175" transform="translate(6.718 3.655)">
          <path id="Trazado_106850" data-name="Trazado 106850" d="M143.916,364.874a.394.394,0,0,0,.174-.019.388.388,0,0,0,.239-.495c-8.542-24.52-32.862-33.191-38.99-33.484a.39.39,0,0,0-.406.372.4.4,0,0,0,.372.406c5.987.25,29.879,8.82,38.29,32.961A.386.386,0,0,0,143.916,364.874Z" transform="translate(-104.933 -330.877)" fill="#fff"/>
        </g>
      </g>
      <g id="Grupo_72178" data-name="Grupo 72178" transform="translate(0 21.854)">
        <path id="Trazado_106851" data-name="Trazado 106851" d="M142.884,371.419a3.237,3.237,0,0,1-5.021,2.305c-6.595-4.419-16.423-7.285-32.52-4.7-9.183,1.471-13.354-.738-14.8-4.579-1.6-4.265,3.266-7.623,8.5-8.861,17.84-4.216,32.764,1.883,43.838,15.839Z" transform="translate(-90.235 -354.266)" fill="#fb8c00"/>
        <g id="Grupo_72177" data-name="Grupo 72177" transform="translate(5.884 5.307)">
          <path id="Trazado_106852" data-name="Trazado 106852" d="M143.329,375.017a.389.389,0,0,0,.338-.644c-13.194-14.948-36.371-15.1-45.638-10.979a.389.389,0,1,0,.317.71c9.078-4.034,31.8-3.881,44.739,10.783A.383.383,0,0,0,143.329,375.017Z" transform="translate(-97.797 -361.087)" fill="#fff"/>
        </g>
      </g>
    </g>
    <g id="Check_Mark" data-name="Check Mark" transform="translate(151.569 80.725)">
      <g id="Circle" transform="translate(0 18.519)">
        <path id="Trazado_106853" data-name="Trazado 106853" d="M337.938,140.128l0-.006-.123-.062-.013-.007-29.659-17.074-.028-.015-.174-.088,0,.007c-13.855-6.989-32.343-4.893-52.228,7.964-39.948,25.832-70.389,85.29-67.991,132.8,1.194,23.682,10.326,39.921,24.129,47.06l0,.005.122.062.016.008,29.665,17.078.012.006.146.075,0-.006c13.859,7.011,32.362,4.921,52.263-7.948,39.947-25.832,70.389-85.289,67.992-132.8C360.871,163.505,351.74,147.266,337.938,140.128Z" transform="translate(-187.589 -118.941)" fill="#37474f"/>
        <path id="Trazado_106854" data-name="Trazado 106854" d="M240.64,349.463l-28.647-16.54-.022,0-.134-.08c-13.8-7.157-22.922-23.4-24.115-47.047-1.07-21.189,4.405-44.742,14.312-66.616l.2-.479,29.471,17.552c-9.93,21.874-15.383,45.426-14.314,66.616C218.562,326.045,227.331,342.086,240.64,349.463Z" transform="translate(-187.589 -141.081)" fill="#263238"/>
        <path id="Trazado_106855" data-name="Trazado 106855" d="M302.54,324.861c39.947-25.832,70.388-85.289,67.991-132.8s-36.725-65.088-76.673-39.255-70.389,85.289-67.992,132.8S262.592,350.694,302.54,324.861Z" transform="translate(-196.054 -123.812)" fill="#455a64"/>
      </g>
      <path id="Shadow-3" data-name="Shadow" d="M341.814,141.434,291.747,244.559l-10.776-11.68a17.713,17.713,0,0,0-26.026,24.035l28.388,30.752a17.618,17.618,0,0,0,12.054,5.667q.49.026.982.026a18.168,18.168,0,0,0,2.566-.184,17.689,17.689,0,0,0,13.343-9.786L369.7,165.118C363.837,152,354.028,143.848,341.814,141.434Z" transform="translate(-201.498 -105.414)" fill="#37474f"/>
      <g id="Grupo_72179" data-name="Grupo 72179" transform="translate(54.166 0)">
        <path id="Trazado_106856" data-name="Trazado 106856" d="M384.016,97.188q-.468-.27-.962-.509a15.4,15.4,0,0,0-20.557,7.112L298.785,235.021l-3.619-3.922a15.1,15.1,0,0,0-3.612-2.884c-1.9-1.089-9.976-5.766-11.283-6.521a15.382,15.382,0,0,0-19,23.751L289.661,276.2a15.255,15.255,0,0,0,3.665,2.915c1.853,1.055,9.9,5.72,11.217,6.484a15.33,15.33,0,0,0,6.882,2.044,15.687,15.687,0,0,0,3.079-.136,15.365,15.365,0,0,0,11.586-8.5l75.374-155.248a15.407,15.407,0,0,0-6.137-20.041C395.01,103.536,386.029,98.346,384.016,97.188Z" transform="translate(-257.205 -95.14)" fill="#fb8c00"/>
        <path id="Trazado_106857" data-name="Trazado 106857" d="M384.016,97.188q-.468-.27-.962-.509a15.4,15.4,0,0,0-20.557,7.112L298.785,235.021l-3.619-3.922a15.1,15.1,0,0,0-3.612-2.884c-1.9-1.089-9.976-5.766-11.283-6.521a15.382,15.382,0,0,0-19,23.751L289.661,276.2a15.255,15.255,0,0,0,3.665,2.915c1.853,1.055,9.9,5.72,11.217,6.484a15.33,15.33,0,0,0,6.882,2.044,15.687,15.687,0,0,0,3.079-.136,15.365,15.365,0,0,0,11.586-8.5l75.374-155.248a15.407,15.407,0,0,0-6.137-20.041C395.01,103.536,386.029,98.346,384.016,97.188Z" transform="translate(-257.205 -95.14)" opacity="0.15"/>
        <path id="Trazado_106858" data-name="Trazado 106858" d="M304.863,327.135c-1.311-.761-9.362-5.427-11.217-6.485a15.364,15.364,0,0,1-3.666-2.912l-28.389-30.751a15.409,15.409,0,0,1-2.935-4.673l11.289,6.514a15.137,15.137,0,0,0,2.949,4.681l28.389,30.751A15.454,15.454,0,0,0,304.863,327.135Z" transform="translate(-257.527 -136.68)" opacity="0.15"/>
        <path id="Trazado_106859" data-name="Trazado 106859" d="M389.221,106.7a15.237,15.237,0,0,0-3.565,4.731l-65.529,134.98-9.478-10.274L374.36,104.911a15.06,15.06,0,0,1,3.572-4.731Z" transform="translate(-269.066 -96.258)" opacity="0.15"/>
        <path id="Check" d="M397.576,105.064a15.4,15.4,0,0,0-20.556,7.112L311.488,247.154l-13.1-14.2a15.379,15.379,0,0,0-22.593,20.87l28.389,30.753a15.293,15.293,0,0,0,10.464,4.919,15.689,15.689,0,0,0,3.079-.136,15.365,15.365,0,0,0,11.586-8.5L404.687,125.62A15.4,15.4,0,0,0,397.576,105.064Z" transform="translate(-260.428 -97)" fill="#fb8c00"/>
      </g>
    </g>
    <g id="Character" transform="translate(67.844 54.564)">
      <g id="Grupo_72180" data-name="Grupo 72180" transform="translate(0 28.672)">
        <path id="Trazado_106860" data-name="Trazado 106860" d="M140.084,119.078c-5.934,0-10,1.545-14.214,7.55-3.866,5.507-14.5,23.869-14.5,23.869s-7.757-15.961-8.563-19.146-.734-4.6.032-5.98A12.491,12.491,0,0,0,104.8,119.9c.3-3.823,1.239-7.1.38-7.208-2.376-.135-2.466,2.912-3.713,4.714a1.487,1.487,0,0,1-2.391-.262c-.524-1.066-.242-2.814-.5-4.075a17.646,17.646,0,0,1,.336-2.081,9.269,9.269,0,0,0,2.723.076c1.025,1.611,1.73,2.29,3.161,1.635.188-.3-.615-2.369-1.545-3.858a1.11,1.11,0,0,0-.639-.489,12.12,12.12,0,0,0-5.277-.145.986.986,0,0,0-.676.377,12.929,12.929,0,0,0-1.519,3.087c-.105.331-.412.323-.489.035a66.448,66.448,0,0,1-.77-11.595c0-1.965-2.877-2.274-2.977.542a91.165,91.165,0,0,0,.195,11.339c.044.339-.339.5-.479.131a46.994,46.994,0,0,1-2.234-12.295c-.138-1.864-3.157-2.172-3.134.451a66.462,66.462,0,0,0,1.728,13.818c.088.329-.21.618-.438.244a45.028,45.028,0,0,1-3.381-8.525c-.64-2.251-3.65-1.68-3.124,1.127.945,5.035,2.438,11.406,4.665,15.953,2.381,4.864,4.442,7.3,5.621,11.119s6.079,25.461,11.313,33.895c4.1,6.607,8.794,6,13.841,2.514s23.091-28.628,23.091-28.628Z" transform="translate(-79.981 -98.366)" fill="#9e6767"/>
        <path id="Trazado_106861" data-name="Trazado 106861" d="M120.319,164.811s2.531,4.292,2.915,7.72a13.475,13.475,0,0,0-1.783-9.664Z" transform="translate(-88.933 -112.681)" fill="#874c4c"/>
        <path id="Trazado_106862" data-name="Trazado 106862" d="M150.949,124.967a16.019,16.019,0,0,0-10.964,2.22c-4.193,2.635-5.647,6.315-7.676,9.527s-9.052,14.6-9.052,14.6,2.575,10.808,12.819,13.035l15.335-20.809Z" transform="translate(-89.585 -104.235)" fill="#455a64"/>
      </g>
      <g id="Grupo_72184" data-name="Grupo 72184" transform="translate(37.849 119.906)">
        <g id="Grupo_72181" data-name="Grupo 72181" transform="translate(5.009 111.496)">
          <path id="Trazado_106863" data-name="Trazado 106863" d="M167.347,369.226c.748-.095,1.808,2.554,1.823,3.42s-.851,2.724-2,4.465a31.415,31.415,0,0,0-3.77,6.712,22.728,22.728,0,0,1-4.138,7.107c-2.727,3.5-9.119,9.342-18.832,6.8a8.956,8.956,0,0,1-4.416-2.232,2.885,2.885,0,0,1-.678-2.971Z" transform="translate(-135.089 -361.209)" fill="#263238"/>
          <path id="Trazado_106864" data-name="Trazado 106864" d="M148.245,363.91c-.008.027-.015.055-.021.082a6.239,6.239,0,0,0,.065,2.187,15.281,15.281,0,0,1-3.683,11.977,22.951,22.951,0,0,1-4.539,3.669c-4.921,3.141-5.45,5.24-4.756,8.412,1.645,3.7,12.8,5.945,19.212.44a18.835,18.835,0,0,0,6.1-8.3,59.785,59.785,0,0,1,3.234-6.847c1.243-2.331,3.594-4.965,3.663-7.371.037-1.321-1.271-3.779-2.542-5.8-1.166-1.858-2.368-3.625-3.417-3.418l.289,1.05c-.874.909-2.144,1.248-2.91,2.315-.945,1.315-.911,3.083-1.5,4.593a.528.528,0,0,1-.286.349.374.374,0,0,1-.409-.209,1.1,1.1,0,0,1-.09-.486q-.034-1.132-.068-2.264a1.891,1.891,0,0,0-.328-1.227c-.607-.686-2.1-.605-2.934-.639a31.868,31.868,0,0,0-3.352.2,1.637,1.637,0,0,0-1.092.288A1.971,1.971,0,0,0,148.245,363.91Z" transform="translate(-135.065 -358.923)" fill="#37474f"/>
        </g>
        <g id="Grupo_72182" data-name="Grupo 72182">
          <path id="Trazado_106865" data-name="Trazado 106865" d="M130.554,286.871c2.593,8.518,14.7,38.012,15.433,39.786s2.41,5.854,2.41,5.854a9.074,9.074,0,0,0,4.92.2c.254,2.826.68,7.255.849,9.489.055,2.591.282,5.792-.276,8.353-.475,2.182-1.024,4.467-1.436,6.653-.182.968-.364,1.936-.51,2.91a4.871,4.871,0,0,0,.244,3.056,3.833,3.833,0,0,0,.961,1.092,8.57,8.57,0,0,0,6.1,1.792,6.419,6.419,0,0,0,3.234-1.071c1.882-1.349,2.546-3.691,3.5-5.682,1.04-2.16.7-2.4.791-4.71.062-1.618.51-5.728,1.159-10.021s3.433-19.389,4.77-34.431a123.324,123.324,0,0,0,0-20.073c10.629-28.876,15.361-46.043,16.751-55.634,1.412-9.742.735-13.208.556-18.816l-51.685,1.245C134.174,243.582,127.076,275.446,130.554,286.871ZM155.8,241.056Z" transform="translate(-128.848 -215.624)" fill="#9e6767"/>
          <path id="Trazado_106866" data-name="Trazado 106866" d="M129.526,266.221c1.065-9.819,8.409-47.564,8.409-47.564h52.072s.329,7.245.235,10.572-1.162,9.414-3.027,17.1-8.749,29.478-10.081,32.694-3.908,12.505-3.908,12.505c1.277,17.463-2.043,33.132-4.534,53.958,0,0-.72,2.813-8.1,2.256-7.171-.542-8.618-3.185-8.618-3.185l-.48-17.97s-3.922,1.2-6.224.652c0,0-15.413-38.049-16.158-40.341S128.46,276.039,129.526,266.221Z" transform="translate(-128.627 -216.297)" fill="#fb8c00"/>
          <path id="Trazado_106867" data-name="Trazado 106867" d="M129.526,266.221c1.065-9.819,8.409-47.564,8.409-47.564h52.072s.329,7.245.235,10.572-1.162,9.414-3.027,17.1-8.749,29.478-10.081,32.694-3.908,12.505-3.908,12.505c1.277,17.463-2.043,33.132-4.534,53.958,0,0-.72,2.813-8.1,2.256-7.171-.542-8.618-3.185-8.618-3.185l-.48-17.97s-3.922,1.2-6.224.652c0,0-15.413-38.049-16.158-40.341S128.46,276.039,129.526,266.221Z" transform="translate(-128.627 -216.297)" opacity="0.45"/>
          <path id="Trazado_106868" data-name="Trazado 106868" d="M155.6,246.875c-7.373-6.649-9.012-11.938-9.012-11.938a49.155,49.155,0,0,0,12.983,10.405s-7,36.974-6.491,44.576,2.4,40.285,2.4,40.285c.013.314-4.965-34.566-5.106-37.353C150,285.509,155.6,246.875,155.6,246.875Z" transform="translate(-132.612 -219.91)" opacity="0.2"/>
        </g>
        <g id="Grupo_72183" data-name="Grupo 72183" transform="translate(3.848 136.241)">
          <path id="Trazado_106869" data-name="Trazado 106869" d="M169.141,405.464c.727.207.636,2.373.308,3.176a9.861,9.861,0,0,1-3.364,3.488,16.28,16.28,0,0,0-4.938,5.319A24.921,24.921,0,0,1,153.4,425a18.711,18.711,0,0,1-13.618,1.894c-4.885-1.387-5.34-2.584-5.294-4.427Z" transform="translate(-133.776 -393.997)" fill="#263238"/>
          <path id="Trazado_106870" data-name="Trazado 106870" d="M153.824,390.879c-1.281,6.255-3.514,10.794-8.694,14.643-4.118,3.06-7.111,4.615-10.4,7.351-1.4,1.166-1.517,3.649-.444,6.326,2.221,1.783,5.38,2.8,9.623,2.8,4.742-.007,6.567-.843,9.289-2.707a24.482,24.482,0,0,0,3.717-3.122c2.278-2.286,3.866-5.108,5.511-6.92s5.2-3.663,6.213-5.851c.556-1.2.32-3.98-.052-6.345-.342-2.17.324-5.982-.724-6.2.023,0-.142,1.553-.142,1.553-.086.352-.305.531-1.04.784a5.28,5.28,0,0,1-2,.059,1.184,1.184,0,0,0-1.338.379c-.7.828-.889,1.992-1.79,2.676a.557.557,0,0,1-.209.11.222.222,0,0,1-.217-.062.336.336,0,0,1-.039-.254q.13-1.164.26-2.326a2.853,2.853,0,0,0,.019-.7,1.527,1.527,0,0,0-.752-1.022,8.466,8.466,0,0,0-2.09-.868,12.935,12.935,0,0,0-2.319-.4A7.26,7.26,0,0,0,153.824,390.879Z" transform="translate(-133.572 -390.726)" fill="#455a64"/>
        </g>
      </g>
      <path id="Trazado_106871" data-name="Trazado 106871" d="M187.848,127.232a30.735,30.735,0,0,1,3.862,9.008,147.512,147.512,0,0,1,3.269,30.282c0,13.744-1.855,36.021-1.855,36.021-15.954,8-41.693,3.269-53.02-4.531.458-2.477.847-15.484,1.737-24.066.6-14.723,1.1-22.438,1.2-28.987.208-13.088,6.722-19.847,11.642-19.947l12.495.2Z" transform="translate(-93.324 -75.608)" fill="#fb8c00"/>
      <g id="Grupo_72185" data-name="Grupo 72185" transform="translate(88.164 51.563)">
        <path id="Trazado_106872" data-name="Trazado 106872" d="M203.59,219.466c-2.371,1.952-7.03,5.7-7.883,7.595-.976,2.165-1.582,5.422-2.217,6.681s.339,1.846,1.706,1.407,2.19-1.607,3.245-4.438a13.406,13.406,0,0,1,4-5.047Z" transform="translate(-193.292 -148.134)" fill="#874c4c"/>
        <path id="Trazado_106873" data-name="Trazado 106873" d="M195.378,224.608c.566,1.095,1.893,1.1,3.122,1.2a9.988,9.988,0,0,0,4.411-.5,8.027,8.027,0,0,0,4.24-2.952c1.2-1.72,1.5-3.886,2.188-5.869,1.438-4.166,5.7-7.165,6.4-11.578.287-1.825.289-3.968.807-5.1.3-.665,7.314-12.735,9.814-17.963,2.4-5.025,4.2-7.389,2.021-13.43s-9.6-27.288-14.845-34.67c-2.978-4.188-7.7-5.381-13.429-5.878-4.356,11.352.714,23.074.714,23.074l11.525,22.234s-4.48,15.312-7.281,23.827c-.778,2.365-2.351,3.826-4.117,6.448-.767,1.138-2.532,3.132-3.16,4.353-.807,1.573-.787,2.58-1.166,4.782C196.016,216.094,195.108,224.086,195.378,224.608Z" transform="translate(-193.744 -127.805)" fill="#9e6767"/>
        <path id="Trazado_106874" data-name="Trazado 106874" d="M200.15,127.788c3.01.121,7.336.629,9.924,1.936s4.377,2.921,7.354,8.878,7.315,17.538,7.315,17.538-1.44,8.736-15.255,11l-9.339-17.217S195.988,139.2,200.15,127.788Z" transform="translate(-194.404 -127.788)" fill="#455a64"/>
      </g>
      <g id="Grupo_72190" data-name="Grupo 72190" transform="translate(50.274)">
        <g id="Grupo_72187" data-name="Grupo 72187">
          <g id="Grupo_72186" data-name="Grupo 72186">
            <path id="Trazado_106875" data-name="Trazado 106875" d="M152.337,85.27a18.809,18.809,0,0,1,1.057,2.271,13.275,13.275,0,0,0,1.745,2.891,29.564,29.564,0,0,0,6.6,5.033,7.066,7.066,0,0,0,4.676,1.478,23.811,23.811,0,0,1,5.345.284l6.121.549-.345,6.438s.759-1.706,1.8-3.743c.891-1.75,4.609-10.633,4.623-10.666,1.842-4.4,4.032-10.266,1.826-14.89a6.14,6.14,0,0,0-2.394-2.745,5.408,5.408,0,0,0,.2-2.191,7.055,7.055,0,0,0-3.251-5.154,15.47,15.47,0,0,0-5.775-2.379,36.691,36.691,0,0,0-8.356-.93,49.981,49.981,0,0,0-8.2.942,29.533,29.533,0,0,1-4.568.477,8.642,8.642,0,0,1-1.979-.095,22.167,22.167,0,0,1-2.386-.861.558.558,0,0,0-.426-.034.534.534,0,0,0-.23.366,6.932,6.932,0,0,0,1.271,5.613,3.769,3.769,0,0,1-1.012-.294,7.33,7.33,0,0,1-1.05-.591,6.007,6.007,0,0,1-1.477-1.408.448.448,0,0,0-.243-.182c-.154-.027-.286.107-.378.233a5.488,5.488,0,0,0-.809,4.3,9.4,9.4,0,0,0,2.025,3.975,5.456,5.456,0,0,0-.275,5.222,7.026,7.026,0,0,0,1.375,1.978c.7.716,1.526,1.3,2.26,1.967A13.594,13.594,0,0,1,152.337,85.27Z" transform="translate(-144.595 -61.517)" fill="#37474f"/>
            <path id="Trazado_106876" data-name="Trazado 106876" d="M172.043,78.225a12.093,12.093,0,0,0,.44,3.441,6.768,6.768,0,0,0,1.737,2.559,20.114,20.114,0,0,1,2.41,2.435,10.248,10.248,0,0,1,1.355,4.481,3.164,3.164,0,0,0,1.183,2.415c1.664,1.029,2.662-.967,3.55-1.947,1.146-1.059,4.54-2.349,6.111,1.26,1.628,3.738-1.371,8.686-4.1,9.448-4.71,1.312-5.732-1.892-5.732-1.892l-.9,16.805c-2.66,5.036-8.9,6.635-13,5.834-3.539-.692-5.485-3.171-2.156-6.771l.18-5.118a29.393,29.393,0,0,1-6.3.118c-3.411-.641-5.1-3.54-6.022-7.285-1.478-6.016-2.152-12.338-.326-25.882.839-.461,4.2,2.161,9.3,2.512A23.663,23.663,0,0,0,172.043,78.225Z" transform="translate(-145.654 -65.191)" fill="#9e6767"/>
          </g>
          <path id="Trazado_106877" data-name="Trazado 106877" d="M167.018,118.859s7.7-1.293,10.426-2.629a8.827,8.827,0,0,0,3.818-3.539,12.073,12.073,0,0,1-2.242,4.248c-2.039,2.438-12.069,3.956-12.069,3.956Z" transform="translate(-149.557 -72.874)" fill="#874c4c"/>
        </g>
        <g id="Grupo_72189" data-name="Grupo 72189" transform="translate(0.12 17.571)">
          <path id="Trazado_106878" data-name="Trazado 106878" d="M172.15,85.565l3.586,1.1a1.969,1.969,0,0,0-1.287-2.4A1.829,1.829,0,0,0,172.15,85.565Z" transform="translate(-150.83 -84.118)" fill="#263238"/>
          <path id="Trazado_106879" data-name="Trazado 106879" d="M169.042,107.839l-5.279,1.788a2.738,2.738,0,0,0,3.487,1.843A2.918,2.918,0,0,0,169.042,107.839Z" transform="translate(-148.969 -89.368)" fill="#874c4c"/>
          <path id="Trazado_106880" data-name="Trazado 106880" d="M169.141,109.5a3.106,3.106,0,0,0-3.01,2.361,2.659,2.659,0,0,0,1.644-.023,2.861,2.861,0,0,0,1.877-2.288A3.076,3.076,0,0,0,169.141,109.5Z" transform="translate(-149.494 -89.737)" fill="#f28f8f"/>
          <path id="Trazado_106881" data-name="Trazado 106881" d="M151.571,86.149l3.642-.48a1.773,1.773,0,0,0-2.017-1.554A1.87,1.87,0,0,0,151.571,86.149Z" transform="translate(-146.26 -84.099)" fill="#263238"/>
          <path id="Trazado_106882" data-name="Trazado 106882" d="M180.4,88.732l12.033,4.124a4.381,4.381,0,0,0-3.467,1.76l-8.523-3.237Z" transform="translate(-152.661 -85.127)" fill="#263238"/>
          <path id="Trazado_106883" data-name="Trazado 106883" d="M153.876,94.351a1.44,1.44,0,1,0,1.487-1.451A1.463,1.463,0,0,0,153.876,94.351Z" transform="translate(-146.774 -86.052)" fill="#263238"/>
          <path id="Trazado_106884" data-name="Trazado 106884" d="M171.55,94.36a1.44,1.44,0,1,0,1.487-1.451A1.463,1.463,0,0,0,171.55,94.36Z" transform="translate(-150.697 -86.054)" fill="#263238"/>
          <g id="Grupo_72188" data-name="Grupo 72188" transform="translate(0 2.807)">
            <path id="Trazado_106885" data-name="Trazado 106885" d="M144.753,89.378a3.278,3.278,0,0,0,.759,1.7,1.454,1.454,0,0,1,.305.6,30.327,30.327,0,0,0,1.069,4.581,5.064,5.064,0,0,0,4.931,3.255,7.141,7.141,0,0,0,1.677-.142c.044-.008.086-.019.127-.027a4.819,4.819,0,0,0,1.364-.537c.028-.017.055-.033.081-.051s.079-.047.117-.074.068-.046.147-.1c.046-.033.09-.067.135-.1s.1-.079.148-.121.095-.08.142-.125c.093-.086.179-.174.263-.268a6.349,6.349,0,0,0,1.1-1.741c.711-1.6.527-3.843,1.7-4.1a1.1,1.1,0,0,1,.14-.021,1.365,1.365,0,0,1,.152-.006c1.591.023,1.414,2.464,2.3,4.206a5.948,5.948,0,0,0,5.811,3.5c.154,0,.3,0,.447,0,.122-.006.241-.012.356-.024a6.192,6.192,0,0,0,.831-.118c.089-.019.177-.038.261-.06s.169-.048.249-.072c.053-.014.105-.032.158-.05a4.7,4.7,0,0,0,.934-.44c.109-.068.211-.138.313-.211a4.3,4.3,0,0,0,.541-.474,5.509,5.509,0,0,0,1.045-1.619,28.613,28.613,0,0,0,.943-4.542,1.977,1.977,0,0,1,.264-.661,3.112,3.112,0,0,0,.777-1.637,1.42,1.42,0,0,0-.961-1.439c-.271-.039-.554-.077-.847-.112-2.723-.33-6.274-.475-8.4.1-2.663.729-3.587,1.582-5.072,1.561-1.389-.033-2.29-.917-4.813-1.742a22.811,22.811,0,0,0-7.867-.4q-.407.037-.786.082C145.161,87.988,144.7,88.646,144.753,89.378Zm17.521,1.666a2.265,2.265,0,0,1,.758-.619c.044-.027.089-.052.137-.076.025-.014.05-.026.075-.039.118-.061.243-.122.375-.177.11-.048.226-.1.347-.142a10.007,10.007,0,0,1,1.137-.358c.149-.037.3-.074.453-.105a10.58,10.58,0,0,1,1.17-.184c.094-.01.187-.019.274-.022,2.564-.209,4.164.4,4.746.922.6.545.331,2.914.086,4.118l-.019.089c-.006.029-.012.061-.019.093-.03.146-.065.31-.11.486-.026.1-.054.2-.083.3a.075.075,0,0,1,0,.012q-.07.244-.171.5v0c-.022.056-.046.115-.07.172-.013.033-.029.068-.046.1s-.033.076-.053.114-.047.1-.071.144-.055.107-.086.16-.065.111-.1.17-.072.113-.112.17a4.031,4.031,0,0,1-3.585,1.691,4.944,4.944,0,0,1-3.786-1.443h0a5.364,5.364,0,0,1-1.241-2.43C161.956,93.344,161.773,91.775,162.273,91.043ZM147.19,89.788a2.209,2.209,0,0,1,.627-.4.345.345,0,0,1,.049-.021c.085-.039.177-.075.277-.11.054-.018.112-.038.17-.054s.094-.029.141-.04.065-.017.094-.025a.188.188,0,0,1,.037-.009c.045-.012.092-.022.139-.033.182-.04.38-.072.59-.1.1-.013.21-.025.321-.031.062-.006.127-.009.193-.013.05,0,.1-.005.149-.007.131,0,.268-.005.408,0l.151,0,.14,0a11.343,11.343,0,0,1,1.182.111c1.829.265,3.739,1.112,4.237,1.863s.386,2.313.148,3.651a6.184,6.184,0,0,1-.231.9c-.006.022-.016.046-.024.07s-.021.06-.033.091-.014.04-.023.061c-.014.037-.029.072-.045.108-.031.075-.064.148-.1.222s-.061.126-.095.188c-.012.023-.025.046-.037.067-.023.04-.048.085-.075.128s-.044.072-.069.11a.108.108,0,0,1-.01.018,4.016,4.016,0,0,1-3.808,1.739,4.5,4.5,0,0,1-1.919-.461c-1.818-.923-2.282-2.966-2.5-3.913C147,92.694,146.647,90.311,147.19,89.788Z" transform="translate(-144.749 -87.707)" fill="#263238"/>
          </g>
          <path id="Trazado_106886" data-name="Trazado 106886" d="M162.093,93.434l-.272,10-5.582-1.611,5.2-8.473A1.445,1.445,0,0,1,162.093,93.434Z" transform="translate(-147.299 -86.151)" fill="#874c4c"/>
        </g>
      </g>
    </g>
    <g id="Speech_Bubble" data-name="Speech Bubble" transform="translate(179.602 30.191)">
      <g id="Speech_Bubble-2" data-name="Speech Bubble">
        <ellipse id="Elipse_4644" data-name="Elipse 4644" cx="28.828" cy="25.25" rx="28.828" ry="25.25" transform="translate(2.608)" fill="#fb8c00"/>
        <path id="Trazado_106887" data-name="Trazado 106887" d="M232.042,81.406c-.158,3.388-3.021,9.44-8.2,11.641a.356.356,0,0,0,.059.68,15.542,15.542,0,0,0,15.951-6.041Z" transform="translate(-223.618 -41.558)" fill="#fb8c00"/>
      </g>
      <g id="Grupo_72191" data-name="Grupo 72191" transform="translate(11.83 15.019)">
        <path id="Trazado_106888" data-name="Trazado 106888" d="M238.883,57.721a9.2,9.2,0,0,1,.744-3.2,7.658,7.658,0,0,1,1.852-2.61,8.909,8.909,0,0,1,2.914-1.761,12.3,12.3,0,0,1,7.908,0,8.9,8.9,0,0,1,2.929,1.761,7.689,7.689,0,0,1,1.852,2.61,9.234,9.234,0,0,1,.744,3.2q.06,1.3.061,2.731t-.061,2.672a9.225,9.225,0,0,1-.744,3.2,7.85,7.85,0,0,1-1.852,2.626,8.556,8.556,0,0,1-2.929,1.762,12.586,12.586,0,0,1-7.908,0,8.567,8.567,0,0,1-2.914-1.762,7.817,7.817,0,0,1-1.852-2.626,9.189,9.189,0,0,1-.744-3.2q-.062-1.245-.061-2.672T238.883,57.721Zm13.327,5.252q.029-.547.061-1.215t.03-1.366q0-.7-.03-1.351c-.021-.436-.041-.825-.061-1.169a4.751,4.751,0,0,0-.318-1.4,3.336,3.336,0,0,0-.729-1.109,3.371,3.371,0,0,0-1.169-.743,5.041,5.041,0,0,0-3.278,0,3.378,3.378,0,0,0-1.169.743,3.3,3.3,0,0,0-.727,1.109,4.656,4.656,0,0,0-.319,1.4c-.041.345-.066.734-.076,1.169s-.016.885-.016,1.351,0,.921.016,1.366.035.85.076,1.215a4.066,4.066,0,0,0,1.047,2.519,3.645,3.645,0,0,0,2.809,1,3.6,3.6,0,0,0,2.793-1A4.268,4.268,0,0,0,252.209,62.973Z" transform="translate(-238.822 -49.494)" fill="#fafafa"/>
        <path id="Trazado_106889" data-name="Trazado 106889" d="M285.813,70.132a.545.545,0,0,1,.091.334.674.674,0,0,1-.668.668h-4.828a1.234,1.234,0,0,1-.7-.182,2.56,2.56,0,0,1-.546-.516l-5.737-7.225v7.1a.83.83,0,0,1-.82.819H268.63a.828.828,0,0,1-.819-.819V50.7a.829.829,0,0,1,.819-.82h3.977a.832.832,0,0,1,.82.82v6.405l5.343-6.558q.152-.182.395-.424a1.133,1.133,0,0,1,.82-.244h4.735a.673.673,0,0,1,.668.668.546.546,0,0,1-.091.335l-7.5,9.167Z" transform="translate(-245.256 -49.581)" fill="#fafafa"/>
      </g>
    </g>
    <g id="Like_icon" data-name="Like icon" transform="translate(277.902 59.456)">
      <path id="Trazado_106890" data-name="Trazado 106890" d="M357.472,90.321l-4.36,1.313L349.957,81.11,354.31,79.8Z" transform="translate(-349.957 -70.465)" fill="#e0e0e0"/>
      <path id="Trazado_106891" data-name="Trazado 106891" d="M372.775,78.312a2.022,2.022,0,0,1-1.236,2.037,3.031,3.031,0,0,1,.612,1.113c.251.815-.415,1.911-1.726,2.3s-9.983,3-9.983,3L357.5,76.992H357.5s1.695-4.324,1.777-4.974c.1-.64-.914-3.049-1.05-3.5-.111-.369,1.478-1.039,2.756-.524a2.224,2.224,0,0,1,.815.563,6.92,6.92,0,0,1,1.145,1.64,5.941,5.941,0,0,1,.608,2.76l6.032-1.814a1.872,1.872,0,0,1,1.291.04,1.758,1.758,0,0,1,1,1.056,1.793,1.793,0,0,1-.513,1.822A1.606,1.606,0,0,1,373,75.165a1.786,1.786,0,0,1-1,2.022A1.891,1.891,0,0,1,372.775,78.312Z" transform="translate(-351.63 -67.803)" fill="#e0e0e0"/>
    </g>
    <g id="Like_icon-2" data-name="Like icon" transform="translate(342.372 166.777)">
      <path id="Trazado_106892" data-name="Trazado 106892" d="M438.409,229.381l-5.594-1.345,3.26-13.493,5.587,1.341Z" transform="translate(-432.815 -207.69)" fill="#e0e0e0"/>
      <path id="Trazado_106893" data-name="Trazado 106893" d="M461.4,225.908a2.554,2.554,0,0,1-2.647,1.435,3.82,3.82,0,0,1-.042,1.606c-.245,1.048-1.67,1.82-3.349,1.411s-12.806-3.081-12.806-3.081l3.021-12.537-.007-.005s4.6-3.639,5.107-4.3c.516-.636.945-3.91,1.085-4.491.114-.473,2.274-.193,3.341,1.183a2.818,2.818,0,0,1,.53,1.134,8.752,8.752,0,0,1,.2,2.519,7.5,7.5,0,0,1-1.094,3.4l7.736,1.862a2.375,2.375,0,0,1,1.383.867,2.221,2.221,0,0,1,.412,1.786,2.263,2.263,0,0,1-1.72,1.661,2.029,2.029,0,0,1,1.095,2.259,2.256,2.256,0,0,1-2.374,1.572A2.389,2.389,0,0,1,461.4,225.908Z" transform="translate(-434.976 -205.736)" fill="#e0e0e0"/>
    </g>
    <g id="Like_icon-3" data-name="Like icon" transform="translate(45.904 152.588)">
      <path id="Trazado_106894" data-name="Trazado 106894" d="M76.823,219.033l6.106,1.838,4.419-14.737-6.1-1.838Z" transform="translate(-57.34 -191.228)" fill="#e0e0e0"/>
      <path id="Trazado_106895" data-name="Trazado 106895" d="M52.18,202.216a2.833,2.833,0,0,0,1.732,2.852,4.234,4.234,0,0,0-.857,1.56c-.351,1.141.581,2.676,2.417,3.222s13.98,4.206,13.98,4.206l4.114-13.688.009,0s-2.372-6.055-2.488-6.965c-.138-.9,1.281-4.27,1.471-4.9.156-.517-2.069-1.455-3.859-.734a3.116,3.116,0,0,0-1.141.788,9.689,9.689,0,0,0-1.6,2.3,8.331,8.331,0,0,0-.852,3.865l-8.445-2.541a2.632,2.632,0,0,0-1.808.057,2.467,2.467,0,0,0-1.394,1.479,2.507,2.507,0,0,0,.719,2.551,2.25,2.25,0,0,0-2.311,1.551,2.5,2.5,0,0,0,1.394,2.831A2.65,2.65,0,0,0,52.18,202.216Z" transform="translate(-51.783 -187.501)" fill="#e0e0e0"/>
    </g>
  </g>
</svg>
