<svg xmlns="http://www.w3.org/2000/svg" width="83" height="80" viewBox="0 0 83 80">
  <g id="Grupo_71695" data-name="Grupo 71695" transform="translate(-759 -2192)">
    <rect id="Rectángulo_32118" data-name="Rectángulo 32118" width="83" height="80" transform="translate(759 2192)" fill="none"/>
    <g id="Grupo_71695-2" data-name="Grupo 71695" transform="translate(274.556 1856.287)">
      <path id="Trazado_105999" data-name="Trazado 105999" d="M581.527,408.07a8.148,8.148,0,0,0-2.972-6.192,1.521,1.521,0,0,1-.616-1.309q.026-12.8.012-25.607a15.594,15.594,0,0,0-15.735-15.7,2.723,2.723,0,0,1-1.283-.181c-.809-.468-1.543-1.065-2.35-1.641.262-.976.542-2.005.813-3.037.306-1.165.021-1.65-1.147-1.969-1-.273-2-.54-3.05-.823.264-.978.469-1.9.775-2.788a1.817,1.817,0,0,1,.719-.912,6.188,6.188,0,0,0,2.808-3.268c.421-1.154.127-1.741-1.054-2.058q-5.4-1.45-10.8-2.881c-1.195-.317-1.768.08-1.951,1.322a5.982,5.982,0,0,0,.919,4.275.917.917,0,0,1,.2.59c-.26,1.08-.568,2.149-.867,3.251-1.1-.294-2.131-.573-3.163-.842s-1.553.018-1.832,1.058q-3.02,11.266-6.029,22.535c-.269,1.007.012,1.482,1.018,1.774.662.192,1.328.371,2.046.571-.3,1.142-.584,2.217-.857,3.3a1.184,1.184,0,0,0,.922,1.643c.324.1.65.2,1.009.312-.291,1.091-.571,2.121-.838,3.154s.024,1.536,1.062,1.821c1.246.342,2.5.665,3.744,1,1.409.38,1.829.139,2.2-1.265.252-.951.508-1.9.766-2.863.241.054.386.082.529.119,1.494.395,1.85.195,2.251-1.276.258-.946.51-1.893.756-2.808a1.6,1.6,0,0,1,.191,0q.866.222,1.732.446c1.2.312,1.653.056,1.972-1.124.277-1.026.546-2.053.809-3.044a.936.936,0,0,1,.21-.059,8.525,8.525,0,0,0,6.39-2.17.768.768,0,0,1,.386-.2c3.305-.4,4.818,1.663,4.8,3.916-.05,5.574-.017,11.149-.017,16.723v.815H554.057c0-.254,0-.472,0-.691-.01-1.312-.364-1.659-1.7-1.66q-10.265,0-20.531,0c-1.309,0-1.661.361-1.662,1.7q0,1.9,0,3.807c0,1.308.363,1.663,1.7,1.663h18.216c.821,0,1.642,0,2.464,0,1.107-.007,1.507-.417,1.516-1.546,0-.264,0-.527,0-.8h11.915v4.741h-.977q-20.269,0-40.539,0a8.42,8.42,0,0,0-7.977,5.123,11.9,11.9,0,0,0-.654,4.913c.016,1.63.281,1.909,1.9,1.909h61.891c.174,0,.348,0,.522,0,.934-.022,1.376-.447,1.391-1.37C581.544,409.663,581.555,408.866,581.527,408.07Zm-24.764-63.453a3.329,3.329,0,0,1-3.579,1.5,23.4,23.4,0,0,1-2.794-.762,3.484,3.484,0,0,1-2.36-3.065Zm-3.268,4.05-.612,2.321-4.613-1.221.626-2.324ZM543.067,383l-2.3-.628.625-2.295,2.283.613Zm3.541-4-6.907-1.85.613-2.3,6.917,1.846C547.016,377.482,546.819,378.211,546.607,379Zm4.707-3.7-13.851-3.694,5.567-20.777,13.833,3.711-.612,2.368a8.574,8.574,0,0,0-6.684,2.217,8.176,8.176,0,0,0-2.481,4.333q-1.274,5.679,4.848,9.519Zm3.927-4.093a5.972,5.972,0,1,1,5.984-5.982A5.98,5.98,0,0,1,555.241,371.208ZM551.63,395.05H532.6v-2.293H551.63Zm11.5-26.16a2.376,2.376,0,0,1-.3-.12,8.449,8.449,0,0,0,.005-7.089,12.8,12.8,0,0,1,7.595,2.724,12.61,12.61,0,0,1,5.108,10.169c.068,8.359.022,16.718.021,25.078a2.744,2.744,0,0,1-.029.354h-7.137V375.477C568.393,371.755,566.767,369.72,563.134,368.889Zm15.965,40.5H518.26c-.3-3.757,1.68-6.488,5.082-7.047a8.3,8.3,0,0,1,1.339-.067q24,0,48,0C576.89,402.273,579.458,405.1,579.1,409.389Z" transform="translate(-19.65)" fill="#fb8c00"/>
      <path id="Trazado_106000" data-name="Trazado 106000" d="M502.15,371.15q0,7.279,0,14.559a3.565,3.565,0,0,0,3.7,3.731c3.036.013,6.072.006,9.109,0,.954,0,1.5-.427,1.518-1.164.02-.766-.544-1.222-1.533-1.223q-4.368,0-8.735,0c-1.314,0-1.671-.361-1.671-1.689q0-7.167,0-14.335c0-.24.023-.48.035-.711A14.363,14.363,0,1,0,489.2,353.636a13.791,13.791,0,0,0,1.919,9.812A14.3,14.3,0,0,0,502.15,370.3ZM491.4,355.928a11.945,11.945,0,1,1,11.845,12.01A11.958,11.958,0,0,1,491.4,355.928Z" transform="translate(0 -1.507)" fill="#fb8c00"/>
      <path id="Trazado_106001" data-name="Trazado 106001" d="M653.4,422.076a3.58,3.58,0,1,0,3.615,3.583A3.594,3.594,0,0,0,653.4,422.076Zm-.006,4.769a1.19,1.19,0,1,1,1.229-1.131A1.2,1.2,0,0,1,653.392,426.844Z" transform="translate(-117.831 -60.417)" fill="#fb8c00"/>
      <path id="Trazado_106002" data-name="Trazado 106002" d="M520.89,380.64c.79-.035,1.406-.719,1.154-1.386a4.842,4.842,0,0,0-.95-1.184c-.254-1.117-.242-1.09.6-1.471.825-.372.872.491,1.337.708-.083.188-.149.319-.2.455a1.108,1.108,0,0,0,.4,1.389,1.076,1.076,0,0,0,1.443-.045,24.783,24.783,0,0,0,1.846-1.844,1.077,1.077,0,0,0,.047-1.443,1.027,1.027,0,0,0-1.379-.389c-.563.31-.726-.147-1.035-.38-.338-.255-.2-.506-.125-.84.224-1,.948-.7,1.585-.709.057.152.1.292.162.424a1.118,1.118,0,0,0,1.324.716,1.131,1.131,0,0,0,.957-1.169c.018-.8.021-1.592,0-2.388a1.184,1.184,0,0,0-2.287-.418c-.058.131-.107.267-.17.427a2.369,2.369,0,0,1-.673-.013c-.262-.082-.618-.2-.715-.4-.152-.322-.614-.7-.1-1.108.318-.25.485-.756,1.09-.421a1.022,1.022,0,0,0,1.372-.407,1.051,1.051,0,0,0-.026-1.382,23.179,23.179,0,0,0-1.956-1.941.937.937,0,0,0-1.356.035,3.058,3.058,0,0,0-.413,1.311c-.029.138.116.313.177.461-.831,1.011-.831,1.011-2.082.387v-1.247c.113-.038.207-.067.3-.1a1.14,1.14,0,0,0,.844-1.321,1.159,1.159,0,0,0-1.271-1.016,14.479,14.479,0,0,0-2.307.038,1.561,1.561,0,0,0-1.041.766,1.647,1.647,0,0,0,.245,1.2c.128.235.517.328.786.483.107.715.146,1.316-.794,1.593-.812.239-.832-.529-1.307-.717.084-.2.154-.358.212-.517a1.1,1.1,0,0,0-.384-1.331,1.064,1.064,0,0,0-1.442,0,22.315,22.315,0,0,0-1.9,1.9,1.065,1.065,0,0,0,0,1.442,1.094,1.094,0,0,0,1.33.384c.159-.058.314-.129.457-.188,1.194,1.091.987.656.373,2.082h-1.249c-.188-.724-.571-1.217-1.357-1.145a1.08,1.08,0,0,0-1.053,1.071,24.266,24.266,0,0,0,0,2.61,1.091,1.091,0,0,0,.994,1.052,1.113,1.113,0,0,0,1.231-.643c.088-.167.153-.347.221-.506h1.217c.626,1.253.626,1.253-.377,2.079-.062-.019-.135-.034-.2-.062-.737-.3-1.31-.2-1.64.34a1.2,1.2,0,0,0,.256,1.614c.511.509,1.012,1.029,1.534,1.526a1.141,1.141,0,0,0,1.559.162,1.048,1.048,0,0,0,.389-1.441c-.3-.548.138-.729.4-.948a1.068,1.068,0,0,1,.742-.162c1.006.126.862.868.784,1.58-.055.026-.116.059-.18.085-.731.3-1.072.792-.957,1.391a1.248,1.248,0,0,0,1.386.98C519.447,380.655,520.17,380.671,520.89,380.64Zm-3.569-8.4a2.386,2.386,0,1,1,2.322,2.431A2.4,2.4,0,0,1,517.321,372.242Z" transform="translate(-16.363 -17.801)" fill="#fb8c00"/>
    </g>
  </g>
</svg>
