<svg xmlns="http://www.w3.org/2000/svg" width="47" height="46" viewBox="0 0 47 46">
  <g id="Grupo_71678" data-name="Grupo 71678" transform="translate(-622 -990)">
    <g id="Grupo_71676" data-name="Grupo 71676" transform="translate(-1233.396 847.195)">
      <path id="Trazado_105909" data-name="Trazado 105909" d="M1901.4,166.667a1.109,1.109,0,0,1-.994.4c-.873-.018-1.747-.005-2.661-.005a18.818,18.818,0,0,1-18.092,18.086c0,.712,0,1.406,0,2.1,0,.292.011.584-.007.875a.65.65,0,1,1-1.3-.008c-.017-.846-.007-1.692-.009-2.538,0-.13,0-.259,0-.428a18.821,18.821,0,0,1-18.092-18.088h-1.575c-.452,0-.9.011-1.356-.007a.658.658,0,0,1-.72-.659.648.648,0,0,1,.729-.643c.8-.011,1.6,0,2.407,0h.475c.109-.872.186-1.71.321-2.538a18.239,18.239,0,0,1,3.268-7.786.664.664,0,0,1,.973-.255c.338.233.378.616.079,1.034a16.99,16.99,0,0,0-2.949,6.8c-.166.883-.251,1.782-.379,2.714h2.294a15.362,15.362,0,0,1,14.5-14.505V148.96c-.714.077-1.422.119-2.118.235a17.216,17.216,0,0,0-9.434,4.787,1.443,1.443,0,0,1-.534.353.571.571,0,0,1-.7-.311.6.6,0,0,1,.137-.793c.705-.632,1.389-1.3,2.144-1.863a18.375,18.375,0,0,1,10.248-3.689c.071,0,.142-.012.281-.025v-1.565c0-.379.016-.759,0-1.137a1.026,1.026,0,0,1,.4-.951h.525a1.067,1.067,0,0,1,.4,1c-.021.407,0,.816,0,1.225v1.436c.153.012.238.02.324.025a18.38,18.38,0,0,1,10.2,3.684c.721.54,1.383,1.162,2.048,1.772a.616.616,0,0,1,.019.934.668.668,0,0,1-.911.008c-.068-.054-.13-.117-.193-.178a17.1,17.1,0,0,0-8.817-4.61c-.864-.167-1.747-.236-2.636-.353v2.309a15.253,15.253,0,0,1,14.465,14.482h2.313c-.124-.924-.2-1.821-.37-2.7a17,17,0,0,0-3.045-6.943c-.3-.417-.272-.8.063-1.036a.668.668,0,0,1,.978.243,18.236,18.236,0,0,1,3.365,7.881c.141.841.216,1.694.327,2.58.888,0,1.775.014,2.662-.007a1.062,1.062,0,0,1,.953.395Zm-8.564-.263a13.84,13.84,0,1,0-13.863,13.841A13.837,13.837,0,0,0,1892.833,166.4Zm-31.21.687a17.292,17.292,0,0,0,16.677,16.681v-2.108c-8.574-1.2-13.4-6.028-14.57-14.6-.563,0-1.188,0-1.813,0C1861.818,167.068,1861.72,167.082,1861.623,167.09Zm18.053,16.743a17.509,17.509,0,0,0,16.739-16.73h-2.163c-1.211,8.575-6.039,13.4-14.577,14.557Z" transform="translate(0)" fill="#fb8c00"/>
      <path id="Trazado_105910" data-name="Trazado 105910" d="M2005.943,286.5h3.568a3.3,3.3,0,0,1,.436.015.6.6,0,0,1,.561.62.579.579,0,0,1-.531.642,9.76,9.76,0,0,1-1.091.034c-.975,0-1.949,0-2.943,0a6.412,6.412,0,0,1-5.593,5.588c0,.322,0,.653,0,.984,0,.933.005,1.866,0,2.8,0,.486-.251.777-.635.79s-.669-.292-.672-.8c-.008-1.093,0-2.187,0-3.28,0-.158,0-.317,0-.5a6.414,6.414,0,0,1-5.592-5.589h-.982c-.933,0-1.866.007-2.8,0-.5-.006-.808-.283-.794-.679s.306-.625.792-.628c1.253-.005,2.505,0,3.78,0a6.4,6.4,0,0,1,5.594-5.6c0-1.113,0-2.218,0-3.323,0-.2-.008-.409.01-.612a.653.653,0,0,1,.648-.637.639.639,0,0,1,.641.642c.023.641.012,1.283.013,1.924s0,1.311,0,2A6.406,6.406,0,0,1,2005.943,286.5Zm-11.1,0h.466c.7,0,1.4-.007,2.1.009a.594.594,0,0,1,.629.6.614.614,0,0,1-.583.686,4.7,4.7,0,0,1-.611.02c-.667,0-1.333,0-2,0,.185,2.121,2.337,4.244,4.2,4.154,0-.17,0-.343,0-.515,0-.671-.011-1.342.013-2.012a.609.609,0,0,1,.639-.635.62.62,0,0,1,.651.624c.019.188.01.379.011.568q0,1,0,2c2.084-.14,4.21-2.284,4.163-4.186-.375,0-.751,0-1.128,0-.5,0-.993.011-1.485-.031a.575.575,0,0,1-.55-.664.588.588,0,0,1,.574-.6,4.532,4.532,0,0,1,.524-.013q1.043,0,2.087,0a4.771,4.771,0,0,0-4.185-4.187c0,.158,0,.314,0,.471,0,.671.01,1.342-.007,2.013a.651.651,0,1,1-1.3.01c-.018-.481-.006-.962-.007-1.444,0-.357,0-.713,0-1.078A4.842,4.842,0,0,0,1994.843,286.5Z" transform="translate(-120.701 -120.749)" fill="#fb8c00"/>
      <path id="Trazado_105911" data-name="Trazado 105911" d="M2057.085,348.62a4.841,4.841,0,0,1,4.194-4.215c0,.364,0,.721,0,1.078,0,.481-.011.963.007,1.444a.651.651,0,1,0,1.3-.01c.017-.67.006-1.342.007-2.013,0-.156,0-.313,0-.471a4.771,4.771,0,0,1,4.186,4.187h-2.087a4.554,4.554,0,0,0-.524.013.588.588,0,0,0-.573.6.575.575,0,0,0,.55.664c.493.042.99.026,1.485.031.377,0,.753,0,1.129,0,.046,1.9-2.08,4.046-4.164,4.186q0-1,0-2c0-.19.008-.38-.011-.568a.62.62,0,0,0-.651-.624.609.609,0,0,0-.638.635c-.023.67-.011,1.342-.013,2.012,0,.172,0,.345,0,.515-1.861.09-4.013-2.033-4.2-4.154.67,0,1.337,0,2,0a4.707,4.707,0,0,0,.611-.02.614.614,0,0,0,.583-.686.594.594,0,0,0-.628-.6c-.7-.017-1.4-.008-2.1-.009Z" transform="translate(-182.943 -182.866)" fill="#b2ebf2"/>
    </g>
    <rect id="Rectángulo_32110" data-name="Rectángulo 32110" width="47" height="46" transform="translate(622 990)" fill="none"/>
  </g>
</svg>
