<svg xmlns="http://www.w3.org/2000/svg" width="47" height="46" viewBox="0 0 47 46">
  <g id="Grupo_71679" data-name="Grupo 71679" transform="translate(-312 -988)">
    <g id="Grupo_71677" data-name="Grupo 71677" transform="translate(1.711 1.675)">
      <g id="Grupo_71675" data-name="Grupo 71675" transform="translate(316.335 988)">
        <path id="Trazado_105895" data-name="Trazado 105895" d="M1127.64,77c.059.136.192.076.29.1a3.64,3.64,0,0,1,2.586,2.465c.1.307.238.361.52.361q8.092-.01,16.183-.005a3.636,3.636,0,0,1,3.887,2.961.488.488,0,0,0,.317.336c1.012.5,2.027,1.005,3.037,1.516a3.808,3.808,0,0,1,2.132,4.4q-2.674,13.341-5.326,26.685a7.078,7.078,0,0,1-.731,2.3.591.591,0,0,0-.048.19c-.044-.145-.052-.153-.173-.024a3.708,3.708,0,0,1-1.786,1.075,4.331,4.331,0,0,1-1.107.135q-13.05,0-26.1,0a3.621,3.621,0,0,1-3.808-3.8q0-15.976,0-31.951a3.653,3.653,0,0,1,2.756-3.682c.141-.042.25-.084.292-.246a3.659,3.659,0,0,1,2.768-2.739c.031-.009.053-.053.079-.081Zm23.588,9.893c0,.1-.013.193-.013.289q0,10.306,0,20.611c0,.1-.042.22.055.336.674-3.375,1.348-6.728,2.013-10.082q.9-4.546,1.794-9.1a2.126,2.126,0,0,0-.734-2.551,25.481,25.481,0,0,0-3.118-1.624Zm-1.486,12.832q0-7.989,0-15.979a2.153,2.153,0,0,0-2.348-2.348q-8.155,0-16.311-.009c-.308,0-.389.071-.387.384.015,2.255.008,4.51.008,6.765s.018,4.51-.005,6.765a3.671,3.671,0,1,1-7.335-.207c.028-3.749.008-7.5.009-11.247a2.689,2.689,0,0,1,.018-.373.662.662,0,0,1,.754-.6.654.654,0,0,1,.679.64c.014.151.007.3.007.456q0,5.6,0,11.206a2.181,2.181,0,0,0,.956,1.96,2.15,2.15,0,0,0,2.284.124,2.031,2.031,0,0,0,1.153-1.919q.011-5.6,0-11.206c0-.816,0-1.632,0-2.449,0-.195-.021-.3-.261-.295-2.642.01-5.285,0-7.927.016a2.09,2.09,0,0,0-1.965,1.517,3.2,3.2,0,0,0-.094.986q0,15.813,0,31.625c0,.138,0,.277.007.415a2.109,2.109,0,0,0,2.112,2.07c.65.018,1.3-.006,1.95.011.254.007.334-.071.327-.326-.017-.594-.013-1.19,0-1.784.01-.539.266-.816.728-.816s.721.283.726.814c.006.595.013,1.19,0,1.784-.007.252.066.33.323.329q3.341-.014,6.682,0c.286,0,.344-.1.337-.356q-.024-.892,0-1.784c.014-.524.3-.8.758-.787.445.015.69.292.7.8.006.346,0,.692,0,1.038s-.111.8.063,1c.2.238.676.043,1.027.086.309.038.4-.066.393-.383-.018-1.563-.012-3.127-.005-4.69a.7.7,0,0,1,.922-.756c.429.1.536.431.536.824,0,1.3-.005,2.6,0,3.9,0,.354-.156.816.072,1.034s.687.036,1.041.07c.264.025.362-.053.35-.335-.023-.552-.008-1.106-.006-1.66,0-.627.25-.935.746-.929s.728.312.73.948c0,.539.018,1.08-.007,1.618-.014.3.085.363.37.362,2.532-.011,5.063,0,7.595-.009a2.73,2.73,0,0,0,.657-.066,2.135,2.135,0,0,0,1.628-2.3Q1149.745,107.693,1149.742,99.725Zm-27.635-19.836c.011.007.021.019.032.019q3.356.009,6.712.019c.236,0,.205-.1.128-.251a1.923,1.923,0,0,0-1.64-1.17c-1.185-.054-2.376-.046-3.562,0A1.9,1.9,0,0,0,1122.108,79.889Z" transform="translate(-1117.509 -77)" fill="#fb8c00"/>
        <path id="Trazado_105896" data-name="Trazado 105896" d="M1527.354,198.239q-.9,4.548-1.794,9.1c-.666,3.354-1.339,6.706-2.013,10.082-.1-.116-.055-.232-.055-.336q0-10.306,0-20.611c0-.1.008-.193.013-.29q1.522.746,3.043,1.494A2.573,2.573,0,0,1,1527.354,198.239Z" transform="translate(-1489.783 -186.287)" fill="#b2ebf2"/>
        <path id="Trazado_105897" data-name="Trazado 105897" d="M1196.3,394.854q3.606,0,7.213,0c.624,0,.956.411.793.953a.617.617,0,0,1-.556.481,4.571,4.571,0,0,1-.5.022h-13.929a4.064,4.064,0,0,1-.455-.015.667.667,0,0,1-.636-.763.646.646,0,0,1,.687-.673c1.078-.013,2.156-.006,3.233-.006Z" transform="translate(-1182.362 -368.468)" fill="#fb8c00"/>
        <path id="Trazado_105898" data-name="Trazado 105898" d="M1334.5,430.053c1.424,0,2.848,0,4.272,0,.54,0,.812.249.819.719s-.265.745-.79.751c-.885.01-1.77,0-2.655,0q-2.966,0-5.932,0c-.5,0-.777-.19-.851-.558a.72.72,0,0,1,.78-.912C1331.6,430.048,1333.05,430.053,1334.5,430.053Z" transform="translate(-1311.76 -400.745)" fill="#fb8c00"/>
        <path id="Trazado_105899" data-name="Trazado 105899" d="M1334.564,182.953q2.136,0,4.272,0c.575,0,.853.239.857.72s-.271.746-.838.748q-4.272.009-8.544,0c-.591,0-.873-.271-.857-.771.015-.475.29-.7.88-.7Q1332.449,182.951,1334.564,182.953Z" transform="translate(-1311.86 -174.157)" fill="#fb8c00"/>
        <path id="Trazado_105900" data-name="Trazado 105900" d="M1193.323,430.062q2.136,0,4.273,0c.6,0,.885.249.88.744,0,.476-.291.727-.859.728q-4.273,0-8.545,0c-.562,0-.842-.262-.837-.747s.286-.723.857-.724Q1191.208,430.059,1193.323,430.062Z" transform="translate(-1182.364 -400.754)" fill="#fb8c00"/>
        <path id="Trazado_105901" data-name="Trazado 105901" d="M1334.556,288.889c1.452,0,2.9,0,4.355,0a.7.7,0,0,1,.77.874.605.605,0,0,1-.492.545,2.549,2.549,0,0,1-.535.044q-4.085,0-8.17,0a3.022,3.022,0,0,1-.372-.015.675.675,0,0,1-.659-.749.661.661,0,0,1,.708-.7c.608-.013,1.216,0,1.825,0Z" transform="translate(-1311.859 -271.298)" fill="#fb8c00"/>
        <path id="Trazado_105902" data-name="Trazado 105902" d="M1334.579,360.865q-2.136,0-4.271,0c-.577,0-.853-.237-.857-.718s.267-.743.84-.744q4.292-.01,8.585,0c.561,0,.83.277.814.767-.015.463-.286.693-.839.694C1337.427,360.867,1336,360.865,1334.579,360.865Z" transform="translate(-1311.857 -335.956)" fill="#fb8c00"/>
        <path id="Trazado_105903" data-name="Trazado 105903" d="M1334.391,255.013c-1.451,0-2.9.005-4.354,0a.718.718,0,0,1-.735-1c.146-.393.476-.457.844-.456,1.341,0,2.682,0,4.022,0,1.493,0,2.986,0,4.478,0,.584,0,.853.239.857.721s-.267.731-.8.733C1337.266,255.016,1335.829,255.013,1334.391,255.013Z" transform="translate(-1311.67 -238.898)" fill="#fb8c00"/>
        <path id="Trazado_105904" data-name="Trazado 105904" d="M1331.614,219.582c-.469,0-.938.009-1.407,0a.733.733,0,1,1-.023-1.465q1.469-.024,2.938,0a.732.732,0,1,1-.018,1.464C1332.608,219.592,1332.111,219.581,1331.614,219.582Z" transform="translate(-1311.861 -206.389)" fill="#fb8c00"/>
        <path id="Trazado_105905" data-name="Trazado 105905" d="M1402.177,219.6c-.469,0-.938.007-1.407,0a.736.736,0,1,1,0-1.469q1.407-.016,2.814,0a.689.689,0,0,1,.781.756c-.009.452-.278.7-.781.713C1403.114,219.6,1402.645,219.6,1402.177,219.6Z" transform="translate(-1376.532 -206.403)" fill="#fb8c00"/>
        <path id="Trazado_105906" data-name="Trazado 105906" d="M1331.632,325.542c-.469,0-.938.009-1.407,0a.735.735,0,1,1-.007-1.468q1.427-.017,2.856,0a.735.735,0,1,1,.007,1.468C1332.6,325.552,1332.115,325.542,1331.632,325.542Z" transform="translate(-1311.865 -303.555)" fill="#fb8c00"/>
        <path id="Trazado_105907" data-name="Trazado 105907" d="M1402.149,324.091c.469,0,.938-.005,1.407,0,.534.008.808.257.814.723s-.266.743-.789.747q-1.407.013-2.814,0a.7.7,0,0,1-.781-.722c-.007-.458.284-.738.8-.748C1401.239,324.084,1401.694,324.091,1402.149,324.091Z" transform="translate(-1376.537 -303.578)" fill="#fb8c00"/>
        <path id="Trazado_105908" data-name="Trazado 105908" d="M1402.193,394.851c.484,0,.969-.009,1.453,0a.721.721,0,0,1,.045,1.44q-1.514.029-3.029,0a.66.66,0,0,1-.673-.734.677.677,0,0,1,.711-.7C1401.2,394.841,1401.695,394.851,1402.193,394.851Z" transform="translate(-1376.539 -368.463)" fill="#fb8c00"/>
      </g>
      <rect id="Rect치ngulo_32109" data-name="Rect치ngulo 32109" width="43" height="42" transform="translate(312.289 988.325)" fill="none"/>
    </g>
    <rect id="Rect치ngulo_32111" data-name="Rect치ngulo 32111" width="47" height="46" transform="translate(312 988)" fill="none"/>
  </g>
</svg>
