<svg xmlns="http://www.w3.org/2000/svg" width="83" height="80" viewBox="0 0 83 80">
  <g id="Grupo_71693" data-name="Grupo 71693" transform="translate(-1179 -1714)">
    <rect id="Rectángulo_32116" data-name="Rectángulo 32116" width="83" height="80" transform="translate(1179 1714)" fill="none"/>
    <g id="Grupo_71693-2" data-name="Grupo 71693" transform="translate(636.711 1665.861)">
      <path id="Trazado_105966" data-name="Trazado 105966" d="M622.159,88.91a7.452,7.452,0,0,1-2.808,3.6.716.716,0,0,0-.253.941,4.369,4.369,0,0,1-4.269,5.972c-3.679.013-7.357,0-11.036,0h-.878c.112.568.25,1.07.306,1.581a7.78,7.78,0,0,1-.42,3.543,1.078,1.078,0,0,0,.116.853,7.251,7.251,0,0,1-3.31,11.118,1.249,1.249,0,0,0-.607.7,4.486,4.486,0,0,1-2.687,2.94,1.128,1.128,0,1,1-.891-2.06,2.174,2.174,0,0,0,1.168-3.153,12.808,12.808,0,0,0-4.609-5.6.946.946,0,0,0-1.016-.118,19.39,19.39,0,0,1-14.56,0,1.088,1.088,0,0,0-.861.1,12.345,12.345,0,0,0-4.634,5.475c-.862,1.979.061,3.4,2.208,3.4q8.333.007,16.666,0a3.455,3.455,0,0,1,.82.045,1.109,1.109,0,0,1-.119,2.188,4.674,4.674,0,0,1-.6.017q-8.37,0-16.741,0a4.435,4.435,0,0,1-4.744-3.431.981.981,0,0,0-.536-.5,7.232,7.232,0,0,1-3.315-11.15c.115-.167.259-.44.2-.584a7.743,7.743,0,0,1-.183-5.367h-.875q-3.753,0-7.507,0c-.92,0-1.454-.439-1.431-1.154.022-.686.538-1.094,1.423-1.095q4.392-.008,8.784,0h.934a15.88,15.88,0,0,1,.289-7.628c-1.414,0-2.759.042-4.1-.009a18.507,18.507,0,0,1-5.9-1.313,1.174,1.174,0,0,0-.927.089,12.332,12.332,0,0,0-4.626,5.481,2.218,2.218,0,0,0,.591,3.021,1.133,1.133,0,0,1,.2,1.605,1.148,1.148,0,0,1-1.672.091,4.412,4.412,0,0,1-1.378-5.127,14.684,14.684,0,0,1,4.355-6.009c.191-.16.384-.317.659-.544-.247-.175-.457-.327-.669-.475A16.111,16.111,0,0,1,545.6,75.9c-1.142-6.115.863-11.2,5.5-15.247,7.976-6.963,20.838-5.7,27.224,2.663a15.316,15.316,0,0,1,2.807,13.4c-.044.188-.083.377-.121.555h5.4c-.142-.761-.34-1.549-.429-2.348-.691-6.188,1.611-11.128,6.444-14.894a19.089,19.089,0,0,1,26.466,3.3,15.446,15.446,0,0,1,3.139,7.6,2.35,2.35,0,0,0,.132.417v3c-.171.828-.31,1.665-.52,2.483a16.3,16.3,0,0,1-3.311,6.326,19.819,19.819,0,0,0,1.768,1.652,5.242,5.242,0,0,1,2.064,2.753ZM577.671,66.386c-.567.2-1.055.391-1.557.538-5.415,1.584-10.662,1.412-15.632-1.532a1.985,1.985,0,0,0-1.992-.024,17.222,17.222,0,0,1-9.276,1.9c-.456-.054-.542.221-.667.529a13,13,0,0,0-.494,8.74c2.241,7.745,10.818,12.126,18.751,10.465a1.027,1.027,0,0,0,.6-.461,17.888,17.888,0,0,1,10.466-8.474,1.078,1.078,0,0,0,.619-.543A13.175,13.175,0,0,0,577.671,66.386ZM599.491,92c-.112-.046-.157-.08-.2-.08a9.032,9.032,0,0,1-7.144-3.376.887.887,0,0,0-.7-.21,10.268,10.268,0,0,1-7.159-1.6.917.917,0,0,0-1.134.007,10.341,10.341,0,0,1-7.163,1.6,1.029,1.029,0,0,0-.792.333,7.835,7.835,0,0,1-3.351,2.46c-1.228.44-2.528.679-3.916,1.037a12.693,12.693,0,0,0,2.028,8.968,15.518,15.518,0,0,0,12.535,7.181,15.914,15.914,0,0,0,14.221-6.09A12.957,12.957,0,0,0,599.491,92Zm-3.976-25.233c-2.134.656-4.174,1.3-6.228,1.9a.947.947,0,0,0-.755.773,13.458,13.458,0,0,0,.288,7.825,1.235,1.235,0,0,0,.893.871,16.6,16.6,0,0,1,9.4,7.038,4.048,4.048,0,0,0,3.743,2.156c5.593.211,10.351-1.561,13.947-5.914a12.908,12.908,0,0,0,2.627-11.963,1.062,1.062,0,0,0-.522-.684c-2.124-.692-4.264-1.332-6.415-1.992-.766,1.846-1.557,2.5-3.287,2.507-3.476.017-6.952,0-10.428.007a3.13,3.13,0,0,1-3.019-1.834A4.805,4.805,0,0,1,595.515,66.768Zm22.343-.429.119-.252c-2.338-4.319-8.135-8.224-15.416-7.62-5.4.448-11.59,4.3-12.575,7.951,1.769-.784,3.412-1.432,4.979-2.231,1.466-.748,2.7-.116,2.749,1.527.03,1.1.245,1.32,1.333,1.322q4.954.006,9.909,0c1.045,0,1.291-.246,1.316-1.264.043-1.744,1.26-2.342,2.826-1.535C614.637,65.03,616.268,65.645,617.858,66.339ZM598.866,89.67c-1.444-4.955-7.359-10.709-16.3-10.2-6.36.36-13.383,5.47-13.935,10.2a6.42,6.42,0,0,0,4.838-2.5,2.4,2.4,0,0,1,2.638-1.11,7.769,7.769,0,0,0,5.984-1.329,2.593,2.593,0,0,1,3.234-.012,7.826,7.826,0,0,0,6.055,1.335A2.413,2.413,0,0,1,594,87.207,6.431,6.431,0,0,0,598.866,89.67Zm2.691,7.463c.244.017.415.04.587.04q6.343,0,12.687,0a2.132,2.132,0,0,0,2.08-3.13,12.749,12.749,0,0,0-4.67-5.733.937.937,0,0,0-1.02-.1,17.036,17.036,0,0,1-5.82,1.322c-1.36.052-2.724.01-4.154.01A15.651,15.651,0,0,1,601.557,97.133Zm-25.13-32.661A16.585,16.585,0,0,0,561.9,58.479c-5.564.411-10.2,3.817-11.71,6.626.342,0,.662.016.98,0a15.674,15.674,0,0,0,6.041-1.633,4.839,4.839,0,0,1,4.893.235C566.659,66.242,571.415,66.12,576.427,64.472Zm-2.879,43.3A17.532,17.532,0,0,1,566.784,100a4.922,4.922,0,0,0,.016,3.8,2.485,2.485,0,0,1-.363,2.849,4.76,4.76,0,0,0-1.037,3.718,4.667,4.667,0,0,0,3.135,3.91,38.885,38.885,0,0,1,2.146-3.434C571.512,109.767,572.54,108.839,573.547,107.775Zm25.236,6.562a4.863,4.863,0,0,0,2.352-7.478,2.9,2.9,0,0,1-.437-3.248,4.412,4.412,0,0,0-.07-3.574,17.664,17.664,0,0,1-6.864,7.829A15.163,15.163,0,0,1,598.784,114.337ZM614.21,86.753l3.872,4.158c.444-.517.935-1.082,1.418-1.654a1.383,1.383,0,0,0,.021-1.964c-.893-.853-1.849-1.638-2.773-2.447Z" fill="#fb8c00"/>
      <path id="Trazado_105967" data-name="Trazado 105967" d="M573.7,89.616a4.294,4.294,0,0,1-3-1.382,1.116,1.116,0,0,1-.069-1.665,1.134,1.134,0,0,1,1.615.037c1.234,1.033,2.033,1.029,3.3-.017a1.131,1.131,0,0,1,1.614,0,1.115,1.115,0,0,1-.051,1.612A4.585,4.585,0,0,1,573.7,89.616Z" transform="translate(-10.439 -12.574)" fill="#fb8c00"/>
      <path id="Trazado_105968" data-name="Trazado 105968" d="M560.658,85.31c0,.3.021.6,0,.9a1.11,1.11,0,0,1-1.118,1.083,1.062,1.062,0,0,1-1.1-1.015,11.564,11.564,0,0,1,0-2.018,1.02,1.02,0,0,1,1.1-.994,1.041,1.041,0,0,1,1.1,1,7.841,7.841,0,0,1,.008,1.047Z" transform="translate(-5.471 -11.327)" fill="#fb8c00"/>
      <path id="Trazado_105969" data-name="Trazado 105969" d="M590.641,85.209a8.543,8.543,0,0,1,0-.9,1.045,1.045,0,0,1,1.059-1.045,1.011,1.011,0,0,1,1.146.944,10.152,10.152,0,0,1,.005,2.091,1.028,1.028,0,0,1-1.123.981,1.049,1.049,0,0,1-1.085-1.026A10.469,10.469,0,0,1,590.641,85.209Z" transform="translate(-18.934 -11.327)" fill="#fb8c00"/>
      <path id="Trazado_105970" data-name="Trazado 105970" d="M608.671,125.736a4.362,4.362,0,0,1-3.193-1.409,1.1,1.1,0,0,1-.066-1.607,1.134,1.134,0,0,1,1.612-.015c1.311,1.07,2,1.066,3.358-.021a1.144,1.144,0,0,1,1.56,0,1.09,1.09,0,0,1-.007,1.607A4.358,4.358,0,0,1,608.671,125.736Z" transform="translate(-24.973 -27.66)" fill="#fb8c00"/>
      <path id="Trazado_105971" data-name="Trazado 105971" d="M595.459,121.365a8.149,8.149,0,0,1-.008,1.047,1.043,1.043,0,0,1-1.048.983,1.021,1.021,0,0,1-1.148-.948,10.328,10.328,0,0,1-.006-2.091,1.017,1.017,0,0,1,1.118-.98,1.046,1.046,0,0,1,1.089,1.017,7.939,7.939,0,0,1,.007.972Z" transform="translate(-20.006 -26.406)" fill="#fb8c00"/>
      <path id="Trazado_105972" data-name="Trazado 105972" d="M627.684,121.421c0,.3.022.6-.005.9a1.138,1.138,0,0,1-1.125,1.084,1.114,1.114,0,0,1-1.1-1.1,18.214,18.214,0,0,1,0-1.871,1.094,1.094,0,0,1,1.117-1.075,1.115,1.115,0,0,1,1.114,1.086C627.707,120.77,627.684,121.1,627.684,121.421Z" transform="translate(-33.463 -26.401)" fill="#fb8c00"/>
      <path id="Trazado_105973" data-name="Trazado 105973" d="M643.29,89.614a4.305,4.305,0,0,1-2.948-1.352,1.12,1.12,0,0,1-.122-1.663,1.139,1.139,0,0,1,1.668.032,2.131,2.131,0,0,0,3.247-.015,1.126,1.126,0,1,1,1.568,1.611A4.585,4.585,0,0,1,643.29,89.614Z" transform="translate(-39.51 -12.573)" fill="#fb8c00"/>
      <path id="Trazado_105974" data-name="Trazado 105974" d="M630.272,85.269c0,.324.026.651-.005.973a1.053,1.053,0,0,1-1.072,1.041,1.022,1.022,0,0,1-1.135-.964,10.245,10.245,0,0,1,0-2.091,1.013,1.013,0,0,1,1.133-.96,1.042,1.042,0,0,1,1.073,1.03A8.867,8.867,0,0,1,630.272,85.269Z" transform="translate(-34.541 -11.327)" fill="#fb8c00"/>
      <path id="Trazado_105975" data-name="Trazado 105975" d="M662.486,85.263a9.659,9.659,0,0,1,0,.973,1.11,1.11,0,0,1-1.148,1.052,1.065,1.065,0,0,1-1.075-1.042,14.163,14.163,0,0,1,0-1.945,1.037,1.037,0,0,1,1.065-1.04,1.084,1.084,0,0,1,1.156,1.029A9.647,9.647,0,0,1,662.486,85.263Z" transform="translate(-47.995 -11.325)" fill="#fb8c00"/>
    </g>
  </g>
</svg>
