<svg xmlns="http://www.w3.org/2000/svg" xmlns:xlink="http://www.w3.org/1999/xlink" width="83" height="83" viewBox="0 0 83 83">
  <defs>
    <clipPath id="clip-path">
      <circle id="Elipse_4633" data-name="Elipse 4633" cx="41.5" cy="41.5" r="41.5" transform="translate(0.378 0)" fill="#b2ebf2"/>
    </clipPath>
  </defs>
  <g id="Grupo_71722" data-name="Grupo 71722" transform="translate(-925.616 -435.016)">
    <g id="Grupo_71720" data-name="Grupo 71720" transform="translate(925.238 435.015)">
      <g id="Grupo_71719" data-name="Grupo 71719" transform="translate(0 0)" clip-path="url(#clip-path)">
        <path id="Trazado_106189" data-name="Trazado 106189" d="M962.976,446.158c11.986-11.284,26.852-13.4,40.791-11.615l-51.422-34.018L899.537,480.35C924.836,481.725,933.475,473.932,962.976,446.158Z" transform="translate(-918.23 -425.684)" fill="#b2ebf2"/>
        <path id="Trazado_106190" data-name="Trazado 106190" d="M970.823,544.809l54.773-82.794-22.565-14.928c-13.939-1.785-28.8.331-40.791,11.615-29.5,27.774-38.14,35.567-63.439,34.192l-1.965,2.969Z" transform="translate(-917.494 -438.227)" fill="#1565c0"/>
      </g>
    </g>
    <g id="Grupo_71721" data-name="Grupo 71721" transform="translate(933.387 443.924)">
      <path id="Trazado_106191" data-name="Trazado 106191" d="M936.463,489.81c-.007-.272-.02-.544-.02-.816q0-15.888,0-31.778a3.016,3.016,0,0,1,3.38-3.379h40.836c.322,0,.644-.007.965-.011a1.3,1.3,0,0,1,.915-.211c2.392,0,4.784-.02,7.176,0a3.159,3.159,0,0,1,3.4,2.915c.059.988.035,1.976.019,2.965q.043,2.509,0,5.019.038,1.506,0,3.012c.036,3.252.029,6.5,0,9.755.023,1.01.021,2.019,0,3.029.033,2.767.013,5.536.014,8.3a1.955,1.955,0,0,1-.2,1.22,1.672,1.672,0,0,1-1.073.205q-27.179.005-54.357,0A1.41,1.41,0,0,1,936.463,489.81Z" transform="translate(-936.441 -449.067)" fill="#7fd5fa"/>
      <path id="Trazado_106192" data-name="Trazado 106192" d="M1009.86,454.8c-.553-2.007-1.423-2.666-3.509-2.668q-3.9,0-7.8-.012c0-1.386.014-2.774-.011-4.16-.008-.431.076-.6.561-.6q13.41.023,26.82,0c.637,0,.572.323.571.731q-.006,10.476,0,20.951,0,18.463.019,36.925c0,.735-.2.874-.894.871q-13.151-.038-26.3,0c-.6,0-.786-.121-.781-.756.031-3.616.009-7.231.006-10.847.3-.295.694-.224,1.057-.225,2.328-.008,4.656,0,6.984-.006a2.737,2.737,0,0,0,3.037-3.026c0-.991,0-1.982,0-2.973a1.389,1.389,0,0,1,.209-.922q.017-4.767.036-9.533c.327,0,.443.279.628.463a2.787,2.787,0,1,0,0-3.825c-.186.184-.3.468-.629.463q0-4.917,0-9.833a1.592,1.592,0,0,1,1.2-.245c3.49-.007,6.979,0,10.469-.005,1.13,0,1.146-.022,1.149-1.173,0-1.319,0-1.322-1.3-1.322q-5.16,0-10.321,0a1.592,1.592,0,0,1-1.2-.245v-5.031a1.592,1.592,0,0,1,1.2-.245c3.49-.007,6.981,0,10.471-.005,1.128,0,1.144-.023,1.147-1.175,0-1.317,0-1.319-1.3-1.319q-5.16,0-10.322,0A1.632,1.632,0,0,1,1009.86,454.8Z" transform="translate(-953.373 -447.365)" fill="#466088"/>
      <path id="Trazado_106193" data-name="Trazado 106193" d="M992.9,503.351c.006,1.506.027,3.01.012,4.516A2.91,2.91,0,0,1,990.2,510.5c-2.863.007-5.726,0-8.588,0H972.12a1.4,1.4,0,0,1-.986.237q-6.455.007-12.91,0a1.4,1.4,0,0,1-.986-.237l-17.534,0a2.973,2.973,0,0,1-3.261-3.264c0-1.287.013-2.575.02-3.862l55.4-.008C992.209,503.366,992.555,503.357,992.9,503.351Z" transform="translate(-936.442 -462.631)" fill="#6e82b6"/>
      <path id="Trazado_106194" data-name="Trazado 106194" d="M977.685,523.3c1.783,0,3.566.015,5.349-.006.441-.005.615.1.6.574-.037.915-.05,1.834,0,2.747.038.655-.126.872-.834.868-5.4-.033-10.8-.018-16.195-.018-3,0-5.992-.02-8.988.016-.641.008-.793-.189-.76-.791.05-.938.039-1.882,0-2.822-.018-.476.156-.579.6-.574,1.783.021,3.565.007,5.349.006a1.4,1.4,0,0,1,.986-.237q6.455-.008,12.91,0A1.4,1.4,0,0,1,977.685,523.3Z" transform="translate(-942.007 -468.006)" fill="#6e82b6"/>
      <ellipse id="Elipse_4634" data-name="Elipse 4634" cx="10.524" cy="5.251" rx="10.524" ry="5.251" transform="translate(17.713 46.335)" fill="#466088"/>
      <path id="Trazado_106195" data-name="Trazado 106195" d="M1014.1,457.589c4.085,0,8.171.02,12.256-.008.66-.005.9.174.82.831a5.994,5.994,0,0,0,0,1.335c.071.644-.14.844-.812.839-3.788-.033-7.576-.017-11.364-.016-.3,0-.594.007-.891.011Q1014.109,459.084,1014.1,457.589Z" transform="translate(-957.618 -450.151)" fill="#6e82b6"/>
      <path id="Trazado_106196" data-name="Trazado 106196" d="M1014.116,468.619c4.084,0,8.169.023,12.252-.005.667,0,.887.185.816.835a7.1,7.1,0,0,0,0,1.409c.053.58-.142.762-.741.758-3.787-.026-7.574-.014-11.362-.013-.321,0-.644.007-.965.011Z" transform="translate(-957.621 -453.159)" fill="#6e82b6"/>
      <path id="Trazado_106197" data-name="Trazado 106197" d="M1014.117,485.68c1.334-1.614,2.892-1.982,4.321-1a2.956,2.956,0,0,1-.871,5.3,2.875,2.875,0,0,1-3.077-.941c-.132-.145-.25-.3-.373-.455Z" transform="translate(-957.621 -457.392)" fill="#feafa9"/>
      <path id="Trazado_106198" data-name="Trazado 106198" d="M1016.126,510.049c0-1.73.026-3.459-.014-5.188-.013-.572.169-.7.71-.689,1.682.021,1.682,0,1.682,1.7,0,3.162-.017,6.325.015,9.487.006.6-.181.736-.748.727-1.645-.027-1.645,0-1.645-1.666Z" transform="translate(-958.165 -462.855)" fill="#d2d2d2"/>
      <path id="Trazado_106199" data-name="Trazado 106199" d="M1016.118,496.593c0-.542.023-1.085-.007-1.626-.023-.427.079-.6.561-.606,1.825-.028,1.824-.048,1.824,1.773,0,.739-.023,1.479.007,2.217.028.716-.524.532-.812.456-.524-.137-1.349.546-1.551-.445A9.083,9.083,0,0,1,1016.118,496.593Z" transform="translate(-958.157 -460.178)" fill="#d2d2d2"/>
    </g>
  </g>
</svg>
