<svg xmlns="http://www.w3.org/2000/svg" xmlns:xlink="http://www.w3.org/1999/xlink" width="337.188" height="352.979" viewBox="0 0 337.188 352.979">
  <defs>
    <linearGradient id="linear-gradient" y1="0.5" x2="1" y2="0.5" gradientUnits="objectBoundingBox">
      <stop offset="0" stop-color="#1556ba"/>
      <stop offset="0.435" stop-color="#1543b2"/>
      <stop offset="1" stop-color="#152fab"/>
    </linearGradient>
    <linearGradient id="linear-gradient-2" x1="-0.029" y1="0.5" x2="1.029" y2="0.5" gradientUnits="objectBoundingBox">
      <stop offset="0" stop-color="#1565c0"/>
      <stop offset="0.998" stop-color="#1545c0"/>
    </linearGradient>
    <filter id="Trazado_106219" x="107.196" y="111.724" width="64.048" height="78.429" filterUnits="userSpaceOnUse">
      <feOffset dx="-2.366" dy="2.366" input="SourceAlpha"/>
      <feGaussianBlur stdDeviation="0.887" result="blur"/>
      <feFlood flood-opacity="0.302"/>
      <feComposite operator="in" in2="blur"/>
      <feComposite in="SourceGraphic"/>
    </filter>
    <clipPath id="clip-path">
      <path id="Trazado_104825" data-name="Trazado 104825" d="M216.693,324.587v-.013c0-.024.005-.173.033-.391l.007-.057.013-.086a5.386,5.386,0,0,1,.7-1.965l0,0c.039-.064.079-.129.12-.191v0a5.453,5.453,0,0,1,.684-.838,4.519,4.519,0,0,1,.4-.36c.086-.07.175-.138.267-.2l.013-.009.013-.009.046-.033c.059-.04.123-.083.191-.127h0l.009-.005.1-.064.05-.027.042-.026.033-.018a5.677,5.677,0,0,1,.656-.314c.059-.024.1-.04.131-.05l.04-.015.04-.015.006,0,.009,0,.066-.022.009,0,.009,0,.046-.015.061-.018.051-.015.029-.009.009,0,.009,0,.017-.006.059-.015.048-.013.046-.013h0l.029-.007.057-.013.039-.009.053-.011.011,0,.04-.007.024-.006.028-.005h.006l.011,0,.015,0,.044-.007.027-.006h0l.048-.009.04-.005.026,0,.037-.006.037-.005.061-.007.053-.007.018,0h.006l.05-.006.075-.007.051-.005.059,0,.059,0,.039,0,.033,0h.026l.028,0c.109,0,.217,0,.324,0l.07,0,.072,0,.042,0,.1.007.035,0c.05,0,.1.009.143.015l.066.009-.006,0,.007,0,.013,0,.1.013.077.013c.059.009.1.018.136.024.156.029.309.068.461.11.092.026.173.051.272.086a5.44,5.44,0,0,1,1.189.581v0h0c.037.024.074.048.11.073l.015.009c.063.046.125.09.188.138l.015.011.006,0,.006,0,.007.006.005,0,.05.041.1.081.053.044.1.09.005.006,0,0,.022.02a3.817,3.817,0,0,1,.278.272c.053.055.1.114.156.173l.11.131.009.009.005.009c.075.092.154.2.243.325l0,0,0,0,0,.006c.04.059.081.123.123.191s.072.118.1.167l.1.2c.035.064.066.125.1.182a4.214,4.214,0,0,1,.173.408v0h0c.05.134.1.276.136.414l0,0v.006a3.8,3.8,0,0,1,.114.478,4.935,4.935,0,0,1,.09.866,5.282,5.282,0,0,1-.23,1.677,5.358,5.358,0,0,1-.307.787c-.061.127-.107.217-.167.318-.072.127-.151.25-.235.373l-.029.044a3.494,3.494,0,0,1-.311.4c-.077.085-.177.2-.256.28s-.184.186-.27.259h0c-.1.085-.134.118-.222.186-.109.088-.219.169-.329.245h0c-.035.026-.072.05-.108.072s-.085.053-.123.075l-.081.048-.015.007c-.033.02-.072.042-.116.064l-.029.017c-.129.068-.292.151-.473.224-.038.017-.092.039-.158.064l-.053.02-.094.035-.066.022-.024.007-.005,0-.035.011-.061.018-.059.018-.006,0a5.112,5.112,0,0,1-.662.149l-.02,0-.059.009h-.005l-.051.007-.12.015-.176.017c-.05.005-.11.007-.167.011h0l-.083,0c-.074,0-.173,0-.246,0s-.176-.007-.252-.011c-.162-.013-.377-.037-.537-.061a3.9,3.9,0,0,1-.412-.085l-.1-.028-.278-.081-.1-.035c-.079-.026-.156-.055-.232-.085l-.039-.015c-.09-.033-.2-.083-.3-.13-.04-.02-.083-.04-.123-.062a3.349,3.349,0,0,1-.349-.195l-.011-.007c-.092-.057-.184-.118-.274-.18l-.057-.039-.1-.075-.079-.061-.147-.116a3.458,3.458,0,0,1-.309-.281l-.007-.006-.015-.016c-.077-.079-.165-.173-.268-.287l-.007-.007v0a4.7,4.7,0,0,1-.454-.607l-.005-.007c-.042-.066-.085-.136-.127-.211l0,0,0,0-.055-.1c-.026-.046-.05-.092-.07-.132l-.02-.041c-.035-.072-.07-.145-.1-.222a3.215,3.215,0,0,1-.125-.3h0a5.157,5.157,0,0,1-.16-.5,3.214,3.214,0,0,1-.075-.314c-.022-.108-.04-.221-.057-.334l-.011-.077c-.018-.154-.031-.314-.037-.478l0-.018v-.011C216.685,324.857,216.687,324.723,216.693,324.587Z" transform="translate(-216.687 -319.457)" fill="#fb8c00"/>
    </clipPath>
    <radialGradient id="radial-gradient" cx="0.542" cy="0.541" r="0.55" gradientTransform="matrix(1, -0.006, 0.006, 1, -0.018, -0.011)" gradientUnits="objectBoundingBox">
      <stop offset="0.701" stop-color="#d1edde"/>
      <stop offset="0.788" stop-color="#d5eee1"/>
      <stop offset="0.878" stop-color="#e1f3e9"/>
      <stop offset="0.97" stop-color="#f6fbf8"/>
      <stop offset="1" stop-color="#fff"/>
    </radialGradient>
    <clipPath id="clip-path-2">
      <path id="Trazado_104830" data-name="Trazado 104830" d="M290.7,142.735v-.01c0-.018,0-.133.025-.3l.006-.044.01-.066a4.117,4.117,0,0,1,.539-1.512l0,0c.03-.049.061-.1.092-.147h0a4.109,4.109,0,0,1,.526-.645,3.456,3.456,0,0,1,.3-.277c.066-.054.134-.106.205-.157l.01-.007.01-.007.035-.025c.045-.031.093-.064.147-.1h0l.006,0,.081-.049.038-.021.033-.02.025-.014a4.359,4.359,0,0,1,.5-.242c.045-.018.081-.031.1-.038l.031-.011.031-.011h0l.007,0,.051-.017.007,0,.007,0,.035-.011.047-.014.04-.011.023-.007h.006l.009,0,.013,0,.045-.011.037-.01.035-.01h0l.023-.006.044-.01.03-.007.041-.009.007,0,.031-.006.018,0,.023,0h.011l.013,0,.034-.006.021,0h0l.037-.007.031,0,.02,0,.028,0,.028,0,.045-.006.042-.006h.017l.04,0,.058-.006.04,0,.044,0,.047,0h.1c.083,0,.167,0,.249,0H295l.055,0h.033l.081.006.027,0,.11.011.051.007h.011l.078.011.059.008.1.018c.119.023.238.052.355.085.071.02.133.04.209.066a4.185,4.185,0,0,1,.915.447h0c.03.018.058.037.086.057l.01.007c.049.035.1.069.146.106l.011.008,0,0,0,0,.006,0,.006,0,.038.031.076.062.041.034c.028.024.054.048.079.069l0,0,0,0,.017.016a2.94,2.94,0,0,1,.214.209c.041.042.081.088.119.133s.057.065.086.1l.007.007,0,.007c.058.071.119.153.187.25h0v0l0,0c.031.044.062.095.095.147s.054.09.078.129l.079.151c.027.049.051.1.074.14a2.942,2.942,0,0,1,.131.314h0c.037.1.073.212.1.318v.007a3.167,3.167,0,0,1,.086.368,3.814,3.814,0,0,1,.071.666,4.17,4.17,0,0,1-.177,1.29,4.112,4.112,0,0,1-.236.605,2.762,2.762,0,0,1-.129.245c-.055.1-.116.192-.181.287l-.023.034a2.851,2.851,0,0,1-.239.31c-.059.065-.136.153-.2.215s-.143.143-.208.2h0c-.072.064-.1.09-.17.143-.083.068-.168.13-.253.188h0c-.028.02-.055.038-.083.055s-.065.041-.095.058l-.062.037-.011.006-.089.049-.023.013c-.1.052-.225.116-.363.173l-.122.05-.041.016-.074.027-.051.017-.017.006h0l-.027.008-.047.014-.045.014h0a3.939,3.939,0,0,1-.509.115l-.016,0-.045.007h0l-.041.006-.091.011-.136.013c-.038,0-.085.006-.129.009h0l-.064,0c-.057,0-.133,0-.189,0s-.136-.006-.2-.008c-.123-.01-.288-.028-.411-.047a3.1,3.1,0,0,1-.318-.065l-.074-.021c-.073-.021-.15-.044-.215-.061l-.075-.028c-.059-.02-.119-.042-.177-.065l-.031-.011c-.069-.025-.153-.064-.228-.1-.031-.016-.064-.031-.095-.048a2.746,2.746,0,0,1-.27-.15l-.007-.006c-.072-.044-.141-.09-.211-.139l-.044-.03-.075-.058-.061-.047-.113-.089a2.834,2.834,0,0,1-.238-.215l-.006-.006-.011-.013c-.059-.061-.127-.133-.206-.221l-.006-.006h0a3.592,3.592,0,0,1-.349-.467l0-.006c-.033-.051-.065-.1-.1-.163h0l-.042-.075c-.02-.035-.038-.071-.054-.1l-.016-.031c-.027-.055-.054-.112-.081-.171a2.362,2.362,0,0,1-.1-.233h0c-.045-.12-.088-.247-.124-.383-.023-.082-.042-.165-.057-.242s-.033-.17-.044-.257l-.008-.058c-.014-.12-.024-.243-.028-.369v-.023C290.692,142.942,290.693,142.84,290.7,142.735Z" transform="translate(-290.693 -138.789)" fill="none"/>
    </clipPath>
    <clipPath id="clip-path-4">
      <path id="Trazado_104835" data-name="Trazado 104835" d="M299.576,345.545v-.011c0-.021,0-.149.029-.338l.006-.051.011-.073a4.6,4.6,0,0,1,.6-1.7l0,0c.033-.057.068-.111.1-.167h0a4.7,4.7,0,0,1,.59-.725,4.142,4.142,0,0,1,.341-.309c.075-.06.151-.119.23-.176l.011-.008.011-.008.04-.029c.051-.036.1-.073.165-.109v0l.006,0,.091-.056.043-.025.036-.021.029-.016a4.652,4.652,0,0,1,.567-.271l.113-.044.035-.013.035-.013,0,0,.008,0,.057-.021.008,0,.008,0,.04-.013.052-.016.044-.014.025-.006.006,0,.01,0,.014,0,.051-.014.041-.011.04-.009h0l.025-.006.049-.013.033-.006.046-.011.008,0,.035-.008.021,0,.025,0h0l.008,0,.014,0,.038-.006.024,0h0l.041-.006.035-.006.022,0,.032,0,.032,0,.051-.008.048,0,.016,0h0l.044,0,.065,0,.045,0,.049,0,.052,0,.033,0,.028,0h.022l.024,0c.094,0,.187,0,.279,0l.06,0,.062,0,.036,0,.09.006.03,0c.043,0,.084.008.124.013l.057.006h0l.013,0,.087.013.067.011c.051.008.09.014.118.021.135.025.267.057.4.1.079.022.149.043.235.073a4.632,4.632,0,0,1,1.027.5h0l.1.065.011.008c.056.038.109.078.163.117l.013.011,0,0,0,0,.006,0,0,0,.043.035.086.068.046.04.089.078,0,0,0,0,.019.019a3.271,3.271,0,0,1,.24.235q.069.071.133.148c.032.036.064.075.1.114l.008.008,0,.006c.065.081.133.171.209.281l0,0,0,0,0,0c.035.049.07.106.106.165l.087.144.089.17c.03.054.057.108.083.157a3.308,3.308,0,0,1,.149.352h0v0c.043.114.082.238.117.355l0,0v0a3.6,3.6,0,0,1,.1.413,4.232,4.232,0,0,1,.078.746,4.633,4.633,0,0,1-.041.736,4.464,4.464,0,0,1-.157.713,4.51,4.51,0,0,1-.265.678,2.938,2.938,0,0,1-.144.276c-.062.108-.13.216-.2.321l-.025.04a3.588,3.588,0,0,1-.268.348c-.067.071-.152.171-.221.241s-.16.159-.233.224h0c-.082.071-.116.1-.192.16-.094.075-.189.146-.284.211h0l-.094.062c-.037.024-.073.046-.106.065l-.07.04-.013.008-.1.056-.025.013c-.111.06-.252.13-.408.2-.033.014-.081.033-.136.054l-.046.019-.083.028-.057.021-.019.006,0,0-.03.01-.052.016-.051.016,0,0a4.418,4.418,0,0,1-.571.129l-.017,0-.051.008,0,0-.046.006-.1.013-.152.014-.144.009h0l-.071,0c-.064,0-.149,0-.213,0s-.152,0-.217-.008c-.14-.011-.325-.032-.463-.052-.108-.017-.251-.044-.357-.073l-.082-.024-.241-.07-.083-.03c-.068-.024-.135-.048-.2-.073l-.033-.013c-.079-.029-.171-.073-.257-.114-.035-.016-.071-.035-.106-.052a3.133,3.133,0,0,1-.3-.17l-.008,0c-.081-.049-.159-.1-.237-.156l-.049-.033-.084-.067-.068-.052-.127-.1a2.976,2.976,0,0,1-.267-.243l-.006-.006-.013-.013c-.067-.068-.143-.149-.232-.249l-.006-.006h0a4.027,4.027,0,0,1-.392-.524l0-.006c-.037-.057-.073-.117-.11-.183l0,0,0,0-.048-.084c-.022-.04-.043-.079-.06-.114l-.017-.035c-.03-.062-.06-.125-.09-.192-.041-.09-.081-.182-.108-.262h0a4.453,4.453,0,0,1-.138-.43,2.788,2.788,0,0,1-.065-.271c-.019-.094-.035-.19-.049-.289l-.009-.067c-.016-.133-.027-.271-.032-.414l0-.014v-.009C299.569,345.776,299.571,345.662,299.576,345.545Z" transform="translate(-299.571 -341.117)" fill="#fb8c00"/>
    </clipPath>
    <clipPath id="clip-path-5">
      <path id="Trazado_104835-2" data-name="Trazado 104835" d="M299.574,344.2v-.008c0-.014,0-.1.02-.235l0-.035.008-.051a3.2,3.2,0,0,1,.421-1.182l0,0c.023-.04.047-.077.072-.116h0a3.273,3.273,0,0,1,.411-.505,2.877,2.877,0,0,1,.238-.216c.052-.042.105-.083.16-.123l.008-.006.008-.005.028-.02c.035-.025.073-.051.115-.076h0l0,0,.063-.039.03-.018.025-.014.02-.011a3.248,3.248,0,0,1,.395-.189l.079-.031.024-.009.024-.009h.009l.04-.014h.005l.005,0,.028-.009.036-.011.031-.01.018,0,0,0h.007l.01,0,.035-.01.029-.008.028-.007h0l.018,0,.034-.009.023,0,.032-.008h.005l.024-.006.014,0,.018,0h.009l.01,0,.027,0,.017,0h0l.029,0,.024,0,.016,0,.022,0,.022,0,.035-.005.033,0,.011,0h0l.031,0,.045,0,.031,0,.034,0,.036,0h.075c.065,0,.13,0,.195,0h.042l.043,0H303l.063,0,.021,0,.086.009.04,0h.009l.061.009.046.008c.035.006.063.01.082.014.094.018.186.04.277.066.055.016.1.03.164.051a3.23,3.23,0,0,1,.715.35h0l.066.045.008.006c.039.027.076.054.114.082l.009.008,0,0,0,0,0,0,0,0,.03.024.06.047.032.028.062.054,0,0,0,0,.013.013a2.309,2.309,0,0,1,.167.164q.048.05.093.1l.067.08.006.006,0,0c.045.056.093.119.146.2v0l0,0c.024.034.049.074.074.115l.061.1.062.118c.021.038.04.075.058.109a2.3,2.3,0,0,1,.1.245h0c.03.08.057.166.082.248v.007a2.505,2.505,0,0,1,.069.287,2.958,2.958,0,0,1,.054.52,3.229,3.229,0,0,1-.029.513,3.107,3.107,0,0,1-.109.5,3.144,3.144,0,0,1-.185.472,2.055,2.055,0,0,1-.1.192c-.043.075-.091.15-.142.223l-.018.028a2.5,2.5,0,0,1-.187.242c-.047.05-.106.119-.154.168s-.112.111-.163.156h0c-.057.05-.081.071-.134.112s-.132.1-.2.147h0l-.065.043c-.025.017-.051.032-.074.045l-.049.028-.009.006-.07.039-.018.009c-.077.042-.176.091-.284.136l-.1.038-.032.013-.058.02-.04.014-.013,0h0l-.021.007-.036.011-.035.011h0a3.087,3.087,0,0,1-.4.09H303.3l-.035.006h0l-.032,0-.071.009-.106.01-.1.007h-.2c-.045,0-.106,0-.151-.006-.1-.008-.227-.022-.323-.036-.075-.012-.175-.031-.249-.051l-.057-.016-.168-.049-.057-.021c-.048-.017-.094-.033-.139-.051l-.023-.009c-.055-.02-.119-.051-.179-.08l-.074-.036a2.167,2.167,0,0,1-.211-.118l-.005,0c-.056-.034-.111-.071-.165-.108l-.034-.023-.059-.046-.048-.036-.088-.069a2.072,2.072,0,0,1-.186-.169l0,0-.009-.009c-.046-.048-.1-.1-.161-.174l0,0h0a2.8,2.8,0,0,1-.273-.365l0,0c-.025-.04-.051-.082-.076-.127h0l-.033-.059c-.016-.028-.03-.055-.042-.08l-.012-.024c-.021-.043-.042-.087-.063-.134-.029-.063-.056-.127-.075-.182h0a3.126,3.126,0,0,1-.1-.3c-.019-.064-.034-.129-.045-.189s-.024-.133-.034-.2l-.007-.046c-.011-.093-.019-.189-.022-.289v-.017C299.57,344.363,299.571,344.283,299.574,344.2Z" transform="translate(-299.571 -341.117)" fill="#fb8c00"/>
    </clipPath>
    <radialGradient id="radial-gradient-3" cx="0.557" cy="0.466" r="0.632" gradientTransform="matrix(-1, 0, 0, 1, 1.115, 0)" gradientUnits="objectBoundingBox">
      <stop offset="0.428" stop-color="#64eae6"/>
      <stop offset="0.553" stop-color="#67eae6"/>
      <stop offset="0.657" stop-color="#71ebe8"/>
      <stop offset="0.754" stop-color="#83eeea"/>
      <stop offset="0.846" stop-color="#9bf1ee"/>
      <stop offset="0.935" stop-color="#baf5f3"/>
      <stop offset="0.972" stop-color="#caf8f6"/>
    </radialGradient>
    <clipPath id="clip-path-6">
      <path id="Trazado_106217" data-name="Trazado 106217" d="M437.964,365.935l0-.053c0-.094-.022-.676-.128-1.532l-.029-.228c-.016-.108-.032-.22-.049-.334a20.912,20.912,0,0,0-2.748-7.7l-.01-.018c-.151-.254-.308-.5-.471-.75l0,0a20.969,20.969,0,0,0-2.675-3.29,18.5,18.5,0,0,0-1.55-1.406c-.338-.277-.686-.542-1.043-.8l-.051-.041-.047-.031-.185-.13c-.23-.163-.477-.33-.749-.5l0,0-.03-.018c-.132-.082-.267-.165-.409-.25-.065-.039-.13-.077-.195-.114s-.106-.063-.163-.094l-.132-.075a21.5,21.5,0,0,0-2.571-1.232c-.23-.092-.409-.161-.511-.2l-.161-.057-.157-.059-.024-.008-.033-.012c-.079-.028-.183-.063-.261-.088l-.035-.012-.037-.012-.177-.059-.236-.073-.2-.061-.114-.033-.033-.01-.041-.012-.065-.02-.228-.061-.191-.051-.181-.045-.008,0-.114-.029-.22-.051-.153-.035-.21-.047-.037-.008-.159-.033-.094-.018-.114-.024-.02,0-.039-.008-.063-.012-.171-.031-.11-.02h0l-.189-.031-.163-.028-.1-.014-.145-.022-.141-.02c-.078-.012-.157-.022-.236-.031l-.216-.026-.071-.008-.016,0c-.061-.008-.13-.014-.2-.022l-.295-.027-.2-.018-.226-.016-.238-.014c-.049,0-.1,0-.145-.008l-.132-.008-.1,0-.112,0c-.422-.014-.847-.014-1.267,0l-.271.01-.283.012-.167.01q-.206.012-.407.029l-.141.012c-.193.018-.381.037-.56.059-.086.01-.173.02-.259.031l.02,0-.024,0-.053.008c-.139.018-.273.037-.4.055-.1.016-.2.031-.3.049-.228.037-.409.071-.532.094-.609.116-1.214.263-1.811.434-.358.1-.672.194-1.065.334a21.043,21.043,0,0,0-4.659,2.281h0l0,0c-.145.094-.289.193-.432.291l-.057.039c-.249.173-.493.35-.737.534l-.059.045-.022.016-.018.014-.03.022-.022.018c-.067.051-.134.1-.2.155-.136.106-.263.212-.389.316-.069.057-.139.116-.208.177-.143.12-.277.238-.4.352l-.018.016-.016.016-.09.081c-.66.6-1.063,1.039-1.088,1.067-.2.216-.407.444-.607.676-.141.163-.287.334-.436.517l-.031.035-.022.029c-.3.365-.611.778-.955,1.279l-.008.01-.008.012-.014.02c-.155.228-.316.485-.479.752-.141.23-.279.458-.4.654l-.4.77c-.134.251-.259.493-.373.717a15.086,15.086,0,0,0-.674,1.6l0,.006,0,.006c-.191.521-.373,1.077-.53,1.615l-.006.02-.006.022a15.687,15.687,0,0,0-.44,1.872,19.011,19.011,0,0,0-.356,3.388,20.834,20.834,0,0,0,.9,6.573,20.268,20.268,0,0,0,1.206,3.08,13.819,13.819,0,0,0,.652,1.251c.281.491.591.976.925,1.456l.114.177a13.948,13.948,0,0,0,1.218,1.579c.3.328.686.776,1,1.094s.727.725,1.065,1.014h0c.369.328.524.464.87.731.424.342.852.66,1.289.955l.006,0c.141.094.283.189.424.279.167.108.334.21.483.3.079.047.189.112.316.183l.057.034c.132.075.285.161.456.253l.112.059c.507.271,1.147.591,1.854.884.153.063.363.149.617.247.071.028.143.057.212.083l.371.134c.077.028.181.061.259.088l.092.03.018.006.14.045c.071.024.165.053.236.075l.232.069.02.006a19.929,19.929,0,0,0,2.593.585l.078.012c.069.012.151.024.234.035l.024,0,.2.027.462.057c.208.024.487.047.7.067.193.018.428.03.65.039l.006,0h0l.32.012c.291.01.678.006.968.008s.693-.027.99-.039c.633-.051,1.473-.143,2.1-.24a16.2,16.2,0,0,0,1.619-.332l.377-.106c.377-.106.766-.222,1.092-.314l.381-.14q.46-.156.908-.332l.151-.055c.354-.132.778-.33,1.161-.517.163-.079.326-.157.487-.24a14.864,14.864,0,0,0,1.371-.768l.039-.028c.363-.224.721-.458,1.071-.707.077-.051.155-.1.226-.149l.381-.3c.1-.079.206-.157.306-.238l.581-.452a13.713,13.713,0,0,0,1.206-1.1l.029-.028.057-.061c.3-.308.654-.676,1.057-1.128l.027-.029v0a18.8,18.8,0,0,0,1.78-2.377l.018-.03q.248-.389.5-.829l0-.006,0,0c.073-.124.143-.251.214-.383.1-.179.2-.356.275-.517l.079-.159q.209-.418.411-.868c.187-.411.365-.827.491-1.192v0c.232-.615.444-1.267.629-1.954.118-.42.22-.843.291-1.234.088-.424.163-.862.226-1.31.016-.1.027-.2.039-.3q.115-.908.147-1.878l0-.069V367.5C437.99,366.988,437.988,366.468,437.964,365.935Z" transform="translate(-395.87 -345.834)" fill="none"/>
    </clipPath>
    <clipPath id="clip-path-7">
      <path id="Trazado_106217-2" data-name="Trazado 106217" d="M429.374,361.833l0-.042c0-.075-.017-.538-.1-1.22l-.023-.181c-.013-.086-.025-.175-.039-.266A16.645,16.645,0,0,0,427.021,354l-.008-.014c-.12-.2-.245-.4-.375-.6l0,0a16.692,16.692,0,0,0-2.129-2.619,14.713,14.713,0,0,0-1.234-1.119c-.269-.22-.546-.432-.83-.636l-.041-.033-.038-.025-.147-.1c-.183-.13-.38-.263-.6-.4v0l-.024-.014c-.1-.066-.213-.131-.325-.2-.052-.031-.1-.061-.155-.091s-.084-.05-.13-.075l-.1-.059a17.111,17.111,0,0,0-2.047-.98c-.183-.073-.325-.128-.406-.158l-.128-.045-.125-.047-.019-.006-.027-.009-.208-.07-.028-.009-.03-.009-.141-.047-.188-.058-.163-.048-.091-.027-.027-.008-.033-.009-.052-.016-.181-.048-.152-.041-.144-.036-.006,0-.091-.023-.175-.041-.122-.028-.167-.037-.03-.006-.127-.027-.075-.014-.091-.019-.016,0-.031-.006-.05-.009-.136-.025-.088-.016h0l-.15-.025-.13-.022-.078-.011-.116-.017-.113-.016c-.062-.009-.125-.017-.188-.025l-.172-.02-.056-.006h-.013c-.048-.006-.1-.011-.158-.017l-.235-.022-.161-.014-.18-.013-.189-.011c-.039,0-.077,0-.116-.006l-.1-.006-.08,0-.089,0c-.336-.011-.674-.011-1.008,0l-.216.008-.225.009-.133.008q-.164.009-.324.023l-.113.009c-.153.014-.3.03-.446.047l-.206.025.016,0-.019,0-.042.006c-.111.014-.217.03-.316.044-.081.012-.161.025-.241.039-.181.03-.325.056-.424.075-.485.092-.966.21-1.442.346-.285.077-.535.155-.847.266a16.749,16.749,0,0,0-3.709,1.815h0l0,0c-.116.075-.23.153-.344.231l-.045.031c-.2.138-.392.278-.586.425l-.047.036-.017.012-.014.011-.023.017-.017.014-.158.124c-.108.084-.21.169-.31.252-.055.045-.111.092-.166.141-.114.1-.22.189-.322.28l-.014.012-.013.013-.072.064c-.525.478-.846.827-.866.849-.163.172-.324.353-.483.538-.113.13-.228.266-.347.411l-.025.028-.017.023c-.236.291-.486.619-.76,1.018l-.006.008-.006.009-.011.016c-.123.181-.252.386-.381.6-.113.183-.222.364-.32.521l-.319.613c-.106.2-.206.392-.3.571a12.016,12.016,0,0,0-.536,1.27v0l0,0c-.152.414-.3.857-.422,1.285l0,.016,0,.017a12.477,12.477,0,0,0-.35,1.49,15.133,15.133,0,0,0-.283,2.7,16.586,16.586,0,0,0,.716,5.231,16.132,16.132,0,0,0,.96,2.452,10.99,10.99,0,0,0,.519,1c.224.391.471.777.736,1.158l.091.141a11.1,11.1,0,0,0,.969,1.257c.238.261.546.618.793.871s.578.577.847.807h0c.294.261.417.369.693.582.338.272.679.525,1.026.76l0,0c.113.075.225.15.338.222.133.086.266.167.385.236.063.038.15.089.252.145l.045.027c.1.059.227.128.363.2l.089.047c.4.216.913.471,1.476.7.122.05.289.119.491.2.056.022.114.045.169.066l.3.106c.061.022.144.048.206.07l.073.023.014,0,.111.036.188.059.184.055.016,0a15.861,15.861,0,0,0,2.064.466l.062.009c.055.009.12.019.186.028l.019,0,.161.022.367.045c.166.019.388.038.555.053s.341.023.518.031l0,0h0l.255.009c.231.008.539,0,.771.006s.552-.022.788-.031c.5-.041,1.173-.114,1.671-.191a12.871,12.871,0,0,0,1.288-.264l.3-.084c.3-.085.61-.177.869-.25l.3-.111q.366-.124.722-.264l.12-.044c.281-.1.619-.263.924-.411.13-.063.26-.125.388-.191a11.824,11.824,0,0,0,1.091-.611l.031-.022c.289-.178.574-.364.852-.563.061-.041.124-.083.18-.119l.3-.238c.083-.063.164-.125.244-.189l.463-.36a10.929,10.929,0,0,0,.96-.874l.023-.022.045-.048c.242-.245.521-.538.841-.9l.022-.023v0a14.961,14.961,0,0,0,1.416-1.892l.014-.023q.2-.31.4-.66l0,0,0,0c.058-.1.114-.2.17-.3.08-.142.156-.283.219-.411l.063-.127q.167-.333.327-.691c.149-.327.291-.658.391-.949v0c.184-.489.353-1.008.5-1.556.094-.335.175-.671.231-.982.07-.338.13-.686.18-1.043.013-.083.022-.161.031-.239q.091-.722.117-1.495l0-.055v-.034C429.394,362.671,429.392,362.257,429.374,361.833Z" transform="translate(-395.87 -345.834)" fill="none"/>
    </clipPath>
    <clipPath id="clip-path-8">
      <path id="Trazado_106217-3" data-name="Trazado 106217" d="M410.133,352.645v-.018c0-.032-.007-.229-.043-.519l-.01-.077c-.005-.037-.011-.074-.017-.113a7.086,7.086,0,0,0-.931-2.609l0-.006c-.051-.086-.1-.17-.16-.254h0a7.106,7.106,0,0,0-.907-1.115,6.265,6.265,0,0,0-.525-.477c-.115-.094-.232-.184-.353-.271l-.017-.014-.016-.011-.063-.044c-.078-.055-.162-.112-.254-.17h0l-.01-.006-.138-.085-.066-.039-.055-.032-.045-.025a7.289,7.289,0,0,0-.871-.417c-.078-.031-.138-.055-.173-.067l-.055-.019-.053-.02-.008,0-.011,0-.089-.03-.012,0-.013,0-.06-.02-.08-.025-.069-.021-.039-.011-.011,0-.014,0-.022-.007-.077-.021-.065-.017-.061-.015h0l-.039-.01-.075-.017-.052-.012-.071-.016-.013,0-.054-.011-.032-.006-.039-.008h-.007l-.013,0-.021,0-.058-.011-.037-.007h0l-.064-.011-.055-.009-.033,0-.049-.007-.048-.007-.08-.011-.073-.009-.024,0h-.005l-.067-.007-.1-.009-.069-.006-.077-.005-.081,0-.049,0-.045,0h-.072c-.143,0-.287,0-.429,0l-.092,0-.1,0-.057,0-.138.01-.048,0-.19.02-.088.011h0l-.018,0-.134.019-.1.017c-.077.013-.138.024-.18.032-.206.039-.411.089-.614.147-.121.033-.228.066-.361.113a7.132,7.132,0,0,0-1.579.773h0c-.049.032-.1.065-.146.1l-.019.013c-.085.059-.167.118-.25.181l-.02.015-.007.005-.006,0-.01.007-.007.006-.067.053c-.046.036-.089.072-.132.107l-.071.06c-.049.041-.094.081-.137.119l-.006.005-.005.005-.031.027c-.224.2-.36.352-.369.361-.069.073-.138.15-.206.229-.048.055-.1.113-.148.175l-.011.012-.007.01c-.1.124-.207.264-.323.433l0,0,0,0,0,.007c-.053.077-.107.164-.162.255s-.094.155-.136.222l-.136.261c-.045.085-.088.167-.126.243a5.1,5.1,0,0,0-.228.54v0c-.065.176-.126.365-.18.547l0,.007,0,.007a5.3,5.3,0,0,0-.149.634,6.427,6.427,0,0,0-.12,1.148,7.057,7.057,0,0,0,.3,2.227,6.87,6.87,0,0,0,.409,1.044,4.662,4.662,0,0,0,.221.424c.1.166.2.331.314.493l.039.06a4.723,4.723,0,0,0,.413.535c.1.111.232.263.337.371s.246.246.361.343h0c.125.111.178.157.295.248.144.116.289.224.437.323h0l.144.095c.057.037.113.071.164.1.027.016.064.038.107.062l.019.011.154.086.038.02c.172.092.389.2.628.3.052.021.123.051.209.084l.072.028.126.045.088.03.031.01.006,0,.047.015.08.025.079.023.007,0a6.748,6.748,0,0,0,.879.2l.027,0,.079.012h.008l.068.009.156.019c.071.008.165.016.236.023s.145.01.22.013h0l.109,0c.1,0,.23,0,.328,0s.235-.009.336-.013c.214-.017.5-.049.711-.081a5.453,5.453,0,0,0,.548-.112l.128-.036.37-.107.129-.047q.156-.053.307-.112l.051-.019c.12-.045.264-.112.393-.175.055-.027.111-.053.165-.081a5.018,5.018,0,0,0,.465-.26l.013-.009c.123-.076.244-.155.363-.24l.077-.051.129-.1.1-.081.2-.153a4.659,4.659,0,0,0,.409-.372l.01-.009.019-.021c.1-.1.222-.229.358-.382l.009-.01h0a6.374,6.374,0,0,0,.6-.805l.006-.01q.084-.132.17-.281v0h0c.025-.042.049-.085.073-.13.034-.061.067-.12.093-.175l.027-.054q.071-.142.139-.294c.063-.139.124-.28.166-.4h0c.078-.208.15-.429.213-.662.04-.142.075-.285.1-.418s.055-.292.076-.444c.005-.035.009-.069.013-.1q.039-.307.05-.636v-.038C410.142,353,410.141,352.825,410.133,352.645Z" transform="translate(-395.87 -345.834)" fill="none"/>
    </clipPath>
  </defs>
  <g id="Grupo_71757" data-name="Grupo 71757" transform="translate(-1060.547 -2989.908)">
    <g id="Grupo_71751" data-name="Grupo 71751" transform="translate(1171.994 3005.455)">
      <path id="Trazado_106218" data-name="Trazado 106218" d="M1591.359,436.552c-21.678-65.557-75-105.112-119.715-92.094a174.4,174.4,0,0,0-30.466,11.649L1508.7,593.832c13.326,1.334,28.978-1.92,47.632-11.259C1597.977,561.723,1613.039,502.11,1591.359,436.552Z" transform="translate(-1441.178 -341.988)" fill="url(#linear-gradient)"/>
    </g>
    <path id="Trazado_106907" data-name="Trazado 106907" d="M84.322,0c46.57,0,84.322,55.975,84.322,125.024S130.892,250.048,84.322,250.048,0,194.073,0,125.024,37.752,0,84.322,0Z" transform="translate(1098.257 3042.856) rotate(-18.298)" fill="url(#linear-gradient-2)"/>
    <g transform="matrix(1, 0, 0, 1, 1060.55, 2989.91)" filter="url(#Trazado_106219)">
      <path id="Trazado_106219-2" data-name="Trazado 106219" d="M1490.422,421.126c4.853-2.217,10.462,2.726,10.1,8.9l-1.679,28.419-1.68,28.418c-.365,6.173-6.431,8.945-10.918,4.991l-20.661-18.208-20.661-18.208c-4.487-3.955-4.031-11.67.821-13.888l22.341-10.211Z" transform="translate(-1329.59 -308.57)" fill="#f2f1ff"/>
    </g>
    <ellipse id="Elipse_4636" data-name="Elipse 4636" cx="20.594" cy="134.694" rx="20.594" ry="134.694" transform="translate(1092.883 3270.631) rotate(-81.478)" fill="#2b2b2b" opacity="0.101"/>
    <g id="Grupo_71389" data-name="Grupo 71389" transform="translate(1087.508 3080.018)">
      <g id="Grupo_71388" data-name="Grupo 71388">
        <g id="Grupo_71387" data-name="Grupo 71387">
          <path id="Trazado_104821" data-name="Trazado 104821" d="M227.427,324.52v-.013c0-.026-.007-.173-.039-.392l-.007-.057-.013-.086a5.392,5.392,0,0,0-.726-1.956l0,0c-.039-.064-.079-.129-.121-.191h0a5.344,5.344,0,0,0-.693-.831,4.736,4.736,0,0,0-.4-.353c-.088-.07-.178-.138-.27-.2l-.013-.009-.011-.009-.048-.031c-.059-.04-.123-.083-.193-.125v0l-.007,0c-.035-.02-.07-.042-.107-.063l-.05-.029-.04-.024-.035-.017a5.4,5.4,0,0,0-.66-.307c-.059-.024-.1-.04-.131-.05l-.04-.013-.04-.015-.007,0-.009,0-.066-.022-.009,0-.009,0-.046-.015-.061-.017-.051-.016-.029-.007-.009,0-.009,0-.017,0-.059-.017-.048-.011-.048-.011,0,0-.029-.005-.055-.013-.04-.009-.053-.011-.009,0-.04-.007-.024-.006-.029-.005h-.005l-.009,0-.017,0-.044-.007-.028,0h0l-.048-.007-.04-.007-.026,0-.037,0-.037-.006-.061-.007-.055-.006-.018,0h0l-.05-.005-.075-.006-.051,0-.059,0-.061,0h-.037l-.033,0h-.026l-.029,0c-.108,0-.215,0-.324,0l-.068,0-.072,0-.044,0-.1.009-.037,0c-.048.006-.1.011-.141.018l-.066.007h0l-.006,0-.013,0-.1.015-.077.013-.136.026c-.154.033-.309.072-.46.118-.092.026-.171.052-.27.088a5.368,5.368,0,0,0-1.182.6l0,0h0c-.037.024-.074.05-.11.075l-.013.009c-.064.046-.125.092-.187.14l-.015.011-.005,0,0,0-.007.007-.006,0-.051.04-.1.081-.053.046c-.035.031-.07.062-.1.092l-.006,0,0,0-.022.022a3.766,3.766,0,0,0-.274.276c-.051.055-.1.114-.153.175q-.055.061-.11.132l-.007.009-.006.007c-.075.094-.154.2-.239.329l0,0,0,0,0,.005c-.039.059-.079.125-.12.193s-.07.118-.1.169l-.1.2c-.033.064-.064.127-.092.186a3.572,3.572,0,0,0-.167.408v0l0,0c-.046.132-.092.276-.129.414l0,0,0,.007a3.95,3.95,0,0,0-.107.478,5.244,5.244,0,0,0-.02,1.717,5.335,5.335,0,0,0,.509,1.6,3.59,3.59,0,0,0,.169.318c.074.125.154.248.241.368l.029.046a3.906,3.906,0,0,0,.316.4c.077.083.178.195.257.276s.188.182.276.255h0c.1.083.134.116.224.184.108.086.221.165.331.239l0,0,.11.07.123.073.081.046.015.007.118.064.029.015c.131.066.294.147.476.219.039.017.094.037.158.061l.053.022.1.033.066.02.024.007.006,0,.035.011.061.018.059.017.005,0a5.379,5.379,0,0,0,.664.142l.02,0,.059.009h.005l.053.007.118.013c.053.006.125.009.178.015s.108.006.165.007h0l.081,0c.074,0,.173,0,.246,0s.178-.009.254-.013c.16-.015.375-.042.535-.068a3.907,3.907,0,0,0,.412-.09l.1-.029c.1-.028.195-.057.278-.083l.1-.037c.077-.028.154-.057.23-.088l.039-.015a3.154,3.154,0,0,0,.294-.134l.125-.063c.11-.059.248-.134.347-.2l.009-.007c.092-.059.182-.119.27-.184l.057-.04.1-.075.077-.062.147-.118a3.527,3.527,0,0,0,.3-.283l.009-.007.013-.017c.077-.079.165-.175.267-.291l.007-.007h0a4.782,4.782,0,0,0,.447-.612l0-.009c.042-.066.083-.136.125-.213h0l.053-.1c.026-.046.05-.092.07-.132l.018-.042c.035-.072.07-.145.1-.222.046-.1.09-.211.121-.305v0c.057-.156.108-.324.154-.5.028-.108.053-.215.07-.316s.039-.221.053-.335l.009-.077c.016-.154.028-.314.031-.48l0-.017,0-.011C227.438,324.789,227.434,324.656,227.427,324.52Z" transform="translate(-216.687 -319.456)" fill="#fb8c00"/>
          <g id="Grupo_71386" data-name="Grupo 71386" transform="translate(0)">
            <g id="Grupo_71385" data-name="Grupo 71385" clip-path="url(#clip-path)">
              <path id="Trazado_104822" data-name="Trazado 104822" d="M217.434,323.578a1.615,1.615,0,0,0-.085.447,2.559,2.559,0,0,0,.386,1.364c1.493,2.6,5.578,2.583,7.535.57a1.982,1.982,0,0,0,.2-2.686,2.433,2.433,0,0,0-2.2-.384,7.023,7.023,0,0,1-2.283.333,9.6,9.6,0,0,1-1.476-.449,1.907,1.907,0,0,0-1.5.05A1.339,1.339,0,0,0,217.434,323.578Z" transform="translate(-216.133 -316.784)" fill="#fb8c00" opacity="0.9" style="mix-blend-mode: multiply;isolation: isolate"/>
              <g id="Grupo_71384" data-name="Grupo 71384" transform="translate(1.387 0.649)" style="mix-blend-mode: screen;isolation: isolate">
                <path id="Trazado_104823" data-name="Trazado 104823" d="M218.764,320.491l-.05.028a2.467,2.467,0,0,0-1.217,1.311,1.2,1.2,0,0,0,.671,1.5c.59.169,1.16-.267,1.746-.447a8.893,8.893,0,0,1,1.717-.167,1.6,1.6,0,0,0,1.535-1.629c-.156-1.232-1.53-1.375-2.5-1.235A5.555,5.555,0,0,0,218.764,320.491Z" transform="translate(-217.441 -319.809)" fill="#fb8c00"/>
                <path id="Trazado_104824" data-name="Trazado 104824" d="M221.01,321.257c-.3.232-.193.48-.088.846a8.713,8.713,0,0,0,.415,1.522,1.112,1.112,0,0,0,.737.678c.847.136,1.039-.939,1.2-1.518a1.292,1.292,0,0,0-.572-1.577,1.556,1.556,0,0,0-1.506-.066A1.278,1.278,0,0,0,221.01,321.257Z" transform="translate(-214.615 -318.829)" fill="#fb8c00" opacity="0.7" style="mix-blend-mode: screen;isolation: isolate"/>
              </g>
            </g>
          </g>
        </g>
      </g>
    </g>
    <g id="Grupo_71395" data-name="Grupo 71395" transform="translate(1286.879 2989.908)">
      <g id="Grupo_71394" data-name="Grupo 71394">
        <g id="Grupo_71393" data-name="Grupo 71393">
          <path id="Trazado_104826" data-name="Trazado 104826" d="M298.953,142.684v-.01c0-.02-.007-.133-.03-.3l-.006-.044-.011-.066a4.119,4.119,0,0,0-.557-1.5l0,0c-.03-.049-.062-.1-.095-.147h0a4.111,4.111,0,0,0-.533-.639,3.915,3.915,0,0,0-.307-.273c-.068-.052-.137-.1-.208-.154l-.01-.007-.01-.007-.035-.024q-.068-.047-.149-.1h0l-.007,0c-.025-.016-.052-.033-.081-.048l-.038-.023-.033-.017-.025-.014a4.244,4.244,0,0,0-.508-.236c-.045-.018-.081-.031-.1-.038l-.033-.011-.031-.01h0l-.007,0-.051-.017h-.007l-.007,0-.035-.011-.047-.013-.04-.013-.023-.006h-.007l-.007,0-.014,0-.044-.013-.038-.008-.035-.008h0l-.023,0-.042-.01-.031-.007-.041-.009h-.007l-.031-.006-.018,0-.023,0h-.011l-.013,0-.034-.006-.021,0h0l-.037-.006-.033-.006-.018,0-.03,0-.027,0-.047-.006-.042,0h-.017l-.04,0-.058,0-.04,0-.044,0-.047,0h-.1c-.084,0-.165,0-.249,0l-.052,0-.057,0-.033,0-.079.007-.028,0c-.038,0-.075.007-.109.013l-.051.006h-.011l-.078.011-.059.01-.1.02c-.119.025-.237.055-.353.09-.071.02-.132.04-.209.068a4.146,4.146,0,0,0-.908.458h0l-.085.058-.01.008c-.05.034-.1.069-.144.106l-.011.008,0,0,0,0-.006.006,0,0-.04.031-.075.062-.041.035-.078.071,0,0,0,0-.017.017a2.868,2.868,0,0,0-.211.212c-.039.042-.079.088-.117.134q-.043.047-.085.1l-.006.007,0,.006c-.058.072-.119.154-.185.253h0v0l0,0c-.03.045-.061.1-.092.148l-.078.13-.076.151-.072.143a3.186,3.186,0,0,0-.127.314h0c-.035.1-.071.212-.1.318v.008a2.976,2.976,0,0,0-.082.368,4.027,4.027,0,0,0-.016,1.321,4.151,4.151,0,0,0,.39,1.234c.048.1.085.167.131.245.057.1.119.191.185.283l.023.035a2.828,2.828,0,0,0,.243.307c.059.064.137.15.2.212s.144.14.212.2h0c.074.064.1.089.172.141s.168.127.255.184h0l.085.054.095.057.062.035.011.006.09.049.023.011a3.689,3.689,0,0,0,.366.168c.03.013.071.028.122.047l.041.016.074.025.051.017.018.006h0l.028.008.047.014.045.013h0a3.885,3.885,0,0,0,.51.109h.016l.045.007h0l.041.006.09.01.137.011c.037,0,.084,0,.127.006h0l.064,0h.189c.059,0,.136-.007.2-.01.123-.013.289-.033.411-.052a3,3,0,0,0,.317-.069l.074-.023.213-.064.075-.028c.059-.021.119-.044.177-.068l.03-.011c.069-.027.151-.066.226-.1.033-.016.064-.033.1-.049a3.023,3.023,0,0,0,.266-.153l.008-.006c.071-.045.14-.092.208-.141l.044-.03.075-.059.059-.048.113-.091a2.7,2.7,0,0,0,.233-.218l.006-.006.011-.013c.059-.061.127-.134.205-.223l.006-.006h0a3.752,3.752,0,0,0,.344-.472l0-.006c.031-.051.064-.106.1-.164h0l.041-.075c.02-.035.038-.071.052-.1l.016-.033c.027-.055.052-.112.079-.171.035-.081.069-.163.093-.235h0c.044-.12.084-.249.119-.385.021-.083.041-.165.054-.243s.03-.17.041-.257l.007-.059c.013-.119.021-.242.024-.369v-.021C298.961,142.891,298.959,142.789,298.953,142.684Z" transform="translate(-290.693 -138.789)" fill="url(#radial-gradient)"/>
          <g id="Grupo_71392" data-name="Grupo 71392" transform="translate(0)">
            <g id="Grupo_71391" data-name="Grupo 71391" clip-path="url(#clip-path-2)">
              <path id="Trazado_104827" data-name="Trazado 104827" d="M291.419,142.7a1.294,1.294,0,0,0-.064.344,1.969,1.969,0,0,0,.3,1.049c1.148,2,4.29,1.987,5.794.438a1.523,1.523,0,0,0,.158-2.066,1.872,1.872,0,0,0-1.688-.3,5.406,5.406,0,0,1-1.756.256,7.383,7.383,0,0,1-1.135-.345,1.473,1.473,0,0,0-1.155.038A1.044,1.044,0,0,0,291.419,142.7Z" transform="translate(-290.419 -137.47)" fill="#62b2a5" opacity="0.9" style="mix-blend-mode: multiply;isolation: isolate"/>
              <g id="Grupo_71390" data-name="Grupo 71390" transform="translate(1.066 0.499)" style="mix-blend-mode: screen;isolation: isolate">
                <path id="Trazado_104828" data-name="Trazado 104828" d="M292.465,139.666l-.038.021a1.905,1.905,0,0,0-.937,1.008.924.924,0,0,0,.517,1.155c.453.13.892-.205,1.343-.344a6.827,6.827,0,0,1,1.321-.129,1.233,1.233,0,0,0,1.181-1.253c-.12-.947-1.176-1.058-1.922-.95A4.261,4.261,0,0,0,292.465,139.666Z" transform="translate(-291.447 -139.142)" fill="#fff"/>
                <path id="Trazado_104829" data-name="Trazado 104829" d="M294.97,140.526c-.233.178-.148.369-.068.65a6.7,6.7,0,0,0,.32,1.171.855.855,0,0,0,.567.522c.652.1.8-.723.922-1.168a1,1,0,0,0-.44-1.213,1.2,1.2,0,0,0-1.158-.051A.972.972,0,0,0,294.97,140.526Z" transform="translate(-290.051 -138.658)" fill="#fff" opacity="0.7" style="mix-blend-mode: screen;isolation: isolate"/>
              </g>
            </g>
          </g>
        </g>
      </g>
    </g>
    <g id="Grupo_71755" data-name="Grupo 71755" transform="translate(1099.293 3154.658)">
      <g id="Grupo_71394-2" data-name="Grupo 71394">
        <g id="Grupo_71393-2" data-name="Grupo 71393">
          <path id="Trazado_104826-2" data-name="Trazado 104826" d="M298.953,142.684v-.01c0-.02-.007-.133-.03-.3l-.006-.044-.011-.066a4.119,4.119,0,0,0-.557-1.5l0,0c-.03-.049-.062-.1-.095-.147h0a4.111,4.111,0,0,0-.533-.639,3.915,3.915,0,0,0-.307-.273c-.068-.052-.137-.1-.208-.154l-.01-.007-.01-.007-.035-.024q-.068-.047-.149-.1h0l-.007,0c-.025-.016-.052-.033-.081-.048l-.038-.023-.033-.017-.025-.014a4.244,4.244,0,0,0-.508-.236c-.045-.018-.081-.031-.1-.038l-.033-.011-.031-.01h0l-.007,0-.051-.017h-.007l-.007,0-.035-.011-.047-.013-.04-.013-.023-.006h-.007l-.007,0-.014,0-.044-.013-.038-.008-.035-.008h0l-.023,0-.042-.01-.031-.007-.041-.009h-.007l-.031-.006-.018,0-.023,0h-.011l-.013,0-.034-.006-.021,0h0l-.037-.006-.033-.006-.018,0-.03,0-.027,0-.047-.006-.042,0h-.017l-.04,0-.058,0-.04,0-.044,0-.047,0h-.1c-.084,0-.165,0-.249,0l-.052,0-.057,0-.033,0-.079.007-.028,0c-.038,0-.075.007-.109.013l-.051.006h-.011l-.078.011-.059.01-.1.02c-.119.025-.237.055-.353.09-.071.02-.132.04-.209.068a4.146,4.146,0,0,0-.908.458h0l-.085.058-.01.008c-.05.034-.1.069-.144.106l-.011.008,0,0,0,0-.006.006,0,0-.04.031-.075.062-.041.035-.078.071,0,0,0,0-.017.017a2.868,2.868,0,0,0-.211.212c-.039.042-.079.088-.117.134q-.043.047-.085.1l-.006.007,0,.006c-.058.072-.119.154-.185.253h0v0l0,0c-.03.045-.061.1-.092.148l-.078.13-.076.151-.072.143a3.186,3.186,0,0,0-.127.314h0c-.035.1-.071.212-.1.318v.008a2.976,2.976,0,0,0-.082.368,4.027,4.027,0,0,0-.016,1.321,4.151,4.151,0,0,0,.39,1.234c.048.1.085.167.131.245.057.1.119.191.185.283l.023.035a2.828,2.828,0,0,0,.243.307c.059.064.137.15.2.212s.144.14.212.2h0c.074.064.1.089.172.141s.168.127.255.184h0l.085.054.095.057.062.035.011.006.09.049.023.011a3.689,3.689,0,0,0,.366.168c.03.013.071.028.122.047l.041.016.074.025.051.017.018.006h0l.028.008.047.014.045.013h0a3.885,3.885,0,0,0,.51.109h.016l.045.007h0l.041.006.09.01.137.011c.037,0,.084,0,.127.006h0l.064,0h.189c.059,0,.136-.007.2-.01.123-.013.289-.033.411-.052a3,3,0,0,0,.317-.069l.074-.023.213-.064.075-.028c.059-.021.119-.044.177-.068l.03-.011c.069-.027.151-.066.226-.1.033-.016.064-.033.1-.049a3.023,3.023,0,0,0,.266-.153l.008-.006c.071-.045.14-.092.208-.141l.044-.03.075-.059.059-.048.113-.091a2.7,2.7,0,0,0,.233-.218l.006-.006.011-.013c.059-.061.127-.134.205-.223l.006-.006h0a3.752,3.752,0,0,0,.344-.472l0-.006c.031-.051.064-.106.1-.164h0l.041-.075c.02-.035.038-.071.052-.1l.016-.033c.027-.055.052-.112.079-.171.035-.081.069-.163.093-.235h0c.044-.12.084-.249.119-.385.021-.083.041-.165.054-.243s.03-.17.041-.257l.007-.059c.013-.119.021-.242.024-.369v-.021C298.961,142.891,298.959,142.789,298.953,142.684Z" transform="translate(-290.693 -138.789)" fill="url(#radial-gradient)"/>
          <g id="Grupo_71392-2" data-name="Grupo 71392" transform="translate(0)">
            <g id="Grupo_71391-2" data-name="Grupo 71391" clip-path="url(#clip-path-2)">
              <path id="Trazado_104827-2" data-name="Trazado 104827" d="M291.419,142.7a1.294,1.294,0,0,0-.064.344,1.969,1.969,0,0,0,.3,1.049c1.148,2,4.29,1.987,5.794.438a1.523,1.523,0,0,0,.158-2.066,1.872,1.872,0,0,0-1.688-.3,5.406,5.406,0,0,1-1.756.256,7.383,7.383,0,0,1-1.135-.345,1.473,1.473,0,0,0-1.155.038A1.044,1.044,0,0,0,291.419,142.7Z" transform="translate(-290.419 -137.47)" fill="#62b2a5" opacity="0.9" style="mix-blend-mode: multiply;isolation: isolate"/>
              <g id="Grupo_71390-2" data-name="Grupo 71390" transform="translate(1.066 0.499)" style="mix-blend-mode: screen;isolation: isolate">
                <path id="Trazado_104828-2" data-name="Trazado 104828" d="M292.465,139.666l-.038.021a1.905,1.905,0,0,0-.937,1.008.924.924,0,0,0,.517,1.155c.453.13.892-.205,1.343-.344a6.827,6.827,0,0,1,1.321-.129,1.233,1.233,0,0,0,1.181-1.253c-.12-.947-1.176-1.058-1.922-.95A4.261,4.261,0,0,0,292.465,139.666Z" transform="translate(-291.447 -139.142)" fill="#fff"/>
                <path id="Trazado_104829-2" data-name="Trazado 104829" d="M294.97,140.526c-.233.178-.148.369-.068.65a6.7,6.7,0,0,0,.32,1.171.855.855,0,0,0,.567.522c.652.1.8-.723.922-1.168a1,1,0,0,0-.44-1.213,1.2,1.2,0,0,0-1.158-.051A.972.972,0,0,0,294.97,140.526Z" transform="translate(-290.051 -138.658)" fill="#fff" opacity="0.7" style="mix-blend-mode: screen;isolation: isolate"/>
              </g>
            </g>
          </g>
        </g>
      </g>
    </g>
    <g id="Grupo_71401" data-name="Grupo 71401" transform="translate(1304.998 3210.797)">
      <g id="Grupo_71400" data-name="Grupo 71400" transform="translate(0 0)">
        <g id="Grupo_71399" data-name="Grupo 71399">
          <path id="Trazado_104831" data-name="Trazado 104831" d="M308.842,345.488v-.013c0-.021-.008-.148-.033-.336l-.006-.051-.013-.073a4.612,4.612,0,0,0-.625-1.688l0,0c-.033-.056-.068-.109-.1-.163h0a4.538,4.538,0,0,0-.6-.717,4.106,4.106,0,0,0-.344-.306c-.076-.06-.154-.117-.233-.173l-.011-.009-.01-.006-.041-.029c-.051-.035-.106-.071-.167-.108h0l-.008,0-.09-.054-.043-.024-.036-.021-.029-.016a4.76,4.76,0,0,0-.57-.263c-.051-.021-.09-.035-.113-.043l-.036-.013-.035-.011,0,0-.008,0-.057-.019-.008,0-.008,0-.04-.013-.052-.016-.044-.013-.025-.006-.008,0-.008,0-.014,0-.051-.013-.043-.011-.04-.01h0l-.025-.006-.048-.011-.035-.006-.046-.009-.008,0-.035-.008-.021,0-.025,0h0l-.008,0-.014,0-.038-.006-.024,0h0l-.041-.006-.036,0-.021,0-.032,0-.032,0-.052-.006-.048,0-.016,0,0,0-.044,0-.065,0-.044,0-.049,0-.052,0h-.06l-.022,0H304.3c-.094,0-.186,0-.279,0l-.059,0-.063,0-.037,0-.089.008-.032,0-.122.014-.057.008h0l-.011,0-.087.014-.067.011c-.051.008-.09.016-.117.022-.133.027-.267.062-.4.1-.079.022-.148.046-.235.078a4.586,4.586,0,0,0-1.019.514h0l-.1.067-.011.008c-.056.038-.108.079-.162.121l-.013.01,0,0,0,0-.006,0,0,0-.045.035-.084.07-.046.04-.087.079,0,0,0,0-.019.018c-.144.135-.232.232-.236.238-.044.049-.089.1-.132.151s-.063.075-.1.116l-.006.008,0,.006c-.065.081-.133.173-.208.284l0,0,0,0,0,0c-.033.051-.068.106-.1.167s-.06.1-.087.144l-.086.171-.081.159a3.605,3.605,0,0,0-.143.354h0l0,0c-.04.116-.079.24-.113.357v0l0,0a3.368,3.368,0,0,0-.092.414,4.645,4.645,0,0,0,.421,2.868c.054.109.1.186.148.274.063.106.133.213.208.317l.025.04a3.176,3.176,0,0,0,.273.344c.067.071.154.168.222.238s.162.157.238.221h0c.083.071.116.1.194.159.094.073.189.143.286.206h0l.1.06c.037.024.073.046.106.065l.07.04.013.006.1.054.025.013c.113.059.254.127.411.19.033.013.079.032.136.052l.046.017.082.029.057.019.021.006,0,0,.03.009.052.016.051.014,0,0a4.35,4.35,0,0,0,.573.121l.017,0,.051.006,0,0,.046,0,.1.013.154.011c.043,0,.094.006.143.008h0l.071,0c.063,0,.149,0,.213,0s.154-.006.219-.011c.138-.013.324-.035.462-.059a3.357,3.357,0,0,0,.355-.076l.082-.026.24-.071.084-.032c.067-.024.133-.049.2-.076l.033-.013c.078-.03.17-.075.254-.117l.108-.054a3.034,3.034,0,0,0,.3-.173l.01,0c.079-.051.157-.1.233-.159l.049-.035.084-.067.067-.052.127-.1a2.922,2.922,0,0,0,.262-.246l.008-.006.011-.013c.067-.07.143-.151.23-.251l.006-.008h0a4.133,4.133,0,0,0,.386-.528l0-.006c.036-.057.071-.119.108-.184h0l.046-.086c.022-.04.043-.078.06-.114l.016-.035c.03-.062.06-.125.089-.192.04-.092.078-.184.1-.265h0c.049-.137.094-.281.133-.432.024-.094.046-.187.06-.273s.033-.19.046-.289l.008-.067c.014-.133.024-.271.027-.414l0-.014,0-.011C308.851,345.719,308.848,345.6,308.842,345.488Z" transform="translate(-299.571 -341.116)" fill="#fb8c00"/>
          <g id="Grupo_71398" data-name="Grupo 71398" transform="translate(0)">
            <g id="Grupo_71397" data-name="Grupo 71397" clip-path="url(#clip-path-4)">
              <path id="Trazado_104832" data-name="Trazado 104832" d="M300.3,345.109a1.476,1.476,0,0,0-.071.387,2.213,2.213,0,0,0,.333,1.177c1.289,2.249,4.815,2.23,6.5.49a1.709,1.709,0,0,0,.176-2.317,2.105,2.105,0,0,0-1.895-.333,6.024,6.024,0,0,1-1.971.287,7.954,7.954,0,0,1-1.274-.387,1.66,1.66,0,0,0-1.3.043A1.176,1.176,0,0,0,300.3,345.109Z" transform="translate(-299.183 -339.246)" fill="#fb8c00" opacity="0.9" style="mix-blend-mode: multiply;isolation: isolate"/>
              <g id="Grupo_71396" data-name="Grupo 71396" transform="translate(1.196 0.56)" style="mix-blend-mode: screen;isolation: isolate">
                <path id="Trazado_104833" data-name="Trazado 104833" d="M301.468,342.058l-.043.024a2.133,2.133,0,0,0-1.052,1.132,1.036,1.036,0,0,0,.581,1.3c.508.146,1-.23,1.508-.386a7.651,7.651,0,0,1,1.482-.144,1.386,1.386,0,0,0,1.325-1.406c-.135-1.063-1.32-1.187-2.157-1.066A4.78,4.78,0,0,0,301.468,342.058Z" transform="translate(-300.325 -341.469)" fill="#fb8c00"/>
                <path id="Trazado_104834" data-name="Trazado 104834" d="M303.867,342.877c-.262.2-.167.414-.076.732a7.6,7.6,0,0,0,.359,1.314.96.96,0,0,0,.636.586c.732.116.9-.813,1.035-1.311a1.119,1.119,0,0,0-.494-1.363,1.347,1.347,0,0,0-1.3-.056A1.09,1.09,0,0,0,303.867,342.877Z" transform="translate(-298.346 -340.783)" fill="#fb8c00" opacity="0.7" style="mix-blend-mode: screen;isolation: isolate"/>
              </g>
            </g>
          </g>
        </g>
      </g>
    </g>
    <g id="Grupo_71756" data-name="Grupo 71756" transform="translate(1326.678 3027.712)">
      <g id="Grupo_71400-2" data-name="Grupo 71400" transform="translate(0 0)">
        <g id="Grupo_71399-2" data-name="Grupo 71399">
          <path id="Trazado_104831-2" data-name="Trazado 104831" d="M306.03,344.162v-.009c0-.014-.006-.1-.023-.234l0-.035-.009-.051a3.212,3.212,0,0,0-.436-1.176l0,0c-.023-.039-.048-.076-.073-.114h0a3.159,3.159,0,0,0-.417-.5,2.882,2.882,0,0,0-.24-.213c-.053-.042-.107-.082-.163-.12l-.008-.007-.007,0-.029-.02c-.035-.024-.074-.05-.116-.075h0l-.006,0-.063-.038-.03-.016-.025-.014-.02-.011a3.333,3.333,0,0,0-.4-.183l-.079-.03-.025-.009-.024-.008,0,0h-.006l-.04-.013-.006,0h-.006l-.028-.009-.036-.011-.031-.009-.018,0-.006,0h-.006l-.01,0-.035-.009-.03-.008-.028-.007h0l-.018,0-.033-.008-.024,0-.032-.007h-.005l-.024-.006-.014,0-.018,0h-.009l-.01,0-.027,0-.017,0h0l-.029,0-.025,0-.014,0-.022,0-.022,0-.037,0-.033,0h-.013l-.031,0-.045,0-.031,0h-.034l-.036,0h-.075c-.065,0-.129,0-.194,0l-.041,0-.044,0h-.025l-.062.005-.022,0-.085.01-.04.005h-.009l-.061.01-.046.008c-.035.005-.063.011-.082.015-.093.019-.186.043-.276.07-.055.015-.1.032-.164.054a3.191,3.191,0,0,0-.71.358h0l-.066.046-.008.006c-.039.027-.075.055-.113.084l-.009.007,0,0,0,0,0,0,0,0-.031.024-.059.049-.032.028-.061.055,0,0,0,0-.013.012c-.1.094-.161.161-.165.166-.031.034-.062.07-.092.105s-.044.052-.066.081l0,.006,0,0c-.045.056-.093.12-.145.2h0v0l0,0c-.023.035-.048.074-.072.116s-.042.071-.061.1l-.06.119-.056.111a2.506,2.506,0,0,0-.1.247h0c-.028.081-.055.167-.078.249v.007a2.366,2.366,0,0,0-.064.289,3.159,3.159,0,0,0-.012,1.033,3.033,3.033,0,0,0,.115.5,3.074,3.074,0,0,0,.19.47c.038.076.066.129.1.191s.093.148.145.221l.018.028a2.206,2.206,0,0,0,.19.24c.046.05.107.117.155.166s.113.109.166.154h0c.057.05.081.07.135.111s.132.1.2.144h0l.066.042c.025.017.051.032.074.045l.049.028.009,0,.071.038.018.009c.078.041.177.088.286.133l.1.036.032.012.057.02.04.013.014,0h0l.021.007.036.011.035.01h0a3.026,3.026,0,0,0,.4.084l.012,0,.035,0h0l.032,0,.071.009.107.008c.03,0,.065,0,.1.006h.051c.044,0,.1,0,.148,0s.107,0,.153-.008c.1-.009.225-.024.322-.041a2.317,2.317,0,0,0,.248-.053l.057-.018.167-.05.059-.022c.046-.017.093-.034.138-.053l.023-.009c.054-.021.118-.052.177-.082l.075-.038a2.114,2.114,0,0,0,.208-.12l.007,0c.055-.035.109-.072.163-.111l.034-.024.059-.046.046-.036.088-.071a2.041,2.041,0,0,0,.182-.171l.006,0,.008-.009c.046-.049.1-.1.16-.175l0-.005h0a2.879,2.879,0,0,0,.269-.368l0,0c.025-.04.05-.083.075-.128h0l.032-.06c.015-.028.03-.054.042-.08l.011-.024c.021-.043.042-.087.062-.134.028-.064.054-.128.073-.185h0c.034-.1.065-.2.093-.3.017-.065.032-.131.042-.19s.023-.133.032-.2l.006-.046c.01-.093.017-.189.019-.289V344.4C306.036,344.323,306.034,344.242,306.03,344.162Z" transform="translate(-299.571 -341.116)" fill="#fb8c00"/>
          <g id="Grupo_71398-2" data-name="Grupo 71398" transform="translate(0)">
            <g id="Grupo_71397-2" data-name="Grupo 71397" clip-path="url(#clip-path-5)">
              <path id="Trazado_104832-2" data-name="Trazado 104832" d="M300.283,344.865a1.03,1.03,0,0,0-.05.27,1.542,1.542,0,0,0,.232.82c.9,1.567,3.354,1.553,4.532.342a1.19,1.19,0,0,0,.123-1.614,1.467,1.467,0,0,0-1.32-.232,4.2,4.2,0,0,1-1.373.2,5.549,5.549,0,0,1-.888-.27,1.157,1.157,0,0,0-.9.03A.82.82,0,0,0,300.283,344.865Z" transform="translate(-299.501 -340.78)" fill="#fb8c00" opacity="0.9" style="mix-blend-mode: multiply;isolation: isolate"/>
              <g id="Grupo_71396-2" data-name="Grupo 71396" transform="translate(0.833 0.39)" style="mix-blend-mode: screen;isolation: isolate">
                <path id="Trazado_104833-2" data-name="Trazado 104833" d="M301.121,341.879l-.03.017a1.486,1.486,0,0,0-.733.788.722.722,0,0,0,.4.9c.354.1.7-.16,1.05-.269a5.329,5.329,0,0,1,1.033-.1.966.966,0,0,0,.923-.98c-.094-.741-.92-.827-1.5-.743A3.33,3.33,0,0,0,301.121,341.879Z" transform="translate(-300.325 -341.469)" fill="#fb8c00"/>
                <path id="Trazado_104834-2" data-name="Trazado 104834" d="M303.815,342.8c-.182.14-.116.289-.053.51a5.3,5.3,0,0,0,.25.915.669.669,0,0,0,.443.408c.51.081.625-.566.721-.913a.78.78,0,0,0-.344-.95.939.939,0,0,0-.905-.039A.752.752,0,0,0,303.815,342.8Z" transform="translate(-299.969 -341.346)" fill="#fb8c00" opacity="0.7" style="mix-blend-mode: screen;isolation: isolate"/>
              </g>
            </g>
          </g>
        </g>
      </g>
    </g>
    <g id="Grupo_71752" data-name="Grupo 71752" transform="translate(1321.829 3056.105)">
      <g id="Grupo_71741" data-name="Grupo 71741" transform="translate(21.065 18.917)" opacity="0.439">
        <g id="Grupo_71749" data-name="Grupo 71749" transform="translate(0)">
          <path id="Trazado_106212" data-name="Trazado 106212" d="M391.888,369.083l0-.035c0-.065.022-.464.1-1.051.006-.053.014-.1.022-.157.012-.073.024-.149.035-.228A14.4,14.4,0,0,1,394,362.349l.008-.012q.159-.259.33-.513h0a14.52,14.52,0,0,1,1.866-2.237,12.738,12.738,0,0,1,1.076-.951c.234-.189.475-.367.723-.54l.035-.027.033-.022.126-.088c.161-.108.332-.222.519-.336l0,0,.022-.012c.09-.055.183-.112.283-.169.043-.026.088-.049.134-.075l.112-.065.09-.049a14.605,14.605,0,0,1,1.776-.823c.159-.063.283-.108.354-.134l.11-.037.108-.039.016,0,.026-.008.179-.059.025-.008.026-.008.122-.037.161-.049L402.4,356l.079-.022.023-.006.028-.008.045-.012.157-.041.13-.033.126-.03.006,0,.078-.018.151-.035.106-.022.143-.029.027-.006.108-.022.065-.012.079-.016.014,0,.026,0,.045-.008.118-.02.075-.014h0l.13-.02.112-.018.067-.008.1-.014.1-.014.161-.018.149-.016.047-.006.012,0,.138-.012c.067-.006.134-.012.2-.016l.139-.012c.051,0,.1-.006.153-.008l.163-.008.1,0,.09,0h.071l.077,0c.291-.006.579,0,.87.01l.185.008c.065,0,.13.006.194.012l.114.006c.094.008.189.016.279.026l.1.008c.134.014.261.029.385.045l.177.024-.012,0,.014,0,.037,0,.273.043c.069.012.138.022.206.035.157.027.281.051.365.069.416.086.831.191,1.24.314.243.069.46.139.727.238a14.466,14.466,0,0,1,3.18,1.6l0,0h0c.1.067.2.134.295.2l.039.027c.169.12.336.244.5.373l.039.029.016.012.012.01.02.016.016.012.135.108c.09.075.179.147.263.22l.141.124c.1.084.189.167.275.246l.012.01.012.012.059.055c.448.418.721.723.739.742.14.149.275.308.411.47.1.112.194.232.3.357l.022.025.014.02c.2.253.412.54.644.886l0,.008.006.008.01.014c.1.157.214.334.322.521.094.159.189.316.271.452l.269.532c.088.173.173.34.249.5a10.886,10.886,0,0,1,.45,1.1v0l0,0c.126.361.247.744.35,1.114l0,.014,0,.016a10.5,10.5,0,0,1,.287,1.289,13.313,13.313,0,0,1,.216,2.33,14.167,14.167,0,0,1-.159,2.291,14.451,14.451,0,0,1-1.369,4.318c-.167.342-.295.581-.459.853q-.3.5-.648.992l-.08.122a9.465,9.465,0,0,1-.849,1.073c-.208.224-.477.526-.693.743s-.5.491-.739.688h0c-.257.222-.363.314-.6.493-.293.232-.591.446-.892.644l0,0q-.147.1-.295.188c-.116.073-.23.142-.334.2-.053.031-.132.075-.218.124l-.039.022-.316.169-.077.041c-.35.181-.792.395-1.281.589-.106.043-.251.1-.424.165l-.147.055-.255.088-.179.059-.065.02-.012,0-.1.029-.163.049-.159.045-.014,0a13.678,13.678,0,0,1-1.784.379l-.055.008-.161.022-.016,0-.139.02-.318.033c-.143.014-.334.028-.477.039s-.295.018-.448.024H406.8l-.222.006c-.2,0-.464,0-.664,0s-.475-.026-.68-.035c-.432-.041-1.01-.11-1.44-.183a10.686,10.686,0,0,1-1.108-.242c-.082-.024-.169-.049-.257-.077-.257-.075-.524-.157-.746-.224l-.261-.1c-.208-.073-.417-.151-.621-.236l-.1-.039c-.242-.092-.532-.232-.794-.363-.112-.055-.222-.112-.332-.169a9.8,9.8,0,0,1-.935-.538l-.028-.02c-.246-.157-.489-.32-.729-.495l-.153-.1-.259-.208c-.071-.055-.139-.11-.208-.167l-.395-.314a9.254,9.254,0,0,1-.819-.764l-.02-.02-.039-.041c-.206-.216-.442-.47-.715-.782l-.018-.022,0,0a12.78,12.78,0,0,1-1.2-1.648l-.012-.02c-.112-.179-.224-.369-.336-.574l0,0,0,0-.143-.265c-.067-.124-.132-.246-.185-.357l-.051-.11c-.094-.193-.185-.393-.275-.6-.126-.283-.244-.572-.326-.823l0,0c-.153-.422-.293-.872-.415-1.348-.077-.289-.143-.58-.189-.849-.057-.293-.1-.593-.143-.9-.01-.071-.018-.137-.026-.206-.045-.416-.075-.847-.085-1.291l0-.047v-.03C391.863,369.806,391.869,369.448,391.888,369.083Z" transform="translate(-391.865 -355.464)" opacity="0.4" style="mix-blend-mode: multiply;isolation: isolate"/>
        </g>
      </g>
      <g id="Grupo_71747" data-name="Grupo 71747" transform="translate(0 0)">
        <g id="Grupo_71746" data-name="Grupo 71746">
          <g id="Grupo_71745" data-name="Grupo 71745">
            <path id="Trazado_106213" data-name="Trazado 106213" d="M395.9,365.674l0-.053c0-.1.031-.676.147-1.532.01-.075.022-.151.034-.226.016-.108.033-.22.051-.334a20.953,20.953,0,0,1,2.844-7.667l.01-.016c.155-.251.314-.5.481-.745l0,0a20.967,20.967,0,0,1,2.717-3.255,18.365,18.365,0,0,1,1.566-1.387c.342-.273.693-.534,1.055-.788l.051-.039.049-.031c.061-.043.122-.087.185-.128.232-.159.481-.322.754-.491l0,0,.031-.018c.13-.081.267-.161.41-.246l.194-.11.165-.092.132-.073a21.079,21.079,0,0,1,2.587-1.2c.232-.09.411-.157.515-.194l.159-.055.159-.055.024-.008.035-.012.259-.084.037-.012.037-.012.177-.055c.073-.022.167-.051.238-.071l.2-.059.116-.031.033-.01.041-.012.065-.018.228-.059c.057-.016.128-.033.191-.049l.181-.043.01,0,.114-.027.22-.049.155-.033.21-.043.037-.008.159-.031.094-.016.114-.024.02,0,.039-.008.065-.012.171-.028.11-.02h0l.189-.029.163-.024.1-.014.147-.02.141-.018c.079-.01.157-.02.234-.027l.216-.024.073-.008.016,0,.2-.018q.147-.015.295-.024l.2-.016c.077-.006.151-.01.226-.014l.238-.012.147,0,.13-.006.1,0,.112,0q.634-.012,1.267.014l.269.012.283.016.167.012q.206.015.407.035l.142.014c.192.02.379.041.558.065l.259.035-.02,0,.024,0,.053.008.4.061.3.051c.228.041.409.077.53.1.607.124,1.21.277,1.805.456.356.1.67.2,1.061.348a21.126,21.126,0,0,1,4.63,2.338l0,0,0,0c.145.1.289.194.43.3l.055.039c.247.175.489.358.729.544l.059.043.022.018.02.014.028.024.023.018c.065.051.13.1.195.157.134.108.261.214.385.32.069.059.137.118.206.179.141.124.275.244.4.358l.02.016.016.016.088.082c.652.609,1.049,1.053,1.074,1.08.2.218.4.448.6.684.141.163.285.336.432.521l.03.037.024.029c.291.369.6.786.937,1.289l.008.012.006.012.016.02c.151.23.31.487.469.758.138.232.273.462.393.658l.393.776c.13.251.253.495.363.721a15.025,15.025,0,0,1,.654,1.6l0,0,0,.006c.185.525.359,1.082.511,1.623l.006.02.006.022a15.984,15.984,0,0,1,.416,1.876,18.988,18.988,0,0,1,.312,3.394,20.981,20.981,0,0,1-.98,6.559,20.618,20.618,0,0,1-1.245,3.066,13.51,13.51,0,0,1-.668,1.243c-.287.487-.605.968-.943,1.444l-.118.175a13.966,13.966,0,0,1-1.236,1.566c-.3.324-.7.766-1.012,1.08s-.735.715-1.076,1h0c-.373.324-.528.458-.88.721-.426.336-.86.648-1.3.937l-.006,0c-.143.094-.285.187-.428.275-.169.1-.338.206-.487.291-.079.045-.191.108-.318.179l-.059.031c-.132.075-.287.157-.458.247l-.114.059c-.509.263-1.153.575-1.864.86-.153.061-.365.143-.619.238-.073.028-.145.057-.214.081l-.371.13-.261.085-.092.03-.02.006-.139.043c-.071.022-.165.051-.236.071l-.234.067-.02.006a19.765,19.765,0,0,1-2.6.552l-.078.012c-.071.01-.153.022-.234.031l-.024,0-.2.025-.464.051c-.208.022-.487.041-.7.057s-.428.026-.652.033h-.01c-.112,0-.222.006-.32.008-.291.006-.678,0-.968,0s-.693-.037-.99-.051c-.631-.059-1.471-.161-2.1-.265-.489-.082-1.137-.218-1.615-.353-.12-.033-.245-.073-.375-.112-.375-.11-.764-.23-1.088-.326l-.379-.145c-.3-.108-.607-.222-.9-.344l-.151-.057c-.352-.135-.772-.338-1.155-.53-.161-.079-.322-.161-.483-.246a14.552,14.552,0,0,1-1.361-.784l-.039-.027c-.36-.23-.713-.468-1.061-.721-.077-.053-.153-.106-.224-.153l-.379-.3-.3-.242-.576-.46a13.744,13.744,0,0,1-1.192-1.114l-.03-.027-.057-.061c-.3-.312-.644-.684-1.041-1.139l-.026-.031,0,0a18.546,18.546,0,0,1-1.748-2.4l-.02-.029q-.242-.392-.489-.835l0-.006,0,0c-.071-.126-.142-.253-.21-.385-.1-.181-.193-.359-.269-.521l-.075-.161q-.206-.421-.4-.874c-.181-.411-.354-.831-.475-1.2l0,0c-.222-.617-.426-1.271-.6-1.962-.112-.42-.21-.843-.275-1.236-.083-.426-.153-.864-.208-1.314-.016-.1-.028-.2-.037-.3-.069-.605-.11-1.234-.124-1.88l0-.067,0-.045C395.865,366.725,395.873,366.2,395.9,365.674Z" transform="translate(-395.87 -345.833)" fill="url(#radial-gradient-3)"/>
            <g id="Grupo_71744" data-name="Grupo 71744">
              <g id="Grupo_71743" data-name="Grupo 71743" clip-path="url(#clip-path-6)">
                <path id="Trazado_106214" data-name="Trazado 106214" d="M433.552,368.179a20.216,20.216,0,0,1,.562,2.556,10.759,10.759,0,0,1-3.75,10.407c-7.034,5.756-17.877,7.262-25.047,3.214a14.975,14.975,0,0,1-7.129-16.51,19.363,19.363,0,0,1,8.975-11.48,17.915,17.915,0,0,1,12.173-2.459C426.869,355.389,431.713,361.781,433.552,368.179Z" transform="translate(-395.859 -338.296)" fill="#1ea7ca" opacity="0.8" style="mix-blend-mode: multiply;isolation: isolate"/>
                <g id="Grupo_71742" data-name="Grupo 71742" transform="translate(3.246 1.258)" style="mix-blend-mode: screen;isolation: isolate">
                  <path id="Trazado_106215" data-name="Trazado 106215" d="M419.377,351.55c.3,2.273-1.21,4.614-3.218,5.838-3.85,2.349-10,2.287-13.369-1.061-2.8-2.786-.236-6.63,2.4-8.411,3.532-2.385,12.487-2.074,14.029,2.927A4.5,4.5,0,0,1,419.377,351.55Z" transform="translate(-391.752 -346.474)" fill="#75ece9"/>
                  <path id="Trazado_106216" data-name="Trazado 106216" d="M419.307,353.734a13.721,13.721,0,0,1-.752,8.6A4.35,4.35,0,0,1,415.665,365a3.519,3.519,0,0,1-3.339-1.8c-1.67-2.687-1.2-12.98,3.824-12.324A3.756,3.756,0,0,1,419.307,353.734Z" transform="translate(-411.459 -342.264)" fill="#3ae4df" opacity="0.7" style="mix-blend-mode: screen;isolation: isolate"/>
                </g>
              </g>
            </g>
          </g>
        </g>
      </g>
    </g>
    <g id="Grupo_71753" data-name="Grupo 71753" transform="translate(1092.883 3170.606)">
      <g id="Grupo_71741-2" data-name="Grupo 71741" transform="translate(16.766 15.056)" opacity="0.439">
        <g id="Grupo_71749-2" data-name="Grupo 71749" transform="translate(0)">
          <path id="Trazado_106212-2" data-name="Trazado 106212" d="M391.884,366.3l0-.028c0-.052.017-.369.081-.837,0-.042.011-.083.017-.125.009-.058.019-.119.028-.181a11.459,11.459,0,0,1,1.554-4.189l.006-.009q.127-.206.263-.408h0a11.564,11.564,0,0,1,1.485-1.781,10.173,10.173,0,0,1,.857-.757c.186-.15.378-.292.575-.43l.028-.022.027-.017.1-.07c.128-.086.264-.177.413-.267l0,0,.017-.009c.072-.044.145-.089.225-.134.034-.02.07-.039.106-.059l.089-.052.072-.039a11.623,11.623,0,0,1,1.413-.655c.127-.05.225-.086.281-.106l.088-.03.086-.031.013,0,.02-.006.142-.047.02-.006.02-.006.1-.03.128-.039.113-.033.063-.017.019,0,.022-.006.036-.009.125-.033.1-.027.1-.024,0,0,.063-.014.12-.028.084-.017.114-.023.022,0,.086-.017.052-.009.063-.013.011,0,.02,0,.036-.006.094-.016.059-.011h0l.1-.016.089-.014.053-.006.08-.011.078-.011.128-.014.119-.013.038,0,.009,0,.109-.009c.053,0,.106-.009.161-.013l.111-.009c.041,0,.081,0,.122-.006l.13-.006.08,0,.072,0h.056l.061,0c.231,0,.461,0,.693.008l.147.006c.052,0,.1,0,.155.009l.091,0c.075.006.15.013.222.02l.077.006c.106.011.208.023.306.036l.141.019-.009,0,.011,0,.03,0,.217.034c.055.009.109.017.164.028.125.022.224.041.291.055.331.069.661.152.987.25.194.055.366.111.578.189a11.518,11.518,0,0,1,2.531,1.277l0,0h0c.08.053.158.106.235.163l.031.022c.134.1.267.194.4.3l.031.023.013.009.009.008.016.012.013.009.108.086c.072.059.142.117.209.175l.113.1c.077.067.15.133.219.2l.009.008.009.009.047.044c.356.333.574.575.588.591.111.119.219.245.327.374.077.089.155.184.236.285l.017.02.011.016c.159.2.328.43.513.705l0,.006,0,.006.008.011c.083.125.17.266.256.414.075.127.15.252.216.36l.214.424c.07.138.138.271.2.394a8.649,8.649,0,0,1,.358.877h0l0,0c.1.288.2.593.278.886l0,.011,0,.012a8.337,8.337,0,0,1,.228,1.026,10.594,10.594,0,0,1,.172,1.854,11.275,11.275,0,0,1-.127,1.823,11.5,11.5,0,0,1-1.09,3.436c-.133.272-.234.463-.366.679q-.237.4-.516.789l-.064.1a7.53,7.53,0,0,1-.675.854c-.166.178-.38.419-.552.591s-.4.391-.588.547h0c-.2.177-.289.25-.481.392-.233.185-.471.355-.71.513l0,0q-.117.077-.234.15c-.092.058-.183.113-.266.16-.042.025-.1.059-.174.1L409,377l-.252.134-.061.033c-.278.144-.63.314-1.019.469-.085.034-.2.08-.338.131l-.117.044-.2.07-.142.047-.052.016-.009,0-.077.023-.13.039-.127.036-.011,0a10.884,10.884,0,0,1-1.42.3l-.044.006-.128.017-.013,0-.111.016-.253.027c-.114.011-.266.022-.38.031s-.234.014-.356.019h0l-.177,0c-.158,0-.369,0-.528,0s-.378-.02-.541-.028c-.344-.033-.8-.087-1.146-.145a8.5,8.5,0,0,1-.882-.192c-.066-.019-.135-.039-.2-.061-.2-.059-.417-.125-.594-.178l-.208-.08c-.166-.058-.332-.12-.494-.187l-.081-.031c-.192-.073-.424-.184-.632-.289-.089-.044-.177-.089-.264-.134a7.81,7.81,0,0,1-.744-.428l-.022-.016c-.2-.125-.389-.255-.58-.394l-.122-.083-.206-.166c-.056-.044-.111-.088-.166-.133l-.314-.25a7.373,7.373,0,0,1-.652-.608l-.016-.016-.031-.033c-.164-.172-.352-.374-.569-.622l-.014-.017,0,0a10.172,10.172,0,0,1-.955-1.312l-.009-.016c-.089-.142-.178-.294-.267-.457l0,0,0,0-.114-.211c-.053-.1-.1-.2-.147-.285l-.041-.087c-.075-.153-.147-.313-.219-.477-.1-.225-.194-.455-.26-.655l0,0c-.122-.336-.233-.694-.33-1.073-.061-.23-.114-.461-.15-.675-.045-.233-.083-.472-.114-.718-.008-.056-.014-.109-.02-.164-.036-.331-.059-.674-.067-1.027v-.061C391.863,366.879,391.868,366.595,391.884,366.3Z" transform="translate(-391.865 -355.464)" opacity="0.4" style="mix-blend-mode: multiply;isolation: isolate"/>
        </g>
      </g>
      <g id="Grupo_71747-2" data-name="Grupo 71747" transform="translate(0 0)">
        <g id="Grupo_71746-2" data-name="Grupo 71746">
          <g id="Grupo_71745-2" data-name="Grupo 71745">
            <path id="Trazado_106213-2" data-name="Trazado 106213" d="M395.9,361.625l0-.042c0-.077.025-.538.117-1.22.008-.059.017-.12.027-.18.012-.086.027-.175.041-.266a16.675,16.675,0,0,1,2.264-6.1l.008-.012c.124-.2.25-.4.383-.593l0,0a16.69,16.69,0,0,1,2.162-2.591,14.6,14.6,0,0,1,1.246-1.1c.272-.217.552-.425.84-.627l.041-.031.039-.025c.048-.034.1-.069.147-.1.184-.127.383-.256.6-.391l0,0,.025-.014c.1-.064.213-.128.327-.2l.155-.087.131-.074.1-.058a16.793,16.793,0,0,1,2.059-.954c.184-.072.327-.125.41-.155l.127-.044.127-.044.019-.006.028-.009.206-.067.03-.009.03-.009.141-.044c.058-.017.133-.041.189-.056l.163-.047.092-.025.027-.008.033-.009.052-.014.181-.047.152-.039.144-.034.008,0,.091-.022.175-.039.124-.027.167-.034.03-.006.127-.025.075-.013.091-.019.016,0,.031-.006.052-.009.136-.022.088-.016h0l.15-.023.13-.019.078-.011.117-.016.112-.014.186-.022.172-.019.058-.006h.013l.158-.014q.117-.012.235-.019l.161-.012c.061,0,.12-.008.18-.011l.189-.009.117,0,.1,0,.081,0,.089,0q.5-.009,1.008.011l.214.009.225.012.133.009q.164.012.324.028l.113.011c.153.016.3.033.444.052l.206.028-.016,0,.019,0,.042.006.316.048.241.041c.181.033.325.061.422.081.483.1.963.22,1.437.363.283.081.533.163.844.277a16.816,16.816,0,0,1,3.685,1.861l0,0,0,0c.116.077.23.155.342.236l.044.031c.2.139.389.285.58.433l.047.034.017.014.016.011.022.019.019.014c.052.041.1.083.155.125.106.086.208.17.306.255l.164.142c.113.1.219.194.317.285l.016.012.012.013.07.066c.519.485.835.838.855.86.161.174.319.356.475.544.113.13.227.267.344.414l.023.03.019.023c.231.294.477.625.746,1.026l.006.009,0,.009.013.016c.12.183.247.388.374.6.109.184.217.367.313.524l.313.618c.1.2.2.394.289.574a11.942,11.942,0,0,1,.521,1.277l0,0,0,0c.147.418.286.862.406,1.291l0,.016,0,.017a12.721,12.721,0,0,1,.331,1.493,15.105,15.105,0,0,1,.249,2.7,16.7,16.7,0,0,1-.78,5.22,16.407,16.407,0,0,1-.991,2.441,10.768,10.768,0,0,1-.531.99c-.228.388-.482.771-.751,1.149l-.094.139a11.119,11.119,0,0,1-.983,1.246c-.242.258-.555.61-.805.86s-.585.569-.857.8h0c-.3.258-.421.364-.7.574-.339.267-.685.516-1.033.746l0,0c-.114.075-.227.148-.341.219-.134.083-.269.164-.388.231l-.253.142-.047.025c-.1.059-.228.125-.364.2l-.091.047c-.4.209-.918.458-1.484.685-.122.048-.291.114-.492.189-.058.022-.116.045-.17.064l-.3.1-.208.067-.073.023-.016,0-.111.034c-.056.017-.131.041-.188.056l-.186.053-.016,0a15.741,15.741,0,0,1-2.069.439l-.062.009-.186.025-.019,0-.163.02-.369.041c-.166.017-.388.033-.553.045s-.341.02-.519.027h-.008l-.255.006c-.231,0-.539,0-.771,0s-.552-.03-.788-.041c-.5-.047-1.171-.128-1.668-.211-.389-.066-.905-.174-1.285-.281-.1-.027-.2-.058-.3-.089-.3-.088-.608-.183-.866-.259l-.3-.116c-.242-.086-.483-.177-.719-.274l-.12-.045c-.28-.108-.614-.269-.919-.422-.128-.063-.256-.128-.385-.2a11.607,11.607,0,0,1-1.083-.624l-.031-.022c-.286-.183-.568-.372-.844-.574-.061-.042-.122-.085-.178-.122l-.3-.241-.241-.192-.458-.366a10.929,10.929,0,0,1-.949-.887l-.023-.022-.045-.048c-.239-.249-.513-.544-.829-.907l-.02-.025,0,0a14.764,14.764,0,0,1-1.391-1.909l-.016-.023q-.192-.312-.389-.664l0,0,0,0c-.056-.1-.113-.2-.167-.306-.078-.144-.153-.286-.214-.414l-.059-.128q-.164-.335-.319-.7c-.144-.327-.281-.661-.378-.952l0,0c-.177-.491-.339-1.012-.48-1.562-.089-.335-.167-.671-.219-.983-.066-.339-.122-.688-.166-1.046-.013-.081-.022-.161-.03-.239-.055-.482-.087-.982-.1-1.5l0-.053v-.036C395.866,362.461,395.872,362.047,395.9,361.625Z" transform="translate(-395.87 -345.833)" fill="url(#radial-gradient-3)"/>
            <g id="Grupo_71744-2" data-name="Grupo 71744">
              <g id="Grupo_71743-2" data-name="Grupo 71743" clip-path="url(#clip-path-7)">
                <path id="Trazado_106214-2" data-name="Trazado 106214" d="M426.246,365.214a16.1,16.1,0,0,1,.447,2.034,8.563,8.563,0,0,1-2.985,8.283c-5.6,4.581-14.229,5.78-19.936,2.558a11.919,11.919,0,0,1-5.674-13.141,15.411,15.411,0,0,1,7.143-9.137,14.259,14.259,0,0,1,9.689-1.957C420.927,355.034,424.783,360.121,426.246,365.214Z" transform="translate(-396.246 -341.43)" fill="#1ea7ca" opacity="0.8" style="mix-blend-mode: multiply;isolation: isolate"/>
                <g id="Grupo_71742-2" data-name="Grupo 71742" transform="translate(2.583 1.001)" style="mix-blend-mode: screen;isolation: isolate">
                  <path id="Trazado_106215-2" data-name="Trazado 106215" d="M415.744,350.514a5.039,5.039,0,0,1-2.561,4.647c-3.064,1.87-7.963,1.82-10.641-.844-2.23-2.217-.188-5.277,1.914-6.695,2.811-1.9,9.939-1.651,11.166,2.329A3.585,3.585,0,0,1,415.744,350.514Z" transform="translate(-393.757 -346.474)" fill="#75ece9"/>
                  <path id="Trazado_106216-2" data-name="Trazado 106216" d="M417.706,353.143a10.921,10.921,0,0,1-.6,6.848,3.462,3.462,0,0,1-2.3,2.115,2.8,2.8,0,0,1-2.658-1.434c-1.329-2.139-.952-10.331,3.044-9.809A2.99,2.99,0,0,1,417.706,353.143Z" transform="translate(-411.459 -344.014)" fill="#3ae4df" opacity="0.7" style="mix-blend-mode: screen;isolation: isolate"/>
                </g>
              </g>
            </g>
          </g>
        </g>
      </g>
    </g>
    <g id="Grupo_71754" data-name="Grupo 71754" transform="translate(1112.773 3001.682)">
      <g id="Grupo_71741-3" data-name="Grupo 71741" transform="translate(7.138 6.41)" opacity="0.439">
        <g id="Grupo_71749-3" data-name="Grupo 71749" transform="translate(0)">
          <path id="Trazado_106212-3" data-name="Trazado 106212" d="M391.873,360.078v-.012c0-.022.007-.157.035-.356,0-.018,0-.035.007-.053s.008-.051.012-.077a4.879,4.879,0,0,1,.662-1.783l0,0q.054-.088.112-.174h0a4.922,4.922,0,0,1,.632-.758,4.334,4.334,0,0,1,.365-.322c.079-.064.161-.125.245-.183l.012-.009.011-.007.043-.03c.055-.037.113-.075.176-.114h0l.007,0,.1-.057.045-.025.038-.022.031-.017a4.945,4.945,0,0,1,.6-.279l.12-.045.037-.013.037-.013h.005l.009,0,.061-.02.009,0,.009,0,.041-.013.055-.017.048-.014.027-.007.008,0,.009,0,.015,0,.053-.014.044-.011.043-.01h0l.027-.006.051-.012.036-.007.049-.01.009,0,.037-.007.022,0,.027-.005h.013l.015,0,.04-.007.025,0h0l.044-.007.038-.006.023,0,.034,0,.033,0,.055-.006.051-.005.016,0h0l.047,0,.069-.005.047,0,.052,0,.055,0h.115c.1,0,.2,0,.295,0l.063,0,.066,0,.039,0,.095.009.033,0,.13.015.06.008h.013l.092.015.07.012.124.023c.141.029.282.065.42.106.083.023.156.047.246.081a4.9,4.9,0,0,1,1.078.544h0c.034.023.067.045.1.069l.013.009c.057.041.114.083.17.126l.013.01.005,0,0,0,.007.005.005,0,.046.037.089.075.048.042.093.083,0,0,0,0,.02.019c.152.142.244.245.25.252.047.051.093.1.139.159.033.038.066.079.1.121l.007.009,0,.007c.068.086.14.183.218.3v0l0,0,0,0c.035.053.073.113.109.176l.092.153.091.18c.03.059.059.115.085.168a3.687,3.687,0,0,1,.152.373h0c.043.122.084.252.118.377v.01a3.545,3.545,0,0,1,.1.437,4.513,4.513,0,0,1,.073.789,4.807,4.807,0,0,1-.054.776,4.894,4.894,0,0,1-.464,1.463c-.057.116-.1.2-.156.289q-.1.171-.22.336l-.027.041a3.2,3.2,0,0,1-.288.363c-.07.076-.162.178-.235.252s-.171.166-.25.233h0c-.087.075-.123.106-.2.167-.1.079-.2.151-.3.218h0l-.1.064c-.039.025-.078.048-.113.068l-.074.042-.013.007-.107.057-.026.014c-.118.061-.268.134-.434.2l-.144.056-.05.019-.087.03-.061.02-.022.007h0l-.033.01-.055.017-.054.015h0a4.631,4.631,0,0,1-.6.128l-.019,0-.055.007H397.4l-.047.007-.108.011-.162.013c-.045,0-.1.006-.152.008h0l-.075,0c-.067,0-.157,0-.225,0s-.161-.009-.23-.012c-.146-.014-.342-.037-.488-.062a3.653,3.653,0,0,1-.375-.082l-.087-.026-.253-.076-.089-.034c-.071-.025-.141-.051-.21-.08l-.035-.013c-.082-.031-.18-.079-.269-.123l-.112-.057a3.338,3.338,0,0,1-.317-.182l-.009-.007c-.083-.053-.166-.108-.247-.168l-.052-.035-.088-.071-.071-.057-.134-.107a3.129,3.129,0,0,1-.277-.259l-.007-.007-.013-.014c-.07-.073-.15-.159-.242-.265l-.006-.007h0a4.323,4.323,0,0,1-.407-.558l0-.007c-.038-.061-.076-.125-.114-.194h0l-.049-.09c-.023-.042-.045-.083-.063-.121l-.017-.037c-.032-.065-.062-.133-.093-.2-.043-.1-.083-.194-.11-.279h0c-.052-.143-.1-.3-.14-.457-.026-.1-.049-.2-.064-.288s-.035-.2-.049-.306c0-.024-.006-.047-.009-.07-.015-.141-.025-.287-.029-.437v-.026C391.865,360.323,391.867,360.2,391.873,360.078Z" transform="translate(-391.865 -355.464)" opacity="0.4" style="mix-blend-mode: multiply;isolation: isolate"/>
        </g>
      </g>
      <g id="Grupo_71747-3" data-name="Grupo 71747" transform="translate(0 0)">
        <g id="Grupo_71746-3" data-name="Grupo 71746">
          <g id="Grupo_71745-3" data-name="Grupo 71745">
            <path id="Trazado_106213-3" data-name="Trazado 106213" d="M395.882,352.556v-.018c0-.033.011-.229.05-.519,0-.025.007-.051.011-.077s.011-.075.017-.113a7.1,7.1,0,0,1,.964-2.6l0-.005c.053-.085.106-.17.163-.252h0a7.106,7.106,0,0,1,.921-1.1,6.226,6.226,0,0,1,.53-.47c.116-.093.235-.181.357-.267l.017-.013.017-.011.063-.043c.079-.054.163-.109.256-.166h0l.011-.006c.044-.027.091-.055.139-.083l.066-.037.056-.031.045-.025a7.147,7.147,0,0,1,.877-.406c.078-.031.139-.053.174-.066l.054-.019.054-.019.008,0,.012,0,.088-.029.013,0,.013,0,.06-.019.081-.024.069-.02.039-.011.011,0,.014,0,.022-.006.077-.02.065-.017.061-.015h0l.039-.009.075-.017.053-.011.071-.015.013,0,.054-.011.032-.005.039-.008h.007l.013,0,.022,0,.058-.009.037-.007h0l.064-.01.055-.008.033,0,.05-.007.048-.006.079-.009.073-.008.025,0h.005l.067-.006.1-.008.069-.005.076,0,.081,0h.05l.044,0h.073q.215,0,.429,0l.091,0,.1.005.057,0,.138.012.048,0,.189.022.088.012h0l.018,0,.134.021.1.017.18.035c.206.042.41.094.612.154.12.035.227.069.359.118a7.161,7.161,0,0,1,1.569.792h0c.049.033.1.066.146.1l.019.013c.084.059.166.121.247.184l.02.015.007.006.007,0,.009.008.008.006.066.053c.045.037.089.073.13.109l.07.061c.048.042.093.083.135.121l.007.005.005.005.03.028c.221.206.355.357.364.366.069.074.136.152.2.232.048.055.1.114.146.176l.01.013.008.01c.1.125.2.266.318.437l0,0,0,0,.005.007c.051.078.105.165.159.257s.092.156.133.223l.133.263c.044.085.086.168.123.244a5.1,5.1,0,0,1,.222.544h0v0c.063.178.122.367.173.55l0,.007,0,.007a5.418,5.418,0,0,1,.141.636,6.427,6.427,0,0,1,.106,1.15,7.107,7.107,0,0,1-.332,2.222,6.982,6.982,0,0,1-.422,1.039,4.586,4.586,0,0,1-.226.421c-.1.165-.205.328-.32.489l-.04.059a4.731,4.731,0,0,1-.419.531c-.1.11-.236.26-.343.366s-.249.242-.365.339h0c-.126.11-.179.155-.3.244q-.217.171-.44.318h0c-.049.032-.1.063-.145.093s-.115.07-.165.1l-.108.061-.02.011c-.045.025-.1.053-.155.084l-.039.02c-.172.089-.391.195-.632.291-.052.021-.124.049-.21.081l-.072.027-.126.044-.089.029-.031.01-.007,0-.047.015-.08.024-.079.023-.007,0a6.688,6.688,0,0,1-.881.187l-.027,0-.079.011h-.008l-.069.009-.157.017c-.071.007-.165.014-.236.019s-.145.009-.221.011h0l-.108,0c-.1,0-.23,0-.328,0s-.235-.013-.335-.017c-.214-.02-.5-.055-.71-.09-.166-.028-.385-.074-.547-.12l-.127-.038-.369-.111-.128-.049c-.1-.037-.206-.075-.306-.116l-.051-.019c-.119-.046-.262-.114-.391-.18-.055-.027-.109-.055-.164-.083a4.951,4.951,0,0,1-.461-.266L399.2,359c-.122-.078-.242-.158-.359-.244l-.076-.052-.128-.1-.1-.082-.2-.156a4.643,4.643,0,0,1-.4-.377l-.01-.009-.019-.021c-.1-.106-.218-.232-.353-.386l-.009-.011h0a6.288,6.288,0,0,1-.592-.813l-.007-.01q-.082-.133-.166-.283v0h0c-.024-.043-.048-.086-.071-.13-.033-.061-.065-.122-.091-.176l-.025-.055q-.07-.143-.136-.3c-.061-.139-.12-.282-.161-.405h0c-.075-.209-.144-.431-.2-.665-.038-.142-.071-.286-.093-.419s-.052-.293-.071-.445c-.005-.035-.009-.069-.013-.1-.023-.2-.037-.418-.042-.637v-.038C395.868,352.913,395.871,352.736,395.882,352.556Z" transform="translate(-395.87 -345.834)" fill="url(#radial-gradient-3)"/>
            <g id="Grupo_71744-3" data-name="Grupo 71744">
              <g id="Grupo_71743-3" data-name="Grupo 71743" clip-path="url(#clip-path-8)">
                <path id="Trazado_106214-3" data-name="Trazado 106214" d="M409.884,358.572a6.858,6.858,0,0,1,.19.866,3.645,3.645,0,0,1-1.271,3.526c-2.384,1.95-6.058,2.461-8.487,1.089a5.074,5.074,0,0,1-2.415-5.594,6.561,6.561,0,0,1,3.041-3.89,6.07,6.07,0,0,1,4.125-.833A6.583,6.583,0,0,1,409.884,358.572Z" transform="translate(-397.112 -348.447)" fill="#1ea7ca" opacity="0.8" style="mix-blend-mode: multiply;isolation: isolate"/>
                <g id="Grupo_71742-3" data-name="Grupo 71742" transform="translate(1.1 0.426)" style="mix-blend-mode: screen;isolation: isolate">
                  <path id="Trazado_106215-3" data-name="Trazado 106215" d="M407.607,348.194a2.145,2.145,0,0,1-1.09,1.978,3.917,3.917,0,0,1-4.53-.359c-.949-.944-.08-2.246.815-2.85,1.2-.808,4.231-.7,4.754.992A1.534,1.534,0,0,1,407.607,348.194Z" transform="translate(-398.246 -346.474)" fill="#75ece9"/>
                  <path id="Trazado_106216-3" data-name="Trazado 106216" d="M414.118,351.82a4.65,4.65,0,0,1-.255,2.915,1.474,1.474,0,0,1-.979.9,1.193,1.193,0,0,1-1.132-.61c-.566-.911-.405-4.4,1.3-4.176A1.273,1.273,0,0,1,414.118,351.82Z" transform="translate(-411.459 -347.934)" fill="#3ae4df" opacity="0.7" style="mix-blend-mode: screen;isolation: isolate"/>
                </g>
              </g>
            </g>
          </g>
        </g>
      </g>
    </g>
  </g>
</svg>
