<svg xmlns="http://www.w3.org/2000/svg" xmlns:xlink="http://www.w3.org/1999/xlink" width="321.436" height="232.517" viewBox="0 0 321.436 232.517">
  <defs>
    <linearGradient id="linear-gradient" x1="0.5" x2="0.5" y2="1" gradientUnits="objectBoundingBox">
      <stop offset="0" stop-color="#207881"/>
      <stop offset="0.361" stop-color="#31d2e2"/>
      <stop offset="0.503" stop-color="#31d2e2"/>
      <stop offset="0.655" stop-color="#31d2e2"/>
      <stop offset="1" stop-color="#74d3dd"/>
    </linearGradient>
  </defs>
  <g id="Grupo_71541" data-name="Grupo 71541" transform="translate(-357.74 -255.425)">
    <path id="Trazado_105039" data-name="Trazado 105039" d="M445.235,275.342a44.28,44.28,0,0,1,1.7,11.9,33.827,33.827,0,0,0,2.291,11.484l7.667,4.2s.582-19.689-2.294-25.519S445.235,275.342,445.235,275.342Z" transform="translate(156.098 33.404)" fill="#261822"/>
    <path id="Trazado_105040" data-name="Trazado 105040" d="M449.68,282.72a42.405,42.405,0,0,0,2.077,12.347c1.907,5.4,4.6,14.383,4.6,14.383a7.364,7.364,0,0,0,4.736,1.74,14.4,14.4,0,0,0,5.663-1.4s-2.592-20.154-3.967-24.982-3.436-6.562-3.436-6.562Z" transform="translate(164.029 40.72)" fill="#3a2934"/>
    <g id="Grupo_71495" data-name="Grupo 71495" transform="translate(357.74 279.9)">
      <path id="Trazado_105041" data-name="Trazado 105041" d="M667.106,377.975l-112.33,64.854L357.74,329.069,470.07,264.216Z" transform="translate(-357.74 -264.216)" fill="#fff"/>
      <path id="Trazado_105042" data-name="Trazado 105042" d="M357.74,287.51v29.43L554.776,430.7v-29.43Z" transform="translate(-357.74 -222.657)" fill="#efe8eb"/>
      <path id="Trazado_105043" data-name="Trazado 105043" d="M540.842,305.076v29.43L428.512,399.36V369.93Z" transform="translate(-231.477 -191.317)" fill="#e0d1db"/>
      <path id="Trazado_105044" data-name="Trazado 105044" d="M474.425,276.907l-93.7,54.1L364.6,321.7l93.321-53.879Z" transform="translate(-345.499 -257.785)" fill="#35aeba"/>
      <g id="Grupo_71493" data-name="Grupo 71493" transform="translate(46.303 25.528)">
        <path id="Trazado_105045" data-name="Trazado 105045" d="M421.549,275.025l-3.041-1.64-16.537,9.548,2.941,1.7Z" transform="translate(-325.133 -273.385)" fill="#229da7"/>
        <path id="Trazado_105046" data-name="Trazado 105046" d="M374.372,320.181l3.041,1.64,74.044-42.749-2.941-1.7Z" transform="translate(-374.372 -266.27)" fill="#229da7"/>
        <path id="Trazado_105047" data-name="Trazado 105047" d="M423.915,276.417l-3.041-1.64-16.5,9.529,2.941,1.7Z" transform="translate(-320.853 -270.902)" fill="#229da7"/>
        <path id="Trazado_105048" data-name="Trazado 105048" d="M376.758,321.584l3.041,1.64,74.078-42.769-2.941-1.7Z" transform="translate(-370.113 -263.8)" fill="#229da7"/>
        <path id="Trazado_105049" data-name="Trazado 105049" d="M379.145,322.885l3.041,1.64,73.979-42.712-2.941-1.7Z" transform="translate(-365.855 -261.377)" fill="#229da7"/>
        <path id="Trazado_105050" data-name="Trazado 105050" d="M426.364,277.754l-3.041-1.64-16.6,9.585,2.941,1.7Z" transform="translate(-316.658 -268.516)" fill="#229da7"/>
        <path id="Trazado_105051" data-name="Trazado 105051" d="M381.532,324.277l3.041,1.64,74-42.722-2.941-1.7Z" transform="translate(-361.597 -258.913)" fill="#229da7"/>
        <path id="Trazado_105052" data-name="Trazado 105052" d="M428.74,279.139,425.7,277.5l-16.585,9.575,2.941,1.7Z" transform="translate(-312.389 -266.045)" fill="#229da7"/>
        <path id="Trazado_105053" data-name="Trazado 105053" d="M431.189,280.477l-3.042-1.64-16.683,9.632,2.941,1.7Z" transform="translate(-308.194 -263.659)" fill="#229da7"/>
        <path id="Trazado_105054" data-name="Trazado 105054" d="M383.918,325.578l3.041,1.64,73.9-42.665-2.941-1.7Z" transform="translate(-357.339 -256.491)" fill="#229da7"/>
        <path id="Trazado_105055" data-name="Trazado 105055" d="M433.555,281.868l-3.041-1.64-16.65,9.613,2.941,1.7Z" transform="translate(-303.915 -261.177)" fill="#229da7"/>
        <path id="Trazado_105056" data-name="Trazado 105056" d="M386.3,326.982l3.042,1.64,73.931-42.684-2.941-1.7Z" transform="translate(-353.081 -254.02)" fill="#229da7"/>
        <path id="Trazado_105057" data-name="Trazado 105057" d="M388.692,328.283l3.041,1.64L465.567,287.3l-2.941-1.7Z" transform="translate(-348.823 -251.598)" fill="#229da7"/>
        <path id="Trazado_105058" data-name="Trazado 105058" d="M436,283.206l-3.042-1.64-16.748,9.669,2.941,1.7Z" transform="translate(-299.719 -258.791)" fill="#229da7"/>
        <path id="Trazado_105059" data-name="Trazado 105059" d="M390.97,329.782l3.042,1.64,74.067-42.763-2.941-1.7Z" transform="translate(-344.759 -249.165)" fill="#229da7"/>
        <path id="Trazado_105060" data-name="Trazado 105060" d="M438.132,284.618l-3.041-1.64-16.514,9.535,2.941,1.7Z" transform="translate(-295.505 -256.271)" fill="#229da7"/>
        <path id="Trazado_105061" data-name="Trazado 105061" d="M440.582,285.955l-3.041-1.64-16.612,9.591,2.941,1.7Z" transform="translate(-291.31 -253.885)" fill="#229da7"/>
        <path id="Trazado_105062" data-name="Trazado 105062" d="M393.356,331.083l3.041,1.64,73.969-42.706-2.941-1.7Z" transform="translate(-340.501 -246.743)" fill="#229da7"/>
        <path id="Trazado_105063" data-name="Trazado 105063" d="M472.787,291.4l-2.941-1.7L442.78,305.33h0l-47.037,27.156,3.042,1.64,46.257-26.706h0Z" transform="translate(-336.243 -244.272)" fill="#229da7"/>
        <path id="Trazado_105064" data-name="Trazado 105064" d="M442.948,287.347l-3.041-1.64-16.579,9.572,2.941,1.7Z" transform="translate(-287.031 -251.402)" fill="#229da7"/>
        <path id="Trazado_105065" data-name="Trazado 105065" d="M445.4,288.684l-3.041-1.64-16.677,9.629,2.941,1.7Z" transform="translate(-282.835 -249.016)" fill="#229da7"/>
        <path id="Trazado_105066" data-name="Trazado 105066" d="M398.13,333.788l3.042,1.64,73.9-42.669-2.941-1.7Z" transform="translate(-331.985 -241.85)" fill="#229da7"/>
        <path id="Trazado_105067" data-name="Trazado 105067" d="M447.413,290.1l-3.041-1.64L428.019,297.9l2.941,1.7Z" transform="translate(-278.659 -246.486)" fill="#229da7"/>
        <path id="Trazado_105068" data-name="Trazado 105068" d="M400.354,335.326l3.042,1.64,74.229-42.856-2.941-1.7Z" transform="translate(-328.017 -239.439)" fill="#229da7"/>
        <path id="Trazado_105069" data-name="Trazado 105069" d="M471.261,303.762l-3.041-1.64-16.492,9.522,2.941,1.7Z" transform="translate(-236.362 -222.117)" fill="#229da7"/>
        <path id="Trazado_105070" data-name="Trazado 105070" d="M424.112,348.934l3.041,1.64L501.243,307.8l-2.941-1.7Z" transform="translate(-285.63 -215.018)" fill="#229da7"/>
        <path id="Trazado_105071" data-name="Trazado 105071" d="M426.5,350.235l3.041,1.64,73.991-42.719-2.941-1.7Z" transform="translate(-281.371 -212.596)" fill="#229da7"/>
        <path id="Trazado_105072" data-name="Trazado 105072" d="M473.711,305.1l-3.042-1.64-16.59,9.578,2.941,1.7Z" transform="translate(-232.167 -219.731)" fill="#229da7"/>
      </g>
      <g id="Grupo_71494" data-name="Grupo 71494" transform="translate(151.873 91.722)">
        <path id="Trazado_105073" data-name="Trazado 105073" d="M448,329.183l-3.966,2.29-31.746-18.329,3.966-2.29Z" transform="translate(-412.291 -272.729)" fill="#ffaf04"/>
        <path id="Trazado_105074" data-name="Trazado 105074" d="M445.558,324.227l-3.966,2.29-23.141-13.36,3.966-2.29Z" transform="translate(-401.299 -272.707)" fill="#ffaf04"/>
        <path id="Trazado_105075" data-name="Trazado 105075" d="M445.039,320.256l-3.966,2.29L423.7,312.518l3.967-2.29Z" transform="translate(-391.929 -273.847)" fill="#ffaf04"/>
        <path id="Trazado_105076" data-name="Trazado 105076" d="M454.387,322.227l-3.966,2.29L423.1,308.74l3.966-2.29Z" transform="translate(-393.014 -280.587)" fill="#ffaf04"/>
        <path id="Trazado_105077" data-name="Trazado 105077" d="M447.494,314.7l-3.967,2.29-11.778-6.8,3.967-2.29Z" transform="translate(-377.574 -277.997)" fill="#ffaf04"/>
        <path id="Trazado_105078" data-name="Trazado 105078" d="M458.02,317.108l-3.966,2.29-23.243-13.419,3.966-2.29Z" transform="translate(-379.249 -285.514)" fill="#ff9201"/>
        <path id="Trazado_105079" data-name="Trazado 105079" d="M457.22,313.223l-3.966,2.29-17.369-10.028,3.966-2.29Z" transform="translate(-370.196 -286.394)" fill="#ff9201"/>
        <path id="Trazado_105080" data-name="Trazado 105080" d="M473.542,319.22l-3.966,2.29-38.208-22.059,3.967-2.29Z" transform="translate(-378.255 -297.161)" fill="#ff9201"/>
        <path id="Trazado_105081" data-name="Trazado 105081" d="M469.786,313.507l-3.966,2.29-27.557-15.91,3.966-2.29Z" transform="translate(-365.953 -296.382)" fill="#ff9201"/>
        <path id="Trazado_105082" data-name="Trazado 105082" d="M462.854,305.834l-3.966,2.29-11.778-6.8,3.966-2.29Z" transform="translate(-350.17 -293.819)" fill="#ff9201"/>
        <path id="Trazado_105083" data-name="Trazado 105083" d="M514.426,300.323l-93.107,53.755,1.193.689,93.107-53.756Z" transform="translate(-396.182 -291.519)" fill="#261822"/>
      </g>
      <path id="Trazado_105084" data-name="Trazado 105084" d="M422.586,307.527l-3.042-1.64-16.492,9.522,2.941,1.7Z" transform="translate(-276.899 -189.871)" fill="#ffaf04"/>
      <path id="Trazado_105085" data-name="Trazado 105085" d="M425.028,308.956l-3.041-1.64-16.492,9.522,2.941,1.7Z" transform="translate(-272.542 -187.32)" fill="#ffaf04"/>
      <path id="Trazado_105086" data-name="Trazado 105086" d="M359.607,291.112s32.621,19.461,57.277,33.239c20.368,11.384,65.156,37.076,80.246,45.562,33.356,18.765,51.305,29.233,51.305,29.233s-9.24-3.489-38.017-20.19c-14.976-8.692-81.947-46.581-109.356-61.45C374.947,303.34,359.607,291.112,359.607,291.112Z" transform="translate(-354.41 -216.231)" fill="#d3c2cc"/>
      <path id="Trazado_105087" data-name="Trazado 105087" d="M359.065,297.144s32.621,19.461,57.277,33.239c20.368,11.384,65.156,37.076,80.246,45.562,33.356,18.765,51.305,29.233,51.305,29.233s-9.24-3.488-38.017-20.19c-14.976-8.692-81.947-46.581-109.356-61.45C374.405,309.372,359.065,297.144,359.065,297.144Z" transform="translate(-355.377 -205.469)" fill="#d3c2cc"/>
      <path id="Trazado_105088" data-name="Trazado 105088" d="M450.954,343.744c-11.663-6.559-45.8-26.221-65.465-35.957,11.5,8.26,67.62,38.535,78.754,45,28.776,16.7,38.017,20.193,38.017,20.193S484.31,362.506,450.954,343.744Z" transform="translate(-308.234 -186.481)" fill="#d3c2cc"/>
      <path id="Trazado_105089" data-name="Trazado 105089" d="M432.314,336.69c-11.663-6.559-45.8-26.221-65.462-35.957,11.5,8.263,67.617,38.535,78.754,45,28.776,16.7,38.017,20.193,38.017,20.193S465.671,355.451,432.314,336.69Z" transform="translate(-341.484 -199.066)" fill="#d3c2cc"/>
      <path id="Trazado_105090" data-name="Trazado 105090" d="M482.719,334.872c11.663-6.559,25.207-15.407,44.868-25.143-11.5,8.26-47.023,27.721-58.16,34.183-28.776,16.7-38.014,20.193-38.014,20.193S449.363,353.634,482.719,334.872Z" transform="translate(-226.3 -183.016)" fill="#c1acb9"/>
      <path id="Trazado_105091" data-name="Trazado 105091" d="M481.919,340.578c11.66-6.562,25.207-15.41,44.868-25.143-11.5,8.26-47.026,27.721-58.16,34.183-28.776,16.7-38.017,20.19-38.017,20.19S448.56,359.34,481.919,340.578Z" transform="translate(-227.732 -172.836)" fill="#c1acb9"/>
    </g>
    <g id="Grupo_71498" data-name="Grupo 71498" transform="translate(369.811 260.786)">
      <path id="Trazado_105092" data-name="Trazado 105092" d="M671.441,371.109,559.112,435.963,362.076,322.2l112.33-64.853Z" transform="translate(-362.076 -257.35)" fill="#fff"/>
      <path id="Trazado_105093" data-name="Trazado 105093" d="M362.076,280.645v3.226L559.112,397.63V394.4Z" transform="translate(-362.076 -215.791)" fill="#efe8eb"/>
      <path id="Trazado_105094" data-name="Trazado 105094" d="M545.177,298.211v3.226L432.848,366.29v-3.226Z" transform="translate(-235.812 -184.452)" fill="#e0d1db"/>
      <path id="Trazado_105095" data-name="Trazado 105095" d="M478.761,270.042l-93.7,54.1-16.12-9.307,93.321-53.879Z" transform="translate(-349.834 -250.919)" fill="url(#linear-gradient)"/>
      <g id="Grupo_71496" data-name="Grupo 71496" transform="translate(46.303 25.528)">
        <path id="Trazado_105096" data-name="Trazado 105096" d="M425.884,268.16l-3.041-1.64-16.537,9.548,2.941,1.7Z" transform="translate(-329.468 -266.52)" fill="#229da7"/>
        <path id="Trazado_105097" data-name="Trazado 105097" d="M378.707,313.315l3.041,1.64,74.044-42.749-2.941-1.7Z" transform="translate(-378.707 -259.405)" fill="#229da7"/>
        <path id="Trazado_105098" data-name="Trazado 105098" d="M428.25,269.552l-3.042-1.64-16.5,9.529,2.941,1.7Z" transform="translate(-325.189 -264.037)" fill="#229da7"/>
        <path id="Trazado_105099" data-name="Trazado 105099" d="M381.094,314.719l3.041,1.64,74.077-42.769-2.941-1.7Z" transform="translate(-374.449 -256.934)" fill="#229da7"/>
        <path id="Trazado_105100" data-name="Trazado 105100" d="M383.481,316.02l3.041,1.64L460.5,274.948l-2.941-1.7Z" transform="translate(-370.191 -254.512)" fill="#229da7"/>
        <path id="Trazado_105101" data-name="Trazado 105101" d="M430.7,270.889l-3.041-1.64-16.6,9.585,2.941,1.7Z" transform="translate(-320.994 -261.651)" fill="#229da7"/>
        <path id="Trazado_105102" data-name="Trazado 105102" d="M385.867,317.411l3.041,1.64,74-42.722-2.941-1.7Z" transform="translate(-365.933 -252.047)" fill="#229da7"/>
        <path id="Trazado_105103" data-name="Trazado 105103" d="M433.075,272.274l-3.042-1.64-16.585,9.575,2.941,1.7Z" transform="translate(-316.725 -259.18)" fill="#229da7"/>
        <path id="Trazado_105104" data-name="Trazado 105104" d="M435.525,273.611l-3.042-1.64L415.8,281.6l2.941,1.7Z" transform="translate(-312.529 -256.794)" fill="#229da7"/>
        <path id="Trazado_105105" data-name="Trazado 105105" d="M388.254,318.712l3.041,1.64,73.9-42.665-2.941-1.7Z" transform="translate(-361.675 -249.625)" fill="#229da7"/>
        <path id="Trazado_105106" data-name="Trazado 105106" d="M437.891,275l-3.042-1.64-16.65,9.613,2.941,1.7Z" transform="translate(-308.25 -254.311)" fill="#229da7"/>
        <path id="Trazado_105107" data-name="Trazado 105107" d="M390.641,320.116l3.041,1.64,73.932-42.684-2.941-1.7Z" transform="translate(-357.417 -247.155)" fill="#229da7"/>
        <path id="Trazado_105108" data-name="Trazado 105108" d="M393.027,321.417l3.041,1.64L469.9,280.43l-2.941-1.7Z" transform="translate(-353.159 -244.732)" fill="#229da7"/>
        <path id="Trazado_105109" data-name="Trazado 105109" d="M440.34,276.34,437.3,274.7l-16.748,9.669,2.941,1.7Z" transform="translate(-304.055 -251.925)" fill="#229da7"/>
        <path id="Trazado_105110" data-name="Trazado 105110" d="M395.305,322.916l3.042,1.64,74.067-42.763-2.941-1.7Z" transform="translate(-349.094 -242.3)" fill="#229da7"/>
        <path id="Trazado_105111" data-name="Trazado 105111" d="M442.468,277.752l-3.041-1.64-16.514,9.535,2.941,1.7Z" transform="translate(-299.841 -249.406)" fill="#229da7"/>
        <path id="Trazado_105112" data-name="Trazado 105112" d="M444.918,279.09l-3.041-1.64-16.612,9.591,2.941,1.7Z" transform="translate(-295.645 -247.02)" fill="#229da7"/>
        <path id="Trazado_105113" data-name="Trazado 105113" d="M397.692,324.217l3.041,1.64L474.7,283.151l-2.941-1.7Z" transform="translate(-344.836 -239.877)" fill="#229da7"/>
        <path id="Trazado_105114" data-name="Trazado 105114" d="M477.123,284.536l-2.941-1.7-27.066,15.626h0l-47.037,27.157,3.042,1.64,46.257-26.706h0Z" transform="translate(-340.578 -237.407)" fill="#229da7"/>
        <path id="Trazado_105115" data-name="Trazado 105115" d="M447.283,280.481l-3.041-1.64-16.58,9.572,2.941,1.7Z" transform="translate(-291.366 -244.537)" fill="#229da7"/>
        <path id="Trazado_105116" data-name="Trazado 105116" d="M449.732,281.818l-3.041-1.64-16.677,9.628,2.941,1.7Z" transform="translate(-287.171 -242.151)" fill="#229da7"/>
        <path id="Trazado_105117" data-name="Trazado 105117" d="M402.465,326.922l3.041,1.64,73.9-42.669-2.941-1.7Z" transform="translate(-336.32 -234.985)" fill="#229da7"/>
        <path id="Trazado_105118" data-name="Trazado 105118" d="M451.748,283.237l-3.041-1.64-16.352,9.441,2.941,1.7Z" transform="translate(-282.995 -239.62)" fill="#229da7"/>
        <path id="Trazado_105119" data-name="Trazado 105119" d="M404.689,328.461l3.041,1.64,74.229-42.856-2.941-1.7Z" transform="translate(-332.352 -232.574)" fill="#229da7"/>
        <path id="Trazado_105120" data-name="Trazado 105120" d="M475.6,296.9l-3.042-1.64-16.492,9.522,2.941,1.7Z" transform="translate(-240.698 -215.251)" fill="#229da7"/>
        <path id="Trazado_105121" data-name="Trazado 105121" d="M428.448,342.068l3.041,1.64,74.089-42.775-2.941-1.7Z" transform="translate(-289.965 -208.153)" fill="#229da7"/>
        <path id="Trazado_105122" data-name="Trazado 105122" d="M430.834,343.369l3.042,1.64,73.991-42.719-2.941-1.7Z" transform="translate(-285.707 -205.731)" fill="#229da7"/>
        <path id="Trazado_105123" data-name="Trazado 105123" d="M478.046,298.234,475,296.593l-16.59,9.578,2.941,1.7Z" transform="translate(-236.502 -212.865)" fill="#229da7"/>
      </g>
      <g id="Grupo_71497" data-name="Grupo 71497" transform="translate(151.873 91.722)">
        <path id="Trazado_105124" data-name="Trazado 105124" d="M452.338,322.318l-3.966,2.29L416.626,306.28l3.966-2.29Z" transform="translate(-416.626 -265.864)" fill="#ffaf04"/>
        <path id="Trazado_105125" data-name="Trazado 105125" d="M449.894,317.362l-3.966,2.29-23.141-13.36,3.966-2.29Z" transform="translate(-405.635 -265.842)" fill="#ffaf04"/>
        <path id="Trazado_105126" data-name="Trazado 105126" d="M449.374,313.391l-3.966,2.29-17.369-10.028,3.967-2.29Z" transform="translate(-396.264 -266.981)" fill="#ffaf04"/>
        <path id="Trazado_105127" data-name="Trazado 105127" d="M458.722,315.361l-3.966,2.29-27.325-15.776,3.966-2.29Z" transform="translate(-397.349 -273.722)" fill="#ffaf04"/>
        <path id="Trazado_105128" data-name="Trazado 105128" d="M451.83,307.837l-3.966,2.29-11.778-6.8,3.966-2.29Z" transform="translate(-381.91 -271.132)" fill="#ffaf04"/>
        <path id="Trazado_105129" data-name="Trazado 105129" d="M462.356,310.243l-3.966,2.29-23.243-13.42,3.966-2.29Z" transform="translate(-383.585 -278.649)" fill="#ff9201"/>
        <path id="Trazado_105130" data-name="Trazado 105130" d="M461.556,306.358l-3.966,2.29L440.22,298.62l3.967-2.29Z" transform="translate(-374.532 -279.528)" fill="#ff9201"/>
        <path id="Trazado_105131" data-name="Trazado 105131" d="M477.878,312.355l-3.967,2.29L435.7,292.585l3.966-2.29Z" transform="translate(-382.591 -290.295)" fill="#ff9201"/>
        <path id="Trazado_105132" data-name="Trazado 105132" d="M474.122,306.642l-3.967,2.29L442.6,293.022l3.966-2.29Z" transform="translate(-370.289 -289.517)" fill="#ff9201"/>
        <path id="Trazado_105133" data-name="Trazado 105133" d="M467.19,298.968l-3.966,2.29-11.778-6.8,3.966-2.29Z" transform="translate(-354.506 -286.954)" fill="#ff9201"/>
        <path id="Trazado_105134" data-name="Trazado 105134" d="M518.762,293.458l-93.107,53.755,1.193.689,93.107-53.755Z" transform="translate(-400.518 -284.653)" fill="#261822"/>
      </g>
      <path id="Trazado_105135" data-name="Trazado 105135" d="M426.922,300.662l-3.042-1.64-16.492,9.522,2.941,1.7Z" transform="translate(-281.235 -183.005)" fill="#ffaf04"/>
      <path id="Trazado_105136" data-name="Trazado 105136" d="M429.364,302.091l-3.042-1.64-16.492,9.522,2.941,1.7Z" transform="translate(-276.878 -180.455)" fill="#ffaf04"/>
    </g>
    <g id="Grupo_71508" data-name="Grupo 71508" transform="translate(407.286 314.265)">
      <path id="Trazado_105137" data-name="Trazado 105137" d="M417.278,283.67a33.116,33.116,0,0,0-7.189,9.5c-1.62,3.341-5.2,8.052-7.453,11.028-1.233-1.317-7.247-7.729-10.045-11.019-2.575-3.032-4.3-2.522-6.782-3.032-2.578-.526-2.355-2.837-4.989-2.973s-2.191,1.136,0,4.034c1.353,1.793,3.218,3.4,4.39,3.72,2.484.679,4.889.532,5.6,2.79.445,1.406,4.783,11.114,6.971,12.612,2.89,1.98,3.015,2.625,5.234,2.495,1.565-.092,2.9-1.712,3.569-2.495,2.11-2.419,4.711-4.867,6.6-7.576,2.592-3.7,7.951-13.57,8.155-13.929S417.278,283.67,417.278,283.67Z" transform="translate(-369.346 -263.873)" fill="#ffb9a4"/>
      <path id="Trazado_105138" data-name="Trazado 105138" d="M401.007,283.371a11.161,11.161,0,0,0-5.2,3.472c-2.5,2.829-7.395,11.443-7.395,11.443s2.286,3.5,3.385,4.24,3.9,2.366,3.9,2.366l9.494-14.224Z" transform="translate(-352.57 -264.407)" fill="#fff"/>
      <path id="Trazado_105139" data-name="Trazado 105139" d="M391.889,317.063c-1.317,1.453-2.8,3.079-4.148,4.51-1.832,1.935-3.987,3.984-5.969,5.752-2.428,2.169-2.614,4.791,1.367,4.569,6.437-.359,7.943-3.06,10.916-5.34.415-.32,1.105.445,2.734-.212,2.066-.832,2.319-1.164,2.319-3.216a16.961,16.961,0,0,0-.813-5.362l.064-.064C398.673,317.345,393.648,315.123,391.889,317.063Z" transform="translate(-367.518 -205.698)" fill="#261822"/>
      <path id="Trazado_105140" data-name="Trazado 105140" d="M396.348,322.056c-1.317,1.453-2.8,3.082-4.151,4.513-1.829,1.932-3.984,3.981-5.966,5.752-2.428,2.169-2.614,4.789,1.367,4.566,6.437-.359,7.94-3.06,10.916-5.34.415-.317,1.1.445,2.731-.212,2.069-.832,2.319-1.161,2.319-3.216a16.942,16.942,0,0,0-.81-5.359l.061-.067C403.133,322.337,398.1,320.118,396.348,322.056Z" transform="translate(-359.563 -196.789)" fill="#261822"/>
      <path id="Trazado_105141" data-name="Trazado 105141" d="M427.766,302.486c-.535-1.128-12.879-5.24-12.551-5.089-9.881,3.728-21.883,7.857-30.185,15-1.523.253-3.077.763-3,3.578.058,2.188,1.339,5.961,1.7,8.171,1.258,7.676,2.862,20.115,3.455,27.866,1.3,2.322,5.162,2.322,7.617.576.746-5.554,1.025-13.024,1.971-17.47,1.253-5.877-.8-8.734-2.6-11.88,4.858.189,15.382-5.273,20.1-6.593,5.716-1.6,7.289-1.643,11.532-5.994C428.715,307.67,429.745,306.651,427.766,302.486Z" transform="translate(-363.958 -239.391)" fill="#261822"/>
      <path id="Trazado_105142" data-name="Trazado 105142" d="M415.351,300.827c-3.057.075-6.448.3-9.446-.607a10.749,10.749,0,0,0-.846,1.356c-1.091,2.222-2.1,3.9-1.261,6.428-1.484,2.1-8.18,10.326-9.38,12.84-1.542,1.537-2.372,2.411-2.18,5.933a54.375,54.375,0,0,1-.507,10.287c-.871,8.553-2.394,15.783-3.012,24.361,1.993,3.065,4.663,3.193,7.3.78,2.567-7.96,7.584-13.517,8.107-20.48.348-4.613.42-8.088-1.629-11.017,8.464-4.647,19.3-7.255,23.957-16.095,3.015-5.727,1.556-9.978-1.54-15.85C422.088,300.49,418.817,300.746,415.351,300.827Z" transform="translate(-352.019 -236.944)" fill="#3a2934"/>
      <path id="Trazado_105143" data-name="Trazado 105143" d="M397.175,286.62c3.458-4.382,2.016-3.118,6.2-.721,5.128,2.937,9.268,4.786,11.512,6.654,3.809,3.163,6.016,9.689,6.662,17.893a46.848,46.848,0,0,0,1.292,6.743c1.576,4.48.807,5.217-.312,6.264,1.659,0,2.442,2.364,1.217,3.227-7.834,5.518-22.866,5.593-25-3.575a5.774,5.774,0,0,1,.819-2.82c-.955-.537-1.423-2.422-1.423-3.653-1.76-.952-2.141-2.425-2.542-4.911-3.525-.793-7.214-4.736-5.535-8.8,1.364-3.316,1.835-6.3,2.823-8.572C395.173,289.1,396.189,287.873,397.175,286.62Z" transform="translate(-350.358 -263.797)" fill="#ff6029"/>
      <path id="Trazado_105144" data-name="Trazado 105144" d="M393.606,292.532c.966-.159,3.486-1.445,2.731-6.122-.209-1.311,5.677-4.83,5.677-4.644-.064,4.237.972,8.831,2.912,11.031-2.8,2.923-5.426,9.583-10.254,7.2C392.261,298.81,391.7,297.927,393.606,292.532Z" transform="translate(-345.336 -267.284)" fill="#ffb9a4"/>
      <path id="Trazado_105145" data-name="Trazado 105145" d="M395.128,284.522s-1.876,5.165-2.522,6.863l-1.871,4.9s1.81-.8,2.72-.312,2.188,1.918,2.973,2.141a5.038,5.038,0,0,0,1.823.056l.624-2.16s-1.64-.515-1.62-3.288.465-6.529.465-6.529Z" transform="translate(-348.421 -262.353)" fill="#fff"/>
      <path id="Trazado_105146" data-name="Trazado 105146" d="M402.132,284.165a10.028,10.028,0,0,1-1.523,4.307c-1.481,2.542-4.889,5.479-6.465,6.74-2.3,1.846-.949,5.2-.949,5.2s.874-1.932,1.93-1.592,1.606,1.317,2.829,2.444a21.144,21.144,0,0,1,3.586-4.822c1.7-1.668,4.869-5.345,4.1-8.405A5.534,5.534,0,0,0,402.132,284.165Z" transform="translate(-344.736 -262.99)" fill="#fff"/>
      <path id="Trazado_105147" data-name="Trazado 105147" d="M394.188,282.295a.618.618,0,0,0-.17-.209c.039-.039.078-.081.117-.123a.068.068,0,0,0-.064-.111c-.136.031-.27.1-.406.145a.647.647,0,0,0-.278.1c-2.392.969-4.675,4-3.756,6.548a2.248,2.248,0,0,0,2.662,1.439l.025-.006c-.832,2.709.189,5.972,3.436,4.7,2.174-.855,2.7-3.575,2.637-5.652C398.294,286.176,395.471,284.778,394.188,282.295Z" transform="translate(-350.763 -267.12)" fill="#261822"/>
      <path id="Trazado_105148" data-name="Trazado 105148" d="M392.768,280.148c3.99-.9,6.078-1.061,9.622.373a19.7,19.7,0,0,1,5.666,2.606.5.5,0,0,1,.22.451c-.913,5.256-2.676,10.827-8.575,13.16-4.853,1.918-7.573-3.4-8.416-6.971C390.3,285.607,390,280.766,392.768,280.148Z" transform="translate(-348.689 -271.387)" fill="#ffc9b6"/>
      <path id="Trazado_105149" data-name="Trazado 105149" d="M394.721,283.984s.952-3.227,3.057-1.57-.874,4.928-.874,4.928Z" transform="translate(-341.309 -266.958)" fill="#ffc9b6"/>
      <path id="Trazado_105150" data-name="Trazado 105150" d="M396.3,297.907s4.758-1.54,7.325-1.233a20.189,20.189,0,0,1,4.78,1.233s-3.625.515-6.053.618A32.347,32.347,0,0,1,396.3,297.907Z" transform="translate(-338.487 -240.745)" fill="#f24a1d"/>
      <path id="Trazado_105151" data-name="Trazado 105151" d="M395.86,298.885c.306,0,5.652-.153,8.528-.359s4.009-.345,4.009-.345a10.285,10.285,0,0,1-5.7,1.785A26.808,26.808,0,0,1,395.86,298.885Z" transform="translate(-339.277 -237.984)" fill="#f24a1d"/>
      <path id="Trazado_105152" data-name="Trazado 105152" d="M383.646,290.629s-.972-1.648-1.829-3.555c-.582-1.289-.354-2.489.351-2.664s.718,1.423,1.478,2.141,3.731,3.21,3.263,4.5S383.646,290.629,383.646,290.629Z" transform="translate(-364.921 -262.58)" fill="#ffb9a4"/>
      <g id="Grupo_71506" data-name="Grupo 71506" transform="translate(0 50.117)">
        <g id="Grupo_71499" data-name="Grupo 71499" transform="translate(11.478 12.915)">
          <path id="Trazado_105153" data-name="Trazado 105153" d="M380.19,308.219l.821.933a6.321,6.321,0,0,1,1.13-.844l12.283-7.091c2.779-1.6,7.019-1.779,9.421-.39l19.586,11.306a3.69,3.69,0,0,1,.379.276l.9-1.019a5.11,5.11,0,0,1,.2,3.9.7.7,0,0,1-.042.078,4.612,4.612,0,0,1-2.11,2.208l-12.283,7.091c-2.778,1.6-7.016,1.779-9.421.39l-19.586-11.306a3.243,3.243,0,0,1-1.389-1.442,1.528,1.528,0,0,1-.117-.223A4.937,4.937,0,0,1,380.19,308.219Z" transform="translate(-379.659 -297.968)" fill="#35aeba"/>
          <path id="Trazado_105154" data-name="Trazado 105154" d="M400.934,324.364l-19.586-11.306c-2.406-1.389-2.1-3.836.676-5.44l12.284-7.091c2.778-1.6,7.019-1.779,9.421-.393l19.586,11.309c2.406,1.389,2.1,3.837-.676,5.44l-12.283,7.091C407.577,325.578,403.339,325.753,400.934,324.364Z" transform="translate(-379.541 -299.199)" fill="#296369"/>
        </g>
        <g id="Grupo_71502" data-name="Grupo 71502" transform="translate(19.953 14.048)">
          <g id="Grupo_71500" data-name="Grupo 71500">
            <path id="Trazado_105155" data-name="Trazado 105155" d="M389.5,300.583l-1.584-.916a.679.679,0,0,0-.607.025l-.877.5c-.178.106-.2.262-.042.354l1.584.913a.685.685,0,0,0,.61-.025l.874-.5C389.64,300.83,389.659,300.672,389.5,300.583Z" transform="translate(-376.307 -299.606)" fill="#c5d2ef"/>
            <path id="Trazado_105156" data-name="Trazado 105156" d="M393.764,303.04l-4.747-2.74a.679.679,0,0,0-.607.025l-.874.5c-.181.106-.2.262-.044.354l4.747,2.739a.679.679,0,0,0,.607-.025l.874-.507C393.9,303.288,393.92,303.129,393.764,303.04Z" transform="translate(-374.348 -298.475)" fill="#c5d2ef"/>
            <path id="Trazado_105157" data-name="Trazado 105157" d="M392.836,302.506l-1.584-.916a.685.685,0,0,0-.61.025l-.874.507c-.178.1-.2.262-.044.351l1.587.916a.679.679,0,0,0,.607-.025l.874-.507C392.972,302.753,392.992,302.595,392.836,302.506Z" transform="translate(-370.363 -296.176)" fill="#c5d2ef"/>
            <path id="Trazado_105158" data-name="Trazado 105158" d="M387.823,301.55l-1.584-.913a.679.679,0,0,0-.607.025l-.874.5c-.181.106-.2.262-.044.354l1.584.913a.685.685,0,0,0,.61-.025l.874-.5C387.96,301.8,387.979,301.642,387.823,301.55Z" transform="translate(-379.304 -297.876)" fill="#c5d2ef"/>
            <path id="Trazado_105159" data-name="Trazado 105159" d="M388.924,302.184l-1.587-.913a.679.679,0,0,0-.607.025l-.874.5c-.181.106-.2.262-.045.351l1.584.916a.685.685,0,0,0,.61-.025l.874-.507C389.058,302.432,389.077,302.276,388.924,302.184Z" transform="translate(-377.345 -296.745)" fill="#c5d2ef"/>
            <path id="Trazado_105160" data-name="Trazado 105160" d="M390.058,302.841l-1.584-.916a.677.677,0,0,0-.61.028l-.874.5c-.178.1-.2.262-.045.351l1.587.916a.679.679,0,0,0,.607-.025l.874-.507C390.194,303.089,390.214,302.93,390.058,302.841Z" transform="translate(-375.319 -295.576)" fill="#c5d2ef"/>
            <path id="Trazado_105161" data-name="Trazado 105161" d="M391.155,303.476l-1.584-.916a.685.685,0,0,0-.61.025l-.874.507c-.178.1-.2.262-.042.351l1.584.916a.679.679,0,0,0,.607-.025l.874-.507C391.292,303.723,391.311,303.565,391.155,303.476Z" transform="translate(-373.36 -294.445)" fill="#c5d2ef"/>
            <path id="Trazado_105162" data-name="Trazado 105162" d="M386.986,302.035l-1.587-.913a.679.679,0,0,0-.607.025l-.874.5c-.181.1-.2.262-.044.351l1.584.916a.685.685,0,0,0,.61-.025l.874-.5C387.12,302.283,387.139,302.127,386.986,302.035Z" transform="translate(-380.803 -297.011)" fill="#c5d2ef"/>
            <path id="Trazado_105163" data-name="Trazado 105163" d="M388.084,302.67l-1.587-.913a.67.67,0,0,0-.607.025l-.874.5c-.181.1-.2.262-.045.351l1.584.916a.685.685,0,0,0,.61-.025l.874-.5C388.218,302.917,388.237,302.759,388.084,302.67Z" transform="translate(-378.844 -295.88)" fill="#c5d2ef"/>
            <path id="Trazado_105164" data-name="Trazado 105164" d="M389.217,303.326l-1.584-.916a.685.685,0,0,0-.61.025l-.874.507c-.178.1-.2.262-.042.351l1.584.916a.679.679,0,0,0,.607-.025l.874-.507C389.354,303.574,389.373,303.416,389.217,303.326Z" transform="translate(-376.817 -294.711)" fill="#c5d2ef"/>
            <path id="Trazado_105165" data-name="Trazado 105165" d="M390.316,303.96l-1.584-.916a.685.685,0,0,0-.61.025l-.874.507c-.178.1-.2.262-.045.351l1.587.916a.671.671,0,0,0,.607-.028l.874-.5C390.452,304.208,390.472,304.05,390.316,303.96Z" transform="translate(-374.859 -293.58)" fill="#c5d2ef"/>
            <path id="Trazado_105166" data-name="Trazado 105166" d="M385.918,302.65l-1.584-.913a.679.679,0,0,0-.607.025l-.877.5c-.178.106-.2.262-.042.354l1.584.913a.679.679,0,0,0,.607-.025l.874-.5C386.055,302.9,386.074,302.742,385.918,302.65Z" transform="translate(-382.703 -295.913)" fill="#c5d2ef"/>
            <path id="Trazado_105167" data-name="Trazado 105167" d="M387.017,303.284l-1.584-.913a.679.679,0,0,0-.607.025l-.877.5c-.178.1-.2.262-.044.351l1.587.916a.679.679,0,0,0,.607-.025l.874-.5C387.153,303.531,387.173,303.376,387.017,303.284Z" transform="translate(-380.745 -294.782)" fill="#c5d2ef"/>
            <path id="Trazado_105168" data-name="Trazado 105168" d="M388.154,303.941l-1.584-.916a.677.677,0,0,0-.61.028l-.874.5c-.181.1-.2.262-.045.351l1.584.916a.685.685,0,0,0,.61-.025l.874-.507C388.29,304.189,388.31,304.03,388.154,303.941Z" transform="translate(-378.719 -293.613)" fill="#c5d2ef"/>
            <path id="Trazado_105169" data-name="Trazado 105169" d="M389.252,304.576l-1.584-.916a.685.685,0,0,0-.61.025l-.874.507c-.181.1-.2.262-.045.351l1.584.916a.685.685,0,0,0,.61-.025l.874-.507C389.389,304.823,389.408,304.665,389.252,304.576Z" transform="translate(-376.76 -292.482)" fill="#c5d2ef"/>
            <path id="Trazado_105170" data-name="Trazado 105170" d="M388.663,301.065l-1.584-.913a.679.679,0,0,0-.607.025l-.874.5c-.181.106-.2.262-.045.354l1.584.913a.685.685,0,0,0,.61-.025l.874-.5C388.8,301.312,388.819,301.157,388.663,301.065Z" transform="translate(-377.806 -298.741)" fill="#c5d2ef"/>
            <path id="Trazado_105171" data-name="Trazado 105171" d="M389.761,301.7l-1.584-.913a.679.679,0,0,0-.607.025l-.874.5c-.181.106-.2.262-.044.354l1.584.913a.685.685,0,0,0,.61-.025l.874-.5C389.9,301.947,389.917,301.791,389.761,301.7Z" transform="translate(-375.847 -297.61)" fill="#c5d2ef"/>
            <path id="Trazado_105172" data-name="Trazado 105172" d="M390.9,302.356l-1.584-.913a.668.668,0,0,0-.61.025l-.874.5c-.178.1-.2.262-.045.351l1.587.916a.679.679,0,0,0,.607-.025l.874-.507C391.034,302.6,391.054,302.445,390.9,302.356Z" transform="translate(-373.821 -296.441)" fill="#c5d2ef"/>
            <path id="Trazado_105173" data-name="Trazado 105173" d="M392,302.99l-1.584-.916a.677.677,0,0,0-.61.028l-.874.5c-.178.1-.2.262-.045.351l1.587.916a.68.68,0,0,0,.607-.025l.874-.507C392.132,303.238,392.152,303.079,392,302.99Z" transform="translate(-371.862 -295.31)" fill="#c5d2ef"/>
            <path id="Trazado_105174" data-name="Trazado 105174" d="M393.952,303.147l-1.587-.913a.679.679,0,0,0-.607.025l-.874.5c-.181.106-.2.262-.044.354l1.584.913a.685.685,0,0,0,.61-.025l.874-.5C394.086,303.395,394.105,303.239,393.952,303.147Z" transform="translate(-368.375 -295.027)" fill="#c5d2ef"/>
            <path id="Trazado_105175" data-name="Trazado 105175" d="M393.771,304.117l-1.584-.913a.685.685,0,0,0-.61.025l-3.213,1.854c-.181.106-.2.262-.045.354l1.584.913a.685.685,0,0,0,.61-.025l3.213-1.854C393.9,304.364,393.924,304.209,393.771,304.117Z" transform="translate(-372.871 -293.296)" fill="#c5d2ef"/>
            <path id="Trazado_105176" data-name="Trazado 105176" d="M390.364,305.219l-1.584-.916a.679.679,0,0,0-.607.025l-.877.5c-.178.106-.2.262-.042.354l1.584.913a.679.679,0,0,0,.607-.025l.877-.5C390.5,305.465,390.52,305.309,390.364,305.219Z" transform="translate(-374.771 -291.333)" fill="#c5d2ef"/>
            <path id="Trazado_105177" data-name="Trazado 105177" d="M393.112,303.632l-1.584-.913a.685.685,0,0,0-.61.025l-.874.5c-.181.106-.2.262-.045.354l1.584.913a.685.685,0,0,0,.61-.025l.874-.5C393.246,303.88,393.265,303.724,393.112,303.632Z" transform="translate(-369.874 -294.161)" fill="#c5d2ef"/>
          </g>
          <g id="Grupo_71501" data-name="Grupo 71501" transform="translate(9.825 8.912)">
            <path id="Trazado_105178" data-name="Trazado 105178" d="M395.05,303.781l-1.584-.913a.685.685,0,0,0-.61.025l-.874.5c-.181.106-.2.262-.045.354l1.584.913a.685.685,0,0,0,.61-.025l.874-.5C395.184,304.028,395.2,303.873,395.05,303.781Z" transform="translate(-376.241 -302.807)" fill="#c5d2ef"/>
            <path id="Trazado_105179" data-name="Trazado 105179" d="M399.308,306.241l-4.747-2.74a.679.679,0,0,0-.607.025l-.874.5c-.181.106-.2.262-.044.354l4.747,2.74a.679.679,0,0,0,.607-.025l.877-.507C399.444,306.489,399.464,306.33,399.308,306.241Z" transform="translate(-374.282 -301.676)" fill="#c5d2ef"/>
            <path id="Trazado_105180" data-name="Trazado 105180" d="M393.37,304.752l-1.587-.913a.67.67,0,0,0-.607.025l-.874.5c-.181.1-.2.262-.044.351l1.584.916a.685.685,0,0,0,.61-.025l.874-.5C393.5,305,393.523,304.843,393.37,304.752Z" transform="translate(-379.239 -301.078)" fill="#c5d2ef"/>
            <path id="Trazado_105181" data-name="Trazado 105181" d="M394.468,305.385l-1.584-.913a.676.676,0,0,0-.61.025l-.874.5c-.181.1-.2.262-.044.351l1.584.916a.685.685,0,0,0,.61-.025l.874-.507C394.6,305.633,394.621,305.475,394.468,305.385Z" transform="translate(-377.28 -299.947)" fill="#c5d2ef"/>
            <path id="Trazado_105182" data-name="Trazado 105182" d="M395.6,306.042l-1.584-.916a.679.679,0,0,0-.607.025l-.877.507c-.178.1-.2.262-.042.351l1.584.916a.679.679,0,0,0,.607-.025l.877-.507C395.738,306.29,395.757,306.132,395.6,306.042Z" transform="translate(-375.253 -298.777)" fill="#c5d2ef"/>
            <path id="Trazado_105183" data-name="Trazado 105183" d="M392.53,305.236l-1.584-.913a.676.676,0,0,0-.61.025l-.874.5c-.181.1-.2.262-.045.354l1.584.913a.685.685,0,0,0,.61-.025l.874-.507C392.664,305.484,392.683,305.328,392.53,305.236Z" transform="translate(-380.737 -300.212)" fill="#c5d2ef"/>
            <path id="Trazado_105184" data-name="Trazado 105184" d="M393.628,305.871l-1.584-.913a.668.668,0,0,0-.61.025l-.874.5c-.181.1-.2.262-.044.351l1.584.916a.685.685,0,0,0,.61-.025l.874-.507C393.762,306.119,393.781,305.96,393.628,305.871Z" transform="translate(-378.778 -299.082)" fill="#c5d2ef"/>
            <path id="Trazado_105185" data-name="Trazado 105185" d="M394.761,306.528l-1.584-.916a.679.679,0,0,0-.607.025l-.877.507c-.178.1-.2.262-.042.351l1.584.916a.679.679,0,0,0,.607-.025l.877-.507C394.9,306.775,394.917,306.617,394.761,306.528Z" transform="translate(-376.752 -297.912)" fill="#c5d2ef"/>
            <path id="Trazado_105186" data-name="Trazado 105186" d="M391.462,305.851l-1.584-.913a.679.679,0,0,0-.607.025l-.877.5c-.178.106-.2.262-.042.354l1.584.913a.679.679,0,0,0,.607-.025l.877-.5C391.6,306.1,391.618,305.943,391.462,305.851Z" transform="translate(-382.637 -299.114)" fill="#c5d2ef"/>
            <path id="Trazado_105187" data-name="Trazado 105187" d="M392.56,306.485l-1.584-.913a.68.68,0,0,0-.607.025l-.877.5c-.178.106-.2.262-.042.354l1.584.913a.68.68,0,0,0,.607-.025l.877-.507C392.7,306.733,392.716,306.577,392.56,306.485Z" transform="translate(-380.679 -297.983)" fill="#c5d2ef"/>
            <path id="Trazado_105188" data-name="Trazado 105188" d="M393.7,307.142l-1.584-.916a.677.677,0,0,0-.61.028l-.874.5c-.178.1-.2.262-.045.351l1.584.916a.685.685,0,0,0,.61-.025l.874-.507C393.834,307.39,393.853,307.231,393.7,307.142Z" transform="translate(-378.653 -296.814)" fill="#c5d2ef"/>
            <path id="Trazado_105189" data-name="Trazado 105189" d="M389.45,305.729l-1.584-.913a.685.685,0,0,0-.61.025l-.874.507c-.181.1-.2.262-.045.351l1.584.913a.668.668,0,0,0,.61-.025l.874-.5C389.584,305.979,389.606,305.821,389.45,305.729Z" transform="translate(-386.232 -299.332)" fill="#c5d2ef"/>
            <path id="Trazado_105190" data-name="Trazado 105190" d="M390.548,306.363l-1.584-.913a.685.685,0,0,0-.61.025l-.874.507c-.181.1-.2.259-.044.351l1.584.913a.685.685,0,0,0,.61-.025l.874-.5C390.682,306.611,390.7,306.455,390.548,306.363Z" transform="translate(-384.273 -298.201)" fill="#c5d2ef"/>
            <path id="Trazado_105191" data-name="Trazado 105191" d="M391.646,307l-1.584-.913a.685.685,0,0,0-.61.025l-.874.5c-.181.106-.2.262-.045.354l1.584.913a.685.685,0,0,0,.61-.025l.874-.5C391.78,307.245,391.8,307.089,391.646,307Z" transform="translate(-382.314 -297.07)" fill="#c5d2ef"/>
            <path id="Trazado_105192" data-name="Trazado 105192" d="M392.779,307.654l-1.584-.913a.662.662,0,0,0-.607.025l-.877.5c-.178.1-.2.262-.042.351l1.584.916a.679.679,0,0,0,.607-.025l.877-.507C392.916,307.9,392.935,307.743,392.779,307.654Z" transform="translate(-380.288 -295.901)" fill="#c5d2ef"/>
            <path id="Trazado_105193" data-name="Trazado 105193" d="M394.21,304.266l-1.587-.913a.679.679,0,0,0-.607.025l-.874.5c-.181.1-.2.262-.044.351l1.584.916a.685.685,0,0,0,.61-.025l.874-.5C394.344,304.514,394.363,304.355,394.21,304.266Z" transform="translate(-377.74 -301.942)" fill="#c5d2ef"/>
            <path id="Trazado_105194" data-name="Trazado 105194" d="M395.308,304.9l-1.587-.913a.679.679,0,0,0-.607.025l-.874.5c-.181.1-.2.262-.045.351l1.584.916a.685.685,0,0,0,.61-.025l.874-.5C395.442,305.148,395.461,304.989,395.308,304.9Z" transform="translate(-375.781 -300.811)" fill="#c5d2ef"/>
            <path id="Trazado_105195" data-name="Trazado 105195" d="M396.441,305.558l-1.584-.916a.679.679,0,0,0-.607.025l-.877.507c-.178.1-.2.262-.042.351l1.584.916a.679.679,0,0,0,.607-.025l.877-.507C396.578,305.805,396.6,305.647,396.441,305.558Z" transform="translate(-373.754 -299.643)" fill="#c5d2ef"/>
          </g>
        </g>
        <g id="Grupo_71503" data-name="Grupo 71503">
          <path id="Trazado_105196" data-name="Trazado 105196" d="M375.647,296.063a3.117,3.117,0,0,1,2.511-1.5h.042a3.542,3.542,0,0,1,1.812.546l23.139,13.233a8.481,8.481,0,0,1,3.33,4.518c.264.774,4.7,11.2,6,14.647a6.6,6.6,0,0,1,.6,3.051h0v0a1.917,1.917,0,0,1-.064.276c-.337,1.559-2.316,1.654-2.316,1.654l-.189-1.428c-.053-.031-.1-.053-.156-.084l-20.881-12.055c-2.1-1.217-3.764-4.017-5.084-6.829,0,0-4.906-10.474-6.445-13.756l-.434.42S375.14,297.023,375.647,296.063Z" transform="translate(-375.467 -294.56)" fill="#35aeba"/>
          <path id="Trazado_105197" data-name="Trazado 105197" d="M387.975,319.264l20.881,12.052c2.1,1.217,3.689.665,2.13-3.469-1.3-3.447-5.733-13.873-6-14.647a8.468,8.468,0,0,0-3.33-4.519L378.52,295.449c-1.258-.727-2.678-.869-2.957.415a3.364,3.364,0,0,0,.429,1.849c.2.429,6.9,14.722,6.9,14.722C384.211,315.247,385.87,318.048,387.975,319.264Z" transform="translate(-375.536 -293.956)" fill="#296369"/>
        </g>
        <g id="Grupo_71504" data-name="Grupo 71504" transform="translate(26.802 32.934)">
          <path id="Trazado_105198" data-name="Trazado 105198" d="M386.381,309.531l3.3,1.9-1.218-3.029-3.3-1.9Z" transform="translate(-385.163 -306.19)" fill="#e0d1db"/>
          <path id="Trazado_105199" data-name="Trazado 105199" d="M385.163,306.7l.531-.312,3.3,1.9-.531.312Z" transform="translate(-385.163 -306.39)" fill="#c5d2ef"/>
          <path id="Trazado_105200" data-name="Trazado 105200" d="M387.566,310.415l.531-.312-1.217-3.029-.531.312Z" transform="translate(-383.049 -305.169)" fill="#96b0d6"/>
        </g>
        <g id="Grupo_71505" data-name="Grupo 71505" transform="translate(12.635 24.709)">
          <path id="Trazado_105201" data-name="Trazado 105201" d="M381.292,306.577l3.3,1.9-1.218-3.029-3.3-1.9Z" transform="translate(-380.075 -303.236)" fill="#e0d1db"/>
          <path id="Trazado_105202" data-name="Trazado 105202" d="M380.075,303.748l.531-.312,3.3,1.9-.531.312Z" transform="translate(-380.075 -303.436)" fill="#c5d2ef"/>
          <path id="Trazado_105203" data-name="Trazado 105203" d="M382.477,307.461l.531-.313-1.218-3.029-.531.312Z" transform="translate(-377.96 -302.215)" fill="#96b0d6"/>
        </g>
      </g>
      <path id="Trazado_105204" data-name="Trazado 105204" d="M416.51,293.106c-1.233-3.322-8.3.671-8.3.671s-.019,2.993,0,5.905.287,10.262.287,10.262-7.971,12.116-8.851,13.322c-.306.42-2.155-.036-3.383.793-1.573,1.061-1.673,1.871-2.528,2.38-1.679,1-1.743,1.988-.448,1.932,1.244-.053,2.4-1.434,2.792-1.4.59.053.22,1.258-.56,2.9-.715,1.509-2.8,3.817-1.79,5.273s3.4.515,5.735-1.79c1.921-1.9,2.127-4.669,3.349-7.261.657-1.395,9.232-10.3,10.877-11.618a3.7,3.7,0,0,0,1.592-2.082,11.829,11.829,0,0,0,.677-4.374C415.959,304.835,417.743,296.428,416.51,293.106Z" transform="translate(-345.475 -249.394)" fill="#ffc9b6"/>
      <g id="Grupo_71507" data-name="Grupo 71507" transform="translate(61.02 31.18)">
        <path id="Trazado_105205" data-name="Trazado 105205" d="M401.464,288.015c-2.578.935-3.786,4.647-3.926,9.3s-.064,11.226-.064,11.226a12.859,12.859,0,0,0,6.167,1.637,7.831,7.831,0,0,0,5.552-1.974s-.571-12.815-1.907-16.39S403.674,287.214,401.464,288.015Z" transform="translate(-397.454 -287.759)" fill="#fff"/>
      </g>
      <path id="Trazado_105206" data-name="Trazado 105206" d="M417.553,292.119a7.347,7.347,0,0,0-2.932-3.967,3.16,3.16,0,0,0-.212-2.893c-.738-1.325-3.065-3.358-5-3.383a3.5,3.5,0,0,0,.373-2.976,3.385,3.385,0,0,0-2.74-1.882c-1.734-.3-3.656-.025-4.719,1.253a2.984,2.984,0,0,0-3.655-1.5,2.221,2.221,0,0,0-1.161,1.537,2.111,2.111,0,0,0-3.088.095,1.374,1.374,0,0,0-.047,1.734c-1.918-.195-4.2.356-4.6,2.057a2.383,2.383,0,0,0,.885,2.405c-1.451,1.075-2.269,2.8-.841,4.388,1.67,1.849,5.39,1.487,7.3-.186.571,2.216,2.294,4.243,4.6,4.468a3.956,3.956,0,0,0,2.709-.963,9.046,9.046,0,0,0,1.648,2.018,6.445,6.445,0,0,0-.977,4.126,4.255,4.255,0,0,0,1.559,2.854,6.459,6.459,0,0,0-2.03,6.579c.587,2.027,3.007,3.6,6.211,1.542,1.545-.991,2.8-4.438,2.264-5.794a2.528,2.528,0,0,0,3.043-1.843,4.846,4.846,0,0,0-.858-3.689C417.334,297.236,418.041,294.048,417.553,292.119Z" transform="translate(-351.379 -276.559)" fill="#261822"/>
    </g>
    <g id="Grupo_71540" data-name="Grupo 71540" transform="translate(567.888 255.425)">
      <path id="Trazado_105207" data-name="Trazado 105207" d="M466.74,271.595c-5.387-1.194-9.811,2.358-15.488,5-.131.006-17.172,14.229-17.091,14.466-2.508,5.343,1.3,13.622,8.344,12.726,3.605,2.213,26.424-11.468,26.424-20.193C472.461,280.295,472.968,272.978,466.74,271.595Z" transform="translate(-432.927 -227.001)" fill="#261822"/>
      <path id="Trazado_105208" data-name="Trazado 105208" d="M437.468,285.926a10,10,0,0,0,.212,9.711,10.6,10.6,0,0,0,15.452,3.338c3.349-.367,18.715-4.6,23.423-8.542,6.156-1.929,7.648-4.324,7.305-7.912-.4-4.215-8.208-6.445-10.827-5.955s-23.473,4.026-23.473,4.026Z" transform="translate(-427.709 -217.827)" fill="#3a2934"/>
      <g id="Grupo_71538" data-name="Grupo 71538" transform="translate(20.706 16.575)">
        <g id="Grupo_71509" data-name="Grupo 71509" transform="translate(34.757 31.517)">
          <path id="Trazado_105209" data-name="Trazado 105209" d="M453.143,274.136a1.709,1.709,0,0,1,.707-1.356.457.457,0,0,1,.457-.036v-.006l10.571,6.044-.98,1.957-10.485-6.016,0,0A.6.6,0,0,1,453.143,274.136Z" transform="translate(-453.143 -272.699)" fill="#2e428e"/>
          <path id="Trazado_105210" data-name="Trazado 105210" d="M456.924,276.309c0,.523.317.763.71.535a1.694,1.694,0,0,0,.71-1.353c0-.523-.317-.763-.71-.537A1.7,1.7,0,0,0,456.924,276.309Z" transform="translate(-446.397 -268.828)" fill="#1e36ba"/>
        </g>
        <g id="Grupo_71510" data-name="Grupo 71510" transform="translate(21.663 23.994)">
          <path id="Trazado_105211" data-name="Trazado 105211" d="M448.44,271.434a1.7,1.7,0,0,1,.71-1.356.452.452,0,0,1,.454-.036l0-.006,10.571,6.042-.983,1.96-10.482-6.016v-.006A.6.6,0,0,1,448.44,271.434Z" transform="translate(-448.44 -269.997)" fill="#2e428e"/>
          <path id="Trazado_105212" data-name="Trazado 105212" d="M452.222,273.605c0,.523.317.763.71.537a1.7,1.7,0,0,0,.707-1.356c0-.521-.317-.763-.707-.535A1.7,1.7,0,0,0,452.222,273.605Z" transform="translate(-441.693 -266.126)" fill="#1e36ba"/>
        </g>
        <g id="Grupo_71531" data-name="Grupo 71531" transform="translate(0 24.443)">
          <g id="Grupo_71511" data-name="Grupo 71511">
            <path id="Trazado_105213" data-name="Trazado 105213" d="M440.664,281.907h0c0,.022,0-1.194,0-1.194a11.932,11.932,0,0,1,1.217-.264l-.014.12,16.365-9.449a4.187,4.187,0,0,1,3.761-.153l23.481,13.556c.384-.039,1.005-.086,1.005-.086v1.217h0a1.538,1.538,0,0,1-.919,1.247l-16.652,9.613a4.2,4.2,0,0,1-3.761.156L441.307,282.9A1.084,1.084,0,0,1,440.664,281.907Z" transform="translate(-440.658 -269.389)" fill="#1e36ba"/>
            <path id="Trazado_105214" data-name="Trazado 105214" d="M465.145,296.237a4.2,4.2,0,0,0,3.761-.156l16.652-9.613c1.111-.643,1.233-1.615.27-2.172l-23.837-13.762a4.178,4.178,0,0,0-3.761.156L441.578,280.3c-1.111.64-1.231,1.615-.27,2.172Z" transform="translate(-440.659 -270.158)" fill="#35aeba"/>
            <path id="Trazado_105215" data-name="Trazado 105215" d="M441.34,282.234,465.18,296a3.728,3.728,0,0,0,3.341-.139l16.654-9.613c.986-.571,1.091-1.439.239-1.932l-23.837-13.762a3.724,3.724,0,0,0-3.344.139L441.582,280.3C440.6,280.873,440.488,281.742,441.34,282.234Z" transform="translate(-440.469 -270.048)" fill="#5e5ecc"/>
          </g>
          <g id="Grupo_71512" data-name="Grupo 71512" transform="translate(33.035 11.571)">
            <path id="Trazado_105216" data-name="Trazado 105216" d="M454.921,276.749l.729.423a1.02,1.02,0,0,0,.913-.039l.844-.487c.27-.156.3-.393.067-.526l-.729-.423a1.02,1.02,0,0,0-.913.039l-.844.487C454.718,276.379,454.687,276.615,454.921,276.749Z" transform="translate(-448.53 -272.008)" fill="#c5d2ef"/>
            <path id="Trazado_105217" data-name="Trazado 105217" d="M454.175,276.318l.729.423a1.02,1.02,0,0,0,.913-.039l.844-.487c.27-.153.3-.393.067-.526l-.732-.423a1.021,1.021,0,0,0-.913.039l-.844.487C453.972,275.948,453.941,276.185,454.175,276.318Z" transform="translate(-449.861 -272.777)" fill="#c5d2ef"/>
            <path id="Trazado_105218" data-name="Trazado 105218" d="M453.427,275.89l.732.42a1.02,1.02,0,0,0,.913-.039l.844-.487c.27-.153.3-.393.064-.526l-.729-.42a1.011,1.011,0,0,0-.913.036l-.844.487C453.224,275.517,453.2,275.753,453.427,275.89Z" transform="translate(-451.193 -273.546)" fill="#c5d2ef"/>
            <path id="Trazado_105219" data-name="Trazado 105219" d="M452.682,275.458l.732.42a1.029,1.029,0,0,0,.913-.036l.844-.487c.267-.156.3-.393.064-.529l-.729-.42a1.02,1.02,0,0,0-.913.036l-.844.487C452.479,275.085,452.448,275.322,452.682,275.458Z" transform="translate(-452.525 -274.314)" fill="#c5d2ef"/>
          </g>
          <g id="Grupo_71513" data-name="Grupo 71513" transform="translate(24.724 6.773)">
            <path id="Trazado_105220" data-name="Trazado 105220" d="M451.936,275.026l.729.42a1.019,1.019,0,0,0,.913-.036l.844-.487c.27-.156.3-.393.067-.529l-.729-.42a1.029,1.029,0,0,0-.913.036L452,274.5C451.733,274.653,451.7,274.893,451.936,275.026Z" transform="translate(-445.545 -270.284)" fill="#c5d2ef"/>
            <path id="Trazado_105221" data-name="Trazado 105221" d="M451.19,274.6l.729.42a1.011,1.011,0,0,0,.913-.036l.844-.487c.27-.156.3-.393.067-.526l-.732-.423a1.021,1.021,0,0,0-.913.039l-.844.487C450.987,274.222,450.956,274.461,451.19,274.6Z" transform="translate(-446.876 -271.053)" fill="#c5d2ef"/>
            <path id="Trazado_105222" data-name="Trazado 105222" d="M450.442,274.164l.732.423a1.02,1.02,0,0,0,.913-.039l.844-.487c.27-.156.3-.393.067-.526l-.732-.423a1.021,1.021,0,0,0-.913.039l-.844.487C450.239,273.794,450.211,274.031,450.442,274.164Z" transform="translate(-448.208 -271.822)" fill="#c5d2ef"/>
            <path id="Trazado_105223" data-name="Trazado 105223" d="M449.7,273.733l.732.423a1.021,1.021,0,0,0,.913-.039l.844-.487c.267-.156.3-.393.064-.526l-.729-.423a1.021,1.021,0,0,0-.913.039l-.844.487C449.494,273.363,449.463,273.6,449.7,273.733Z" transform="translate(-449.54 -272.591)" fill="#c5d2ef"/>
          </g>
          <g id="Grupo_71517" data-name="Grupo 71517" transform="translate(14.122 3.298)">
            <g id="Grupo_71514" data-name="Grupo 71514" transform="translate(16.621 9.597)">
              <path id="Trazado_105224" data-name="Trazado 105224" d="M454.1,277.227l.729.42a1.021,1.021,0,0,0,.913-.039l.844-.484c.27-.156.3-.4.067-.529l-.732-.423a1.02,1.02,0,0,0-.913.039l-.844.487C453.895,276.854,453.864,277.091,454.1,277.227Z" transform="translate(-447.707 -272.485)" fill="#c5d2ef"/>
              <path id="Trazado_105225" data-name="Trazado 105225" d="M453.35,276.8l.732.42a1.02,1.02,0,0,0,.913-.036l.844-.487c.27-.156.3-.393.064-.529l-.729-.42a1.012,1.012,0,0,0-.913.036l-.844.487C453.147,276.423,453.119,276.659,453.35,276.8Z" transform="translate(-449.039 -273.253)" fill="#c5d2ef"/>
              <path id="Trazado_105226" data-name="Trazado 105226" d="M452.6,276.364l.732.42a1.011,1.011,0,0,0,.913-.036l.844-.487c.267-.156.3-.393.064-.529l-.729-.42a1.02,1.02,0,0,0-.913.036l-.844.487C452.4,275.991,452.371,276.228,452.6,276.364Z" transform="translate(-450.37 -274.022)" fill="#c5d2ef"/>
              <path id="Trazado_105227" data-name="Trazado 105227" d="M451.859,275.932l.729.423a1.02,1.02,0,0,0,.913-.039l.844-.487c.27-.156.3-.392.067-.526l-.732-.423a1.02,1.02,0,0,0-.913.039l-.844.487C451.656,275.559,451.625,275.8,451.859,275.932Z" transform="translate(-451.701 -274.79)" fill="#c5d2ef"/>
            </g>
            <g id="Grupo_71515" data-name="Grupo 71515" transform="translate(8.31 4.797)">
              <path id="Trazado_105228" data-name="Trazado 105228" d="M451.113,275.5l.729.423a1.02,1.02,0,0,0,.913-.039l.844-.487c.27-.156.3-.392.067-.526l-.732-.423a1.02,1.02,0,0,0-.913.039l-.844.487C450.91,275.131,450.879,275.368,451.113,275.5Z" transform="translate(-444.722 -270.759)" fill="#c5d2ef"/>
              <path id="Trazado_105229" data-name="Trazado 105229" d="M450.365,275.07l.732.423a1.02,1.02,0,0,0,.913-.039l.844-.487c.27-.156.3-.392.064-.526l-.729-.423a1.02,1.02,0,0,0-.913.039l-.844.487C450.162,274.7,450.134,274.937,450.365,275.07Z" transform="translate(-446.054 -271.528)" fill="#c5d2ef"/>
              <path id="Trazado_105230" data-name="Trazado 105230" d="M449.62,274.639l.732.423a1.021,1.021,0,0,0,.913-.039l.844-.487c.267-.153.3-.392.064-.526l-.729-.42a1.011,1.011,0,0,0-.913.036l-.844.487C449.417,274.269,449.386,274.505,449.62,274.639Z" transform="translate(-447.385 -272.297)" fill="#c5d2ef"/>
              <path id="Trazado_105231" data-name="Trazado 105231" d="M448.874,274.211l.729.42a1.02,1.02,0,0,0,.913-.039l.844-.484c.27-.156.3-.393.067-.529l-.732-.42a1.011,1.011,0,0,0-.913.036l-.844.487C448.671,273.837,448.64,274.074,448.874,274.211Z" transform="translate(-448.716 -273.066)" fill="#c5d2ef"/>
            </g>
            <g id="Grupo_71516" data-name="Grupo 71516">
              <path id="Trazado_105232" data-name="Trazado 105232" d="M448.128,273.778l.729.42a1.019,1.019,0,0,0,.913-.036l.844-.487c.27-.156.3-.392.067-.529l-.732-.42a1.029,1.029,0,0,0-.913.036l-.844.487C447.925,273.405,447.894,273.642,448.128,273.778Z" transform="translate(-441.737 -269.036)" fill="#c5d2ef"/>
              <path id="Trazado_105233" data-name="Trazado 105233" d="M447.38,273.347l.732.42a1.011,1.011,0,0,0,.913-.036l.844-.487c.27-.156.3-.392.064-.526l-.729-.423a1.021,1.021,0,0,0-.913.039l-.844.484C447.177,272.974,447.149,273.213,447.38,273.347Z" transform="translate(-443.069 -269.805)" fill="#c5d2ef"/>
              <path id="Trazado_105234" data-name="Trazado 105234" d="M446.635,272.916l.732.423a1.021,1.021,0,0,0,.913-.039l.844-.487c.267-.156.3-.393.064-.526l-.729-.423a1.02,1.02,0,0,0-.913.039l-.844.487C446.432,272.543,446.4,272.783,446.635,272.916Z" transform="translate(-444.4 -270.574)" fill="#c5d2ef"/>
              <path id="Trazado_105235" data-name="Trazado 105235" d="M445.889,272.485l.729.423a1.02,1.02,0,0,0,.913-.039l.844-.487c.27-.156.3-.393.067-.526l-.729-.423a1.02,1.02,0,0,0-.913.039l-.846.487C445.686,272.115,445.655,272.351,445.889,272.485Z" transform="translate(-445.731 -271.343)" fill="#c5d2ef"/>
            </g>
          </g>
          <g id="Grupo_71521" data-name="Grupo 71521" transform="translate(11.83 4.621)">
            <g id="Grupo_71518" data-name="Grupo 71518" transform="translate(16.621 9.596)">
              <path id="Trazado_105236" data-name="Trazado 105236" d="M453.273,277.7l.732.42a1.012,1.012,0,0,0,.913-.036l.843-.487c.267-.156.3-.393.064-.529l-.729-.42a1.029,1.029,0,0,0-.913.036l-.844.49C453.07,277.327,453.042,277.567,453.273,277.7Z" transform="translate(-446.884 -272.958)" fill="#c5d2ef"/>
              <path id="Trazado_105237" data-name="Trazado 105237" d="M452.528,277.269l.732.423a1.02,1.02,0,0,0,.913-.039l.844-.487c.267-.156.3-.392.064-.526l-.729-.423a1.02,1.02,0,0,0-.913.039l-.844.487C452.325,276.9,452.294,277.136,452.528,277.269Z" transform="translate(-448.215 -273.727)" fill="#c5d2ef"/>
              <path id="Trazado_105238" data-name="Trazado 105238" d="M451.782,276.838l.729.423a1.02,1.02,0,0,0,.913-.039l.844-.487c.27-.156.3-.393.067-.526l-.732-.423a1.021,1.021,0,0,0-.913.039l-.844.487C451.579,276.468,451.548,276.7,451.782,276.838Z" transform="translate(-449.547 -274.496)" fill="#c5d2ef"/>
              <path id="Trazado_105239" data-name="Trazado 105239" d="M451.037,276.407l.729.423a1.02,1.02,0,0,0,.913-.039l.844-.487c.27-.156.3-.393.067-.526l-.732-.423a1.02,1.02,0,0,0-.913.039l-.844.487C450.831,276.037,450.8,276.273,451.037,276.407Z" transform="translate(-450.878 -275.265)" fill="#c5d2ef"/>
            </g>
            <g id="Grupo_71519" data-name="Grupo 71519" transform="translate(6.233 3.599)">
              <path id="Trazado_105240" data-name="Trazado 105240" d="M450.288,275.979l.732.421a1.021,1.021,0,0,0,.913-.039l.844-.487c.267-.153.3-.393.064-.526l-.729-.42a1.011,1.011,0,0,0-.913.036l-.844.487C450.085,275.606,450.057,275.842,450.288,275.979Z" transform="translate(-441.821 -270.036)" fill="#c5d2ef"/>
              <path id="Trazado_105241" data-name="Trazado 105241" d="M449.543,275.548l.732.42a1.012,1.012,0,0,0,.913-.039l.844-.484c.267-.156.3-.393.064-.529l-.729-.42a1.011,1.011,0,0,0-.913.036l-.843.487C449.34,275.175,449.309,275.411,449.543,275.548Z" transform="translate(-443.153 -270.805)" fill="#c5d2ef"/>
              <path id="Trazado_105242" data-name="Trazado 105242" d="M448.8,275.115l.729.42a1.02,1.02,0,0,0,.913-.036l.844-.487c.27-.156.3-.393.067-.529l-.732-.42a1.029,1.029,0,0,0-.913.036l-.844.487C448.594,274.742,448.563,274.979,448.8,275.115Z" transform="translate(-444.484 -271.573)" fill="#c5d2ef"/>
              <path id="Trazado_105243" data-name="Trazado 105243" d="M447.3,274.253l2.809,1.62a1.011,1.011,0,0,0,.913-.036l.844-.487c.27-.156.3-.393.067-.526l-2.809-1.623a1.021,1.021,0,0,0-.913.039l-.844.487C447.1,273.883,447.072,274.119,447.3,274.253Z" transform="translate(-447.147 -273.111)" fill="#c5d2ef"/>
            </g>
            <g id="Grupo_71520" data-name="Grupo 71520">
              <path id="Trazado_105244" data-name="Trazado 105244" d="M446.558,273.822l.732.423a1.021,1.021,0,0,0,.913-.039l.844-.487c.267-.156.3-.393.064-.526l-.729-.423a1.02,1.02,0,0,0-.913.039l-.844.487C446.355,273.452,446.324,273.688,446.558,273.822Z" transform="translate(-442.245 -270.28)" fill="#c5d2ef"/>
              <path id="Trazado_105245" data-name="Trazado 105245" d="M445.812,273.391l.729.423a1.02,1.02,0,0,0,.913-.039l.844-.487c.27-.153.3-.393.067-.526l-.732-.423a1.021,1.021,0,0,0-.913.039l-.843.487C445.609,273.021,445.578,273.257,445.812,273.391Z" transform="translate(-443.577 -271.049)" fill="#c5d2ef"/>
              <path id="Trazado_105246" data-name="Trazado 105246" d="M445.067,272.96l.729.423a1.029,1.029,0,0,0,.913-.036l.844-.487c.27-.156.3-.4.067-.529l-.732-.42a1.011,1.011,0,0,0-.913.036l-.843.487C444.861,272.59,444.833,272.826,445.067,272.96Z" transform="translate(-444.908 -271.818)" fill="#c5d2ef"/>
            </g>
          </g>
          <g id="Grupo_71525" data-name="Grupo 71525" transform="translate(9.538 5.946)">
            <g id="Grupo_71522" data-name="Grupo 71522" transform="translate(16.621 9.594)">
              <path id="Trazado_105247" data-name="Trazado 105247" d="M452.451,278.175l.729.423a1.02,1.02,0,0,0,.913-.039l.844-.487c.27-.156.3-.393.067-.526l-.729-.423a1.02,1.02,0,0,0-.913.039l-.844.487C452.248,277.8,452.217,278.041,452.451,278.175Z" transform="translate(-446.061 -273.433)" fill="#c5d2ef"/>
              <path id="Trazado_105248" data-name="Trazado 105248" d="M451.7,277.744l.729.423a1.02,1.02,0,0,0,.913-.039l.844-.487c.27-.153.3-.393.067-.526l-.732-.423a1.021,1.021,0,0,0-.913.039l-.844.487C451.5,277.374,451.471,277.611,451.7,277.744Z" transform="translate(-447.392 -274.202)" fill="#c5d2ef"/>
              <path id="Trazado_105249" data-name="Trazado 105249" d="M450.957,277.316l.732.42a1.02,1.02,0,0,0,.913-.039l.844-.484c.27-.156.3-.4.067-.529l-.732-.423a1.021,1.021,0,0,0-.913.039l-.844.487C450.754,276.943,450.726,277.18,450.957,277.316Z" transform="translate(-448.724 -274.971)" fill="#c5d2ef"/>
              <path id="Trazado_105250" data-name="Trazado 105250" d="M450.211,276.885l.732.42a1.02,1.02,0,0,0,.913-.036l.844-.487c.267-.156.3-.393.064-.529l-.729-.42a1.011,1.011,0,0,0-.913.036l-.844.487C450.008,276.512,449.98,276.748,450.211,276.885Z" transform="translate(-450.055 -275.74)" fill="#c5d2ef"/>
            </g>
            <g id="Grupo_71523" data-name="Grupo 71523" transform="translate(8.311 4.797)">
              <path id="Trazado_105251" data-name="Trazado 105251" d="M449.466,276.452l.729.42a1.011,1.011,0,0,0,.913-.036l.844-.487c.27-.156.3-.393.067-.529l-.729-.42a1.028,1.028,0,0,0-.913.036l-.844.487C449.263,276.079,449.232,276.319,449.466,276.452Z" transform="translate(-443.076 -271.71)" fill="#c5d2ef"/>
              <path id="Trazado_105252" data-name="Trazado 105252" d="M448.72,276.021l.729.423a1.02,1.02,0,0,0,.913-.039l.843-.487c.27-.156.3-.393.067-.526l-.732-.423a1.02,1.02,0,0,0-.913.039l-.844.487C448.517,275.648,448.486,275.887,448.72,276.021Z" transform="translate(-444.407 -272.479)" fill="#c5d2ef"/>
              <path id="Trazado_105253" data-name="Trazado 105253" d="M447.975,275.59l.729.423a1.021,1.021,0,0,0,.913-.039l.843-.487c.27-.156.3-.393.067-.526l-.732-.423a1.02,1.02,0,0,0-.913.039l-.844.487C447.769,275.22,447.741,275.457,447.975,275.59Z" transform="translate(-445.739 -273.248)" fill="#c5d2ef"/>
              <path id="Trazado_105254" data-name="Trazado 105254" d="M447.226,275.159l.732.423a1.02,1.02,0,0,0,.913-.039l.844-.487c.267-.156.3-.393.064-.526l-.729-.423a1.02,1.02,0,0,0-.913.039l-.844.487C447.023,274.789,447,275.026,447.226,275.159Z" transform="translate(-447.07 -274.017)" fill="#c5d2ef"/>
            </g>
            <g id="Grupo_71524" data-name="Grupo 71524">
              <path id="Trazado_105255" data-name="Trazado 105255" d="M446.481,274.728l.729.423a1.02,1.02,0,0,0,.913-.039l.844-.487c.27-.153.3-.393.067-.526l-.729-.42a1.011,1.011,0,0,0-.913.036l-.844.487C446.278,274.358,446.247,274.594,446.481,274.728Z" transform="translate(-440.091 -269.988)" fill="#c5d2ef"/>
              <path id="Trazado_105256" data-name="Trazado 105256" d="M445.735,274.3l.729.42a1.02,1.02,0,0,0,.913-.039l.844-.484c.27-.156.3-.393.067-.529l-.732-.42a1.011,1.011,0,0,0-.913.036l-.844.487C445.532,273.927,445.5,274.163,445.735,274.3Z" transform="translate(-441.422 -270.757)" fill="#c5d2ef"/>
              <path id="Trazado_105257" data-name="Trazado 105257" d="M444.99,273.868l.729.42a1.02,1.02,0,0,0,.913-.036l.844-.487c.27-.156.3-.393.067-.529l-.732-.42a1.02,1.02,0,0,0-.913.036l-.843.487C444.784,273.495,444.756,273.732,444.99,273.868Z" transform="translate(-442.754 -271.526)" fill="#c5d2ef"/>
              <path id="Trazado_105258" data-name="Trazado 105258" d="M444.241,273.436l.732.42a1.011,1.011,0,0,0,.913-.036l.844-.487c.267-.156.3-.393.064-.526l-.73-.423a1.02,1.02,0,0,0-.913.039l-.844.485C444.038,273.063,444.01,273.3,444.241,273.436Z" transform="translate(-444.085 -272.294)" fill="#c5d2ef"/>
            </g>
          </g>
          <g id="Grupo_71529" data-name="Grupo 71529" transform="translate(7.245 7.268)">
            <g id="Grupo_71526" data-name="Grupo 71526" transform="translate(10.388 5.997)">
              <path id="Trazado_105259" data-name="Trazado 105259" d="M451.628,278.65l.729.423a1.02,1.02,0,0,0,.913-.039l.844-.487c.27-.153.3-.393.067-.526l-.732-.42a1.012,1.012,0,0,0-.913.036l-.844.487C451.425,278.28,451.394,278.516,451.628,278.65Z" transform="translate(-439.004 -270.311)" fill="#c5d2ef"/>
              <path id="Trazado_105260" data-name="Trazado 105260" d="M450.88,278.222l.732.42a1.02,1.02,0,0,0,.913-.036l.844-.487c.27-.156.3-.393.064-.529l-.729-.42a1.011,1.011,0,0,0-.913.036l-.844.487C450.677,277.849,450.649,278.085,450.88,278.222Z" transform="translate(-440.335 -271.08)" fill="#c5d2ef"/>
              <path id="Trazado_105261" data-name="Trazado 105261" d="M450.135,277.79l.732.42a1.011,1.011,0,0,0,.913-.036l.844-.487c.267-.156.3-.393.064-.529l-.729-.42a1.02,1.02,0,0,0-.913.036l-.844.49C449.932,277.417,449.9,277.654,450.135,277.79Z" transform="translate(-441.667 -271.848)" fill="#c5d2ef"/>
              <path id="Trazado_105262" data-name="Trazado 105262" d="M447.15,276.065l6.963,4.023a1.02,1.02,0,0,0,.913-.039l.844-.487c.27-.156.3-.393.067-.529l-6.963-4.017a1.011,1.011,0,0,0-.913.036l-.844.487C446.947,275.695,446.916,275.931,447.15,276.065Z" transform="translate(-446.993 -274.923)" fill="#c5d2ef"/>
            </g>
            <g id="Grupo_71527" data-name="Grupo 71527" transform="translate(8.31 4.797)">
              <path id="Trazado_105263" data-name="Trazado 105263" d="M446.4,275.637l.729.42a1.019,1.019,0,0,0,.913-.036l.844-.487c.27-.156.3-.393.067-.529l-.729-.42a1.011,1.011,0,0,0-.913.036l-.846.487C446.2,275.264,446.17,275.5,446.4,275.637Z" transform="translate(-446.246 -274.492)" fill="#c5d2ef"/>
            </g>
            <g id="Grupo_71528" data-name="Grupo 71528">
              <path id="Trazado_105264" data-name="Trazado 105264" d="M445.658,275.2l.729.42a1.019,1.019,0,0,0,.913-.036l.844-.487c.27-.156.3-.393.067-.529l-.732-.42a1.029,1.029,0,0,0-.913.036l-.844.487C445.455,274.831,445.424,275.068,445.658,275.2Z" transform="translate(-439.267 -270.462)" fill="#c5d2ef"/>
              <path id="Trazado_105265" data-name="Trazado 105265" d="M444.91,274.773l.732.42a1.011,1.011,0,0,0,.913-.036l.844-.487c.27-.156.3-.393.067-.526l-.732-.423a1.021,1.021,0,0,0-.913.039l-.844.487C444.707,274.4,444.679,274.64,444.91,274.773Z" transform="translate(-440.599 -271.231)" fill="#c5d2ef"/>
              <path id="Trazado_105266" data-name="Trazado 105266" d="M444.165,274.342l.732.423a1.021,1.021,0,0,0,.913-.039l.844-.487c.267-.156.3-.393.064-.526l-.729-.423a1.02,1.02,0,0,0-.913.039l-.843.487C443.962,273.972,443.931,274.209,444.165,274.342Z" transform="translate(-441.93 -272)" fill="#c5d2ef"/>
              <path id="Trazado_105267" data-name="Trazado 105267" d="M443.419,273.911l.729.423a1.02,1.02,0,0,0,.913-.039l.844-.487c.27-.156.3-.392.067-.526l-.729-.423a1.02,1.02,0,0,0-.913.039l-.846.487C443.216,273.541,443.185,273.778,443.419,273.911Z" transform="translate(-443.261 -272.769)" fill="#c5d2ef"/>
            </g>
          </g>
          <g id="Grupo_71530" data-name="Grupo 71530" transform="translate(16.414 1.08)">
            <path id="Trazado_105268" data-name="Trazado 105268" d="M448.951,273.3l.729.423a1.02,1.02,0,0,0,.913-.039l.844-.487c.27-.153.3-.392.067-.526l-.729-.423a1.02,1.02,0,0,0-.913.039l-.846.487C448.748,272.932,448.717,273.169,448.951,273.3Z" transform="translate(-442.56 -267.666)" fill="#c5d2ef"/>
            <path id="Trazado_105269" data-name="Trazado 105269" d="M448.2,272.871l.729.423a1.02,1.02,0,0,0,.913-.039l.844-.484c.27-.156.3-.4.067-.529l-.732-.42a1.011,1.011,0,0,0-.913.036l-.843.487C448,272.5,447.971,272.737,448.2,272.871Z" transform="translate(-443.891 -268.435)" fill="#c5d2ef"/>
            <path id="Trazado_105270" data-name="Trazado 105270" d="M447.457,272.442l.732.42a1.011,1.011,0,0,0,.913-.036l.844-.487c.27-.156.3-.393.067-.529l-.732-.42a1.02,1.02,0,0,0-.913.036l-.844.487C447.254,272.069,447.226,272.306,447.457,272.442Z" transform="translate(-445.223 -269.203)" fill="#c5d2ef"/>
            <path id="Trazado_105271" data-name="Trazado 105271" d="M446.712,272.01l.732.42a1.011,1.011,0,0,0,.913-.036l.844-.487c.267-.156.3-.393.064-.529l-.729-.42a1.02,1.02,0,0,0-.913.039l-.844.484C446.509,271.637,446.478,271.874,446.712,272.01Z" transform="translate(-446.555 -269.971)" fill="#c5d2ef"/>
            <path id="Trazado_105272" data-name="Trazado 105272" d="M447.452,271.17l1.022.59a.667.667,0,0,0,.6-.025l.334-.192c.176-.1.195-.259.042-.348l-1.019-.59a.677.677,0,0,0-.6.025l-.334.195C447.319,270.925,447.3,271.084,447.452,271.17Z" transform="translate(-445.137 -270.546)" fill="#c5d2ef"/>
            <path id="Trazado_105273" data-name="Trazado 105273" d="M448.2,271.6l1.019.59a.676.676,0,0,0,.6-.025l.334-.192c.178-.1.195-.259.042-.348l-1.019-.59a.668.668,0,0,0-.6.025l-.334.192C448.064,271.357,448.045,271.513,448.2,271.6Z" transform="translate(-443.806 -269.778)" fill="#c5d2ef"/>
            <path id="Trazado_105274" data-name="Trazado 105274" d="M448.945,272.033l1.019.59a.685.685,0,0,0,.6-.025l.334-.195c.178-.1.2-.259.045-.348l-1.022-.588a.668.668,0,0,0-.6.025l-.334.192C448.812,271.788,448.792,271.944,448.945,272.033Z" transform="translate(-442.474 -269.009)" fill="#c5d2ef"/>
            <path id="Trazado_105275" data-name="Trazado 105275" d="M449.691,272.464l1.019.587a.667.667,0,0,0,.6-.025l.334-.192c.178-.1.2-.259.045-.348l-1.019-.588a.673.673,0,0,0-.6.025l-.331.192C449.557,272.219,449.538,272.375,449.691,272.464Z" transform="translate(-441.143 -268.24)" fill="#c5d2ef"/>
            <path id="Trazado_105276" data-name="Trazado 105276" d="M450.437,272.895l1.022.587a.668.668,0,0,0,.6-.025l.334-.192c.175-.1.195-.259.042-.348l-1.019-.588a.668.668,0,0,0-.6.025l-.334.192C450.3,272.65,450.284,272.806,450.437,272.895Z" transform="translate(-439.812 -267.471)" fill="#c5d2ef"/>
            <path id="Trazado_105277" data-name="Trazado 105277" d="M451.186,273.326l1.019.587a.667.667,0,0,0,.6-.025l.334-.192c.178-.1.195-.259.042-.348l-1.019-.588a.668.668,0,0,0-.6.025l-.334.192C451.049,273.081,451.03,273.237,451.186,273.326Z" transform="translate(-438.48 -266.702)" fill="#c5d2ef"/>
            <path id="Trazado_105278" data-name="Trazado 105278" d="M451.93,273.754l1.019.59a.667.667,0,0,0,.6-.025l.334-.192c.178-.1.2-.259.045-.348l-1.022-.587a.668.668,0,0,0-.6.025l-.334.192C451.8,273.509,451.777,273.668,451.93,273.754Z" transform="translate(-437.148 -265.933)" fill="#c5d2ef"/>
            <path id="Trazado_105279" data-name="Trazado 105279" d="M452.676,274.186l1.019.59a.667.667,0,0,0,.6-.025l.334-.192c.178-.1.2-.259.044-.348l-1.019-.59a.682.682,0,0,0-.6.025l-.331.195C452.543,273.941,452.523,274.1,452.676,274.186Z" transform="translate(-435.817 -265.165)" fill="#c5d2ef"/>
            <path id="Trazado_105280" data-name="Trazado 105280" d="M453.422,274.618l1.019.59a.682.682,0,0,0,.6-.025l.334-.192c.176-.1.195-.259.042-.348l-1.019-.59a.667.667,0,0,0-.6.025l-.334.192C453.288,274.373,453.269,274.529,453.422,274.618Z" transform="translate(-434.486 -264.397)" fill="#c5d2ef"/>
            <path id="Trazado_105281" data-name="Trazado 105281" d="M454.171,275.049l1.019.59a.686.686,0,0,0,.6-.025l.334-.195c.178-.1.2-.259.042-.348l-1.019-.587a.667.667,0,0,0-.6.025l-.334.192C454.034,274.8,454.015,274.96,454.171,275.049Z" transform="translate(-433.155 -263.628)" fill="#c5d2ef"/>
            <path id="Trazado_105282" data-name="Trazado 105282" d="M454.915,275.48l1.019.587a.667.667,0,0,0,.6-.025l.334-.192c.178-.1.2-.259.044-.348l-1.022-.587a.667.667,0,0,0-.6.025l-.334.192C454.782,275.235,454.762,275.391,454.915,275.48Z" transform="translate(-431.823 -262.859)" fill="#c5d2ef"/>
            <path id="Trazado_105283" data-name="Trazado 105283" d="M455.661,275.911l1.019.587a.667.667,0,0,0,.6-.025l.334-.192c.178-.1.2-.259.044-.348l-1.019-.587a.672.672,0,0,0-.6.025l-.331.192C455.527,275.666,455.508,275.822,455.661,275.911Z" transform="translate(-430.492 -262.09)" fill="#c5d2ef"/>
          </g>
          <path id="Trazado_105284" data-name="Trazado 105284" d="M444.728,278.118l6.442,3.719a1.648,1.648,0,0,0,1.476-.061l3.291-1.9c.437-.251.484-.632.106-.849L449.6,275.3a1.641,1.641,0,0,0-1.476.064l-3.294,1.9C444.4,277.517,444.352,277.9,444.728,278.118Z" transform="translate(-433.853 -261.238)" fill="#1e36ba"/>
          <path id="Trazado_105285" data-name="Trazado 105285" d="M456.031,277.773l1.824-1.052a.416.416,0,0,0,.172-.328h0c0-.128-.078-.187-.172-.131l-1.824,1.052a.416.416,0,0,0-.173.328h0C455.858,277.771,455.936,277.829,456.031,277.773Z" transform="translate(-413.543 -259.306)" fill="#fff"/>
          <path id="Trazado_105286" data-name="Trazado 105286" d="M455.062,278.344l1.824-1.055a.408.408,0,0,0,.173-.328h0c0-.125-.078-.184-.173-.131l-1.824,1.055a.412.412,0,0,0-.173.328h0C454.889,278.339,454.967,278.4,455.062,278.344Z" transform="translate(-415.272 -258.29)" fill="#fff"/>
          <path id="Trazado_105287" data-name="Trazado 105287" d="M452.123,280.039l1.826-1.052a.415.415,0,0,0,.17-.331h0c0-.125-.075-.184-.17-.128l-1.826,1.052a.41.41,0,0,0-.17.328h0C451.953,280.034,452.028,280.092,452.123,280.039Z" transform="translate(-420.51 -255.264)" fill="#fff"/>
        </g>
        <path id="Trazado_105288" data-name="Trazado 105288" d="M448.039,261.943l.844-.484h0a.554.554,0,0,1,.607.022l25.043,14.461a2.1,2.1,0,0,1,.877,1.676v21.034a.792.792,0,0,1-.284.693v0l-.9.518-.454-.991-24.28-14.018a2.1,2.1,0,0,1-.877-1.676V262.563c-.175.114-.312.2-.32.2A8.35,8.35,0,0,1,448.039,261.943Z" transform="translate(-427.493 -261.378)" fill="#1e36ba"/>
        <path id="Trazado_105289" data-name="Trazado 105289" d="M473.841,299.5,448.8,285.045a2.105,2.105,0,0,1-.88-1.676V262.333c0-.643.4-.941.88-.663l25.043,14.458a2.111,2.111,0,0,1,.877,1.676V298.84C474.718,299.483,474.322,299.781,473.841,299.5Z" transform="translate(-427.708 -261.044)" fill="#35aeba"/>
        <path id="Trazado_105290" data-name="Trazado 105290" d="M473.5,298.86l-24.639-14.227a2.076,2.076,0,0,1-.863-1.648V262.439c0-.632.39-.927.863-.651L473.5,276.011a2.077,2.077,0,0,1,.866,1.651v20.544C474.364,298.841,473.974,299.133,473.5,298.86Z" transform="translate(-427.569 -260.833)" fill="#5e5ecc"/>
        <path id="Trazado_105291" data-name="Trazado 105291" d="M451.377,264.149l16.163,9.332v19.2l-16.163-9.332Z" transform="translate(-421.537 -256.435)" fill="#fff"/>
        <path id="Trazado_105292" data-name="Trazado 105292" d="M456.9,267.339v19.2l-8.621-4.977v-19.2Z" transform="translate(-427.062 -259.625)" fill="#35aeba"/>
        <path id="Trazado_105293" data-name="Trazado 105293" d="M456.9,267.339v3.291l-8.621-4.977v-3.291Z" transform="translate(-427.062 -259.625)" fill="#ffaf04"/>
        <path id="Trazado_105294" data-name="Trazado 105294" d="M453.254,265.063c0,.228-.139.331-.309.234a.739.739,0,0,1-.309-.59c0-.225.139-.331.309-.231A.738.738,0,0,1,453.254,265.063Z" transform="translate(-419.291 -255.921)" fill="#fff"/>
        <path id="Trazado_105295" data-name="Trazado 105295" d="M452.64,264.658c0,.184-.111.27-.251.189a.6.6,0,0,1-.251-.476c0-.184.114-.27.251-.189A.6.6,0,0,1,452.64,264.658Z" transform="translate(-420.178 -256.432)" fill="#fff"/>
        <g id="Grupo_71532" data-name="Grupo 71532" transform="translate(20.941 8.368)">
          <path id="Trazado_105296" data-name="Trazado 105296" d="M457.626,267.825a.04.04,0,0,0-.081,0c-.047.922-.006,1.846-.017,2.767s0,1.851.05,2.767c0,.058.1.1.1-.025A53.639,53.639,0,0,0,457.626,267.825Z" transform="translate(-431.515 -258.314)" fill="#fff"/>
          <path id="Trazado_105297" data-name="Trazado 105297" d="M460.107,268.509c-.665-.493-3.661-2.227-4.789-2.823-.175-.092-.256-.05-.084.083a42.136,42.136,0,0,0,4.805,2.859C460.1,268.653,460.212,268.589,460.107,268.509Z" transform="translate(-435.767 -262.15)" fill="#fff"/>
          <path id="Trazado_105298" data-name="Trazado 105298" d="M457.931,267.257c-.668-.5-3.664-2.23-4.791-2.823-.173-.092-.256-.053-.081.081a41.569,41.569,0,0,0,4.8,2.859C457.926,267.4,458.037,267.335,457.931,267.257Z" transform="translate(-439.65 -264.384)" fill="#fff"/>
          <path id="Trazado_105299" data-name="Trazado 105299" d="M448.232,278.814c1.567.757,3.185,2.091,5.05,2.3a4.958,4.958,0,0,0,2.893-.935c.793-.426,1.559-.908,2.361-1.311a.019.019,0,0,1,.02.034,27.086,27.086,0,0,1-2.77,1.726,4.432,4.432,0,0,1-2.572.721,11.155,11.155,0,0,1-5.02-2.483C448.159,278.839,448.2,278.8,448.232,278.814Z" transform="translate(-448.181 -238.647)" fill="#fff"/>
        </g>
        <g id="Grupo_71533" data-name="Grupo 71533" transform="translate(25.825 20.391)">
          <path id="Trazado_105300" data-name="Trazado 105300" d="M449.935,268.7l2.794,1.613v.437l-2.794-1.613Z" transform="translate(-449.935 -268.702)" fill="#fff"/>
          <path id="Trazado_105301" data-name="Trazado 105301" d="M449.935,268.991l2.794,1.613v.437l-2.794-1.614Z" transform="translate(-449.935 -268.188)" fill="#fff"/>
          <path id="Trazado_105302" data-name="Trazado 105302" d="M449.935,269.28l2.794,1.613v.437l-2.794-1.613Z" transform="translate(-449.935 -267.672)" fill="#fff"/>
          <path id="Trazado_105303" data-name="Trazado 105303" d="M449.935,269.568l2.794,1.614v.437l-2.794-1.613Z" transform="translate(-449.935 -267.158)" fill="#fff"/>
        </g>
        <g id="Grupo_71534" data-name="Grupo 71534" transform="translate(22.322 18.341)">
          <path id="Trazado_105304" data-name="Trazado 105304" d="M448.677,267.966l2.794,1.613v.437l-2.794-1.613Z" transform="translate(-448.677 -267.966)" fill="#fff"/>
          <path id="Trazado_105305" data-name="Trazado 105305" d="M448.677,268.255l2.794,1.613v.436l-2.794-1.613Z" transform="translate(-448.677 -267.451)" fill="#fff"/>
          <path id="Trazado_105306" data-name="Trazado 105306" d="M448.677,268.543l2.794,1.614v.437l-2.794-1.613Z" transform="translate(-448.677 -266.936)" fill="#fff"/>
          <path id="Trazado_105307" data-name="Trazado 105307" d="M448.677,268.832l2.794,1.613v.437l-2.794-1.613Z" transform="translate(-448.677 -266.421)" fill="#fff"/>
        </g>
        <path id="Trazado_105308" data-name="Trazado 105308" d="M448.44,267.356l7.705,4.371v.82l-7.705-4.37Z" transform="translate(-426.777 -250.714)" fill="#261822"/>
        <path id="Trazado_105309" data-name="Trazado 105309" d="M455.433,270.441c0,.56-.34.816-.757.573a1.815,1.815,0,0,1-.76-1.451c0-.56.34-.816.76-.573A1.82,1.82,0,0,1,455.433,270.441Z" transform="translate(-417.007 -247.96)" fill="#ffaf04"/>
        <path id="Trazado_105310" data-name="Trazado 105310" d="M457.308,271.538a4.349,4.349,0,0,1-1.609-1.913l-3.257.986a12.758,12.758,0,0,0,4.867,6.117c2.341,1.353,4.371.735,5.365-1.3l-3.561-4.2A1.228,1.228,0,0,1,457.308,271.538Z" transform="translate(-419.639 -246.666)" fill="#ff9201"/>
        <path id="Trazado_105311" data-name="Trazado 105311" d="M456.175,275.577a3.129,3.129,0,0,1-.092.774l3.555,4.2a8.006,8.006,0,0,0,.429-2.723c0-4.335-2.578-9.352-5.8-11.362l.036,5.223A5.229,5.229,0,0,1,456.175,275.577Z" transform="translate(-416.385 -252.309)" fill="#ff7f00"/>
        <path id="Trazado_105312" data-name="Trazado 105312" d="M455.92,273.671c0-1.431.8-2.152,1.835-1.743l-.036-5.226c-3.171-1.606-5.691.44-5.691,4.722a13.93,13.93,0,0,0,.852,4.608l3.26-.988A4.753,4.753,0,0,1,455.92,273.671Z" transform="translate(-420.376 -252.855)" fill="#ffaf04"/>
        <g id="Grupo_71537" data-name="Grupo 71537" transform="translate(22.151 6.585)">
          <g id="Grupo_71535" data-name="Grupo 71535">
            <path id="Trazado_105313" data-name="Trazado 105313" d="M448.615,272.9l6.639,3.833v-9.153l-6.639-3.833Z" transform="translate(-448.615 -263.744)" fill="#fff"/>
          </g>
          <path id="Trazado_105314" data-name="Trazado 105314" d="M450.541,273.083l.933.539v-7.849l-.933-.538Z" transform="translate(-445.18 -261.083)" fill="#ffaf04"/>
          <path id="Trazado_105315" data-name="Trazado 105315" d="M449.979,271.984l.933.538v-6.639l-.933-.539Z" transform="translate(-446.183 -260.887)" fill="#ff9201"/>
          <path id="Trazado_105316" data-name="Trazado 105316" d="M449.417,270.813l.933.539v-5.32l-.933-.538Z" transform="translate(-447.186 -260.621)" fill="#ffaf04"/>
          <path id="Trazado_105317" data-name="Trazado 105317" d="M448.854,269.595l.933.538v-3.924l-.933-.538Z" transform="translate(-448.189 -260.306)" fill="#ff7f00"/>
          <g id="Grupo_71536" data-name="Grupo 71536" transform="translate(0 8.828)">
            <path id="Trazado_105318" data-name="Trazado 105318" d="M448.615,267.24l6.639,3.833v-.326l-6.639-3.833Z" transform="translate(-448.615 -266.914)" fill="#261822"/>
          </g>
        </g>
      </g>
      <path id="Trazado_105319" data-name="Trazado 105319" d="M457.914,264.461s-6.749-7.367-13.405,1.016c-2.058,2.592-2.325,4.719-2.915,6.136-2.467,4.254-6.5,10.321-8.038,14.349a6.99,6.99,0,0,0,.259,4.978c1.019,1.373,12.155,5.641,15.705,1.748C456.667,284.851,457.914,264.461,457.914,264.461Z" transform="translate(-433.222 -244.643)" fill="#ff9201"/>
      <g id="Grupo_71539" data-name="Grupo 71539" transform="translate(24.022)">
        <path id="Trazado_105320" data-name="Trazado 105320" d="M453.655,275.58l-5.412,4.438c-2.918-1.038-5.14-4.485-6.392-7.79,1.069-.855,4.853-3.018,5.12-4.162-1.125-3.149.579-5.8,3.5-8.625,3.06-2.962,8.583-2.934,11.9-.317a5.212,5.212,0,0,1,2.623,4.97c-.367,3.349-2.28,11.4-5.125,12.846C457.881,277.949,455.567,276.3,453.655,275.58Z" transform="translate(-441.85 -252.279)" fill="#ffc9b6"/>
        <path id="Trazado_105321" data-name="Trazado 105321" d="M444.775,262.536a7.384,7.384,0,0,1,4.418-6.1c3.088-1.414,8.6-1.615,11.083,1.169a1.853,1.853,0,0,1,.128-.27,2.032,2.032,0,0,1,2.934-.148,5.093,5.093,0,0,1,1.6,2.2,2.427,2.427,0,0,1,1.643.028c1.793.743,1.726,3.288,1.092,4.769-1.314,3.082-6.175,6.448-9.761,5.61.181,1.793-.7,2.765-2.133,3.939a7.507,7.507,0,0,1-8.013.674c-2.879-1.425-5.5-4.722-5.29-8.077A4.783,4.783,0,0,1,444.775,262.536Z" transform="translate(-440.76 -255.425)" fill="#261822"/>
        <path id="Trazado_105322" data-name="Trazado 105322" d="M450.655,261.658a1.585,1.585,0,0,0-2.628-.785c-1.98,1.314.387,5.228.387,5.228Z" transform="translate(-432.238 -246.476)" fill="#ffc9b6"/>
      </g>
      <path id="Trazado_105323" data-name="Trazado 105323" d="M455.4,262.188c3.319,1.437,3.088,2.038,9.987,7.344s7.258,8.433,6.629,11.721-1.105,4.975-3.789,11.384c-3.419,8.163-7.049,11.793-7.049,11.793a6.151,6.151,0,0,0,1.79,2.472c1.064.663,1.186,3.388,0,4.5-1.826,1.715-8.494,4.246-14.836,3.767-5.448-.412-9.3-2.609-14.658-7.979.526-9.129,5.242-23.1,7.581-30.3C443.7,268.744,452.491,260.929,455.4,262.188Z" transform="translate(-432.774 -243.598)" fill="#ffaf04"/>
      <path id="Trazado_105324" data-name="Trazado 105324" d="M452.914,278.356s-3.619.86-7.587,1.91a68.164,68.164,0,0,1-7.3,1.459c1.1,0,5.911.78,8.792.122A14.731,14.731,0,0,0,452.914,278.356Z" transform="translate(-424.649 -214.514)" fill="#ff9201"/>
      <path id="Trazado_105325" data-name="Trazado 105325" d="M438.027,277.613a8.272,8.272,0,0,0,5.688,1.553c3.4-.328,5.551-.743,5.551-.743s-3.664-1.047-5.551-.81A43.32,43.32,0,0,1,438.027,277.613Z" transform="translate(-424.649 -215.901)" fill="#ff9201"/>
      <path id="Trazado_105326" data-name="Trazado 105326" d="M464.708,289.588c-.6-1.606-3.956-8.851-6.662-12.3-.933-8.057-3.608-10.947-6.456-11.557-4.006-.855-7.344,2.957-8.171,8.475-1.258,8.405-.509,13.79,4.669,13.227-.145,3.667,7.291,10.911,11.245,11.487C462.932,297.194,464.388,293.522,464.708,289.588Z" transform="translate(-415.981 -237.247)" fill="#ff8b00"/>
      <path id="Trazado_105327" data-name="Trazado 105327" d="M461.983,274.752c-.69.654-.546.61-1.576.7.006-1.094.615-3.658-.818-4.552-.766-.473-.663,2.055-1.186,3.848a6.657,6.657,0,0,1-2.5,3.5s-1.022,4.148.476,4.752,6.765-1.064,8.193-1.824,2.2-1.18,1.824-4.365a2.328,2.328,0,0,0-2.088-2.378c-.6-2.194-1.239-2.461-2.327-2.169Z" transform="translate(-393.36 -227.912)" fill="#ffc9b6"/>
      <path id="Trazado_105328" data-name="Trazado 105328" d="M471.121,273.354c-4.48.446-11.509.621-15.674,1.219-.393,3.681-9.419,4.321-8.018,6.952,1.242,2.33,4.683,4.68,7.311,4.171,5.329-1.036,15.148-5.137,18.509-7.024C473.73,277.3,473.293,275.08,471.121,273.354Z" transform="translate(-408.139 -223.438)" fill="#ff8b00"/>
    </g>
  </g>
</svg>
