<svg xmlns="http://www.w3.org/2000/svg" width="400" height="236" viewBox="0 0 400 236">
  <g id="Grupo_71605" data-name="Grupo 71605" transform="translate(-915 -1786)">
    <rect id="Rectángulo_5940" data-name="Rectángulo 5940" width="400" height="236" transform="translate(915 1786)" fill="none"/>
    <g id="Grupo_71604" data-name="Grupo 71604" transform="translate(941.823 1770.759)">
      <g id="Grupo_71543" data-name="Grupo 71543" transform="translate(164.425 15.241)">
        <path id="Trazado_105329" data-name="Trazado 105329" d="M95.7,19.363c1.964.851,3.235.829,5.282,1.47a3.479,3.479,0,0,1,.458-2.641.424.424,0,0,1,.769.1,21.186,21.186,0,0,0,2.126,5.866c.811.849,2.7,3.482,4.787,5.462,1.812,1.722,3.824,4.15,3.824,4.15s-.394,5.722-1.273,5.93-1.676.064-2.889-.937-5.105-9.472-7.332-13.418c-2.18-1.512-2.379-.757-4.971-1.349a7.376,7.376,0,0,1-3.432-2.5C91.9,20.031,94.14,18.688,95.7,19.363Z" transform="translate(-92.731 -12.487)" fill="#ffc9b6"/>
        <path id="Trazado_105330" data-name="Trazado 105330" d="M107.288,25.891a1.315,1.315,0,0,0-1.786-.739,6.367,6.367,0,0,0-2.925,1.351c-.388.364-1.772,6.749-.368,7.712s2.565.643,3.542.785,2.873-.446,2.761-1.9S107.288,25.891,107.288,25.891Z" transform="translate(-83.85 -5.395)" fill="#efe8eb"/>
        <path id="Trazado_105331" data-name="Trazado 105331" d="M103.338,33.25a8.208,8.208,0,0,1,.549-4.028c2.819-1.9,4.875-3.958,7.62-5.252,1.87-.881,4.212-3.3,6.349-1.385,2.278,2.04,2.8,7.126,1.057,9.842-2.5,3.892-5.578,3-9.362,3.748-1.321.262-3.047.9-4.555,1.237A5.714,5.714,0,0,1,103.338,33.25Z" transform="translate(-82.134 -8.602)" fill="#fff"/>
        <path id="Trazado_105332" data-name="Trazado 105332" d="M112.492,63.9a17.488,17.488,0,0,0,.553,2.615,7.135,7.135,0,0,1-.092,3.2,1.92,1.92,0,0,1-1.526,1.063,4.813,4.813,0,0,1-2.086-.05,15.322,15.322,0,0,1-2.615,2.419,12.107,12.107,0,0,1-5.64,1.728c-1.436-.218-2.2-1.337-2.094-2.058s1.8-2.719,3.187-3.584a28.549,28.549,0,0,0,3.564-3.123,17.112,17.112,0,0,0,1.768-2.3Z" transform="translate(-86.469 33.426)" fill="#261822"/>
        <path id="Trazado_105333" data-name="Trazado 105333" d="M110.525,36.636s-4.154,10.6-4.8,14.89-2.577,8.031-3.352,13.434-.124,13.42.238,18.7a46.513,46.513,0,0,1-.45,8.347c3.38,2.913,7.436,1.508,8.787.937.334-1.4,1.5-12.549,1.856-16.433a18.057,18.057,0,0,0-.567-6.665s5.66-12.117,7.644-16.884.635-10.675.635-10.675Z" transform="translate(-83.433 6.199)" fill="#261822"/>
        <path id="Trazado_105334" data-name="Trazado 105334" d="M120.83,69.849a18.98,18.98,0,0,1,.671,4.495,3.329,3.329,0,0,1-.987,2.595.989.989,0,0,1-1.081.316s-.23,3.4-1.84,4.769a6.879,6.879,0,0,1-5.872,1.005c-1.339-.5-.458-2.931.853-5.316s2.987-4.949,3.406-7.106C119.19,70.165,120.83,69.849,120.83,69.849Z" transform="translate(-74.371 39.483)" fill="#261822"/>
        <path id="Trazado_105335" data-name="Trazado 105335" d="M120.588,39.086a31.477,31.477,0,0,1,3.656,7.938c1.141,3.558.955,12.093.955,12.093s.292,8.4-.248,11.308a19.677,19.677,0,0,0-.5,3.5s2.362,4.471,2,12.709a106.247,106.247,0,0,0,.475,15.29s-1.984,3.121-4.11,3.125c-4.673.01-5.62-2.5-5.62-2.5s-1.249-16.079-2.559-20.055a47.66,47.66,0,0,1-1.79-8.557l-2.675-19.587s-5.3-3.456-2.581-12.171C109.294,36.716,120.588,39.086,120.588,39.086Z" transform="translate(-78.611 8.142)" fill="#3a2934"/>
        <path id="Trazado_105336" data-name="Trazado 105336" d="M129.789,33.883c-.412-2.09-.7-3.574-2.306-5.019-3.151-2.835-9.846-6.193-13.6-5.65-2.717,2.162-4.733,3.806-5.712,6.4a19.022,19.022,0,0,0-1.61,7.992,102.141,102.141,0,0,1-1.892,18.544,21.65,21.65,0,0,0,2.843,3.462c.737-.45,1.329-1.432,2.248-1.984.863,2.142,1.724,3.99,2.479,4.1,5.013.757,13.841-.6,14.473-2.12a42.886,42.886,0,0,1,2.573-17A14.783,14.783,0,0,0,129.789,33.883Z" transform="translate(-80.772 -7.309)" fill="#261822"/>
        <path id="Trazado_105337" data-name="Trazado 105337" d="M110.686,23.047s.543,3.59-.773,4.833a2.719,2.719,0,0,0,1.309,4.657c3.193,1.039,5.446-1.261,7.436-2.847-.861-1.822-1.279-1.81-1.279-6.923C117.379,18.609,110.686,23.047,110.686,23.047Z" transform="translate(-76.383 -9.481)" fill="#ffb9a4"/>
        <path id="Trazado_105338" data-name="Trazado 105338" d="M116.179,28.613c-2.134,1.834-4.12,6.909-5.562,8.893s-2.775,2.711-3.322.479c-.7-2.853.272-9.758,2.348-12.445.9.593,1.59,1.97,2.811,2.352C114.178,28.435,115.82,27.508,116.179,28.613Z" transform="translate(-78.361 -4.92)" fill="#fff"/>
        <path id="Trazado_105339" data-name="Trazado 105339" d="M110.913,30.393s-.26,3.522-.39,6.018c-.006.126-.012.344-.018.627-.783,1.145-1.632,2.248-2.495,3.35-.3-.941-.587-1.9-.827-2.871.052-.256.1-.493.142-.7.693-3.342,1.2-4.909,1.64-6.829a6.664,6.664,0,0,1,.5-3.788c.885-.643,3.772.436,3.626,1.305A4.723,4.723,0,0,1,110.913,30.393Z" transform="translate(-78.249 -4.452)" fill="#ff6029"/>
        <path id="Trazado_105340" data-name="Trazado 105340" d="M117.271,23.58A7.279,7.279,0,0,1,115,26.994c-1.992,1.5-5.736,1.744-5.736,2.767,1.087,0,1.3.064,1.3.847,0,1.472.434,1.808.434,1.808s2.7-.769,4.651-1.582c2.441-1.017,3.55-4.393,3.55-4.393S118.722,23.444,117.271,23.58Z" transform="translate(-76.16 -6.889)" fill="#efe8eb"/>
        <path id="Trazado_105341" data-name="Trazado 105341" d="M111.611,37.21l6.652,4.29-1.116,1.259-6.593-4.148Z" transform="translate(-74.871 6.775)" fill="#fff"/>
        <path id="Trazado_105342" data-name="Trazado 105342" d="M110.956,23.634s-1.582,1.72-2.26,2.511-.282,2.248-.621,2.9a8.676,8.676,0,0,0-.491,1.1s1.412-.286,1.686-1.1,1.686.655,1.686.655l1-.819s-1.506-.963-1-1.992,1.355-2.385,1.355-2.385Z" transform="translate(-77.847 -6.83)" fill="#efe8eb"/>
        <g id="Grupo_71542" data-name="Grupo 71542" transform="translate(27.446)">
          <path id="Trazado_105343" data-name="Trazado 105343" d="M117.933,18.584c-1.978-2.188-7.194-3.089-9.064.12-1.407,2.413-1.466,6.709-1.083,8.683.8,4.146,4.2,6.615,8.125,3.43C119.649,27.778,121.345,22.36,117.933,18.584Z" transform="translate(-105.294 -13.869)" fill="#ffc9b6"/>
          <path id="Trazado_105344" data-name="Trazado 105344" d="M109.245,18.426c1.638-1.9,1.988-2.487,4.212-3.061,2.573-.663,8.921,1.347,7.812,5.57,2.935,1.393,2.03,4.651,1.265,5.976-.777,1.347-2.523,4.014-2.523,4.014s-1.65-2-2.176-7.326a4.466,4.466,0,0,1-6.179-.8c-2.663.34-5.2-.983-5.218-1.746A17.73,17.73,0,0,0,109.245,18.426Z" transform="translate(-106.44 -15.241)" fill="#261822"/>
          <path id="Trazado_105345" data-name="Trazado 105345" d="M111.733,21.207s1.143-1.734,2.16-.414-1.067,2.6-1.067,2.6Z" transform="translate(-101.136 -10.174)" fill="#ffc9b6"/>
        </g>
        <path id="Trazado_105346" data-name="Trazado 105346" d="M119.214,48.478c-2.943-2.967-4.893-9.959-5.358-12-.747-3.277-.372-6.235,1.462-8.571,1.888-2.407,2.615-3.344,5.706-.889,3.626,2.879,3.794,5.167,4.777,9.694.3,1.373.749,4.871,1.49,9.134,0,2.12-2.7,3.151-4.955,4.04C120.969,50.42,120.559,49.836,119.214,48.478Z" transform="translate(-71.924 -4.888)" fill="#fff"/>
        <path id="Trazado_105347" data-name="Trazado 105347" d="M108.073,23.49a2.868,2.868,0,0,0,1.383-1.359c.3,1.023,1.994,1.89,1.994,1.89s-1.121,1.193-1.994.711A4.439,4.439,0,0,1,108.073,23.49Z" transform="translate(-77.357 -8.336)" fill="#ffc9b6"/>
        <path id="Trazado_105348" data-name="Trazado 105348" d="M117.517,41.183a36.171,36.171,0,0,1,2.389-3.251c1.532-1.878,5.017-5.666,5.9-7.108,1.311-2.138,3.622-3.209,4.247-4.3s.873.346.749,1-1,1.792-.25,1.906,4.058,1.458,5.682-.186,2.389.142,1.389,2.609-5.51,1.786-6.633,1.762-2.557-.4-3,.7-2.322,7.17-3.422,8.755-1.265,3.966-3.638,3.342S116.35,42.863,117.517,41.183Z" transform="translate(-68.215 -4.328)" fill="#ffc9b6"/>
        <path id="Trazado_105349" data-name="Trazado 105349" d="M123.775,41.988c-.236.078-1.612,1.009-4.309-.617s-3.273-3.177-3.556-4.473a4.726,4.726,0,0,1,1.271-3.62c.617-.595,3.157-.837,3.157-.837a23.787,23.787,0,0,0-1.349,2.781,5.7,5.7,0,0,0,4.721,3.061,2.466,2.466,0,0,0,2.2-1.53s.358.094.671,1.592C126.829,39.518,125.836,41.3,123.775,41.988Z" transform="translate(-69.555 1.997)" fill="#efe8eb"/>
      </g>
      <g id="Grupo_71546" data-name="Grupo 71546" transform="translate(290.371 54.742)">
        <path id="Trazado_105350" data-name="Trazado 105350" d="M166.034,67.629a49.8,49.8,0,0,0-4.557,11.23,52.924,52.924,0,0,0-1.49,11.128c0,4.571,1.009,9.332,2.256,11.79s15.675,15.939,17.318,19.451c.066.981-1.794,6.028-2.563,8.131-.841,2.3-1.472,5.412.479,4.887a7.1,7.1,0,0,0,5.18-6.1c.166-2.9,2.961-4.515,2.469-6.05a6.081,6.081,0,0,0-1.341-2.489c-2.228-3.792-2.136-6.737-4.843-10.635-3.089-4.449-9.718-9.977-9.718-9.977s3.049-8.263,4.407-13.006a16.592,16.592,0,0,0,.647-7.726Z" transform="translate(-151.278 -2.243)" fill="#fcaf9d"/>
        <path id="Trazado_105351" data-name="Trazado 105351" d="M180.362,68.233c-.092-.1-8.681,1.063-9.868,5.952-1.858,7.656-5.432,21.869-5.976,29.744a47.408,47.408,0,0,0,.663,10.451c.569,3.486.6,11.712,0,13.867-.763,2.723-1.784,8.8-3.788,11.09-1.219,1.4-1.365,2.266.16,2.557a4.883,4.883,0,0,0,4.5-.943c1.464-1.261,1.474-3.52,1.948-5.228.549-1.974,2.671-2.014,2.843-4.064.14-1.636-.663-2.306-1.293-3.83a64.286,64.286,0,0,0,3.43-13.134c.442-3.468.34-7.594-1.55-10.681,2.05-2.373,4.343-4.519,6.275-7.017a30.328,30.328,0,0,0,5-9.36C184.667,81.4,185.035,73.236,180.362,68.233Z" transform="translate(-150.822 -1.643)" fill="#ffc9b6"/>
        <path id="Trazado_105352" data-name="Trazado 105352" d="M171.18,52.772s-3.682.829-4.709,2.821c-.537,1.043-1.439,2.288-3.494,5.506-2.36,3.692-2.1,5.718-.725,7.41.418.515,1.738,1.8,1.738,1.8s.04,3.754.308,6.05a83.229,83.229,0,0,1,.326,9.628s.959,5.728,3.792,6.135c3.83.553,10.259-7.244,10.259-7.244A15.3,15.3,0,0,1,180.035,74.6c2.747-5.135,6.313-8.939,3.2-12.744a22.326,22.326,0,0,0-2.228-2.931A50.745,50.745,0,0,0,171.18,52.772Z" transform="translate(-150.057 -17.131)" fill="#ffc9b6"/>
        <path id="Trazado_105353" data-name="Trazado 105353" d="M185.66,59.114a10.706,10.706,0,0,0-3.448,6.719c-.593,4.479,3.005,8,3.005,8a31.047,31.047,0,0,0-.244,5.44,23.138,23.138,0,0,0,2.322,9.152c1.724,3.7,2.465,9.933,1.8,14.8s1.87,10.515,1.87,10.515a5.42,5.42,0,0,1-3,2.3c-2.258.815-4.084.036-4.827,1.205a5.906,5.906,0,0,1-4.539,2.531c-2.361.268-4.581-2.142-5.942-1.946a10.662,10.662,0,0,1-5.936-.585c-2.687-1.359-2.1-3.474-4.479-3.6-3.239-.176-4.7-1.458-5.68-2.725,0,0,3.474-8.955,5.193-14.161.783-2.375,2.851-6.261,4.1-9.026s2.368-5,2.284-7.142c-.166-4.279-.575-9.248-.575-9.248a20.882,20.882,0,0,1-1.71-4.485,6.579,6.579,0,0,1,1.77-5.572s3.91-6.126,5.468-8.327c1-1.418,5.952,1.542,9.328,3.82C184.3,58.04,185.66,59.114,185.66,59.114Z" transform="translate(-154.71 -17.316)" fill="#ff6029"/>
        <path id="Trazado_105354" data-name="Trazado 105354" d="M168.151,49.366a5.542,5.542,0,0,1,4.517-3.316c3.376-.322,3.015,2.529,3.015,2.529s1.4-1.422,2.567.787S177,53.8,177,53.8s.829.569,0,2.479-5.73,0-5.73,0Z" transform="translate(-143.098 -23.892)" fill="#352322"/>
        <g id="Grupo_71544" data-name="Grupo 71544" transform="translate(16.65 23.485)">
          <path id="Trazado_105355" data-name="Trazado 105355" d="M169.209,59.367a4.741,4.741,0,0,0,4.805-1.117c-.1-.142-.2-.288-.306-.446-.8-1.229-.637-1.736-.557-3.328.068-1.357-.218-1.494-.228-2.707a14.931,14.931,0,0,1-6.517,1.241,5.18,5.18,0,0,1-.533,1.822A4.291,4.291,0,0,0,169.209,59.367Z" transform="translate(-162.041 -41.621)" fill="#fcaf9d"/>
          <path id="Trazado_105356" data-name="Trazado 105356" d="M173.682,55.6l1.067,1.239s-.521,1.369-3.526,1.518-4.427-.955-5.109-1.85a4.15,4.15,0,0,1-.475-2.547l1.311-.472a3.1,3.1,0,0,0,1.658,2.441A5.4,5.4,0,0,0,173.682,55.6Z" transform="translate(-162.294 -39.897)" fill="#fff"/>
          <path id="Trazado_105357" data-name="Trazado 105357" d="M175.17,56.247a8.722,8.722,0,0,0-.084-5.782c-.749-1.578-2.747-2.5-4.333-3.007-2.461-.787-5.73,1.47-6.527,4.7-.735,2.983-.05,7.81,2.865,9.656C170.337,63.865,174.321,58.666,175.17,56.247Z" transform="translate(-163.954 -46.099)" fill="#ffc9b6"/>
          <path id="Trazado_105358" data-name="Trazado 105358" d="M176.053,49.633c-1.45-1.528-4.511-4.395-8.5-2.034-2.523,1.5-3.388,3.017-3.388,4.669,1.538,1.149,4.136,2.056,7.97,1.832.358.869,1.534,4.507,2.707,5.456.937-1.409,2.268-3.316,2.463-5.163A6.382,6.382,0,0,0,176.053,49.633Z" transform="translate(-163.737 -46.7)" fill="#261822"/>
        </g>
        <path id="Trazado_105359" data-name="Trazado 105359" d="M156.1,35.494c1.329-1.484,1.892.547,2.863,1.636a5.514,5.514,0,0,0,1.722,1.087,8.884,8.884,0,0,0,2.188.7c.038.006.086.016.118.02-.022-.336-.567-1.1-.6-1.6-.09-1.133.541-1.5,1.315-.42a7.619,7.619,0,0,1,1.145,3.438,20.126,20.126,0,0,1,.172,2.186c.036,1.672,3.311,13.1,4.679,16.3.4.939.773,1.784,1.149,2.617.507,1.119,1.021,2.21,1.634,3.442a16.317,16.317,0,0,0,1.1,7.29,36.555,36.555,0,0,1-2.865,3.322c-2.349-3.251-3.53-6.851-4.883-11.38-.06-.2-.12-.4-.182-.607a95.556,95.556,0,0,1-2.6-10.149c-.432-2.695-1-6.825-.665-9.51-.837-.731-1.948-1.235-3.129-2.092a11.218,11.218,0,0,1-3.179-3.55A2.328,2.328,0,0,1,156.1,35.494Z" transform="translate(-155.638 -34.971)" fill="#fcaf9d"/>
        <g id="Grupo_71545" data-name="Grupo 71545" transform="translate(25.053 32.391)">
          <path id="Trazado_105360" data-name="Trazado 105360" d="M168.151,52.1s1.84-1.84,2.5-.408-1,3.075-1,3.075Z" transform="translate(-168.151 -51.149)" fill="#ffc9b6"/>
        </g>
        <path id="Trazado_105361" data-name="Trazado 105361" d="M170.189,73.468c.733-1.039,3.251-3.632,5.129-6.363a16.853,16.853,0,0,0,1.628-2.839c.218-.513.537-1.263.875-2.066.749-1.774,1.6-3.8,1.734-4.082,1.574-3.31,4.311-6.311,6.351-9.346.557-.825.975-1.586,1.452-2.29a7.99,7.99,0,0,1,1.616-1.808c1-.8.885-1.263,1.568-1.646.963-.541.729,1.235.25,1.854-.174.226-.685.813-.935,1.057a3.1,3.1,0,0,0,.553.268,3.551,3.551,0,0,0,.865.206c.22.024.424.034.625.036,1.544.024,2.553-.527,4.246-.627,1.3-.076,1.035,1.572-.116,2.647a7.6,7.6,0,0,1-3.98,1.4,16.347,16.347,0,0,0-3.077.472c-2.144,1.215-3.269,5.874-4.1,8.323-.979,2.879-1.832,3.416-2.913,5.946l-.026.064a56.054,56.054,0,0,0-1.82,6.269c-.012.036-.022.08-.034.112-1.121,3.079-2.679,6.927-5.3,9.058C170.649,83.472,167.934,76.671,170.189,73.468Z" transform="translate(-141.872 -26.998)" fill="#ffc9b6"/>
        <path id="Trazado_105362" data-name="Trazado 105362" d="M173.993,58.622a7.518,7.518,0,0,0-3.962,3.143c-.793,1.221,1.031,3.452,2.336,1.688A11.811,11.811,0,0,0,173.993,58.622Z" transform="translate(-141.408 -11.269)" fill="#fcaf9d"/>
        <path id="Trazado_105363" data-name="Trazado 105363" d="M171.356,101.048a4.96,4.96,0,0,0-1.135-2.811c-.07.422-.577,1.2-.935,2.16a35.562,35.562,0,0,0-4-1.083l-.22,1.173,3.95.9c-.018.092-.04.182-.052.274-.078.637-.14,1.321-.184,1.914a15.182,15.182,0,0,0-1.045,2.9c-.2,1.023-.535,2.158-.747,2.849-.839-.985-2.741-2.234-4.262-1.88a38.1,38.1,0,0,0-2.569,3.678c-.677,1.257.775,2.322,3.193,1.646a7.164,7.164,0,0,0,3.912-2.232h0l0,0a1.153,1.153,0,0,0,.152-.32.394.394,0,0,0,0-.084,28.556,28.556,0,0,0,1.015-3.215,12.056,12.056,0,0,1,.887-2.415l.044-.042v3.764a.941.941,0,0,0,1.065,0,26.881,26.881,0,0,1,.434-3.137A14.482,14.482,0,0,0,171.356,101.048Z" transform="translate(-151.278 28.43)" fill="#f24a1d"/>
        <path id="Trazado_105364" data-name="Trazado 105364" d="M178.487,96.673a4.949,4.949,0,0,0-1.133-2.811c-.07.422-.577,1.2-.935,2.16a36.025,36.025,0,0,0-4-1.083l-.222,1.173,3.95.9c-.016.092-.038.18-.05.274-.08.637-.14,1.321-.184,1.914a15.056,15.056,0,0,0-1.047,2.9c-.2,1.023-.533,2.158-.745,2.847-.841-.983-2.741-2.232-4.265-1.878a38.2,38.2,0,0,0-2.567,3.678c-.679,1.257.773,2.322,3.193,1.646a7.144,7.144,0,0,0,3.91-2.234l0,0v0a1.153,1.153,0,0,0,.152-.32.388.388,0,0,0,0-.084,28.569,28.569,0,0,0,1.015-3.215,11.982,11.982,0,0,1,.885-2.415l.044-.042v3.764a.94.94,0,0,0,1.065,0,26.661,26.661,0,0,1,.436-3.137A14.48,14.48,0,0,0,178.487,96.673Z" transform="translate(-144.132 24.046)" fill="#f24a1d"/>
        <path id="Trazado_105365" data-name="Trazado 105365" d="M168.525,63.613a8.333,8.333,0,0,0,4.142-1.486,4.015,4.015,0,0,1-4.076,2.959A4.731,4.731,0,0,1,164.17,62.6,10.625,10.625,0,0,0,168.525,63.613Z" transform="translate(-147.087 -7.756)" fill="#f24a1d"/>
        <path id="Trazado_105366" data-name="Trazado 105366" d="M170.514,71.556a20.873,20.873,0,0,1,1.99,8.179c-.1,3.9.194,7.79.194,11.1a35.077,35.077,0,0,0,.695,6.515s-.891.052-1.722.15a5.5,5.5,0,0,0-1.834.735s.438-7.6.677-13.34S170.514,71.556,170.514,71.556Z" transform="translate(-141.408 1.693)" fill="#f24a1d"/>
        <path id="Trazado_105367" data-name="Trazado 105367" d="M168.938,69.805s-.068,6.475-.731,12.319-.877,6.669-.925,10.906c-.036,3.135-.356,7.778-.356,7.778a3.882,3.882,0,0,0-1.888-.14c-.691.078-1.65.14-1.65.14S164.6,90.5,165.871,83.1A119.617,119.617,0,0,1,168.938,69.805Z" transform="translate(-147.871 -0.062)" fill="#f24a1d"/>
        <path id="Trazado_105368" data-name="Trazado 105368" d="M167.435,70.973s-1.558,4.819-2.677,9.056-2.3,8.325-2.683,10.563-.911,4.959-.911,4.959a3.816,3.816,0,0,0-1.177-.334c-.585-.044-1.173-.122-1.173-.122s1.466-6.6,2.731-10.393,2.483-7.984,3.748-10.321A23.746,23.746,0,0,1,167.435,70.973Z" transform="translate(-152.455 1.108)" fill="#f24a1d"/>
      </g>
      <g id="Grupo_71548" data-name="Grupo 71548" transform="translate(243.079 51.278)">
        <path id="Trazado_105369" data-name="Trazado 105369" d="M154.927,100.248a5.369,5.369,0,0,1,1.582,2.445,6.484,6.484,0,0,1,0,3.58c-.5,1.582-1.3,1.323-1.3,1.323a13.973,13.973,0,0,1-1.612,4.669c-1.165,1.748-4.242,2.411-5.742,2.413-2.581,0-2.27-1.748-.817-4.411,1.542-2.823,2.633-4.971,2.555-7.1s.008-4.553.008-4.553Z" transform="translate(-118.077 32.272)" fill="#261822"/>
        <path id="Trazado_105370" data-name="Trazado 105370" d="M144.6,92.982s-.354-.633.356.651a14.138,14.138,0,0,1,1.49,5.358c.066,1.716-2.959,2.286-2.959,2.286l-.817-.527s-.364.9-2.849,2.367-5.47,1.58-6.7.895-1.9-1.005.527-3.3A95.29,95.29,0,0,0,140,93.527Z" transform="translate(-132.017 26.472)" fill="#261822"/>
        <path id="Trazado_105371" data-name="Trazado 105371" d="M154.223,69.987C152.96,69.2,140,66.019,140.787,66.609c0,0-3.422,11.088-4.371,16.806a83.254,83.254,0,0,0-.683,9.128,5.29,5.29,0,0,0,0,3.077c.384,1.7-.362,22.44-.242,25.773,2.054,1.842,4.028,2.629,7.446.719,1.177-7.718,3.714-15.8,1.918-25.115,2.162-1.59,5.22-7.216,5.94-9.862C152.127,82.24,156.51,71.412,154.223,69.987Z" transform="translate(-128.547 0.127)" fill="#1e36ba"/>
        <path id="Trazado_105372" data-name="Trazado 105372" d="M154.856,132.086a13.3,13.3,0,0,0,2.108.907,6.215,6.215,0,0,0,4.581-1.273c1-5.462.146-13.24-.733-18.544a25.028,25.028,0,0,0-4.483-10.87c.951-1.822,1.626-6.2,1.726-7.5.258-3.368.172-8.877-.989-12.263.5-1.037.9-2.1,1.245-2.929,1.46-3.518.272-8.163-2.092-11.528-.541-.769-5.109,1.64-7.708,2.5-2.278.749-5.274,1.88-7.754,1.231a10.864,10.864,0,0,0,.4,5.484c.4,1.161.821,4.365,1.518,5.366.815,4.631,2.09,15.312,3.632,21.685.27,1.117.545,2.655,1.728,3.291C150.576,118.067,154.706,131.517,154.856,132.086Z" transform="translate(-123.438 1.527)" fill="#2199d8"/>
        <path id="Trazado_105373" data-name="Trazado 105373" d="M140.812,41.909c-.312.392-.645.785-.989,1.181a15.109,15.109,0,0,1,3.2,1.642,6.057,6.057,0,0,1,.983-1.416c.775-.8,2.9-.647,3.534-1.377.6-.689-.507-.843-2.449-1.143a11.084,11.084,0,0,0,1.217-4.415c.2-2.084-.571-3.458-1.924-3.077-1.105.312-1.876,2.467-2.17,3.2A14.865,14.865,0,0,0,140.812,41.909Z" transform="translate(-124.194 -33.24)" fill="#ffb9a4"/>
        <path id="Trazado_105374" data-name="Trazado 105374" d="M146.427,61.51a10.554,10.554,0,0,0,.148-4.621,11.767,11.767,0,0,0-2.625-5.336c.056-1.436,2.01-7.7,1.2-10.9-.575-2.288-3.346-3.105-4.295-1.221-.845,1.678-2.725,4.871-3.009,6.627-.266,1.65-.428,3.834.479,5.5-1.365,1.654-1.271,7.95.847,11.532-.471,3.76,1.359,11.692,3.205,12.333,1.57.547,3.051.426,3.828-.645,1.45-2,4.1-5.254,4.277-7.794A6.864,6.864,0,0,0,146.427,61.51Z" transform="translate(-126.603 -28.087)" fill="#efe8eb"/>
        <g id="Grupo_71547" data-name="Grupo 71547" transform="translate(14.026 70.106)">
          <path id="Trazado_105375" data-name="Trazado 105375" d="M139.052,68.256l0,0C139.016,68.312,139.01,68.322,139.052,68.256Z" transform="translate(-139.022 -68.256)" fill="#261822"/>
        </g>
        <path id="Trazado_105376" data-name="Trazado 105376" d="M152.8,52.476c-2.156-.741-3.556-1.245-7.586,3.169-2.835,3.1-4.517,12-4.285,13.43.184,1.129.1,10.069-3.906,15.484,2.16,3.32,7.536,7.082,11.732,7.57,6.1.709,10.035-.695,13.282-3.3-.22-1.343-2.226-5.982-1.141-8.725,1.874-4.729,3.5-7.768,4.487-12.92C166.957,58.979,157.583,54.124,152.8,52.476Z" transform="translate(-127.002 -14.455)" fill="#fff"/>
        <path id="Trazado_105377" data-name="Trazado 105377" d="M145.306,52.331A23.842,23.842,0,0,1,143.4,59c-.276,2.881.837,4.857,3.91,2.655a56.161,56.161,0,0,0,6.143-5.318l-.657-5.141Z" transform="translate(-120.649 -15.251)" fill="#ffb9a4"/>
        <path id="Trazado_105378" data-name="Trazado 105378" d="M153.78,52.9a6.358,6.358,0,0,1-2.735,3.554c-2.082,1.48-3.079,1.109-4.959,1.4a3.431,3.431,0,0,0-3.269,3.019c.769-.156.887-.543,1.494.18.4.477.282,1.057.338,1.58a1.473,1.473,0,0,0,1.942,1.079c-.452-2.1,4.078-3.412,5.215-3.834a5.047,5.047,0,0,0,2.839-2.953C155.041,55.147,154.825,53.538,153.78,52.9Z" transform="translate(-121.194 -13.534)" fill="#efe8eb"/>
        <path id="Trazado_105379" data-name="Trazado 105379" d="M146.692,52.454s-1.814,1.9-2.675,3.031-.735,2.407-1.466,2.965a4.852,4.852,0,0,1-1.439.761,4.3,4.3,0,0,0,1.922.086c.5-.256,1.117-.394,1.249-.246s1.117,1.231,1.187,1.1a12.823,12.823,0,0,1,1.57-.859,4.175,4.175,0,0,1-.416-2.891,12.461,12.461,0,0,1,1.265-3.039Z" transform="translate(-122.902 -13.986)" fill="#efe8eb"/>
        <path id="Trazado_105380" data-name="Trazado 105380" d="M156.507,50.829c-.012-2.248-5.722-5.159-7.986-4.823-3.414.5-4.729,4.685-5.28,7.81-.577,3.285.783,7.812,5.8,6.269C153.113,58.834,156.531,55.21,156.507,50.829Z" transform="translate(-120.892 -20.474)" fill="#ffc9b6"/>
        <path id="Trazado_105381" data-name="Trazado 105381" d="M157.3,52.791a3.329,3.329,0,0,0-.9-3.622,6.531,6.531,0,0,0-3.408-1.54c-1.093-.224-1.558-.11-2.439-.859-.943-.8-.675-1.131-1.045-2.192-1.139-3.269-4.755-.472-4.715,2.391a1.137,1.137,0,0,0-1.117.09c-.929.585-.715,1.82-.208,2.591a5.927,5.927,0,0,0,3.862,2.479c.549,2.653,3.538,2.845,4.625,2.425-.434,1.91,1.093,4.389,1.415,6.723.9-1.011,4.549-2.34,5.083-5.171A3.572,3.572,0,0,0,157.3,52.791Z" transform="translate(-120.974 -23.353)" fill="#261822"/>
        <path id="Trazado_105382" data-name="Trazado 105382" d="M147.583,50.345s1.526-1.227,2.05.192c.46,1.249-.122,2.6-1.712,2.489C146.522,52.927,147.583,50.345,147.583,50.345Z" transform="translate(-116.803 -16.594)" fill="#ffc9b6"/>
        <path id="Trazado_105383" data-name="Trazado 105383" d="M170.052,43.58c-.895-.943-3.221-.288-5.157,1.129s-2.9,1.426-3.047.384.471-1.516.142-2.126-.767-.641-1.151.711-.507,3.155-.935,4.271c-.533.553-1.57,1.472-2.681,2.441a15.971,15.971,0,0,0,2.983,3.348c.539-.947,1.055-1.878,1.528-2.731,2.256-1.514,3.838-1.021,6.381-2.693S170.947,44.525,170.052,43.58Z" transform="translate(-106.758 -23.898)" fill="#ffc9b6"/>
        <path id="Trazado_105384" data-name="Trazado 105384" d="M167.874,45.995c-4.23,3.1-4.086,5.167-6.122,8.181a40.4,40.4,0,0,0-7.017,9.15c-2.533.024-4.535,2.515-6.721,8.575-1.434,3.966-.322,11.072,5,6.875,3.648-2.875,4.939-5.91,6.136-8.537,1.85-.076,4.082-3.135,7.188-9.7,1.339-2.829,2.679-5.964,4.923-11.937C169.415,47.234,168.739,46.68,167.874,45.995Z" transform="translate(-116.561 -20.459)" fill="#efe8eb"/>
        <path id="Trazado_105385" data-name="Trazado 105385" d="M157.222,47.249a4.4,4.4,0,0,0,1.48,1.968,11.934,11.934,0,0,0,2.274,1.263l1.029-2.447L159.613,45.4S157.967,46.606,157.222,47.249Z" transform="translate(-106.758 -21.058)" fill="#e0d1db"/>
        <path id="Trazado_105386" data-name="Trazado 105386" d="M139.915,38.774c-.184.338-.779,1.327-.779,1.327s1.686.416,2.559.753a6.75,6.75,0,0,1,1.884,1.413s1.213-2.671-.148-3.692S140.752,37.226,139.915,38.774Z" transform="translate(-124.882 -28.76)" fill="#e0d1db"/>
        <path id="Trazado_105387" data-name="Trazado 105387" d="M142.572,58.1a2.8,2.8,0,0,1,.032-2.168s.326-.07.751-.2c.33-.1.489.294.489.294a10.822,10.822,0,0,0-.35,1.962s.861-.2,1.239-.276c1.031-.2.861.977.861.977s-.887.182-1.612.26a7.735,7.735,0,0,1-.611,1.375.781.781,0,0,1-1.067.368,1.094,1.094,0,0,1-.446-1.422A7.226,7.226,0,0,1,142.572,58.1Z" transform="translate(-122.245 -10.72)" fill="#ff6029"/>
        <path id="Trazado_105388" data-name="Trazado 105388" d="M142.34,62.056c1.017-2.825,1.55-3.5,2.2-4.216.2-.222.859.1.809.4a83.578,83.578,0,0,0-1.111,9.706c-.346,4.887-.9,8.343-.9,8.343a13.063,13.063,0,0,1-3.049,2.01,10.121,10.121,0,0,1-.939-4.683S141.265,65.042,142.34,62.056Z" transform="translate(-124.678 -8.663)" fill="#ff6029"/>
      </g>
      <g id="Grupo_71583" data-name="Grupo 71583" transform="translate(21.19 17.816)">
        <g id="Grupo_71549" data-name="Grupo 71549" transform="translate(4.967 128.836)">
          <path id="Trazado_105389" data-name="Trazado 105389" d="M72.077,86.754a6.946,6.946,0,0,0-2.9-5.54,1.85,1.85,0,0,0-1.856-.154l-.006-.016L24.1,105.74l4.01,8.01,42.855-24.6-.006-.016A2.45,2.45,0,0,0,72.077,86.754Z" transform="translate(-23.241 -80.877)" fill="#2e428e"/>
          <path id="Trazado_105390" data-name="Trazado 105390" d="M29.469,99.1c0,2.134-1.3,3.115-2.9,2.19a6.938,6.938,0,0,1-2.9-5.54c0-2.134,1.3-3.117,2.9-2.192A6.945,6.945,0,0,1,29.469,99.1Z" transform="translate(-23.671 -68.519)" fill="#1e36ba"/>
        </g>
        <g id="Grupo_71550" data-name="Grupo 71550" transform="translate(58.482 98.082)">
          <path id="Trazado_105391" data-name="Trazado 105391" d="M98.807,71.392a6.946,6.946,0,0,0-2.9-5.54A1.845,1.845,0,0,0,94.05,65.7l-.008-.018L50.83,90.379l4.01,8.011L97.7,73.791l-.008-.016A2.45,2.45,0,0,0,98.807,71.392Z" transform="translate(-49.969 -65.516)" fill="#2e428e"/>
          <path id="Trazado_105392" data-name="Trazado 105392" d="M56.2,83.735c0,2.136-1.3,3.117-2.9,2.192a6.94,6.94,0,0,1-2.9-5.54c0-2.134,1.3-3.115,2.9-2.192A6.944,6.944,0,0,1,56.2,83.735Z" transform="translate(-50.4 -53.158)" fill="#1e36ba"/>
        </g>
        <g id="Grupo_71571" data-name="Grupo 71571" transform="translate(8.583 99.92)">
          <g id="Grupo_71551" data-name="Grupo 71551">
            <path id="Trazado_105393" data-name="Trazado 105393" d="M212.747,115.143h.008c.006.092,0-4.879,0-4.879a49.323,49.323,0,0,0-4.979-1.085c.008.028.028.216.058.495L140.939,71.052c-4.541-2.623-11.434-2.907-15.368-.637L29.588,125.832c-1.574-.154-4.11-.352-4.11-.352v4.971l0,0c-.036,1.766,1.233,3.638,3.752,5.091l68.068,39.3c4.541,2.623,11.434,2.909,15.368.637l97.439-56.258C211.986,118.142,212.843,116.668,212.747,115.143Z" transform="translate(-25.476 -63.98)" fill="#1e36ba"/>
            <path id="Trazado_105394" data-name="Trazado 105394" d="M112.672,173.031c-3.934,2.27-10.827,1.986-15.368-.637L29.235,133.1c-4.541-2.621-5.037-6.6-1.1-8.871l97.439-56.258c3.934-2.27,10.827-1.984,15.368.637l68.068,39.3c4.541,2.621,5.037,6.6,1.1,8.871Z" transform="translate(-25.477 -66.434)" fill="#2199d8"/>
            <path id="Trazado_105395" data-name="Trazado 105395" d="M208.593,115.9l-97.441,56.258c-3.49,2.014-9.638,1.76-13.667-.567l-68.068-39.3c-4.028-2.326-4.469-5.876-.981-7.89l97.441-56.258c3.49-2.014,9.638-1.76,13.667.567l68.068,39.3C211.64,110.333,212.081,113.883,208.593,115.9Z" transform="translate(-24.87 -66.083)" fill="#1565c0"/>
          </g>
          <g id="Grupo_71552" data-name="Grupo 71552" transform="translate(15.052 47.298)">
            <path id="Trazado_105396" data-name="Trazado 105396" d="M44.075,102.076,41.087,103.8a4.163,4.163,0,0,1-3.732-.154l-3.45-1.992c-1.1-.635-1.221-1.6-.268-2.154l2.987-1.724a4.167,4.167,0,0,1,3.734.154l3.448,1.99C44.907,100.557,45.028,101.526,44.075,102.076Z" transform="translate(-32.995 -82.695)" fill="#c5d2ef"/>
            <path id="Trazado_105397" data-name="Trazado 105397" d="M48.317,99.627l-2.987,1.724A4.163,4.163,0,0,1,41.6,101.2l-3.45-1.992c-1.1-.635-1.221-1.6-.268-2.154l2.987-1.724a4.163,4.163,0,0,1,3.732.154l3.45,1.99C49.15,98.108,49.27,99.077,48.317,99.627Z" transform="translate(-28.744 -85.149)" fill="#c5d2ef"/>
            <path id="Trazado_105398" data-name="Trazado 105398" d="M52.559,97.178,49.572,98.9a4.167,4.167,0,0,1-3.734-.154L42.39,96.756c-1.1-.635-1.221-1.6-.268-2.154l2.987-1.724a4.162,4.162,0,0,1,3.732.154l3.45,1.992C53.39,95.659,53.512,96.628,52.559,97.178Z" transform="translate(-24.493 -87.603)" fill="#c5d2ef"/>
            <path id="Trazado_105399" data-name="Trazado 105399" d="M56.8,94.729l-2.987,1.724A4.167,4.167,0,0,1,50.08,96.3l-3.448-1.99c-1.1-.637-1.221-1.606-.268-2.156l2.987-1.724a4.163,4.163,0,0,1,3.732.154l3.45,1.99C57.632,93.21,57.752,94.179,56.8,94.729Z" transform="translate(-20.242 -90.058)" fill="#c5d2ef"/>
          </g>
          <g id="Grupo_71553" data-name="Grupo 71553" transform="translate(49.023 27.685)">
            <path id="Trazado_105400" data-name="Trazado 105400" d="M61.041,92.28,58.056,94a4.167,4.167,0,0,1-3.734-.154l-3.45-1.992c-1.1-.635-1.221-1.6-.266-2.154l2.985-1.724a4.167,4.167,0,0,1,3.734.154l3.448,1.99C61.874,90.761,61.994,91.73,61.041,92.28Z" transform="translate(-49.962 -72.899)" fill="#c5d2ef"/>
            <path id="Trazado_105401" data-name="Trazado 105401" d="M65.284,89.831,62.3,91.555a4.163,4.163,0,0,1-3.732-.154l-3.45-1.992c-1.1-.635-1.221-1.6-.268-2.154l2.987-1.724a4.167,4.167,0,0,1,3.734.154l3.448,1.99C66.116,88.312,66.237,89.281,65.284,89.831Z" transform="translate(-45.711 -75.353)" fill="#c5d2ef"/>
            <path id="Trazado_105402" data-name="Trazado 105402" d="M69.526,87.382l-2.987,1.724a4.167,4.167,0,0,1-3.734-.154L59.357,86.96c-1.1-.635-1.221-1.6-.268-2.154l2.987-1.724a4.162,4.162,0,0,1,3.732.154l3.45,1.99C70.357,85.863,70.479,86.832,69.526,87.382Z" transform="translate(-41.461 -77.807)" fill="#c5d2ef"/>
            <path id="Trazado_105403" data-name="Trazado 105403" d="M73.768,84.933l-2.987,1.724a4.167,4.167,0,0,1-3.734-.154L63.6,84.511c-1.1-.635-1.221-1.6-.268-2.154l2.987-1.724a4.162,4.162,0,0,1,3.732.154l3.45,1.992C74.6,83.414,74.721,84.383,73.768,84.933Z" transform="translate(-37.21 -80.262)" fill="#c5d2ef"/>
          </g>
          <g id="Grupo_71557" data-name="Grupo 71557" transform="translate(24.422 13.482)">
            <g id="Grupo_71554" data-name="Grupo 71554" transform="translate(0 39.225)">
              <path id="Trazado_105404" data-name="Trazado 105404" d="M48.755,104.778,45.767,106.5a4.163,4.163,0,0,1-3.732-.154l-3.45-1.992c-1.1-.635-1.221-1.6-.268-2.154l2.987-1.724a4.163,4.163,0,0,1,3.732.154l3.45,1.99C49.587,103.259,49.708,104.228,48.755,104.778Z" transform="translate(-37.675 -85.396)" fill="#c5d2ef"/>
              <path id="Trazado_105405" data-name="Trazado 105405" d="M53,102.329l-2.987,1.724a4.163,4.163,0,0,1-3.732-.154l-3.45-1.992c-1.1-.635-1.221-1.6-.268-2.154l2.987-1.724a4.162,4.162,0,0,1,3.732.154l3.45,1.99C53.83,100.81,53.95,101.779,53,102.329Z" transform="translate(-33.424 -87.85)" fill="#c5d2ef"/>
              <path id="Trazado_105406" data-name="Trazado 105406" d="M57.239,99.88,54.252,101.6a4.167,4.167,0,0,1-3.734-.154L47.07,99.458c-1.1-.635-1.221-1.6-.268-2.154l2.987-1.724a4.163,4.163,0,0,1,3.732.154l3.45,1.99C58.07,98.361,58.19,99.33,57.239,99.88Z" transform="translate(-29.173 -90.305)" fill="#c5d2ef"/>
              <path id="Trazado_105407" data-name="Trazado 105407" d="M61.479,97.432l-2.985,1.724A4.167,4.167,0,0,1,54.76,99l-3.45-1.992c-1.1-.635-1.219-1.6-.266-2.154l2.985-1.724a4.161,4.161,0,0,1,3.734.154l3.45,1.99C62.312,95.912,62.432,96.881,61.479,97.432Z" transform="translate(-24.923 -92.759)" fill="#c5d2ef"/>
            </g>
            <g id="Grupo_71555" data-name="Grupo 71555" transform="translate(33.97 19.613)">
              <path id="Trazado_105408" data-name="Trazado 105408" d="M65.722,94.982l-2.987,1.724A4.163,4.163,0,0,1,59,96.552l-3.45-1.992c-1.1-.635-1.221-1.6-.268-2.154l2.987-1.724a4.167,4.167,0,0,1,3.734.154l3.448,1.99C66.554,93.463,66.675,94.432,65.722,94.982Z" transform="translate(-54.642 -75.601)" fill="#c5d2ef"/>
              <path id="Trazado_105409" data-name="Trazado 105409" d="M69.964,92.533l-2.987,1.724a4.163,4.163,0,0,1-3.732-.154L59.8,92.111c-1.1-.635-1.221-1.6-.268-2.154l2.987-1.724a4.163,4.163,0,0,1,3.732.154l3.45,1.99C70.8,91.014,70.917,91.983,69.964,92.533Z" transform="translate(-50.391 -78.055)" fill="#c5d2ef"/>
              <path id="Trazado_105410" data-name="Trazado 105410" d="M74.206,90.084l-2.987,1.724a4.167,4.167,0,0,1-3.734-.154l-3.448-1.992c-1.1-.635-1.221-1.6-.268-2.154l2.987-1.724a4.162,4.162,0,0,1,3.732.154l3.45,1.99C75.037,88.565,75.159,89.534,74.206,90.084Z" transform="translate(-46.14 -80.509)" fill="#c5d2ef"/>
              <path id="Trazado_105411" data-name="Trazado 105411" d="M78.446,87.635l-2.985,1.724a4.167,4.167,0,0,1-3.734-.154l-3.448-1.992c-1.1-.635-1.221-1.6-.268-2.154L71,83.335a4.163,4.163,0,0,1,3.732.154l3.45,1.99C79.279,86.116,79.4,87.085,78.446,87.635Z" transform="translate(-41.889 -82.964)" fill="#c5d2ef"/>
            </g>
            <g id="Grupo_71556" data-name="Grupo 71556" transform="translate(67.941)">
              <path id="Trazado_105412" data-name="Trazado 105412" d="M82.688,85.186,79.7,86.91a4.163,4.163,0,0,1-3.732-.154l-3.45-1.992c-1.1-.635-1.219-1.6-.266-2.154l2.985-1.724a4.167,4.167,0,0,1,3.734.154l3.45,1.99C83.521,83.667,83.641,84.636,82.688,85.186Z" transform="translate(-71.61 -65.805)" fill="#c5d2ef"/>
              <path id="Trazado_105413" data-name="Trazado 105413" d="M86.931,82.737l-2.987,1.724a4.163,4.163,0,0,1-3.732-.154l-3.45-1.992c-1.1-.635-1.221-1.6-.268-2.154l2.987-1.724a4.167,4.167,0,0,1,3.734.154l3.448,1.99C87.764,81.218,87.884,82.187,86.931,82.737Z" transform="translate(-67.359 -68.259)" fill="#c5d2ef"/>
              <path id="Trazado_105414" data-name="Trazado 105414" d="M91.173,80.288l-2.987,1.724a4.162,4.162,0,0,1-3.732-.154L81,79.866c-1.1-.635-1.221-1.6-.268-2.154l2.987-1.724a4.163,4.163,0,0,1,3.732.154l3.45,1.99C92.006,78.769,92.126,79.738,91.173,80.288Z" transform="translate(-63.109 -70.713)" fill="#c5d2ef"/>
              <path id="Trazado_105415" data-name="Trazado 105415" d="M95.415,77.839l-2.987,1.724a4.167,4.167,0,0,1-3.734-.154l-3.448-1.992c-1.1-.635-1.221-1.6-.268-2.154l2.987-1.724a4.162,4.162,0,0,1,3.732.154l3.45,1.99C96.246,76.32,96.368,77.289,95.415,77.839Z" transform="translate(-58.858 -73.168)" fill="#c5d2ef"/>
            </g>
          </g>
          <g id="Grupo_71561" data-name="Grupo 71561" transform="translate(33.791 18.892)">
            <g id="Grupo_71558" data-name="Grupo 71558" transform="translate(0 39.225)">
              <path id="Trazado_105416" data-name="Trazado 105416" d="M53.435,107.481,50.448,109.2a4.163,4.163,0,0,1-3.732-.154l-3.45-1.992c-1.1-.635-1.221-1.6-.268-2.154l2.987-1.726a4.169,4.169,0,0,1,3.732.156l3.45,1.99C54.268,105.961,54.388,106.93,53.435,107.481Z" transform="translate(-42.355 -88.099)" fill="#c5d2ef"/>
              <path id="Trazado_105417" data-name="Trazado 105417" d="M57.677,105.032l-2.987,1.724a4.167,4.167,0,0,1-3.734-.154l-3.448-1.992c-1.1-.635-1.221-1.6-.268-2.154l2.987-1.726a4.169,4.169,0,0,1,3.732.156l3.45,1.99C58.508,103.512,58.63,104.481,57.677,105.032Z" transform="translate(-38.104 -90.553)" fill="#c5d2ef"/>
              <path id="Trazado_105418" data-name="Trazado 105418" d="M61.919,102.583l-2.987,1.724a4.167,4.167,0,0,1-3.734-.154l-3.45-1.992c-1.1-.635-1.219-1.6-.266-2.154l2.985-1.724a4.161,4.161,0,0,1,3.734.154l3.45,1.99C62.75,101.061,62.87,102.032,61.919,102.583Z" transform="translate(-33.853 -93.007)" fill="#c5d2ef"/>
              <path id="Trazado_105419" data-name="Trazado 105419" d="M66.159,100.134l-2.987,1.724a4.163,4.163,0,0,1-3.732-.154l-3.45-1.992c-1.1-.635-1.219-1.6-.268-2.154l2.987-1.726a4.174,4.174,0,0,1,3.734.156l3.448,1.99C66.992,98.614,67.112,99.583,66.159,100.134Z" transform="translate(-29.602 -95.461)" fill="#c5d2ef"/>
            </g>
            <g id="Grupo_71559" data-name="Grupo 71559" transform="translate(33.971 14.709)">
              <path id="Trazado_105420" data-name="Trazado 105420" d="M70.4,97.684l-2.987,1.724a4.163,4.163,0,0,1-3.732-.154l-3.45-1.992c-1.1-.635-1.221-1.6-.268-2.154l2.987-1.724a4.167,4.167,0,0,1,3.734.154l3.448,1.99C71.235,96.165,71.355,97.134,70.4,97.684Z" transform="translate(-59.322 -73.399)" fill="#c5d2ef"/>
              <path id="Trazado_105421" data-name="Trazado 105421" d="M74.644,95.236,71.657,96.96a4.163,4.163,0,0,1-3.732-.154l-3.45-1.992c-1.1-.635-1.221-1.6-.268-2.154l2.987-1.726a4.163,4.163,0,0,1,3.732.156l3.45,1.99C75.477,93.716,75.6,94.685,74.644,95.236Z" transform="translate(-55.071 -75.854)" fill="#c5d2ef"/>
              <path id="Trazado_105422" data-name="Trazado 105422" d="M78.886,92.786,75.9,94.51a4.167,4.167,0,0,1-3.734-.154l-3.448-1.992c-1.1-.635-1.221-1.6-.268-2.154l2.987-1.724a4.163,4.163,0,0,1,3.732.154l3.45,1.99C79.717,91.267,79.837,92.236,78.886,92.786Z" transform="translate(-50.82 -78.308)" fill="#c5d2ef"/>
              <path id="Trazado_105423" data-name="Trazado 105423" d="M91.619,87.889,80.141,94.516a4.167,4.167,0,0,1-3.734-.154l-3.45-1.992c-1.1-.635-1.219-1.6-.266-2.154l11.478-6.629a4.174,4.174,0,0,1,3.734.156l3.448,1.99C92.452,86.369,92.572,87.338,91.619,87.889Z" transform="translate(-46.57 -83.216)" fill="#c5d2ef"/>
            </g>
            <g id="Grupo_71560" data-name="Grupo 71560" transform="translate(76.433)">
              <path id="Trazado_105424" data-name="Trazado 105424" d="M91.611,85.44l-2.987,1.724a4.162,4.162,0,0,1-3.732-.154l-3.45-1.992c-1.1-.635-1.221-1.6-.268-2.154l2.987-1.724a4.156,4.156,0,0,1,3.732.154l3.45,1.99C92.444,83.92,92.564,84.889,91.611,85.44Z" transform="translate(-80.531 -70.961)" fill="#c5d2ef"/>
              <path id="Trazado_105425" data-name="Trazado 105425" d="M95.853,82.991l-2.987,1.724a4.167,4.167,0,0,1-3.734-.154l-3.448-1.992c-1.1-.635-1.221-1.6-.268-2.154L88.4,78.688a4.169,4.169,0,0,1,3.732.156l3.45,1.99C96.684,81.471,96.806,82.44,95.853,82.991Z" transform="translate(-76.28 -73.415)" fill="#c5d2ef"/>
              <path id="Trazado_105426" data-name="Trazado 105426" d="M100.093,80.541l-2.985,1.724a4.167,4.167,0,0,1-3.734-.154l-3.448-1.992c-1.1-.635-1.221-1.6-.268-2.154l2.987-1.724a4.163,4.163,0,0,1,3.732.154l3.45,1.99C100.926,79.022,101.046,79.991,100.093,80.541Z" transform="translate(-72.029 -75.87)" fill="#c5d2ef"/>
            </g>
          </g>
          <g id="Grupo_71565" data-name="Grupo 71565" transform="translate(43.161 24.3)">
            <g id="Grupo_71562" data-name="Grupo 71562" transform="translate(0 39.226)">
              <path id="Trazado_105427" data-name="Trazado 105427" d="M58.115,110.183l-2.987,1.724a4.167,4.167,0,0,1-3.734-.154l-3.448-1.992c-1.1-.635-1.221-1.6-.268-2.154l2.987-1.726a4.163,4.163,0,0,1,3.732.156l3.45,1.99C58.946,108.661,59.068,109.632,58.115,110.183Z" transform="translate(-47.035 -90.8)" fill="#c5d2ef"/>
              <path id="Trazado_105428" data-name="Trazado 105428" d="M62.355,107.734l-2.985,1.724a4.167,4.167,0,0,1-3.734-.154l-3.448-1.992c-1.1-.635-1.221-1.606-.268-2.154l2.987-1.726a4.163,4.163,0,0,1,3.732.156l3.45,1.99C63.188,106.214,63.308,107.183,62.355,107.734Z" transform="translate(-42.784 -93.255)" fill="#c5d2ef"/>
              <path id="Trazado_105429" data-name="Trazado 105429" d="M66.6,105.285l-2.987,1.724a4.163,4.163,0,0,1-3.732-.154l-3.45-1.992c-1.1-.635-1.219-1.606-.266-2.154l2.985-1.726a4.167,4.167,0,0,1,3.734.156l3.448,1.99C67.43,103.763,67.55,104.734,66.6,105.285Z" transform="translate(-38.533 -95.709)" fill="#c5d2ef"/>
              <path id="Trazado_105430" data-name="Trazado 105430" d="M70.84,102.836l-2.987,1.724a4.163,4.163,0,0,1-3.732-.154l-3.45-1.992c-1.1-.635-1.221-1.606-.268-2.154l2.987-1.726a4.167,4.167,0,0,1,3.734.156l3.448,1.99C71.672,101.316,71.793,102.285,70.84,102.836Z" transform="translate(-34.282 -98.163)" fill="#c5d2ef"/>
            </g>
            <g id="Grupo_71563" data-name="Grupo 71563" transform="translate(33.97 19.613)">
              <path id="Trazado_105431" data-name="Trazado 105431" d="M75.082,100.387l-2.987,1.724a4.163,4.163,0,0,1-3.732-.154l-3.45-1.992c-1.1-.635-1.221-1.606-.268-2.154l2.987-1.726a4.163,4.163,0,0,1,3.732.156l3.45,1.99C75.915,98.867,76.035,99.836,75.082,100.387Z" transform="translate(-64.002 -81.004)" fill="#c5d2ef"/>
              <path id="Trazado_105432" data-name="Trazado 105432" d="M79.324,97.938l-2.987,1.724a4.167,4.167,0,0,1-3.734-.154l-3.448-1.992c-1.1-.635-1.221-1.6-.268-2.154l2.987-1.726a4.163,4.163,0,0,1,3.732.156l3.45,1.99C80.155,96.418,80.277,97.387,79.324,97.938Z" transform="translate(-59.751 -83.459)" fill="#c5d2ef"/>
              <path id="Trazado_105433" data-name="Trazado 105433" d="M83.566,95.489l-2.987,1.724a4.167,4.167,0,0,1-3.734-.154L73.4,95.066c-1.1-.635-1.219-1.606-.266-2.154l2.985-1.726a4.167,4.167,0,0,1,3.734.156l3.45,1.99C84.4,93.969,84.517,94.938,83.566,95.489Z" transform="translate(-55.5 -85.913)" fill="#c5d2ef"/>
              <path id="Trazado_105434" data-name="Trazado 105434" d="M87.806,93.04l-2.985,1.724a4.167,4.167,0,0,1-3.734-.154l-3.45-1.992c-1.1-.635-1.219-1.606-.268-2.154l2.987-1.726a4.167,4.167,0,0,1,3.734.156l3.448,1.99C88.639,91.52,88.759,92.489,87.806,93.04Z" transform="translate(-51.249 -88.367)" fill="#c5d2ef"/>
            </g>
            <g id="Grupo_71564" data-name="Grupo 71564" transform="translate(67.94)">
              <path id="Trazado_105435" data-name="Trazado 105435" d="M92.049,90.591l-2.987,1.724a4.163,4.163,0,0,1-3.732-.154l-3.45-1.992c-1.1-.635-1.221-1.606-.268-2.154L84.6,86.288a4.163,4.163,0,0,1,3.732.156l3.45,1.99C92.882,89.071,93,90.04,92.049,90.591Z" transform="translate(-80.969 -71.208)" fill="#c5d2ef"/>
              <path id="Trazado_105436" data-name="Trazado 105436" d="M96.291,88.142,93.3,89.866a4.162,4.162,0,0,1-3.732-.154l-3.45-1.992c-1.1-.635-1.221-1.6-.268-2.154l2.987-1.726A4.163,4.163,0,0,1,92.573,84l3.45,1.99C97.122,86.622,97.244,87.591,96.291,88.142Z" transform="translate(-76.718 -73.663)" fill="#c5d2ef"/>
              <path id="Trazado_105437" data-name="Trazado 105437" d="M100.533,85.693l-2.987,1.724a4.167,4.167,0,0,1-3.734-.154L90.364,85.27c-1.1-.635-1.221-1.6-.268-2.154l2.987-1.726a4.163,4.163,0,0,1,3.732.156l3.45,1.99C101.364,84.173,101.484,85.142,100.533,85.693Z" transform="translate(-72.467 -76.117)" fill="#c5d2ef"/>
              <path id="Trazado_105438" data-name="Trazado 105438" d="M104.773,83.244l-2.985,1.724a4.167,4.167,0,0,1-3.734-.154L94.6,82.822c-1.1-.635-1.219-1.606-.266-2.154l2.985-1.726a4.167,4.167,0,0,1,3.734.156l3.45,1.99C105.606,81.724,105.726,82.693,104.773,83.244Z" transform="translate(-68.216 -78.571)" fill="#c5d2ef"/>
            </g>
          </g>
          <g id="Grupo_71569" data-name="Grupo 71569" transform="translate(52.531 29.71)">
            <g id="Grupo_71566" data-name="Grupo 71566" transform="translate(0 24.515)">
              <path id="Trazado_105439" data-name="Trazado 105439" d="M62.795,112.885l-2.987,1.724a4.167,4.167,0,0,1-3.734-.154l-3.448-1.992c-1.1-.635-1.221-1.606-.268-2.156l2.987-1.724a4.163,4.163,0,0,1,3.732.156l3.45,1.99C63.626,111.365,63.748,112.334,62.795,112.885Z" transform="translate(-51.715 -78.792)" fill="#c5d2ef"/>
              <path id="Trazado_105440" data-name="Trazado 105440" d="M67.035,110.436,64.05,112.16a4.167,4.167,0,0,1-3.734-.154l-3.448-1.992c-1.1-.635-1.221-1.606-.268-2.154l2.987-1.726a4.157,4.157,0,0,1,3.732.156l3.45,1.99C67.868,108.915,67.988,109.886,67.035,110.436Z" transform="translate(-47.464 -81.247)" fill="#c5d2ef"/>
              <path id="Trazado_105441" data-name="Trazado 105441" d="M71.278,107.987l-2.987,1.724a4.163,4.163,0,0,1-3.732-.154l-3.45-1.992c-1.1-.635-1.221-1.606-.268-2.154l2.987-1.726a4.167,4.167,0,0,1,3.734.156l3.448,1.99C72.11,106.467,72.231,107.436,71.278,107.987Z" transform="translate(-43.213 -83.7)" fill="#c5d2ef"/>
              <path id="Trazado_105442" data-name="Trazado 105442" d="M101,98.191,72.532,114.625a4.162,4.162,0,0,1-3.732-.154l-3.45-1.992c-1.1-.635-1.221-1.606-.268-2.154L93.547,93.889a4.161,4.161,0,0,1,3.734.156l3.448,1.99C101.83,96.67,101.95,97.641,101,98.191Z" transform="translate(-38.962 -93.518)" fill="#c5d2ef"/>
            </g>
            <g id="Grupo_71567" data-name="Grupo 71567" transform="translate(59.448 19.613)">
              <path id="Trazado_105443" data-name="Trazado 105443" d="M92.487,95.742,89.5,97.466a4.162,4.162,0,0,1-3.732-.154l-3.45-1.992c-1.1-.635-1.221-1.606-.268-2.154l2.987-1.726a4.167,4.167,0,0,1,3.734.156l3.448,1.99C93.319,94.222,93.44,95.191,92.487,95.742Z" transform="translate(-81.407 -91.069)" fill="#c5d2ef"/>
            </g>
            <g id="Grupo_71568" data-name="Grupo 71568" transform="translate(67.94)">
              <path id="Trazado_105444" data-name="Trazado 105444" d="M96.729,93.293l-2.987,1.724a4.162,4.162,0,0,1-3.732-.154l-3.45-1.992c-1.1-.635-1.221-1.606-.268-2.154l2.987-1.726a4.157,4.157,0,0,1,3.732.156l3.45,1.99C97.562,91.772,97.682,92.743,96.729,93.293Z" transform="translate(-85.649 -73.911)" fill="#c5d2ef"/>
              <path id="Trazado_105445" data-name="Trazado 105445" d="M100.971,90.844l-2.987,1.724a4.167,4.167,0,0,1-3.734-.154L90.8,90.421c-1.1-.635-1.221-1.6-.268-2.154l2.987-1.726a4.163,4.163,0,0,1,3.732.156l3.45,1.99C101.8,89.322,101.924,90.293,100.971,90.844Z" transform="translate(-81.398 -76.365)" fill="#c5d2ef"/>
              <path id="Trazado_105446" data-name="Trazado 105446" d="M105.213,88.4l-2.987,1.724a4.167,4.167,0,0,1-3.734-.154l-3.448-1.992c-1.1-.635-1.221-1.606-.268-2.154l2.987-1.726a4.157,4.157,0,0,1,3.732.156l3.45,1.99C106.044,86.876,106.164,87.845,105.213,88.4Z" transform="translate(-77.147 -78.819)" fill="#c5d2ef"/>
              <path id="Trazado_105447" data-name="Trazado 105447" d="M109.453,85.946l-2.987,1.724a4.163,4.163,0,0,1-3.732-.154l-3.45-1.992c-1.1-.635-1.219-1.606-.268-2.154L102,81.643a4.167,4.167,0,0,1,3.734.156l3.448,1.99C110.286,84.424,110.406,85.4,109.453,85.946Z" transform="translate(-72.896 -81.273)" fill="#c5d2ef"/>
            </g>
          </g>
          <g id="Grupo_71570" data-name="Grupo 71570" transform="translate(8.719 4.415)">
            <path id="Trazado_105448" data-name="Trazado 105448" d="M78.008,82.484l-2.985,1.724a4.167,4.167,0,0,1-3.734-.154l-3.448-1.992c-1.1-.635-1.221-1.6-.268-2.154l2.985-1.724a4.167,4.167,0,0,1,3.734.154l3.448,1.99C78.841,80.965,78.961,81.934,78.008,82.484Z" transform="translate(7.345 -59.446)" fill="#c5d2ef"/>
            <path id="Trazado_105449" data-name="Trazado 105449" d="M82.251,80.035l-2.987,1.724a4.163,4.163,0,0,1-3.732-.154l-3.45-1.992c-1.1-.635-1.221-1.6-.268-2.154L74.8,75.735a4.167,4.167,0,0,1,3.734.154l3.448,1.992C83.083,78.516,83.2,79.485,82.251,80.035Z" transform="translate(11.596 -61.9)" fill="#c5d2ef"/>
            <path id="Trazado_105450" data-name="Trazado 105450" d="M86.493,77.586,83.505,79.31a4.162,4.162,0,0,1-3.732-.154l-3.45-1.99c-1.1-.637-1.221-1.606-.268-2.156l2.987-1.724a4.167,4.167,0,0,1,3.734.154l3.448,1.992C87.325,76.067,87.446,77.036,86.493,77.586Z" transform="translate(15.847 -64.354)" fill="#c5d2ef"/>
            <path id="Trazado_105451" data-name="Trazado 105451" d="M90.735,75.137l-2.987,1.724a4.163,4.163,0,0,1-3.732-.154l-3.45-1.992c-1.1-.635-1.221-1.6-.268-2.154l2.987-1.724a4.163,4.163,0,0,1,3.732.154l3.45,1.99C91.568,73.618,91.688,74.587,90.735,75.137Z" transform="translate(20.097 -66.808)" fill="#c5d2ef"/>
            <path id="Trazado_105452" data-name="Trazado 105452" d="M85.084,71.194,80.915,73.6a2.747,2.747,0,0,1-2.461-.1l-1.363-.789c-.725-.418-.8-1.057-.176-1.42l4.166-2.407a2.751,2.751,0,0,1,2.463.1l1.363.787C85.632,70.191,85.713,70.831,85.084,71.194Z" transform="translate(16.927 -68.639)" fill="#c5d2ef"/>
            <path id="Trazado_105453" data-name="Trazado 105453" d="M80.842,73.643l-4.166,2.4a2.744,2.744,0,0,1-2.463-.1l-1.361-.789c-.727-.418-.807-1.057-.178-1.42l4.168-2.407a2.747,2.747,0,0,1,2.461.1l1.363.787C81.39,72.64,81.47,73.28,80.842,73.643Z" transform="translate(12.676 -66.185)" fill="#c5d2ef"/>
            <path id="Trazado_105454" data-name="Trazado 105454" d="M76.6,76.092,72.433,78.5a2.741,2.741,0,0,1-2.461-.1l-1.363-.787c-.727-.418-.8-1.057-.178-1.42L72.6,73.781a2.747,2.747,0,0,1,2.461.1l1.363.787C77.148,75.089,77.228,75.729,76.6,76.092Z" transform="translate(8.425 -63.731)" fill="#c5d2ef"/>
            <path id="Trazado_105455" data-name="Trazado 105455" d="M72.357,78.541,68.19,80.947a2.747,2.747,0,0,1-2.461-.1l-1.363-.789c-.725-.418-.8-1.057-.176-1.42l4.166-2.407a2.747,2.747,0,0,1,2.461.1l1.363.787C72.907,77.538,72.986,78.178,72.357,78.541Z" transform="translate(4.175 -61.276)" fill="#c5d2ef"/>
            <path id="Trazado_105456" data-name="Trazado 105456" d="M68.117,80.99,63.948,83.4a2.741,2.741,0,0,1-2.461-.1l-1.363-.787c-.725-.418-.8-1.057-.176-1.42l4.166-2.407a2.751,2.751,0,0,1,2.463.1l1.363.787C68.665,79.987,68.746,80.627,68.117,80.99Z" transform="translate(-0.076 -58.822)" fill="#c5d2ef"/>
            <path id="Trazado_105457" data-name="Trazado 105457" d="M63.875,83.439l-4.168,2.4a2.734,2.734,0,0,1-2.461-.1l-1.363-.787c-.725-.418-.8-1.057-.176-1.42l4.168-2.407a2.747,2.747,0,0,1,2.461.1l1.363.787C64.423,82.436,64.5,83.076,63.875,83.439Z" transform="translate(-4.327 -56.368)" fill="#c5d2ef"/>
            <path id="Trazado_105458" data-name="Trazado 105458" d="M59.632,85.888l-4.166,2.4a2.744,2.744,0,0,1-2.463-.1L51.642,87.4c-.727-.418-.8-1.057-.178-1.42l4.168-2.407a2.747,2.747,0,0,1,2.461.1l1.363.787C60.181,84.885,60.261,85.525,59.632,85.888Z" transform="translate(-8.578 -53.914)" fill="#c5d2ef"/>
            <path id="Trazado_105459" data-name="Trazado 105459" d="M55.39,88.337l-4.166,2.407a2.741,2.741,0,0,1-2.461-.1L47.4,89.852c-.727-.418-.8-1.057-.176-1.419l4.166-2.407a2.747,2.747,0,0,1,2.461.1l1.363.787C55.939,87.334,56.019,87.974,55.39,88.337Z" transform="translate(-12.829 -51.46)" fill="#c5d2ef"/>
            <path id="Trazado_105460" data-name="Trazado 105460" d="M51.15,90.786l-4.168,2.407a2.747,2.747,0,0,1-2.461-.1L43.157,92.3c-.725-.418-.8-1.057-.176-1.42l4.166-2.407a2.747,2.747,0,0,1,2.461.1l1.363.787C51.7,89.783,51.777,90.421,51.15,90.786Z" transform="translate(-17.079 -49.005)" fill="#c5d2ef"/>
            <path id="Trazado_105461" data-name="Trazado 105461" d="M46.908,93.235l-4.168,2.407a2.741,2.741,0,0,1-2.461-.1l-1.363-.787c-.725-.418-.8-1.057-.176-1.42l4.168-2.407a2.747,2.747,0,0,1,2.461.1l1.363.787C47.456,92.232,47.537,92.872,46.908,93.235Z" transform="translate(-21.33 -46.551)" fill="#c5d2ef"/>
            <path id="Trazado_105462" data-name="Trazado 105462" d="M42.666,95.684,38.5,98.09a2.747,2.747,0,0,1-2.461-.1L34.673,97.2c-.725-.418-.8-1.057-.176-1.42l4.168-2.407a2.747,2.747,0,0,1,2.461.1l1.363.787C43.214,94.681,43.295,95.321,42.666,95.684Z" transform="translate(-25.581 -44.097)" fill="#c5d2ef"/>
            <path id="Trazado_105463" data-name="Trazado 105463" d="M38.423,98.133l-4.166,2.407a2.747,2.747,0,0,1-2.461-.1l-1.363-.789c-.727-.418-.8-1.057-.178-1.42l4.168-2.407a2.747,2.747,0,0,1,2.461.1l1.363.787C38.972,97.13,39.052,97.77,38.423,98.133Z" transform="translate(-29.832 -41.643)" fill="#c5d2ef"/>
          </g>
          <path id="Trazado_105464" data-name="Trazado 105464" d="M120.486,106.951l-26.332,15.2a6.724,6.724,0,0,1-6.03-.25l-13.454-7.768c-1.778-1.025-1.972-2.593-.432-3.48l26.332-15.2a6.724,6.724,0,0,1,6.03.25l13.454,7.768C121.832,104.5,122.026,106.064,120.486,106.951Z" transform="translate(22.345 -37.954)" fill="#1e36ba"/>
          <path id="Trazado_105465" data-name="Trazado 105465" d="M36.362,107.273l-7.456-4.3a1.691,1.691,0,0,1-.7-1.343h0c0-.517.316-.757.7-.533l7.456,4.3a1.688,1.688,0,0,1,.7,1.345h0C37.066,107.257,36.75,107.5,36.362,107.273Z" transform="translate(-22.745 -31.786)" fill="#fff"/>
          <path id="Trazado_105466" data-name="Trazado 105466" d="M41.87,110.509l-7.456-4.3a1.691,1.691,0,0,1-.7-1.345h0c0-.517.316-.755.7-.533l7.456,4.3a1.7,1.7,0,0,1,.7,1.345h0C42.572,110.5,42.256,110.733,41.87,110.509Z" transform="translate(-17.228 -28.542)" fill="#fff"/>
          <path id="Trazado_105467" data-name="Trazado 105467" d="M58.561,120.151l-7.456-4.3a1.7,1.7,0,0,1-.7-1.345h0c0-.515.318-.755.7-.531l7.456,4.3a1.692,1.692,0,0,1,.7,1.343h0C59.265,120.135,58.947,120.375,58.561,120.151Z" transform="translate(-0.501 -18.881)" fill="#fff"/>
        </g>
        <path id="Trazado_105468" data-name="Trazado 105468" d="M133.071,18.835l-3.446-1.98,0,0a2.222,2.222,0,0,0-2.473.09L24.776,76.052c-1.972,1.139-3.586,4.224-3.586,6.855v85.985a3.227,3.227,0,0,0,1.169,2.831l0,.012,3.69,2.12L27.9,169.8l99.249-57.3c1.972-1.139,3.586-4.224,3.586-6.855V21.378c.713.458,1.269.809,1.311.809C132.166,22.187,133.071,18.835,133.071,18.835Z" transform="translate(-21.19 -16.527)" fill="#1e36ba"/>
        <path id="Trazado_105469" data-name="Trazado 105469" d="M26.631,172.672,129,113.569c1.974-1.139,3.588-4.224,3.588-6.855V20.729c0-2.631-1.614-3.85-3.588-2.711L26.631,77.121c-1.972,1.139-3.588,4.224-3.588,6.855v85.985C23.043,172.592,24.659,173.811,26.631,172.672Z" transform="translate(-19.333 -15.461)" fill="#2199d8"/>
        <path id="Trazado_105470" data-name="Trazado 105470" d="M27.015,170.228,127.732,112.08c1.94-1.121,3.53-4.156,3.53-6.743V21.354c0-2.589-1.59-3.788-3.53-2.669L27.015,76.835c-1.94,1.119-3.53,4.154-3.53,6.743v83.981C23.485,170.148,25.075,171.349,27.015,170.228Z" transform="translate(-18.89 -14.785)" fill="#1565c0"/>
        <path id="Trazado_105471" data-name="Trazado 105471" d="M91.169,32.279,25.1,70.424v78.47l66.069-38.145Z" transform="translate(-17.272 -0.741)" fill="#fff"/>
        <path id="Trazado_105472" data-name="Trazado 105472" d="M58.1,42.463v78.47l35.24-20.346V22.117Z" transform="translate(15.798 -10.925)" fill="#26aab7"/>
        <path id="Trazado_105473" data-name="Trazado 105473" d="M58.1,42.463V55.914L93.34,35.568V22.117Z" transform="translate(15.798 -10.925)" fill="#ffaf04"/>
        <path id="Trazado_105474" data-name="Trazado 105474" d="M49.682,36.476c0,.929.565,1.355,1.261.953A3.015,3.015,0,0,0,52.2,35.021c0-.929-.565-1.355-1.261-.953A3.018,3.018,0,0,0,49.682,36.476Z" transform="translate(7.363 0.899)" fill="#fff"/>
        <path id="Trazado_105475" data-name="Trazado 105475" d="M52.746,34.363c0,.753.456,1.1,1.021.773a2.445,2.445,0,0,0,1.021-1.952c0-.751-.456-1.1-1.021-.771A2.442,2.442,0,0,0,52.746,34.363Z" transform="translate(10.433 -0.731)" fill="#fff"/>
        <g id="Grupo_71572" data-name="Grupo 71572" transform="translate(3.139 34.209)">
          <path id="Trazado_105476" data-name="Trazado 105476" d="M23.159,53.112a.168.168,0,0,1,.336,0c.186,3.762.016,7.548.062,11.314s.012,7.56-.2,11.306c-.012.238-.4.4-.4-.1C22.961,68.732,22.392,60.325,23.159,53.112Z" transform="translate(-22.758 -14.235)" fill="#fff"/>
          <path id="Trazado_105477" data-name="Trazado 105477" d="M26.663,52.476c2.725-2.02,14.974-9.112,19.583-11.54.709-.374,1.041-.214.334.334A170.785,170.785,0,0,1,26.943,52.957C26.679,53.067,26.231,52.8,26.663,52.476Z" transform="translate(-19.024 -26.479)" fill="#fff"/>
          <path id="Trazado_105478" data-name="Trazado 105478" d="M39.033,45.357c2.727-2.02,14.976-9.112,19.585-11.54.709-.374,1.041-.214.334.334A170.615,170.615,0,0,1,39.316,45.838C39.052,45.948,38.6,45.677,39.033,45.357Z" transform="translate(-6.626 -33.613)" fill="#fff"/>
          <path id="Trazado_105479" data-name="Trazado 105479" d="M97.3,115.623c-6.4,3.1-13.022,8.553-20.646,9.4-4.447.495-8.059-1.8-11.825-3.824-3.235-1.742-6.367-3.7-9.648-5.354a.075.075,0,0,0-.076.128,110.212,110.212,0,0,0,11.322,7.057c3.257,1.828,6.7,3.3,10.515,2.955,6.5-.591,15.064-5.752,20.524-10.149C97.6,115.733,97.427,115.561,97.3,115.623Z" transform="translate(9.624 48.557)" fill="#fff"/>
        </g>
        <g id="Grupo_71573" data-name="Grupo 71573" transform="translate(78.886 83.354)">
          <path id="Trazado_105480" data-name="Trazado 105480" d="M72.013,58.159,60.591,64.754v1.785l11.422-6.595Z" transform="translate(-60.591 -58.159)" fill="#fff"/>
          <path id="Trazado_105481" data-name="Trazado 105481" d="M72.013,59.8,60.591,66.4V68.18l11.422-6.595Z" transform="translate(-60.591 -56.515)" fill="#fff"/>
          <path id="Trazado_105482" data-name="Trazado 105482" d="M72.013,61.441,60.591,68.036v1.785l11.422-6.595Z" transform="translate(-60.591 -54.871)" fill="#fff"/>
          <path id="Trazado_105483" data-name="Trazado 105483" d="M72.013,63.082,60.591,69.677v1.785l11.422-6.595Z" transform="translate(-60.591 -53.227)" fill="#fff"/>
        </g>
        <g id="Grupo_71574" data-name="Grupo 71574" transform="translate(93.206 74.974)">
          <path id="Trazado_105484" data-name="Trazado 105484" d="M79.166,53.974,67.744,60.569v1.785l11.423-6.595Z" transform="translate(-67.744 -53.974)" fill="#fff"/>
          <path id="Trazado_105485" data-name="Trazado 105485" d="M79.166,55.615,67.744,62.21v1.785L79.166,57.4Z" transform="translate(-67.744 -52.33)" fill="#fff"/>
          <path id="Trazado_105486" data-name="Trazado 105486" d="M79.166,57.256,67.744,63.85v1.785l11.423-6.595Z" transform="translate(-67.744 -50.686)" fill="#fff"/>
          <path id="Trazado_105487" data-name="Trazado 105487" d="M79.166,58.9,67.744,65.491v1.785l11.423-6.595Z" transform="translate(-67.744 -49.041)" fill="#fff"/>
        </g>
        <path id="Trazado_105488" data-name="Trazado 105488" d="M90.556,50.507,59.062,68.371v3.353L90.556,53.86Z" transform="translate(16.763 17.525)" fill="#261822"/>
        <path id="Trazado_105489" data-name="Trazado 105489" d="M40.568,65.579c0,2.284,1.389,3.336,3.1,2.346a7.431,7.431,0,0,0,3.1-5.93c0-2.284-1.389-3.336-3.1-2.346A7.437,7.437,0,0,0,40.568,65.579Z" transform="translate(-1.771 26.314)" fill="#261822"/>
        <path id="Trazado_105490" data-name="Trazado 105490" d="M53.094,71.224A17.777,17.777,0,0,0,59.665,63.4l13.316,4.034c-4.469,10.769-11.71,20.278-19.887,25-9.578,5.53-17.871,3.009-21.929-5.308L45.71,69.973C47.238,72.4,49.969,73.028,53.094,71.224Z" transform="translate(-11.194 30.448)" fill="#ff9201"/>
        <path id="Trazado_105491" data-name="Trazado 105491" d="M45.746,82.682a12.412,12.412,0,0,0,.38,3.169L31.587,103a32.819,32.819,0,0,1-1.748-11.13c0-17.717,10.541-38.227,23.715-46.445L53.4,66.777C49.093,69.94,45.746,76.753,45.746,82.682Z" transform="translate(-12.523 12.429)" fill="#ff7f00"/>
        <path id="Trazado_105492" data-name="Trazado 105492" d="M50.2,74.4c0-5.854-3.263-8.8-7.5-7.122l.15-21.369c12.958-6.559,23.255,1.8,23.255,19.306a56.837,56.837,0,0,1-3.484,18.83l-13.32-4.036A19.522,19.522,0,0,0,50.2,74.4Z" transform="translate(0.374 10.689)" fill="#ffaf04"/>
        <g id="Grupo_71577" data-name="Grupo 71577" transform="translate(78.189 26.921)">
          <g id="Grupo_71575" data-name="Grupo 71575">
            <path id="Trazado_105493" data-name="Trazado 105493" d="M87.379,67.387,60.243,83.055V45.64L87.379,29.973Z" transform="translate(-60.243 -29.973)" fill="#fff"/>
          </g>
          <g id="Grupo_71576" data-name="Grupo 71576" transform="translate(0 36.084)">
            <path id="Trazado_105498" data-name="Trazado 105498" d="M87.379,49.326,60.243,64.993v-1.33L87.379,48Z" transform="translate(-60.243 -47.996)" fill="#261822"/>
          </g>
        </g>
        <g id="Grupo_71582" data-name="Grupo 71582" transform="translate(40.893 88.299)">
          <g id="Grupo_71579" data-name="Grupo 71579" transform="translate(43.063 24.268)">
            <path id="Trazado_105509" data-name="Trazado 105509" d="M63.124,73.313l12.689.526,12.5,6.095v1.125l-11.486.169Z" transform="translate(-63.124 -72.188)" fill="#ff9201"/>
            <path id="Trazado_105510" data-name="Trazado 105510" d="M63.124,72.751l12.689.526,12.5,7.22-11.486.169Z" transform="translate(-63.124 -72.751)" fill="#ffaf04"/>
          </g>
          <g id="Grupo_71580" data-name="Grupo 71580">
            <path id="Trazado_105511" data-name="Trazado 105511" d="M97.709,91.781,44.146,60.794a.706.706,0,0,0-.162-.1h0a.97.97,0,0,0-.9.1,3.53,3.53,0,0,0-1.472,2.815,1.366,1.366,0,0,0,.446,1.147L96.085,95.954Z" transform="translate(-41.615 -60.63)" fill="#3a2934"/>
            <path id="Trazado_105512" data-name="Trazado 105512" d="M68.549,79.171c0,1.085.659,1.584,1.472,1.113a3.532,3.532,0,0,0,1.474-2.815c0-1.083-.661-1.582-1.474-1.113A3.53,3.53,0,0,0,68.549,79.171Z" transform="translate(-14.624 -45.047)" fill="#261822"/>
          </g>
          <path id="Trazado_105513" data-name="Trazado 105513" d="M61.776,74.091l.911,7.326,12.505,7.22.292-6.632Z" transform="translate(-21.411 -47.14)" fill="#ffaf04"/>
          <g id="Grupo_71581" data-name="Grupo 71581" transform="translate(40.364 25.826)">
            <path id="Trazado_105514" data-name="Trazado 105514" d="M61.776,73.529l.911,7.326,12.505,7.22.292-6.632Z" transform="translate(-61.776 -73.529)" fill="#ffaf04"/>
            <path id="Trazado_105515" data-name="Trazado 105515" d="M74.736,84.408v1.125l-12.505-7.22V77.188Z" transform="translate(-61.32 -69.862)" fill="#ff9201"/>
            <path id="Trazado_105516" data-name="Trazado 105516" d="M61.776,73.529v1.125l.911,7.326V80.855Z" transform="translate(-61.776 -73.529)" fill="#ff7f00"/>
            <path id="Trazado_105517" data-name="Trazado 105517" d="M68.769,78.607V77.482l-.292,6.632v1.125Z" transform="translate(-55.061 -69.568)" fill="#ff7f00"/>
          </g>
        </g>
      </g>
      <g id="Grupo_71588" data-name="Grupo 71588" transform="translate(194.047 113.138)">
        <path id="Trazado_105518" data-name="Trazado 105518" d="M108.084,64.691c-1.882,1.063,1.562,4.17,2.108,9.454s-1.788,21.881-.6,30.23,4.929,14.65,9.456,21.343c4.144,6.127,5.74,9.526,4.921,17.126-.7,6.509,4.267,1.351,4.593-2.166s-3.918-10.137-7.77-16.141a55.965,55.965,0,0,1-7.846-24.188c-.591-8.487-1.968-17.935-.983-25.219S112.262,62.329,108.084,64.691Z" transform="translate(-107.527 -64.137)" fill="#3a2934"/>
        <path id="Trazado_105519" data-name="Trazado 105519" d="M119.58,82.976a20.881,20.881,0,0,0,4.341,3.53c3.137,2.068,6.261-1.784,6.261-1.784s-6.917-3.1-8.507-4.036S119.58,82.976,119.58,82.976Z" transform="translate(-95.448 -47.724)" fill="#ffc9b6"/>
        <g id="Grupo_71584" data-name="Grupo 71584" transform="translate(2.733 1.452)">
          <path id="Trazado_105520" data-name="Trazado 105520" d="M126.161,141.368a.433.433,0,0,1-.13-.022.386.386,0,0,1-.232-.495c4.208-11.716,5.724-27.141,3.772-38.377-1.1-6.325-5.412-15.875-10.988-24.332a107.076,107.076,0,0,0-9.588-12.633.385.385,0,1,1,.565-.523,107.472,107.472,0,0,1,9.666,12.731c5.632,8.539,9.989,18.2,11.1,24.624,1.974,11.358.444,26.939-3.8,38.771A.39.39,0,0,1,126.161,141.368Z" transform="translate(-108.892 -64.863)" fill="#efe8eb"/>
        </g>
        <path id="Trazado_105521" data-name="Trazado 105521" d="M118.949,79.178c-1.414.058-1.912.16-1.58,1.492a.817.817,0,0,0,.527,1.385c-.46.665-.37,1.033.352,1.217a1.379,1.379,0,0,0,1.3,1.121c.723,0,1.546.056,2.026-1.564S120.683,79.106,118.949,79.178Z" transform="translate(-97.894 -49.067)" fill="#ffc9b6"/>
        <path id="Trazado_105522" data-name="Trazado 105522" d="M124.726,83.7c0-.741-2.663-4.327-4.174-4.641-.721-.15-1.285-.232-2.2-.346-.254-.032-.737.03-1.105,1.009-.272.721-.168,1.728.368,1.44.481-.258.46-.6.7-.959.975.849,1.419.753,1.419.753a4.534,4.534,0,0,0,1.027,2.991C122.313,85.8,124.726,84.39,124.726,83.7Z" transform="translate(-97.929 -49.538)" fill="#ffc9b6"/>
        <g id="Grupo_71585" data-name="Grupo 71585" transform="translate(29.083 54.193)">
          <path id="Trazado_105523" data-name="Trazado 105523" d="M134.056,149a65.643,65.643,0,0,1,.977-8.349c1.017-5.258,2.176-12.926-1.289-16.4,3.892-9.9,2.521-15.378,1.94-18.408,5.8-6.151.276-12.643-2.517-14.64-1.474,1.822-10.259,5.424-10.311,5.646-1.061,4.519-.092,9.246,1.245,13.618.833,2.727,1.554,7.33,3.492,14.794-.9,3.712.12,9.336.5,13.538.26,2.929.172,6.257.7,9.4C129.633,149.16,131.239,150.069,134.056,149Z" transform="translate(-121.7 -91.205)" fill="#ff9201"/>
          <path id="Trazado_105524" data-name="Trazado 105524" d="M124.264,120.031c-1.988.789-2.557,1.5-2.02,2.779a6.341,6.341,0,0,0,4.561,3.406c2.673.555,4.675,4.249,7.532,1.305.731-.753.086-2.739-.166-3.782.052-.727.186-2.461.238-3.269-2.817,1.073-4.423.164-5.27-.8a19.651,19.651,0,0,0,.43,2.014C128.55,121.373,125.6,119.5,124.264,120.031Z" transform="translate(-122.053 -62.679)" fill="#ffb9a4"/>
        </g>
        <path id="Trazado_105525" data-name="Trazado 105525" d="M134.917,123.844s-1.672.6-2.747.943a5.925,5.925,0,0,1-5.63-1.434c-1.536-1.486.825-2.509.825-2.509s-2.1-2.409-4.593-1.369c-1.153.482-1.842,3.015-1.183,4.144a6.463,6.463,0,0,0,3.271,2.771,21.507,21.507,0,0,1,4.168,1.538c1.552.937,4.188,2.555,5.962.843S134.917,123.844,134.917,123.844Z" transform="translate(-93.691 -8.943)" fill="#352322"/>
        <path id="Trazado_105526" data-name="Trazado 105526" d="M132.329,78.147c-2.587-.927-5.734.547-5.862,3.2-1.424,2.413-.026,5.954,2.2,7.572,2.587,1.88,6.583-.022,7.444-2.929A6.618,6.618,0,0,0,132.329,78.147Z" transform="translate(-89.124 -50.376)" fill="#efe8eb"/>
        <g id="Grupo_71586" data-name="Grupo 71586" transform="translate(14.901 59.608)">
          <path id="Trazado_105527" data-name="Trazado 105527" d="M134.125,108.42c7.672-1.918,6.815-12.355,4.032-14.235-.234-.16-10.92-.9-11.776,1.009-2.673,5.966-5.145,10.023-7.43,16.141-.372,1-1.478,4.134-3.149,8.749a3.247,3.247,0,0,0-.414,3.786c1.606,3.838,3.269,9.278,4.6,12.72.657,1.694,2.645,6.653,4.092,10.533,1.011-.388,2.411-1.251,4.423-2.188a46,46,0,0,1-.292-6.435c0-5.654-.915-11.238-4.6-15.883C125.049,121.834,133.2,114.1,134.125,108.42Z" transform="translate(-114.969 -93.91)" fill="#ffaf04"/>
          <path id="Trazado_105528" data-name="Trazado 105528" d="M122.388,124.435a36.162,36.162,0,0,1-1.2,5.432c-.3.889-.372,1.411-1.227,1.682-1.76.106-1.844.41-2.256,1.3-.358.773,2.138,2.328,3.836,2.106.452-.058,2.5-.108,3.169-1.187.979-1.588-.09-2.981.5-4.809.667-2.052,3.34-1.972,2.539-4.158a22.013,22.013,0,0,0-1.283-2.521,12.509,12.509,0,0,1-.729-3.059c-1.888.879-3.64,1.582-4.589,1.948C121.612,122.392,122.04,123.53,122.388,124.435Z" transform="translate(-112.263 -68.55)" fill="#ffc9b6"/>
        </g>
        <path id="Trazado_105529" data-name="Trazado 105529" d="M135.733,83.271a.625.625,0,0,0-.442-.442c-3.051-.841-3.76-2.489-4.291-5.252a.626.626,0,0,0-.913-.372,19.272,19.272,0,0,1-5.109,2.224c1.71,5.105-1.387,6.2-2.733,8.225-.338.513,3.191,3.081,5.079,2.815a11.661,11.661,0,0,0,4.647-1.636C133.514,87.852,136.181,85.369,135.733,83.271Z" transform="translate(-92.8 -51.124)" fill="#ffc9b6"/>
        <path id="Trazado_105530" data-name="Trazado 105530" d="M132.205,77.306c-.286-2.627-2.439-6.129-5.388-5.906-3,.228-5.045,4.685-5.28,6.761-.4,3.528-.086,10.181,5.482,8.045C131.356,84.542,132.63,81.228,132.205,77.306Z" transform="translate(-93.606 -56.869)" fill="#ffc9b6"/>
        <path id="Trazado_105531" data-name="Trazado 105531" d="M137.95,74.508c-1.349-2.9-4.783-5.2-7.844-3.992a6.138,6.138,0,0,0-4.951-1.468c-.529.074-1.319.18-1.49.791,0,.018,0,.034,0,.052-1.347-.5-2.6-.458-3.093,1.079s.591,2.867,2.04,3.7a3.162,3.162,0,0,0-1.872.821c-.889,1.023-.27,2.741.585,3.458,1.422,1.189,3.762,2.29,5.69,1.265-.134,3.231,3.588,6.4,5.394,7.222,1.047-2.2,3.352-2.238,4.9-5.33C138.159,80.4,138.787,76.3,137.95,74.508Z" transform="translate(-94.724 -59.275)" fill="#261822"/>
        <path id="Trazado_105532" data-name="Trazado 105532" d="M123.477,75.564s2.228-1.526,2.581.645a2.693,2.693,0,0,1-1.766,2.919Z" transform="translate(-91.542 -53.209)" fill="#ffc9b6"/>
        <path id="Trazado_105533" data-name="Trazado 105533" d="M131.346,70.631c-1.846-.809-3.041-.929-4.621.254-1.634,1.225-1.035,6.291,1.6,6.893,1.7.386,3.884-.07,4.789-1.57A3.645,3.645,0,0,0,131.346,70.631Z" transform="translate(-89.196 -58.252)" fill="#ffaf04"/>
        <path id="Trazado_105534" data-name="Trazado 105534" d="M148.578,82.99a3.121,3.121,0,0,0-.112-4.13,2.9,2.9,0,0,0-2.837-.743,6.855,6.855,0,0,0-1.3-4.537c-2-2.471-5.3-2.779-8.085-1.75a3.078,3.078,0,0,0-2.01-2.779,2.639,2.639,0,0,0-2.643.635,2.612,2.612,0,0,0-4.068-.9,2.379,2.379,0,0,0,.376,3.966,2.314,2.314,0,0,0-.811,1.466,2.872,2.872,0,0,0,1.924,2.943c-1.708,1.618-.8,4.6,1.516,5.592a5.646,5.646,0,0,0,4.953-.382,3.455,3.455,0,0,0,.483,2.238,2.738,2.738,0,0,0,1.221,1.057c-1.355,1.9-.238,4.01,2.152,4.279-.13,1.968-.6,2.745.663,4.617,1.442,2.13,5.732,2.515,7.674.44a3.716,3.716,0,0,0,.941-3.53,3.763,3.763,0,0,0,.581-.164,4.508,4.508,0,0,0,2.717-2.957C152.568,85.858,150.774,83.779,148.578,82.99Z" transform="translate(-88.392 -60.123)" fill="#352322"/>
        <path id="Trazado_105535" data-name="Trazado 105535" d="M139.993,92.133c1.928-5.968.751-9.937-.955-11.889-.7-.8-2.365-2.457-4.184-.819.591,2.719-4.1,3.59-7.5,3.59-2.575,1.92-4.885,3.263-6.357,5.864-1.558,2.753-2.3,5.55,1.019,7.558-1.019,3.017.587,6.145-.3,13.863,3.1,2.465,9.078,2.439,12.379.436,2.581-1.564,3.952-3.308,3.822-5.194-.855-1.836-2.106-2.264-2.012-4.547C136.021,98.116,139.108,94.868,139.993,92.133Z" transform="translate(-95.355 -49.515)" fill="#fff"/>
        <g id="Grupo_71587" data-name="Grupo 71587" transform="translate(19.608 113.332)">
          <path id="Trazado_105536" data-name="Trazado 105536" d="M124.486,131.474c.216-1.46.216-4.485.919-5.618a7.725,7.725,0,0,1,3.428-2.815,8.371,8.371,0,0,0-2.01-2.3s-2.715,1.93-3.039,4.493-.294,5.822-2.108,6.038-.993-1.424-.993-1.424-3-1.456-3.344,1.458c-.118,1.011.32,1.834,2.078,2.651a6.106,6.106,0,0,0,2.915.575A3.857,3.857,0,0,0,124.486,131.474Z" transform="translate(-117.32 -120.743)" fill="#352322"/>
          <path id="Trazado_105537" data-name="Trazado 105537" d="M123.879,126.824c.2-1.47,4.03-2.336,2.521-4.819-.026-.042-.05-.076-.076-.114a7.725,7.725,0,0,0-3.428,2.815c-.7,1.133-.7,4.158-.919,5.618a3.857,3.857,0,0,1-2.154,3.059,4.524,4.524,0,0,0,2.731-1.081C124.176,130.9,123.675,128.294,123.879,126.824Z" transform="translate(-114.812 -119.593)" fill="#261822"/>
        </g>
        <path id="Trazado_105538" data-name="Trazado 105538" d="M133.321,83.148a16.316,16.316,0,0,0-4.11,3.207c-1.081,1.309-2.174,3.023-3.235,4.363-1.852-.138-4.453-.891-6.495-1.087-.957-.092-3.43-.134-4.3-.671-1.187-.731-.46-.875-.893-2.166-.493-1.464-.735-4.1-1.023-4.164-.537-.126-1,.7-.663,1.956.216.817-.471,1.808-.43,2.5a19.361,19.361,0,0,1-2.633-1.023c-.39-.236-.208-1.079-.306-1.4a1.078,1.078,0,0,0-1.059,1.472c-.987.495.008,2.593.258,3.1.925,1.886,3.43,1.992,5.326,2.927,3.4,1.68,3.023,1.367,6.461,2.881.723.318,5.286,2.108,6.427,2.108a21.414,21.414,0,0,0,5.448-3.1c2.685-1.84,4.277-2.537,6.032-5.438C140.054,85.43,134.893,82.223,133.321,83.148Z" transform="translate(-107.307 -45.619)" fill="#ffc9b6"/>
        <path id="Trazado_105539" data-name="Trazado 105539" d="M126.872,81.7c-3.9-1.454-7.584,3.185-8.555,6.527-1.285.893,2.27,6.6,4.01,6.653,3.388,1.7,6.935.356,8.8-3.149C132.941,88.323,130.336,82.988,126.872,81.7Z" transform="translate(-96.988 -46.816)" fill="#efe8eb"/>
        <path id="Trazado_105540" data-name="Trazado 105540" d="M118.844,84.819,117.677,86.1s-.645,1.141.661,3.263a7.163,7.163,0,0,0,3.438,2.843l1.079-.731a11.441,11.441,0,0,1-3.105-2.961A6.731,6.731,0,0,1,118.844,84.819Z" transform="translate(-97.515 -43.412)" fill="#fff"/>
      </g>
      <g id="Grupo_71593" data-name="Grupo 71593" transform="translate(127.045 193.301)">
        <g id="Grupo_71589" data-name="Grupo 71589">
          <path id="Trazado_105541" data-name="Trazado 105541" d="M109.89,129.484,97.636,118.77l14.958,5.33Z" transform="translate(-97.636 -118.77)" fill="#ff9201"/>
          <path id="Trazado_105542" data-name="Trazado 105542" d="M103.49,125.387c0,1.456.885,2.124,1.976,1.494a4.734,4.734,0,0,0,1.976-3.776c0-1.456-.885-2.124-1.976-1.494A4.731,4.731,0,0,0,103.49,125.387Z" transform="translate(-91.771 -116.162)" fill="#ffaf04"/>
        </g>
        <g id="Grupo_71590" data-name="Grupo 71590" transform="translate(55.576 30.231)">
          <path id="Trazado_105543" data-name="Trazado 105543" d="M125.395,134.432l12.689.526,12.505,6.095v1.125l-11.486.169Z" transform="translate(-125.395 -133.307)" fill="#ff9201"/>
          <path id="Trazado_105544" data-name="Trazado 105544" d="M125.395,133.87l12.689.526,12.505,7.22-11.486.169Z" transform="translate(-125.395 -133.87)" fill="#ffaf04"/>
        </g>
        <g id="Grupo_71591" data-name="Grupo 71591" transform="translate(12.512 5.964)">
          <path id="Trazado_105545" data-name="Trazado 105545" d="M159.982,152.9l-53.565-30.987a.658.658,0,0,0-.162-.094h0a.954.954,0,0,0-.895.1,3.519,3.519,0,0,0-1.474,2.813,1.364,1.364,0,0,0,.446,1.147l54.023,31.191Z" transform="translate(-103.886 -121.749)" fill="#3a2934"/>
          <path id="Trazado_105546" data-name="Trazado 105546" d="M130.82,140.29c0,1.085.659,1.584,1.472,1.113a3.525,3.525,0,0,0,1.474-2.813c0-1.085-.659-1.584-1.474-1.113A3.523,3.523,0,0,0,130.82,140.29Z" transform="translate(-76.895 -106.166)" fill="#261822"/>
        </g>
        <path id="Trazado_105547" data-name="Trazado 105547" d="M124.047,135.21l.911,7.326,12.505,7.22.292-6.632Z" transform="translate(-71.17 -102.296)" fill="#ffaf04"/>
        <g id="Grupo_71592" data-name="Grupo 71592" transform="translate(52.877 31.79)">
          <path id="Trazado_105548" data-name="Trazado 105548" d="M124.047,134.648l.911,7.326,12.505,7.22.292-6.631Z" transform="translate(-124.047 -134.648)" fill="#ffaf04"/>
          <path id="Trazado_105549" data-name="Trazado 105549" d="M137.007,145.527v1.125l-12.505-7.22v-1.125Z" transform="translate(-123.591 -130.981)" fill="#ff9201"/>
          <path id="Trazado_105550" data-name="Trazado 105550" d="M124.047,134.648v1.125l.911,7.326v-1.125Z" transform="translate(-124.047 -134.648)" fill="#ff7f00"/>
          <path id="Trazado_105551" data-name="Trazado 105551" d="M131.04,139.726V138.6l-.292,6.631v1.125Z" transform="translate(-117.332 -130.687)" fill="#ff7f00"/>
        </g>
      </g>
      <g id="Grupo_71598" data-name="Grupo 71598" transform="translate(89.546 191.295)">
        <g id="Grupo_71594" data-name="Grupo 71594">
          <path id="Trazado_105552" data-name="Trazado 105552" d="M91.16,128.482,78.907,117.769l14.958,5.33Z" transform="translate(-78.907 -117.769)" fill="#ff9201"/>
          <path id="Trazado_105553" data-name="Trazado 105553" d="M84.76,124.385c0,1.456.885,2.124,1.976,1.494a4.734,4.734,0,0,0,1.976-3.776c0-1.456-.885-2.124-1.976-1.494A4.734,4.734,0,0,0,84.76,124.385Z" transform="translate(-73.041 -115.16)" fill="#ffaf04"/>
        </g>
        <g id="Grupo_71595" data-name="Grupo 71595" transform="translate(55.576 30.231)">
          <path id="Trazado_105554" data-name="Trazado 105554" d="M106.665,133.43l12.689.526,12.505,6.095v1.125l-11.486.169Z" transform="translate(-106.665 -132.305)" fill="#ff9201"/>
          <path id="Trazado_105555" data-name="Trazado 105555" d="M106.665,132.868l12.689.526,12.505,7.22-11.486.169Z" transform="translate(-106.665 -132.868)" fill="#ffaf04"/>
        </g>
        <g id="Grupo_71596" data-name="Grupo 71596" transform="translate(12.512 5.964)">
          <path id="Trazado_105556" data-name="Trazado 105556" d="M141.252,151.9,87.689,120.911a.742.742,0,0,0-.164-.094h0a.96.96,0,0,0-.895.1,3.522,3.522,0,0,0-1.474,2.813,1.364,1.364,0,0,0,.446,1.147l54.023,31.191Z" transform="translate(-85.156 -120.748)" fill="#3a2934"/>
          <path id="Trazado_105557" data-name="Trazado 105557" d="M112.09,139.288c0,1.085.659,1.584,1.474,1.113a3.523,3.523,0,0,0,1.472-2.813c0-1.085-.659-1.584-1.472-1.113A3.522,3.522,0,0,0,112.09,139.288Z" transform="translate(-58.165 -105.165)" fill="#261822"/>
        </g>
        <path id="Trazado_105558" data-name="Trazado 105558" d="M105.317,134.208l.911,7.326,12.5,7.22.292-6.631Z" transform="translate(-52.44 -101.294)" fill="#ffaf04"/>
        <g id="Grupo_71597" data-name="Grupo 71597" transform="translate(52.877 31.789)">
          <path id="Trazado_105559" data-name="Trazado 105559" d="M105.317,133.646l.911,7.326,12.5,7.22.292-6.632Z" transform="translate(-105.317 -133.646)" fill="#ffaf04"/>
          <path id="Trazado_105560" data-name="Trazado 105560" d="M118.277,144.525v1.125l-12.5-7.22v-1.125Z" transform="translate(-104.861 -129.979)" fill="#ff9201"/>
          <path id="Trazado_105561" data-name="Trazado 105561" d="M105.317,133.646v1.125l.911,7.326v-1.125Z" transform="translate(-105.317 -133.646)" fill="#ff7f00"/>
          <path id="Trazado_105562" data-name="Trazado 105562" d="M112.31,138.724V137.6l-.292,6.632v1.125Z" transform="translate(-98.602 -129.685)" fill="#ff7f00"/>
        </g>
      </g>
      <g id="Grupo_71603" data-name="Grupo 71603" transform="translate(96.007 203.781)">
        <g id="Grupo_71599" data-name="Grupo 71599">
          <path id="Trazado_105563" data-name="Trazado 105563" d="M94.387,134.719,82.134,124l14.958,5.33Z" transform="translate(-82.134 -124.005)" fill="#ff9201"/>
          <path id="Trazado_105564" data-name="Trazado 105564" d="M87.987,130.62c0,1.456.885,2.124,1.976,1.5a4.734,4.734,0,0,0,1.978-3.778c0-1.454-.885-2.122-1.978-1.494A4.734,4.734,0,0,0,87.987,130.62Z" transform="translate(-76.268 -121.396)" fill="#ffaf04"/>
        </g>
        <g id="Grupo_71600" data-name="Grupo 71600" transform="translate(55.576 30.231)">
          <path id="Trazado_105565" data-name="Trazado 105565" d="M109.892,139.666l12.689.526,12.505,6.095v1.125l-11.486.169Z" transform="translate(-109.892 -138.542)" fill="#ff9201"/>
          <path id="Trazado_105566" data-name="Trazado 105566" d="M109.892,139.1l12.689.526,12.505,7.22-11.486.169Z" transform="translate(-109.892 -139.105)" fill="#ffaf04"/>
        </g>
        <g id="Grupo_71601" data-name="Grupo 71601" transform="translate(12.512 5.963)">
          <path id="Trazado_105567" data-name="Trazado 105567" d="M144.479,158.136,90.916,127.147a.742.742,0,0,0-.164-.094h0a.96.96,0,0,0-.895.1,3.531,3.531,0,0,0-1.474,2.815,1.366,1.366,0,0,0,.446,1.147l54.025,31.191Z" transform="translate(-88.383 -126.984)" fill="#3a2934"/>
          <path id="Trazado_105568" data-name="Trazado 105568" d="M115.317,145.525c0,1.083.659,1.582,1.474,1.113a3.53,3.53,0,0,0,1.472-2.815c0-1.083-.659-1.582-1.472-1.113A3.526,3.526,0,0,0,115.317,145.525Z" transform="translate(-61.392 -111.4)" fill="#261822"/>
        </g>
        <path id="Trazado_105569" data-name="Trazado 105569" d="M108.544,140.445l.911,7.326,12.5,7.22.292-6.632Z" transform="translate(-55.667 -107.53)" fill="#ffaf04"/>
        <g id="Grupo_71602" data-name="Grupo 71602" transform="translate(52.877 31.79)">
          <path id="Trazado_105570" data-name="Trazado 105570" d="M108.544,139.883l.911,7.326,12.5,7.22.292-6.632Z" transform="translate(-108.544 -139.883)" fill="#ffaf04"/>
          <path id="Trazado_105571" data-name="Trazado 105571" d="M121.5,150.762v1.125l-12.5-7.22v-1.125Z" transform="translate(-108.088 -136.216)" fill="#ff9201"/>
          <path id="Trazado_105572" data-name="Trazado 105572" d="M108.544,139.883v1.125l.911,7.326v-1.125Z" transform="translate(-108.544 -139.883)" fill="#ff7f00"/>
          <path id="Trazado_105573" data-name="Trazado 105573" d="M115.537,144.961v-1.125l-.292,6.632v1.125Z" transform="translate(-101.829 -135.922)" fill="#ff7f00"/>
        </g>
      </g>
    </g>
  </g>
</svg>
