<svg id="Grupo_71632" data-name="Grupo 71632" xmlns="http://www.w3.org/2000/svg" width="324.366" height="239" viewBox="0 0 324.366 239">
  <g id="Grupo_71630" data-name="Grupo 71630" transform="translate(0 0)">
    <g id="Grupo_71619" data-name="Grupo 71619">
      <g id="Grupo_71612" data-name="Grupo 71612" transform="translate(44.947 147.829)">
        <g id="Grupo_71610" data-name="Grupo 71610" transform="translate(1.362)">
          <path id="Trazado_105598" data-name="Trazado 105598" d="M466.393,114.429l-48.542,27.9a12.19,12.19,0,0,0,1.055,6.779c2.177,3.841,9.153,6.537,9.153,6.537l20.566,10.241,44.22-25.46,2.858,1.649v-3.295l-24.21-13.977A11.148,11.148,0,0,1,466.393,114.429Z" transform="translate(-417.789 -83.335)" fill="#1565c0"/>
          <path id="Trazado_105599" data-name="Trazado 105599" d="M477.292,125.063c2.461-6.236,9.744-26.356,9.817-26.559l-2.684-.97c-.037.1-1.953,5.395-4.145,11.374-8.985,5.382-45.7,26.581-45.7,26.581s-3.922,9.749-5.111,13.519a35.036,35.036,0,0,0-1.529,7.522l48.542-27.9A12.168,12.168,0,0,1,477.292,125.063Z" transform="translate(-427.877 -97.535)" fill="#1565c0"/>
        </g>
        <g id="Grupo_71611" data-name="Grupo 71611" transform="translate(0 27.103)">
          <path id="Trazado_105600" data-name="Trazado 105600" d="M475.566,167.71l-24.208-13.979c-3.918-2.26-6.593-8.093-4.288-13.94,2.459-6.236,9.744-26.356,9.817-26.559l-2.683-.972c-.074.2-7.344,20.284-9.788,26.485-2.869,7.277.55,14.592,5.514,17.457L475.566,171Z" transform="translate(-443.368 -112.261)" fill="#0d4e98"/>
        </g>
        <path id="Trazado_105601" data-name="Trazado 105601" d="M464.867,127.661l-47.077,27.105v3.295l47.077-27.1Z" transform="translate(-385.591 -72.214)" fill="#0d4e98"/>
      </g>
      <g id="Grupo_71616" data-name="Grupo 71616">
        <g id="Grupo_71613" data-name="Grupo 71613" transform="translate(3.834 2.291)">
          <path id="Trazado_105602" data-name="Trazado 105602" d="M391.009,241.677V116.214L560.687,18.461V143.924Z" transform="translate(-391.009 -18.461)" fill="#2643a2"/>
          <path id="Trazado_105603" data-name="Trazado 105603" d="M558.9,142l-167.135,96.5V116.115L558.9,19.619Z" transform="translate(-390.604 -17.487)" fill="#1565c0"/>
          <path id="Trazado_105604" data-name="Trazado 105604" d="M555.925,126.309l-162.9,94.053V115.994l162.9-94.053Z" transform="translate(-389.948 -15.535)" fill="#fff"/>
          <path id="Trazado_105605" data-name="Trazado 105605" d="M395.2,103.92,517.193,33.487v80.432L395.2,184.352Z" transform="translate(-355.228 -5.831)" fill="#c5d2ef"/>
          <path id="Trazado_105606" data-name="Trazado 105606" d="M396.811,79.291,435.421,57V90.355l-38.61,22.292Z" transform="translate(-276.423 13.931)" fill="#1565c0"/>
          <path id="Trazado_105607" data-name="Trazado 105607" d="M396.811,57.528l4.485-2.589v1.947l-4.485,2.589Z" transform="translate(-242.297 12.2)" fill="#fff"/>
          <path id="Trazado_105608" data-name="Trazado 105608" d="M400.007,59.358l4.485-2.589v1.947L400.007,61.3Z" transform="translate(-251.374 13.737)" fill="#ffaf04"/>
          <path id="Trazado_105609" data-name="Trazado 105609" d="M403.153,61.207l4.485-2.589v1.947l-4.485,2.589Z" transform="translate(-260.31 15.292)" fill="#ff9201"/>
        </g>
        <g id="Grupo_71614" data-name="Grupo 71614" transform="translate(84.585 156.378)">
          <path id="Trazado_105610" data-name="Trazado 105610" d="M431.928,117.973c-1.264,0-2.623-1.02-2.623-3.26a6.883,6.883,0,0,1,2.96-5.553l11.33-6.541a3.064,3.064,0,0,1,1.529-.44c1.263,0,2.623,1.02,2.623,3.261a6.883,6.883,0,0,1-2.961,5.551l-11.33,6.541a3.039,3.039,0,0,1-1.528.44Z" transform="translate(-429.305 -102.18)" fill="#fff"/>
          <path id="Trazado_105611" data-name="Trazado 105611" d="M432.317,115.957l11.328-6.541a5.685,5.685,0,0,0,2.367-4.518h0c0-1.736-1.066-2.54-2.367-1.789l-11.328,6.541a5.684,5.684,0,0,0-2.365,4.518h0C429.952,115.9,431.016,116.708,432.317,115.957Z" transform="translate(-428.761 -101.636)" fill="#1565c0"/>
        </g>
        <path id="Trazado_105612" data-name="Trazado 105612" d="M487.033,72.583,483.2,70.371V195.834l3.834,2.212Z" transform="translate(-483.199 27.462)" fill="#0d4e98"/>
        <path id="Trazado_105613" data-name="Trazado 105613" d="M564.521,19.507l-4.062-2.291L391.009,115.048l3.834,2.212Z" transform="translate(-391.009 -17.216)" fill="#124b9a"/>
        <g id="Grupo_71615" data-name="Grupo 71615" transform="translate(3.575 66.291)">
          <path id="Trazado_105614" data-name="Trazado 105614" d="M483.287,72.827a.19.19,0,0,1,.379,0c.212,4.268.018,8.562.072,12.834s.013,8.579-.226,12.826c-.015.269-.451.451-.451-.12C483.061,90.547,482.415,81.009,483.287,72.827Z" transform="translate(-482.831 -36.919)" fill="#fff"/>
          <path id="Trazado_105615" data-name="Trazado 105615" d="M482.968,88.313c.02-.175.3-.247.328-.044a91.919,91.919,0,0,1,.087,11.074c-.031.21-.447.578-.458-.153C482.9,97.788,482.76,90.17,482.968,88.313Z" transform="translate(-482.625 -23.889)" fill="#fff"/>
          <path id="Trazado_105616" data-name="Trazado 105616" d="M468.65,76.052c3.092-2.29,16.988-10.334,22.215-13.092.8-.423,1.182-.241.381.381-3.976,3.087-18.735,11.77-22.278,13.257C468.671,76.724,468.161,76.415,468.65,76.052Z" transform="translate(-464.279 -45.251)" fill="#fff"/>
          <path id="Trazado_105617" data-name="Trazado 105617" d="M452.358,66.554c3.092-2.29,16.988-10.334,22.215-13.09.8-.425,1.182-.243.381.379-3.976,3.088-18.735,11.77-22.278,13.257C452.379,67.226,451.869,66.919,452.358,66.554Z" transform="translate(-418.001 -53.234)" fill="#fff"/>
        </g>
      </g>
      <g id="Grupo_71618" data-name="Grupo 71618" transform="translate(6.906 8.697)">
        <path id="Trazado_105618" data-name="Trazado 105618" d="M393.02,130.405l162.9-94.053V21.941L393.02,115.995Z" transform="translate(-393.02 -21.941)" fill="#352322"/>
        <path id="Trazado_105619" data-name="Trazado 105619" d="M417.972,50.581l19.4-11.2V37.664l-19.4,11.2Z" transform="translate(-320.392 -8.726)" fill="#fff"/>
        <path id="Trazado_105620" data-name="Trazado 105620" d="M417.972,45.915l11.123-6.422v1.716l-11.123,6.422Z" transform="translate(-312.115 -7.188)" fill="#fff"/>
        <path id="Trazado_105621" data-name="Trazado 105621" d="M417.972,50.949l16.672-9.626v1.716l-16.672,9.626Z" transform="translate(-317.664 -5.651)" fill="#fff"/>
        <path id="Trazado_105630" data-name="Trazado 105630" d="M417.974,49.468l-2.282,1.318V36.318L417.974,35Z" transform="translate(-296.798 -10.965)" fill="#fff"/>
        <path id="Trazado_105631" data-name="Trazado 105631" d="M433.254,54.122l13.18-7.609v1.716l-13.18,7.609Z" transform="translate(-357.581 -1.289)" fill="#fff"/>
        <path id="Trazado_105632" data-name="Trazado 105632" d="M433.254,57.34l15.558-9v1.716l-15.558,9Z" transform="translate(-359.959 0.249)" fill="#fff"/>
        <path id="Trazado_105633" data-name="Trazado 105633" d="M433.254,59.8l16.672-9.626v1.716l-16.672,9.625Z" transform="translate(-361.073 1.786)" fill="#fff"/>
        <path id="Trazado_105634" data-name="Trazado 105634" d="M433.256,58.317l-2.283,1.318V45.166l2.283-1.318Z" transform="translate(-340.206 -3.528)" fill="#fff"/>
        <path id="Trazado_105635" data-name="Trazado 105635" d="M448.548,68.291l19.4-11.2V55.374l-19.4,11.2Z" transform="translate(-407.243 6.16)" fill="#fff"/>
        <path id="Trazado_105636" data-name="Trazado 105636" d="M448.548,63.626,459.671,57.2V58.92l-11.123,6.422Z" transform="translate(-398.966 7.697)" fill="#fff"/>
        <path id="Trazado_105637" data-name="Trazado 105637" d="M448.548,68.659l16.672-9.626v1.716l-16.672,9.626Z" transform="translate(-404.516 9.235)" fill="#fff"/>
        <path id="Trazado_105638" data-name="Trazado 105638" d="M448.55,67.179,446.268,68.5V54.028l2.283-1.318Z" transform="translate(-383.649 3.921)" fill="#fff"/>
        <path id="Trazado_105639" data-name="Trazado 105639" d="M463.83,71.832l13.18-7.61v1.716l-13.18,7.61Z" transform="translate(-444.433 13.597)" fill="#fff"/>
        <path id="Trazado_105640" data-name="Trazado 105640" d="M463.83,75.05l15.558-9v1.716l-15.558,9Z" transform="translate(-446.811 15.134)" fill="#fff"/>
        <path id="Trazado_105641" data-name="Trazado 105641" d="M463.83,77.507,480.5,67.882V69.6L463.83,79.223Z" transform="translate(-447.925 16.672)" fill="#fff"/>
        <path id="Trazado_105642" data-name="Trazado 105642" d="M463.832,76.027l-2.283,1.318V62.877l2.283-1.318Z" transform="translate(-427.058 11.358)" fill="#fff"/>
      </g>
    </g>
    <g id="Grupo_71622" data-name="Grupo 71622" transform="translate(51.202 67.155)">
      <g id="Grupo_71620" data-name="Grupo 71620" transform="translate(0 0)">
        <path id="Trazado_105643" data-name="Trazado 105643" d="M427.434,96.392c0-2.763,1.7-6,3.766-7.2l28.533-16.474V68.913a7.828,7.828,0,0,1,3.256-6.221l14.921-8.614a2.055,2.055,0,0,1,2.106-.153l.007-.017,2.68,1.577-.876,2.586-.663-.434v42.893c0,2.761-1.7,6-3.766,7.2l-45.019,25.99-1.426,2.135-2.387-1.379-.029-.017,0,0h0a3.537,3.537,0,0,1-1.1-2.9Z" transform="translate(-427.434 -53.703)" fill="#ff9201"/>
        <path id="Trazado_105644" data-name="Trazado 105644" d="M430.707,89.971,459.242,73.5V69.689a7.826,7.826,0,0,1,3.254-6.221l14.921-8.614c1.791-1.034,3.256.074,3.256,2.461v43.992c0,2.763-1.7,6-3.768,7.2l-46.2,26.673c-2.071,1.2-3.766-.086-3.766-2.847V97.167C426.941,94.4,428.636,91.167,430.707,89.971Z" transform="translate(-424.497 -53.061)" fill="#ffaf04"/>
      </g>
      <path id="Trazado_105655" data-name="Trazado 105655" d="M445.584,68.193l-15.4,8.888v25.079l15.4-8.889Z" transform="translate(-395.384 -41.523)" fill="#fff"/>
      <path id="Trazado_105656" data-name="Trazado 105656" d="M455.763,86.583l-15.4,8.888v1.587l15.4-8.889Z" transform="translate(-424.3 -26.067)" fill="#352322"/>
      <path id="Trazado_105657" data-name="Trazado 105657" d="M440.368,90.545l12.514-7.225v1.587l-12.514,7.225Z" transform="translate(-421.419 -28.81)" fill="#352322"/>
      <path id="Trazado_105658" data-name="Trazado 105658" d="M440.368,82.683l12.514-7.225v1.587L440.368,84.27Z" transform="translate(-421.419 -35.418)" fill="#352322"/>
      <path id="Trazado_105659" data-name="Trazado 105659" d="M440.368,86.276l15.966-9.21v1.587l-15.966,9.21Z" transform="translate(-424.871 -34.067)" fill="#352322"/>
      <path id="Trazado_105660" data-name="Trazado 105660" d="M460.771,85.017l-20.4,11.8v1.587l20.4-11.8Z" transform="translate(-429.308 -27.383)" fill="#352322"/>
      <path id="Trazado_105661" data-name="Trazado 105661" d="M460.771,73.784l-20.4,11.8v1.587l20.4-11.8Z" transform="translate(-429.308 -36.825)" fill="#352322"/>
      <path id="Trazado_105662" data-name="Trazado 105662" d="M434.907,91.177v-2.6c-1.263-.591-2.107-2.413-2.126-5.043a1.912,1.912,0,0,1-1.741-.718c1-1.8,1.353-4.87,1.787-6.064a7.88,7.88,0,0,1,5.556-5.19c.891-.193,2.168.123,2.109,1.41,2.586-1.217,2.45,3.62,1.419,5.372a15.187,15.187,0,0,1-2.06,7.312V88.32c0,1.916,4.364,2.68,4.364,2.68l-6.289,3.629-1.1.633-6.289,3.631S434.907,93.093,434.907,91.177Z" transform="translate(-394.67 -38.739)" fill="#352322"/>
    </g>
    <g id="Grupo_71625" data-name="Grupo 71625" transform="translate(62.77 83.957)">
      <g id="Grupo_71623" data-name="Grupo 71623">
        <path id="Trazado_105663" data-name="Trazado 105663" d="M421.148,105.521c0-2.763,1.7-6,3.768-7.2L453.449,81.85V78.042a7.828,7.828,0,0,1,3.256-6.221l14.919-8.614a2.058,2.058,0,0,1,2.107-.153l.007-.017,2.68,1.577-.876,2.588-.663-.436V109.66c0,2.763-1.7,6-3.766,7.2L426.1,142.848l-1.428,2.133L422.28,143.6l-.028-.017,0,0h0a3.532,3.532,0,0,1-1.1-2.9Z" transform="translate(-421.148 -62.832)" fill="#ff9201"/>
        <path id="Trazado_105664" data-name="Trazado 105664" d="M424.422,99.1l28.534-16.474V78.818a7.821,7.821,0,0,1,3.256-6.219l14.919-8.615c1.791-1.034,3.256.074,3.256,2.461v43.992c0,2.763-1.7,6-3.766,7.2l-46.2,26.673c-2.072,1.2-3.766-.085-3.766-2.847V106.3C420.656,103.536,422.349,100.3,424.422,99.1Z" transform="translate(-418.21 -62.19)" fill="#ffaf04"/>
      </g>
      <path id="Trazado_105675" data-name="Trazado 105675" d="M439.3,77.322l-15.4,8.889V111.29l15.4-8.889Z" transform="translate(-389.097 -50.652)" fill="#fff"/>
      <path id="Trazado_105676" data-name="Trazado 105676" d="M449.478,95.712l-15.4,8.889v1.587l15.4-8.889Z" transform="translate(-418.014 -35.196)" fill="#352322"/>
      <path id="Trazado_105677" data-name="Trazado 105677" d="M434.083,99.674,446.6,92.449v1.587l-12.514,7.225Z" transform="translate(-415.133 -37.939)" fill="#352322"/>
      <path id="Trazado_105678" data-name="Trazado 105678" d="M434.083,91.812,446.6,84.587v1.587L434.083,93.4Z" transform="translate(-415.133 -44.546)" fill="#352322"/>
      <path id="Trazado_105679" data-name="Trazado 105679" d="M434.083,95.4l15.966-9.21v1.587l-15.966,9.21Z" transform="translate(-418.584 -43.195)" fill="#352322"/>
      <path id="Trazado_105680" data-name="Trazado 105680" d="M454.486,94.146l-20.4,11.8v1.587l20.4-11.8Z" transform="translate(-423.022 -36.512)" fill="#352322"/>
      <path id="Trazado_105681" data-name="Trazado 105681" d="M454.486,82.913l-20.4,11.8V96.3l20.4-11.8Z" transform="translate(-423.022 -45.954)" fill="#352322"/>
    </g>
    <g id="Grupo_71626" data-name="Grupo 71626" transform="translate(124.222 86.888)">
      <path id="Trazado_105683" data-name="Trazado 105683" d="M400.28,101.425l5.6-22.1,3.336,6.165,4.037-10.536,3.82,3.829,3.776-14.362,4.38,12.437,2.739-2.932,4.539,13.87L400.28,106.464Z" transform="translate(-400.28 -64.424)" fill="#fff"/>
      <path id="Trazado_105684" data-name="Trazado 105684" d="M431.913,80.86l-1.4-9.066-2.023,3-2.533-8.474-4.311,12.216-2.121-3.471-1.642,4.4L415.373,76.9l-1.8,4.389-4.149-3.478-4.268,9.011-3.148-2.569-4.278,19.039,15.549-8.983Z" transform="translate(-394.998 -62.829)" fill="#ff9201"/>
      <path id="Trazado_105685" data-name="Trazado 105685" d="M430.371,77.826,424.9,71.994l-1.848,4.564-3.028-4.708-3.439,10.962-2.163-3.143-1.88,4.532-3.091-4.372L407.3,84.92l-3.182-4.828-2.772,7.946-1.026-1.1-3.607,10.311Z" transform="translate(-391.579 -58.183)" fill="#ffaf04"/>
    </g>
    <path id="Trazado_105686" data-name="Trazado 105686" d="M396.935,54.752V86.021l31.4-18.129V36.623Z" transform="translate(-265.73 -0.904)" fill="#26aab7"/>
    <path id="Trazado_105687" data-name="Trazado 105687" d="M420.586,47.251V78.52l-5.116,2.954V50.2Z" transform="translate(-292.095 8.029)" fill="#352322"/>
    <g id="Grupo_71627" data-name="Grupo 71627" transform="translate(132.407 54.21)">
      <path id="Trazado_105688" data-name="Trazado 105688" d="M411.753,49.816l2.925-1.689V46.67l-2.925,1.689Z" transform="translate(-411.753 -46.67)" fill="#fff"/>
      <path id="Trazado_105689" data-name="Trazado 105689" d="M411.753,51.246l2.925-1.689V48.1l-2.925,1.689Z" transform="translate(-411.753 -45.467)" fill="#ffaf04"/>
      <path id="Trazado_105690" data-name="Trazado 105690" d="M411.753,52.668l2.925-1.689V49.521l-2.925,1.689Z" transform="translate(-411.753 -44.273)" fill="#ff9201"/>
      <path id="Trazado_105691" data-name="Trazado 105691" d="M411.753,54.181l2.925-1.689V51.035l-2.925,1.689Z" transform="translate(-411.753 -43.001)" fill="#ff7f00"/>
    </g>
    <g id="Grupo_71628" data-name="Grupo 71628" transform="translate(139.074 44.039)">
      <path id="Trazado_105692" data-name="Trazado 105692" d="M398.578,42.374c5.652-3.263,10.235.188,10.253,7.706L398.578,56Z" transform="translate(-388.324 -41.143)" fill="#fff"/>
      <path id="Trazado_105693" data-name="Trazado 105693" d="M404.149,61.356c.018-7.541,4.6-16.281,10.252-19.544V55.437Z" transform="translate(-404.147 -40.582)" fill="#ffaf04"/>
      <path id="Trazado_105694" data-name="Trazado 105694" d="M401.836,55.134l10.252-5.919s2.588,6.234,4.261,10.022a16.505,16.505,0,0,1-4.261,3.7c-5.663,3.269-10.254-.2-10.254-7.752Z" transform="translate(-401.834 -34.359)" fill="#ff9201"/>
      <path id="Trazado_105695" data-name="Trazado 105695" d="M408.831,46v.046a26.186,26.186,0,0,1-5.993,15.895c-1.673-3.788-4.261-10.022-4.261-10.022Z" transform="translate(-388.324 -37.062)" fill="#ff7f00"/>
    </g>
    <g id="Grupo_71629" data-name="Grupo 71629" transform="translate(9.787 102.786)">
      <path id="Trazado_105696" data-name="Trazado 105696" d="M486.375,92.2l-19.9,11.492v3.11l19.9-11.492Z" transform="translate(-461.538 -56.974)" fill="#352322"/>
      <path id="Trazado_105697" data-name="Trazado 105697" d="M493.269,73.062v3.11L464.136,92.914V89.8Z" transform="translate(-464.136 -73.062)" fill="#352322"/>
      <path id="Trazado_105698" data-name="Trazado 105698" d="M486.375,77.323l-19.9,11.492v24.819l19.9-11.492Z" transform="translate(-461.538 -69.481)" fill="#ffaf04"/>
      <path id="Trazado_105699" data-name="Trazado 105699" d="M486.375,104.564l-19.9,11.492v24.819l19.9-11.492Z" transform="translate(-461.538 -46.584)" fill="#ffaf04"/>
      <path id="Trazado_105700" data-name="Trazado 105700" d="M486.375,95.313,466.47,106.8v3.11l19.9-11.492Z" transform="translate(-461.538 -54.36)" fill="#352322"/>
      <path id="Trazado_105701" data-name="Trazado 105701" d="M486.375,98.423l-19.9,11.492v3.11l19.9-11.492Z" transform="translate(-461.538 -51.745)" fill="#352322"/>
      <path id="Trazado_105702" data-name="Trazado 105702" d="M486.375,101.534l-19.9,11.492v3.11l19.9-11.492Z" transform="translate(-461.538 -49.131)" fill="#352322"/>
    </g>
  </g>
  <g id="Grupo_71633" data-name="Grupo 71633" transform="translate(-216.349 -123.351)">
    <path id="Trazado_105722" data-name="Trazado 105722" d="M540.715,323.039l-64.863,37.449L362.076,294.8l64.863-37.449Z" fill="#fff"/>
    <path id="Trazado_105723" data-name="Trazado 105723" d="M362.076,280.645v1.863L475.852,348.2v-1.863Z" transform="translate(0 14.154)" fill="#efe8eb"/>
    <path id="Trazado_105724" data-name="Trazado 105724" d="M497.711,298.211v1.863l-64.863,37.449V335.66Z" transform="translate(43.004 24.828)" fill="#e0d1db"/>
    <path id="Trazado_105725" data-name="Trazado 105725" d="M432.354,266.2l-54.108,31.239-9.309-5.374,53.887-31.112Z" transform="translate(4.169 2.19)" fill="#1565c0"/>
    <g id="Grupo_71633-2" data-name="Grupo 71633" transform="translate(388.813 272.091)">
      <path id="Trazado_105726" data-name="Trazado 105726" d="M417.611,267.467l-1.756-.947-9.549,5.513,1.7.98Z" transform="translate(-361.937 -266.52)" fill="#26aab7"/>
      <path id="Trazado_105727" data-name="Trazado 105727" d="M378.707,295.226l1.756.947,42.756-24.685-1.7-.98Z" transform="translate(-378.707 -264.097)" fill="#26aab7"/>
      <path id="Trazado_105728" data-name="Trazado 105728" d="M419.991,268.858l-1.756-.947-9.53,5.5,1.7.98Z" transform="translate(-360.48 -265.674)" fill="#26aab7"/>
      <path id="Trazado_105729" data-name="Trazado 105729" d="M381.094,296.622l1.756.947,42.775-24.7-1.7-.981Z" transform="translate(-377.257 -263.255)" fill="#26aab7"/>
      <path id="Trazado_105730" data-name="Trazado 105730" d="M383.48,297.947l1.756.947,42.718-24.664-1.7-.98Z" transform="translate(-375.807 -262.43)" fill="#26aab7"/>
      <path id="Trazado_105731" data-name="Trazado 105731" d="M422.4,270.2l-1.756-.947-9.587,5.535,1.7.98Z" transform="translate(-359.051 -264.862)" fill="#26aab7"/>
      <path id="Trazado_105732" data-name="Trazado 105732" d="M385.867,299.334l1.756.947,42.728-24.669-1.7-.98Z" transform="translate(-374.356 -261.591)" fill="#26aab7"/>
      <path id="Trazado_105733" data-name="Trazado 105733" d="M424.782,271.581l-1.756-.947-9.577,5.529,1.7.981Z" transform="translate(-357.597 -264.02)" fill="#26aab7"/>
      <path id="Trazado_105734" data-name="Trazado 105734" d="M427.19,272.918l-1.756-.947-9.633,5.562,1.7.98Z" transform="translate(-356.168 -263.207)" fill="#26aab7"/>
      <path id="Trazado_105735" data-name="Trazado 105735" d="M388.254,300.659l1.756.947,42.672-24.636-1.7-.981Z" transform="translate(-372.906 -260.766)" fill="#26aab7"/>
      <path id="Trazado_105736" data-name="Trazado 105736" d="M429.57,274.31l-1.756-.947-9.614,5.551,1.7.981Z" transform="translate(-354.71 -262.362)" fill="#26aab7"/>
      <path id="Trazado_105737" data-name="Trazado 105737" d="M390.641,302.055,392.4,303l42.691-24.647-1.7-.981Z" transform="translate(-371.456 -259.924)" fill="#26aab7"/>
      <path id="Trazado_105738" data-name="Trazado 105738" d="M393.027,303.38l1.756.947,42.634-24.615-1.7-.981Z" transform="translate(-370.006 -259.099)" fill="#26aab7"/>
      <path id="Trazado_105739" data-name="Trazado 105739" d="M431.978,275.647l-1.756-.947-9.671,5.583,1.7.981Z" transform="translate(-353.282 -261.549)" fill="#26aab7"/>
      <path id="Trazado_105740" data-name="Trazado 105740" d="M395.305,304.822l1.756.947,42.769-24.693-1.7-.98Z" transform="translate(-368.621 -258.271)" fill="#26aab7"/>
      <path id="Trazado_105741" data-name="Trazado 105741" d="M434.2,277.059l-1.756-.947-9.536,5.506,1.7.981Z" transform="translate(-351.846 -260.691)" fill="#26aab7"/>
      <path id="Trazado_105742" data-name="Trazado 105742" d="M436.613,278.4l-1.756-.947-9.592,5.538,1.7.98Z" transform="translate(-350.417 -259.878)" fill="#26aab7"/>
      <path id="Trazado_105743" data-name="Trazado 105743" d="M397.692,306.147l1.756.947,42.713-24.66-1.7-.98Z" transform="translate(-367.171 -257.446)" fill="#26aab7"/>
      <path id="Trazado_105744" data-name="Trazado 105744" d="M444.567,283.818l-1.7-.98-15.629,9.023h0l-27.161,15.681,1.756.947,26.711-15.421h0Z" transform="translate(-365.721 -256.604)" fill="#26aab7"/>
      <path id="Trazado_105745" data-name="Trazado 105745" d="M438.992,279.788l-1.756-.947-9.574,5.527,1.7.98Z" transform="translate(-348.96 -259.033)" fill="#26aab7"/>
      <path id="Trazado_105746" data-name="Trazado 105746" d="M441.4,281.126l-1.756-.947-9.63,5.56,1.7.981Z" transform="translate(-347.531 -258.22)" fill="#26aab7"/>
      <path id="Trazado_105747" data-name="Trazado 105747" d="M402.465,308.867l1.756.947L446.9,285.176l-1.7-.981Z" transform="translate(-364.271 -255.779)" fill="#26aab7"/>
      <path id="Trazado_105748" data-name="Trazado 105748" d="M443.553,282.544,441.8,281.6l-9.442,5.452,1.7.98Z" transform="translate(-346.109 -257.358)" fill="#26aab7"/>
      <path id="Trazado_105749" data-name="Trazado 105749" d="M404.689,310.327l1.756.947,42.863-24.747-1.7-.981Z" transform="translate(-362.919 -254.958)" fill="#26aab7"/>
      <path id="Trazado_105750" data-name="Trazado 105750" d="M467.342,296.2l-1.756-.947-9.523,5.5,1.7.98Z" transform="translate(-331.703 -249.058)" fill="#26aab7"/>
      <path id="Trazado_105751" data-name="Trazado 105751" d="M428.448,323.968l1.756.947,42.782-24.7-1.7-.98Z" transform="translate(-348.483 -246.641)" fill="#26aab7"/>
      <path id="Trazado_105752" data-name="Trazado 105752" d="M430.834,325.293l1.756.947,42.725-24.667-1.7-.981Z" transform="translate(-347.033 -245.816)" fill="#26aab7"/>
      <path id="Trazado_105753" data-name="Trazado 105753" d="M469.75,297.541l-1.756-.947-9.58,5.531,1.7.98Z" transform="translate(-330.274 -248.246)" fill="#26aab7"/>
    </g>
    <g id="Grupo_71634" data-name="Grupo 71634" transform="translate(449.773 310.314)">
      <path id="Trazado_105754" data-name="Trazado 105754" d="M437.248,314.573l-2.29,1.322-18.331-10.583,2.29-1.322Z" transform="translate(-416.626 -281.974)" fill="#ffaf04"/>
      <path id="Trazado_105755" data-name="Trazado 105755" d="M438.439,311.716l-2.29,1.322-13.362-7.715,2.29-1.322Z" transform="translate(-412.883 -281.967)" fill="#ffaf04"/>
      <path id="Trazado_105756" data-name="Trazado 105756" d="M440.359,309.154l-2.29,1.322-10.029-5.791,2.29-1.322Z" transform="translate(-409.691 -282.355)" fill="#ffaf04"/>
      <path id="Trazado_105757" data-name="Trazado 105757" d="M445.5,308.695l-2.29,1.322-15.779-9.11,2.29-1.322Z" transform="translate(-410.061 -284.651)" fill="#ffaf04"/>
      <path id="Trazado_105758" data-name="Trazado 105758" d="M445.177,304.963l-2.29,1.322-6.8-3.927,2.29-1.322Z" transform="translate(-404.802 -283.769)" fill="#ffaf04"/>
      <path id="Trazado_105759" data-name="Trazado 105759" d="M450.858,304.572l-2.29,1.322-13.422-7.749,2.29-1.322Z" transform="translate(-405.373 -286.329)" fill="#ff9201"/>
      <path id="Trazado_105760" data-name="Trazado 105760" d="M452.54,302.121l-2.29,1.322-10.03-5.79,2.29-1.322Z" transform="translate(-402.289 -286.628)" fill="#ff9201"/>
      <path id="Trazado_105761" data-name="Trazado 105761" d="M460.056,303.033l-2.29,1.322L435.7,291.618l2.29-1.322Z" transform="translate(-405.034 -290.295)" fill="#ff9201"/>
      <path id="Trazado_105762" data-name="Trazado 105762" d="M460.8,299.919l-2.29,1.322L442.6,292.054l2.29-1.322Z" transform="translate(-400.844 -290.03)" fill="#ff9201"/>
      <path id="Trazado_105763" data-name="Trazado 105763" d="M460.537,296.095l-2.29,1.322-6.8-3.927,2.29-1.322Z" transform="translate(-395.469 -289.157)" fill="#ff9201"/>
      <path id="Trazado_105764" data-name="Trazado 105764" d="M479.418,293.458,425.655,324.5l.689.4,53.763-31.04Z" transform="translate(-411.14 -288.374)" fill="#261822"/>
    </g>
    <path id="Trazado_105765" data-name="Trazado 105765" d="M418.668,299.969l-1.756-.947-9.523,5.5,1.7.981Z" transform="translate(27.533 25.321)" fill="#ffaf04"/>
    <path id="Trazado_105766" data-name="Trazado 105766" d="M421.11,301.4l-1.756-.947-9.523,5.5,1.7.981Z" transform="translate(29.017 26.189)" fill="#ffaf04"/>
  </g>
  <g id="Grupo_71609" data-name="Grupo 71609" transform="translate(216.405 26.719)">
    <path id="Trazado_105574" data-name="Trazado 105574" d="M364.538,134.507c.4-.361.587-3.018.681-5.671-.491-3.933.736-10.588.736-14.656a113.3,113.3,0,0,0-.893-11.68c-.42-3.158-1.009-5.932-1.307-9.112A39.419,39.419,0,0,1,363,80.324a33.206,33.206,0,0,0,11.258,1.642,30.646,30.646,0,0,1-.232,9.692,35.842,35.842,0,0,1-1.669,5.58,13.521,13.521,0,0,0-1.071,4.084c-.072,1.633,1.447,4.25,1.752,5.8.918,4.675-1.027,7.537-2.391,13.642a31.5,31.5,0,0,0-.712,5.146,6.164,6.164,0,0,1,.933,1.318c.836,1.57-.479,2.934-1.154,4.187s-.287,4.914-1.1,5.5-3.532,2.334-5.369,1.5C361.906,137.8,363.426,135.523,364.538,134.507Z" transform="translate(-342.361 -27.891)" fill="#ffb9a4"/>
    <path id="Trazado_105575" data-name="Trazado 105575" d="M366.159,67.868c1.209,1.564,2.6,2.247,3.162,2.174s-.186-1.042-.558-2.174.652-.821,1.581.48.466,2.7,1.115,3.164a29.5,29.5,0,0,0,6.295,2.014c.79.149,2.444.569,3.44.865,1.229-1.993,4.428-7.276,6.162-11.01,1.991-4.29,6.981-1.7,6.981-1.7l-3.613,9.8s-5.571,5.444-7.645,7.931c-1.123,1.345-2.487.9-5.091.342s-6.506-4.277-8.853-5.921c-1.4-.979-5.487-2.325-5.731-5.115S364.95,66.3,366.159,67.868Z" transform="translate(-363.381 -44.21)" fill="#ffc9b6"/>
    <g id="Grupo_71606" data-name="Grupo 71606" transform="translate(19.521 98.015)">
      <path id="Trazado_105576" data-name="Trazado 105576" d="M373.728,108.718a58.1,58.1,0,0,0-1.916,7.577c-.112,1.139-2,2.65-5.227,2.512s-2.047-1.686-1.3-2.871c.348-.554.681-.985,1-1.443a2.436,2.436,0,0,0,1.853,1.114,2.1,2.1,0,0,0,2.6-1.312c.7-1.275,1.741-5.1,2.161-6.186s-.4-3.018-.4-3.018l0,0C373.374,106.141,374.346,106.824,373.728,108.718Z" transform="translate(-364.444 -105.09)" fill="#f24a1d"/>
      <path id="Trazado_105577" data-name="Trazado 105577" d="M365.318,106.818v5.647c0,.1-.186.188-.416.188s-.416-.085-.416-.188v-4.342Z" transform="translate(-355.916 -103.638)" fill="#f24a1d"/>
    </g>
    <path id="Trazado_105578" data-name="Trazado 105578" d="M366.389,136.534c.357-.4.269-3.064.083-5.711-.9-3.86-.381-10.609-.808-14.652a113.558,113.558,0,0,0-2.115-11.522c-.751-3.1-1.627-5.792-2.258-8.925a39.444,39.444,0,0,1-2.124-12.911,33.173,33.173,0,0,0,11.369.447,30.689,30.689,0,0,1,.788,9.665,35.753,35.753,0,0,1-1.075,5.726,13.54,13.54,0,0,0-.635,4.174c.1,1.629,1.52,4.48,1.953,5.995,1.526,5.343.169,7.187-.547,13.4a31.507,31.507,0,0,0-.167,5.192,6.155,6.155,0,0,1,1.068,1.213c1,1.474-.167,2.967-.709,4.287s.23,4.916-.519,5.582-3.267,2.691-5.179,2.054C364.117,140.084,365.389,137.66,366.389,136.534Z" transform="translate(-333.595 -25.799)" fill="#ffc9b6"/>
    <g id="Grupo_71607" data-name="Grupo 71607" transform="translate(30.572 101.613)">
      <path id="Trazado_105579" data-name="Trazado 105579" d="M367.324,110.524a58.059,58.059,0,0,0-1.108,7.738c.007,1.143-1.71,2.845-4.934,3.046s-2.212-1.46-1.6-2.717c.285-.587.572-1.051.837-1.541a2.433,2.433,0,0,0,1.96.913,2.106,2.106,0,0,0,2.453-1.579c.558-1.342,1.193-5.258,1.5-6.377s-.712-2.961-.712-2.961l.006,0C366.7,108,367.74,108.576,367.324,110.524Z" transform="translate(-359.035 -107.045)" fill="#f24a1d"/>
      <path id="Trazado_105580" data-name="Trazado 105580" d="M359.415,108.687l.593,5.615c.011.1-.164.206-.392.23s-.423-.039-.434-.144l-.456-4.316Z" transform="translate(-351.054 -105.665)" fill="#f24a1d"/>
    </g>
    <path id="Trazado_105581" data-name="Trazado 105581" d="M358.155,88.678c1.253-2.422,2.864-4.045,2.838-5.809a30.979,30.979,0,0,1,.545-8.036c-.7-.955-3.018-2.111-1.868-5.288a15.948,15.948,0,0,1,2.567-4.018,17.506,17.506,0,0,1,3.53-3.786c1.369-.944,1.894-.377,3.263.221a38.286,38.286,0,0,1,8.282,3.893,15.143,15.143,0,0,1,2.232,1.686c1.066,1.246.786,2.312.784,3.53,0,.088-3.78,6.906-5.628,11.165-.663,1.524-1.5,2.4-.468,4.285,1.342,2.442,2.516,3.4,3.711,8.292,2.753,11.275-3.617,26.722-3.617,26.722a10.2,10.2,0,0,1-7.114,2.159c-5.915-.368-8.325-3.041-8.325-3.041s-2.218-10.491-2.306-18.319C356.524,97.144,356.581,91.722,358.155,88.678Z" transform="translate(-336.871 -43.933)" fill="#ff6029"/>
    <path id="Trazado_105582" data-name="Trazado 105582" d="M363.551,63.03a3.536,3.536,0,0,1,.681-2.748c.782-1.016,2.483-1.887,3.7-1.158.015.009.022.026.033.037a2.273,2.273,0,0,1,1.686,2.2c.758,2.286-1.633,4.43-3.751,4.091a2.922,2.922,0,0,1-.16,1.962,1.615,1.615,0,0,1-2.586.618,3.551,3.551,0,0,1-1.191-3.521A2.208,2.208,0,0,1,363.551,63.03Z" transform="translate(-336.027 -45.937)" fill="#ff9201"/>
    <path id="Trazado_105583" data-name="Trazado 105583" d="M363.367,68.865a3.577,3.577,0,0,1-3.2-.863,2.833,2.833,0,0,1-.99-2,2.762,2.762,0,0,0,1.086-2.117c.042-.714-.166-1.45-.18-2.179a13.058,13.058,0,0,1,3.274-1.366c.664-.1,1.714-1.864,2.35-2.15a11.794,11.794,0,0,0-.085,4.737,13.921,13.921,0,0,0,1.04,4.423A8.453,8.453,0,0,1,363.367,68.865Z" transform="translate(-327.977 -46.499)" fill="#ffb9a4"/>
    <path id="Trazado_105584" data-name="Trazado 105584" d="M359.4,59.2c.2-1.662.723-3.729,2.1-4.82a5.06,5.06,0,0,1,4.321-.88c2.536.377,4.485,4.253,3.779,7.482-.652,2.98-2.542,6.653-5.95,7.02C359.861,68.41,359.1,61.727,359.4,59.2Z" transform="translate(-331.36 -50.538)" fill="#ffc9b6"/>
    <path id="Trazado_105585" data-name="Trazado 105585" d="M360.3,57.576s1.377-1.541,1.966-.331-.53,3.267-1.495,3.046S360.3,57.576,360.3,57.576Z" transform="translate(-325.569 -47.679)" fill="#ffc9b6"/>
    <path id="Trazado_105586" data-name="Trazado 105586" d="M358.161,53.358a6.3,6.3,0,0,1,7.349-.617c.952-1.141,2.671-.97,4.036-.322a3.794,3.794,0,0,1,2.093,3.78c2.7.133,4.049,4.193,2.249,6.109A3.264,3.264,0,0,1,375.13,65.1a4.067,4.067,0,0,1-3,3.42c1.055.909,1.841,2.021,1.277,3.532-.718,1.933-2.849,2.395-4.68,2.551l.006.02a2.862,2.862,0,0,1-.964,3.123,2.631,2.631,0,0,1-3.475.167,2.212,2.212,0,0,1-.672-3.171,2.744,2.744,0,0,1,1.8-1.088,2.409,2.409,0,0,1,2.315-3.39,2.821,2.821,0,0,1,.1-2.7,5.507,5.507,0,0,1-2.058-4.237,2.723,2.723,0,0,1,.5-1.682,7.177,7.177,0,0,1-3.981-4.526,5.174,5.174,0,0,0-2.093,1.66,6.412,6.412,0,0,0-.6,3.169C355.855,60.483,355.8,55.648,358.161,53.358Z" transform="translate(-331.62 -51.836)" fill="#ff9201"/>
    <path id="Trazado_105587" data-name="Trazado 105587" d="M374.078,73.815l-.094,3.5s-4.772,2.187-8.518,1.667c-4.529-.631-5.617-2.551-5.617-2.551l.876-4.235s.379,1.568,4.3,1.942A47.8,47.8,0,0,0,374.078,73.815Z" transform="translate(-336.621 -34.725)" fill="#f24a1d"/>
    <path id="Trazado_105588" data-name="Trazado 105588" d="M371.715,82.588s-.808,4.349-4.461,5.277-5.667,0-5.667,0,4.091-.653,5.807-1.734A40.21,40.21,0,0,0,371.715,82.588Z" transform="translate(-337.457 -25.988)" fill="#f24a1d"/>
    <path id="Trazado_105589" data-name="Trazado 105589" d="M370.562,85.2a7.245,7.245,0,0,1-4.174-2.174,12.119,12.119,0,0,1-2.337-3.547s-.267,3.716,2.255,5.194S370.562,85.2,370.562,85.2Z" transform="translate(-340.822 -28.601)" fill="#f24a1d"/>
    <path id="Trazado_105590" data-name="Trazado 105590" d="M370.815,86.653s-2.188,4.436-5.058,6.261a6.082,6.082,0,0,1-3.565.957,24.759,24.759,0,0,1,3.537-2.783A40.414,40.414,0,0,0,370.815,86.653Z" transform="translate(-337.67 -22.572)" fill="#f24a1d"/>
    <path id="Trazado_105591" data-name="Trazado 105591" d="M369.468,70.68s-3.191.631-4.6,0a39.744,39.744,0,0,1-3.652-2,4.486,4.486,0,0,0,3.652,3.267A5.324,5.324,0,0,0,369.468,70.68Z" transform="translate(-334.521 -37.68)" fill="#f24a1d"/>
    <g id="Grupo_71608" data-name="Grupo 71608" transform="translate(14.433 28.435)">
      <path id="Trazado_105592" data-name="Trazado 105592" d="M363.284,70.485l-.768.432L368.429,84.8l.768-.432Z" transform="translate(-351.081 -64.596)" fill="#e0d1db"/>
      <path id="Trazado_105593" data-name="Trazado 105593" d="M365.728,67.718l.768-.432,10.2,5.889-.768.432Z" transform="translate(-364.493 -67.286)" fill="#c5d2ef"/>
      <path id="Trazado_105594" data-name="Trazado 105594" d="M368.97,84.12l12.166,7.024L374.082,74.59l-12.166-7.024Z" transform="translate(-361.916 -67.05)" fill="#261822"/>
      <path id="Trazado_105595" data-name="Trazado 105595" d="M362.335,71.1l-.916.516,7.053,16.554.916-.515Z" transform="translate(-349.253 -64.078)" fill="#352322"/>
      <path id="Trazado_105596" data-name="Trazado 105596" d="M365.251,67.8l.916-.515,12.166,7.024-.916.516Z" transform="translate(-365.251 -67.286)" fill="#333368"/>
    </g>
    <path id="Trazado_105597" data-name="Trazado 105597" d="M354.462,85.55c.769-.166,1.951.685,2.757.961a3.2,3.2,0,0,0,2.336-.258c.331-.469-.407-1.656-.125-2.328.2-.482.5-.134,1.143.955.624,1.062.692,1.7,1.206,2.22,0,0,4.062-.893,5.582-2.133,3.07-2.509,5.1-2.671,5.1-2.671s-2.468-4.634-2.9-7.1c-1.4-.431-3.911-.118-3.142-4.686a9.542,9.542,0,0,1,3.847-6.44,4.978,4.978,0,0,1,3.808,5.1c1.288,4.518,2.041,6.5,2.577,8.678s.322,3.392.646,4.61-.057,1.728-1.506,3.433A14.435,14.435,0,0,1,369,89.5c-1.347.346-6.469.922-7.958.464s-4.393-.333-5.939-1.951C354.173,87.041,353.247,85.813,354.462,85.55Z" transform="translate(-328.97 -41.556)" fill="#ffc9b6"/>
  </g>
  <g id="Grupo_71631" data-name="Grupo 71631" transform="translate(145.36 124.053)">
    <path id="Trazado_105703" data-name="Trazado 105703" d="M401.794,99.8c-1.154,1.2-1.093,2.487-.328,3.928a22.555,22.555,0,0,1,1.219,2.718l2.153-3.324Z" transform="translate(-394.904 -71.858)" fill="#ffc9b6"/>
    <path id="Trazado_105704" data-name="Trazado 105704" d="M404.58,110.02l5.358-4.38L402.331,96.5l-5.358,4.38Z" transform="translate(-392.762 -74.626)" fill="#cfdeff"/>
    <path id="Trazado_105705" data-name="Trazado 105705" d="M401.812,108.457s-2.446-2.229-1.691-4.875c.6-2.1,1.763-2.3,2.545-3.458.762-1.126,2.3-.639,1.4.714s-1.353,1.71-.9,3,1.215,3.655,1.215,3.655Z" transform="translate(-392.731 -72.11)" fill="#ffc9b6"/>
    <path id="Trazado_105706" data-name="Trazado 105706" d="M411.8,93.274a7.312,7.312,0,0,1,.8-1.6,12.309,12.309,0,0,0-1.316-.7c-2.665-1.24-11.995-4.8-12.389-3.852-.442,1.062,1.161,1.261,2.4,1.815a14.073,14.073,0,0,0,1.785.71s-1.82,3.418.318,4.18a9.866,9.866,0,0,0,5.836.71,6.317,6.317,0,0,1,2.275.072A6.571,6.571,0,0,1,411.8,93.274Z" transform="translate(-398.818 -82.643)" fill="#ffc9b6"/>
    <path id="Trazado_105707" data-name="Trazado 105707" d="M382.545,88.907s-1.645,0-2.1,2.453a5.119,5.119,0,0,0,.3,2.888s8.087,4.78,12.946,5.825c1.828,1.754,6.2,3.793,6.977,4.2s12.447,10.815,14.656,10.539,3.952-8.095,2.013-13.808-7.877-3.974-7.877-3.974a107.949,107.949,0,0,0-11.575-3.571C393.017,90.834,382.545,88.907,382.545,88.907Z" transform="translate(-370.427 -81.011)" fill="#26aab7"/>
    <path id="Trazado_105708" data-name="Trazado 105708" d="M394.173,138.1a17.164,17.164,0,0,1,1.147,4.117c.234,2.115-.123,3.206-1.55,3.679-1.531.508-3.674.175-7.246-1.726s-5.135-3.788-5.262-5.012,1.671-3.006,4.756-2.041a42.041,42.041,0,0,1,4.651,1.691Z" transform="translate(-349.281 -40.719)" fill="#2199d8"/>
    <path id="Trazado_105709" data-name="Trazado 105709" d="M381.264,118.686c.363-2.312.329-5.549,1.3-7.668-.532-.294,6.092-1.379,8.041-1.771.99-.2,5.564,8.177,2.262,12.8-.283,4.864-.872,9.5-3.191,14.463a50.4,50.4,0,0,1,1.833,5.742c1.6,5.79.58,13.439-.173,19.6-.322,2.647-5.615,1.772-6.733.449-.784-3.869-1.353-13.279-3.017-19.451-1.257-4.66-1.579-5.63-1.1-8.724C381.583,127,381.031,120.189,381.264,118.686Z" transform="translate(-346.142 -63.918)" fill="#261822"/>
    <path id="Trazado_105710" data-name="Trazado 105710" d="M389.088,137.7a9.786,9.786,0,0,0-2.671,1.971c-.882,1.113-1.846.2-1.213-.926a4.278,4.278,0,0,1,2.271-1.6A4.672,4.672,0,0,1,389.088,137.7Z" transform="translate(-349.879 -40.467)" fill="#352322"/>
    <path id="Trazado_105711" data-name="Trazado 105711" d="M400.445,141.664a17.193,17.193,0,0,1,1.147,4.119c.234,2.113-.125,3.2-1.552,3.677-1.531.508-3.674.177-7.244-1.726s-5.137-3.786-5.264-5.012,1.673-3.006,4.758-2.041a42.024,42.024,0,0,1,4.651,1.691Z" transform="translate(-367.096 -37.726)" fill="#2199d8"/>
    <path id="Trazado_105712" data-name="Trazado 105712" d="M385.146,124.322c.361-2.31,1.15-7.876,2.122-9.994-.532-.294,5.1,1.66,7.051,1.27,1.658-.333,6.464-5.455,6.484-5.266,4.336,5.164,3.366,12.755-1.237,16a24.786,24.786,0,0,1-7.5,15.816,33.6,33.6,0,0,1,1.831,5.742c1.121,5.9.58,13.441-.171,19.6-.322,2.647-5.615,1.772-6.733.451-.784-3.871-1.353-13.279-3.018-19.452-1.255-4.66-1.579-5.628-1.1-8.724C383.969,132.639,384.91,125.826,385.146,124.322Z" transform="translate(-360.071 -63.007)" fill="#352322"/>
    <path id="Trazado_105713" data-name="Trazado 105713" d="M395.36,141.259a9.672,9.672,0,0,0-2.671,1.969c-.882,1.115-1.848.2-1.213-.926a4.278,4.278,0,0,1,2.271-1.6A4.657,4.657,0,0,1,395.36,141.259Z" transform="translate(-367.692 -37.474)" fill="#352322"/>
    <path id="Trazado_105714" data-name="Trazado 105714" d="M388.682,86.449a5.658,5.658,0,0,1,6.217.087,5.047,5.047,0,0,1,2.755,4.13A14.9,14.9,0,0,1,397.323,94a14.481,14.481,0,0,1-2.262,4.215c-1.172,1.472-4.323,2.958-6.37,2.306-1.82-.58-3.048-3.243-2.671-7.189C386.291,90.511,386.208,88.131,388.682,86.449Z" transform="translate(-360.198 -83.826)" fill="#ffc9b6"/>
    <path id="Trazado_105715" data-name="Trazado 105715" d="M389.5,97.242c5.282-2.577,6.93-5.277,10.583-2.061,2.268,2,2.652,10.139,2.345,13.526-.23,2.54-1.767,8.038-1.511,12.55.086,1.5,1.507,3.418,1.789,4.813-1.756,2.194-7.093,6.883-11.851,6.856s-6.819-.865-8.54-2.556c-.009-3.652.285-5.9.11-8.071-.5-6.287-1.377-11.347-1.59-15.243C380.547,101.815,383.35,100.24,389.5,97.242Z" transform="translate(-355.795 -76.972)" fill="#1d8b96"/>
    <path id="Trazado_105716" data-name="Trazado 105716" d="M390.154,90.512a30.677,30.677,0,0,0,.738,4.39,8.074,8.074,0,0,0,2.245,3.342s1.776,2.672-1.171,3.935-6.453-1.329-6.453-1.329a13.691,13.691,0,0,0-1.143-4.4C383.554,94.421,390.154,90.512,390.154,90.512Z" transform="translate(-353.169 -79.662)" fill="#ffc9b6"/>
    <path id="Trazado_105717" data-name="Trazado 105717" d="M384.253,86.942s-.677,3.534,3.416,5.034c.712,2.126,3.427,3.4,3.427,3.4a4.447,4.447,0,0,0,2.232,3.611,12.182,12.182,0,0,0,4.119,1.655,56.823,56.823,0,0,0,2.47-8.2,6.646,6.646,0,0,0-4.629-7.345,10.02,10.02,0,0,0-6.32.075A42.53,42.53,0,0,0,384.253,86.942Z" transform="translate(-359.341 -84.617)" fill="#352322"/>
    <path id="Trazado_105718" data-name="Trazado 105718" d="M391.866,90.8a2.441,2.441,0,0,1-1.756,3.063l-1.388-2.577S391.08,88.1,391.866,90.8Z" transform="translate(-359.628 -80.333)" fill="#ffc9b6"/>
    <path id="Trazado_105719" data-name="Trazado 105719" d="M395.1,110.208s-3.532,3.609-6.86,3.878a17.658,17.658,0,0,1-4.594-.017,12.666,12.666,0,0,1,4.68-2.131C390.837,111.471,395.1,110.208,395.1,110.208Z" transform="translate(-353.407 -63.107)" fill="#26aab7"/>
    <path id="Trazado_105720" data-name="Trazado 105720" d="M400.151,120.054a3.223,3.223,0,0,1-3.493-.815c-2.908-2.417-8.049-6.885-8.759-7.817-1.263-1.656,1.042-4.7,3.572-3.834a22.419,22.419,0,0,1,7.892,3.985c1.649-4.027,5.058-11.236,5.88-12.144,3.243-3.583,4.929-2.9,6.51-.972,1.417,1.73,2.194,5.525,2.268,8.818s-.447,5.9-2.163,6.677a6.56,6.56,0,0,1-3.521.8C407.911,115.364,403.753,119.031,400.151,120.054Z" transform="translate(-379.496 -74.314)" fill="#26aab7"/>
    <path id="Trazado_105721" data-name="Trazado 105721" d="M392.822,94.306c1.119.407,2.555,2.676-.114,4.761s-5.485.337-6.565-.2a9.562,9.562,0,0,0-2.5-.733s.5-1.627,3.133-1.61c1.59.011,3.979-.453,4.679-1.428C392.183,94.074,392.183,94.074,392.822,94.306Z" transform="translate(-352.509 -76.578)" fill="#26aab7"/>
  </g>
</svg>
